<svg xmlns="http://www.w3.org/2000/svg" width="163.151" height="44.8" viewBox="0 0 163.151 44.8">
  <g id="Otto" transform="translate(-0.05)">
    <g id="Group_1" data-name="Group 1">
      <path id="Path_1" data-name="Path 1" d="M71.4,39.8A16.007,16.007,0,0,1,55.2,23.9c0-8.8,7.1-15.7,16.2-15.7A15.861,15.861,0,0,1,87.6,24,15.987,15.987,0,0,1,71.4,39.8Zm0-26.2A10.286,10.286,0,0,0,61.2,24a10.2,10.2,0,1,0,20.4,0A10.287,10.287,0,0,0,71.4,13.6Z"/>
      <path id="Path_2" data-name="Path 2" d="M147,39.8a16.007,16.007,0,0,1-16.2-15.9c0-8.8,7.2-15.7,16.2-15.7a15.8,15.8,0,1,1,0,31.6Zm0-26.2A10.286,10.286,0,0,0,136.8,24a10.2,10.2,0,1,0,20.4,0A10.224,10.224,0,0,0,147,13.6Z"/>
      <path id="Path_3" data-name="Path 3" d="M94.4,32.6V14.2H88.7V8.9h5.7V0h6V8.9h6.9v5.3h-6.9V31.3c0,1.6,1.1,2.6,2.9,2.6h4v5.3h-5.7C97,39.1,94.4,36.5,94.4,32.6Z"/>
      <path id="Path_4" data-name="Path 4" d="M115.4,32.6V14.2h-5.7V8.9h5.7V0h6V8.9h6.9v5.3h-6.9V31.3c0,1.6,1.1,2.6,2.9,2.6h4v5.3h-5.7C117.9,39.1,115.4,36.5,115.4,32.6Z"/>
    </g>
    <g id="Group_3" data-name="Group 3">
      <g id="Group_2" data-name="Group 2">
        <g id="Layer0_0_1_STROKES_1_">
          <path id="Path_5" data-name="Path 5" d="M15.2,44.8a2.193,2.193,0,0,1-1.7-.7,2.417,2.417,0,0,1,0-3.5L38.3,15.8a2.475,2.475,0,0,1,3.5,3.5L16.9,44.1A2.193,2.193,0,0,1,15.2,44.8Zm12.4,0a2.5,2.5,0,0,1-1.4-.4l-.1-.1a2.455,2.455,0,0,1,2.7-4.1l.1.1a2.544,2.544,0,0,1,.7,3.4A2.305,2.305,0,0,1,27.6,44.8Zm-20-4.6a2.193,2.193,0,0,1-1.7-.7,2.417,2.417,0,0,1,0-3.5l6.8-6.8a2.475,2.475,0,0,1,3.5,3.5L9.4,39.5A3.4,3.4,0,0,1,7.6,40.2Zm29-4.4a2.193,2.193,0,0,1-1.7-.7,2.417,2.417,0,0,1,0-3.5l3.4-3.4a2.475,2.475,0,0,1,3.5,3.5l-3.4,3.4A2.743,2.743,0,0,1,36.6,35.8ZM2.8,32.7A2.193,2.193,0,0,1,1.1,32a2.417,2.417,0,0,1,0-3.5h0a2.417,2.417,0,0,1,3.5,0,2.417,2.417,0,0,1,0,3.5h0A3.4,3.4,0,0,1,2.8,32.7Zm18.2-6a2.193,2.193,0,0,1-1.7-.7,2.417,2.417,0,0,1,0-3.5L33.5,8.3A2.475,2.475,0,0,1,37,11.8L22.8,26A2.41,2.41,0,0,1,21,26.7ZM9.5,26a2.193,2.193,0,0,1-1.7-.7,2.417,2.417,0,0,1,0-3.5L26,3.4a2.417,2.417,0,0,1,3.5,0,2.417,2.417,0,0,1,0,3.5L11.2,25.3A2.837,2.837,0,0,1,9.5,26Zm-7-5.3A2.193,2.193,0,0,1,.8,20a2.417,2.417,0,0,1,0-3.5L8,9.4a2.475,2.475,0,0,1,3.5,3.5L4.3,20A3.4,3.4,0,0,1,2.5,20.7ZM15.8,7.4a2.476,2.476,0,0,1-2.5-2.5V4.6a2.5,2.5,0,1,1,5,0v.2A2.7,2.7,0,0,1,15.8,7.4Z" fill="#6a35ff"/>
        </g>
      </g>
    </g>
  </g>
</svg>
