<svg xmlns="http://www.w3.org/2000/svg" width="72" height="72" viewBox="0 0 72 72">
  <g id="Feature_Icon_3" data-name="Feature Icon 3" transform="translate(17857.258 338.972)">
    <rect id="Rectangle_234" data-name="Rectangle 234" width="72" height="72" rx="36" transform="translate(-17857.258 -338.972)" fill="#f0fbf7"/>
    <path id="Path_876" data-name="Path 876" d="M189.253,160.747l-9.426,9.426" transform="translate(-18009.258 -464.972)" fill="none" stroke="#46d39a" stroke-linecap="round" stroke-linejoin="round" stroke-width="2"/>
    <path id="Path_877" data-name="Path 877" d="M180.844,163.332l-4.617-1.091a.667.667,0,0,1-.319-1.12l3.672-3.672a1.332,1.332,0,0,1,.932-.39l4.14-.036" transform="translate(-18009.258 -464.972)" fill="none" stroke="#46d39a" stroke-linecap="round" stroke-linejoin="round" stroke-width="2"/>
    <path id="Path_878" data-name="Path 878" d="M198.505,157.967l1.078-5.184a2,2,0,0,0-2.366-2.366l-5.184,1.078a7.99,7.99,0,0,0-4.028,2.176l-4.253,4.252a10.666,10.666,0,0,0-3.012,6l-.015.1a4.635,4.635,0,0,0,5.258,5.256l.1-.014a10.666,10.666,0,0,0,6-3.012l4.252-4.252a7.99,7.99,0,0,0,2.176-4.028Z" transform="translate(-18009.258 -464.972)" fill="none" stroke="#46d39a" stroke-linecap="round" stroke-linejoin="round" stroke-width="2"/>
    <path id="Path_879" data-name="Path 879" d="M189.867,152.285a29.917,29.917,0,0,1,7.848,7.848" transform="translate(-18009.258 -464.972)" fill="none" stroke="#46d39a" stroke-linecap="round" stroke-linejoin="round" stroke-width="2"/>
    <path id="Path_880" data-name="Path 880" d="M186.667,169.156l1.09,4.617a.667.667,0,0,0,1.12.319l3.672-3.672a1.333,1.333,0,0,0,.391-.932l.036-4.14" transform="translate(-18009.258 -464.972)" fill="none" stroke="#46d39a" stroke-linecap="round" stroke-linejoin="round" stroke-width="2"/>
  </g>
</svg>
