<svg xmlns="http://www.w3.org/2000/svg" xmlns:xlink="http://www.w3.org/1999/xlink" width="51" height="58" viewBox="0 0 51 58">
  <defs>
    <clipPath id="clip-path">
      <rect id="Rectangle_1" data-name="Rectangle 1" width="51" height="58" transform="translate(0.001)" fill="#fff"/>
    </clipPath>
  </defs>
  <g id="Tiktok" transform="translate(-0.001)" clip-path="url(#clip-path)">
    <path id="Path_1" data-name="Path 1" d="M37.8,20.937A22.537,22.537,0,0,0,51,25.187v-9.53a13.267,13.267,0,0,1-2.773-.292v7.5a22.54,22.54,0,0,1-13.2-4.25V38.064A17.564,17.564,0,0,1,17.514,55.68,17.359,17.359,0,0,1,7.765,52.7,17.492,17.492,0,0,0,37.8,40.384V20.937Zm3.42-9.615A13.321,13.321,0,0,1,37.8,3.546V2.32H35.171A13.345,13.345,0,0,0,41.219,11.322ZM13.882,45.235a8.037,8.037,0,0,1,8.807-12.558V22.934a17.563,17.563,0,0,0-2.772-.16v7.584a8.057,8.057,0,0,0-6.035,14.878Z" fill="#ff004f"/>
    <path id="Path_2" data-name="Path 2" d="M35.026,18.617a22.541,22.541,0,0,0,13.2,4.25v-7.5a13.233,13.233,0,0,1-7.01-4.043,13.344,13.344,0,0,1-6.048-9h-6.9V40.384a8,8,0,0,1-14.387,4.851,8.052,8.052,0,0,1,6.035-14.878V22.773A17.639,17.639,0,0,0,7.765,52.7a17.357,17.357,0,0,0,9.749,2.979A17.564,17.564,0,0,0,35.026,38.065V18.617Z"/>
    <path id="Path_3" data-name="Path 3" d="M48.229,15.365V13.336a13.144,13.144,0,0,1-7.01-2.014A13.223,13.223,0,0,0,48.229,15.365ZM35.171,2.32q-.095-.544-.145-1.094V0H25.5V38.064a8.034,8.034,0,0,1-8.01,8.03,7.937,7.937,0,0,1-3.6-.86,8,8,0,0,0,14.387-4.851V2.32ZM19.917,22.773v-2.16A17.627,17.627,0,0,0,7.765,52.7,17.639,17.639,0,0,1,19.917,22.773Z" fill="#00f2ea"/>
  </g>
</svg>
