<svg xmlns="http://www.w3.org/2000/svg" width="39.999" height="39.999" viewBox="0 0 39.999 39.999">
  <path id="facebook" d="M38.788,0H3.206A2.207,2.207,0,0,0,1,2.209V37.791A2.209,2.209,0,0,0,3.206,40H22.362V24.51H17.15V18.473h5.212V14.02c0-5.166,3.154-7.98,7.763-7.98a43.232,43.232,0,0,1,4.657.237v5.4h-3.2c-2.506,0-2.989,1.191-2.989,2.939v3.854h5.979l-.782,6.037H28.6V40H38.788A2.21,2.21,0,0,0,41,37.791V2.207A2.208,2.208,0,0,0,38.788,0Z" transform="translate(-0.999 -0.001)" fill="#4267b2"/>
</svg>
