<svg xmlns="http://www.w3.org/2000/svg" width="19.5" height="19.18" viewBox="0 0 19.5 19.18">
  <path id="grihub" d="M10.133,8.793l-2.075-.75a.722.722,0,0,0-.966.659L7.04,10.635a3.393,3.393,0,0,0-.809,2.147,4.078,4.078,0,0,0,3.643,4.191A6.014,6.014,0,0,0,9,19.964v.716a10.173,10.173,0,0,1-4.227-3.115A9.114,9.114,0,0,1,12,3a9.152,9.152,0,0,1,7.227,14.565A10.173,10.173,0,0,1,15,20.68v-.716a6.014,6.014,0,0,0-.874-2.991,4.078,4.078,0,0,0,3.643-4.191,3.4,3.4,0,0,0-.809-2.147L16.908,8.7a.722.722,0,0,0-.966-.659l-2.075.75a7.709,7.709,0,0,0-3.734,0Z" transform="translate(-2.25 -2.25)" fill="none" stroke="#7b88a8" stroke-linecap="round" stroke-linejoin="round" stroke-width="1.5"/>
</svg>
