<svg width="306" height="66" viewBox="0 0 306 66" fill="none" xmlns="http://www.w3.org/2000/svg">
<path d="M177.344 21.1766C174.643 21.1766 171.738 21.708 169.493 23.5318C167.145 25.0494 166.366 26.3058 165.559 27.139H164.893L166.997 22.0534L165.559 20.6855C160.438 22.825 154.967 24.2279 149.18 24.8593V27.139C151.319 27.3845 152.687 27.8405 153.353 28.5069C153.985 29.1733 154.3 30.2255 154.3 31.6635V59.4066C154.3 61.0551 154.125 61.9319 152.897 62.5282C152.301 62.8438 151.81 63.0192 151.495 63.1244C151.144 63.1945 150.372 63.3348 149.18 63.5804V66.0004H172.118V63.5804C170.75 63.3348 169.908 63.1945 169.522 63.1244C169.136 63.0192 168.61 62.8438 167.909 62.5282C166.506 61.9319 166.366 61.0551 166.366 59.4066V53.0233C168.681 53.7247 170.995 54.0755 173.275 54.0755C177.484 54.0755 181.763 52.5673 185.2 49.7614C188.637 46.9906 190.917 42.2907 190.917 36.7141C190.917 31.909 189.549 28.1211 186.813 25.3503C184.043 22.5795 180.886 21.1766 177.344 21.1766ZM172.328 50.7786C170.364 50.7786 168.891 49.9368 167.874 48.2883C166.857 46.6399 166.366 44.5706 166.366 42.1505V33.9783C166.366 32.6105 166.927 31.0673 168.049 29.3487C169.136 27.6301 170.434 26.7883 171.907 26.7883C173.836 26.7883 175.344 27.9457 176.502 30.2606C177.659 32.5754 178.22 35.5566 178.22 39.2043C178.22 46.9204 176.256 50.7786 172.328 50.7786Z" fill="white"/>
<path fill-rule="evenodd" clip-rule="evenodd" d="M106.604 54.0262V51.571C105.587 51.2904 104.886 51.0449 104.5 50.8696C103.658 50.4838 102.956 49.3614 102.956 47.3622V31.2635C104.745 29.124 106.639 28.0367 108.603 28.0367C110.006 28.0367 111.023 28.4576 111.62 29.2994C112.216 30.1411 112.496 31.7194 112.496 34.0693V47.3622C112.496 48.8704 112.251 49.7472 111.269 50.3785C110.743 50.6942 110.322 50.9397 110.006 51.0449C109.656 51.1502 109.024 51.3255 108.112 51.571V54.0262H128.735V51.571C127.859 51.3255 127.297 51.1502 126.982 51.0449C126.666 50.9397 126.245 50.6942 125.754 50.3785C124.737 49.7472 124.492 48.9055 124.492 47.3622V31.053C126.456 29.0539 128.385 28.0367 130.314 28.0367C132.979 28.0367 134.277 29.4747 134.277 34.0693V47.3622C134.277 48.5898 133.821 49.5017 133.541 49.9927C133.4 50.2382 133.085 50.4838 132.594 50.7293C132.067 50.9748 131.717 51.1151 131.541 51.1502C131.366 51.1852 130.91 51.3255 130.173 51.571V54.0262H150.867V51.571C149.604 51.2904 148.727 51.0449 148.271 50.8696C147.289 50.4838 146.272 49.3614 146.272 47.3622V32.8418C146.272 29.4747 145.571 26.7741 144.168 24.7749C142.73 22.7757 140.064 21.7586 136.136 21.7586C133.225 21.7586 130.875 22.3548 129.156 23.5123C127.403 24.7047 125.719 26.4233 124.141 28.668H124.001C122.703 24.0734 119.371 21.7586 114.075 21.7586C110.953 21.7586 108.761 22.3619 106.604 23.9682C105.403 24.6979 104.527 25.2818 103.943 25.7198C103.707 25.8975 103.499 26.0751 103.247 26.2917C102.877 26.6091 102.409 27.0103 101.607 27.6178L101.063 27.4718L102.501 22.6354L101.063 21.2676C97.6604 23.0563 92.68 24.4242 86.1212 25.4413V27.7211C88.0854 27.6158 89.3831 27.8964 89.9793 28.4927C90.5756 29.0889 90.8912 30.1061 90.8912 31.5441V47.3622C90.8912 48.8704 90.6106 49.7472 89.6637 50.3785C89.1726 50.6942 87.2892 51.0509 84.2233 51.0509C81.1574 51.0509 79.5514 48.569 79.5195 46.275C79.4875 43.9809 79.5195 32.4209 79.5195 32.4209C79.5195 29.0188 78.5023 26.2831 76.433 24.2839C74.3637 22.2847 71.4876 21.2676 67.8049 21.2676C65.5252 21.2676 62.9297 21.6534 60.0537 22.3899C57.1777 23.1265 54.6173 24.2488 52.3376 25.7569C50.0578 27.2651 48.9354 28.9136 48.9354 30.6322C48.9354 31.5791 49.2862 32.456 49.9876 33.2627C50.654 34.0693 51.601 34.4902 52.7935 34.4902C54.3017 34.4902 55.5643 33.894 56.6516 32.7366C57.7389 31.5791 58.756 29.4747 59.7731 26.4584C60.194 25.2659 60.8253 24.6697 61.632 24.6697C63.6312 24.6697 65.1394 25.0906 66.0863 25.9323C67.0333 26.8092 67.5244 28.5277 67.5244 31.1232V32.7015C66.7878 33.6835 65.4199 34.4552 64.5782 34.8059C64.1573 34.9813 63.6312 35.1917 62.9648 35.3671C62.5242 35.483 62.2062 35.5836 62.0008 35.6487C61.8955 35.682 61.8198 35.7059 61.7723 35.7178C61.4567 35.823 60.9306 35.9633 60.2642 36.1387C59.1203 36.4859 58.1192 36.7856 57.2539 37.0446C56.6334 37.2303 56.0828 37.3951 55.5994 37.5416C54.442 37.9274 53.2144 38.3834 51.9167 38.9796C50.5839 39.5759 49.5668 40.2072 48.9004 40.8034C47.4974 42.0661 46.4102 44.0303 46.4102 46.4152C46.4102 49.0458 47.3571 50.9748 49.2511 52.2024C51.11 53.4299 53.3196 54.0262 55.88 54.0262C60.3343 54.0612 64.2275 52.2024 67.5244 48.4495C67.6646 49.8875 68.4363 51.1502 69.8743 52.3076C71.2772 53.465 72.7503 54.0262 74.2935 54.0262L81.5888 54.0279C82.1182 54.0268 82.6188 54.0271 83.3259 54.0274C83.7683 54.0276 84.2916 54.0279 84.9533 54.0279H86.1212L106.604 54.0262ZM59.399 47.4321C60.0303 48.4492 60.9773 48.9403 62.2049 48.9403C63.8533 48.9403 65.607 47.6776 67.536 45.1874V37.2257L62.9414 38.3831C60.1005 39.2249 58.4169 41.5749 58.4169 43.9949C58.4169 45.2926 58.7326 46.415 59.399 47.4321Z" fill="white"/>
<path d="M16.9356 40.0972C20.4395 46.0831 25.2574 49.5253 32.5573 47.9811C36.0441 47.2435 38.1601 46.7827 42.0378 44.1599C42.7168 43.7007 43.653 44.174 43.653 44.9937V47.2121C43.653 48.3516 43.1812 49.4572 42.2552 50.1213C38.2646 52.9831 32.9451 54.2589 27.8399 54.2589C19.5544 54.2589 12.8521 52.0494 7.83863 47.6302C2.82513 43.2637 0 37.2663 0 29.6907C0 21.852 2.93068 15.802 8.26082 11.4355C13.5382 7.069 20.1475 4.34153 28.737 4.91204C35.3312 5.35003 38.272 6.80751 41.7551 9.43794C45.2381 12.0684 46.5729 16.0333 46.5729 17.3218C46.5729 19.5117 46.799 21.9299 43.653 22.5776C38.6891 23.5996 37.1212 19.9497 36.4992 17.9057C35.8771 15.8618 32.1193 10.4657 27.3014 10.0219C17.2276 9.09408 14.1313 17.1944 13.4317 22.5776C12.732 27.9608 13.4317 34.1114 16.9356 40.0972Z" fill="white"/>
<path d="M235.726 21.3392L237.234 22.707V47.4338C237.234 48.9069 237.549 49.889 238.181 50.3449C238.777 50.836 240.271 51.6695 241.969 51.6427C243.666 51.6159 245.144 51.1166 245.144 51.1166C245.599 51.0113 246.091 50.7658 246.652 50.4502C247.774 49.8188 247.984 48.942 247.984 47.4338V32.247C247.984 30.809 247.669 29.7568 247.037 29.0904C246.371 28.424 245.003 28.0031 242.864 27.7927V25.5129C249.387 24.4958 254.859 23.1279 259.243 21.3392L260.681 22.707L260.05 27.6894H260.4C264.252 22.4336 267.099 21.3392 271.028 21.3392C271.94 21.3392 274.931 21.1889 275.348 21.9956C275.764 22.8023 273.106 24.9155 271.552 27.9815C269.998 31.0474 269.8 31.6313 269.8 31.6313C266.296 31.6313 263.662 32.3522 262.224 34.3514C260.786 36.3506 260.05 38.7006 260.05 41.4012V47.4338C260.05 48.9771 260.365 49.8188 261.418 50.4502C261.944 50.7658 262.435 51.0113 262.961 51.1166C263.452 51.2218 264.259 51.3971 265.346 51.6427V54.0978H220.434V51.6427C222.363 51.2568 223.625 50.836 224.257 50.3449C224.853 49.889 225.169 48.9069 225.169 47.4338V32.3172C225.169 30.8791 224.888 29.8269 224.292 29.1605C223.695 28.4942 222.398 28.0382 220.434 27.7927V25.5129C228.115 24.145 233.2 22.7421 235.726 21.3392Z" fill="white"/>
<path d="M295.399 47.9234C289.823 47.9234 286.245 44.1354 285.158 37.717H304.238C306.026 33.894 305.5 30.2113 302.694 26.6338C299.889 23.0563 295.75 21.2676 290.314 21.2676C285.473 21.2676 281.3 22.7406 277.827 25.6517C274.32 28.5628 272.566 32.5963 272.566 37.717C272.566 42.7325 274.215 46.7309 277.547 49.7122C280.844 52.6934 285.158 54.1665 290.524 54.1665C294.031 54.1665 297.048 53.5001 299.538 52.1322C302.028 50.7994 303.677 48.9756 304.553 46.6958L302.87 45.2578C302.274 46.0294 301.221 46.6608 299.783 47.1518C298.345 47.6779 296.872 47.9234 295.399 47.9234ZM289.823 24.5294C291.541 24.5294 292.699 25.5465 293.295 27.5808C293.856 29.6501 293.821 31.9649 293.19 34.5604H284.842V33.9291C284.842 27.6158 286.736 24.5294 289.823 24.5294Z" fill="white"/>
<path d="M203.3 9.54185C204.949 8.17398 206.843 7.05163 208.982 6.13972C211.853 4.90597 216.441 3.89355 218.275 3.89355C220.109 3.89356 219.322 4.70192 219.322 6.89187C219.322 6.89187 219.092 6.91544 218.275 7.03429C217.213 7.18883 216.38 7.50448 215.19 8.13891C214.138 8.73516 213.191 9.4717 212.349 10.3485C210.666 12.1373 209.298 15.3991 209.298 19.5027V21.5019L215.646 20.7303C215.401 22.1683 215.295 23.6764 215.26 25.3249H209.298V47.3159C209.298 48.789 209.894 49.7711 211.052 50.2972C212.209 50.8233 214.138 51.2442 216.909 51.5248V53.9799H191.551V51.5248C193.515 51.2442 194.918 50.8233 195.725 50.2972C196.531 49.7711 196.952 48.789 196.952 47.3159V25.3249H191.551V23.01L196.952 21.9578H197.022C197.408 16.6617 199.933 12.2776 203.3 9.54185Z" fill="white"/>
<path d="M228.612 19.0864C232.625 19.9007 236.522 17.3865 237.317 13.4708C237.621 11.9731 237.427 10.4873 236.847 9.17787C236.272 7.87999 234.382 6.10715 233.157 5.31581C233.736 10.5546 225.538 8.68762 231.243 2.30279C233.298 0.00305935 226.985 2.53211 225.075 4.74784C223.165 6.96357 222.884 7.6897 222.483 10.0395C221.728 14.4619 224.599 18.272 228.612 19.0864Z" fill="url(#paint0_linear)"/>
<defs>
<linearGradient id="paint0_linear" x1="232.661" y1="-0.156022" x2="228.751" y2="19.115" gradientUnits="userSpaceOnUse">
<stop stop-color="#E73D3E"/>
<stop offset="1" stop-color="#FD9E41"/>
</linearGradient>
</defs>
</svg>
