<svg width="235" height="89" viewBox="0 0 235 89" fill="none" xmlns="http://www.w3.org/2000/svg">
<g filter="url(#filter0_d)">
<path d="M132.75 42.9522C131.098 42.9522 129.321 43.2773 127.948 44.3928C126.512 45.321 126.035 46.0895 125.542 46.5991H125.134L126.421 43.4885L125.542 42.6519C122.41 43.9605 119.063 44.8186 115.523 45.2047V46.5991C116.832 46.7493 117.669 47.0282 118.076 47.4358C118.462 47.8434 118.656 48.4869 118.656 49.3665V66.3355C118.656 67.3437 118.548 67.88 117.797 68.2447C117.433 68.4378 117.132 68.5451 116.939 68.6094C116.725 68.6523 116.253 68.7381 115.523 68.8883V70.3685H129.553V68.8883C128.717 68.7381 128.202 68.6523 127.966 68.6094C127.73 68.5451 127.408 68.4378 126.979 68.2447C126.121 67.88 126.035 67.3437 126.035 66.3355V62.4311C127.451 62.8601 128.867 63.0747 130.261 63.0747C132.836 63.0747 135.453 62.1522 137.555 60.436C139.658 58.7413 141.052 55.8666 141.052 52.4557C141.052 49.5167 140.215 47.1998 138.542 45.505C136.847 43.8103 134.916 42.9522 132.75 42.9522ZM129.682 61.0581C128.481 61.0581 127.58 60.5433 126.958 59.535C126.335 58.5267 126.035 57.261 126.035 55.7808V50.7824C126.035 49.9457 126.378 49.0018 127.065 47.9506C127.73 46.8995 128.524 46.3846 129.425 46.3846C130.605 46.3846 131.527 47.0925 132.235 48.5084C132.943 49.9243 133.286 51.7477 133.286 53.9788C133.286 58.6983 132.085 61.0581 129.682 61.0581Z" fill="#393939"/>
<path fill-rule="evenodd" clip-rule="evenodd" d="M89.4814 63.0454V61.5438C88.8593 61.3721 88.4303 61.222 88.1943 61.1147C87.6794 60.8787 87.2504 60.1923 87.2504 58.9695V49.1227C88.3445 47.8141 89.5029 47.1491 90.7042 47.1491C91.5623 47.1491 92.1845 47.4065 92.5491 47.9214C92.9138 48.4363 93.0855 49.4016 93.0855 50.8389V58.9695C93.0855 59.8919 92.9353 60.4282 92.3346 60.8144C92.0128 61.0075 91.7554 61.1576 91.5623 61.222C91.3478 61.2863 90.9617 61.3936 90.4039 61.5438V63.0454H103.018V61.5438C102.482 61.3936 102.138 61.2863 101.945 61.222C101.752 61.1576 101.495 61.0075 101.195 60.8144C100.572 60.4282 100.422 59.9134 100.422 58.9695V48.994C101.624 47.7712 102.803 47.1491 103.983 47.1491C105.614 47.1491 106.407 48.0287 106.407 50.8389V58.9695C106.407 59.7203 106.129 60.2781 105.957 60.5784C105.871 60.7286 105.678 60.8787 105.378 61.0289C105.056 61.1791 104.841 61.2649 104.734 61.2863C104.627 61.3078 104.348 61.3936 103.898 61.5438V63.0454H116.554V61.5438C115.782 61.3721 115.246 61.222 114.967 61.1147C114.366 60.8787 113.744 60.1923 113.744 58.9695V50.0881C113.744 48.0287 113.315 46.3768 112.457 45.154C111.578 43.9312 109.947 43.3091 107.544 43.3091C105.764 43.3091 104.327 43.6738 103.275 44.3817C102.203 45.1111 101.173 46.1623 100.208 47.5353H100.122C99.3281 44.725 97.2901 43.3091 94.0508 43.3091C92.1415 43.3091 90.8009 43.6781 89.4814 44.6606C88.747 45.1069 88.2112 45.4641 87.854 45.732C87.7091 45.8406 87.5825 45.9493 87.4281 46.0818C87.2017 46.2759 86.9157 46.5213 86.4252 46.8929L86.0919 46.8036L86.9715 43.8454L86.0919 43.0088C84.0111 44.1029 80.9648 44.9395 76.9532 45.5616V46.956C78.1545 46.8917 78.9483 47.0633 79.313 47.428C79.6776 47.7927 79.8707 48.4148 79.8707 49.2944V58.9695C79.8707 59.8919 79.6991 60.4282 79.1199 60.8144C78.8195 61.0075 77.6676 61.2256 75.7923 61.2256C73.917 61.2256 72.9348 59.7076 72.9152 58.3044C72.8957 56.9013 72.9152 49.8307 72.9152 49.8307C72.9152 47.7498 72.2931 46.0765 71.0274 44.8537C69.7617 43.6309 68.0026 43.0088 65.7501 43.0088C64.3557 43.0088 62.7682 43.2448 61.0091 43.6953C59.25 44.1458 57.6839 44.8322 56.2895 45.7547C54.8951 46.6772 54.2086 47.6854 54.2086 48.7366C54.2086 49.3158 54.4232 49.8521 54.8522 50.3455C55.2598 50.8389 55.839 51.0964 56.5684 51.0964C57.4909 51.0964 58.2632 50.7317 58.9282 50.0237C59.5932 49.3158 60.2153 48.0287 60.8375 46.1837C61.0949 45.4544 61.481 45.0897 61.9744 45.0897C63.1972 45.0897 64.1197 45.3471 64.6989 45.862C65.2781 46.3983 65.5785 47.4494 65.5785 49.0369V50.0023C65.128 50.603 64.2913 51.0749 63.7765 51.2894C63.519 51.3967 63.1972 51.5254 62.7896 51.6327C62.5201 51.7036 62.3256 51.7652 62.2 51.8049C62.1356 51.8253 62.0893 51.8399 62.0603 51.8472C61.8672 51.9116 61.5454 51.9974 61.1378 52.1046C60.4381 52.317 59.8258 52.5003 59.2966 52.6587C58.917 52.7723 58.5803 52.8731 58.2846 52.9627C57.5767 53.1987 56.8258 53.4776 56.0321 53.8423C55.2169 54.207 54.5948 54.5931 54.1872 54.9578C53.3291 55.7301 52.6641 56.9315 52.6641 58.3902C52.6641 59.9992 53.2433 61.1791 54.4017 61.9299C55.5387 62.6807 56.8902 63.0454 58.4562 63.0454C61.1807 63.0669 63.5619 61.9299 65.5785 59.6345C65.6643 60.514 66.1362 61.2863 67.0158 61.9943C67.8739 62.7022 68.7749 63.0454 69.7188 63.0454L74.1809 63.0465C74.5047 63.0458 74.8109 63.046 75.2434 63.0462C75.514 63.0463 75.8341 63.0465 76.2388 63.0465H76.9532L89.4814 63.0454ZM60.6078 59.0123C60.994 59.6344 61.5732 59.9347 62.324 59.9347C63.3323 59.9347 64.4049 59.1624 65.5848 57.6393V52.7696L62.7745 53.4775C61.0369 53.9924 60.0071 55.4297 60.0071 56.9099C60.0071 57.7037 60.2002 58.3902 60.6078 59.0123Z" fill="#393939"/>
<path d="M34.6359 54.5258C36.7791 58.187 39.7259 60.2925 44.1908 59.3479C46.1382 58.9359 47.3865 58.6651 49.3944 57.3999C50.0683 56.9753 50.9775 57.4359 50.9775 58.2325C50.9775 59.3398 50.5237 60.4255 49.5876 61.0171C47.2177 62.5148 44.2051 63.1877 41.3055 63.1877C36.2377 63.1877 32.1383 61.8362 29.0718 59.1333C26.0053 56.4625 24.2773 52.7942 24.2773 48.1606C24.2773 43.3661 26.0699 39.6657 29.33 36.9949C32.5579 34.3242 36.6005 32.6559 41.8542 33.0049C45.8875 33.2728 47.6862 34.1642 49.8166 35.7731C51.947 37.382 52.7635 39.8072 52.7635 40.5952C52.7635 41.9347 52.9017 43.4138 50.9775 43.81C47.9414 44.4351 46.9824 42.2026 46.6019 40.9524C46.2214 39.7022 43.923 36.4017 40.9761 36.1303C34.8145 35.5628 32.9207 40.5174 32.4928 43.81C32.0648 47.1026 32.4928 50.8645 34.6359 54.5258Z" fill="#393939"/>
<path d="M168.459 43.0527L169.381 43.8893V59.0133C169.381 59.9144 169.574 60.515 169.96 60.7939C170.325 61.0942 171.239 61.604 172.277 61.5876C173.316 61.5713 174.219 61.2659 174.219 61.2659C174.498 61.2015 174.798 61.0513 175.142 60.8583C175.828 60.4721 175.957 59.9358 175.957 59.0133V49.7244C175.957 48.8448 175.764 48.2013 175.378 47.7937C174.97 47.3861 174.133 47.1286 172.825 46.9999V45.6055C176.815 44.9834 180.162 44.1468 182.843 43.0527L183.723 43.8893L183.337 46.9368H183.551C185.907 43.722 187.648 43.0527 190.051 43.0527C190.609 43.0527 192.439 42.9607 192.693 43.4541C192.948 43.9476 191.322 45.2401 190.372 47.1154C189.421 48.9906 189.3 49.3478 189.3 49.3478C187.157 49.3478 185.546 49.7887 184.667 51.0115C183.787 52.2343 183.337 53.6717 183.337 55.3235V59.0133C183.337 59.9573 183.53 60.4721 184.173 60.8583C184.495 61.0513 184.795 61.2015 185.117 61.2659C185.417 61.3302 185.911 61.4375 186.576 61.5876V63.0893H159.105V61.5876C160.285 61.3517 161.058 61.0942 161.444 60.7939C161.808 60.515 162.002 59.9144 162.002 59.0133V49.7673C162.002 48.8877 161.83 48.2442 161.465 47.8366C161.101 47.429 160.307 47.1501 159.105 46.9999V45.6055C163.804 44.7689 166.914 43.9108 168.459 43.0527Z" fill="#393939"/>
<path d="M204.958 59.3127C201.547 59.3127 199.359 56.9958 198.694 53.07H210.364C211.458 50.7317 211.136 48.4791 209.42 46.291C207.704 44.1028 205.172 43.0088 201.847 43.0088C198.887 43.0088 196.334 43.9098 194.21 45.6903C192.065 47.4709 190.992 49.9379 190.992 53.07C190.992 56.1377 192 58.5833 194.038 60.4068C196.055 62.2302 198.694 63.1312 201.976 63.1312C204.121 63.1312 205.966 62.7236 207.489 61.887C209.012 61.0718 210.021 59.9563 210.557 58.5618L209.527 57.6823C209.162 58.1543 208.519 58.5404 207.639 58.8407C206.76 59.1625 205.859 59.3127 204.958 59.3127ZM201.547 45.0038C202.598 45.0038 203.306 45.626 203.671 46.8702C204.014 48.1359 203.992 49.5518 203.606 51.1393H198.501V50.7531C198.501 46.8917 199.659 45.0038 201.547 45.0038Z" fill="#393939"/>
<path d="M148.623 35.8366C149.631 34.9999 150.79 34.3134 152.098 33.7557C153.854 33.0011 156.661 32.3818 157.783 32.3818C158.905 32.3818 158.423 32.8762 158.423 34.2157C158.423 34.2157 158.283 34.2301 157.783 34.3028C157.134 34.3974 156.623 34.5904 155.895 34.9785C155.252 35.3432 154.673 35.7937 154.158 36.33C153.128 37.4241 152.292 39.4191 152.292 41.9291V43.1519L156.174 42.6799C156.024 43.5595 155.96 44.4819 155.938 45.4902H152.292V58.9409C152.292 59.8419 152.657 60.4426 153.365 60.7644C154.073 61.0862 155.252 61.3436 156.947 61.5152V63.0169H141.438V61.5152C142.638 61.3436 143.497 61.0862 143.99 60.7644C144.484 60.4426 144.74 59.8419 144.74 58.9409V45.4902H141.438V44.0743L144.74 43.4308H144.783C145.019 40.1914 146.564 37.5099 148.623 35.8366Z" fill="#393939"/>
<path d="M164.107 41.6741C166.562 42.1722 168.946 40.6344 169.432 38.2394C169.618 37.3233 169.499 36.4145 169.144 35.6136C168.792 34.8198 167.637 33.7354 166.888 33.2514C167.241 36.4557 162.227 35.3137 165.717 31.4085C166.974 30.0019 163.112 31.5488 161.944 32.904C160.776 34.2592 160.604 34.7034 160.359 36.1406C159.897 38.8456 161.653 41.176 164.107 41.6741Z" fill="url(#paint0_linear)"/>
</g>
<defs>
<filter id="filter0_d" x="0.277344" y="0.852539" width="234.722" height="87.5159" filterUnits="userSpaceOnUse" color-interpolation-filters="sRGB">
<feFlood flood-opacity="0" result="BackgroundImageFix"/>
<feColorMatrix in="SourceAlpha" type="matrix" values="0 0 0 0 0 0 0 0 0 0 0 0 0 0 0 0 0 0 127 0"/>
<feOffset dy="-6"/>
<feGaussianBlur stdDeviation="12"/>
<feColorMatrix type="matrix" values="0 0 0 0 1 0 0 0 0 1 0 0 0 0 1 0 0 0 0.15 0"/>
<feBlend mode="normal" in2="BackgroundImageFix" result="effect1_dropShadow"/>
<feBlend mode="normal" in="SourceGraphic" in2="effect1_dropShadow" result="shape"/>
</filter>
<linearGradient id="paint0_linear" x1="166.584" y1="29.9046" x2="164.192" y2="41.6916" gradientUnits="userSpaceOnUse">
<stop stop-color="#E73D3E"/>
<stop offset="1" stop-color="#FD9E41"/>
</linearGradient>
</defs>
</svg>
