<svg width="251" height="55" viewBox="0 0 251 55" fill="none" xmlns="http://www.w3.org/2000/svg">
<path d="M145.232 17.634C143.02 17.634 140.641 18.0718 138.803 19.5743C136.88 20.8244 136.242 21.8594 135.581 22.5458H135.036L136.759 18.3563L135.581 17.2295C131.388 18.992 126.907 20.1477 122.168 20.6678V22.5458C123.92 22.7481 125.04 23.1237 125.586 23.6727C126.103 24.2216 126.361 25.0884 126.361 26.2731V49.1277C126.361 50.4856 126.218 51.208 125.213 51.6992C124.724 51.9592 124.322 52.1037 124.064 52.1903C123.776 52.2481 123.145 52.3637 122.168 52.566V54.5596H140.952V52.566C139.832 52.3637 139.143 52.2481 138.827 52.1903C138.511 52.1037 138.08 51.9592 137.506 51.6992C136.357 51.208 136.242 50.4856 136.242 49.1277V43.8691C138.138 44.447 140.033 44.7359 141.9 44.7359C145.347 44.7359 148.851 43.4935 151.666 41.182C154.481 38.8995 156.348 35.0277 156.348 30.4337C156.348 26.4753 155.227 23.3548 152.987 21.0723C150.718 18.7897 148.133 17.634 145.232 17.634ZM141.125 42.0199C139.516 42.0199 138.31 41.3265 137.477 39.9685C136.644 38.6105 136.242 36.9058 136.242 34.9122V28.18C136.242 27.0532 136.701 25.7819 137.621 24.3661C138.511 22.9503 139.574 22.2569 140.78 22.2569C142.36 22.2569 143.595 23.2104 144.543 25.1173C145.49 27.0243 145.95 29.4802 145.95 32.4851C145.95 38.8416 144.342 42.0199 141.125 42.0199Z" fill="#2D3958"/>
<path fill-rule="evenodd" clip-rule="evenodd" d="M87.3174 44.6973V42.6747C86.4845 42.4436 85.91 42.2413 85.5941 42.0969C84.9048 41.779 84.3303 40.8545 84.3303 39.2075V25.9455C85.7951 24.183 87.3461 23.2873 88.9546 23.2873C90.1035 23.2873 90.9364 23.634 91.4247 24.3275C91.913 25.0209 92.1428 26.3211 92.1428 28.257V39.2075C92.1428 40.45 91.9417 41.1723 91.1375 41.6924C90.7067 41.9524 90.362 42.1547 90.1035 42.2413C89.8163 42.328 89.2993 42.4725 88.5525 42.6747V44.6973H105.441V42.6747C104.723 42.4725 104.264 42.328 104.005 42.2413C103.747 42.1547 103.402 41.9524 103 41.6924C102.167 41.1723 101.966 40.4788 101.966 39.2075V25.7721C103.574 24.1252 105.154 23.2873 106.734 23.2873C108.917 23.2873 109.979 24.4719 109.979 28.257V39.2075C109.979 40.2188 109.606 40.97 109.376 41.3745C109.261 41.5768 109.003 41.779 108.601 41.9813C108.17 42.1835 107.883 42.2991 107.739 42.328C107.595 42.3569 107.222 42.4725 106.619 42.6747V44.6973H123.565V42.6747C122.531 42.4436 121.813 42.2413 121.44 42.0969C120.635 41.779 119.802 40.8545 119.802 39.2075V27.2457C119.802 24.4719 119.228 22.2472 118.079 20.6002C116.901 18.9533 114.718 18.1154 111.502 18.1154C109.118 18.1154 107.193 18.6066 105.786 19.5601C104.35 20.5425 102.971 21.9582 101.679 23.8074H101.564C100.501 20.0224 97.7723 18.1154 93.4353 18.1154C90.879 18.1154 89.084 18.6124 87.3174 19.9357C86.3341 20.5368 85.6167 21.0179 85.1385 21.3787C84.9445 21.525 84.775 21.6713 84.5682 21.8498C84.2652 22.1113 83.8823 22.4418 83.2256 22.9422L82.7793 22.8219L83.9569 18.8378L82.7793 17.7109C79.9932 19.1845 75.9147 20.3113 70.5436 21.1492V23.0273C72.1521 22.9406 73.2148 23.1717 73.7031 23.6629C74.1913 24.1541 74.4498 24.992 74.4498 26.1766V39.2075C74.4498 40.45 74.2201 41.1723 73.4446 41.6924C73.0424 41.9524 71.5001 42.2462 68.9893 42.2462C66.4786 42.2462 65.1634 40.2016 65.1373 38.3118C65.1111 36.4221 65.1373 26.899 65.1373 26.899C65.1373 24.0963 64.3043 21.8427 62.6097 20.1957C60.9151 18.5488 58.5599 17.7109 55.544 17.7109C53.6771 17.7109 51.5516 18.0287 49.1964 18.6355C46.8412 19.2423 44.7445 20.1668 42.8775 21.4093C41.0106 22.6517 40.0914 24.0096 40.0914 25.4254C40.0914 26.2055 40.3787 26.9279 40.9531 27.5924C41.4988 28.257 42.2743 28.6037 43.2509 28.6037C44.486 28.6037 45.52 28.1125 46.4103 27.159C47.3007 26.2055 48.1337 24.4719 48.9666 21.9871C49.3113 21.0047 49.8283 20.5136 50.4889 20.5136C52.1261 20.5136 53.3611 20.8603 54.1366 21.5537C54.9121 22.2761 55.3143 23.6918 55.3143 25.8299V27.1301C54.7111 27.9391 53.5909 28.5748 52.9016 28.8637C52.5569 29.0082 52.1261 29.1815 51.5804 29.326C51.2195 29.4215 50.9591 29.5044 50.7909 29.558C50.7047 29.5854 50.6427 29.6051 50.6038 29.6149C50.3453 29.7016 49.9145 29.8172 49.3687 29.9617C48.432 30.2477 47.6122 30.4946 46.9035 30.7079C46.3954 30.8609 45.9445 30.9967 45.5487 31.1174C44.6008 31.4352 43.5956 31.8108 42.5328 32.302C41.4414 32.7932 40.6084 33.3133 40.0627 33.8045C38.9138 34.8446 38.0234 36.4627 38.0234 38.4274C38.0234 40.5944 38.7989 42.1835 40.3499 43.1948C41.8722 44.2061 43.6817 44.6973 45.7785 44.6973C49.4262 44.7262 52.6144 43.1948 55.3143 40.1032C55.4291 41.2879 56.061 42.328 57.2386 43.2815C58.3875 44.235 59.5939 44.6973 60.8577 44.6973L66.8319 44.6987C67.2654 44.6978 67.6754 44.698 68.2545 44.6983C68.6168 44.6985 69.0452 44.6987 69.5871 44.6987H70.5436L87.3174 44.6973ZM48.6618 39.266C49.1788 40.1039 49.9543 40.5084 50.9596 40.5084C52.3096 40.5084 53.7457 39.4682 55.3254 37.4168V30.858L51.5628 31.8115C49.2363 32.5049 47.8576 34.4408 47.8576 36.4344C47.8576 37.5035 48.1161 38.4281 48.6618 39.266Z" fill="#2D3958"/>
<path d="M13.8689 33.223C16.7383 38.1541 20.6838 40.9898 26.6618 39.7177C29.4259 39.1295 31.1381 38.7549 34.1253 36.7717C34.8093 36.3176 35.7483 36.791 35.7483 37.6119V38.7757C35.7483 39.911 35.282 41.0174 34.3471 41.6616C31.1097 43.8921 26.8709 44.8893 22.7986 44.8893C16.0135 44.8893 10.5249 43.0691 6.4192 39.4287C2.31355 35.8315 0 30.8909 0 24.6502C0 18.1927 2.39999 13.2088 6.76494 9.61167C11.0867 6.01456 16.4992 3.76769 23.5333 4.23767C28.9334 4.59849 31.3417 5.79915 34.194 7.96608C37.0464 10.133 38.1395 13.3993 38.1395 14.4607C38.1395 16.2648 38.3246 18.2569 35.7483 18.7905C31.6833 19.6324 30.3993 16.6256 29.8899 14.9418C29.3804 13.258 26.3031 8.81272 22.3576 8.44716C14.108 7.68281 11.5724 14.3558 10.9995 18.7905C10.4265 23.2251 10.9995 28.2919 13.8689 33.223Z" fill="#2D3958"/>
<path d="M193.042 17.7689L194.278 18.8957V39.2655C194.278 40.479 194.536 41.288 195.053 41.6636C195.541 42.0681 196.765 42.7548 198.155 42.7327C199.545 42.7106 200.755 42.2993 200.755 42.2993C201.128 42.2126 201.53 42.0104 201.99 41.7503C202.909 41.2302 203.081 40.5079 203.081 39.2655V26.7547C203.081 25.57 202.823 24.7033 202.306 24.1543C201.76 23.6053 200.64 23.2586 198.888 23.0852V21.2072C204.23 20.3693 208.711 19.2424 212.301 17.7689L213.479 18.8957L212.962 23.0002H213.249C216.403 18.6704 218.735 17.7689 221.952 17.7689C222.699 17.7689 225.149 17.6451 225.49 18.3096C225.831 18.9742 223.654 20.715 222.381 23.2407C221.108 25.7664 220.947 26.2475 220.947 26.2475C218.077 26.2475 215.92 26.8413 214.743 28.4883C213.565 30.1352 212.962 32.0711 212.962 34.2958V39.2655C212.962 40.5368 213.22 41.2302 214.082 41.7503C214.513 42.0104 214.915 42.2126 215.346 42.2993C215.748 42.386 216.409 42.5304 217.299 42.7327V44.7552H180.52V42.7327C182.099 42.4149 183.133 42.0681 183.65 41.6636C184.139 41.288 184.397 40.479 184.397 39.2655V26.8125C184.397 25.6278 184.167 24.761 183.679 24.2121C183.191 23.6631 182.128 23.2875 180.52 23.0852V21.2072C186.81 20.0803 190.974 18.9246 193.042 17.7689Z" fill="#2D3958"/>
<path d="M241.913 39.6703C237.346 39.6703 234.417 36.5498 233.526 31.2623H249.151C250.616 28.113 250.185 25.0792 247.887 22.1321C245.59 19.185 242.2 17.7114 237.748 17.7114C233.785 17.7114 230.367 18.9249 227.523 21.3231C224.651 23.7212 223.215 27.0439 223.215 31.2623C223.215 35.3941 224.565 38.688 227.293 41.1439C229.993 43.5998 233.526 44.8133 237.921 44.8133C240.793 44.8133 243.263 44.2644 245.302 43.1375C247.342 42.0396 248.692 40.5371 249.41 38.6591L248.031 37.4744C247.543 38.1101 246.681 38.6302 245.503 39.0347C244.326 39.4681 243.119 39.6703 241.913 39.6703ZM237.346 20.3985C238.754 20.3985 239.701 21.2364 240.19 22.9122C240.649 24.6169 240.621 26.5238 240.104 28.662H233.268V28.1419C233.268 22.9411 234.819 20.3985 237.346 20.3985Z" fill="#2D3958"/>
<path d="M166.481 8.05049C167.831 6.92365 169.382 5.99907 171.134 5.24784C173.485 4.23148 177.242 3.39746 178.744 3.39746C180.246 3.39746 179.601 4.06338 179.601 5.86746C179.601 5.86746 179.413 5.88687 178.744 5.98478C177.875 6.11209 177.192 6.37212 176.218 6.89476C175.357 7.38594 174.581 7.9927 173.892 8.71503C172.513 10.1886 171.393 12.8757 171.393 16.2562V17.9031L176.592 17.2674C176.391 18.4521 176.304 19.6944 176.276 21.0524H171.393V39.1686C171.393 40.3821 171.881 41.1911 172.829 41.6245C173.777 42.0579 175.357 42.4046 177.626 42.6357V44.6583H156.859V42.6357C158.468 42.4046 159.617 42.0579 160.277 41.6245C160.938 41.1911 161.283 40.3821 161.283 39.1686V21.0524H156.859V19.1455L161.283 18.2787H161.34C161.656 13.9158 163.724 10.3042 166.481 8.05049Z" fill="#2D3958"/>
<path d="M187.212 15.7232C190.498 16.3941 193.69 14.3229 194.34 11.0971C194.589 9.86337 194.43 8.63938 193.955 7.56065C193.485 6.49147 191.937 5.03101 190.934 4.37911C191.408 8.69479 184.694 7.15678 189.366 1.897C191.049 0.00249921 185.879 2.08592 184.315 3.91122C182.751 5.73653 182.521 6.33471 182.193 8.27049C181.574 11.9136 183.925 15.0524 187.212 15.7232Z" fill="url(#paint0_linear)"/>
<defs>
<linearGradient id="paint0_linear" x1="190.528" y1="-0.12853" x2="187.289" y2="15.7393" gradientUnits="userSpaceOnUse">
<stop stop-color="#E73D3E"/>
<stop offset="1" stop-color="#FD9E41"/>
</linearGradient>
</defs>
</svg>
