<svg width="1325" height="859" viewBox="0 0 1325 859" fill="none" xmlns="http://www.w3.org/2000/svg">
<path fill-rule="evenodd" clip-rule="evenodd" d="M217.471 489.598C217.563 458.217 218.166 426.825 219.225 395.461C220.012 372.216 221.019 348.955 222.968 325.775C223.74 316.592 224.637 307.401 226.05 298.291C226.925 292.651 227.729 286.506 230.109 281.254C230.889 279.535 231.641 278.417 233.299 277.538C239.429 274.285 247.828 273.806 254.586 273.12C265.666 271.994 276.882 271.67 288.016 271.899C287.363 283.876 286.711 295.852 286.059 307.827C285.557 317.051 285.054 326.275 284.552 335.498C284.236 341.32 283.471 347.308 283.591 353.139C283.69 357.89 289.276 362.436 292.116 366.145C295.599 355.49 299.082 344.836 302.565 334.181C304.407 338.937 306.375 343.651 308.516 348.278C309.929 351.33 311.368 354.472 313.241 357.277C314.953 359.84 315.454 360.202 318.429 359.764C322.01 359.238 324.729 358.176 326.845 360.838C328.722 363.198 330.469 365.605 332.505 367.845C354.989 392.574 389.637 407.931 421.741 414.879C440.651 418.97 459.726 422.292 478.627 426.464C507.486 432.834 537.129 439.115 564.692 450.003C569.012 451.709 573.379 453.542 577.32 456.025C581.666 458.761 584.769 462.903 587.777 467.003C595.124 477.022 603.738 493.454 592.405 503.911C583.717 511.928 570.143 512.733 558.856 513.635C547.19 514.568 535.482 515.023 523.787 515.403C491.93 516.438 460.044 516.662 428.173 516.692C399.053 516.715 369.929 516.55 340.815 515.993C327.607 515.741 314.879 516.047 302.099 512.658C275.942 505.722 249.86 498.501 223.767 491.329C221.669 490.753 219.57 490.176 217.471 489.598Z" fill="#86A8FF"/>
<path fill-rule="evenodd" clip-rule="evenodd" d="M483.275 215.341C482.053 216.611 484.034 217.589 484.925 217.867C484.782 216.641 484.191 216.088 483.275 215.341ZM315.783 454.07C315.312 452.96 314.609 452.046 313.324 452.57C311.2 453.436 315.497 454.059 315.783 454.07ZM500.47 275.082C501.349 275.191 504.94 274.966 503.83 273.012C502.543 270.747 500.774 274.381 500.47 275.082ZM436.073 255.045C437.961 253.427 439.652 250.953 439.672 248.382C437.893 249.563 436.942 253.218 436.073 255.045ZM481.344 222.552C482.917 222.632 481.478 220.418 481.493 219.977C481.526 219.031 482.411 218.218 482.267 217.096C482.262 217.05 480.677 213.501 480.259 213.276C479.083 212.642 478.399 213.803 477.343 214.163C475.78 214.695 475.016 214.225 473.338 214.389C471.859 214.533 470.613 215.253 469.066 215.253C468.699 215.253 468.293 214.474 467.871 214.517C467.214 214.584 467.151 215.422 466.686 215.464C465.052 215.609 464.957 214.961 463.433 214.351C460.9 213.338 459.123 215.695 459.18 218.481C459.255 222.172 463.105 223.681 466.055 224.529C469.859 225.622 471.973 226.281 475.838 225.593C476.956 225.393 478.091 225.749 478.974 224.978C480.159 223.941 479.531 221.754 480.884 220.744C481.038 221.346 481.191 221.95 481.344 222.552ZM347.501 369.398C347.817 371.81 347.154 373.052 349.494 374.668C350.875 375.622 352.611 376.25 354.074 377.207C356.193 378.592 359.369 379.482 361.248 381.074C362.442 382.086 362.654 384.948 364.309 385.295C365.717 385.589 367.396 383.045 367.878 381.899C368.413 380.63 368.056 379.585 368.273 378.317C368.419 377.467 369.056 377.29 368.944 376.291C368.827 375.242 367.81 374.688 367.368 373.857C366.973 373.111 366.853 372.054 366.544 371.465C365.812 370.08 364.189 367.138 362.742 366.221C361.523 369.42 360.599 366.178 358.909 365.239C358.279 365.222 357.648 365.216 357.018 365.223C356.691 364.911 356.358 364.606 356.02 364.308C355.241 364.236 353.957 364.652 353.254 364.869C352.868 364.781 352.476 364.729 352.079 364.714C351.552 364.868 351.343 365.162 351.454 365.594C351.684 365.489 350.411 366.262 350.289 366.344C347.777 368.051 345.472 368.733 345.006 372.364C345.838 371.376 346.67 370.387 347.501 369.398ZM367.098 239.737C364.412 232.774 365.264 226.639 365.524 219.351C365.585 217.64 365.949 213.969 364.161 212.834C361.93 211.418 360.073 214.621 358.907 215.946C356.906 218.221 354.114 220.31 353.089 223.262C352.183 225.867 353.117 229.063 353.808 231.643C354.553 234.424 355.473 238.163 358.005 239.703C360.708 241.348 364.374 241.186 367.098 239.737ZM461.805 387.823C461.418 382.486 453.995 384.356 450.658 386.001C448.162 387.232 446.765 389.108 445.193 391.339C443.409 393.872 442.824 394.579 442.966 397.59C443.097 400.337 442.944 403.1 443.632 405.833C443.981 407.221 444.059 407.466 444.98 408.421C444.978 408.419 446.574 410.009 446.13 409.755C448.19 410.931 451.261 411.128 453.68 411.31C457.138 411.57 457.97 411.617 459.374 408.33C459.644 408.902 459.914 409.474 460.183 410.046C460.269 409.642 461.23 404.841 461.009 404.888C460.621 404.971 460.204 406.088 460.014 406.372C460.135 404.161 461.709 402.508 462.472 400.536C463.174 398.723 463.462 396.67 464.003 394.794C464.527 392.979 465.113 390.454 464.607 388.57C463.933 386.068 463.721 386.78 461.805 387.823ZM506.618 270.18C507.824 271.316 506.75 273.154 506.907 274.561C508.546 273.556 507.977 273.018 508.612 271.383C509.021 270.33 510.226 268.315 511.278 270.041C511.721 270.766 510.258 271.763 511.248 272.189C511.83 272.439 513.38 270.49 513.663 270.183C515.617 268.068 516.867 265.906 517.028 263.022C517.073 262.232 517.061 260.262 516.781 259.809C515.969 258.5 513.809 259.274 513.995 256.882C514.854 257.31 515.714 257.737 516.574 258.165C516.841 255.475 513.938 253.883 512.724 251.747C511.341 249.315 510.444 247.545 508.191 245.453C507.151 244.486 505.46 242.496 504.11 242.031C503.06 241.669 502.634 242.203 501.575 242.213C499.361 242.234 496.033 241.635 499.33 244.092C498.66 244.406 497.78 244.601 497.209 245.097C496.786 245.463 496.627 246.512 496.132 246.763C495.061 247.303 494.26 246.248 493.051 247.449C491.779 248.716 493.081 249.513 492.798 250.071C491.983 251.676 490.861 250.878 490.897 253.323C490.957 257.356 493.279 262.129 494.529 265.897C495.263 268.111 496.084 271.574 499.183 270.667C499.065 271.733 498.796 272.766 499.488 273.717C500.134 272.956 500.366 271.286 500.802 270.392C501.445 269.076 502.49 267.805 503.229 266.525C503.121 268.548 502.901 269.11 501.526 270.642C503.335 270.864 505.564 272.313 506.618 270.18ZM374.25 328.78C375.91 327.524 373.73 326.122 377.004 326.834C377.839 327.017 377 327.993 378.261 328.029C378.737 328.042 379.904 326.871 380.234 326.596C380.536 326.344 381.892 324.516 382.11 324.397C381.746 324.594 383.757 323.814 383.129 324.32C384.327 323.355 385.239 321.769 385.778 319.84C387.099 315.112 386.91 309.462 384.172 305.4C383.024 303.698 382.108 301.62 380.378 300.477C378.032 298.928 374.155 298.006 371.534 297.022L372.383 294.959C365.189 298.21 360.229 305.8 359.623 313.51C359.405 316.284 358.615 319.807 360.304 322.265C362.067 324.832 366.513 327.531 368.967 324.679C368.594 326.268 369.689 328.169 371.368 328.576C372.003 328.731 372.603 328.27 372.884 328.311C373.242 328.362 373.996 328.831 374.25 328.78ZM308.22 167.792C303.387 167.216 304.136 175.947 305.043 178.568C305.774 180.683 308.393 183.626 309.779 185.469C311.431 187.663 313.634 189.302 315.977 190.702C316.78 191.182 317.368 191.336 318.061 191.604C318.307 191.359 318.601 191.231 318.945 191.221C319.247 191.724 319.675 192.101 320.228 192.351C321.986 192.898 324.894 192.814 326.64 192.741C329.455 192.622 332.742 191.002 335.542 190.462C336.851 190.209 337.579 190.107 338.736 189.428C339.32 189.085 340.461 186.447 340.624 189.038C341.346 188.594 341.118 187.863 341.646 187.538C342.149 187.228 343.76 186.929 344.36 186.245C345.197 185.292 346.31 183.117 346.893 181.815C347.268 180.979 348.062 178.826 347.999 177.956C347.866 176.113 347.272 176.538 345.698 175.774C344.646 175.265 344.04 174.837 342.989 174.555C342.867 174.523 342.575 175.151 342.369 175.097C342.008 175.003 341.863 174.588 341.61 174.507C339.69 173.884 337.423 172.039 335.049 172.217C334.024 172.294 333.063 173.856 332.537 173.777C331.727 173.654 332.131 171.992 331.566 171.389C330.126 169.855 325.32 170.103 323.453 169.837C318.381 169.114 313.302 168.44 308.22 167.792ZM477.528 300.491C477.99 296.868 478.56 293.271 474.588 291.488C473.098 290.819 471.857 291.061 470.328 290.88C468.342 290.643 468.631 289.788 467.157 291.919C466.342 290.873 466.884 290.533 465.55 290.408C464.999 290.357 462.596 291.921 461.971 292.177C459.364 293.243 456.044 293.144 454.077 295.296C452.166 297.387 450.62 299.397 449.815 302.249C449.408 303.686 449.141 305.175 448.639 306.585C448.096 308.111 446.875 309.426 446.457 310.951C444.755 317.162 451.989 322.83 457.071 324.478C457.725 324.343 458.367 324.386 458.996 324.604C459.44 324.896 459.837 325.242 460.189 325.64C461.788 326.141 462.168 325.976 463.795 325.242C466.477 324.033 469.61 323.621 471.64 326.45C472.266 323.158 474.552 325.117 475.651 322.996C476.258 321.827 474.932 318.587 475.701 317.744C477.005 316.313 481.075 318.858 480.97 315.515C480.931 314.297 479.547 313.893 479.067 312.931C478.206 311.203 478.684 309.374 479.881 307.855C479.993 308.117 480.427 309.839 481.001 309.383C482.522 308.173 480.02 306.266 479.474 305.606C478.574 304.517 477.755 303.686 477.956 302.167C478.081 301.224 479.592 300.244 479.538 299.328C479.497 298.63 477.629 300.409 477.528 300.491ZM406.848 339.596C406.951 342.135 405.329 342.467 404.26 344.213C403.97 344.689 403.951 345.829 403.544 346.526C402.786 347.834 402.258 347.915 402.015 349.189C402.042 349.047 402.421 350.451 402.43 350.611C402.535 352.403 401.289 353.836 401.632 355.806C402.113 358.579 404.22 361.666 405.705 363.972C409.063 369.185 413.757 373.225 420.188 373.594C424.483 373.84 434.587 372.123 435.508 367.633C435.265 367.112 435.06 366.576 434.892 366.025C434.794 365.227 435.089 364.682 435.78 364.391C436.31 364.251 436.725 363.957 437.024 363.506C436.878 363.05 436.639 362.648 436.307 362.302C436.426 361.701 437.438 361.672 437.422 361.284C437.392 360.562 436.757 358.754 436.587 357.931C436.292 356.51 436.131 355.157 435.872 353.726C435.662 352.569 434.952 351.997 434.77 350.936C434.644 350.212 435.38 349.556 435.317 348.788C434.834 348.354 434.441 347.849 434.139 347.272C434.105 346.673 434.253 346.117 434.582 345.605C433.86 340.555 426.715 336.313 421.632 336.197C418.902 336.135 414.239 335.939 411.783 337.365C410.142 338.319 409.041 341.7 406.848 339.596ZM297.229 517.583C293.639 515.965 290.424 514.24 286.58 513.455C283.805 512.887 281.423 511.328 278.634 510.82C272.457 509.694 265.785 508.655 259.86 506.489C253.508 504.165 246.59 503.333 240.079 501.402C236.873 500.451 234.075 499.828 230.76 499.644C227.529 499.466 224.208 497.664 220.979 497.969C218.28 498.224 216.355 500.297 214.244 501.775C211.505 503.691 208.519 505.343 205.576 506.926C202.453 508.606 198.974 509.448 195.891 511.087C193.332 512.446 190.819 513.773 188.18 515.02C174.161 521.645 160.623 527.833 147.98 537.05C152.057 538.29 156.695 537.054 160.747 536.616C166.505 535.994 172.243 535.526 177.945 534.46C181.281 533.836 187.793 531.456 190.979 533.286C193.778 534.892 193.563 539.017 193.965 541.776C196.607 540.757 199.239 539.711 201.904 538.753C204.001 538 207.403 535.929 209.539 535.856C215.491 535.655 214.841 544.007 214.261 547.84C217.739 546.659 221.046 545.835 224.417 544.372C227.119 543.198 230.103 542.94 232.728 541.541C239.25 538.065 246.486 535.886 253.469 533.419C261.347 530.634 269.209 527.798 277.02 524.827C280.23 523.606 283.397 521.994 286.681 521.003C290.217 519.937 293.838 519.135 297.229 517.583ZM374.963 199.097C374.464 203.795 374.978 208.533 375.122 213.236C375.29 218.744 375.297 224.193 376.01 229.668C377.297 239.546 379.108 249.425 382.645 258.771C385.864 267.284 391.298 273.303 400.499 275.143C408.766 276.795 416.823 273.961 422.084 267.356C427.542 260.506 429.218 251.856 432.414 243.917C433.976 240.035 435.133 236.132 436.437 232.16C437.218 229.781 441.093 222.951 439.984 220.507C438.902 218.121 432.516 217.305 430.306 215.979C426.793 213.871 423.545 209.644 420.865 206.556C419.069 204.487 418.02 202.957 416.808 206.239C415.352 210.184 416.407 214.742 415.049 218.569C413.712 222.331 410.793 218.62 410.493 216.167C409.919 211.458 410.61 206.109 410.833 201.376C411.247 192.556 411.826 182.355 419.779 176.917C427.317 171.763 435.498 170.159 439.683 161.261C441.361 157.694 443.333 153.957 442.285 149.966C441.074 145.359 439.281 140.542 437.517 136.115C434.129 127.614 428.823 120.211 424.185 112.406C423.558 111.353 423.427 110.003 422.058 109.706C420.51 109.369 416.896 112.002 415.395 112.427C411.308 113.583 407.656 111.185 404.05 113.899C401.157 116.077 398.703 119.212 394.799 119.44C393.118 119.538 390.837 118.037 389.389 118.395C387.544 118.852 387.01 121.606 386.298 123.153C384.665 126.703 382.842 131.152 380.147 134.054C379.233 135.039 377.617 135.343 376.836 136.26C375.927 137.325 376.432 139.488 375.129 139.682C374.375 139.794 373.772 138.77 373.137 138.526C372.058 138.111 371 138.031 369.845 138.065C367.708 138.128 365.491 138.644 363.614 139.666C359.247 142.044 357.633 145.66 362.881 147.834C364.985 148.707 367.269 149.355 369.545 149.558C372.042 149.78 374.569 149 377.038 149.304C381.8 149.891 383.265 153.874 384.498 157.966C386.193 163.596 387.562 169.296 389.466 174.867C391.02 179.418 393.845 184.044 394.661 188.799C395.162 191.72 394.506 191.502 392.556 193.308C391.071 194.683 390.178 196.488 388.569 197.868C384.082 201.714 380.173 200.689 374.963 199.097ZM664.54 472.535C664.403 471.532 643.138 473.451 640.722 473.202C636.594 472.777 632.199 473.907 627.931 473.763C624.158 473.635 618.716 472.169 615.602 474.001C614.447 474.68 614.418 475.481 612.595 475.135C610.901 474.814 609.117 473.617 607.849 472.507C604.319 469.418 602.163 464.56 599.855 460.554C595.234 452.539 591.278 444.235 587.443 435.806C579.545 418.445 571.946 400.985 564.056 383.62C560.153 375.031 556.39 366.426 552.181 357.996C550.385 354.398 548.413 350.452 547.031 346.683C545.523 342.573 543.542 338.714 542.191 334.5C539.328 325.576 535.906 316.785 533.713 307.607C533.158 305.284 532.952 302.85 532.283 300.56C531.569 298.114 530.111 296.022 529.198 293.653C528.266 291.24 528.264 289.087 527.8 286.62C527.337 284.162 526.208 281.766 525.395 279.412C521.207 281.937 516.439 284.235 512.585 287.236C508.795 290.189 503.264 292.662 504.85 298.001C506.293 302.857 508.849 307.321 510.369 312.171C512.074 317.611 514.169 322.93 515.815 328.383C519.348 340.089 522.44 351.933 525.603 363.745C527.089 369.294 528.946 374.855 530.036 380.499C530.603 383.435 530.51 386.061 531.577 388.905C532.62 391.685 533.609 394.405 534.466 397.251C535.991 402.318 537.446 407.395 539.133 412.409C540.046 415.123 540.776 417.867 541.425 420.655C541.818 422.339 543.155 425.58 542.779 427.324C541.699 432.346 535.056 427.229 533.466 425.179C529.778 420.424 527.132 414.606 524.37 409.282C513.279 387.901 507.825 364.841 502.107 341.567C500.603 335.448 499.152 329.384 497.463 323.329C495.692 316.984 495.177 310.35 493.087 304.041C490.928 297.522 488.726 291.239 487.14 284.532C486.407 281.427 485.631 278.323 484.98 275.2C484.633 273.532 484.618 270.465 482.397 270.133C483.827 280.598 484.355 292.859 488.526 302.673C492.306 311.575 495.311 323.772 491.489 333.223C489.651 337.768 486.744 341.65 484.558 345.979C482.113 350.82 480.52 356.378 478.882 361.537C475.489 372.218 474.488 383.452 472.218 394.378C471.027 400.106 471.004 404.023 472.037 409.658C472.369 411.472 471.783 412.914 473.311 414.078C474.848 415.248 478.403 415.484 480.302 416.156C486.069 418.194 491.026 419.69 497.133 420.358C502.901 420.99 508.317 422.135 513.811 424.025C523.711 427.429 534.005 429.973 543.733 433.386C549.054 435.253 554.185 438.579 559.3 440.965C564.621 443.447 570.265 445.068 575.281 448.166C580.684 451.501 586.027 455.375 591.147 459.115C595.89 462.578 598.164 466.884 600.138 472.274C603.891 482.522 613.355 495.82 604.614 506.161C607.678 507.492 611.185 508.021 614.121 509.445C615.135 509.937 615.437 510.417 616.589 510.7C618.096 511.07 620.036 510.774 621.579 510.874C623.812 511.019 628.516 512.625 630.693 511.976C632.727 511.369 632.816 508.418 634.278 506.961C636.445 504.801 638.525 506.194 641.177 505.954C645.105 505.597 649.019 505.082 652.949 504.739C660.879 504.048 668.787 503.885 676.743 503.903C672.601 499.307 657.369 507.673 656.995 499.346C656.562 489.71 668.322 492.601 674.039 489.821C668.843 489.974 663.647 490.025 658.46 490.436C655.313 490.687 649.263 492.193 647.483 488.735C645.57 485.016 648.648 480.715 651.53 478.773C655.518 476.086 660.127 474.373 664.54 472.535ZM231.13 344.056C230.177 345.956 231.653 346.722 232.322 348.253C233.246 350.37 232.334 349.949 232.148 351.94C232.024 353.276 232.389 353.906 232.313 355.157C232.281 355.689 231.524 356.396 231.435 357.001C231.276 358.088 231.863 358.589 231.799 359.378C231.768 359.77 232.274 359.839 232.171 360.407C232.081 360.902 230.941 361.251 230.874 361.562C230.488 363.367 231.57 362.464 231.735 363.319C232.012 364.748 231.208 364.993 230.751 366.306C229.962 368.572 230.725 369.628 231.212 371.752C231.625 373.544 231.012 373.556 230.78 375.267C230.638 376.304 230.938 376.431 230.933 377.396C230.919 380.728 230.174 384.194 230.143 387.725C230.07 396.081 229.362 404.316 229.256 412.653C229.152 420.844 228.556 429.137 228.197 437.431C228.023 441.475 227.613 445.505 227.436 449.549C227.229 454.246 227.689 458.92 227.294 463.598C226.934 467.85 227.15 472.117 226.974 476.381C226.891 478.404 225.85 484.525 227.178 485.886C228.904 487.652 235.896 485.771 238.158 485.896C242.41 486.128 246.892 486.984 251.058 487.862C260.931 489.941 270.826 492.589 280.703 494.455C288.938 496.01 296.664 499.965 304.33 503.313C303.627 496.272 302.388 489.402 302.158 482.305C301.953 475.926 302.554 469.58 302.412 463.209C302.11 449.615 301.34 436.172 301.644 422.58C301.953 408.759 303.067 394.647 304.991 380.958C305.876 374.668 306.566 367.967 308.816 361.99C309.836 359.283 311.496 357.297 310.807 354.319C310.06 351.093 308.584 347.72 307.494 344.592C306.692 349.687 303.866 383.639 292.257 373.432C287.725 369.447 285.626 360.814 284.612 355.156C283.244 347.508 283.735 339.47 283.77 331.73C283.842 315.962 285.576 299.876 287.166 284.194C287.484 281.062 289.066 278.261 285.047 278.41C281.28 278.552 277.408 279.444 273.662 279.884C270.419 280.264 267.163 279.338 264.073 279.752C262.657 279.942 261.404 280.781 259.973 280.994C258.168 281.262 256.282 280.869 254.464 280.872C251.401 280.875 247.85 280.859 245.308 282.765C242.638 284.766 240.348 288.079 239.451 291.281C238.555 294.485 238.795 298.09 238.228 301.289C237.75 303.986 237.648 307.314 237.2 310.376C235.262 307.948 235.387 311.453 235.366 312.489C235.342 313.741 233.995 316.273 234.342 317.006C234.566 317.48 236.071 317.23 236.198 317.601C236.46 318.365 235.554 318.688 235.538 319.26C235.474 321.488 235.601 323.79 235.596 326.037C235.071 325.635 234.544 325.233 234.018 324.831C233.741 325.432 233.654 326.215 233.391 326.823C233.272 327.099 232.161 327.023 232.108 327.567C232.04 328.277 233.594 329.644 233.893 330.42C234.43 331.805 234.772 331.258 233.863 332.752C232.815 334.473 231.1 334.568 231.374 337.069C231.929 336.644 232.413 336.15 232.827 335.586C233.086 337.079 232.437 338.394 232.359 339.881C232.307 340.852 233.489 344.731 232.598 345.38C232.223 345.653 231.221 344.161 231.13 344.056ZM309.453 221.692C309.46 218.418 304.681 213.383 303.037 210.643C300.415 206.272 297.596 202.315 294.263 198.452C290.914 194.571 287.339 190.871 284.092 186.906C282.748 185.266 281.75 183.35 280.38 181.744C278.668 179.739 278.306 180.355 276.185 180.408C274.572 180.449 273.52 180.175 272.029 180.654C271.237 180.908 270.724 181.286 269.874 181.52C269.342 181.667 268.639 181.151 267.925 181.4C266.158 182.016 265.557 183.592 263.424 183.559C263.168 183.555 262.349 182.949 262.231 182.983C262.087 183.025 261.424 183.531 261.447 183.525C261.305 183.558 261.346 184.561 260.967 184.735C260.32 185.033 259.861 184.034 259.272 184.098C257.783 184.262 256.675 185.799 255.027 186.172C252.911 186.65 251.08 185.952 249.058 186.937C247.443 187.724 246.627 189.513 245.283 187.663C244.067 190.246 241.827 189.464 239.59 190.552C236.471 192.07 233.09 192.84 229.768 193.986C222.935 196.344 216.053 198.76 209.391 201.599C195.572 207.489 182.19 214.019 168.681 220.35C155.469 226.542 143.248 234.753 131.358 243.018C125.528 247.069 119.732 251.326 115.185 256.874C113.807 258.555 111.505 261.166 112.434 263.531C113.417 266.033 117.569 267.585 119.918 268.065C122.997 268.695 126.382 268.906 129.516 269.115C132.9 269.343 136.536 269.455 139.885 269.409C146.486 269.318 152.961 268.674 159.593 268.528C167.138 268.362 174.534 266.77 182.064 266.676C190.341 266.573 198.523 265.535 206.812 265.859C222.79 266.484 238.754 266.946 254.778 267.023C256.772 267.032 258.727 266.792 260.685 267.139C262.274 267.421 263.422 267.977 265.126 267.855C266.714 267.741 268.185 267.047 269.803 266.963C271.927 266.852 274.103 267.202 276.238 267.158C283.447 267.011 291.996 266.355 298.945 268.635C301.705 269.541 305.175 272.179 303.493 275.598C301.829 278.978 297.579 276.223 294.948 277.759C292.497 279.191 293.856 283.096 294.03 285.431C294.356 289.856 294.416 294.258 294.299 298.691C294.042 308.483 293.446 318.263 293.331 328.058C293.276 332.816 293.344 337.572 293.595 342.323C293.817 346.517 293.67 351.081 295.103 355.083C297.1 350.086 297.343 344.569 298.135 339.304C298.993 333.607 299.831 327.91 300.646 322.206C301.13 318.818 301.633 298.47 308.263 301.128C315.311 303.953 312.861 319.607 313.18 325.235C313.482 330.547 314.025 335.839 315.229 341.029C315.789 343.442 317.328 353.686 320.421 354.348C322.689 343.627 325.088 332.923 326.756 322.087C327.492 317.304 328.141 312.485 328.435 307.652C328.588 305.137 328.402 299.091 332.038 298.798C342.725 297.937 335.555 342.969 343.542 348.634C346.496 342.758 347.651 336.63 348.452 330.116C348.817 327.15 349.597 323.812 349.136 320.838C348.531 316.947 347.875 314.562 348.687 310.541C349.352 307.25 349.83 303.87 350.598 300.607C351.151 298.256 352.597 297.108 353.359 294.987C355.507 289.017 355.369 281.459 356.226 275.192C357.093 268.845 358.008 262.605 356.883 256.202C355.77 249.861 351.131 247.845 345.858 245.227C340.544 242.59 335.417 239.692 329.582 238.528C323.03 237.223 317.017 235.956 310.311 235.609C298.475 234.998 286.876 235.707 275.093 236.268C261.992 236.892 248.878 236.114 235.784 235.934C229.419 235.847 222.935 235.724 216.58 235.828C213.396 235.88 210.307 236.433 207.102 236.352C204.372 236.284 199.034 237.126 196.644 235.674C194.768 234.535 194.771 232.01 196.354 230.619C197.923 229.24 201 229.168 202.959 228.742C209.219 227.383 215.46 226.603 221.766 225.512C225.397 224.884 228.444 224.676 232.083 224.853C235.617 225.026 239.221 224.015 242.794 223.844C250.367 223.482 257.983 223.124 265.56 223.006C280.243 222.777 294.756 221.656 309.453 221.692ZM317.115 365.312C315.934 365.767 316.235 371.41 316.127 372.537C315.808 375.912 315.458 379.283 315.158 382.659C314.464 390.454 313.942 398.266 313.516 406.08C313.09 413.894 312.585 421.733 312.61 429.561C312.622 432.893 312.771 436.223 312.704 439.555C312.654 442.046 311.557 446.707 313.683 448.477C315.109 449.664 317.902 449.13 319.569 449.02C322.861 448.805 326.162 448.584 329.462 448.56C333.275 448.53 337.062 448.941 340.877 448.841C342.341 448.803 343.975 448.559 345.424 448.835C346.474 449.036 347.62 449.942 348.605 449.981C349.329 450.01 350.266 449.291 351.067 449.15C352.314 448.93 353.777 449.185 355.045 449.169C355.948 449.158 358.123 448.75 358.953 449.283C359.761 449.803 359.45 450.985 360.189 451.247C360.47 451.347 362.076 449.44 362.351 449.32C363.58 448.784 365.372 449.201 366.667 449.216C370.397 449.257 374.128 449.022 377.859 449.057C381.496 449.091 385.004 449.514 388.495 449.937C390.803 450.217 393.453 449.516 395.903 449.311C399.82 448.982 403.754 449.043 407.682 449.122C409.653 449.161 411.626 449.192 413.597 449.241C414.064 449.253 414.988 449.071 415.438 449.205C417.247 449.748 416.099 449.78 417.378 450.606C415.701 449.522 421.13 448.816 421.443 448.814C423.907 448.795 426.165 450.006 428.216 449.769C430.438 449.512 432.706 448.139 435.15 448.565C436.292 448.764 437.241 450.042 438.09 450.189C439.462 450.426 439.93 449.435 441.189 448.939C443.699 447.949 446.612 448.812 449.233 448.64C452.912 448.4 456.455 448.391 460.148 448.342C466.886 448.253 473.624 448.142 480.363 448.207C486.568 448.268 491.553 450.756 497.724 450.621C500.961 450.55 504.252 450.268 507.484 450.346C510.26 450.411 511.677 452.48 509.579 454.91C508.161 456.553 505.556 456.727 503.556 457.027C500.588 457.475 497.673 458.117 494.714 458.613C487.679 459.792 480.316 459.756 473.2 459.97C444.18 460.843 415.153 463.423 386.115 463.696C373.364 463.816 360.477 464.89 347.767 464.389C340.677 464.109 333.746 465.633 326.6 464.538C323.588 464.076 320.626 463.796 317.589 463.579C317.193 463.551 314.874 463.102 314.436 463.301C313.142 463.891 313.864 463.352 313.321 464.849C312.43 467.307 312.802 471.227 312.806 473.844C312.816 478.014 313.019 482.193 313.159 486.362C313.294 490.355 313.516 494.346 313.754 498.336C313.852 499.986 313.202 506.193 314.475 507.424C315.46 508.377 320.068 507.926 321.314 507.659C322.81 507.339 322.95 507.261 324.569 507.451C325.763 507.591 326.188 507.556 327.384 507.427C330.808 507.057 334.73 506.992 338.168 507.61C340.836 508.09 343.638 506.824 344.66 509.63C346.386 507.517 346.347 508.734 348.244 509.159C350.198 509.596 349.6 508.333 351.256 508.16C352.423 508.038 353.464 508.96 354.726 508.968C356.811 508.982 358.687 508.431 360.916 508.709C370.759 509.937 380.741 511.041 390.666 511.132C394.784 511.171 398.853 511.234 402.949 511.359C405.038 511.423 407.014 511.64 409.069 511.887C411.006 512.12 412.527 511.654 414.54 511.552C418.992 511.325 423.662 512.003 428.115 512.247C430.208 512.361 432.83 512.001 434.838 512.276C436.855 512.552 437.007 514.084 438.612 514.973C438.865 510 449.263 513.185 451.97 513.191C453.033 513.195 454.331 512.742 455.614 512.824C457.738 512.961 459.876 512.995 462.003 513.07C465.394 513.189 468.671 513.395 471.892 512.984C476.101 512.448 480.672 513.019 484.922 512.993C489.551 512.964 494.18 512.901 498.807 512.75C503.494 512.596 508.173 512.309 512.859 512.159C516.93 512.027 521.249 512.356 525.262 512.057C526.302 511.98 527.297 511.218 528.227 511.178C529.517 511.124 530.96 511.677 532.448 511.55C537.138 511.15 541.507 511.084 546.247 511.1C554.378 511.128 562.826 509.627 570.622 507.473C574.215 506.48 577.95 506.426 581.518 505.362C585.637 504.132 589.409 501.988 593.199 500.005C596.168 498.451 600.341 497.728 599.132 493.798C597.842 489.603 595.782 485.535 594.246 481.414C592.912 477.831 592.06 474.341 589.167 471.645C586.307 468.982 582.654 467.194 579.608 464.738C572.967 459.386 566.036 456.186 558.173 453.017C550.248 449.822 543.018 445.111 534.692 442.986C526.961 441.013 519.513 438.369 511.938 436.347C503.651 434.136 495.104 433.334 486.745 431.368C478.734 429.483 470.869 426.711 462.752 425.276C453.97 423.724 445.107 422.926 436.357 421.031C428.939 419.426 421.862 416.282 414.405 415.027C412.227 414.66 409.872 414.436 407.764 413.752C405.792 413.111 404.382 411.815 402.389 411.29C397.788 410.078 393.79 408.426 389.434 406.456C387.602 405.627 386.587 404.609 385 403.582C383.107 402.357 380.682 401.922 378.557 401.247C374.464 399.947 370.386 398.669 366.714 396.386C362.908 394.021 359.411 391.347 355.907 388.583C354.423 387.412 352.836 386.238 351.315 385.143C349.441 383.795 347.519 383.551 345.418 382.67C336.309 378.848 332.32 369.875 327.357 362.068C326.892 368.391 320.842 371.324 317.115 365.312ZM446.582 254.56C447.21 251.728 448.105 247.664 444.576 247.506C444.349 247.496 442.011 248.08 441.77 248.235C440.567 249.008 440.112 251.588 439.653 252.84C439.249 253.944 438.969 255.415 438.071 256.249C437.186 257.074 436.261 257.094 435.435 258.081C432.92 261.085 431.047 266.245 429.526 269.872C431.589 269.373 430.09 270.757 430.968 271.546C432.339 272.777 431.911 272.554 433.86 272.745C437.256 273.077 438.806 272.173 441.461 270.058C443.712 268.264 444.435 267.089 445.732 264.5C447.585 260.801 446.681 258.445 446.578 254.558C447.507 255.413 448.437 256.268 449.366 257.124C449.078 256.003 448.789 254.882 448.501 253.762L446.582 254.56ZM348.903 30.9526C350.707 24.776 354.078 24.3195 358.61 28.7573C359.329 27.1699 360.179 24.705 362.269 24.7188C363.749 24.7289 364.011 25.9262 365.005 26.7342C366.204 27.7114 367.138 28.0544 368.66 28.3147C371.981 28.8824 375.067 28.6878 378.192 30.1724C381.04 31.5242 382.394 33.4987 384.586 35.5233C386.637 37.4174 388.133 36.1907 390.474 37.1493C393.078 38.2153 394.242 41.37 394.746 43.9261C395.362 47.053 394.721 48.0495 396.894 50.3198C398.944 52.4618 400.032 55.1894 400.279 58.1324C400.512 60.9156 399.898 64.2187 398.291 66.5654C396.483 69.2088 394.609 68.478 396.963 71.6181C398.148 73.1993 398.282 76.5649 399.707 77.5784C402.2 79.3496 405.42 76.4923 407.622 75.7731C410.615 74.796 409.947 76.4305 411.26 78.4018C413.199 81.314 414.353 78.3091 416.998 78.8908C417.971 79.1048 418.256 80.1545 418.598 80.2804C419.806 80.7285 418.523 80.5624 419.904 80.0642C420.821 79.7335 420.192 77.9538 422.041 78.9696C423.326 79.6764 422.358 80.9332 422.942 81.8431C424.09 83.6321 425.793 82.5893 426.641 84.8982C427.484 87.1978 428.627 90.2475 429.096 92.7619C429.667 95.8162 428.326 98.4742 428.522 101.364C428.727 104.382 431.718 106.416 433.578 108.532C442.7 118.901 446.562 132.54 449.537 145.723C452.304 157.975 447.436 171.845 437.877 180.149C433.032 184.359 426.978 186.164 422.324 190.797C420.259 192.853 420.286 193.505 422.747 195.19C424.763 196.571 426.612 198.329 428.749 199.42C434.242 202.224 439.594 204.227 445.728 205.404C448.821 205.998 452.041 205.761 455.17 205.649C458.428 205.533 462.105 205.995 465.289 205.598C468.101 205.246 470.326 202.976 473.271 203.217C474.425 203.311 475.132 203.752 476.307 203.648C477.85 203.512 479.147 202.695 480.788 202.737C483.282 202.8 485.75 202.842 488.162 202.933C490.901 203.035 494.121 202.285 496.847 202.759C499.434 203.208 502.511 205.534 504.761 206.891C507.535 208.563 510.865 210.497 513.348 212.54C515.694 214.472 517.349 217.544 519.179 219.942C521.114 222.479 523.353 224.745 525.299 227.27C532.96 237.211 541.03 249.456 543.425 261.971C544.032 265.138 543.999 268.266 543.542 271.447C543.133 274.288 540.468 275.368 540.387 278.422C540.222 284.603 543.184 291.769 544.903 297.628C546.715 303.796 548.983 309.787 551.793 315.587C552.88 317.834 554.259 319.691 554.944 322.017C555.779 324.859 557.052 327.555 557.983 330.422C566.037 355.217 578.521 378.299 587.622 402.718C592.512 415.84 597.684 428.849 603.016 441.803C605.64 448.18 608.483 454.362 611.336 460.642C611.711 461.467 611.978 463.058 612.631 463.626C613.735 464.585 612.762 464.039 614.307 463.876C615.641 463.735 617.025 463.128 618.37 462.902C621.618 462.357 624.944 462.263 628.219 461.94C631.983 461.568 635.296 461.374 639.062 461.556C642.566 461.726 646.016 460.685 649.504 460.454C656.983 459.959 664.357 460.22 671.83 460.36C677.653 460.469 685.109 459.777 690.497 462.48C695.895 465.188 694.032 471.425 689.455 473.801C683.969 476.647 677.513 477.053 672.062 479.954C676.153 481.213 680.573 480.889 684.74 481.871C687.426 482.505 691.578 482.973 693.603 484.933C695.563 486.833 695.365 490.104 694.071 492.332C692.459 495.105 689.36 495.584 686.571 496.546C687.828 498.211 689.781 498.081 690.912 500.276C692.415 503.195 691.475 506.313 689.635 508.837C685.642 514.316 677.736 514.779 671.563 515.56C665.497 516.328 659.128 516.512 653.021 516.096C649.542 515.859 646.109 515.685 642.674 515.195C638.721 514.631 639.101 517.401 637.693 520.235C636.33 522.979 634.363 524.154 631.32 523.985C628.034 523.801 624.39 523.578 621.135 523.027C618.018 522.5 615.319 520.891 612.33 520.221C609.638 519.616 607.5 518.64 604.943 517.33C602.007 515.828 600.446 513.314 597.877 511.587C595.24 509.815 592.481 512.599 589.887 513.985C583.585 517.352 576.668 518.841 569.775 520.497C562.746 522.185 555.9 524.346 548.751 525.515C545.424 526.058 542.264 525.985 538.952 526.338C535.136 526.745 531.829 528.203 527.931 528.21C514.169 528.239 500.318 530.723 486.55 531.183C472.92 531.638 459.069 530.51 445.453 531.423C438.492 531.89 431.755 530.953 424.832 531.313C417.69 531.686 410.296 531.31 403.17 530.764C388.38 529.633 374.05 529.927 359.416 529.194C351.803 528.812 344.042 528.095 336.525 526.886C329.155 525.701 320.815 527.066 315.602 520.655C315.029 523.169 314.872 525.775 313.035 527.757C311.103 529.841 307.991 530.682 305.405 531.632C298.801 534.055 292.125 536.357 285.476 538.656C279.174 540.837 272.83 543.198 266.477 545.197C259.8 547.297 253.448 549.843 246.884 552.309C240.936 554.543 234.773 556.308 229.042 559.002C226.677 560.112 224.201 560.204 221.94 561.242C219.149 562.522 216.556 563.751 213.565 564.675C210.999 565.468 208.652 566.038 206.17 567.068C203.712 568.089 200.23 569.861 197.657 568.504C195.849 567.55 195.139 565.36 194.583 563.53C193.886 561.243 194.48 557.274 191.772 557.377C189.096 557.478 185.319 560.054 182.695 560.927C179.557 561.973 176.344 563.722 173.112 564.314C169.875 564.907 167.327 564.729 165.629 561.72C163.718 558.333 164.037 554.744 164.608 551.061C159.099 551.047 153.996 551.565 148.439 551.754C145.378 551.858 142.401 551.994 139.348 551.656C136.593 551.353 132.496 552.216 130.106 550.956C125.248 548.391 125.971 541.138 128.422 537.171C129.783 534.969 131.915 533.484 134.083 532.148C136.801 530.473 138.794 528.573 141.175 526.44C139.622 525.37 137.603 525.89 136.081 524.615C134.898 523.627 134.162 521.977 133.622 520.569C132.615 517.945 133.912 511.925 131.641 510.438C130.428 509.645 128.28 509.981 126.894 509.345C125.001 508.476 123.672 506.873 122.856 504.966C121.019 500.666 122.593 496.19 124.385 492.174C117.596 491.016 107.642 490.555 105.7 482.692C105.079 480.181 104.994 477.274 105.848 474.804C107.116 471.139 110.07 470.942 113.345 469.867C127.039 465.373 139.864 458.075 154.617 456.993C162.52 456.413 170.479 456.108 178.372 455.289C186.3 454.465 193.943 453.012 201.923 453.999C205.318 454.418 209.248 454.044 212.495 454.658C215.636 455.251 216.033 458.955 213.633 461.093C211.3 463.17 207.917 461.841 205.139 462.075C201.203 462.404 197.887 464.267 194.211 465.439C185.193 468.318 175.311 470.36 165.906 471.394C160.857 471.948 156.089 472.022 151.147 473.369C146.657 474.592 142.214 475.982 137.709 477.153C142.631 478.469 152.166 478.323 153.804 484.319C154.574 487.141 153.72 491.046 151.239 492.791C149.798 493.804 146.651 493.342 145.744 494.856C149.619 495.331 154.039 492.35 156.167 496.614C158.595 501.479 156.219 505.32 153.113 508.933C155.858 508.478 158.68 508.996 161.451 508.645C163.59 508.373 165.588 507.729 167.62 508.399C168.64 508.735 168.505 509.644 169.793 509.649C170.729 509.653 172.131 508.635 172.944 508.242C176.032 506.751 179.166 505.539 182.358 504.294C186.242 502.78 189.933 501.616 193.809 500.666C199.161 499.353 204.534 495.983 209.756 494.077C211.968 493.27 214.812 492.442 215.911 490.139C217.045 487.763 216.176 484.284 216.107 481.771C215.91 474.701 215.994 467.622 216.037 460.551C216.074 454.603 216.216 448.768 216.746 442.844C217.378 435.755 216.812 428.692 217.083 421.592C217.333 415.073 216.748 408.569 216.926 402.051C217.124 394.791 217.487 387.557 217.562 380.288C217.696 367.231 218.135 354.19 218.388 341.136C218.647 327.727 220.069 314.312 222.935 301.2C224.218 295.327 225.895 289.345 228.129 283.765C228.837 281.998 229.578 281.897 227.877 280.887C226.869 280.288 225.623 280.957 224.633 281.09C222.552 281.368 220.694 281.491 218.576 281.367C206.435 280.655 193.864 281.231 181.766 282.322C175.475 282.89 169.149 283.431 162.832 283.656C156.531 283.88 150.231 284.857 143.93 284.396C133.373 283.622 121.332 284.83 112.284 278.03C102.629 270.775 103.538 257.921 109.773 248.634C116.653 238.384 128.145 232.544 137.741 225.362C147.169 218.305 158.251 213.13 168.533 207.447C190.544 195.28 214.197 184.018 237.896 175.61C262.008 167.056 286.201 157.223 312.461 158.895C325.765 159.741 340.65 160.236 352.386 167.304C358.655 171.082 364.724 175.02 370.111 180.009C372.648 182.36 374.885 185.256 377.587 187.404C380.098 189.401 382.561 188.033 385.431 187.299C383.398 180.739 381.365 174.178 379.332 167.617C376.524 169.796 372.661 170.624 369.011 169.853C364.579 168.918 364.938 167.025 365.335 163.233C365.52 161.474 366 161.774 364.473 160.663C363.222 159.752 360.935 159.454 359.494 158.664C355.9 156.695 352.784 153.804 351.46 149.834C350.143 145.887 351.076 142.226 351.938 138.308C352.974 133.596 350.412 135.566 347.483 133.376C346.195 132.412 345.733 131.574 345.954 129.982C346.135 128.69 348.69 126.829 348.575 125.557C348.437 124.023 347.583 124.195 346.371 123.27C345.033 122.25 344.07 120.998 343.479 119.392C342.23 115.991 344.777 113.89 345.845 110.754C346.362 109.234 346.871 107.934 347.888 106.655C349.689 104.388 350.388 104.438 352.901 104.458C355.017 104.474 354.994 104.301 356.579 102.387C357.194 101.645 357.807 100.907 358.338 100.102C359.251 98.7183 359.505 98.906 358.528 97.8253C355.553 94.5316 354.196 99.6738 351.553 99.3633C348.497 99.0041 347.948 94.1569 346.032 92.5378C344.691 91.4046 343.16 91.8365 341.694 91.0709C339.901 90.1355 339.541 88.3519 338.376 86.8572C336.487 84.4316 333.744 84.0037 332.483 80.9262C331.768 79.1797 331.67 77.3814 331.525 75.5298C331.317 72.8934 330.627 70.8093 329.86 68.2996C329.078 65.7396 329.271 63.8896 330.542 61.5344C331.852 59.1073 332.007 58.2908 331.677 55.5532C331.426 53.4691 331.349 51.619 332.436 49.7597C333.609 47.756 333.853 46.7101 334.235 44.4274C334.568 42.426 335.204 40.9846 337.139 40.1542C338.458 39.588 339.885 40.2183 340.817 38.9291C341.746 37.6421 341.498 35.5804 342.453 34.1583C344.01 31.8386 346.352 31.4756 348.903 30.9526Z" fill="#182234"/>
<path fill-rule="evenodd" clip-rule="evenodd" d="M425.999 134.035C425.093 131.908 422.064 122.099 427.046 122.049C430.999 122.009 429.75 130.521 429.798 132.61C429.889 136.521 433.98 137.077 435.511 140.624C437.297 144.761 436.065 149.7 433.281 153.072C431.156 155.645 427.067 158.593 424.148 155.443C420.902 151.938 424.021 149.97 426.294 147.788C429.585 144.624 423.287 143.705 421.652 141.139C418.873 136.778 421.924 134.509 425.999 134.035Z" fill="#182234"/>
<path fill-rule="evenodd" clip-rule="evenodd" d="M411.727 136.247C411.273 138.267 411.411 142.878 409.217 143.966C405.538 145.791 404.688 136.988 404.717 135.045C404.748 132.978 405.463 128.093 408.511 128.726C411.932 129.436 409.991 135.769 411.727 136.247Z" fill="#182234"/>
<path fill-rule="evenodd" clip-rule="evenodd" d="M425.489 161.815C430.929 161.984 430.623 168.471 425.407 168.697C420.553 168.908 420.672 161.666 425.489 161.815Z" fill="#182234"/>
<path fill-rule="evenodd" clip-rule="evenodd" d="M437.058 258.507C436.55 260.668 435.365 262.706 433.589 264.068C434.008 263.214 435.825 258.122 437.058 258.507Z" fill="#182234"/>
<path fill-rule="evenodd" clip-rule="evenodd" d="M963 383C955.365 397.928 947.298 412.46 939.153 427.116C934.841 434.875 920.935 466.965 917.343 468.192C913.476 469.512 889.784 455.58 882.985 452.851C870.902 448 859.421 443.408 846.799 440.418C832.667 437.069 818.422 434.6 803.763 435.845C797.342 436.391 786.715 437.943 793.096 428.923C797.748 422.346 802.254 416.289 808.572 411.538C813.17 408.079 819.911 401.734 825.295 399.424C830.944 396.999 839.275 397.536 845.346 397.679C851.909 397.834 883.19 407.595 884.911 397.422C888.102 400.325 889.96 399.202 893.616 400.62C897.736 402.218 900.305 405.32 904.397 407.193C907.052 408.41 911.946 413.216 914.897 413.245C918.82 413.284 919.876 410.035 922.694 407.637C929.006 402.263 937.41 398.726 944.259 394.057C950.289 389.944 956.031 385.658 963 383ZM894.276 265C893.74 271.815 895.579 278.147 895.535 285.159C895.516 288.219 895.377 291.278 896.306 294.226C897.14 296.869 896.557 301.617 897 304.384C889.194 302.008 874.691 298.483 866.721 301.688C859.102 304.751 858.143 318.918 857.875 325.809C857.692 330.505 859.777 337.74 858.196 342.236C857.459 344.333 857.453 345.01 857.499 345.199L857.505 345.219C857.355 345.142 856.743 345.143 854.586 346.7C852.446 348.242 849.893 349.092 847.779 350.795C843.935 353.897 843.276 357.411 841.379 361.906C839.536 366.272 834.627 370.152 829.147 369.994C833.552 362.01 839.668 354.554 836.158 345.177C833.51 338.099 838.152 329.793 841.803 323.07C843.012 320.843 856.413 303.784 850.475 302.582C846.619 301.8 837.768 319.908 836.075 323.07C831.352 319.877 829.231 315.941 832.866 311.132C835.658 307.439 839.085 304.281 841.803 300.457C846.215 294.25 850.515 286.842 855.755 281.329C864.959 271.649 881.024 265.059 894.276 265ZM857.505 345.219C857.557 345.254 857.535 345.288 857.512 345.236L857.505 345.219ZM1017.96 254.423C1023.84 260.057 1031.28 264.73 1036.96 270.643C1041.94 275.819 1048.64 284.526 1051 291.441C1038.87 293.778 1018.73 300.936 1013.9 313.662C995.038 296.35 987.742 328.001 984 341.236C972.963 336.46 975.164 320.56 975.31 311.276C975.423 303.912 979.909 295.195 969.216 294.592C961.225 294.143 953.465 297.397 946.258 300.444C937.265 304.247 927.832 309.935 920.568 316.469L913 310.577C925.415 303.607 931.886 290.28 939.153 278.078C941.471 274.187 944.568 269.861 946.258 265.656C947.427 262.748 948.25 256.878 949.532 254.293C951.549 250.228 971.246 249.109 976.464 248.061C990.239 245.297 1006.7 243.639 1017.96 254.423Z" fill="#86A8FF"/>
<path fill-rule="evenodd" clip-rule="evenodd" d="M1014.82 344.755C1019.91 344.495 1024.98 345.631 1030.06 345.136C1025.65 341.288 1021.23 337.441 1016.81 333.594C1014.86 337.021 1014.72 340.92 1014.82 344.755ZM894.104 265.657C880.934 265.715 864.869 272.33 855.72 281.991C850.873 287.111 846.867 293.987 842.768 299.739C840.018 303.599 837.333 307.324 833.996 310.715C829.129 315.658 830.522 316.789 836.005 320.511C837.741 317.259 846.943 299.871 850.8 300.653C856.661 301.843 845.342 320.209 844.106 322.497C840.445 329.267 834.533 338.723 837.189 345.863C840.694 355.287 835.612 360.659 831.199 368.69C835.833 368.824 836.29 367.017 837.887 363.064C839.938 357.984 842.176 353.74 846.514 350.227C849.873 347.508 855.368 346.363 856.946 343.079C858.898 339.02 857.673 331.004 857.831 326.489C858.072 319.627 858.089 303.406 865.65 300.358C873.572 297.163 887.816 300.174 895.56 302.54C894.593 296.493 891.543 292.543 891.585 285.824C891.63 278.79 893.567 272.515 894.104 265.657ZM792.928 377.873C799.817 375.692 806.348 373.394 813.436 371.908C820.853 370.352 821.349 368.572 825.53 362.21C828.7 357.389 832.546 353.63 831.648 347.726C831.072 343.938 828.998 342.092 829.622 337.833C830.008 335.193 831.24 332.311 832.131 329.8C833.222 326.72 835.485 323.227 830.224 323.074C827.319 322.99 827.177 324.523 825.211 327.096C821.583 331.849 817.407 336.165 813.547 340.723C806.841 348.638 799.73 357.061 792.245 364.387C784.005 372.447 776.893 382.17 771.567 392.49C770.583 394.396 764.602 405.621 767.154 407.822C769.497 409.844 782.53 405.129 784.907 404.577C795.164 402.196 806.807 401.347 816.498 397.022C821.436 394.818 832.332 392.188 836.232 388.779C839.857 385.61 839.694 377.932 837.59 373.464C831.702 377.128 789.132 390.949 792.928 377.873ZM921.089 314.877C927.963 308.668 936.089 303.687 944.576 299.996C952.169 296.695 961.599 293.015 970.046 293.588C980.569 294.301 976.172 302.778 976.134 309.996C976.085 319.574 971.887 333.373 983.324 338.342C987.058 325.08 994.927 293.718 1013.78 311.096C1018.6 298.344 1035.78 294.028 1047.88 291.686C1045.69 285.243 1039.02 279.411 1034.41 274.575C1028.63 268.526 1024.07 261.435 1018.28 255.5C1006.85 243.78 986.143 247.544 971.671 250.466C966.84 251.44 952.835 252.664 950.495 256.212C949.027 258.437 949.847 263.873 948.759 266.593C947.26 270.342 944.699 273.817 942.645 277.279C935.148 289.912 927.522 302.627 914.693 309.861L921.089 314.877ZM963.041 382.934C956.253 385.539 951.26 389.894 945.24 393.561C937.941 398.008 929.382 402.173 922.831 407.665C920.434 409.674 919.087 413.144 915.778 413.369C912.9 413.565 908.515 410.222 905.963 409.053C901.684 407.088 897.595 404.111 893.294 402.36C889.759 400.92 888.194 401.215 885.136 398.416C883.42 408.627 852.211 399.082 845.664 398.927C839.607 398.783 831.297 399.501 825.66 401.935C820.289 404.254 816.089 409.36 811.492 412.838C805.19 417.608 799.176 422.431 794.535 429.034C788.169 438.087 797.773 435.525 804.178 434.978C818.798 433.728 833.02 437.21 847.114 440.571C859.712 443.574 872.153 447.177 884.213 452.047C890.995 454.786 898.133 457.305 904.512 460.865C907.875 462.743 913.329 467.339 917.188 466.014C920.727 464.8 924.253 454.656 926.398 450.604C930.565 442.739 934.948 435.007 939.25 427.219C947.376 412.508 955.425 397.92 963.041 382.934ZM879.518 577.637C883.701 575.235 890.52 575.882 895.145 574.875C900.372 573.737 905.628 571.884 910.612 569.952C915.658 567.996 920.427 565.995 925.039 563.547C927.148 562.428 929.959 561.326 931.908 559.773C933.479 558.521 934.051 556.195 935.5 555.06C939.278 552.097 940.388 553.956 940.895 548.24C941.445 542.031 937.961 538.515 933.625 533.868C929.743 529.71 924.699 526.115 919.821 523.19C917.663 521.897 915.358 520.441 913.156 519.206C909.824 517.336 905.36 514.227 903.612 518.241C907.252 519.17 908.055 523.82 904.769 525.491C902.964 526.408 900.232 525.061 898.197 526.036C895.056 527.542 892.034 531.745 889.345 534.008C880.519 541.439 872.078 544.225 860.525 544.822C836.386 546.066 811.108 543.313 787.433 539.735C781.34 538.814 775.257 539.812 769.107 539.592C763.123 539.378 756.884 538.07 751.002 537.059C739.672 535.113 727.73 533.511 716.576 530.648C703.087 527.184 689.551 522.704 676.887 516.902C664.738 511.335 651.007 502.138 637.362 501.429C643.185 507.13 651.91 509.326 658.914 513.081C664.638 516.149 673.59 518.119 677.207 523.174C679.561 526.464 680.742 532.507 682.521 536.365C684.488 540.634 686.302 544.971 688.123 549.305C689.952 553.665 691.857 558.027 693.343 562.517C694.262 565.303 694.658 571.078 696.83 572.984C700.295 576.024 711.891 577.373 716.561 578.384C725.279 580.273 735.223 580.022 744.115 580.153C747.79 580.207 751.494 580.708 755.005 580.776C759.936 580.87 759.466 580.017 759.396 575.736C759.355 573.165 759.407 568.49 762.845 570.607C765.188 572.05 763.576 578.44 763.142 580.711C782.77 582.666 803.249 583.649 822.784 582.995C841.995 582.351 860.542 579.873 879.518 577.637ZM968.159 532.581C971.623 507.711 975.843 482.426 980.567 457.878C985.341 433.072 991.081 408.491 997.537 383.778C993.273 382.757 989.008 381.739 984.744 380.719C984.585 385.926 982.824 390.45 982.074 395.633C981.037 402.787 979.057 409.734 977.871 416.865C975.618 430.419 971.444 443.682 967.767 456.9C964.019 470.375 962.767 484.258 959.323 497.801C956.485 508.958 955.035 521.248 953.45 532.718C949.605 560.545 944.127 588.426 939.958 616.266C936.048 642.369 935.656 669.001 935.881 695.347C936.019 711.432 938.473 727.471 938.345 743.577C938.313 747.559 938.648 751.528 938.855 755.503C939.001 758.307 937.495 766.081 938.772 768.431C939.581 769.918 943.056 771.29 944.286 773.355C946.231 776.623 946.641 780.529 949.766 783.001C952.299 772.785 951.102 759.3 950.549 748.874C950.013 738.828 951.053 728.445 951.258 718.245C951.658 698.235 952.718 678.518 953.744 658.498C954.869 636.543 958.067 614.054 961.191 592.264C964.032 572.451 965.927 552.287 968.159 532.581ZM875.46 220.691C874.086 220.563 872.713 220.436 871.34 220.308C871.545 223.202 870.933 227.889 872.973 229.398C874.519 230.542 877.649 230.166 879.523 230.532C885.665 231.733 892.783 232.737 898.88 230.55C901.25 229.7 899.728 228.369 902.99 228.922C906.92 229.589 905.485 230.212 906.62 232.663C907.494 234.555 907.944 237.775 908.936 240.046C910.264 243.086 912.956 248.526 911.805 252.036C910.687 255.448 906.514 256.478 904.741 260.343C903.422 263.216 903.734 267.392 903.048 270.556C902.134 274.776 900.978 278.98 900.467 283.278C899.825 288.693 900.045 295.046 906.754 295.886C912.981 296.667 917.433 294.665 921.608 290.131C929.583 281.474 938.688 269.254 943.373 258.364C943.92 257.092 945.267 254.969 945.079 253.607C944.708 250.913 944.546 253.64 943.692 251.769C942.877 249.98 941.598 248.357 940.846 246.372C938.141 239.241 936.223 231.766 935.139 224.216C934.647 220.797 934.483 217.419 934.567 213.966C934.594 212.786 935.302 209.246 934.88 208.439C934.45 207.621 932.206 207.244 931.507 206.432C930.21 204.927 927.983 200.678 926.547 199.551C924.78 198.167 920.827 199.263 920.109 196.51C918.961 192.104 946.133 184.927 933.439 179.047C923.961 174.657 909.424 196.848 906.11 179.387C905.536 176.362 906.63 172.256 905.303 169.484C903.837 166.421 899.845 165.275 897.057 163.784C893.499 161.884 889.905 159.93 886.447 157.848C884.076 156.421 880.659 152.632 878.135 152.285C879.128 157.428 877.223 162.526 877.191 167.659C882.659 166.179 886.422 166.148 891.819 168.779C894.389 170.031 904.073 177.138 899.167 180.556C895.192 178.206 890.94 176.168 886.509 174.787C884.761 174.241 882.579 173.5 880.72 173.462C876.405 173.375 877.013 173.826 875.393 177.08C873.831 180.214 874.167 188.388 870.738 190.389C867.193 192.458 869.927 189.562 866.9 190.231C865.173 190.613 863.292 191.897 861.711 192.622C863.877 194.973 868.248 197.119 869.685 199.73C871.78 203.536 871.053 211.41 871.381 215.575C874.124 214.593 877.011 214.553 879.792 213.824C882.405 213.137 886.03 210.167 886.303 214.534C886.607 219.4 878.914 220.691 875.46 220.691ZM911.16 348.817C911.374 344.612 911.608 340.408 912.075 336.22C912.391 333.408 915.061 325.252 913.552 322.781C911.911 320.095 906.41 319.924 903.762 319.279C898.688 318.042 893.821 317.029 888.663 316.212C883.92 315.461 879.45 315.303 874.67 315.085C869.464 314.85 868.174 313.469 867.023 319.205C866.119 323.716 864.906 328.413 864.737 333.032C864.579 337.367 865.888 341.129 861.592 344.051C871.025 344.051 883.311 335.652 891.919 343.162C904.233 353.902 882.804 356.996 877.154 359.367C881.851 361.65 888.824 363.442 891.035 368.657C893.517 374.502 889.916 376.987 884.406 377.455C884.924 379.707 886.908 381.171 887.499 383.88C888.364 387.851 885.557 386.536 889.139 389.609C893.855 393.653 903.564 396.357 909.348 398.933C910.702 399.539 912.073 400.107 913.459 400.639C915.626 402.567 917.225 402.2 918.259 399.536C921.226 397.658 923.867 393.468 926.499 391.03C932.355 385.607 938.818 380.848 945.776 376.932C942.891 375.737 939.441 378.436 936.673 377.123C934.436 376.06 935.279 374.128 933.939 372.681C934.476 370.794 933.909 370.104 932.238 370.611C931.403 370.7 930.625 370.558 929.906 370.187C928.506 368.452 927.877 367.884 927.784 365.205C927.686 362.363 929.333 361.359 929.964 359.084C932.018 357.685 931.971 356.309 929.824 354.962C928.941 353.519 928.46 351.953 928.38 350.265C927.972 343.996 933.694 341.469 938.058 338.153C930.244 337.294 930.542 328.129 935.949 324.123C941.553 319.969 953.419 321.67 960.195 322.607C961.605 322.8 965.411 324.618 966.836 323.459C967.71 322.749 967.093 316.743 967.133 315.684C967.225 313.277 967.81 310.409 967.426 308.015C966.624 303.003 968.324 305.527 964.716 305.388C956.129 305.054 945.194 312.551 937.639 316.085C929.183 320.041 923.749 320.649 923.661 330.458C923.576 339.745 920.972 348.999 919.835 358.139C919.338 362.13 918.984 382.867 911.678 375.214C908.846 372.246 910.661 367.682 910.871 364.021C911.157 358.983 910.987 353.868 911.16 348.817ZM438.767 659.711C442.948 660.453 449.757 658.053 454.317 657.801C462.291 657.362 470.504 656.603 478.316 654.944C484.428 653.645 491.393 652.502 494.689 646.586C497.636 641.299 498.677 634.677 500.264 628.907C501.107 625.843 503.281 621.401 503.281 618.231C503.281 614.11 502.725 614.923 498.428 612.667C492.989 609.814 487.697 605.837 481.83 604.218C480.055 603.871 478.28 603.532 476.502 603.198C474.204 601.865 472.906 602.521 472.605 605.163C470.362 607.529 469.046 611.89 467.163 614.657C462.871 620.966 457.774 625.265 451.115 628.903C439.132 635.448 427.967 640.499 415.133 644.779C408.06 647.137 401.538 650.446 394.625 653.045C389.086 655.129 381.442 655.762 377.188 660.398C372.387 665.629 379.766 667.532 383.867 671.068C387.227 673.966 387.293 674.631 391.889 673.224C395.314 672.175 398.35 670.172 401.638 668.813C412.903 664.16 426.537 661.064 438.767 659.711ZM696.21 742.682C692.012 741.773 687.813 740.866 683.615 739.959C687.744 747.667 696.428 758.945 690.195 767.865C687.866 771.198 683.991 772.148 680.53 773.839C676.341 775.886 672.474 778.507 668.513 780.946C652.183 791.001 635.587 801.197 618.38 809.825C623.767 811.564 632.05 812.767 637.597 811.252C644.057 809.487 650.039 805.436 656.671 803.665C668.57 800.489 681.095 797.785 693.183 796.156C703.064 794.825 727.798 797.833 726.597 782.972C725.456 768.863 717.029 755.403 714.521 741.455C708.367 742.822 702.497 742.583 696.21 742.682ZM946.449 516.862C951.234 493.376 954.093 469.491 959.737 446.174C962.553 434.541 964.537 422.749 967.288 411.115C968.568 405.701 969.535 400.235 970.781 394.832C972.044 389.362 974.761 384.314 975.382 378.659C970.809 379.79 969.751 390.264 968.365 394.204C965.823 401.432 963.049 408.378 959.782 415.298C954.588 426.298 949.077 436.911 943.218 447.576C937.04 458.824 930.515 469.642 922.797 479.914C920.261 483.29 916.82 485.935 915.185 489.637C912.615 495.461 911.535 502.403 909.08 508.464C910.809 509.341 915.275 509.56 917.395 509.979C921.339 510.757 924.102 511.448 927.89 513.324C934.563 516.628 940.17 520.544 944.628 526.488C945.748 523.437 946.04 520.091 946.449 516.862ZM760.452 696.054C760.373 673.435 760.052 650.623 760.423 628.172C760.525 621.937 761.033 615.212 761.937 609.025C762.505 605.137 765.845 596.871 763.649 595.007C761.773 593.413 751.867 594.463 749.436 594.406C744.722 594.297 740.022 594.087 735.298 593.732C735.298 602.115 738.573 611.634 740.095 619.926C741.513 627.661 742.679 635.439 743.85 643.21C746.384 660.036 747.105 677.096 749.857 693.968C752.349 709.266 755.638 724.5 757.451 739.796C758.446 748.192 760.46 756.114 762.024 764.505C762.842 768.881 765.821 786.904 769.574 788.676C770.367 782.211 767.126 774.404 766.545 767.867C765.947 761.117 765.483 754.322 764.388 747.537C763.103 739.572 762.454 731.409 761.961 723.346C761.661 718.412 761.569 713.493 761.142 708.562C760.834 704.984 759.48 699.562 760.452 696.054ZM878.327 393.593C878.483 391.13 872.108 391.229 870.921 388.398C868.512 382.649 874.002 383.684 877.377 383.089C876.174 379.892 853.638 381.056 858.889 372.426C862.531 366.438 876.342 375.603 880.034 369.913C882.46 366.176 875.857 365.661 873.239 365.287C869.298 364.722 860.016 366.546 860.322 361.434C860.706 355.01 878.752 350.576 883.814 348.689C883.253 344.29 861.534 350.543 858.391 352.326C851.277 356.362 845.826 363.603 844.782 371.652C843.566 381.016 848.315 388.39 857.668 390.689C861.568 391.646 864.45 391.753 868.058 393.194C870.433 394.141 878.117 396.503 879.744 394.113C879.271 393.94 878.8 393.766 878.327 393.593ZM1005.83 335.348C1006.19 331.349 1009.55 323.821 1005.68 321.194C1000.25 317.517 997.999 323.576 996.769 327.215C995.265 331.659 988.943 342.537 994.471 345.307C995.757 345.951 1001.85 345.201 1002.93 344.776C1005.92 345.557 1006.89 344.436 1005.83 341.41V335.348ZM873.369 658.284C873.029 647.354 877.922 634.215 880.695 623.51C883.839 611.381 885.495 599.011 888.826 587.015C885.121 587.462 881.382 587.826 877.721 588.569C872.727 589.584 872.637 589.424 872.996 594.323C873.532 601.68 872.83 608.893 872.45 616.248C871.689 630.973 873.543 645.94 872.31 660.572C873.41 660.851 873.762 660.088 873.369 658.284ZM1011.65 371.843C1023.64 373.679 1035.14 377.484 1046.06 382.595C1052.08 385.412 1058.71 388.44 1065.44 389.565C1072.91 390.816 1080.83 390.228 1088.47 390.711C1091.16 390.881 1098.23 392.188 1100.85 390.606C1103.45 389.038 1103.24 386.382 1103.37 383.215C1103.68 375.07 1100 367.095 1096.68 359.787C1093.84 353.517 1091.69 348.73 1087.27 343.337C1081.61 336.41 1076.67 328.935 1071.36 321.705C1067.36 316.256 1063.32 310.884 1059.24 305.44C1056.32 301.543 1056.46 300.202 1052.06 300.638C1047.73 301.068 1043.37 303.628 1039.29 304.984C1033.24 306.998 1025.91 308.103 1020.39 311.323C1016.82 313.404 1016.66 313.788 1016.7 317.421C1016.74 320.805 1017.83 324.932 1019.86 327.58C1024.06 333.076 1031.03 335.985 1037.01 338.727C1040.48 340.312 1043.47 342.561 1046.55 344.749C1049.87 347.107 1056.56 348.496 1059.1 351.184C1066.5 359.012 1053.04 357.465 1049.27 357.228C1041.16 356.718 1033.09 356.796 1024.91 356.79C1015.98 356.783 1007.13 356.369 998.33 356.659C993.176 356.829 987.263 354.215 983.924 349.858C982.308 347.747 981.677 345.752 979.563 343.562C976.793 340.694 974.383 337.674 971.013 335.455C965.498 331.824 955.477 329.77 948.913 331.125C951.263 331.453 962.319 335.217 957.452 339.948C956.859 340.524 949.748 340.901 948.202 341.611C945.413 342.892 941.896 344.754 940.26 347.459C945.024 346.661 962.692 345.737 953.679 354.878C951.467 357.122 945.114 359.361 950.52 361.747C951.761 362.295 954.246 361.519 955.845 362.013C958.22 362.749 960.162 364.716 962.388 365.764C968.701 368.743 977.403 370.579 983.992 369.927C993.102 369.023 1002.6 370.65 1011.65 371.843ZM770.045 647.268C770.356 660.398 769.882 673.607 770.162 686.798C770.462 700.886 772.269 714.692 773.13 728.637C773.904 741.136 775.591 753.397 776.962 765.836C777.751 773.001 778.66 779.852 779.872 786.963C781.008 793.617 781.202 799.48 773.247 801.269C758.039 804.691 755.676 782.812 752.737 773.593C748.349 759.835 745.535 745.391 743.361 731.129C739.314 704.567 733.932 678.374 731.832 651.587C730.539 635.092 728.664 618.766 727.6 602.286C727.392 599.056 728.215 594.08 725.379 592.642C723.673 591.779 718.976 591.771 716.822 591.145C710.824 589.4 705.29 586.83 699.437 584.164C703.591 605.885 704.963 627.498 708.079 649.409C709.732 661.035 712.896 673.082 715.638 684.526C718.479 696.383 719.11 709.15 722.387 720.75C723.831 725.863 725.054 727.946 722.958 733.193C720.388 739.635 722.093 741.176 725.316 747.502C731.245 759.141 735.771 772.876 734.766 785.997C733.946 796.713 725.85 802.322 715.82 805.214C703.274 808.829 690.137 808.402 677.515 812.508C666.519 816.084 655.346 818.727 644.667 823.449C640.361 825.352 636.27 827.611 631.489 827.961C624.931 828.437 620.51 824.632 614.316 823.838C610.445 823.344 604.777 825.191 602.547 821.133C600.779 817.916 602.78 810.896 604.999 808.306C611.233 801.029 623.718 794.688 632.125 790.393C641.815 785.444 651.191 779.249 660.169 772.861C665.611 768.988 671.161 765.272 676.599 761.392C680.195 758.824 681.562 758.808 681.195 754.728C680.902 751.475 679.436 748.319 679.179 744.988C678.983 742.436 679.877 738.957 678.671 737.292C677.784 736.063 674.454 735.197 673.145 734.267C668.357 730.873 667.269 726.674 665.095 721.511C660.156 709.784 654.482 698.387 649.713 686.566C639.473 661.185 633.225 634.498 624.736 608.599C616.064 582.14 608.309 554.364 603.533 526.913C597.142 528.857 591.11 537.464 586.02 541.722C579.144 547.477 572.098 553.042 565.355 558.955C554.302 568.647 543.11 578.073 533.976 589.68C529.576 595.271 525.973 601.288 521.988 607.161C519.687 610.554 517.541 614.395 515.049 617.623C514.649 618.141 514.638 619.204 514.206 619.646C513.257 620.615 511.444 619.324 510.836 619.962C507.08 623.89 507.129 635.041 505.959 640.223C504.346 647.364 502.535 655.576 496.959 660.498C488.346 668.1 472.46 669.278 461.559 669.672C447.57 670.179 433.998 674.077 420.725 678.265C414.534 680.217 408.505 682.502 402.291 684.397C398.717 685.49 394.64 687.666 390.823 687.247C386.22 686.743 382.585 682.87 379.214 679.991C373.82 675.386 368.826 670.847 369 663.291C369.194 655.293 373.527 649.256 380.352 645.284C393.547 637.603 408.305 632.68 422.528 627.372C427.978 625.337 432.644 623.085 437.856 620.346C445.219 616.474 453.695 613.313 460.229 608.202C462.155 606.693 469.235 602.072 469.838 599.689C469.918 599.378 468.148 595.739 468.141 595.162C468.123 593.677 469.002 592.069 469.543 590.798C472.946 582.798 478.654 575.094 483.018 567.55C491.01 553.731 499.033 539.84 508.299 526.843C526.776 500.932 547.532 475.562 569.934 452.944C580.855 441.917 590.293 429.41 601.367 418.536C605.755 414.229 610.387 410.721 615.794 407.925C621.82 404.809 628.585 404.198 635.493 403.246C652.233 400.942 666.213 405.894 681.93 410.203C696.787 414.276 711.661 417.712 726.602 421.955C743.01 426.614 759.25 431.083 775.606 436.161C784.346 438.874 793.336 440.539 802.117 443.143C806.345 444.395 822.33 452.245 825.855 449.666C814.75 444.455 803.374 439.706 791.493 436.56C787.994 435.635 785.759 436.66 785.889 432.642C785.961 430.451 788.423 427.493 789.31 425.689C791.432 421.37 793.836 417.15 795.913 412.819C788.381 414.958 768.136 422.36 762.46 414.708C756.521 406.698 761.48 390.995 765.202 383.153C774.92 362.682 791.448 345.599 807.551 330.167C811.035 326.831 818.544 322.473 820.401 318.224C820.965 316.932 819.737 315.034 821.011 313.355C821.768 312.357 824.81 311.675 826.026 310.598C830.454 306.679 833.987 298.431 837.047 293.291C840.251 287.91 843.139 282.081 847.165 277.253C853.752 269.357 860.552 260.987 871.218 259.14C876.448 258.235 882.004 258.717 887.017 256.911C893.08 254.726 898.841 251.284 904.964 249.021C903.444 245.898 902.213 240.933 899.266 240.592C896.429 240.263 892.268 242.701 889.021 242.684C884.278 242.657 880.23 241.899 875.653 240.996C870.588 239.994 868.919 240.176 867.072 234.681C865.136 228.924 865.624 222.239 865.64 216.26C865.648 213.338 866.227 209.712 865.978 206.844C865.605 202.523 864.765 202.357 861.378 199.609C857.146 196.176 851.929 191.633 857.113 185.667C859.914 182.444 865.67 184.951 868.151 181.487C870.678 177.96 870.556 169.098 871.326 164.955C863.536 168.784 866.392 154.469 866.391 151.024C866.39 146.012 863.03 136.998 867.866 132.828C870.113 130.892 871.782 132.494 874.352 131.381C877.283 130.112 879.129 126.782 882.248 125.49C888.447 122.923 894.777 126.015 901.142 125.504C908.442 124.92 915.613 123.791 922.954 124.962C926.432 125.516 927.896 126.837 930.839 128.318C933.669 129.742 936.54 130.132 939.614 131.048C942.349 131.864 944.747 132.277 946.595 134.66C948.056 136.546 947.461 139.718 948.936 141.343C950.391 142.945 953.27 142.712 955.004 144.614C956.67 146.44 957.666 149.457 958.531 151.728C959.7 154.788 959.838 155.937 961.896 158.386C963.691 160.523 966.275 162.242 967.773 164.679C971.302 170.426 971.393 178.736 970.266 185.2C969.883 187.401 966.693 193.091 967.192 194.964C967.668 196.747 970.659 196.278 972.014 197.405C973.185 198.38 974.215 202.721 975.138 202.986C977.132 203.558 979.592 199.619 981.104 199.028C983.73 198.001 984.829 196.948 986.284 200.818C987.362 203.691 985.86 207.589 985.069 210.331C984.063 213.821 982.951 218.024 980.285 220.662C977.151 223.765 974.642 222.069 971.184 223.74C966.001 226.244 967.53 234.074 961.153 236.311C955.076 238.444 948.381 231.735 943.784 228.652C944.736 236.138 948.32 243.351 946.6 251.024C960.577 245.548 974.401 237.776 989.633 236.064C997.4 235.19 1005.25 234.155 1012.58 237.38C1021.16 241.154 1026.42 249.479 1032.23 256.396C1043.15 269.396 1054.35 282.031 1064.83 295.45C1074.44 307.759 1082.54 322.021 1093.12 333.546C1103.84 345.234 1111.94 364.197 1110.77 380.381C1110.66 381.842 1109.53 385.161 1109.71 386.736C1109.84 387.943 1110.94 389.473 1110.92 390.446C1110.86 393.721 1109.78 395.606 1106.66 397.423C1101.25 400.575 1093.18 402.17 1087.07 402.952C1078.94 403.992 1068.99 404.103 1060.86 402.993C1052.48 401.847 1045.11 397.154 1037.4 394.318C1030.63 391.829 1023.84 390.275 1016.73 388.687C1012.81 387.811 1008.47 385.386 1006.05 387.733C1003.83 389.89 1003.37 400.958 1002.85 403.901C997.224 435.8 990.542 466.617 984.624 498.354C977.917 534.326 973.331 570.284 968.666 606.561C964.427 639.537 963.041 672.887 962.092 705.833C961.64 721.548 961.574 737.096 961.67 752.825C961.724 761.632 966.127 791.033 953.07 792.158C945.397 792.822 939.259 781.821 937.203 775.822C934.114 766.808 932.506 757.102 932.013 747.633C931.016 728.464 929.71 709.281 928.936 690.105C928.099 669.329 929.164 648.17 930.872 627.463C932.591 606.617 936.922 586.075 938.25 565.198C934.265 570.885 932.99 571.953 926.352 574.43C919.406 577.024 912.724 580.091 905.716 582.508C903.331 583.331 899.61 583.846 897.655 585.192C894.049 587.677 896.418 584.858 895.266 589.693C894.036 594.859 893.805 601.06 893.478 606.368C891.942 631.278 885.041 656.011 881.858 680.789C881.09 686.772 882.187 712.169 871.89 704.165C863.961 698.001 864.118 678.64 862.99 669.571C861.489 657.482 862.325 645.053 862.563 632.891C862.833 619.04 863.066 604.512 866.371 590.988C860.457 589.976 852.232 592.733 846.28 593.197C841.126 593.598 835.99 593.853 830.865 594.134C818.644 594.806 806.055 595.341 793.627 595.101C791.365 595.057 776.584 592.988 774.695 594.656C774.081 595.198 773.894 602.65 773.779 603.561C773.344 606.985 772.754 610.406 772.314 613.811C770.91 624.697 769.643 636.386 770.045 647.268Z" fill="#182234"/>
<path fill-rule="evenodd" clip-rule="evenodd" d="M989.546 750.718C998.873 754.363 1008.77 755.686 1018.18 759.007C1026.59 761.976 1034.4 765.967 1042.68 768.984C1043.16 765.143 1043.42 758.639 1042 755.019C1039.99 749.892 1034.71 749.767 1029.5 747.941C1016.84 743.497 1003.52 742.56 990.941 737.369C993.094 741.513 992.133 747 989.546 750.718ZM1150.56 737.313C1130.41 737.904 1111.16 742.592 1091.31 745.491C1081.65 746.901 1071.98 748.16 1062.31 749.476C1058.59 749.981 1051.8 749.386 1049.1 752.607C1046.86 755.276 1049.31 764.384 1048.32 768.295C1052.39 768.596 1059.62 764.792 1064.04 764.162C1070.92 763.184 1077.71 761.813 1084.66 761.377C1095.68 760.683 1106.5 760.093 1117.49 758.867C1128.67 757.621 1139.48 755.305 1150.75 754.459C1156.23 754.047 1158.43 755.074 1158.76 749.291C1158.88 747.03 1159.19 743.246 1158.56 741.016C1159.57 738.275 1158.67 736.945 1155.86 737.023C1154.08 736.822 1152.31 736.919 1150.56 737.313ZM1111.6 718.858C1117.04 718.347 1122.51 717.614 1127.97 717.307C1129.08 717.244 1134.7 717.583 1135.62 716.553C1136.91 715.097 1135.47 709.769 1135.23 708.121C1134.42 702.516 1133.52 699.256 1127.41 699.244C1122.25 699.231 1116.91 700.323 1111.77 700.826C1088.44 703.113 1065.22 704.078 1042.14 708.421C1043.55 714.403 1045.14 720.574 1043.46 726.691C1054.53 727.262 1066.69 725.132 1077.5 722.947C1088.56 720.714 1100.29 719.605 1111.6 718.858ZM1074.66 662.54C1066.33 662.577 1057.52 666.249 1049.29 665.43C1049.17 666.961 1051.8 665.691 1052.53 667.123C1054.08 667.127 1054.62 667.633 1054.15 668.646C1054.18 669.336 1053.82 669.741 1053.09 669.858C1052.73 669.89 1052.36 669.921 1052 669.952C1050.41 670.004 1050.15 671.076 1051.22 673.173C1050.76 675.771 1051.45 679.07 1051.55 681.678C1066.33 679.666 1080.69 677.574 1095.58 676.676C1102.61 676.253 1109.63 676.254 1116.65 675.676C1124.38 675.039 1132.81 676.404 1140.36 674.958C1144.39 674.184 1143.97 674.238 1143.68 668.989C1143.5 665.8 1143.56 662.014 1140.97 659.688C1136.63 655.803 1126.76 658.048 1121.57 658.185C1105.96 658.598 1090.07 660.049 1074.66 662.54ZM1083.2 737.501C1105.53 735.473 1127.7 731.03 1150.15 731.03C1148.57 729.444 1145.11 729.035 1143.13 728.169C1140.88 727.183 1138.75 725.082 1136.55 724.219C1132.13 722.489 1127.63 724.893 1123.09 725.932C1112.15 728.439 1100.91 728.524 1089.94 730.984C1078.61 733.525 1067.12 735.869 1055.58 737.161C1050.08 737.776 1044.18 739.024 1038.75 737.571C1038.3 737.256 1037.86 736.94 1037.42 736.626C1036.95 734.604 1035.63 734.064 1033.47 735.006C1030.72 734.483 1027.22 735.158 1024.46 735.227C1024.35 736.331 1034.56 739.794 1036.51 740.652C1041.2 742.718 1044.38 744.23 1049.39 743.345C1060.67 741.352 1071.77 738.973 1083.2 737.501ZM1004.64 672.208C1005.51 675.61 1009.17 674.062 1012.33 674.437C1016.56 674.939 1020.78 676.4 1024.88 677.501C1032.33 679.503 1039.78 681.477 1047.2 683.593C1046.9 680.597 1047.57 673.778 1045.98 671.12C1044.32 668.334 1036.45 667.113 1032.78 666.263C1023.54 664.124 1013.66 665.341 1004.27 665.791C1004.44 667.928 1004.56 670.065 1004.64 672.208ZM1093.43 693.493C1102.21 692.75 1110.99 692.172 1119.78 691.863C1129.84 691.511 1122.53 689.904 1122.32 683.771C1109.1 685.879 1095.76 686.295 1082.59 688.097C1071.67 689.592 1058.67 693.494 1047.53 691.398C1042.28 690.41 1036.92 690.029 1031.33 689.47C1026.06 688.943 1021.09 686.488 1015.88 685.878C1010.04 685.193 1004.07 688.478 998.252 689.346C995.788 689.714 995.215 691.385 994.051 688.419C992.845 685.342 996.301 682.828 997.662 680.988C999.251 678.839 998.591 682.328 999.474 678.972C999.721 678.032 999.051 675.669 998.928 674.656C998.616 672.095 997.811 669.316 997.686 666.76C997.57 664.412 997.55 660.828 1000.1 659.458C1001.65 658.622 1002.76 659.841 1004.11 659.605C1014.7 657.764 1027.15 657.613 1037.88 659.39C1049.52 661.315 1059.54 656.218 1071.01 654.151C1084.46 651.726 1098.06 651.363 1111.63 650.338C1123.23 649.463 1144.44 644.921 1148.86 659.743C1150.11 663.943 1151.93 675.505 1148.57 679.078C1144.15 683.771 1133.91 682.273 1128.2 683.493C1129.05 685.924 1131.6 687.578 1130.72 690.474C1138.73 690.852 1140.14 698.417 1141.4 705.479C1142.69 712.786 1140.16 715.69 1147.15 719.495C1156.88 724.798 1167.19 730.153 1167 742.782C1166.9 749.132 1166.19 758.708 1159.67 762.002C1153.29 765.225 1142.91 764.68 1135.88 765.85C1122.27 768.117 1108.61 770.776 1094.91 772.136C1080.33 773.586 1065.5 774.776 1050.9 775.423C1042.94 775.778 1036.06 776.98 1028.38 774.302C1020.82 771.669 1013.43 769.746 1005.63 767.791C997.936 765.863 974.373 763.266 981.239 750.102C982.337 747.996 986.093 746.321 986.699 744.33C987.677 741.117 984.373 738.61 984.511 735.706C984.763 730.395 990.755 729.729 994.894 729.729C987.801 725.293 997.299 720.041 997.243 716.275C997.143 709.64 988.891 705.333 988.424 699.771C987.289 686.235 1030.23 700.329 1036.84 703.257C1031.75 710.8 1008.15 704.273 1001.12 703.129C1002.08 705.648 1003 707.912 1003.27 710.491C1003.5 712.592 1002.7 714.994 1003.43 717.109C1004.59 720.453 1004.55 719.813 1008.66 720.725C1011.7 721.399 1014.7 722.178 1017.73 722.893C1022.38 723.99 1029.7 726.935 1034.31 726.774C1038.35 726.633 1037.55 727.887 1038.29 723.397C1038.69 720.984 1038.01 718.419 1037.6 716.055C1036.75 711.101 1035.51 706.412 1039.84 702.858C1043.96 699.468 1052.66 697.854 1057.72 696.659C1068.95 694.006 1081.91 693.356 1093.43 693.493Z" fill="#182234"/>
<path fill-rule="evenodd" clip-rule="evenodd" d="M1146.87 608.936C1134.68 606.892 1122.29 606.389 1109.95 607.008C1110.61 610.062 1111.28 613.115 1111.95 616.167C1123.51 613.19 1135.24 611.445 1146.87 608.936ZM1047.7 632.624C1042.81 632.266 1046.21 634.453 1047.42 637.655C1048.9 641.588 1048.58 646.561 1048.92 650.701C1063.24 645.244 1079.89 642.05 1095.1 640.213C1102.32 639.343 1109.64 639.093 1116.9 638.721C1119.04 638.611 1126.79 639.509 1128.36 638.066C1129.52 636.993 1128.7 631.073 1127.58 629.766C1121.49 622.667 1097.95 628.797 1089.43 629.433C1075.47 630.476 1061.76 632.971 1047.7 632.624ZM1068.02 613.6C1080.7 614.817 1092.93 614.701 1105.6 616.6C1104.64 608.545 1105.79 606.489 1096.65 606.061C1088.51 605.681 1080.39 605.373 1072.29 605.377C1054.06 605.387 1035.88 605.039 1017.63 605.039V613.225C1034.51 611.497 1051.12 614.618 1068.02 613.6ZM1007.09 643.703C1015.09 643.669 1022.64 646.686 1030.64 647.468C1035.43 647.936 1033.93 648.53 1037.25 650.934C1042.42 654.678 1043.91 652.683 1043.26 647.596C1041.06 630.386 1019.27 634.245 1006.72 633.289C1007.54 637.393 1005.65 640.873 1002.85 643.703H1007.09ZM1093.53 621.608C1082.03 621.794 1070.51 622.448 1059.09 622.209C1053.98 622.102 1047.35 621.089 1042.34 621.961C1038.67 622.599 1035.6 624.469 1031.57 625.164C1037.49 628.349 1040.49 626.197 1046.7 625.472C1052.92 624.749 1059.22 624.763 1065.46 624.385C1075.7 623.765 1086.62 621.311 1096.71 621.979C1096.9 620.557 1095.84 620.433 1093.53 621.608ZM1002.3 658.88C997.017 658.868 1004.28 652.866 1005.23 652.271C999.389 652.271 997.974 648.766 999.667 643.136C1001.26 637.833 1002.44 639.456 998.429 635.04C995.408 631.715 994.951 629.265 998.512 625.547C1002.14 621.765 1009.48 622.835 1012.69 619.713C1018.15 614.399 1011.1 603.816 1018.67 599.745C1023.79 596.995 1032.05 597.335 1037.7 596.754C1043.17 596.192 1048.82 596.084 1054.32 596.009C1066.31 595.845 1078.77 597.856 1090.71 598.963C1095.06 599.365 1099.95 601.124 1104.24 601.127C1108.61 601.132 1113.19 600.157 1117.71 600.269C1122.95 600.402 1128.01 600.015 1133.42 600.876C1137.57 601.537 1147.25 601.884 1150.42 604.967C1160.99 615.241 1135.94 619.959 1131.63 621.113C1136.02 625.918 1135.83 632.27 1135.17 638.319C1137.26 638.319 1140.86 637.41 1141.94 639.752C1143.28 642.659 1138.31 643.415 1137.14 643.754C1130.38 645.706 1122.47 645.171 1115.51 645.88C1101.58 647.297 1087.83 648.114 1074.05 650.752C1067.34 652.037 1060.66 653.628 1053.95 654.879C1052.79 655.096 1051.63 655.269 1050.46 655.4C1048.66 655.247 1048.08 656.373 1048.72 658.786C1046.85 659.696 1039.91 657.429 1037.76 657.082C1025.47 655.088 1014.47 655.916 1002.3 658.88Z" fill="#182234"/>
<path fill-rule="evenodd" clip-rule="evenodd" d="M1250.51 778.245C1242.59 784.484 1235.22 790.372 1226.63 795.793C1232.7 795.604 1252.88 785.924 1250.51 778.245ZM1247.42 768.076C1243.09 764.358 1238.79 764.738 1233.44 763.611C1228.5 762.573 1223.71 760.786 1218.79 759.596C1214.93 758.663 1211.1 757.401 1207.25 756.519C1201.82 755.273 1201.28 756.645 1196.28 759.492C1178.56 769.595 1158.72 776.544 1140.05 784.744C1145.53 789.57 1157.86 789.778 1164.72 791.317C1169.72 792.439 1174.48 793.975 1179.27 795.752C1183.73 797.409 1190.92 801.218 1195.62 801.345C1199.6 801.452 1202.82 797.544 1206.24 795.439C1210.74 792.668 1215.22 789.947 1219.75 787.246C1229.34 781.53 1238.31 774.526 1247.42 768.076ZM1167.31 808.997C1165.26 807.028 1159.1 807.114 1156.54 806.513C1151.48 805.332 1146.5 804.105 1141.38 803.218C1133.07 801.781 1119.94 801.137 1119.04 790.354C1118.29 781.393 1129.11 779.267 1135.45 776.231C1144.97 771.664 1154.68 767.45 1164.45 763.422C1173.6 759.648 1182.89 756.455 1192.22 753.193C1194.03 752.557 1195.51 752.645 1196.99 751.189C1198.16 750.041 1197.8 747.812 1199.09 746.612C1202.02 743.864 1205.84 745.31 1209.37 746.015C1217.39 747.614 1225.71 749.714 1233.36 752.681C1241.3 755.764 1248.41 756.408 1250.32 765.415C1254.38 763.509 1257.43 763.232 1256.95 768.832C1256.81 770.478 1255.61 772.268 1255.32 773.965C1254.9 776.467 1255.64 779.104 1255.22 781.613C1253.7 790.733 1241.41 797.49 1233.78 801.072C1224.39 805.487 1212.26 812.012 1201.77 812.874C1190.59 813.793 1178.41 809.402 1167.31 808.997Z" fill="#182234"/>
<path fill-rule="evenodd" clip-rule="evenodd" d="M1025 657.678C1021.67 657.699 1018.33 657.72 1015 657.741C1018.33 657.116 1021.66 657.109 1025 657.678Z" fill="#182234"/>
<path fill-rule="evenodd" clip-rule="evenodd" d="M830 305C829 306.666 828.001 308.332 827 310C827.341 307.852 828.103 306.011 830 305Z" fill="#182234"/>
<path fill-rule="evenodd" clip-rule="evenodd" d="M1025 705.475C1027 705.493 1029.01 705.509 1031 705.528C1028.99 705.512 1027 705.494 1025 705.475Z" fill="#182234"/>
<path fill-rule="evenodd" clip-rule="evenodd" d="M1071 596.69C1068.67 596.564 1066.33 596.437 1064 596.311C1066.33 596.437 1068.67 596.564 1071 596.69Z" fill="#182234"/>
<path fill-rule="evenodd" clip-rule="evenodd" d="M1031 657.728C1029 657.709 1027 657.691 1025 657.672C1027.01 657.125 1029.01 657.144 1031 657.728Z" fill="#182234"/>
<path fill-rule="evenodd" clip-rule="evenodd" d="M1110.58 374C1110.53 371.999 1110.47 369.998 1110.42 368C1110.47 370.002 1110.53 372 1110.58 374Z" fill="#182234"/>
<path fill-rule="evenodd" clip-rule="evenodd" d="M770.561 676C770.52 674.333 770.479 672.665 770.438 671C770.48 672.669 770.52 674.334 770.561 676Z" fill="#182234"/>
<path fill-rule="evenodd" clip-rule="evenodd" d="M825 594.498C826.338 594.499 827.673 594.5 829 594.503C827.661 594.503 826.33 594.5 825 594.498Z" fill="#182234"/>
<path fill-rule="evenodd" clip-rule="evenodd" d="M1004 235.32C1002.33 235.441 1000.67 235.561 999 235.682C1000.67 235.561 1002.33 235.441 1004 235.32Z" fill="#182234"/>
<path fill-rule="evenodd" clip-rule="evenodd" d="M1130 600.519C1128 600.506 1126 600.493 1124 600.48C1126 600.493 1128 600.506 1130 600.519Z" fill="#182234"/>
<path fill-rule="evenodd" clip-rule="evenodd" d="M961.575 724C961.525 722.665 961.474 721.328 961.426 720C961.475 721.337 961.525 722.669 961.575 724Z" fill="#182234"/>
<path fill-rule="evenodd" clip-rule="evenodd" d="M963.554 673C963.518 671.666 963.482 670.331 963.446 669C963.483 670.334 963.519 671.667 963.554 673Z" fill="#182234"/>
<path fill-rule="evenodd" clip-rule="evenodd" d="M929.428 696C929.476 697.335 929.525 698.671 929.572 700C929.524 698.663 929.476 697.333 929.428 696Z" fill="#182234"/>
<path fill-rule="evenodd" clip-rule="evenodd" d="M833 593.521C834.004 593.507 835.006 593.494 836 593.48C834.994 593.494 833.997 593.507 833 593.521Z" fill="#182234"/>
<path fill-rule="evenodd" clip-rule="evenodd" d="M1123 645.566C1124 645.523 1125.01 645.479 1126 645.436C1124.99 645.48 1124 645.523 1123 645.566Z" fill="#182234"/>
<path fill-rule="evenodd" clip-rule="evenodd" d="M931.415 728C931.472 729.335 931.529 730.671 931.586 732C931.529 730.661 931.472 729.331 931.415 728Z" fill="#182234"/>
<path fill-rule="evenodd" clip-rule="evenodd" d="M1038.6 721C1038.53 722.336 1038.47 723.671 1038.4 725C1038.47 723.664 1038.53 722.332 1038.6 721Z" fill="#182234"/>
<path fill-rule="evenodd" clip-rule="evenodd" d="M923.344 125.148C921.932 124.968 920.518 124.789 919.104 124.609C920.506 124.933 922.041 123.732 923.344 125.148Z" fill="#182234"/>
<path fill-rule="evenodd" clip-rule="evenodd" d="M862.558 638C862.52 639.335 862.482 640.67 862.443 642C862.48 640.662 862.519 639.331 862.558 638Z" fill="#182234"/>
<path fill-rule="evenodd" clip-rule="evenodd" d="M776.603 760C776.535 758.666 776.465 757.332 776.397 756C776.466 757.334 776.535 758.667 776.603 760Z" fill="#182234"/>
<path fill-rule="evenodd" clip-rule="evenodd" d="M1100 647.533C1101.01 647.512 1102.01 647.49 1103 647.471C1101.99 647.493 1101 647.513 1100 647.533Z" fill="#182234"/>
<path fill-rule="evenodd" clip-rule="evenodd" d="M760.49 405C760.498 406.336 760.504 407.671 760.51 409C760.502 407.663 760.497 406.332 760.49 405Z" fill="#182234"/>
<path fill-rule="evenodd" clip-rule="evenodd" d="M739.508 705C739.504 706.335 739.499 707.672 739.492 709C739.496 707.663 739.502 706.331 739.508 705Z" fill="#182234"/>
<path fill-rule="evenodd" clip-rule="evenodd" d="M988.743 697C988.707 698.335 988.672 699.671 988.634 701C988.086 699.629 988.148 698.3 988.743 697Z" fill="#182234"/>
<path fill-rule="evenodd" clip-rule="evenodd" d="M962.516 691C962.505 689.665 962.495 688.331 962.484 687C962.495 688.338 962.505 689.668 962.516 691Z" fill="#182234"/>
<path fill-rule="evenodd" clip-rule="evenodd" d="M1167 809.459C1168 809.486 1169.01 809.514 1170 809.542C1168.99 809.515 1168 809.487 1167 809.459Z" fill="#182234"/>
<path fill-rule="evenodd" clip-rule="evenodd" d="M1131 682.517C1131.67 682.505 1132.34 682.494 1133 682.482C1132.33 682.494 1131.66 682.505 1131 682.517Z" fill="#182234"/>
<path fill-rule="evenodd" clip-rule="evenodd" d="M1106 685.502C1106.67 685.5 1107.34 685.499 1108 685.498C1107.33 685.5 1106.66 685.501 1106 685.502Z" fill="#182234"/>
<path fill-rule="evenodd" clip-rule="evenodd" d="M716.56 692C716.52 691 716.479 689.998 716.44 689C716.481 690.002 716.521 691.002 716.56 692Z" fill="#182234"/>
<path fill-rule="evenodd" clip-rule="evenodd" d="M1126 691.242C1125.13 692.121 1124.01 691.602 1123 691.658C1124 691.519 1125 691.381 1126 691.242Z" fill="#182234"/>
<path fill-rule="evenodd" clip-rule="evenodd" d="M1007 659.248C1005.68 659.872 1004.35 659.958 1003 659.291C1004.33 659.277 1005.67 659.263 1007 659.248Z" fill="#182234"/>
<path fill-rule="evenodd" clip-rule="evenodd" d="M1094 693.518C1092.67 693.507 1091.33 693.496 1090 693.484C1091.33 693.496 1092.67 693.507 1094 693.518Z" fill="#182234"/>
<path fill-rule="evenodd" clip-rule="evenodd" d="M1038 658.683C1036.67 658.562 1035.33 658.441 1034 658.32C1035.33 658.441 1036.67 658.562 1038 658.683Z" fill="#182234"/>
<path fill-rule="evenodd" clip-rule="evenodd" d="M732.539 654C732.514 655.003 732.487 656.004 732.46 657C732.485 655.996 732.512 654.997 732.539 654Z" fill="#182234"/>
<path fill-rule="evenodd" clip-rule="evenodd" d="M962.423 708C962.475 706.998 962.526 705.996 962.577 705C962.526 706.004 962.475 707.002 962.423 708Z" fill="#182234"/>
<path fill-rule="evenodd" clip-rule="evenodd" d="M1100 650.332C1098.67 650.444 1097.33 650.556 1096 650.668C1097.33 650.556 1098.67 650.444 1100 650.332Z" fill="#182234"/>
<path fill-rule="evenodd" clip-rule="evenodd" d="M770.542 647C770.515 645.998 770.486 644.996 770.458 644C770.485 645.004 770.515 646.002 770.542 647Z" fill="#182234"/>
<path fill-rule="evenodd" clip-rule="evenodd" d="M937.618 570C937.539 571.002 937.46 572.003 937.382 573C937.461 571.998 937.54 571 937.618 570Z" fill="#182234"/>
<path fill-rule="evenodd" clip-rule="evenodd" d="M1120 600.261C1118.66 600.953 1117.33 600.866 1116 600.254C1117.33 600.256 1118.67 600.259 1120 600.261Z" fill="#182234"/>
<path fill-rule="evenodd" clip-rule="evenodd" d="M961.589 739C961.529 737.998 961.471 736.998 961.412 736C961.471 737.003 961.529 738.001 961.589 739Z" fill="#182234"/>
<path fill-rule="evenodd" clip-rule="evenodd" d="M961.563 747C961.521 745.999 961.478 744.998 961.437 744C961.48 745.002 961.522 746 961.563 747Z" fill="#182234"/>
<path fill-rule="evenodd" clip-rule="evenodd" d="M772.479 615C772.494 613.999 772.507 612.996 772.521 612C772.506 613.004 772.493 614.001 772.479 615Z" fill="#182234"/>
<path fill-rule="evenodd" clip-rule="evenodd" d="M1057 774.528C1057.67 774.509 1058.34 774.49 1059 774.473C1058.33 774.493 1057.66 774.51 1057 774.528Z" fill="#182234"/>
<path fill-rule="evenodd" clip-rule="evenodd" d="M734.581 783C734.527 781.999 734.473 780.998 734.419 780C734.474 781.001 734.527 782.001 734.581 783Z" fill="#182234"/>
<path fill-rule="evenodd" clip-rule="evenodd" d="M951 791.48C951.67 791.494 952.34 791.506 953 791.521C952.328 791.508 951.664 791.494 951 791.48Z" fill="#182234"/>
<path fill-rule="evenodd" clip-rule="evenodd" d="M1096 599.653C1094.67 599.552 1093.33 599.451 1092 599.35C1093.33 599.451 1094.67 599.552 1096 599.653Z" fill="#182234"/>
<path fill-rule="evenodd" clip-rule="evenodd" d="M1103 600.708L1100 600.293L1103 600.708Z" fill="#182234"/>
<path fill-rule="evenodd" clip-rule="evenodd" d="M951.416 706C951.473 702.999 951.528 699.999 951.584 697C951.527 700.001 951.472 703 951.416 706Z" fill="#182234"/>
<path fill-rule="evenodd" clip-rule="evenodd" d="M873.448 596C873.482 598.335 873.516 600.67 873.552 603C873.518 600.663 873.483 598.331 873.448 596Z" fill="#182234"/>
<path fill-rule="evenodd" clip-rule="evenodd" d="M701 742.471C699.331 742.491 697.659 742.511 696 742.533C697.674 742.513 699.337 742.492 701 742.471Z" fill="#182234"/>
<path fill-rule="evenodd" clip-rule="evenodd" d="M838 543.54C836.329 543.514 834.659 543.487 833 543.463C834.675 543.49 836.338 543.515 838 543.54Z" fill="#182234"/>
<path fill-rule="evenodd" clip-rule="evenodd" d="M795 582.503C796.668 582.502 798.335 582.5 800 582.498C798.333 582.499 796.667 582.501 795 582.503Z" fill="#182234"/>
<path fill-rule="evenodd" clip-rule="evenodd" d="M817 542.469C815.662 542.491 814.325 542.514 813 542.535C814.342 542.513 815.671 542.491 817 542.469Z" fill="#182234"/>
<path fill-rule="evenodd" clip-rule="evenodd" d="M709 742.511C707.663 742.504 706.326 742.497 705 742.49C706.342 742.498 707.671 742.504 709 742.511Z" fill="#182234"/>
<path fill-rule="evenodd" clip-rule="evenodd" d="M889 231.675C890.666 231.559 892.334 231.444 894 231.328C892.333 231.444 890.666 231.559 889 231.675Z" fill="#182234"/>
<path fill-rule="evenodd" clip-rule="evenodd" d="M911.407 349C911.469 347.333 911.531 345.666 911.593 344C911.53 345.668 911.469 347.334 911.407 349Z" fill="#182234"/>
<path fill-rule="evenodd" clip-rule="evenodd" d="M871 364.5C869.997 364.5 868.993 364.501 868 364.502C869.007 364.502 870.003 364.501 871 364.5Z" fill="#182234"/>
<path fill-rule="evenodd" clip-rule="evenodd" d="M786 539.484C784.997 539.495 783.993 539.506 783 539.517C784.007 539.507 785.003 539.496 786 539.484Z" fill="#182234"/>
<path fill-rule="evenodd" clip-rule="evenodd" d="M763 580.338C764.334 580.446 765.667 580.555 767 580.663C765.666 580.555 764.334 580.446 763 580.338Z" fill="#182234"/>
<path fill-rule="evenodd" clip-rule="evenodd" d="M760.469 631C760.49 629.665 760.511 628.332 760.531 627C760.51 628.336 760.49 629.668 760.469 631Z" fill="#182234"/>
<path fill-rule="evenodd" clip-rule="evenodd" d="M875 577.697C876.333 577.566 877.667 577.436 879 577.305C877.666 577.436 876.333 577.566 875 577.697Z" fill="#182234"/>
<path fill-rule="evenodd" clip-rule="evenodd" d="M966.381 554C966.461 552.666 966.54 551.33 966.619 550C966.54 551.336 966.46 552.668 966.381 554Z" fill="#182234"/>
<path fill-rule="evenodd" clip-rule="evenodd" d="M984 369.657C985.334 369.553 986.666 369.449 988 369.346C986.666 369.449 985.334 369.553 984 369.657Z" fill="#182234"/>
<path fill-rule="evenodd" clip-rule="evenodd" d="M848 544.515C846.997 544.505 845.993 544.495 845 544.486C846.007 544.495 847.004 544.505 848 544.515Z" fill="#182234"/>
<path fill-rule="evenodd" clip-rule="evenodd" d="M760.574 706C760.524 704.998 760.475 703.997 760.427 703C760.475 704.002 760.524 705.001 760.574 706Z" fill="#182234"/>
<path fill-rule="evenodd" clip-rule="evenodd" d="M872.692 655C874.878 660.42 873.651 656.582 873.707 657.833C871.845 658.083 871.506 657.138 872.692 655Z" fill="#182234"/>
<path fill-rule="evenodd" clip-rule="evenodd" d="M781 539.556C779.998 539.52 778.993 539.484 778 539.447C779.009 539.483 780.003 539.519 781 539.556Z" fill="#182234"/>
<path fill-rule="evenodd" clip-rule="evenodd" d="M985.406 438C985.469 436.666 985.533 435.332 985.595 434C985.532 435.335 985.468 436.668 985.406 438Z" fill="#182234"/>
<path fill-rule="evenodd" clip-rule="evenodd" d="M760.505 696C760.502 694.666 760.498 693.333 760.495 692C760.498 693.337 760.501 694.669 760.505 696Z" fill="#182234"/>
<path fill-rule="evenodd" clip-rule="evenodd" d="M760.396 666C760.465 664.999 760.535 663.998 760.604 663C760.534 664.002 760.465 665.002 760.396 666Z" fill="#182234"/>
<path fill-rule="evenodd" clip-rule="evenodd" d="M968.36 535C968.453 533.999 968.547 532.998 968.64 532C968.547 533.002 968.453 534.002 968.36 535Z" fill="#182234"/>
<path fill-rule="evenodd" clip-rule="evenodd" d="M747.366 669C747.455 670.002 747.545 671.004 747.634 672C747.544 670.999 747.455 670 747.366 669Z" fill="#182234"/>
<path fill-rule="evenodd" clip-rule="evenodd" d="M745.352 661C745.451 662.001 745.549 663.003 745.648 664C745.549 662.997 745.451 661.998 745.352 661Z" fill="#182234"/>
<path fill-rule="evenodd" clip-rule="evenodd" d="M945.388 524C945.463 523 945.537 521.999 945.612 521C945.536 522.002 945.462 523.001 945.388 524Z" fill="#182234"/>
<path fill-rule="evenodd" clip-rule="evenodd" d="M435 659.659C436.332 659.554 437.666 659.448 439 659.344C437.663 659.449 436.331 659.554 435 659.659Z" fill="#182234"/>
<path fill-rule="evenodd" clip-rule="evenodd" d="M936.557 684C936.518 685.002 936.479 686.006 936.442 687C936.481 685.995 936.519 684.998 936.557 684Z" fill="#182234"/>
<path fill-rule="evenodd" clip-rule="evenodd" d="M952.389 687C952.463 686 952.537 684.998 952.612 684C952.537 685.002 952.463 686.001 952.389 687Z" fill="#182234"/>
<path fill-rule="evenodd" clip-rule="evenodd" d="M946.342 520C946.447 518.999 946.554 517.999 946.658 517C946.553 518.002 946.447 519.001 946.342 520Z" fill="#182234"/>
<path fill-rule="evenodd" clip-rule="evenodd" d="M443 658.698C444.334 658.567 445.668 658.436 447 658.305C445.668 658.436 444.332 658.567 443 658.698Z" fill="#182234"/>
<path fill-rule="evenodd" clip-rule="evenodd" d="M867 543.49C866.331 543.497 865.66 543.505 865 543.512C865.673 543.505 866.336 543.497 867 543.49Z" fill="#182234"/>
<path fill-rule="evenodd" clip-rule="evenodd" d="M760.505 657C760.502 655.998 760.498 654.997 760.495 654C760.498 655.003 760.502 656 760.505 657Z" fill="#182234"/>
<path fill-rule="evenodd" clip-rule="evenodd" d="M954.578 655C954.223 653.966 954.049 652.947 954.734 652C954.682 653.002 954.63 654.001 954.578 655Z" fill="#182234"/>
<path fill-rule="evenodd" clip-rule="evenodd" d="M937.543 636C937.515 637.001 937.485 638.003 937.458 639C937.487 637.997 937.515 636.998 937.543 636Z" fill="#182234"/>
<path fill-rule="evenodd" clip-rule="evenodd" d="M938.406 735C938.468 736 938.531 737.003 938.593 738C938.531 736.998 938.468 735.998 938.406 735Z" fill="#182234"/>
<path fill-rule="evenodd" clip-rule="evenodd" d="M1012 371.287C1013 371.43 1014 371.573 1015 371.714C1014 371.571 1013 371.429 1012 371.287Z" fill="#182234"/>
<path fill-rule="evenodd" clip-rule="evenodd" d="M1008 371.38C1009.34 371.461 1010.82 370.816 1012 371.761L1008 371.38Z" fill="#182234"/>
<path fill-rule="evenodd" clip-rule="evenodd" d="M837 582.51C838.333 582.504 839.668 582.497 841 582.49C839.667 582.497 838.333 582.504 837 582.51Z" fill="#182234"/>
<path fill-rule="evenodd" clip-rule="evenodd" d="M867 370.328L871 370.675C869.665 370.559 868.334 370.444 867 370.328Z" fill="#182234"/>
<path fill-rule="evenodd" clip-rule="evenodd" d="M801 582.24C802.335 582.246 803.667 582.252 805 582.258C803.661 582.902 802.328 582.965 801 582.24Z" fill="#182234"/>
<path fill-rule="evenodd" clip-rule="evenodd" d="M764.615 750C764.539 748.997 764.462 747.996 764.385 747C764.462 748.003 764.539 749.001 764.615 750Z" fill="#182234"/>
<path fill-rule="evenodd" clip-rule="evenodd" d="M910.478 372C910.493 370.998 910.507 369.998 910.522 369C910.507 370.003 910.493 371.002 910.478 372Z" fill="#182234"/>
<path fill-rule="evenodd" clip-rule="evenodd" d="M826 582.663C827.334 582.556 828.667 582.448 830 582.34C828.666 582.448 827.334 582.556 826 582.663Z" fill="#182234"/>
<path fill-rule="evenodd" clip-rule="evenodd" d="M939.467 759C939.489 760.001 939.512 761.002 939.534 762C939.512 760.996 939.489 759.999 939.467 759Z" fill="#182234"/>
<path fill-rule="evenodd" clip-rule="evenodd" d="M943 346.692C944.333 346.565 945.667 346.438 947 346.311C945.667 346.438 944.333 346.565 943 346.692Z" fill="#182234"/>
<path fill-rule="evenodd" clip-rule="evenodd" d="M960.363 602C960.455 600.999 960.547 599.998 960.637 599C960.546 600.002 960.454 601 960.363 602Z" fill="#182234"/>
<path fill-rule="evenodd" clip-rule="evenodd" d="M1006.39 335C1006.46 333.998 1006.54 332.998 1006.61 332C1006.54 333.002 1006.46 334.001 1006.39 335Z" fill="#182234"/>
<path fill-rule="evenodd" clip-rule="evenodd" d="M911.471 249C911.49 250.001 911.508 251.003 911.529 252C911.51 250.997 911.491 249.998 911.471 249Z" fill="#182234"/>
<path fill-rule="evenodd" clip-rule="evenodd" d="M876 230.334C877.333 230.445 878.668 230.557 880 230.667C878.667 230.556 877.333 230.445 876 230.334Z" fill="#182234"/>
<path fill-rule="evenodd" clip-rule="evenodd" d="M676 798.697C677.334 798.566 678.666 798.436 680 798.305C678.666 798.436 677.334 798.567 676 798.697Z" fill="#182234"/>
<path fill-rule="evenodd" clip-rule="evenodd" d="M878 220.502C877.331 220.501 876.66 220.5 876 220.5C876.672 220.502 877.336 220.502 878 220.502Z" fill="#182234"/>
<path fill-rule="evenodd" clip-rule="evenodd" d="M632 811.72C633.335 811.032 634.667 811.228 636 811.725C634.667 811.723 633.332 811.722 632 811.72Z" fill="#182234"/>
<path fill-rule="evenodd" clip-rule="evenodd" d="M1151 753.68C1153.33 753.56 1155.67 753.441 1158 753.322C1155.67 753.441 1153.33 753.561 1151 753.68Z" fill="#182234"/>
<path fill-rule="evenodd" clip-rule="evenodd" d="M1151 736.455C1149.66 736.485 1148.33 736.516 1147 736.547C1148.34 736.517 1149.67 736.485 1151 736.455Z" fill="#182234"/>
<path fill-rule="evenodd" clip-rule="evenodd" d="M1131 716.621C1132.67 716.494 1134.33 716.367 1136 716.24C1134.45 717.217 1132.67 716.494 1131 716.621Z" fill="#182234"/>
<path fill-rule="evenodd" clip-rule="evenodd" d="M1112 718.682C1113.67 718.561 1115.33 718.441 1117 718.32C1115.33 718.441 1113.67 718.561 1112 718.682Z" fill="#182234"/>
<path fill-rule="evenodd" clip-rule="evenodd" d="M1084 736.658C1085.33 736.554 1086.67 736.45 1088 736.346C1086.67 736.45 1085.33 736.554 1084 736.658Z" fill="#182234"/>
<path fill-rule="evenodd" clip-rule="evenodd" d="M1091 736.659C1092.33 736.554 1093.67 736.447 1095 736.342C1093.67 736.447 1092.33 736.553 1091 736.659Z" fill="#182234"/>
<path fill-rule="evenodd" clip-rule="evenodd" d="M1096 735.678C1097.33 735.56 1098.67 735.443 1100 735.324C1098.67 735.442 1097.33 735.56 1096 735.678Z" fill="#182234"/>
<path fill-rule="evenodd" clip-rule="evenodd" d="M1103 701.492C1102 701.499 1100.99 701.506 1100 701.51C1101.01 701.502 1102 701.497 1103 701.492Z" fill="#182234"/>
<path fill-rule="evenodd" clip-rule="evenodd" d="M1128 756.582C1129.33 756.47 1130.67 756.356 1132 756.244C1130.76 757.118 1129.35 756.615 1128 756.582Z" fill="#182234"/>
<path fill-rule="evenodd" clip-rule="evenodd" d="M1090 676.693C1091.33 676.566 1092.67 676.438 1094 676.311C1092.67 676.438 1091.33 676.566 1090 676.693Z" fill="#182234"/>
<path fill-rule="evenodd" clip-rule="evenodd" d="M1085 660.503C1084 660.502 1082.99 660.501 1082 660.5C1083.01 660.501 1084 660.502 1085 660.503Z" fill="#182234"/>
<path fill-rule="evenodd" clip-rule="evenodd" d="M1075 662.496C1074.33 662.5 1073.66 662.503 1073 662.505C1073.67 662.502 1074.34 662.499 1075 662.496Z" fill="#182234"/>
<path fill-rule="evenodd" clip-rule="evenodd" d="M1051 665.281C1050.66 666.103 1048.9 665.998 1049 665.154C1049.67 665.196 1050.33 665.239 1051 665.281Z" fill="#182234"/>
<path fill-rule="evenodd" clip-rule="evenodd" d="M1004.44 669C1004.48 670 1004.52 671.002 1004.56 672C1004.52 670.998 1004.48 669.998 1004.44 669Z" fill="#182234"/>
<path fill-rule="evenodd" clip-rule="evenodd" d="M1141 674.302C1142 674.285 1143 674.269 1144 674.252C1143.01 674.958 1142.01 674.859 1141 674.302Z" fill="#182234"/>
<path fill-rule="evenodd" clip-rule="evenodd" d="M1103 659.486C1102.33 659.496 1101.66 659.506 1101 659.514C1101.67 659.505 1102.34 659.496 1103 659.486Z" fill="#182234"/>
<path fill-rule="evenodd" clip-rule="evenodd" d="M1077 722.687C1078.33 722.562 1079.67 722.438 1081 722.314C1079.67 722.438 1078.33 722.563 1077 722.687Z" fill="#182234"/>
<path fill-rule="evenodd" clip-rule="evenodd" d="M1061 724.675L1065 724.326L1061 724.675Z" fill="#182234"/>
<path fill-rule="evenodd" clip-rule="evenodd" d="M1139 754.689C1140.33 754.563 1141.67 754.438 1143 754.312C1141.67 754.438 1140.33 754.563 1139 754.689Z" fill="#182234"/>
<path fill-rule="evenodd" clip-rule="evenodd" d="M1091 760.71C1092.34 760.222 1093.67 760.055 1095 760.722C1093.67 760.718 1092.33 760.714 1091 760.71Z" fill="#182234"/>
<path fill-rule="evenodd" clip-rule="evenodd" d="M1088.88 622.869L1087 622.219C1089.33 622.19 1091.67 622.161 1094 622.133C1094.01 622.134 1089.15 622.89 1088.88 622.869Z" fill="#182234"/>
<path fill-rule="evenodd" clip-rule="evenodd" d="M1071 605.503C1069.33 605.502 1067.66 605.501 1066 605.5C1067.67 605.502 1069.34 605.503 1071 605.503Z" fill="#182234"/>
<path fill-rule="evenodd" clip-rule="evenodd" d="M1008 643.727C1009.66 643.061 1011.33 643.191 1013 643.709C1011.33 643.715 1009.67 643.721 1008 643.727Z" fill="#182234"/>
<path fill-rule="evenodd" clip-rule="evenodd" d="M1109 627.482C1108 627.494 1106.99 627.506 1106 627.518C1107.01 627.505 1108 627.494 1109 627.482Z" fill="#182234"/>
<path fill-rule="evenodd" clip-rule="evenodd" d="M1088 614.338C1089.67 614.447 1091.34 614.556 1093 614.665C1091.33 614.555 1089.67 614.447 1088 614.338Z" fill="#182234"/>
<path fill-rule="evenodd" clip-rule="evenodd" d="M1067 624.678C1068.67 624.56 1070.33 624.443 1072 624.324C1070.33 624.443 1068.67 624.56 1067 624.678Z" fill="#182234"/>
<path fill-rule="evenodd" clip-rule="evenodd" d="M1080 622.671C1081.33 622.558 1082.67 622.445 1084 622.332C1082.67 622.445 1081.33 622.558 1080 622.671Z" fill="#182234"/>
<path fill-rule="evenodd" clip-rule="evenodd" d="M1069 613.336C1070.33 613.445 1071.67 613.555 1073 613.664C1071.67 613.554 1070.33 613.445 1069 613.336Z" fill="#182234"/>
<path fill-rule="evenodd" clip-rule="evenodd" d="M1050 632.522C1049.33 632.508 1048.66 632.494 1048 632.48C1048.67 632.494 1049.34 632.508 1050 632.522Z" fill="#182234"/>
<path fill-rule="evenodd" clip-rule="evenodd" d="M1071 622.562C1070.33 622.521 1069.66 622.479 1069 622.438C1069.67 622.479 1070.34 622.521 1071 622.562Z" fill="#182234"/>
<path fill-rule="evenodd" clip-rule="evenodd" d="M1058 622.528C1057.33 622.509 1056.66 622.49 1056 622.473C1056.67 622.492 1057.34 622.51 1058 622.528Z" fill="#182234"/>
<path fill-rule="evenodd" clip-rule="evenodd" d="M1094 621.598C1094 621.857 1097.01 620.543 1097 621.765L1094 621.598Z" fill="#182234"/>
<path fill-rule="evenodd" clip-rule="evenodd" d="M1083 605.5C1082.33 605.501 1081.66 605.502 1081 605.503C1081.67 605.502 1082.34 605.501 1083 605.5Z" fill="#182234"/>
<path fill-rule="evenodd" clip-rule="evenodd" d="M728 558.076C729.083 553.657 728.788 550.199 732.645 553.023C734.761 554.574 738.251 562.436 737.986 565.099C737.66 568.384 736.162 569.693 733.07 568.648C729.516 567.444 728.106 561.382 728 558.076Z" fill="#182234"/>
<path fill-rule="evenodd" clip-rule="evenodd" d="M922.83 531.247C931.786 531.247 927.878 540.778 920.413 540.991C916.983 541.09 912.048 540.413 913.16 535.821C913.754 533.37 922.456 530.066 922.83 531.247Z" fill="#182234"/>
<path fill-rule="evenodd" clip-rule="evenodd" d="M826.774 550C833.239 553.128 824.143 566.863 818.269 563.463C810.747 559.111 824.116 551.96 826.774 550Z" fill="#182234"/>
<path fill-rule="evenodd" clip-rule="evenodd" d="M811.044 563C813.16 565.308 822.696 573.133 817.44 576.28C810.976 580.149 806.056 567.376 811.044 563Z" fill="#182234"/>
<path fill-rule="evenodd" clip-rule="evenodd" d="M702.678 557C700.575 552.933 703.469 542.29 709.891 544.235C716.353 546.194 706.234 555.92 702.678 557Z" fill="#182234"/>
<path fill-rule="evenodd" clip-rule="evenodd" d="M845.34 559.344C849.533 557.656 848.734 562.65 849.368 564.261C850.086 566.091 853.778 570.549 852.852 572.497C851.478 575.388 848.193 573.545 846.409 571.669C843.282 568.378 843.504 563.1 845.34 559.344Z" fill="#182234"/>
<path fill-rule="evenodd" clip-rule="evenodd" d="M781.44 563.973C777.946 563.973 769.603 553.897 774.505 552.206C780.589 550.108 785.676 564.713 781.44 563.973Z" fill="#182234"/>
<path fill-rule="evenodd" clip-rule="evenodd" d="M902.208 548C905.409 548.789 909.645 557.851 904.821 558.902C899.481 560.067 898.528 550.506 902.208 548Z" fill="#182234"/>
<path fill-rule="evenodd" clip-rule="evenodd" d="M882.803 565C880.292 560.166 879.674 549.818 885.803 558.124C887.131 559.923 888.501 559.195 887.819 562.163C887.223 564.754 884.844 565 882.803 565Z" fill="#182234"/>
<path fill-rule="evenodd" clip-rule="evenodd" d="M750.585 540C753.143 543.851 752.388 555.926 747.042 548.784C744.768 545.748 746.334 540.144 750.585 540Z" fill="#182234"/>
<path fill-rule="evenodd" clip-rule="evenodd" d="M879.188 177.098C884.152 175.816 885.342 187.519 882.447 188.809C878.394 190.615 878.902 179.055 879.188 177.098Z" fill="#182234"/>
<path fill-rule="evenodd" clip-rule="evenodd" d="M1193.16 771.649C1188.55 771.38 1182.1 770.123 1189.07 766.854C1193.5 764.782 1200.08 764.638 1204.76 765.488C1207.98 766.074 1212.82 768.745 1207.9 772.208C1205.02 774.233 1196.66 771.748 1193.16 771.649Z" fill="#182234"/>
<path fill-rule="evenodd" clip-rule="evenodd" d="M1187.99 780C1186.66 779.85 1185.33 779.699 1184 779.551C1185.07 777.612 1188.17 777.205 1187.99 780Z" fill="#182234"/>
<path fill-rule="evenodd" clip-rule="evenodd" d="M1194 771.457C1195.34 771.486 1196.67 771.516 1198 771.544C1196.66 771.515 1195.33 771.486 1194 771.457Z" fill="#182234"/>
</svg>
