<svg width="645" height="639" viewBox="0 0 645 639" fill="none" xmlns="http://www.w3.org/2000/svg">
<path fill-rule="evenodd" clip-rule="evenodd" d="M476.137 244.733C471.811 253.22 467.201 261.537 462.591 269.853C460.144 274.296 452.232 292.524 450.184 293.265C447.964 294.005 434.475 286.087 430.605 284.549C423.718 281.758 417.173 279.195 410.001 277.486C401.976 275.606 393.838 274.182 385.528 274.866C381.885 275.151 375.852 276.062 379.438 270.935C382.113 267.176 384.674 263.758 388.26 261.024C390.878 259.03 394.691 255.442 397.765 254.132C400.952 252.764 405.733 253.049 409.205 253.163C412.961 253.277 430.719 258.802 431.743 252.992C433.564 254.644 434.589 254.018 436.695 254.815C439.028 255.726 440.508 257.492 442.841 258.575C444.378 259.258 447.11 261.992 448.818 262.049C451.037 262.049 451.663 260.226 453.257 258.859C456.843 255.783 461.623 253.79 465.551 251.113C468.909 248.72 472.153 246.271 476.137 244.733ZM437.036 177.517C436.752 181.391 437.776 184.979 437.776 189.023C437.776 190.789 437.662 192.498 438.231 194.207C438.687 195.688 438.402 198.422 438.63 200.017C434.19 198.65 425.938 196.656 421.384 198.479C417.059 200.245 416.49 208.277 416.376 212.207C416.262 214.884 417.457 218.986 416.547 221.549C416.324 222.094 416.189 222.671 416.148 223.258V223.258C416.034 223.201 415.693 223.201 414.498 224.112C413.303 224.967 411.823 225.479 410.628 226.448C408.465 228.214 408.066 230.207 406.985 232.771C406.392 234.126 405.423 235.282 404.191 236.1C402.96 236.918 401.519 237.364 400.041 237.385C402.546 232.828 406.017 228.612 404.025 223.258C402.546 219.214 405.164 214.486 407.213 210.669C407.896 209.416 415.522 199.675 412.164 198.992C409.945 198.536 404.936 208.846 403.968 210.669C401.293 208.846 400.098 206.625 402.147 203.891C403.741 201.783 405.676 199.96 407.213 197.796C409.717 194.264 412.164 190.049 415.181 186.916C420.303 181.334 429.466 177.574 437.036 177.517V177.517ZM507.383 171.479C510.741 174.669 514.953 177.346 518.197 180.707C521.043 183.669 524.856 188.625 526.165 192.555C519.278 193.865 507.782 197.967 505.05 205.201C494.293 195.346 490.138 213.346 488.032 220.922C481.771 218.188 483.024 209.131 483.08 203.834C483.137 199.618 485.699 194.663 479.609 194.321C475.055 194.093 470.616 195.916 466.518 197.682C461.193 199.929 456.256 203.005 451.891 206.796L447.565 203.435C454.623 199.448 458.322 191.872 462.477 184.922C463.786 182.701 465.551 180.251 466.518 177.859C467.201 176.207 467.656 172.846 468.396 171.365C469.535 169.03 480.747 168.403 483.706 167.833C491.618 166.295 501.009 165.384 507.383 171.479Z" fill="#2C82E9"/>
<path fill-rule="evenodd" clip-rule="evenodd" d="M505.614 222.943C508.517 222.772 511.419 223.456 514.265 223.171C511.761 221.006 509.256 218.785 506.695 216.62C505.614 218.557 505.557 220.778 505.614 222.943V222.943ZM436.917 177.886C429.405 177.943 420.298 181.702 415.062 187.171C412.33 190.076 409.996 194.006 407.663 197.253C406.188 199.49 404.511 201.587 402.654 203.519C399.866 206.31 400.662 206.994 403.793 209.101C404.76 207.221 409.996 197.367 412.216 197.766C415.574 198.449 409.086 208.93 408.403 210.183C406.297 214.057 402.939 219.411 404.476 223.513C406.468 228.867 403.565 231.943 401.061 236.5C403.679 236.557 403.964 235.532 404.874 233.31C406.069 230.405 407.321 228.013 409.769 226.019C411.704 224.481 414.834 223.797 415.688 221.975C416.826 219.639 416.086 215.082 416.2 212.519C416.314 208.588 416.371 199.361 420.64 197.652C425.136 195.829 433.275 197.538 437.657 198.905C437.088 195.487 435.381 193.209 435.381 189.392C435.494 185.405 436.576 181.816 436.917 177.886V177.886ZM379.319 241.798C383.246 240.544 386.946 239.234 390.987 238.38C395.199 237.468 395.483 236.5 397.874 232.854C399.695 230.12 401.858 227.956 401.345 224.595C401.004 222.43 399.866 221.405 400.207 218.956C400.543 217.397 401.019 215.871 401.63 214.399C402.256 212.633 403.565 210.639 400.549 210.582C398.898 210.525 398.841 211.38 397.703 212.861C395.654 215.595 393.263 218.044 391.044 220.608C387.23 225.108 383.19 229.892 378.921 234.108C374.184 238.796 370.209 244.196 367.139 250.114C366.57 251.196 363.155 257.576 364.635 258.829C365.944 259.969 373.4 257.291 374.766 257.007C380.628 255.639 387.23 255.184 392.751 252.677C395.54 251.424 401.744 249.943 403.964 248.006C406.012 246.184 405.956 241.855 404.76 239.291C401.402 241.399 377.157 249.26 379.319 241.798V241.798ZM452.284 205.911C456.262 202.386 460.777 199.521 465.659 197.424C469.985 195.544 475.335 193.436 480.173 193.778C486.149 194.177 483.645 199.019 483.645 203.12C483.645 208.588 481.254 216.449 487.742 219.24C489.848 211.664 494.345 193.835 505.102 203.747C507.834 196.455 517.623 194.006 524.51 192.696C523.257 189.05 519.444 185.69 516.826 182.955C513.525 179.538 510.964 175.493 507.663 172.076C501.174 165.411 489.393 167.519 481.14 169.227C478.408 169.797 470.44 170.481 469.074 172.474C468.221 173.727 468.733 176.86 468.107 178.398C467.253 180.506 465.773 182.5 464.635 184.493C460.366 191.671 456.041 198.905 448.699 203.063L452.284 205.911ZM476.132 244.703C472.262 246.184 469.416 248.69 466.001 250.741C461.846 253.247 456.951 255.639 453.252 258.772C451.886 259.912 451.146 261.905 449.211 262.019C447.56 262.133 445.056 260.253 443.633 259.57C441.186 258.431 438.852 256.779 436.405 255.753C434.413 254.956 433.502 255.127 431.738 253.532C430.77 259.342 413.013 253.931 409.257 253.817C405.785 253.76 401.061 254.158 397.874 255.525C394.8 256.836 392.41 259.741 389.792 261.734C386.206 264.469 382.791 267.203 380.116 270.962C376.474 276.146 381.937 274.665 385.58 274.323C393.89 273.64 401.971 275.576 409.997 277.513C417.19 279.159 424.249 281.349 431.112 284.064C434.982 285.602 439.023 287.083 442.666 289.076C444.601 290.159 447.674 292.779 449.894 291.981C451.886 291.298 453.935 285.488 455.13 283.209C457.521 278.709 459.968 274.323 462.472 269.88C467.253 261.563 471.806 253.247 476.132 244.703V244.703ZM428.608 355.608C430.998 354.241 434.868 354.583 437.486 354.013C440.493 353.308 443.443 352.375 446.308 351.222C449.1 350.145 451.835 348.929 454.504 347.577C455.699 346.95 457.293 346.324 458.431 345.412C459.342 344.672 459.626 343.362 460.48 342.735C462.643 341.026 463.269 342.108 463.554 338.861C463.838 335.33 461.903 333.336 459.399 330.659C457.08 328.268 454.436 326.216 451.545 324.564C450.292 323.823 448.983 323.026 447.731 322.285C445.853 321.203 443.292 319.437 442.324 321.716C444.373 322.228 444.829 324.906 443.007 325.817C441.983 326.33 440.446 325.589 439.251 326.102C437.486 326.956 435.722 329.349 434.185 330.659C429.177 334.874 424.339 336.469 417.794 336.811C404.077 337.494 389.678 335.956 376.189 333.906C372.717 333.393 369.245 333.963 365.773 333.849C362.359 333.735 358.83 332.994 355.472 332.425C349.04 331.342 342.211 330.431 335.893 328.779C328.15 326.838 320.589 324.227 313.298 320.975C306.411 317.785 298.557 312.545 290.816 312.146C294.117 315.393 299.069 316.646 303.11 318.811C306.354 320.577 311.477 321.659 313.525 324.564C314.891 326.444 315.517 329.861 316.542 332.083C317.68 334.532 318.705 336.982 319.729 339.431C320.754 341.937 321.835 344.387 322.689 346.95C323.201 348.545 323.429 351.849 324.681 352.931C326.673 354.64 333.275 355.438 335.893 356.007C340.845 357.089 346.536 356.919 351.602 357.032C353.707 357.089 355.813 357.374 357.805 357.374C360.594 357.431 360.367 356.919 360.31 354.526C360.31 353.045 360.31 350.425 362.245 351.621C363.554 352.419 362.643 356.064 362.416 357.374C373.682 358.549 385.013 358.986 396.337 358.684C407.265 358.286 417.794 356.862 428.608 355.608V355.608ZM479.034 329.918C481.027 315.735 483.417 301.323 486.092 287.367C488.824 273.241 492.068 259.228 495.768 245.158C493.32 244.589 490.93 244.019 488.482 243.392C488.369 246.355 487.401 248.918 486.946 251.88C486.377 255.981 485.238 259.912 484.555 263.956C483.246 271.703 480.913 279.222 478.807 286.741C476.701 294.431 475.961 302.349 474.026 310.039C472.432 316.418 471.579 323.368 470.668 329.918C468.505 345.754 465.375 361.646 462.984 377.482C460.765 392.349 460.537 407.501 460.651 422.539C460.708 431.71 462.131 440.824 462.074 449.995C462.074 452.274 462.245 454.552 462.358 456.774C462.415 458.369 461.562 462.812 462.301 464.122C462.757 464.976 464.749 465.774 465.432 466.913C466.513 468.793 466.798 471.014 468.562 472.381C469.985 466.571 469.302 458.881 469.017 452.957C468.733 447.261 469.302 441.337 469.416 435.527C469.643 424.134 470.27 412.913 470.839 401.52C471.465 388.988 473.286 376.229 475.05 363.811C476.701 352.646 477.782 341.197 479.034 329.918V329.918ZM426.274 152.31C425.477 152.253 424.738 152.139 423.941 152.082C424.055 153.734 423.713 156.411 424.851 157.265C425.705 157.892 427.526 157.721 428.551 157.892C432.023 158.575 436.121 159.145 439.592 157.892C440.958 157.436 440.048 156.639 441.926 156.981C444.146 157.379 443.349 157.721 443.975 159.088C444.487 160.17 444.715 161.993 445.284 163.303C446.024 165.012 447.56 168.145 446.934 170.139C446.308 172.076 443.918 172.645 442.893 174.867C442.154 176.519 442.324 178.854 441.926 180.677C441.414 183.069 440.731 185.462 440.446 187.911C440.105 190.987 440.218 194.633 444.032 195.088C447.56 195.544 450.122 194.405 452.512 191.785C457.065 186.829 462.245 179.879 464.92 173.671C465.204 172.93 466.001 171.734 465.887 170.936C465.659 169.398 465.603 170.936 465.09 169.911C464.635 168.886 463.895 167.974 463.497 166.835C461.957 162.751 460.869 158.511 460.253 154.189C459.967 152.247 459.853 150.284 459.911 148.322C459.911 147.639 460.309 145.645 460.082 145.189C459.854 144.734 458.545 144.506 458.147 144.05C457.407 143.196 456.155 140.746 455.301 140.12C454.276 139.322 452.057 139.949 451.658 138.411C451.032 135.904 466.456 131.803 459.228 128.442C453.821 125.936 445.568 138.582 443.69 128.613C443.349 126.904 443.975 124.569 443.235 122.974C442.381 121.208 440.105 120.582 438.568 119.727C436.519 118.645 434.47 117.506 432.535 116.366C431.169 115.569 429.234 113.404 427.811 113.176C428.38 116.082 427.299 118.987 427.299 121.949C430.429 121.094 432.535 121.094 435.608 122.575C437.088 123.316 442.609 127.36 439.763 129.297C437.482 127.933 435.058 126.825 432.535 125.993C431.473 125.599 430.362 125.35 429.234 125.252C426.786 125.196 427.128 125.48 426.217 127.303C425.307 129.069 425.534 133.74 423.542 134.879C421.55 136.075 423.087 134.423 421.38 134.765C420.412 134.993 419.331 135.734 418.42 136.132C419.672 137.499 422.119 138.696 422.973 140.177C424.168 142.341 423.77 146.841 423.941 149.177C425.477 148.607 427.128 148.607 428.722 148.151C430.201 147.753 432.25 146.044 432.421 148.55C432.649 151.569 428.266 152.31 426.274 152.31V152.31ZM446.593 225.278C446.707 222.886 446.821 220.494 447.105 218.101C447.276 216.506 448.813 211.835 447.959 210.468C447.048 208.93 443.918 208.816 442.381 208.475C439.479 207.791 436.747 207.164 433.787 206.709C431.147 206.328 428.486 206.119 425.819 206.082C422.859 205.968 422.119 205.171 421.493 208.418C420.981 210.981 420.298 213.658 420.184 216.278C420.07 218.728 420.867 220.892 418.42 222.544C423.77 222.544 430.771 217.759 435.665 222.032C442.666 228.127 430.486 229.892 427.242 231.259C429.917 232.57 433.901 233.595 435.153 236.557C436.576 239.861 434.527 241.285 431.397 241.57C431.681 242.88 432.819 243.677 433.161 245.215C433.673 247.494 432.08 246.753 434.072 248.462C436.747 250.741 442.267 252.279 445.568 253.76C446.365 254.101 447.105 254.443 447.902 254.728C449.154 255.81 450.065 255.639 450.634 254.101C452.341 253.019 453.821 250.627 455.301 249.26C458.638 246.164 462.324 243.468 466.286 241.228C464.635 240.544 462.7 242.082 461.106 241.342C459.854 240.715 460.309 239.633 459.57 238.835C459.854 237.753 459.57 237.354 458.602 237.639C458.153 237.68 457.702 237.601 457.293 237.411C456.496 236.443 456.155 236.101 456.098 234.563C456.041 232.968 456.951 232.399 457.35 231.089C458.545 230.291 458.488 229.494 457.293 228.753C456.774 227.957 456.498 227.027 456.496 226.076C456.268 222.487 459.513 221.063 462.017 219.183C457.577 218.671 457.748 213.487 460.822 211.209C464.009 208.816 470.782 209.785 474.595 210.354C475.392 210.468 477.555 211.494 478.352 210.867C478.864 210.468 478.522 207.05 478.522 206.424C478.579 205.057 478.921 203.405 478.693 202.038C478.238 199.19 479.205 200.614 477.156 200.557C472.262 200.386 466.058 204.658 461.732 206.652C456.895 208.93 453.821 209.272 453.764 214.854C453.707 220.152 452.227 225.392 451.601 230.633C451.317 232.911 451.089 244.703 446.934 240.373C445.341 238.665 446.365 236.101 446.479 233.994C446.593 231.089 446.536 228.127 446.593 225.278ZM177.726 402.375C180.117 402.773 183.987 401.406 186.548 401.292C191.138 401.114 195.707 400.562 200.208 399.64C203.679 398.9 207.663 398.273 209.542 394.855C211.192 391.836 211.818 388.077 212.729 384.773C213.184 383.007 214.436 380.501 214.436 378.678C214.436 376.343 214.095 376.798 211.647 375.488C208.574 373.836 205.558 371.615 202.2 370.703C201.175 370.533 200.151 370.305 199.183 370.134C197.874 369.393 197.134 369.735 196.963 371.273C195.711 372.64 194.914 375.09 193.89 376.685C191.571 380.094 188.442 382.874 184.784 384.773C178.241 388.405 171.383 391.436 164.294 393.83C160.253 395.197 156.554 397.077 152.627 398.558C149.496 399.754 145.114 400.096 142.723 402.773C139.991 405.735 144.203 406.818 146.537 408.868C148.472 410.52 148.472 410.919 151.09 410.121C153.025 409.552 154.789 408.356 156.611 407.615C163.042 404.881 170.782 403.115 177.726 402.375V402.375ZM324.282 449.653L317.111 448.115C319.445 452.501 324.396 458.938 320.868 464.008C319.558 465.888 317.339 466.457 315.347 467.426C313 468.651 310.72 470.001 308.517 471.47C299.24 477.223 289.792 483.033 280.002 487.932C283.076 488.9 287.8 489.584 290.93 488.73C294.63 487.704 297.988 485.426 301.801 484.4C308.626 482.529 315.565 481.102 322.575 480.128C328.21 479.388 342.268 481.097 341.585 472.609C340.959 464.577 336.121 456.888 334.698 448.97C331.169 449.71 327.868 449.596 324.282 449.653V449.653ZM466.684 320.975C469.416 307.589 471.009 293.975 474.254 280.703C475.847 274.095 476.986 267.374 478.579 260.709C479.319 257.633 479.831 254.5 480.571 251.424C481.311 248.291 482.848 245.443 483.189 242.196C480.571 242.823 480.002 248.804 479.205 251.025C477.8 255.12 476.166 259.133 474.311 263.045C471.351 269.31 468.221 275.348 464.863 281.443C461.431 287.843 457.551 293.991 453.252 299.842C451.829 301.779 449.837 303.26 448.926 305.368C447.447 308.671 446.821 312.659 445.455 316.077C446.422 316.589 448.983 316.703 450.179 316.931C452.246 317.287 454.256 317.92 456.155 318.811C459.968 320.69 463.155 322.912 465.659 326.33C466.286 324.735 466.456 322.855 466.684 320.975V320.975ZM360.822 423.052C360.765 410.178 360.594 397.191 360.822 384.374C360.878 380.733 361.163 377.1 361.676 373.495C362.017 371.273 363.895 366.545 362.643 365.52C361.562 364.608 355.927 365.235 354.561 365.178C351.886 365.121 349.211 365.007 346.536 364.779C346.536 369.564 348.414 374.976 349.268 379.704C350.065 384.09 350.748 388.533 351.431 392.976C352.854 402.545 353.309 412.286 354.846 421.913C356.269 430.628 358.147 439.286 359.171 448.001C359.741 452.786 360.879 457.286 361.789 462.071C362.245 464.577 363.952 474.831 366.058 475.856C366.513 472.153 364.692 467.71 364.351 464.008C364.009 460.191 363.725 456.318 363.098 452.444C362.359 447.887 362.017 443.274 361.733 438.66C361.562 435.868 361.505 433.02 361.277 430.229C361.05 428.179 360.31 425.046 360.822 423.052V423.052ZM427.925 250.798C428.039 249.374 424.396 249.431 423.713 247.836C422.347 244.589 425.477 245.158 427.413 244.817C426.73 242.994 413.924 243.677 416.883 238.722C418.932 235.304 426.843 240.544 428.892 237.298C430.258 235.19 426.502 234.848 425.022 234.677C422.802 234.335 417.509 235.418 417.68 232.456C417.908 228.81 428.152 226.247 431.055 225.221C430.714 222.715 418.363 226.304 416.599 227.272C412.558 229.551 409.427 233.709 408.858 238.266C408.175 243.62 410.85 247.779 416.2 249.089C418.42 249.658 420.07 249.715 422.119 250.513C423.485 251.025 427.868 252.393 428.778 251.025C428.494 250.968 428.209 250.855 427.925 250.798V250.798ZM500.491 217.589C500.719 215.31 502.597 211.038 500.378 209.5C497.304 207.392 495.995 210.867 495.312 212.918C494.458 215.424 490.873 221.633 494.003 223.228C494.743 223.57 498.215 223.171 498.841 222.943C500.548 223.399 501.118 222.772 500.491 221.006V217.589ZM425.079 401.577C424.908 395.368 427.697 387.849 429.234 381.754C430.998 374.862 431.966 367.798 433.844 360.963C431.723 361.155 429.615 361.459 427.526 361.874C424.681 362.444 424.624 362.387 424.851 365.178C425.136 369.393 424.738 373.495 424.567 377.653C424.111 386.026 425.193 394.571 424.51 402.887C425.136 403.001 425.307 402.602 425.079 401.577V401.577ZM503.793 238.38C510.587 239.448 517.186 241.521 523.371 244.532C526.786 246.127 530.543 247.836 534.413 248.519C538.681 249.26 543.178 248.918 547.503 249.146C549.04 249.26 553.081 250 554.561 249.089C556.041 248.177 555.927 246.696 555.984 244.874C556.154 240.26 554.049 235.703 552.17 231.544C550.577 227.956 549.325 225.221 546.82 222.202C543.576 218.272 540.787 214 537.771 209.899C535.494 206.823 533.218 203.747 530.884 200.614C529.234 198.392 529.29 197.652 526.786 197.88C524.339 198.107 521.835 199.588 519.501 200.329C516.029 201.468 511.874 202.095 508.744 203.918C506.695 205.114 506.638 205.342 506.638 207.392C506.63 209.471 507.266 211.501 508.46 213.202C510.85 216.335 514.834 217.987 518.249 219.525C520.164 220.475 521.976 221.62 523.656 222.943C525.534 224.31 529.347 225.051 530.827 226.589C535.039 231.032 527.355 230.177 525.25 230.006C520.639 229.722 516.029 229.778 511.362 229.778C506.297 229.778 501.231 229.551 496.223 229.722C494.651 229.751 493.093 229.417 491.672 228.745C490.25 228.073 489.003 227.082 488.027 225.848C487.116 224.652 486.775 223.513 485.523 222.259C483.929 220.608 482.563 218.899 480.628 217.645C477.498 215.595 471.806 214.399 468.05 215.196C469.416 215.367 475.677 217.532 472.888 220.209C472.546 220.551 468.505 220.778 467.651 221.177C466.058 221.918 464.066 222.943 463.155 224.481C465.887 224.025 475.904 223.513 470.782 228.696C469.53 229.949 465.887 231.259 468.961 232.627C469.643 232.911 471.066 232.513 471.977 232.797C473.343 233.196 474.424 234.335 475.676 234.962C479.262 236.671 484.214 237.696 487.97 237.354C493.263 236.785 498.67 237.696 503.793 238.38V238.38ZM366.286 395.254C366.456 402.716 366.172 410.235 366.343 417.754C366.513 425.786 367.538 433.647 368.05 441.565C368.505 448.685 369.473 455.691 370.213 462.755C370.668 466.856 371.18 470.729 371.863 474.774C372.489 478.59 372.603 481.894 368.107 482.919C359.456 484.856 358.09 472.381 356.439 467.141C353.935 459.28 352.342 451.077 351.089 442.932C348.813 427.78 345.739 412.856 344.544 397.647C343.804 388.248 342.723 378.963 342.154 369.564C342.04 367.741 342.495 364.893 340.902 364.096C339.934 363.583 337.259 363.583 336.007 363.241C332.592 362.273 329.462 360.792 326.104 359.254C328.494 371.615 329.234 383.919 330.998 396.393C331.966 403.001 333.73 409.894 335.324 416.387C336.918 423.166 337.316 430.4 339.137 437.008C339.934 439.913 340.674 441.109 339.479 444.071C337.999 447.717 338.966 448.628 340.845 452.217C344.203 458.824 346.821 466.685 346.195 474.147C345.739 480.242 341.129 483.432 335.438 485.084C328.323 487.135 320.811 486.907 313.639 489.242C307.379 491.293 301.004 492.774 294.971 495.451C292.524 496.533 290.19 497.844 287.458 498.014C283.702 498.299 281.198 496.135 277.669 495.679C275.449 495.394 272.262 496.476 270.953 494.141C269.929 492.318 271.067 488.331 272.376 486.85C275.905 482.692 283.019 479.103 287.8 476.654C293.36 473.745 298.688 470.413 303.736 466.685C306.809 464.464 309.997 462.356 313.07 460.134C315.119 458.653 315.916 458.653 315.688 456.318C315.517 454.438 314.664 452.672 314.55 450.793C314.436 449.312 314.948 447.375 314.265 446.406C313.753 445.723 311.875 445.21 311.135 444.698C308.403 442.761 307.777 440.368 306.525 437.406C303.736 430.742 300.492 424.248 297.76 417.527C291.955 403.058 288.369 387.849 283.531 373.096C278.58 358.001 274.197 342.222 271.465 326.558C267.823 327.64 264.408 332.596 261.505 334.988C257.578 338.292 253.594 341.425 249.724 344.786C243.406 350.311 237.089 355.665 231.852 362.273C229.348 365.463 227.299 368.881 225.023 372.241C223.713 374.178 222.518 376.343 221.095 378.222C220.868 378.507 220.868 379.134 220.64 379.362C220.128 379.931 219.046 379.191 218.705 379.533C216.542 381.754 216.599 388.134 215.916 391.096C215.005 395.14 213.981 399.868 210.794 402.659C205.899 406.988 196.85 407.672 190.646 407.9C182.678 408.185 174.937 410.406 167.424 412.799C163.896 413.938 160.481 415.191 156.952 416.273C154.903 416.9 152.57 418.153 150.407 417.868C147.789 417.583 145.74 415.362 143.805 413.71C140.731 411.09 137.886 408.526 137.999 404.197C138.113 399.64 140.561 396.223 144.488 393.944C152.001 389.558 160.424 386.767 168.506 383.748C171.495 382.617 174.405 381.285 177.214 379.76C181.426 377.539 186.206 375.773 189.963 372.868C191.044 372.014 195.085 369.393 195.427 368.026C195.484 367.855 194.459 365.805 194.459 365.463C194.459 364.608 194.971 363.697 195.256 362.957C197.191 358.4 200.435 354.013 202.939 349.741C207.493 341.88 212.046 333.963 217.339 326.558C227.868 311.804 239.65 297.336 252.399 284.462C258.602 278.197 264.009 271.076 270.27 264.867C272.683 262.453 275.446 260.417 278.466 258.829C281.881 257.063 285.751 256.722 289.678 256.152C299.183 254.842 307.151 257.633 316.087 260.139C324.567 262.475 332.99 264.412 341.528 266.861C350.862 269.538 360.082 272.045 369.416 274.95C374.368 276.488 379.49 277.456 384.499 278.937C386.889 279.678 395.995 284.121 397.987 282.64C391.67 279.678 385.182 276.943 378.409 275.178C376.417 274.665 375.164 275.234 375.221 272.956C375.278 271.703 376.644 270.051 377.157 268.969C378.352 266.519 379.718 264.127 380.913 261.62C376.644 262.817 365.091 267.032 361.846 262.703C358.488 258.146 361.277 249.203 363.383 244.703C368.904 233.025 378.295 223.285 387.458 214.513C389.45 212.633 393.719 210.126 394.743 207.734C395.085 206.994 394.345 205.911 395.085 204.943C395.54 204.373 397.248 203.975 397.931 203.348C400.435 201.126 402.484 196.399 404.191 193.493C406.012 190.417 407.663 187.114 409.94 184.379C413.696 179.879 417.566 175.095 423.656 174.069C426.616 173.557 429.803 173.841 432.649 172.816C436.121 171.563 439.365 169.626 442.836 168.316C441.983 166.55 441.243 163.702 439.592 163.531C437.999 163.36 435.608 164.727 433.787 164.727C431.219 164.661 428.664 164.337 426.16 163.759C423.258 163.189 422.347 163.303 421.266 160.17C420.184 156.867 420.469 153.107 420.469 149.689C420.469 148.037 420.81 145.987 420.64 144.335C420.412 141.885 419.957 141.772 418.022 140.234C415.631 138.297 412.672 135.677 415.574 132.316C417.168 130.493 420.469 131.917 421.835 129.923C423.258 127.93 423.201 122.86 423.656 120.525C419.217 122.689 420.867 114.544 420.867 112.607C420.867 109.759 418.932 104.632 421.721 102.24C422.973 101.157 423.941 102.069 425.42 101.442C427.071 100.702 428.152 98.8219 429.917 98.0814C433.446 96.6004 437.031 98.3662 440.674 98.0814C444.829 97.7396 448.926 97.113 453.081 97.7966C455.073 98.1384 455.87 98.8789 457.578 99.7333C459.171 100.531 460.822 100.759 462.586 101.271C464.123 101.727 465.489 101.955 466.57 103.322C467.424 104.404 467.082 106.227 467.879 107.138C468.733 108.05 470.326 107.936 471.351 109.018C472.319 110.044 472.888 111.752 473.343 113.063C474.026 114.828 474.083 115.455 475.278 116.879C476.303 118.075 477.782 119.101 478.636 120.468C480.628 123.714 480.685 128.499 480.059 132.145C479.831 133.398 478.01 136.645 478.295 137.727C478.579 138.753 480.287 138.468 481.027 139.094C481.71 139.664 482.279 142.113 482.791 142.284C483.929 142.626 485.352 140.347 486.206 140.006C487.686 139.436 488.312 138.81 489.165 141.031C489.791 142.683 488.938 144.904 488.482 146.442C487.913 148.436 487.287 150.829 485.75 152.31C483.986 154.075 482.563 153.107 480.571 154.075C477.612 155.499 478.465 159.943 474.88 161.253C471.408 162.449 467.595 158.632 464.976 156.867C465.546 161.139 467.538 165.24 466.57 169.626C474.538 166.493 482.392 162.107 491.044 161.082C495.483 160.569 499.922 160 504.077 161.822C508.972 163.987 511.931 168.715 515.232 172.645C521.436 180.05 527.811 187.228 533.787 194.917C539.251 201.924 543.861 210.069 549.894 216.62C555.984 223.285 560.594 234.108 559.911 243.279C559.854 244.133 559.228 246.013 559.285 246.924C559.342 247.608 559.968 248.462 559.968 249.032C559.911 250.912 559.342 251.994 557.52 253.019C554.447 254.842 549.837 255.696 546.365 256.152C541.414 256.779 536.404 256.779 531.453 256.152C526.672 255.525 522.461 252.848 518.078 251.196C514.226 249.874 510.29 248.808 506.297 248.006C504.077 247.494 501.573 246.127 500.207 247.437C498.955 248.69 498.67 254.956 498.386 256.665C495.198 274.836 491.385 292.38 488.027 310.494C484.214 331.001 481.596 351.45 478.921 372.128C476.53 390.925 475.733 409.894 475.164 428.691C474.88 437.634 474.88 446.52 474.937 455.463C474.994 460.476 477.498 477.223 470.042 477.85C465.659 478.248 462.188 471.983 460.992 468.565C459.27 463.373 458.274 457.967 458.033 452.501C457.464 441.565 456.724 430.628 456.268 419.748C455.813 407.9 456.382 395.881 457.35 384.09C458.317 372.241 460.822 360.507 461.562 348.602C459.285 351.849 458.545 352.475 454.789 353.843C450.862 355.324 447.048 357.089 443.064 358.457C441.698 358.912 439.592 359.197 438.454 359.995C436.405 361.419 437.771 359.824 437.088 362.558C436.405 365.52 436.234 369.052 436.064 372.071C435.21 386.254 431.283 400.324 429.461 414.451C429.006 417.868 429.632 432.337 423.77 427.78C419.274 424.248 419.331 413.254 418.705 408.071C417.851 401.178 418.306 394.115 418.477 387.166C418.648 379.248 418.761 370.988 420.64 363.298C417.282 362.729 412.615 364.267 409.2 364.552C406.24 364.779 403.337 364.95 400.435 365.064C393.491 365.463 386.32 365.748 379.262 365.634C377.953 365.634 369.587 364.438 368.505 365.406C368.164 365.691 368.05 369.963 367.993 370.476C367.766 372.412 367.424 374.349 367.139 376.343C366.798 382.438 366.058 389.102 366.286 395.254V395.254Z" fill="#182234"/>
<path fill-rule="evenodd" clip-rule="evenodd" d="M491.21 454.208C496.503 456.258 502.138 457.056 507.488 458.936C512.269 460.644 516.708 462.923 521.432 464.632C521.717 462.467 521.83 458.765 521.034 456.657C519.895 453.752 516.879 453.638 513.919 452.613C506.691 450.106 499.121 449.537 491.95 446.575C493.259 448.967 492.69 452.1 491.21 454.208V454.208ZM582.843 446.575C571.403 446.917 560.419 449.594 549.15 451.246C543.629 452.043 538.165 452.784 532.644 453.524C530.538 453.809 526.668 453.467 525.132 455.29C523.879 456.828 525.245 462.012 524.676 464.233C527.01 464.404 531.108 462.239 533.612 461.898C537.539 461.328 541.409 460.588 545.336 460.303C551.597 459.904 557.744 459.562 564.005 458.879C570.379 458.195 576.526 456.828 582.957 456.372C586.088 456.144 587.34 456.714 587.51 453.41C587.567 452.1 587.738 449.993 587.397 448.682C587.966 447.144 587.454 446.347 585.86 446.404C584.852 446.292 583.832 446.349 582.843 446.575V446.575ZM560.703 436.037C563.777 435.752 566.907 435.353 570.037 435.125C570.664 435.068 573.851 435.296 574.363 434.67C575.103 433.815 574.306 430.796 574.135 429.885C573.68 426.695 573.168 424.815 569.696 424.815C566.736 424.815 563.72 425.442 560.817 425.727C547.556 427.037 534.352 427.606 521.204 430.056C522.001 433.473 522.912 437.005 521.944 440.48C528.262 440.822 535.149 439.568 541.295 438.372C547.71 437.191 554.192 436.411 560.703 436.037ZM539.645 403.967C534.921 403.967 529.912 406.075 525.188 405.619C525.132 406.473 526.611 405.79 527.01 406.587C527.92 406.587 528.205 406.872 527.92 407.442C527.931 407.529 527.922 407.618 527.895 407.702C527.868 407.785 527.824 407.862 527.764 407.927C527.705 407.992 527.632 408.043 527.551 408.078C527.47 408.112 527.382 408.128 527.294 408.125C527.067 408.125 526.896 408.182 526.668 408.182C525.758 408.239 525.587 408.809 526.213 410.005C525.928 411.486 526.327 413.366 526.384 414.847C534.807 413.707 542.946 412.511 551.426 411.999C555.41 411.771 559.451 411.771 563.435 411.429C567.818 411.087 572.656 411.828 576.924 411.03C579.201 410.575 578.973 410.632 578.802 407.612C578.689 405.79 578.746 403.625 577.266 402.315C574.818 400.093 569.184 401.404 566.224 401.461C557.32 401.733 548.443 402.57 539.645 403.967V403.967ZM544.54 446.689C557.232 445.549 569.867 442.986 582.673 442.986C581.762 442.075 579.827 441.847 578.689 441.334C577.38 440.765 576.184 439.568 574.932 439.113C572.428 438.144 569.867 439.511 567.249 440.081C561.045 441.505 554.614 441.562 548.41 442.986C541.95 444.508 535.415 445.687 528.831 446.518C525.701 446.86 522.343 447.6 519.269 446.746C519.042 446.575 518.757 446.404 518.529 446.233C518.245 445.094 517.505 444.752 516.253 445.322C514.716 445.037 512.724 445.436 511.13 445.436C511.073 446.062 516.879 448.056 517.96 448.511C520.635 449.708 522.457 450.562 525.302 450.049C531.734 448.853 538.051 447.486 544.54 446.689V446.689ZM499.804 409.492C500.317 411.429 502.366 410.575 504.187 410.745C506.577 411.03 508.968 411.885 511.358 412.511C515.57 413.65 519.838 414.79 524.05 415.986C523.879 414.277 524.278 410.404 523.367 408.866C522.4 407.271 517.96 406.587 515.854 406.075C510.618 404.878 504.984 405.562 499.634 405.79C499.691 407.043 499.747 408.239 499.804 409.492V409.492ZM550.345 421.625C555.353 421.226 560.362 420.885 565.314 420.714C571.062 420.486 566.85 419.575 566.736 416.1C559.224 417.296 551.597 417.524 544.141 418.549C537.937 419.404 530.538 421.625 524.164 420.429C521.147 419.859 518.131 419.632 514.944 419.347C511.927 419.062 509.138 417.638 506.122 417.296C502.821 416.897 499.406 418.777 496.105 419.29C494.682 419.518 494.397 420.429 493.714 418.777C493.031 417.011 494.967 415.587 495.763 414.562C496.674 413.366 496.276 415.302 496.788 413.423C496.902 412.91 496.56 411.543 496.503 410.973C496.333 409.492 495.877 407.954 495.82 406.473C495.763 405.163 495.763 403.112 497.186 402.315C498.097 401.859 498.723 402.543 499.463 402.372C505.828 401.309 512.323 401.27 518.7 402.258C525.302 403.34 531.051 400.435 537.539 399.296C545.223 397.929 552.963 397.701 560.647 397.131C567.249 396.619 579.315 394.055 581.819 402.486C582.559 404.878 583.583 411.486 581.648 413.48C579.144 416.157 573.282 415.302 570.037 415.986C570.55 417.353 571.973 418.321 571.46 419.973C576.014 420.201 576.81 424.473 577.55 428.518C578.29 432.676 576.867 434.328 580.794 436.492C586.315 439.511 592.177 442.587 592.121 449.765C592.064 453.353 591.665 458.822 587.966 460.701C584.323 462.524 578.404 462.239 574.42 462.866C566.68 464.176 558.882 465.657 551.085 466.455C542.775 467.252 534.352 467.936 526.042 468.334C521.489 468.562 517.619 469.246 513.236 467.708C508.911 466.227 504.756 465.088 500.317 464.005C495.934 462.923 482.502 461.442 486.429 453.923C487.055 452.727 489.218 451.758 489.56 450.619C490.129 448.796 488.251 447.372 488.307 445.72C488.478 442.701 491.836 442.303 494.227 442.303C490.186 439.796 495.593 436.777 495.536 434.613C495.479 430.853 490.755 428.404 490.527 425.214C489.901 417.524 514.318 425.556 518.074 427.208C515.171 431.48 501.739 427.777 497.755 427.151C498.362 428.492 498.783 429.91 499.008 431.366C499.121 432.562 498.666 433.929 499.121 435.125C499.804 437.005 499.747 436.663 502.081 437.176C503.788 437.575 505.496 438.03 507.26 438.429C509.935 439.056 514.09 440.708 516.708 440.651C518.985 440.594 518.529 441.277 518.985 438.714C519.212 437.347 518.814 435.866 518.586 434.556C518.131 431.708 517.391 429.087 519.838 427.037C522.172 425.1 527.124 424.189 530.026 423.505C536.401 421.91 543.8 421.511 550.345 421.625" fill="#182234"/>
<path fill-rule="evenodd" clip-rule="evenodd" d="M580.799 373.438C573.856 372.338 566.816 371.975 559.797 372.356C560.196 374.122 560.537 375.83 560.935 377.596C567.481 375.887 574.14 374.862 580.799 373.438ZM524.339 386.938C521.55 386.71 523.485 387.963 524.168 389.786C525.022 392.008 524.851 394.856 525.022 397.191C533.161 394.058 542.666 392.236 551.317 391.21C555.415 390.698 559.57 390.584 563.724 390.356C564.92 390.299 569.359 390.812 570.27 389.957C570.953 389.331 570.44 385.97 569.814 385.229C566.342 381.185 552.967 384.66 548.13 385.058C540.105 385.685 532.307 387.109 524.339 386.938V386.938ZM535.893 376.115C543.121 376.799 550.065 376.742 557.293 377.824C556.724 373.21 557.407 372.071 552.171 371.843C547.56 371.615 542.893 371.444 538.283 371.444C527.925 371.444 517.566 371.273 507.151 371.273V375.944C516.826 374.919 526.274 376.685 535.893 376.115ZM501.232 393.261C505.785 393.261 510.11 394.97 514.663 395.425C517.395 395.71 516.542 396.052 518.42 397.419C521.379 399.527 522.233 398.388 521.835 395.539C520.583 385.742 508.175 387.906 501.061 387.394C501.516 389.729 500.435 391.723 498.841 393.318H501.232V393.261ZM550.406 380.672C543.861 380.786 537.316 381.128 530.827 381.014C527.925 380.957 524.168 380.387 521.323 380.9C519.217 381.242 517.509 382.324 515.176 382.723C518.534 384.546 520.241 383.292 523.77 382.894C527.299 382.495 530.884 382.495 534.47 382.267C540.275 381.925 546.536 380.501 552.284 380.9C552.341 380.046 551.715 379.989 550.406 380.672V380.672ZM498.5 401.862C495.483 401.862 499.638 398.444 500.15 398.103C496.849 398.103 495.995 396.109 496.963 392.919C497.874 389.9 498.557 390.812 496.28 388.305C494.572 386.425 494.288 385.001 496.337 382.894C498.386 380.729 502.597 381.356 504.419 379.59C507.549 376.571 503.508 370.533 507.834 368.197C510.736 366.602 515.46 366.83 518.648 366.489C521.787 366.185 524.941 366.052 528.095 366.09C534.925 365.976 541.983 367.115 548.813 367.799C551.317 368.027 554.049 369.052 556.496 369.052C559 369.052 561.618 368.482 564.18 368.539C567.139 368.596 570.042 368.368 573.115 368.881C575.449 369.28 580.97 369.451 582.791 371.216C588.824 377.084 574.538 379.761 572.091 380.387C574.595 383.122 574.481 386.767 574.083 390.185C575.278 390.185 577.327 389.672 577.953 390.982C578.693 392.634 575.904 393.09 575.221 393.261C571.351 394.4 566.855 394.058 562.927 394.457C555.016 395.255 547.162 395.71 539.308 397.248C535.494 397.989 531.681 398.9 527.868 399.584C527.185 399.698 526.559 399.812 525.876 399.869C524.851 399.755 524.51 400.438 524.908 401.805C523.827 402.318 519.9 401.008 518.648 400.837C511.647 399.755 505.443 400.21 498.5 401.862V401.862Z" fill="#182234"/>
<path fill-rule="evenodd" clip-rule="evenodd" d="M639.762 469.873C635.265 473.404 631.054 476.765 626.159 479.841C629.631 479.784 641.128 474.259 639.762 469.873ZM637.997 464.062C635.55 461.955 633.103 462.183 630.029 461.499C627.24 460.929 624.508 459.904 621.72 459.221C619.5 458.708 617.337 457.967 615.174 457.455C612.101 456.771 611.759 457.512 608.914 459.164C598.84 464.917 587.514 468.904 576.927 473.575C580.058 476.309 587.058 476.423 590.985 477.335C593.805 477.997 596.58 478.834 599.295 479.841C601.856 480.809 605.897 482.974 608.629 483.031C610.906 483.088 612.727 480.866 614.662 479.67C617.223 478.075 619.784 476.537 622.346 474.999C627.696 471.752 632.818 467.765 637.997 464.062V464.062ZM592.408 487.417C591.27 486.278 587.741 486.335 586.261 485.993C583.359 485.309 580.57 484.626 577.61 484.113C572.886 483.316 565.431 482.917 564.918 476.765C564.463 471.638 570.667 470.442 574.252 468.733C579.659 466.113 585.18 463.721 590.758 461.442C595.994 459.278 601.23 457.455 606.58 455.632C607.605 455.29 608.458 455.347 609.312 454.493C609.995 453.866 609.767 452.556 610.507 451.872C612.158 450.334 614.378 451.132 616.37 451.531C621.024 452.408 625.594 453.685 630.029 455.347C634.525 457.113 638.623 457.455 639.705 462.581C642.038 461.499 643.746 461.328 643.461 464.518C643.404 465.429 642.721 466.455 642.55 467.423C642.323 468.847 642.721 470.328 642.494 471.752C641.64 476.936 634.639 480.809 630.314 482.86C624.964 485.366 618.077 489.069 612.101 489.581C605.67 490.151 598.726 487.645 592.408 487.417" fill="#182234"/>
<path fill-rule="evenodd" clip-rule="evenodd" d="M511.414 401.179C509.536 401.179 507.601 401.179 505.723 401.236C507.604 400.903 509.527 400.884 511.414 401.179" fill="#182234"/>
<path fill-rule="evenodd" clip-rule="evenodd" d="M400.438 200.329C399.869 201.298 399.3 202.209 398.73 203.177C398.901 201.924 399.357 200.899 400.438 200.329Z" fill="#182234"/>
<path fill-rule="evenodd" clip-rule="evenodd" d="M511.414 428.407C512.552 428.407 513.691 428.407 514.829 428.464C513.691 428.464 512.552 428.464 511.414 428.407Z" fill="#182234"/>
<path fill-rule="evenodd" clip-rule="evenodd" d="M537.597 366.489C536.288 366.432 534.922 366.318 533.613 366.261C534.922 366.318 536.231 366.375 537.597 366.489Z" fill="#182234"/>
<path fill-rule="evenodd" clip-rule="evenodd" d="M514.829 401.233C513.691 401.233 512.552 401.233 511.414 401.176C512.536 400.881 513.717 400.901 514.829 401.233" fill="#182234"/>
<path fill-rule="evenodd" clip-rule="evenodd" d="M560.137 239.633C560.08 238.494 560.08 237.355 560.023 236.216C560.08 237.355 560.08 238.494 560.137 239.633Z" fill="#182234"/>
<path fill-rule="evenodd" clip-rule="evenodd" d="M366.569 411.66C366.569 410.691 366.512 409.78 366.512 408.812C366.569 409.723 366.569 410.691 366.569 411.66Z" fill="#182234"/>
<path fill-rule="evenodd" clip-rule="evenodd" d="M499.467 160.626C498.499 160.683 497.589 160.74 496.621 160.854C497.532 160.74 498.499 160.683 499.467 160.626Z" fill="#182234"/>
<path fill-rule="evenodd" clip-rule="evenodd" d="M475.334 439.002C475.334 438.261 475.277 437.464 475.277 436.723C475.277 437.464 475.277 438.204 475.334 439.002Z" fill="#182234"/>
<path fill-rule="evenodd" clip-rule="evenodd" d="M476.412 409.951C476.412 409.21 476.355 408.413 476.355 407.672C476.412 408.413 476.412 409.153 476.412 409.951Z" fill="#182234"/>
<path fill-rule="evenodd" clip-rule="evenodd" d="M457.008 423.052C457.008 423.793 457.065 424.59 457.065 425.331C457.065 424.533 457.065 423.793 457.008 423.052Z" fill="#182234"/>
<path fill-rule="evenodd" clip-rule="evenodd" d="M567.195 394.286C567.764 394.286 568.334 394.229 568.903 394.229C568.334 394.229 567.764 394.286 567.195 394.286Z" fill="#182234"/>
<path fill-rule="evenodd" clip-rule="evenodd" d="M458.145 441.28C458.201 442.021 458.201 442.818 458.258 443.559C458.201 442.761 458.201 442.021 458.145 441.28Z" fill="#182234"/>
<path fill-rule="evenodd" clip-rule="evenodd" d="M519.161 437.293C519.104 438.033 519.104 438.831 519.047 439.571C519.047 438.774 519.104 438.033 519.161 437.293Z" fill="#182234"/>
<path fill-rule="evenodd" clip-rule="evenodd" d="M453.535 97.8539C452.738 97.74 451.941 97.6261 451.145 97.5691C451.941 97.74 452.795 97.0565 453.535 97.8539Z" fill="#182234"/>
<path fill-rule="evenodd" clip-rule="evenodd" d="M418.932 390.014C418.932 390.754 418.875 391.552 418.875 392.292C418.932 391.495 418.932 390.754 418.932 390.014Z" fill="#182234"/>
<path fill-rule="evenodd" clip-rule="evenodd" d="M370.04 459.508C369.983 458.768 369.983 457.97 369.926 457.23C369.926 457.97 369.983 458.711 370.04 459.508Z" fill="#182234"/>
<path fill-rule="evenodd" clip-rule="evenodd" d="M554.105 395.425C554.675 395.425 555.244 395.425 555.813 395.369C555.244 395.425 554.675 395.425 554.105 395.425Z" fill="#182234"/>
<path fill-rule="evenodd" clip-rule="evenodd" d="M490.757 423.622C490.757 424.362 490.7 425.16 490.7 425.9C490.554 425.537 490.483 425.147 490.493 424.755C490.503 424.364 490.593 423.978 490.757 423.622Z" fill="#182234"/>
<path fill-rule="evenodd" clip-rule="evenodd" d="M592.238 487.648C592.807 487.648 593.377 487.705 593.946 487.705C593.377 487.705 592.807 487.705 592.238 487.648Z" fill="#182234"/>
<path fill-rule="evenodd" clip-rule="evenodd" d="M335.838 420.774C335.838 420.204 335.781 419.635 335.781 419.065C335.838 419.635 335.838 420.204 335.838 420.774Z" fill="#182234"/>
<path fill-rule="evenodd" clip-rule="evenodd" d="M568.903 420.315C568.391 420.828 567.764 420.543 567.195 420.543C567.764 420.486 568.334 420.372 568.903 420.315Z" fill="#182234"/>
<path fill-rule="evenodd" clip-rule="evenodd" d="M501.175 402.087C500.823 402.27 500.433 402.365 500.037 402.365C499.641 402.365 499.25 402.27 498.898 402.087H501.175Z" fill="#182234"/>
<path fill-rule="evenodd" clip-rule="evenodd" d="M518.816 401.802C518.076 401.745 517.279 401.688 516.539 401.574C517.279 401.631 518.019 401.688 518.816 401.802Z" fill="#182234"/>
<path fill-rule="evenodd" clip-rule="evenodd" d="M344.94 399.128C344.94 399.698 344.883 400.267 344.883 400.837C344.94 400.267 344.94 399.698 344.94 399.128Z" fill="#182234"/>
<path fill-rule="evenodd" clip-rule="evenodd" d="M475.789 429.888C475.846 429.318 475.846 428.749 475.903 428.179C475.846 428.749 475.846 429.318 475.789 429.888Z" fill="#182234"/>
<path fill-rule="evenodd" clip-rule="evenodd" d="M554.105 397.021C553.365 397.077 552.568 397.134 551.828 397.191C552.568 397.134 553.308 397.077 554.105 397.021Z" fill="#182234"/>
<path fill-rule="evenodd" clip-rule="evenodd" d="M366.569 395.141C366.569 394.571 366.512 394.002 366.512 393.432C366.569 394.002 366.569 394.571 366.569 395.141Z" fill="#182234"/>
<path fill-rule="evenodd" clip-rule="evenodd" d="M461.676 351.28C461.619 351.849 461.562 352.419 461.562 352.989C461.562 352.419 461.619 351.849 461.676 351.28Z" fill="#182234"/>
<path fill-rule="evenodd" clip-rule="evenodd" d="M565.488 368.482C565.136 368.665 564.745 368.76 564.349 368.76C563.953 368.76 563.563 368.665 563.211 368.482H565.488Z" fill="#182234"/>
<path fill-rule="evenodd" clip-rule="evenodd" d="M475.336 447.546C475.28 446.976 475.28 446.407 475.223 445.837C475.223 446.407 475.28 446.976 475.336 447.546Z" fill="#182234"/>
<path fill-rule="evenodd" clip-rule="evenodd" d="M475.28 452.103C475.28 451.534 475.223 450.964 475.223 450.394C475.28 450.964 475.28 451.534 475.28 452.103Z" fill="#182234"/>
<path fill-rule="evenodd" clip-rule="evenodd" d="M529.629 467.768C530.009 467.777 530.39 467.758 530.767 467.711C530.39 467.757 530.009 467.776 529.629 467.768" fill="#182234"/>
<path fill-rule="evenodd" clip-rule="evenodd" d="M346.129 472.61C346.073 472.04 346.073 471.47 346.016 470.901C346.073 471.47 346.073 472.04 346.129 472.61Z" fill="#182234"/>
<path fill-rule="evenodd" clip-rule="evenodd" d="M469.305 477.395H470.443C470.066 477.452 469.682 477.452 469.305 477.395Z" fill="#182234"/>
<path fill-rule="evenodd" clip-rule="evenodd" d="M551.823 368.14C551.084 368.083 550.287 368.026 549.547 367.969C550.287 368.026 551.027 368.083 551.823 368.14Z" fill="#182234"/>
<path fill-rule="evenodd" clip-rule="evenodd" d="M555.813 368.767L554.105 368.539L555.813 368.767Z" fill="#182234"/>
<path fill-rule="evenodd" clip-rule="evenodd" d="M469.531 428.749C469.588 427.04 469.588 425.331 469.645 423.622C469.588 425.331 469.588 427.04 469.531 428.749Z" fill="#182234"/>
<path fill-rule="evenodd" clip-rule="evenodd" d="M425.133 366.09C425.133 367.4 425.19 368.767 425.19 370.077C425.19 368.71 425.19 367.4 425.133 366.09Z" fill="#182234"/>
<path fill-rule="evenodd" clip-rule="evenodd" d="M327.01 449.483C326.042 449.483 325.132 449.483 324.164 449.54C325.132 449.54 326.042 449.54 327.01 449.483Z" fill="#182234"/>
<path fill-rule="evenodd" clip-rule="evenodd" d="M404.99 336.185C404.023 336.185 403.112 336.128 402.145 336.128C403.112 336.185 404.023 336.185 404.99 336.185Z" fill="#182234"/>
<path fill-rule="evenodd" clip-rule="evenodd" d="M393.034 335.558C392.295 335.558 391.498 335.558 390.758 335.615C391.498 335.615 392.238 335.615 393.034 335.558Z" fill="#182234"/>
<path fill-rule="evenodd" clip-rule="evenodd" d="M434.012 158.519C434.979 158.462 435.89 158.405 436.857 158.348C435.89 158.405 434.922 158.462 434.012 158.519Z" fill="#182234"/>
<path fill-rule="evenodd" clip-rule="evenodd" d="M446.762 225.393C446.819 224.424 446.819 223.513 446.876 222.545C446.819 223.456 446.762 224.424 446.762 225.393Z" fill="#182234"/>
<path fill-rule="evenodd" clip-rule="evenodd" d="M362.305 357.147C363.045 357.204 363.841 357.261 364.581 357.318C363.784 357.261 363.045 357.204 362.305 357.147Z" fill="#182234"/>
<path fill-rule="evenodd" clip-rule="evenodd" d="M360.824 386.027C360.824 385.286 360.824 384.489 360.881 383.748C360.881 384.489 360.881 385.229 360.824 386.027Z" fill="#182234"/>
<path fill-rule="evenodd" clip-rule="evenodd" d="M426.043 355.666C426.783 355.609 427.58 355.495 428.32 355.438C427.523 355.495 426.783 355.552 426.043 355.666Z" fill="#182234"/>
<path fill-rule="evenodd" clip-rule="evenodd" d="M478.07 342.166C478.127 341.425 478.184 340.628 478.184 339.887C478.127 340.628 478.07 341.368 478.07 342.166Z" fill="#182234"/>
<path fill-rule="evenodd" clip-rule="evenodd" d="M488.086 237.127C488.826 237.07 489.623 237.013 490.363 236.956C489.566 237.013 488.826 237.07 488.086 237.127Z" fill="#182234"/>
<path fill-rule="evenodd" clip-rule="evenodd" d="M360.936 428.749C360.879 428.179 360.879 427.609 360.879 427.04C360.879 427.609 360.879 428.179 360.936 428.749Z" fill="#182234"/>
<path fill-rule="evenodd" clip-rule="evenodd" d="M424.742 399.698C425.994 402.773 425.311 400.609 425.311 401.292C424.23 401.463 424.059 400.894 424.742 399.698Z" fill="#182234"/>
<path fill-rule="evenodd" clip-rule="evenodd" d="M372.547 333.906C371.978 333.906 371.409 333.849 370.84 333.849C371.409 333.906 371.978 333.906 372.547 333.906Z" fill="#182234"/>
<path fill-rule="evenodd" clip-rule="evenodd" d="M488.887 276.089C488.944 275.349 488.944 274.551 489.001 273.811C488.944 274.551 488.887 275.292 488.887 276.089Z" fill="#182234"/>
<path fill-rule="evenodd" clip-rule="evenodd" d="M360.824 405.963C360.881 405.394 360.881 404.824 360.938 404.255C360.881 404.824 360.824 405.394 360.824 405.963Z" fill="#182234"/>
<path fill-rule="evenodd" clip-rule="evenodd" d="M479.152 331.343L479.323 329.634L479.152 331.343Z" fill="#182234"/>
<path fill-rule="evenodd" clip-rule="evenodd" d="M353.363 407.672L353.534 409.381L353.363 407.672Z" fill="#182234"/>
<path fill-rule="evenodd" clip-rule="evenodd" d="M352.223 403.115L352.393 404.824L352.223 403.115Z" fill="#182234"/>
<path fill-rule="evenodd" clip-rule="evenodd" d="M466.113 325.077C466.17 324.507 466.17 323.938 466.227 323.368C466.17 323.938 466.113 324.507 466.113 325.077Z" fill="#182234"/>
<path fill-rule="evenodd" clip-rule="evenodd" d="M175.617 402.318C176.357 402.261 177.154 402.204 177.894 402.147C177.097 402.204 176.357 402.261 175.617 402.318Z" fill="#182234"/>
<path fill-rule="evenodd" clip-rule="evenodd" d="M461.049 416.217C461.049 416.786 460.992 417.356 460.992 417.926C461.049 417.356 461.049 416.786 461.049 416.217Z" fill="#182234"/>
<path fill-rule="evenodd" clip-rule="evenodd" d="M470.098 417.926C470.155 417.356 470.155 416.786 470.211 416.217C470.155 416.786 470.098 417.356 470.098 417.926Z" fill="#182234"/>
<path fill-rule="evenodd" clip-rule="evenodd" d="M466.625 322.798L466.796 321.089L466.625 322.798Z" fill="#182234"/>
<path fill-rule="evenodd" clip-rule="evenodd" d="M180.172 401.802C180.912 401.745 181.709 401.631 182.448 401.574C181.652 401.631 180.912 401.688 180.172 401.802Z" fill="#182234"/>
<path fill-rule="evenodd" clip-rule="evenodd" d="M471.354 399.698C471.217 399.429 471.156 399.128 471.176 398.828C471.196 398.527 471.297 398.237 471.468 397.989C471.411 398.558 471.354 399.128 471.354 399.698Z" fill="#182234"/>
<path fill-rule="evenodd" clip-rule="evenodd" d="M461.619 388.875C461.619 389.445 461.562 390.014 461.562 390.584C461.619 390.014 461.619 389.445 461.619 388.875Z" fill="#182234"/>
<path fill-rule="evenodd" clip-rule="evenodd" d="M462.137 445.268C462.194 445.837 462.194 446.407 462.25 446.977C462.194 446.407 462.137 445.837 462.137 445.268Z" fill="#182234"/>
<path fill-rule="evenodd" clip-rule="evenodd" d="M504.02 238.095C504.589 238.152 505.158 238.266 505.727 238.323C505.158 238.209 504.589 238.152 504.02 238.095Z" fill="#182234"/>
<path fill-rule="evenodd" clip-rule="evenodd" d="M501.746 238.095C502.486 238.152 503.34 237.753 504.023 238.323L501.746 238.095Z" fill="#182234"/>
<path fill-rule="evenodd" clip-rule="evenodd" d="M421.492 237.526L423.769 237.697C422.972 237.64 422.232 237.583 421.492 237.526Z" fill="#182234"/>
<path fill-rule="evenodd" clip-rule="evenodd" d="M383.934 358.229H386.21C385.863 358.425 385.471 358.528 385.072 358.528C384.673 358.528 384.281 358.425 383.934 358.229" fill="#182234"/>
<path fill-rule="evenodd" clip-rule="evenodd" d="M363.219 453.812C363.162 453.242 363.105 452.673 363.105 452.103C363.105 452.673 363.162 453.242 363.219 453.812Z" fill="#182234"/>
<path fill-rule="evenodd" clip-rule="evenodd" d="M398.156 358.457C398.896 358.4 399.693 358.343 400.433 358.286C399.636 358.343 398.896 358.4 398.156 358.457Z" fill="#182234"/>
<path fill-rule="evenodd" clip-rule="evenodd" d="M462.699 458.938C462.699 459.508 462.699 460.078 462.756 460.647C462.756 460.078 462.756 459.508 462.699 458.938Z" fill="#182234"/>
<path fill-rule="evenodd" clip-rule="evenodd" d="M464.75 224.082C465.49 224.026 466.287 223.912 467.027 223.855C466.23 223.912 465.49 223.969 464.75 224.082Z" fill="#182234"/>
<path fill-rule="evenodd" clip-rule="evenodd" d="M474.598 369.508L474.768 367.799L474.598 369.508Z" fill="#182234"/>
<path fill-rule="evenodd" clip-rule="evenodd" d="M500.832 217.418C500.889 216.848 500.946 216.279 500.946 215.709C500.889 216.279 500.832 216.848 500.832 217.418Z" fill="#182234"/>
<path fill-rule="evenodd" clip-rule="evenodd" d="M446.762 168.43C446.762 169 446.762 169.57 446.819 170.139C446.819 169.57 446.819 169 446.762 168.43Z" fill="#182234"/>
<path fill-rule="evenodd" clip-rule="evenodd" d="M426.617 157.778C427.357 157.835 428.154 157.892 428.894 157.949C428.097 157.892 427.357 157.835 426.617 157.778Z" fill="#182234"/>
<path fill-rule="evenodd" clip-rule="evenodd" d="M312.785 481.553C313.525 481.496 314.322 481.382 315.062 481.325C314.265 481.382 313.525 481.439 312.785 481.553Z" fill="#182234"/>
<path fill-rule="evenodd" clip-rule="evenodd" d="M287.742 488.958C288.098 488.789 288.487 488.701 288.88 488.701C289.274 488.701 289.663 488.789 290.019 488.958H287.742Z" fill="#182234"/>
<path fill-rule="evenodd" clip-rule="evenodd" d="M583.133 455.863C584.442 455.806 585.808 455.749 587.117 455.635C585.751 455.749 584.442 455.806 583.133 455.863Z" fill="#182234"/>
<path fill-rule="evenodd" clip-rule="evenodd" d="M583.132 446.065C582.392 446.065 581.595 446.122 580.855 446.122C581.595 446.122 582.335 446.122 583.132 446.065Z" fill="#182234"/>
<path fill-rule="evenodd" clip-rule="evenodd" d="M571.75 434.787C572.718 434.73 573.628 434.616 574.596 434.559C573.685 435.128 572.661 434.73 571.75 434.787Z" fill="#182234"/>
<path fill-rule="evenodd" clip-rule="evenodd" d="M560.938 435.98C561.905 435.923 562.816 435.866 563.783 435.752C562.816 435.809 561.848 435.866 560.938 435.98Z" fill="#182234"/>
<path fill-rule="evenodd" clip-rule="evenodd" d="M545 446.179C545.74 446.122 546.537 446.065 547.277 446.008C546.48 446.065 545.74 446.122 545 446.179Z" fill="#182234"/>
<path fill-rule="evenodd" clip-rule="evenodd" d="M548.984 446.179C549.724 446.122 550.521 446.065 551.261 446.008C550.464 446.065 549.724 446.122 548.984 446.179Z" fill="#182234"/>
<path fill-rule="evenodd" clip-rule="evenodd" d="M551.828 445.609C552.568 445.552 553.365 445.496 554.105 445.382C553.308 445.496 552.568 445.552 551.828 445.609Z" fill="#182234"/>
<path fill-rule="evenodd" clip-rule="evenodd" d="M570.039 457.572C570.779 457.515 571.576 457.458 572.316 457.401C571.576 457.856 570.779 457.572 570.039 457.572Z" fill="#182234"/>
<path fill-rule="evenodd" clip-rule="evenodd" d="M548.418 412.056C549.158 411.999 549.955 411.885 550.695 411.828C549.898 411.885 549.158 411.942 548.418 412.056Z" fill="#182234"/>
<path fill-rule="evenodd" clip-rule="evenodd" d="M526.219 405.565C526.048 406.02 525.023 405.963 525.08 405.508C525.461 405.5 525.841 405.519 526.219 405.565" fill="#182234"/>
<path fill-rule="evenodd" clip-rule="evenodd" d="M499.695 407.672C499.695 408.242 499.752 408.812 499.752 409.381C499.752 408.812 499.752 408.242 499.695 407.672Z" fill="#182234"/>
<path fill-rule="evenodd" clip-rule="evenodd" d="M577.441 410.692C578.011 410.692 578.58 410.691 579.149 410.635C578.901 410.81 578.607 410.909 578.304 410.919C578 410.929 577.7 410.85 577.441 410.692" fill="#182234"/>
<path fill-rule="evenodd" clip-rule="evenodd" d="M541.016 438.258C541.756 438.201 542.552 438.144 543.292 438.031C542.495 438.087 541.756 438.144 541.016 438.258Z" fill="#182234"/>
<path fill-rule="evenodd" clip-rule="evenodd" d="M531.91 439.343L534.187 439.173L531.91 439.343Z" fill="#182234"/>
<path fill-rule="evenodd" clip-rule="evenodd" d="M576.301 456.486C577.041 456.429 577.837 456.315 578.577 456.258C577.781 456.315 577.041 456.372 576.301 456.486Z" fill="#182234"/>
<path fill-rule="evenodd" clip-rule="evenodd" d="M548.984 459.904C549.34 459.735 549.729 459.648 550.123 459.648C550.516 459.648 550.905 459.735 551.261 459.904H548.984Z" fill="#182234"/>
<path fill-rule="evenodd" clip-rule="evenodd" d="M547.785 381.356L546.703 381.014C548.012 381.014 549.378 380.957 550.687 380.957C550.687 380.957 547.898 381.413 547.785 381.356" fill="#182234"/>
<path fill-rule="evenodd" clip-rule="evenodd" d="M501.746 393.258C502.664 392.916 503.674 392.916 504.592 393.258H501.746Z" fill="#182234"/>
<path fill-rule="evenodd" clip-rule="evenodd" d="M547.273 376.514C548.241 376.571 549.152 376.628 550.119 376.685C549.152 376.628 548.184 376.571 547.273 376.514Z" fill="#182234"/>
<path fill-rule="evenodd" clip-rule="evenodd" d="M535.324 382.381C536.292 382.324 537.202 382.267 538.17 382.153C537.202 382.267 536.235 382.324 535.324 382.381Z" fill="#182234"/>
<path fill-rule="evenodd" clip-rule="evenodd" d="M542.727 381.242C543.466 381.185 544.263 381.128 545.003 381.071C544.206 381.128 543.466 381.185 542.727 381.242Z" fill="#182234"/>
<path fill-rule="evenodd" clip-rule="evenodd" d="M536.457 375.944C537.197 376.001 537.994 376.058 538.734 376.115C537.937 376.058 537.197 376.001 536.457 375.944Z" fill="#182234"/>
<path fill-rule="evenodd" clip-rule="evenodd" d="M537.595 381.185C537.197 381.185 536.855 381.128 536.457 381.128C536.855 381.128 537.197 381.185 537.595 381.185Z" fill="#182234"/>
<path fill-rule="evenodd" clip-rule="evenodd" d="M530.201 381.185C529.82 381.194 529.44 381.175 529.062 381.128C529.44 381.175 529.82 381.194 530.201 381.185" fill="#182234"/>
<path fill-rule="evenodd" clip-rule="evenodd" d="M550.691 380.672C550.691 380.843 552.399 380.046 552.399 380.786L550.691 380.672Z" fill="#182234"/>
<path fill-rule="evenodd" clip-rule="evenodd" d="M342.383 344.444C343.009 341.938 342.838 339.944 345.001 341.539C346.196 342.451 348.188 346.894 348.017 348.432C347.847 350.311 346.993 351.052 345.229 350.425C343.237 349.799 342.44 346.381 342.383 344.444" fill="#182234"/>
<path fill-rule="evenodd" clip-rule="evenodd" d="M453.254 329.178C458.376 329.178 456.099 334.59 451.888 334.704C449.952 334.761 447.107 334.362 447.733 331.742C448.074 330.374 453.026 328.495 453.254 329.178" fill="#182234"/>
<path fill-rule="evenodd" clip-rule="evenodd" d="M398.611 339.887C402.31 341.653 397.131 349.514 393.773 347.577C389.447 345.071 397.074 340.969 398.611 339.887Z" fill="#182234"/>
<path fill-rule="evenodd" clip-rule="evenodd" d="M389.617 347.292C390.812 348.602 396.276 353.046 393.259 354.868C389.617 357.033 386.771 349.742 389.617 347.292Z" fill="#182234"/>
<path fill-rule="evenodd" clip-rule="evenodd" d="M327.982 343.875C326.787 341.539 328.438 335.501 332.08 336.583C335.723 337.723 329.974 343.248 327.982 343.875Z" fill="#182234"/>
<path fill-rule="evenodd" clip-rule="evenodd" d="M409.144 345.185C411.534 344.216 411.079 347.064 411.421 347.976C411.819 349.001 413.925 351.564 413.413 352.647C412.616 354.299 410.738 353.216 409.77 352.191C408.006 350.311 408.12 347.349 409.144 345.185" fill="#182234"/>
<path fill-rule="evenodd" clip-rule="evenodd" d="M372.778 347.805C370.786 347.805 366.062 342.052 368.851 341.083C372.323 339.944 375.226 348.261 372.778 347.805Z" fill="#182234"/>
<path fill-rule="evenodd" clip-rule="evenodd" d="M441.523 338.748C443.345 339.204 445.735 344.387 443.003 344.957C439.987 345.583 439.417 340.172 441.523 338.748Z" fill="#182234"/>
<path fill-rule="evenodd" clip-rule="evenodd" d="M430.487 348.432C429.064 345.697 428.723 339.773 432.195 344.501C432.935 345.526 433.731 345.128 433.333 346.78C432.992 348.261 431.626 348.432 430.487 348.432Z" fill="#182234"/>
<path fill-rule="evenodd" clip-rule="evenodd" d="M355.242 334.191C356.721 336.413 356.266 343.248 353.25 339.204C351.884 337.438 352.794 334.248 355.242 334.191Z" fill="#182234"/>
<path fill-rule="evenodd" clip-rule="evenodd" d="M428.435 127.474C431.281 126.734 431.964 133.398 430.313 134.139C427.98 135.164 428.264 128.557 428.435 127.474Z" fill="#182234"/>
<path fill-rule="evenodd" clip-rule="evenodd" d="M607.097 466.116C604.479 465.945 600.779 465.261 604.763 463.382C607.268 462.185 611.024 462.128 613.699 462.584C615.52 462.926 618.309 464.464 615.463 466.401C613.87 467.597 609.089 466.173 607.097 466.116" fill="#182234"/>
<path fill-rule="evenodd" clip-rule="evenodd" d="M604.187 470.901C603.447 470.787 602.65 470.73 601.91 470.673C602.479 469.534 604.301 469.306 604.187 470.901Z" fill="#182234"/>
<path fill-rule="evenodd" clip-rule="evenodd" d="M607.602 466.002C608.341 466.002 609.138 466.059 609.878 466.059C609.081 466.059 608.341 466.059 607.602 466.002Z" fill="#182234"/>
</svg>
