<svg width="511" height="394" viewBox="0 0 511 394" fill="none" xmlns="http://www.w3.org/2000/svg">
<path fill-rule="evenodd" clip-rule="evenodd" d="M130.879 236.615C133.493 234.836 138.777 228.495 141.558 227.048C147.732 223.767 175.32 217.37 176.21 217.037C177.601 216.48 186.445 214.422 191.617 213.199C203.743 210.195 247.239 190.95 258.697 186C260.143 189.838 272.213 206.858 270.155 208.582C263.314 214.256 251.077 221.375 243.179 225.491C236.75 228.787 230.073 231.577 223.211 233.834C215.479 236.393 210.139 239.118 202.408 241.733C194.788 244.291 203.91 252.301 207.803 253.969C212.197 255.805 218.983 256.75 223.433 258.363C215.535 270.6 208.916 285.507 207.581 300.135C207.247 303.639 204.577 306.921 200.183 305.864C197.903 305.308 177.1 302.527 173.652 301.748C150.958 296.576 110.187 269.488 120.7 241.677C123.147 242.789 128.654 238.117 130.879 236.615Z" fill="#9332C0"/>
<path fill-rule="evenodd" clip-rule="evenodd" d="M141.294 88.9031C142.963 88.7363 147.357 85.399 145.076 83.6747C142.74 81.8948 141.072 87.6794 141.294 88.9031ZM52.967 101.863C53.4119 101.807 53.1894 99.36 52.522 99.0263C50.2971 98.0251 50.1303 101.696 50.0746 102.697C50.019 103.921 49.8521 107.425 52.522 106.48C54.0794 105.979 53.1338 102.809 52.967 101.863ZM183.01 113.21C182.955 115.379 187.349 119.551 188.962 117.048C190.297 114.934 183.122 108.871 183.01 113.21ZM28.3822 64.374C29.6615 67.6001 35.8911 63.2059 36.1692 60.8142C36.6142 55.9751 28.3266 61.1479 28.3822 64.374ZM80.6665 78.335C83.5588 78.1125 87.4523 74.3859 90.2334 72.9953C92.1246 72.0498 97.2974 70.9373 97.9092 68.8237C98.4098 66.9882 89.6216 70.9373 88.8429 71.2711C85.3944 72.8841 82.2795 74.7196 80.6665 78.335ZM299.76 52.7491C302.066 50.9011 304.926 49.8824 307.881 49.8568C309.383 49.9124 312.497 50.8023 312.609 48.2437C312.775 44.0721 299.649 49.1893 297.591 49.968C298.314 50.9136 299.037 51.8035 299.76 52.7491ZM154.643 215.943C152.919 213.106 149.86 211.493 147.579 209.046C148.414 212.995 146.522 216.555 145.188 220.17C148.302 218.724 151.473 217.333 154.643 215.943ZM450.995 276.348C451.941 273.177 452.886 270.063 453.999 266.948C455.222 263.499 455.834 263.166 452.886 260.774L445.544 274.624C447.283 275.422 449.114 276.002 450.995 276.348ZM198.028 48.4662C194.802 44.7952 179.617 44.5727 181.508 52.6378C182.176 55.4745 185.903 52.471 188.239 51.8035C190.519 51.1917 197.083 51.0804 198.028 48.4662ZM197.472 100.139C197.083 99.1931 196.304 95.8558 195.136 95.5777C194.023 95.2996 189.518 98.8594 188.684 99.36C184.512 102.03 180.396 104.922 176.336 107.759C177.893 107.759 179.339 107.203 180.897 107.203C182.732 107.203 184.067 107.926 185.847 107.536C189.685 106.591 194.19 102.308 197.472 100.139ZM201.644 16.8731C202.033 15.2045 220.944 20.2104 223.225 21.156C224.448 21.6566 230.845 24.9939 229.51 19.988C228.731 17.1513 221.334 14.9264 218.942 14.1477C212.935 12.1453 206.538 10.7548 200.142 11.0885C198.918 11.1441 189.462 11.7003 193.412 15.4826C194.746 16.7619 199.641 16.3726 201.644 16.8731ZM205.815 246.145C209.375 247.87 212.935 249.205 216.661 250.595C218.274 251.207 220.833 252.764 222.668 252.375C224.17 252.041 224.615 249.816 225.394 248.259C228.166 242.944 231.688 238.055 235.851 233.742C233.904 232.296 223.948 238.636 221.5 239.526C219.053 240.472 216.717 241.418 214.325 242.53C212.045 243.531 207.539 244.477 205.815 246.145ZM268.334 199.034C273.507 196.698 278.346 192.582 282.573 188.855C287.412 184.628 291.751 180.178 295.31 174.672C293.197 174.783 288.469 181.624 288.413 174.171C288.413 170.333 293.642 166.607 295.255 163.047C291.194 160.766 287.523 174.394 282.907 171.112C278.457 167.941 285.465 156.984 286.856 153.535C284.242 151.811 269.335 171.279 267.166 173.782C265.831 175.339 262.605 177.397 261.882 179.233C261.437 180.289 261.381 183.738 261.604 184.739C262.049 186.797 264.385 189.3 265.386 191.247C266.726 193.693 267.718 196.314 268.334 199.034ZM481.198 269.284C476.748 262.999 481.365 260.273 484.98 255.045C487.937 250.866 490.419 246.37 492.378 241.64C496.994 229.96 501.11 219.169 503.391 206.821C500.276 208.267 498.329 213.662 496.772 216.499C494.658 220.337 492.823 224.342 490.487 228.068C486.148 235.021 481.81 242.474 476.303 248.482C473.8 251.207 471.631 254.266 468.738 256.769C467.404 257.882 464.901 258.827 463.899 260.218C462.954 261.553 464.011 262.387 463.677 264C463.343 265.613 461.675 267.337 460.951 268.95C460.006 271.008 459.172 273.066 458.115 275.069C457.166 276.765 456.579 278.64 456.39 280.575C456.057 282.911 457.058 283.189 455.056 285.303C458.782 286.916 462.509 288.585 466.18 290.198C467.459 290.754 468.683 291.31 469.962 291.866C470.24 291.366 470.518 290.865 470.741 290.365C471.742 289.363 472.688 286.916 473.299 285.637C475.691 280.186 478.417 274.735 481.198 269.284ZM122.55 242.919C111.981 270.675 149.081 294.036 171.886 299.208C175.056 299.931 178.116 300.877 181.286 301.656C184.735 302.49 187.738 302.323 191.187 302.657C193.912 302.935 195.191 305.049 197.75 305.605C202.033 306.55 201.755 303.324 202.089 299.876C203.368 285.247 210.877 271.12 218.775 258.883C215.16 257.603 211.6 256.157 208.04 254.767C204.981 253.543 200.309 250.15 197.027 249.983C194.58 249.872 190.909 251.93 188.572 252.82C184.662 254.324 180.669 255.606 176.614 256.658C169.439 258.438 161.485 260.941 154.087 261.108C151.973 261.163 146.078 262.164 144.576 260.83C141.628 258.327 145.688 256.213 148.136 255.323C162.764 249.983 178.282 247.703 192.911 242.196C200.475 239.36 207.929 236.245 215.493 233.464C222.057 231.072 228.898 228.958 235.183 226.01C243.527 222.117 251.925 217.278 259.156 211.549C260.602 210.381 263.606 208.712 264.607 207.043C265.497 205.597 265.386 207.043 265.163 205.264C265.052 203.984 263.495 202.26 262.827 201.092C260.411 196.639 258.292 192.031 256.486 187.298C244.973 192.248 234.015 198.978 222.613 204.262C211.155 209.602 198.306 213.329 186.069 216.332C180.841 217.612 174.89 218.001 170.106 220.504C168.104 221.561 166.046 222.784 163.876 223.452C163.209 224.675 162.597 224.898 161.985 224.175C161.802 223.964 161.568 223.802 161.306 223.705C161.043 223.608 160.76 223.578 160.484 223.619C159.125 223.929 157.802 224.377 156.534 224.954C150.249 227.401 144.242 230.46 138.235 233.575C135.398 235.077 132.506 236.523 129.78 238.192C128.346 239.049 127.02 240.077 125.831 241.251C124.496 242.752 124.83 243.976 122.55 242.919ZM359.887 78.0569C362.557 78.1125 365.004 76.6664 367.785 76.722C372.179 76.8332 375.628 80.2262 378.131 83.5078C383.137 89.9599 381.858 97.747 379.355 105.033C378.156 108.506 376.491 111.799 374.404 114.823C372.569 117.493 369.287 120.051 368.008 122.999C365.894 127.894 370.177 125.836 372.736 124.779C376.012 123.508 379.085 121.765 381.858 119.606C394.261 109.761 403.661 96.0227 406.832 80.2818C408.389 72.606 408.278 63.5953 402.882 57.3101C397.988 51.581 389.533 49.6899 382.302 50.7467C374.515 51.9148 367.396 55.1964 361.055 59.4793C359.22 60.703 357.495 62.0935 355.771 63.4284C353.491 65.2639 352.156 65.2639 352.712 68.1563C353.157 70.2699 354.269 72.4391 355.048 74.4971C356.494 78.335 355.993 79.2806 359.887 78.0569ZM368.341 143.579L367.785 144.525C371.512 144.692 374.96 141.41 378.131 139.797C382.247 137.739 385.918 134.902 389.478 132.01C395.819 126.948 402.271 121.275 406.998 114.6C417.622 99.7493 427.245 80.838 424.352 61.9823C421.238 41.6804 403.439 33.8377 384.527 36.5076C375.962 37.7312 368.341 41.5135 360.721 45.407C356.883 47.3538 353.602 49.9124 350.098 52.3597C348.262 53.639 346.593 53.8059 346.482 56.0308C346.371 57.6994 349.263 61.4817 350.098 63.0391C359.665 53.2497 370.01 45.1289 384.527 44.6283C401.77 44.0165 411.949 60.3692 411.893 76.0545C411.838 91.4061 405.219 106.146 394.65 117.215C389.867 122.22 385.306 126.225 379.41 129.896C376.462 131.732 374.293 133.345 371.011 134.568C368.675 135.403 368.953 134.958 368.341 137.127C367.841 138.907 368.341 141.688 368.341 143.579ZM274.675 352.105C274.41 354.86 273.945 357.593 273.284 360.281C273.062 361.227 271.782 364.286 272.005 365.398C272.394 367.178 271.894 366.066 273.451 366.956C275.12 367.957 277.011 367.901 278.791 368.179C279.903 368.346 283.964 370.293 284.687 369.959C285.91 369.403 285.855 367.567 287.134 366.844C288.914 365.843 291.584 366.677 293.252 367.512C297.758 369.625 300.872 373.964 305.267 376.356C313.054 380.583 322.231 382.919 330.908 383.92C335.58 384.421 340.419 385.366 345.036 384.254C348.707 383.364 353.435 383.475 355.437 379.526C337.805 374.687 310.884 368.735 303.932 348.489C300.149 351.938 293.808 350.102 289.248 349.602C284.186 349.101 279.681 349.212 275.12 346.932C274.751 348.63 274.602 350.368 274.675 352.105ZM118.6 226.789C126.888 227.29 134.786 223.341 139.904 216.722C141.183 215.109 142.462 213.44 143.185 211.493C143.352 210.993 143.519 210.492 143.686 210.047C144.465 208.712 144.131 208.045 142.629 208.156C141.795 206.988 139.681 206.598 140.293 204.54C140.738 202.983 142.406 202.927 143.908 202.427C143.316 201.357 142.566 200.381 141.683 199.535C138.958 201.982 134.063 206.71 132.172 201.148C131.282 198.478 132.84 195.919 132.45 193.305C132.283 192.248 130.948 189.523 130.17 188.855C125.998 185.462 119.935 186.853 115.541 188.855C112.482 190.246 111.815 190.913 111.314 194.028C110.813 197.254 110.313 200.48 109.757 203.706L109.868 204.131C109.851 204.131 109.832 204.54 109.868 204.54L109.815 203.706C109.815 203.706 110.035 203.575 109.757 204.965V205.8L110.407 206.356C109.239 207.746 109.868 207.322 109.868 207.322C109.089 208.045 108.755 209.491 108.477 211.104C108.032 213.774 106.809 217.556 107.921 220.226C109.479 224.23 114.707 226.288 118.6 226.789ZM359.108 99.9718C356.383 103.81 351.655 108.816 350.709 113.432C353.713 111.652 360.109 103.142 361.778 109.928C362.724 113.822 357.885 118.494 356.661 122.276C361.444 120.719 364.837 115.768 367.785 111.986C371.568 107.147 375.461 100.751 376.407 94.6321C376.601 93.4507 376.55 92.2419 376.258 91.0807C375.966 89.9196 375.439 88.8308 374.709 87.8817C373.979 86.9327 373.061 86.1437 372.014 85.5635C370.967 84.9834 369.811 84.6245 368.62 84.509C365.962 84.3511 363.297 84.6139 360.721 85.2877C359.553 85.5658 357.829 85.8996 356.828 86.5114C355.548 87.2901 355.382 89.1256 354.158 87.5682L349.319 96.7458C350.932 96.1339 354.214 93.6866 355.993 93.9091C358.552 94.2984 359.053 98.0807 359.108 99.9718ZM101.97 25.272C94.6398 25.5705 87.3907 26.9191 80.444 29.2768C78.7754 29.833 71.6002 31.8354 73.102 34.7833C74.1032 36.7301 79.4428 34.0046 81.0559 33.504C88.0086 31.5572 95.1281 30.278 102.248 29.1099C103.972 28.8318 109.812 28.8318 110.09 26.6069C110.48 23.8815 103.972 25.272 101.97 25.272ZM297.925 339.423C294.076 339.84 290.19 339.784 286.355 339.256C283.074 338.867 279.736 337.532 276.455 337.532C276.455 341.036 276.232 341.036 279.903 341.815C282.462 342.315 285.076 342.649 287.69 342.983C292.251 343.65 297.368 345.43 302.04 344.484C301.929 343.873 301.596 339.757 301.095 339.367C300.817 339.145 298.314 339.423 297.925 339.423ZM234.85 80.3374C235.962 81.0049 238.465 83.7859 239.744 83.8416C239.299 80.6155 235.684 75.0533 231.568 77.0001C230.567 77.5007 228.453 79.8924 229.399 80.9492C229.899 81.6167 233.515 80.3374 234.85 80.3374ZM196.804 108.927C196.86 108.371 196.86 107.814 196.916 107.258C195.414 108.148 193.523 108.593 192.466 109.984C193.745 110.54 195.025 111.152 196.304 111.708C196.471 110.762 196.638 109.817 196.804 108.927ZM315.612 194.139C322.732 196.642 329.295 199.979 334.524 205.653C339.085 210.548 341.198 219.169 342.311 225.565C345.036 241.418 339.752 256.157 336.303 271.342C334.524 279.073 331.909 286.471 329.406 293.98C327.237 300.543 325.402 307.385 322.398 313.614C319.895 318.898 316.669 324.127 314.444 329.578C313.22 332.526 311.329 342.649 306.768 339.478C305.545 342.705 305.211 342.426 306.546 344.707C307.491 346.32 310.773 348.6 312.275 349.935C316.391 353.495 321.564 356.387 326.347 358.835C335.135 363.396 344.535 366.733 353.602 370.905C357.607 372.74 361.945 374.909 361.055 380.138C360.731 382.219 359.903 384.189 358.643 385.876C357.382 387.563 355.728 388.916 353.824 389.816C350.098 391.652 344.814 393.042 340.698 393.654C338.25 393.988 337.694 392.986 335.747 392.653C333.522 392.263 330.964 393.042 328.683 392.986C318.505 392.875 309.549 390.317 301.317 384.421C298.369 382.307 294.031 376.578 290.193 376.578C288.246 376.578 288.636 377.802 286.911 378.469C284.798 379.359 281.071 377.69 279.013 377.301C274.563 376.467 270.002 375.632 266.999 371.795C263.773 367.623 264.941 362.45 266.331 357.834C267.889 352.605 270.503 347.321 271.616 342.037C271.968 340.392 272.043 338.7 271.838 337.031C271.393 334.973 269.335 333.805 269.279 331.58C269.279 330.913 270.225 330.023 270.392 329.355C270.781 327.854 270.726 326.24 270.837 324.739C271.115 321.958 271.727 319.343 272.172 316.618C273.173 310.444 275.12 304.882 277.011 298.93C278.846 293.146 280.571 288.807 284.13 283.801C285.966 281.187 292.084 271.954 289.081 269.284C285.02 277.294 280.237 283.579 273.952 289.975C269.168 294.87 264.496 301.433 258.489 304.937C251.925 308.775 243.86 311 236.574 313.058C233.125 314.004 230.233 316.173 226.506 316.562C222.437 316.924 218.336 316.585 214.381 315.561C213.268 315.283 210.042 313.614 209.041 313.726C207.539 313.893 205.426 316.507 203.813 317.007C199.864 318.175 197.138 315.951 194.135 313.837C190.853 311.556 189.907 311 186.125 310.722C181.508 310.388 177.003 308.775 172.498 307.774C164.544 306.05 157.758 302.49 150.472 298.763C142.184 294.536 135.064 288.64 128.779 281.688C119.546 271.509 106.753 243.253 121.771 233.352C112.927 232.129 104.806 228.291 103.749 218.279C103.193 213.051 104.25 207.21 105.585 202.149C106.197 199.813 106.92 197.532 107.587 195.252C108.086 194.487 108.374 193.605 108.422 192.693C108.755 191.525 108.255 190.913 107.031 190.913C104.695 188.188 102.971 185.796 102.47 181.902C102.303 180.679 102.192 178.788 103.082 177.731C103.457 177.299 103.967 177.006 104.528 176.897C105.919 176.952 106.308 176.285 105.696 174.894C106.364 172.892 105.363 171.279 107.865 170.444C108.644 170.611 109.479 170.778 110.257 171.001C111.258 171.446 111.926 171.112 112.26 169.999C114.596 169.054 113.539 167.719 116.709 168.887C118.676 169.623 120.446 170.803 121.882 172.336C123.662 171.223 119.602 164.159 119.49 161.934C119.157 156.65 121.382 152.312 124.218 147.973C129.725 139.519 137.456 132.288 145.021 125.78C159.594 113.265 174.89 101.418 191.298 91.4617C184.512 86.7339 176.614 85.4546 168.549 87.6794C161.095 89.6818 155.088 93.3528 148.247 96.5789C141.906 99.5268 135.176 100.751 133.173 92.6854C130.893 83.6191 138.124 80.2262 144.631 76.1658C143.018 74.9421 137.679 75.832 135.676 75.9433C131.171 76.277 126.888 77.2782 122.55 78.1682C120.436 78.6131 118.545 78.5019 116.487 78.9469C113.428 79.5587 110.202 80.2818 107.087 81.1717C99.5597 83.2683 92.4086 86.5341 85.895 90.8499C80.3328 94.5765 76.4949 99.9162 72.0452 104.755C66.928 110.317 62.0889 115.768 54.5244 117.826C50.9646 118.772 46.8486 119.662 44.3456 116.491C42.0095 113.543 41.8983 110.039 41.9539 106.424C42.1207 98.47 45.9586 89.9043 50.4084 83.4522C55.2474 76.4439 61.6995 72.3835 67.8179 66.7101C58.9741 67.3219 50.4084 71.9941 42.2876 75.2202C40.5633 75.8877 38.8391 76.6664 37.1148 77.2782C35.2793 77.9457 34.0556 77.5563 32.3313 77.8344C28.3266 78.5575 24.878 80.2261 20.9845 77.5563C13.5869 72.4391 20.9845 62.0935 26.1017 58.8675C33.1123 54.4396 40.5018 50.6425 48.1835 47.5206C43.9563 42.9597 47.5717 36.3963 51.4652 33.1703C56.4155 29.0543 62.6451 26.7182 68.5966 24.4933C73.2688 22.769 77.8854 21.1004 82.7801 20.0436C87.8973 18.9311 93.9045 17.2625 99.0773 17.4294C103.972 17.5962 108.255 16.7063 113.205 16.595C117.321 16.4838 121.437 16.595 125.553 16.4838C136.622 16.2057 147.691 16.9288 158.537 17.7631C149.971 -7.26663 206.371 0.464771 218.441 3.74645C229.399 6.69439 241.914 10.1429 251.091 17.2069C254.974 20.2647 258.67 23.5523 262.16 27.0519C267.277 32.1691 270.058 38.9549 272.784 45.5739C279.625 42.2366 286.133 38.5656 293.642 36.8969C300.761 35.3395 308.048 33.1703 315.223 32.0022C320.674 31.1123 328.572 30.5004 333.133 34.3383C338.083 38.5099 340.698 45.0177 343.645 50.5798C357.885 37.0638 373.792 27.1631 394.15 27.8306C414.062 28.4981 427.134 45.6295 429.525 64.2628C432.195 84.7871 423.017 106.201 410.669 122.109C405.107 129.229 399.378 136.126 391.869 141.41C388.143 144.024 384.249 146.916 380.189 148.974C378.112 150.007 375.976 150.917 373.792 151.7C372.829 152.074 371.845 152.389 370.844 152.645C368.008 153.313 368.564 152.423 367.507 154.926C366.673 156.928 366.728 160.433 366.395 162.657C365.95 165.216 365.727 167.775 365.115 170.278C364.059 174.616 362.946 178.843 361.611 183.126C359.066 191.274 355.693 199.139 351.544 206.598C355.048 208.156 359.998 208.267 363.78 208.768C367.976 209.374 372.121 210.285 376.184 211.493C384.694 213.885 392.259 215.887 400.38 219.447C408.778 223.118 416.232 228.68 424.352 233.074C431.806 237.135 439.315 242.196 446.212 247.035C447.681 248.063 449.008 249.278 450.161 250.651C451.164 251.784 452.283 252.809 453.498 253.71C454.221 254.266 456.335 257.214 457.114 257.325C458.56 257.548 458.337 256.435 459.505 254.878C461.897 251.652 465.29 249.205 467.682 245.923C469.624 243.187 471.703 240.551 473.911 238.025C479.037 232.296 483.445 225.964 487.038 219.169C488.929 215.609 490.987 212.216 493.045 208.879C495.103 205.542 498.774 201.148 502.89 201.314C502.556 199.59 501.5 199.312 503.335 198.311C504.503 197.643 506.784 198.7 507.674 199.423C510.065 201.203 510.177 204.707 510.01 207.377C509.568 214.126 508.298 220.795 506.227 227.234C503.836 234.91 500.888 241.751 497.606 249.093C494.992 254.934 491.821 262.665 485.369 265.39C489.708 271.564 487.594 276.57 484.702 283.134C482.588 287.917 479.807 292.868 475.58 296.038C470.796 299.598 465.624 296.594 460.618 294.202C457.614 292.756 448.325 289.419 450.216 285.025C447.88 284.691 446.434 283.023 444.376 282.522C442.151 281.966 442.541 282.856 440.149 283.245C438.369 283.523 435.644 281.91 433.919 281.298C431.083 280.353 428.246 279.352 425.409 278.35C417.4 275.625 409.557 272.899 401.492 270.675C386.474 266.559 371.289 264.222 356.327 260.607C353.324 259.884 350.376 259.161 347.205 258.605C346.538 258.493 343.2 258.271 342.811 257.603C342.088 256.38 344.313 249.65 344.48 248.259C345.659 238.963 345.359 229.539 343.59 220.337C342.867 216.61 339.641 211.827 339.696 208.156C339.696 205.709 341.866 203.039 343.145 200.869C346.26 195.418 349.541 189.523 351.878 183.849C355.437 175.172 357.607 165.383 359.164 156.094C359.998 151.255 360.944 145.971 361.166 141.076C361.333 137.35 361.055 133.4 361.556 129.563C359.498 129.785 356.55 130.842 354.714 129.674C352.378 128.228 351.711 124.112 352.044 121.609C343.979 122.999 344.257 115.379 344.758 109.372C330.185 109.372 348.818 87.7351 351.154 83.0629C352.211 80.9492 352.211 83.341 351.711 80.0037C351.488 78.5575 350.487 76.9445 349.931 75.6096C348.707 72.7172 347.372 69.8249 345.982 66.9882C342.984 61.0211 339.621 55.2441 335.914 49.6899C332.615 52.0285 329.575 54.7136 326.848 57.6994C328.628 53.0272 334.079 47.2982 331.742 42.0141C329.573 37.1194 322.398 37.4531 318.115 38.3431C306.546 40.7904 295.477 44.3502 284.464 48.4106C287.857 50.3574 293.085 48.8556 296.478 47.3538C300.65 45.5183 305.211 43.5715 309.716 42.5703C313.665 41.736 318.838 42.0141 317.726 47.2982C316.78 51.581 312.609 55.7526 309.828 58.9787C303.709 66.0426 296.033 71.5492 288.469 77.0557C280.348 82.9516 272.561 89.3481 264.329 95.0771C249.478 105.423 233.57 114.433 218.219 124.056C210.265 129.062 201.254 133.122 192.577 136.849C183.066 140.965 173.944 145.303 164.099 148.529C158.648 150.309 153.197 151.811 147.802 153.869C144.409 155.148 138.569 157.707 136.344 153.925C131.838 146.193 148.191 136.07 152.696 131.342C155.811 134.346 140.515 145.526 141.739 149.92C142.685 153.369 146.3 148.919 148.08 147.973C150.917 146.471 154.254 145.693 157.091 143.969C162.931 140.409 169.828 136.348 171.163 129.006C170.217 128.005 170.273 127.115 171.219 126.281C171.656 125.794 171.995 125.227 172.22 124.612C172.565 123.352 172.825 122.07 172.998 120.774C173.666 117.159 171.997 113.766 173.555 110.262C164.544 117.103 155.923 124.779 147.357 132.177C139.681 138.796 131.672 147.473 128.89 157.373C128.557 158.653 127.945 160.099 128.001 161.434C128.112 164.048 128.39 163.492 130.503 164.326C132.617 165.16 135.676 165.105 137.957 165.16C139.236 165.216 145.021 163.825 143.908 166.662C143.241 168.275 139.236 168.22 137.79 168.386C134.174 168.776 132.228 168.386 133.952 172.28C134.731 174.004 136.288 175.228 137.512 176.563C140.905 180.345 142.74 186.13 145.41 190.524C148.469 195.585 151.807 200.369 155.311 205.097C156.757 207.043 158.704 210.659 160.762 212.049C162.653 213.329 160.428 213.217 163.598 212.717C164.989 212.494 166.213 211.604 167.547 211.271C175.39 209.38 183.455 207.21 191.576 204.874C201.922 201.871 212.823 199.312 222.724 194.974C231.568 191.08 240.356 186.463 249.311 182.514C251.925 181.346 254.54 180.623 256.598 178.51C259.045 175.951 261.103 172.614 263.328 169.888C267.166 165.216 270.726 160.488 274.842 156.038C277.901 152.757 283.407 146.638 287.746 145.303C296.033 142.8 291.584 155.371 290.527 158.597C292.474 159.042 293.475 156.539 295.755 157.262C298.481 158.096 298.759 161.767 299.093 164.048C299.204 164.66 298.369 165.772 298.592 166.328C298.703 166.495 300.483 167.552 300.817 168.053C302.041 169.833 301.818 172.002 301.373 173.893C298.926 183.794 290.249 191.024 283.852 198.366C286.689 197.81 288.858 196.197 291.528 195.363C294.087 194.584 296.59 194.64 299.148 194.417C301.818 194.195 304.377 193.194 307.102 193.138C310.05 192.971 312.775 193.805 315.612 194.139Z" fill="#182234"/>
<path fill-rule="evenodd" clip-rule="evenodd" d="M13.1982 105.033C11.6408 106.09 11.1958 107.091 11.1402 109.428C11.1402 110.429 11.1958 114.044 12.5307 113.877C13.81 113.766 13.1982 106.257 13.1982 105.033ZM5.07744 110.929C5.80052 103.309 8.5816 95.5777 15.1449 90.7943C16.758 89.6262 18.5935 89.6818 20.3734 88.9031C21.4302 88.4582 23.1545 86.4002 24.3225 86.6226C28.7722 87.5126 23.655 93.4641 22.8763 95.0215C20.5402 99.8606 20.7071 104.088 20.7627 109.316C20.8183 113.265 21.6527 119.94 19.6503 123.555C17.5367 127.393 12.9201 124.89 10.3059 122.61C7.07981 119.829 4.63246 115.268 5.07744 110.929Z" fill="#182234"/>
<path fill-rule="evenodd" clip-rule="evenodd" d="M83.4492 133.456C83.4492 137.683 86.8978 134.847 86.7865 131.787C86.6197 127.338 83.2824 130.119 83.4492 133.456ZM101.804 109.928C98.0221 113.321 95.1298 115.212 94.4067 120.441C93.8505 124.39 94.4067 128.339 94.4067 132.288C94.4623 138.963 89.067 145.971 83.2267 138.351C78.9995 132.789 80.5013 124 83.9498 118.383C85.8032 115.297 88.3326 112.673 91.3475 110.707C93.628 109.316 99.9132 106.591 101.804 109.928Z" fill="#182234"/>
<path fill-rule="evenodd" clip-rule="evenodd" d="M49.0186 212.939C48.5736 213.996 47.5725 218.223 49.6305 217.222C51.5216 216.388 50.2979 213.607 49.0186 212.939ZM37.9499 199.868C37.6162 198.255 37.7831 188.299 40.5085 189.078C42.6778 189.69 43.0115 194.751 43.9014 196.531C47.1831 203.15 54.692 207.266 57.2506 214.107C60.1429 221.728 51.4103 221.95 46.7381 218.891C41.2872 215.22 38.1168 206.265 37.9499 199.868Z" fill="#182234"/>
<path fill-rule="evenodd" clip-rule="evenodd" d="M31.2207 158.986C32.3888 157.373 32.5557 156.539 31.8326 155.093C30.9983 156.038 31.1651 157.373 31.2207 158.986ZM32.0551 166.162C25.8254 166.885 25.5473 155.427 26.6041 151.477C27.5793 148.211 29.1233 145.141 31.1651 142.411C31.5545 141.911 35.1143 137.294 35.8373 137.238C38.5628 137.183 37.7841 140.242 37.506 141.41C36.5557 144.847 36.1983 148.421 36.4492 151.978C36.7273 156.205 38.7297 166.328 32.0551 166.162Z" fill="#182234"/>
<path fill-rule="evenodd" clip-rule="evenodd" d="M314.278 66.9882C305.378 74.4415 296.98 82.5067 287.301 89.0144C282.574 92.1848 277.623 95.0215 272.895 98.2476C270.529 99.9178 268.016 101.37 265.387 102.586C263.05 103.643 261.493 103.81 263.44 101.251C264.719 99.5269 267.667 98.3588 269.447 97.1351C272.172 95.2996 274.787 93.186 277.623 91.573C282.685 88.6807 287.746 86.2889 292.419 82.7291C296.59 79.5587 300.873 76.4439 304.822 73.1066C306.547 71.7161 312.164 65.0415 314.278 66.9882Z" fill="#182234"/>
<path fill-rule="evenodd" clip-rule="evenodd" d="M314.445 93.9091C318.45 97.302 308.438 106.702 306.158 108.816C303.766 111.041 301.096 113.043 298.482 115.045C297.536 115.768 292.531 120.441 291.251 120.051C288.748 119.328 292.03 116.269 292.92 115.49C295.701 112.932 298.538 110.429 301.263 107.815C303.71 105.423 306.38 103.254 308.716 100.806C310.663 98.7482 312.276 95.4109 314.445 93.9091Z" fill="#182234"/>
<path fill-rule="evenodd" clip-rule="evenodd" d="M18.3723 231.684C17.3155 229.292 15.48 231.962 16.4256 233.13C17.3155 234.298 18.2055 232.184 18.3723 231.684ZM12.254 226.9C12.8102 223.341 14.0895 221.394 17.4268 224.397C19.7073 226.455 24.3238 232.407 23.8789 235.633C23.3227 239.86 18.6504 238.692 16.2031 236.467C13.7557 234.242 12.6433 230.071 12.254 226.9Z" fill="#182234"/>
<path fill-rule="evenodd" clip-rule="evenodd" d="M19.5395 296.872C15.4791 296.539 11.9749 293.424 10.2507 289.753C8.8045 286.638 7.41396 281.688 12.5311 283.301C15.8684 284.357 28.7727 297.373 19.5395 296.872Z" fill="#182234"/>
<path fill-rule="evenodd" clip-rule="evenodd" d="M69.0426 276.737C65.8722 277.46 62.7574 275.402 60.8106 273.011C59.5869 271.564 56.8059 266.447 58.1964 264.334C60.1988 261.386 63.1467 267.282 64.2035 268.45C65.8166 270.341 71.1006 273.845 69.0426 276.737Z" fill="#182234"/>
<path fill-rule="evenodd" clip-rule="evenodd" d="M71.9348 196.809C69.4874 195.641 67.1513 194.25 66.1502 191.525C65.5383 189.801 64.9821 184.517 67.8188 184.572C71.0449 184.572 78.4981 196.253 71.9348 196.809Z" fill="#182234"/>
<path fill-rule="evenodd" clip-rule="evenodd" d="M54.5798 142.3C57.9171 142.244 58.6958 144.08 59.1408 146.694C59.4745 148.474 60.9763 154.537 59.4189 155.76C57.194 157.54 53.5786 153.48 52.8555 151.867C51.2981 148.585 53.3561 145.359 54.5798 142.3Z" fill="#182234"/>
<path fill-rule="evenodd" clip-rule="evenodd" d="M111.483 323.682C113.096 324.405 116.767 326.018 115.376 328.577C113.93 331.246 109.703 328.632 108.145 327.52C107.478 327.019 103.306 323.849 103.473 322.792C103.862 320.511 109.591 323.459 111.483 323.682Z" fill="#182234"/>
<path fill-rule="evenodd" clip-rule="evenodd" d="M5.18891 158.708C6.30135 161.489 7.52502 170.945 1.74037 165.828C-0.0395181 164.27 -0.317626 162.324 0.294212 160.154C1.18416 157.04 2.46345 157.651 5.18891 158.708Z" fill="#182234"/>
<path fill-rule="evenodd" clip-rule="evenodd" d="M312.887 123.389C311.608 120.774 314.778 119.05 316.447 117.381C317.559 116.269 322.231 110.262 323.733 110.596C326.904 111.263 314.444 122.22 312.887 123.389Z" fill="#182234"/>
<path fill-rule="evenodd" clip-rule="evenodd" d="M54.5253 313.614C57.5289 313.114 58.2519 316.507 60.1987 317.953C61.033 318.565 63.9253 319.121 63.3135 320.456C61.8117 324.016 54.3584 316.006 54.5253 313.614Z" fill="#182234"/>
<path fill-rule="evenodd" clip-rule="evenodd" d="M80.1118 234.187C82.1698 233.297 88.2326 238.025 86.4527 240.027C83.8941 243.031 80.223 235.8 80.1118 234.187Z" fill="#182234"/>
<path fill-rule="evenodd" clip-rule="evenodd" d="M123.996 301.878C122.494 302.045 116.098 300.043 118.434 297.317C120.103 295.426 124.552 300.21 123.996 301.878Z" fill="#182234"/>
<path fill-rule="evenodd" clip-rule="evenodd" d="M47.2934 288.974C45.7916 289.586 40.3407 288.362 42.065 285.97C43.678 283.746 47.2934 287.083 47.2934 288.974Z" fill="#182234"/>
<path fill-rule="evenodd" clip-rule="evenodd" d="M91.7926 299.153C92.1889 299.097 92.5925 299.123 92.9784 299.229C93.3644 299.334 93.7247 299.518 94.0372 299.768C94.3498 300.018 94.6079 300.329 94.7958 300.682C94.9837 301.036 95.0974 301.424 95.1299 301.823C92.9051 302.156 92.2376 301.6 91.7926 299.153Z" fill="#182234"/>
<path fill-rule="evenodd" clip-rule="evenodd" d="M502.168 200.703C502.502 201.926 502.001 202.149 500.611 201.314C501.111 201.092 501.668 200.869 502.168 200.703Z" fill="#182234"/>
<path fill-rule="evenodd" clip-rule="evenodd" d="M364.895 208.212C363.949 208.935 363.059 209.046 362.114 208.156C363.004 208.156 363.949 208.212 364.895 208.212Z" fill="#182234"/>
<path fill-rule="evenodd" clip-rule="evenodd" d="M344.035 113.377C344.035 114.322 343.98 115.212 343.98 116.158C344.035 115.212 344.035 114.267 344.035 113.377Z" fill="#182234"/>
<path fill-rule="evenodd" clip-rule="evenodd" d="M392.149 27.5525H389.368C390.265 27.2187 391.252 27.2187 392.149 27.5525Z" fill="#182234"/>
<path fill-rule="evenodd" clip-rule="evenodd" d="M120.159 16.2057C119.213 16.2613 118.323 16.317 117.378 16.3726C118.268 16.317 119.213 16.2613 120.159 16.2057Z" fill="#182234"/>
<path fill-rule="evenodd" clip-rule="evenodd" d="M142.965 16.3726C142.241 16.317 141.463 16.2613 140.74 16.2057C141.463 16.2613 142.186 16.317 142.965 16.3726Z" fill="#182234"/>
<path fill-rule="evenodd" clip-rule="evenodd" d="M155.2 17.2625C154.857 17.4407 154.475 17.5337 154.088 17.5337C153.701 17.5337 153.319 17.4407 152.976 17.2625H155.2Z" fill="#182234"/>
<path fill-rule="evenodd" clip-rule="evenodd" d="M89.0108 18.8199C88.0653 18.9868 87.1753 19.2093 86.2298 19.3761C87.1197 19.1536 88.0653 18.9868 89.0108 18.8199Z" fill="#182234"/>
<path fill-rule="evenodd" clip-rule="evenodd" d="M344.592 245.2C344.592 245.756 344.536 246.312 344.536 246.869C344.592 246.312 344.592 245.756 344.592 245.2Z" fill="#182234"/>
<path fill-rule="evenodd" clip-rule="evenodd" d="M38.1173 200.146C38.1081 200.518 38.1267 200.89 38.173 201.259C38.1281 200.89 38.1095 200.518 38.1173 200.146Z" fill="#182234"/>
<path fill-rule="evenodd" clip-rule="evenodd" d="M505.616 198.144H502.835C503.232 197.833 503.722 197.664 504.226 197.664C504.73 197.664 505.22 197.833 505.616 198.144Z" fill="#182234"/>
<path fill-rule="evenodd" clip-rule="evenodd" d="M315.391 194.195C314.668 194.084 313.889 193.972 313.166 193.805C313.889 193.972 314.612 194.084 315.391 194.195Z" fill="#182234"/>
<path fill-rule="evenodd" clip-rule="evenodd" d="M111.816 323.626C110.871 323.459 109.981 323.237 109.035 323.07L111.816 323.626Z" fill="#182234"/>
<path fill-rule="evenodd" clip-rule="evenodd" d="M298.983 163.992C298.983 163.436 298.927 162.88 298.927 162.324C298.983 162.88 298.983 163.436 298.983 163.992Z" fill="#182234"/>
<path fill-rule="evenodd" clip-rule="evenodd" d="M280.349 377.802C280.739 377.802 281.072 377.857 281.462 377.857C281.072 377.857 280.683 377.802 280.349 377.802Z" fill="#182234"/>
<path fill-rule="evenodd" clip-rule="evenodd" d="M398.267 28.0531C397.322 27.9975 396.432 27.9418 395.486 27.8306C396.376 27.9418 397.322 27.9975 398.267 28.0531Z" fill="#182234"/>
<path fill-rule="evenodd" clip-rule="evenodd" d="M367.897 140.075C367.897 141.021 367.953 141.911 367.953 142.856C367.953 141.911 367.953 140.965 367.897 140.075Z" fill="#182234"/>
<path fill-rule="evenodd" clip-rule="evenodd" d="M299.817 339.2C299.094 339.2 298.315 339.2 297.592 339.145C298.315 339.145 299.094 339.2 299.817 339.2Z" fill="#182234"/>
<path fill-rule="evenodd" clip-rule="evenodd" d="M378.8 44.5171C379.912 44.4059 381.025 44.2946 382.137 44.1278C381.08 45.0733 379.912 44.4615 378.8 44.5171Z" fill="#182234"/>
<path fill-rule="evenodd" clip-rule="evenodd" d="M274.453 349.212C274.453 350.158 274.508 351.048 274.564 351.993C274.508 351.048 274.508 350.102 274.453 349.212Z" fill="#182234"/>
<path fill-rule="evenodd" clip-rule="evenodd" d="M359.332 78.6688C360.055 78.6132 360.834 78.5575 361.557 78.4463C360.89 78.9469 360.055 78.6688 359.332 78.6688Z" fill="#182234"/>
<path fill-rule="evenodd" clip-rule="evenodd" d="M116.266 226.622C116.989 226.733 117.767 226.9 118.49 227.012C117.712 226.9 116.989 226.733 116.266 226.622Z" fill="#182234"/>
<path fill-rule="evenodd" clip-rule="evenodd" d="M231.959 80.2818C232.904 79.5031 233.794 79.5587 234.74 80.2818H231.959Z" fill="#182234"/>
<path fill-rule="evenodd" clip-rule="evenodd" d="M197.139 108.371C197.139 107.981 197.194 107.648 197.194 107.258C197.202 107.63 197.184 108.002 197.139 108.371Z" fill="#182234"/>
<path d="M126.113 219.1C122.72 221.158 128.06 222.493 130.062 221.547C132.788 220.323 128.06 217.932 126.113 219.1Z" fill="#182234"/>
<path d="M113.598 203.192C111.429 203.192 112.541 207.753 113.598 208.532C115.489 209.922 116.324 203.247 113.598 203.192Z" fill="#182234"/>
<path d="M127.726 206.64C130.229 206.918 129.673 200.967 127.392 200.8C124.444 200.578 124.889 206.307 127.726 206.64Z" fill="#182234"/>
<path d="M120.145 214.644C113.415 213.086 116.808 205.577 119.923 201.906C120.366 202.406 120.68 203.008 120.835 203.658C120.99 204.308 120.983 204.986 120.813 205.633C120.59 206.745 119.311 208.525 119.867 209.638C120.924 211.696 124.984 210.305 126.764 210.416C129.768 210.583 130.547 214.477 127.543 215.311C125.485 215.867 122.259 215.089 120.145 214.644Z" fill="#182234"/>
</svg>
