<svg width="534" height="330" viewBox="0 0 534 330" fill="none" xmlns="http://www.w3.org/2000/svg">
<path fill-rule="evenodd" clip-rule="evenodd" d="M351.085 225.201C349.172 227.398 346.323 229.045 344.154 231.073C341.858 233.185 339.392 235.044 337.096 237.156C327.061 224.948 313.284 217.471 301.378 207.374C295.723 202.559 291.556 196.053 288.537 189.379C286.991 185.968 285.781 182.417 284.923 178.776C284.498 177.128 284.115 175.481 283.86 173.833C283.52 171.805 283.435 171.637 282.074 170.074C281.479 169.398 280.331 167.412 279.182 167.623C278.204 167.792 276.419 170.749 275.823 171.468C272.889 174.974 269.998 178.564 266.894 181.902C262.132 187.055 257.794 192.082 253.372 197.532C244.358 208.684 234.578 219.16 224.756 229.637C224.033 230.397 222.332 232.678 221.269 233.016C219.993 233.396 217.91 231.833 216.634 230.988C213.53 228.876 211.107 226.299 208.47 223.723C203.325 218.653 199.796 211.557 197.457 204.798C196.054 200.742 195.119 196.56 193.673 192.505C193.078 190.815 191.675 188.745 192.397 187.309C192.61 186.886 193.928 185.704 194.396 185.619C194.949 185.535 195.884 186.253 196.054 186.21C197.883 185.704 196.862 183.803 197.968 182.789C198.563 182.197 201.709 182.282 202.645 181.986C206.089 180.803 209.151 178.607 212.382 177.255C225.946 171.679 239.638 166.272 251.331 157.189C254.35 154.824 256.391 153.049 260.006 151.529C263.662 150.008 267.319 148.614 271.061 147.262C274.335 146.049 277.67 145.005 281.053 144.136C284.71 143.207 289.94 142.066 293.64 143.249C300.868 145.572 303.207 151.486 306.056 157.696C309.925 166.145 314.645 174.087 319.747 181.859C329.612 196.771 341.518 210.162 351.085 225.201" fill="#FB7B41"/>
<path fill-rule="evenodd" clip-rule="evenodd" d="M133.757 92.5754C133.373 92.3628 130.265 93.6386 129.755 93.8087C127.668 94.5742 125.71 95.85 123.752 96.9132C125.242 98.7419 126.774 100.571 128.264 102.399C129.712 98.827 131.585 95.85 133.757 92.5754V92.5754ZM134.778 115.03C134.267 115.073 138.567 125.449 139.078 126.598C140.909 130.85 142.825 135.018 144.698 139.228C146.486 143.311 148.785 147.096 151.084 150.923C153.043 154.198 155.086 159.259 158.066 161.683C156.193 153.39 156.449 143.821 151.042 136.847C145.464 129.66 139.972 122.6 134.778 115.03V115.03ZM351.353 225.857C343.008 212.674 332.577 201.021 323.892 188.093C319.039 180.863 314.313 173.506 310.184 165.808C307.203 160.194 305.373 152.199 300.775 147.904C298.731 146.033 296.602 144.162 293.878 143.311C290.174 142.163 285.022 143.311 281.276 144.204C274.294 145.905 267.482 148.542 260.883 151.349C254.199 154.156 248.494 159.259 242.448 163.299C235.977 167.679 228.952 170.869 221.672 173.633C215.328 176.057 209.709 179.545 203.408 181.969C202.173 182.436 199.576 182.394 198.554 183.032C197.405 183.712 197.873 185.754 196.511 186.477C195.872 186.817 195.702 185.584 195.191 185.626C194.595 185.669 194.084 186.349 193.531 186.774C191.232 188.518 192.637 189.709 193.531 192.133C196.468 200.043 198.086 208.081 202.216 215.566C205.672 221.775 210.472 227.137 216.265 231.258C217.159 231.896 219.969 234.278 221.033 234.108C221.97 233.98 223.843 231.514 224.482 230.833C227.377 227.814 230.017 224.539 232.912 221.519C237.382 216.841 241.682 212.036 246.024 207.315C251.048 201.829 255.518 195.578 260.031 189.709C262.117 186.987 264.8 184.818 267.099 182.309C270.206 178.949 273.059 175.292 276.039 171.805C276.933 170.741 278.423 168.02 279.828 168.062C280.807 168.105 282.51 170.359 283.021 171.082C284.895 173.761 284.895 178.566 285.831 181.884C288.13 190.006 292.26 197.959 297.965 204.211C303.627 210.462 310.865 214.885 317.549 219.903C324.786 225.347 331.641 230.876 337.388 237.893C339.687 235.766 342.157 233.938 344.456 231.769C346.584 229.727 349.437 228.069 351.353 225.857V225.857ZM244.151 263.154C245.769 263.154 248.494 264.175 249.941 263.579C245.641 258.816 241.682 254.734 236.275 251.289C230.613 247.674 224.993 244.102 219.543 240.232C208.517 232.449 200.385 223.263 195.744 210.335C194.552 207.018 193.743 203.53 192.892 200.085C192.424 198.257 191.487 189.624 189.912 188.858C188.975 188.433 181.908 193.366 180.801 194.004C178.217 195.383 175.56 196.618 172.84 197.704C167.009 200.103 161.003 202.051 154.873 203.53C147.465 205.401 142.442 202.297 137.886 196.513C132.692 189.921 128.392 182.522 123.624 175.59C121.493 172.514 119.641 169.255 118.089 165.851C117.025 163.597 112.895 157.473 114.343 155.049C118.43 158.153 119.877 164.32 122.687 168.487C126.136 173.676 130.053 178.566 133.544 183.712C136.481 188.05 139.461 193.324 143.804 196.471C147.593 199.235 151.212 198.384 155.299 197.151C160.28 195.663 165.389 194.897 170.285 193.068C175.564 191.07 180.545 188.22 185.654 185.881C188.039 184.818 190.934 184.18 193.19 182.819C195.148 181.671 194.85 181.033 194.978 178.566C195.148 175.675 195.319 172.783 195.446 169.891C195.532 167.935 194.467 165.298 195.191 163.852C189.358 164.873 183.653 166.233 177.863 167.424C174.713 168.062 171.647 168.87 168.454 169.423C167.22 169.636 165.559 169.593 164.452 170.146C163.601 169.891 163.133 170.061 163.133 170.614C163.082 170.916 163.011 171.214 162.92 171.507C161.132 172.315 160.11 170.571 158.535 168.913C156.699 166.827 155.099 164.545 153.766 162.108C150.616 156.707 146.997 151.604 144.102 146.033C141.122 140.334 138.738 134.253 136.226 128.384C133.927 122.983 132.437 117.114 129.925 111.84C128.781 109.569 127.35 107.454 125.667 105.546C124.263 103.888 122.134 100.358 120.09 99.5925C119.537 99.3798 118.089 99.72 117.493 99.6775C116.259 99.5925 115.152 99.1247 113.874 99.2522C111.107 99.4649 108.127 101.209 105.956 102.74C107.361 104.015 110.937 105.546 108.382 107.8C105.913 110.012 104.551 106.057 103.614 104.313C99.1864 107.97 99.825 112.989 99.3141 118.135C99.0587 120.814 98.3349 123.493 97.8666 126.13C97.526 128.044 97.7815 130 97.6963 131.956C97.4409 136.889 96.9725 141.652 96.9725 146.501C97.0151 151.731 97.3557 156.75 97.7815 161.938C98.5052 170.656 100.08 179.374 101.485 188.008C102.252 192.856 103.316 197.576 104.338 202.382C105.53 207.826 107.659 212.929 108.893 218.372C110.128 216.799 111.065 216.799 113.066 217.012C114.598 217.182 115.62 216.799 115.535 218.925C115.492 220.329 114.258 221.349 112.895 221.605C111.15 221.902 110.511 221.052 109.617 219.691C109.404 222.2 111.107 224.879 111.788 227.346C112.427 229.685 112.853 231.981 113.917 234.235C114.981 236.404 115.875 238.573 116.897 240.742C117.366 241.72 117.834 242.741 118.345 243.761C118.591 244.327 118.891 244.868 119.239 245.378C120.09 246.356 119.963 245.888 120.984 246.441C123.198 247.674 122.389 247.376 122.432 249.928C122.474 252.437 123.752 254.266 125.838 255.712C130.223 258.689 134.565 259.539 139.547 261.07C144.187 262.474 149.083 263.707 154.022 263.664C160.067 263.622 165.985 262.856 172.031 262.771C178.672 262.686 185.399 262.729 192.04 262.941C194.765 263.027 197.32 263.154 199.959 263.835C203.025 264.643 206.005 264.345 209.155 264.217C215.882 263.962 222.864 263.452 229.506 263.367C234.274 263.197 239.34 262.856 244.151 263.154V263.154ZM418.918 265.748C420.11 266.386 422.792 266.131 424.027 265.961C426.155 265.663 426.368 264.813 427.731 262.941C430.03 259.667 431.945 256.562 433.308 252.777C435.905 245.548 436.969 238.19 438.119 230.62C439.396 222.242 437.054 213.524 436.245 205.189C436.075 203.275 435.777 201.404 435.479 199.49C435.309 198.342 435.266 194.514 434.5 193.536C433.052 191.665 426.368 193.153 423.771 193.324C416.448 193.791 409.083 193.919 401.76 194.004C397.844 194.047 393.927 194.217 390.053 194.259C388.264 194.259 386.561 194.174 384.773 194.004C384.177 193.962 383.581 193.791 382.985 193.791C380.942 193.664 381.069 193.366 380.559 195.195C379.622 198.384 380.346 202.425 380.09 205.742C379.75 210.165 379.579 214.63 379.664 219.053C379.75 223.136 379.579 227.218 379.75 231.343C379.806 232.937 380.035 234.519 380.431 236.064C380.942 237.893 381.495 242.188 382.772 243.464C382.9 243.591 384.007 243.251 384.262 243.634C384.688 244.187 384.603 245.378 384.944 245.718C385.923 246.866 387.924 246.951 389.414 247.504C393.343 248.896 397.182 250.53 400.909 252.395C404.272 254.096 409.722 255.584 411.765 258.986C412.702 260.56 412.83 262.601 413.681 264.217C414.66 266.046 412.702 265.11 415.086 265.833C416.108 266.089 417.853 265.748 418.918 265.748V265.748ZM62.7004 245.037C62.4024 249.248 60.0182 253.288 59.1668 257.455C58.7836 259.412 58.1024 261.325 57.6767 263.239C57.2509 265.11 55.6757 267.279 55.8034 269.108C61.6361 267.024 67.5539 266.514 73.642 265.961C79.432 265.451 85.5201 265.238 91.2676 265.195C97.1003 265.195 103.359 264.643 109.362 264.515C115.663 264.43 122.049 264.26 128.222 263.622C124.986 261.24 120.942 258.986 118.515 255.627C115.918 252.012 114.556 247.461 112.257 243.634C107.659 235.936 104.721 226.41 102.337 217.777C97.4834 200.341 92.034 183.245 90.7142 165.17C88.2023 166.446 86.2439 171.379 85.0092 173.846C83.434 176.993 82.5825 180.395 81.5607 183.755C79.432 190.644 77.9419 197.789 75.3449 204.593C70.4063 217.692 67.2133 231.769 62.7004 245.037V245.037ZM379.494 143.524C380.559 151.306 382.857 159.216 382.943 167.084C382.943 168.828 382.687 170.741 383.028 172.442C383.411 174.271 384.688 175.887 385.412 177.631C386.561 180.395 389.499 186.051 386.647 188.348C386.604 186.136 384.56 183.33 383.539 181.373C382.006 178.439 379.962 175.802 378.302 172.953C374.84 166.928 370.85 161.222 366.381 155.899C361.996 150.796 356.93 146.245 352.289 141.355C350.884 139.909 339.687 125.79 339.219 126.002C342.71 139.398 348.628 151.051 356.717 162.278C360.676 167.764 365.445 171.379 370.298 176.057C374.3 179.927 381.921 184.095 380.516 190.432C386.817 189.836 393.033 188.858 399.376 188.858C398.312 180.82 397.546 172.953 395.672 165.043C393.544 156.069 392.139 146.841 390.351 137.825C388.52 128.596 385.412 119.666 383.496 110.437C381.665 101.634 380.048 92.8306 378.728 83.8997C377.621 88.8329 378.004 94.2765 377.621 99.2948C377.252 104.418 377.181 109.558 377.408 114.69C377.578 124.429 378.6 133.912 379.494 143.524V143.524ZM406.742 97.6362C406.784 93.511 407.593 89.4709 407.806 85.3457C407.891 84.0698 409.126 75.4792 407.976 75.054C406.997 77.1378 406.784 79.8596 405.89 82.0285C404.996 84.24 403.847 86.3238 402.995 88.5353C401.164 93.3409 400.568 98.7844 400.355 103.888C399.93 115.455 399.674 126.938 400.441 138.505C400.781 143.439 401.037 148.414 400.951 153.39C400.866 158.834 400.015 163.597 401.037 168.998C402.027 174.324 402.681 179.707 402.995 185.116C403.25 188.943 403.336 188.646 406.954 188.39C409.594 188.178 412.234 188.39 414.873 188.263C413.639 173.378 413.426 158.493 411.467 143.651C410.445 136.081 410.446 128.426 409.168 120.899C408.53 117.156 407.508 113.499 406.912 109.757C406.358 105.716 406.699 101.676 406.742 97.6362V97.6362ZM140.185 88.2801C147.21 88.8755 154.66 91.0019 161.855 89.5984C160.663 89.1306 157.555 88.4502 158.96 86.579C160.365 84.6652 162.792 87.0893 164.197 86.8341C165.091 86.664 167.007 83.0492 167.518 82.2837C168.752 80.5826 168.88 80.2849 171.094 79.8171C173.223 79.3918 173.691 79.8596 173.989 77.7332C174.287 75.3091 173.478 72.5874 173.521 70.0782C173.691 64.7197 175.437 60.0417 177.054 55.0234C170.243 56.5119 163.558 58.2555 156.576 59.2336C153.596 59.6589 148.956 60.5945 146.231 58.5532C145.507 58.0429 145.635 57.3199 145.081 56.682C143.932 55.5473 142.51 54.7271 140.952 54.3004C132.522 52.5143 131.67 64.5496 135.928 69.0576C136.992 70.2058 138.482 70.7587 139.547 71.7793C140.994 73.1402 141.122 74.6287 141.335 76.7125C141.78 80.6489 141.147 84.6321 139.504 88.2376L140.185 88.2801ZM242.704 145.097C245.215 145.565 247.813 145.48 250.282 145.863C251.176 145.99 253.815 146.501 254.624 145.99C255.816 145.182 256.242 142.29 256.796 140.929C257.775 138.548 259.18 136.464 260.116 134.04C263.991 124.131 267.567 114.222 272.25 104.653C270.462 104.185 269.1 104.185 267.269 103.93C265.396 103.675 263.693 102.569 261.905 102.102C260.202 101.634 258.413 101.761 256.711 101.251C255.774 100.953 254.965 100.315 254.071 100.103C252.623 99.7626 250.92 99.5499 250.026 100.486C249.132 101.464 248.834 104.185 248.323 105.419C247.046 108.821 245.514 112.053 244.449 115.54C243.47 118.645 242.533 121.749 241.682 124.896C240.788 128.214 239 130.978 237.893 134.168C237.084 136.592 236.275 139.058 236.147 141.652C236.019 144.162 235.679 144.332 238.191 144.714C239.553 144.885 241.512 145.65 242.704 145.097V145.097ZM406.827 262.941C407.114 263.09 407.437 263.156 407.76 263.134C408.083 263.111 408.393 263.001 408.657 262.814C403.038 260.432 397.546 257.158 391.67 255.499C386.178 253.968 380.814 252.139 375.492 250.268C371.192 248.737 367.318 247.546 363.401 244.867C361.014 243.318 358.947 241.326 357.313 238.998C355.482 236.319 355.099 232.534 353.141 230.153C350.501 233.044 347.393 235.256 344.243 237.552C343.178 238.36 340.539 240.104 340.198 241.337C339.73 242.911 340.965 244.399 341.603 245.973C343.178 250.013 343.987 254.053 344.839 258.263C345.179 259.965 345.946 262.474 347.308 263.197C348.585 263.835 352.204 263.367 353.779 263.239C361.954 262.601 370 262.006 378.259 262.559C387.583 263.197 397.546 263.622 406.827 262.941V262.941ZM423.175 188.05C424.665 188.05 426.113 187.88 427.603 187.88C426.751 183.882 428.752 178.737 429.476 174.739C430.285 170.274 430.881 165.681 431.392 161.173C432.485 151.771 433.025 142.314 433.01 132.849C433.01 123.621 434.713 115.2 437.054 106.312C439.566 96.7856 443.738 88.2376 447.144 79.0516C443.398 81.0504 441.312 85.6859 439.353 89.2157C436.877 93.7504 435.125 98.6433 434.159 103.718C432.201 113.414 430.03 123.153 427.773 132.849C425.432 142.928 424.027 153.135 421.302 163.129C419.982 168.02 418.194 174.016 418.109 179.034C418.066 181.118 417.428 185.498 418.364 187.285C419.301 188.986 421.259 188.22 423.175 188.05V188.05ZM198.597 175.504C198.512 176.525 198.427 177.546 198.256 178.566C200.3 178.566 202.939 176.398 204.685 175.462C206.856 174.314 208.985 172.995 211.114 171.847C215.201 169.593 219.799 168.105 224.141 166.233C229.123 164.107 233.72 161.513 238.489 158.919C240.149 158.026 252.113 152.837 251.942 151.434C249.303 151.349 246.706 151.264 244.066 151.179C241.81 151.094 238.318 151.604 236.147 150.923C234.955 150.541 233.635 149.137 233.21 148.032C232.784 146.926 233.763 141.95 233.167 141.61C230.229 144.629 228.356 148.584 225.759 151.817C222.864 155.389 219.118 157.473 214.945 159.386C210.39 161.47 205.622 163.129 200.981 164.915C199.023 165.681 199.065 166.106 198.895 168.275C198.639 170.656 198.682 173.08 198.597 175.504V175.504ZM436.118 266.259C441.056 266.769 446.165 266.471 451.146 266.897C452.977 267.067 455.489 267.279 453.658 269.703C452.509 271.234 448.805 270.767 447.144 270.852C442.674 271.149 437.906 270.979 433.393 270.937C432.456 270.937 431.392 270.639 430.455 270.724C429.348 270.809 428.029 271.575 427.007 271.575C426.368 271.575 426.155 270.937 425.644 270.852C424.485 270.717 423.32 270.646 422.153 270.639C404.357 270.639 386.817 270.299 369.064 270.256C360.591 270.256 351.949 270.086 343.476 269.703C341.688 269.618 331.556 270.001 331.811 266.769C331.939 265.11 335.26 264.898 336.494 264.728C337.388 264.6 338.325 264.6 339.219 264.558C341.603 264.43 342.668 264.983 342.157 262.389C340.241 252.522 336.835 244.357 329.512 237.255C323.552 231.428 316.357 226.198 309.588 221.307C301.371 215.395 294.729 209.229 289.833 200.213C286.981 194.94 284.597 189.581 283.149 183.755C282.638 181.671 282.596 179.289 281.957 177.248C281.446 175.675 280.339 174.611 279.658 172.995C271.484 186.604 260.67 198.044 250.75 210.335C245.915 216.257 240.62 221.789 234.913 226.878C233.252 228.409 231.677 229.982 230.102 231.599C228.782 232.959 226.696 234.193 225.589 235.681C224.524 237.127 224.78 237.085 226.398 238.233C228.526 239.764 230.911 241.04 233.082 242.528C236.573 244.91 240.362 246.909 243.47 249.758C246.833 252.862 249.771 256.435 252.709 259.922C254.667 262.261 257.221 265.238 257.732 268.172C257.903 269.151 258.499 271.532 257.69 272.255C257.009 272.85 257.051 272.638 256.2 272.255C255.05 271.787 254.71 270.639 253.347 270.129C249.813 268.768 245.514 269.236 241.81 269.236C238.106 269.236 234.402 269.618 230.698 269.618C222.268 269.576 214.009 270.256 205.579 270.639C196.638 271.022 187.57 270.086 178.63 270.214C172.031 270.299 165.219 269.831 158.45 270.171C154.958 270.341 151.51 269.916 148.104 269.873C143.634 269.788 139.078 270.426 134.565 270.511C127.158 270.639 119.877 270.639 112.47 270.852C96.4617 271.234 80.5815 271.617 64.5737 271.872C62.445 271.915 60.1034 271.83 57.9747 272.085C55.7183 272.34 56.9103 272.808 55.3777 273.616C51.0777 275.87 52.0569 267.534 52.1846 265.876C52.7381 257.073 54.9945 248.44 57.6767 240.104C60.2311 232.194 62.3172 223.901 64.4459 215.778C66.8301 206.932 69.8954 198.427 72.7053 189.624C75.5578 180.65 77.8994 171.294 83.0934 163.342C84.2855 161.513 85.5201 159.557 87.3934 158.408C89.5221 157.132 89.6072 157.855 89.6072 155.516C89.6072 153.305 89.735 150.371 89.2241 148.244C88.7557 146.33 88.8409 147.479 87.7765 146.118C86.9251 145.012 85.9884 144.247 85.3924 142.886C81.5607 146.756 72.833 144.714 69.1717 141.95C64.6588 138.548 61.2103 132.807 59.9757 127.321C58.9539 122.94 60.1885 114.562 65.0846 112.436C67.4687 111.415 76.1538 110.607 76.537 107.29C76.7073 105.546 73.642 103.122 72.9608 101.634C71.5236 98.6476 70.5338 95.4665 70.0232 92.1926C69.2994 86.2813 71.9816 79.6895 76.2815 75.6919C84.1152 68.3771 97.9092 64.6347 107.999 69.2702C105.871 61.1474 104.593 54.1303 105.658 45.6673C106.594 38.3951 110.894 34.3124 116.812 30.655C126.902 24.446 140.654 22.0219 152.234 23.808C154.873 24.2333 157.385 25.0839 159.812 25.8068C163.346 26.8275 167.56 26.4873 170.924 28.1459C173.35 29.3367 175.181 31.7182 177.31 33.2917C179.779 35.163 181.865 37.9273 183.568 40.4789C187.272 45.965 185.825 56.1291 182.717 61.6152C182.079 62.7726 181.21 63.786 180.162 64.5921C179.013 65.4427 177.267 65.6979 176.714 66.7611C175.224 69.5254 176.671 75.5643 176.842 78.5838C177.054 82.071 175.309 84.7078 171.349 84.9629C169.05 85.133 168.965 83.8147 167.901 86.5364C167.177 88.3226 166.539 90.2364 165.517 91.8524C163.388 95.2121 159.514 94.8719 155.98 94.7868C151.893 94.7018 147.849 94.0213 143.761 93.6386C144.826 97.0833 147.806 99.7626 149.637 102.867C152.149 107.035 153.639 110.48 154.064 115.328C154.362 119.07 153.724 122.005 151.127 124.769C150.062 125.917 149.126 125.96 149.381 127.321C149.552 128.129 150.956 129.447 151.425 130.127C152.745 131.828 154.277 133.402 155.427 135.231C159.854 142.248 161.174 152.965 161.174 161.13C161.174 161.513 161.387 162.321 161.217 162.704C161.089 163.001 160.152 163.894 160.152 163.979C159.982 165.043 161.004 166.829 162.622 166.999C164.325 167.169 167.39 165.766 168.965 165.298C171.477 164.575 174.032 164.022 176.544 163.256C180.588 162.023 184.633 161.045 188.762 160.067C190.636 159.642 192.509 159.259 194.382 158.876C196.511 158.408 197.49 157.515 198.597 159.684C199.534 161.555 198.937 161.896 201.236 160.96C203.493 160.024 205.707 158.876 207.921 157.813C211.837 155.984 216.478 154.326 219.841 151.604C225.461 147.053 227.547 139.781 232.912 134.976C234.402 133.615 235.296 133.615 236.232 131.743C237.254 129.745 237.765 127.193 238.318 125.024C239.255 121.282 239.936 117.497 240.745 113.754C241.81 109.076 244.066 104.823 245.726 100.4C246.365 98.6569 246.706 96.4454 247.77 94.8719C248.025 94.4466 248.579 94.234 248.792 93.8937C249.515 92.703 249.515 92.4053 249.728 90.9593C250.622 84.325 254.582 87.8123 258.882 89.3433C260.712 89.9812 269.355 94.1064 266.034 96.8707C269.951 98.0189 276.252 97.381 276.209 103.037C276.167 105.929 274.464 108.991 273.527 111.713C272.718 114.094 271.909 116.519 271.058 118.9C269.227 124.131 267.013 129.234 265.225 134.508C264.416 136.889 263.735 139.356 262.586 141.61C261.564 143.609 259.18 145.82 258.754 147.989C269.227 143.524 278.934 137.059 290.685 137.485C295.836 137.655 300.477 139.824 303.329 144.332C306.905 149.988 309.247 156.324 312.695 162.023C325.34 182.777 340.411 201.659 354.333 221.562C355.397 223.093 356.76 224.539 357.143 226.41C357.398 227.643 356.93 228.877 357.185 230.068C357.781 232.534 360.804 235.596 362.89 237C366.85 239.721 373.236 243.549 378.174 243.209C375.066 235.809 375.109 227.686 375.279 219.733C375.407 212.206 376.216 204.764 377.195 197.321C377.365 195.67 377.664 194.035 378.089 192.431C378.643 190.559 379.409 190.729 377.749 189.071C375.194 186.477 372.129 184.35 369.574 181.714C363.997 176.057 358.25 171.592 353.865 164.83C349.692 158.408 345.265 151.774 342.199 144.714C339.006 137.442 337.729 129.702 336.154 122.005C335.515 118.9 333.174 115.413 333.642 112.138C334.238 108.013 336.154 111.032 336.92 113.244C339.304 120.006 344.839 126.045 349.479 131.488C354.461 137.357 360.549 142.29 365.743 147.989C371.405 154.198 375.279 161.343 380.303 167.977C380.303 159.727 377.493 151.349 376.344 143.226C375.322 136.039 375.024 128.852 374.385 121.664C372.938 105.291 374.172 88.4927 376.216 72.2471C377.195 64.5496 376.642 57.0222 376.684 49.2822C376.684 46.8155 375.662 41.1594 376.982 38.9479C379.494 34.7802 380.942 43.9237 381.069 45.2846C381.836 53.4073 380.473 61.4451 381.155 69.5679C381.878 78.0309 383.454 86.2388 384.773 94.5742C386.221 103.633 388.562 112.478 390.819 121.324C393.16 130.638 395.161 140.164 397.801 149.392C398.525 146.501 397.503 142.928 397.333 139.951C397.035 135.699 396.524 131.488 396.439 127.235C396.353 120.474 396.311 113.584 396.694 106.865C397.077 100.23 396.95 93.2558 398.993 86.8767C400.044 83.8418 401.31 80.8857 402.782 78.0309C404.485 74.5011 405.081 71.0989 406.06 67.3564C406.869 64.1243 408.061 61.0198 408.615 57.7452C408.955 55.7038 409.892 49.7074 412.234 54.2579C413.596 56.8946 413 60.8072 413.043 63.6565C413.085 67.3139 412.532 70.8437 412.446 74.4586C412.276 81.5607 412.148 88.6628 411.638 95.765C411.09 102.952 411.549 110.181 413 117.241C414.533 125.279 415.001 133.317 415.81 141.482C416.236 145.693 416.917 149.86 417.257 154.071C417.428 156.282 416.534 162.704 418.109 164.277C418.279 160.407 419.386 156.537 420.195 152.795C421.174 148.329 421.6 143.651 422.324 139.143C423.516 131.828 425.815 124.811 427.347 117.582C430.498 102.654 433.095 83.4745 446.25 73.7356C447.953 72.4598 449.869 71.5242 451.742 70.461C452.807 69.8656 454.382 68.3346 455.574 68.0369C456.894 67.7392 457.447 67.9518 457.958 69.4828C458.682 71.6092 457.362 72.5874 456.085 74.1609C451.7 79.5194 449.827 86.3663 447.102 92.6179C440.886 106.95 438.119 122.09 438.119 137.612C438.062 145.642 437.579 153.662 436.671 161.64C435.735 170.316 434.5 179.502 431.86 187.88C434.5 188.475 437.395 187.582 438.119 190.644C438.289 191.41 437.991 192.303 438.161 193.281C438.416 194.249 438.728 195.2 439.098 196.13C439.614 198.056 439.984 200.018 440.205 201.999C441.269 209.697 443.057 217.054 443.27 224.879C443.44 232.109 442.035 239.424 440.716 246.526C439.396 253.67 435.607 259.752 432.669 266.216C433.563 266.216 434.84 266.216 436.118 266.259V266.259Z" fill="#182234"/>
<path fill-rule="evenodd" clip-rule="evenodd" d="M267.949 249.801C266.544 250.183 259.732 250.949 259.732 253.075C259.732 254.351 266.544 254.308 267.736 254.479C267.821 252.948 267.906 251.374 267.949 249.801ZM282.978 264.515C286.895 265.281 292.216 264.217 294.728 260.773C295.92 259.157 296.474 256.69 296.857 254.776C297.24 252.948 298.347 248.355 297.581 246.653C296.644 244.527 287.618 246.739 285.021 246.994C280.406 247.412 275.766 247.469 271.142 247.164C271.142 251.884 270.887 256.477 273.697 260.56C275.655 263.494 279.401 264.175 282.978 264.515V264.515ZM282.211 270.384C277.954 268.81 273.484 269.831 270.716 265.281C270.003 264.119 269.432 262.877 269.013 261.581C268.793 261.019 268.636 260.434 268.545 259.837C268.758 258.561 268.29 258.221 267.14 258.774C264.884 258.349 262.414 259.88 260.03 259.412C254.283 258.306 255.305 250.056 259.179 247.206C259.945 246.653 260.711 246.483 261.563 246.186C263.479 245.59 264.543 246.271 266.289 246.101C267.736 245.973 268.119 244.485 269.652 243.804C270.674 243.379 272.036 243.421 273.101 243.379C278.635 243.166 284.17 243.166 289.704 242.783C292.301 242.613 295.111 243.039 297.623 242.571C298.815 242.358 298.645 241.593 299.752 242.273C300.901 242.996 300.433 245.633 300.348 246.696C300.007 252.82 299.624 259.369 296.346 264.728C293.366 269.618 287.448 270.129 282.211 270.384" fill="#182234"/>
<path fill-rule="evenodd" clip-rule="evenodd" d="M57.25 272.043C58.6124 272.043 59.9747 272 61.3371 272C59.9747 272.043 58.6124 272.043 57.25 272.043" fill="#182234"/>
<path fill-rule="evenodd" clip-rule="evenodd" d="M375.276 217.139C375.234 217.99 375.191 218.883 375.148 219.733C375.148 218.883 375.191 217.99 375.276 217.139Z" fill="#182234"/>
<path fill-rule="evenodd" clip-rule="evenodd" d="M436.121 266.259C435.27 266.259 434.418 266.259 433.609 266.216C434.007 266.044 434.437 265.959 434.87 265.966C435.303 265.974 435.73 266.073 436.121 266.259" fill="#182234"/>
<path fill-rule="evenodd" clip-rule="evenodd" d="M361.316 270.086C361.912 270.086 362.509 270.086 363.105 270.043C362.551 270.043 361.912 270.043 361.316 270.086Z" fill="#182234"/>
<path fill-rule="evenodd" clip-rule="evenodd" d="M437.438 152.199C437.438 151.561 437.48 150.881 437.48 150.243C437.48 150.923 437.48 151.561 437.438 152.199Z" fill="#182234"/>
<path fill-rule="evenodd" clip-rule="evenodd" d="M380.901 69.525C380.858 68.8445 380.816 68.1641 380.73 67.4836C380.816 68.2066 380.858 68.8871 380.901 69.525Z" fill="#182234"/>
<path fill-rule="evenodd" clip-rule="evenodd" d="M437.734 144.119C437.734 143.439 437.734 142.758 437.777 142.078C437.777 142.758 437.734 143.439 437.734 144.119Z" fill="#182234"/>
<path fill-rule="evenodd" clip-rule="evenodd" d="M247.559 269.236C248.112 269.236 248.623 269.236 249.176 269.278C248.666 269.236 248.112 269.236 247.559 269.236Z" fill="#182234"/>
<path fill-rule="evenodd" clip-rule="evenodd" d="M386.094 270.341C386.605 270.341 387.158 270.341 387.669 270.384C387.116 270.341 386.605 270.341 386.094 270.341Z" fill="#182234"/>
<path fill-rule="evenodd" clip-rule="evenodd" d="M442.847 222.838L442.719 221.052L442.847 222.838Z" fill="#182234"/>
<path fill-rule="evenodd" clip-rule="evenodd" d="M375.109 270.341C375.535 270.341 375.961 270.341 376.387 270.298C375.961 270.341 375.535 270.341 375.109 270.341Z" fill="#182234"/>
<path fill-rule="evenodd" clip-rule="evenodd" d="M146.188 270.128C146.656 270.086 147.082 270.086 147.55 270.043C147.082 270.043 146.613 270.086 146.188 270.128Z" fill="#182234"/>
<path fill-rule="evenodd" clip-rule="evenodd" d="M271.438 98.0187C270.757 97.9762 270.076 97.8911 269.438 97.8486C270.076 97.8911 270.8 97.5083 271.438 98.0187Z" fill="#182234"/>
<path fill-rule="evenodd" clip-rule="evenodd" d="M442.927 266.514C442.246 266.429 441.607 266.386 440.926 266.301C441.564 266.344 442.246 266.429 442.927 266.514Z" fill="#182234"/>
<path fill-rule="evenodd" clip-rule="evenodd" d="M396.655 102.102C396.612 102.697 396.57 103.25 396.527 103.845C396.57 103.292 396.612 102.697 396.655 102.102Z" fill="#182234"/>
<path fill-rule="evenodd" clip-rule="evenodd" d="M437.906 126.3L438.034 124.641C437.991 125.237 437.949 125.747 437.906 126.3Z" fill="#182234"/>
<path fill-rule="evenodd" clip-rule="evenodd" d="M396.397 111.117C396.355 111.713 396.312 112.265 396.27 112.861C396.27 112.277 396.312 111.695 396.397 111.117" fill="#182234"/>
<path fill-rule="evenodd" clip-rule="evenodd" d="M437.652 148.542V146.883C437.809 147.132 437.892 147.419 437.892 147.713C437.892 148.006 437.809 148.294 437.652 148.542" fill="#182234"/>
<path fill-rule="evenodd" clip-rule="evenodd" d="M375.279 228.962V230.663C375.103 230.415 375.008 230.117 375.008 229.812C375.008 229.508 375.103 229.21 375.279 228.962Z" fill="#182234"/>
<path fill-rule="evenodd" clip-rule="evenodd" d="M417.553 164.022C417.468 163.469 417.425 162.874 417.34 162.321C417.425 162.874 417.468 163.469 417.553 164.022Z" fill="#182234"/>
<path fill-rule="evenodd" clip-rule="evenodd" d="M67.4698 111.883C67.044 112.479 66.448 112.053 65.8945 112.138C66.448 112.053 66.9589 111.968 67.4698 111.883Z" fill="#182234"/>
<path fill-rule="evenodd" clip-rule="evenodd" d="M373.703 114.265C373.746 114.732 373.788 115.2 373.873 115.668C373.788 115.2 373.746 114.732 373.703 114.265Z" fill="#182234"/>
<path fill-rule="evenodd" clip-rule="evenodd" d="M99.1448 67.3566C98.5913 67.3566 98.0378 67.3992 97.4844 67.3992C97.7205 67.2163 98.0089 67.1136 98.3076 67.1059C98.6063 67.0983 98.8996 67.1861 99.1448 67.3566" fill="#182234"/>
<path fill-rule="evenodd" clip-rule="evenodd" d="M396.354 119.283C396.312 119.793 396.269 120.261 396.227 120.771C396.312 120.261 396.312 119.793 396.354 119.283Z" fill="#182234"/>
<path fill-rule="evenodd" clip-rule="evenodd" d="M381.027 58.5105C381.07 58.0427 381.112 57.6175 381.155 57.1497C381.157 57.6064 381.114 58.0621 381.027 58.5105" fill="#182234"/>
<path fill-rule="evenodd" clip-rule="evenodd" d="M376.639 57.1072C376.597 57.6175 376.554 58.0853 376.512 58.5956C376.554 58.0853 376.597 57.575 376.639 57.1072Z" fill="#182234"/>
<path fill-rule="evenodd" clip-rule="evenodd" d="M134.012 24.4036C133.458 24.4886 132.862 24.5311 132.309 24.6162C132.905 24.5311 133.458 24.4886 134.012 24.4036Z" fill="#182234"/>
<path fill-rule="evenodd" clip-rule="evenodd" d="M92.9682 67.739C92.3722 67.7815 91.8187 67.8666 91.2227 67.9091C91.8187 67.8666 92.4147 67.8241 92.9682 67.739Z" fill="#182234"/>
<path fill-rule="evenodd" clip-rule="evenodd" d="M412.613 69.1854C412.656 68.7175 412.698 68.2923 412.698 67.8245C412.656 68.2923 412.613 68.7175 412.613 69.1854Z" fill="#182234"/>
<path fill-rule="evenodd" clip-rule="evenodd" d="M376.687 200.596C376.644 201.106 376.602 201.616 376.602 202.127C376.602 201.574 376.644 201.064 376.687 200.596Z" fill="#182234"/>
<path fill-rule="evenodd" clip-rule="evenodd" d="M410.957 102.442C410.957 101.974 410.914 101.464 410.914 100.996C410.914 101.464 410.914 101.932 410.957 102.442Z" fill="#182234"/>
<path fill-rule="evenodd" clip-rule="evenodd" d="M148.361 23.2552H146.828C147.049 23.0895 147.318 23 147.594 23C147.871 23 148.14 23.0895 148.361 23.2552" fill="#182234"/>
<path fill-rule="evenodd" clip-rule="evenodd" d="M286.68 137.655C286.126 137.655 285.53 137.697 284.977 137.697C285.221 137.515 285.516 137.412 285.821 137.405C286.126 137.397 286.426 137.485 286.68 137.655" fill="#182234"/>
<path fill-rule="evenodd" clip-rule="evenodd" d="M336.281 269.193C336.622 269.186 336.964 269.2 337.303 269.235C336.962 269.244 336.62 269.23 336.281 269.193Z" fill="#182234"/>
<path fill-rule="evenodd" clip-rule="evenodd" d="M348.93 269.789C349.27 269.789 349.611 269.746 349.951 269.746C349.612 269.782 349.271 269.796 348.93 269.789" fill="#182234"/>
<path fill-rule="evenodd" clip-rule="evenodd" d="M150.66 270.043C151.015 270.037 151.371 270.051 151.725 270.086C151.371 270.051 151.015 270.037 150.66 270.043" fill="#182234"/>
<path fill-rule="evenodd" clip-rule="evenodd" d="M442.545 217.182C442.503 216.714 442.46 216.204 442.375 215.736C442.46 216.246 442.503 216.714 442.545 217.182Z" fill="#182234"/>
<path fill-rule="evenodd" clip-rule="evenodd" d="M396.777 136.208C396.82 136.676 396.862 137.144 396.905 137.569C396.862 137.102 396.82 136.634 396.777 136.208Z" fill="#182234"/>
<path fill-rule="evenodd" clip-rule="evenodd" d="M414.405 128.341C414.362 127.874 414.277 127.363 414.234 126.896C414.277 127.363 414.362 127.831 414.405 128.341Z" fill="#182234"/>
<path fill-rule="evenodd" clip-rule="evenodd" d="M153.512 270.342H154.576C154.222 270.32 153.866 270.32 153.512 270.342" fill="#182234"/>
<path fill-rule="evenodd" clip-rule="evenodd" d="M282.211 270.384C282.552 270.384 282.892 270.341 283.233 270.341C282.892 270.334 282.55 270.348 282.211 270.384" fill="#182234"/>
<path fill-rule="evenodd" clip-rule="evenodd" d="M411.511 92.8728C411.511 92.3624 411.469 91.8946 411.469 91.3843C411.511 91.8946 411.511 92.3624 411.511 92.8728Z" fill="#182234"/>
<path fill-rule="evenodd" clip-rule="evenodd" d="M419.047 270.597C419.387 270.639 419.728 270.639 420.069 270.682C419.728 270.639 419.387 270.639 419.047 270.597Z" fill="#182234"/>
<path fill-rule="evenodd" clip-rule="evenodd" d="M422.113 270.597C422.454 270.59 422.796 270.604 423.135 270.639C422.796 270.602 422.454 270.588 422.113 270.597Z" fill="#182234"/>
<path fill-rule="evenodd" clip-rule="evenodd" d="M437.991 130.255C437.949 129.787 437.949 129.277 437.906 128.809C437.949 129.319 437.991 129.787 437.991 130.255Z" fill="#182234"/>
<path fill-rule="evenodd" clip-rule="evenodd" d="M204.133 264.26C205.197 264.217 206.262 264.132 207.326 264.09C206.262 264.132 205.197 264.175 204.133 264.26Z" fill="#182234"/>
<path fill-rule="evenodd" clip-rule="evenodd" d="M140.184 88.2798C141.12 88.3648 142.014 88.4499 142.951 88.535C142.014 88.4499 141.12 88.3648 140.184 88.2798Z" fill="#182234"/>
<path fill-rule="evenodd" clip-rule="evenodd" d="M399.93 128.214C399.972 129.107 399.972 129.958 400.015 130.851C400.015 130 399.972 129.107 399.93 128.214Z" fill="#182234"/>
<path fill-rule="evenodd" clip-rule="evenodd" d="M418.922 265.749C419.901 265.791 420.838 265.876 421.817 265.919C420.838 265.961 419.858 266.259 418.922 265.749Z" fill="#182234"/>
<path fill-rule="evenodd" clip-rule="evenodd" d="M413.254 162.023C413.254 161.173 413.254 160.365 413.296 159.514C413.254 160.365 413.254 161.173 413.254 162.023Z" fill="#182234"/>
<path fill-rule="evenodd" clip-rule="evenodd" d="M410.785 188.305C411.637 188.305 412.488 188.348 413.297 188.348C412.488 188.348 411.637 188.305 410.785 188.305Z" fill="#182234"/>
<path fill-rule="evenodd" clip-rule="evenodd" d="M198.64 173.591C198.598 174.229 198.598 174.867 198.598 175.505C198.598 174.867 198.64 174.229 198.64 173.591Z" fill="#182234"/>
<path fill-rule="evenodd" clip-rule="evenodd" d="M424.835 146.586C424.793 147.224 424.75 147.862 424.75 148.5C424.75 147.862 424.793 147.224 424.835 146.586Z" fill="#182234"/>
<path fill-rule="evenodd" clip-rule="evenodd" d="M406.828 262.941C407.424 262.899 408.063 262.856 408.659 262.813C408.233 263.154 407.765 263.196 406.828 262.941Z" fill="#182234"/>
<path fill-rule="evenodd" clip-rule="evenodd" d="M402.742 180.012L402.87 182.053L402.742 180.012Z" fill="#182234"/>
<path fill-rule="evenodd" clip-rule="evenodd" d="M403.461 188.433L405.76 188.39C405.406 188.575 405.014 188.675 404.615 188.682C404.216 188.69 403.821 188.604 403.461 188.433Z" fill="#182234"/>
<path fill-rule="evenodd" clip-rule="evenodd" d="M227.246 263.197C228.012 263.197 228.736 263.197 229.502 263.239C229.156 263.431 228.765 263.529 228.369 263.521C227.972 263.514 227.585 263.402 227.246 263.197" fill="#182234"/>
<path fill-rule="evenodd" clip-rule="evenodd" d="M86.7578 265.365C87.5241 265.28 88.2905 265.238 89.0142 265.153C88.2479 265.238 87.4816 265.323 86.7578 265.365Z" fill="#182234"/>
<path fill-rule="evenodd" clip-rule="evenodd" d="M400.227 133.87L400.354 135.911C400.269 135.234 400.227 134.553 400.227 133.87" fill="#182234"/>
<path fill-rule="evenodd" clip-rule="evenodd" d="M158.578 89.8961C158.869 89.7326 159.197 89.6432 159.531 89.6358C159.865 89.6283 160.196 89.7032 160.494 89.8536C159.855 89.8536 159.217 89.8536 158.578 89.8961Z" fill="#182234"/>
<path fill-rule="evenodd" clip-rule="evenodd" d="M379.324 141.78C379.367 142.376 379.409 142.929 379.495 143.524C379.452 142.929 379.409 142.376 379.324 141.78Z" fill="#182234"/>
<path fill-rule="evenodd" clip-rule="evenodd" d="M433.263 128.256C433.106 128 433.023 127.705 433.023 127.405C433.023 127.105 433.106 126.811 433.263 126.555V128.256Z" fill="#182234"/>
<path fill-rule="evenodd" clip-rule="evenodd" d="M423.176 188.05C423.814 187.838 424.496 187.582 425.134 188.05H423.176Z" fill="#182234"/>
<path fill-rule="evenodd" clip-rule="evenodd" d="M210.902 264.005C211.584 263.962 212.222 263.877 212.903 263.834C212.222 263.877 211.584 263.92 210.902 264.005Z" fill="#182234"/>
<path fill-rule="evenodd" clip-rule="evenodd" d="M120.305 264.005C120.901 263.749 121.497 263.579 122.093 264.005H120.305Z" fill="#182234"/>
<path fill-rule="evenodd" clip-rule="evenodd" d="M244.148 263.154C244.787 262.856 245.426 262.729 246.064 263.154H244.148Z" fill="#182234"/>
<path fill-rule="evenodd" clip-rule="evenodd" d="M100.039 179.459C100.082 180.055 100.124 180.608 100.167 181.203C100.124 180.65 100.082 180.055 100.039 179.459Z" fill="#182234"/>
<path fill-rule="evenodd" clip-rule="evenodd" d="M250.324 145.863C250.963 145.65 251.601 145.523 252.24 145.905C251.601 145.863 250.963 145.863 250.324 145.863Z" fill="#182234"/>
<path fill-rule="evenodd" clip-rule="evenodd" d="M400.184 163.214C400.226 163.767 400.269 164.362 400.269 164.915C400.269 164.362 400.226 163.809 400.184 163.214Z" fill="#182234"/>
<path fill-rule="evenodd" clip-rule="evenodd" d="M99.6156 111.713C99.5825 112.169 99.5256 112.623 99.4453 113.074C99.5256 112.623 99.5825 112.169 99.6156 111.713" fill="#182234"/>
<path fill-rule="evenodd" clip-rule="evenodd" d="M62.6984 245.038C62.6559 245.505 62.6133 245.931 62.6133 246.398C62.6133 245.931 62.6559 245.505 62.6984 245.038Z" fill="#182234"/>
<path fill-rule="evenodd" clip-rule="evenodd" d="M413.553 166.233L413.426 164.83C413.468 165.34 413.511 165.766 413.553 166.233Z" fill="#182234"/>
<path fill-rule="evenodd" clip-rule="evenodd" d="M367.145 262.261H368.848C368.294 262.303 367.698 262.261 367.145 262.261Z" fill="#182234"/>
<path fill-rule="evenodd" clip-rule="evenodd" d="M198.423 177.546C198.508 177.886 198.636 178.226 198.721 178.567C198.04 178.737 197.955 178.396 198.423 177.546Z" fill="#182234"/>
<path fill-rule="evenodd" clip-rule="evenodd" d="M241 145.097H242.746C242.15 145.352 241.553 145.522 241 145.097Z" fill="#182234"/>
<path fill-rule="evenodd" clip-rule="evenodd" d="M100.336 182.224C100.336 182.734 100.379 183.244 100.379 183.755C100.379 183.244 100.379 182.734 100.336 182.224Z" fill="#182234"/>
<path fill-rule="evenodd" clip-rule="evenodd" d="M380.73 187.625C380.73 188.093 380.773 188.561 380.773 189.028C380.773 188.561 380.773 188.093 380.73 187.625Z" fill="#182234"/>
<path fill-rule="evenodd" clip-rule="evenodd" d="M94.6289 265.11C94.8698 264.934 95.1605 264.839 95.4591 264.839C95.7577 264.839 96.0484 264.934 96.2893 265.11H94.6289Z" fill="#182234"/>
<path fill-rule="evenodd" clip-rule="evenodd" d="M109.02 105.164C109.062 105.631 109.062 106.142 109.105 106.61C109.105 106.099 109.062 105.631 109.02 105.164Z" fill="#182234"/>
<path fill-rule="evenodd" clip-rule="evenodd" d="M91.7773 265.153H93.4803C93.2444 265.359 92.9419 265.472 92.6288 265.472C92.3157 265.472 92.0132 265.359 91.7773 265.153Z" fill="#182234"/>
<path fill-rule="evenodd" clip-rule="evenodd" d="M145.633 89.1304C146.186 89.2154 146.74 89.258 147.251 89.343C146.697 89.258 146.144 89.1729 145.633 89.1304Z" fill="#182234"/>
<path fill-rule="evenodd" clip-rule="evenodd" d="M97.6133 131.19C97.6133 131.658 97.6133 132.084 97.6559 132.551C97.6133 132.084 97.6133 131.616 97.6133 131.19" fill="#182234"/>
<path fill-rule="evenodd" clip-rule="evenodd" d="M410.402 131.105C410.359 130.637 410.359 130.169 410.316 129.702C410.359 130.169 410.359 130.637 410.402 131.105Z" fill="#182234"/>
<path fill-rule="evenodd" clip-rule="evenodd" d="M283.488 264.642C284.169 264.685 284.851 264.77 285.489 264.812C284.851 264.77 284.169 264.685 283.488 264.642Z" fill="#182234"/>
<path fill-rule="evenodd" clip-rule="evenodd" d="M281.275 247.249H280.211C280.564 247.291 280.922 247.291 281.275 247.249" fill="#182234"/>
<path fill-rule="evenodd" clip-rule="evenodd" d="M281.277 264.345C281.831 264.387 282.384 264.472 282.98 264.515C282.427 264.472 281.873 264.43 281.277 264.345Z" fill="#182234"/>
<path fill-rule="evenodd" clip-rule="evenodd" d="M179.949 226.495C180.672 230.621 174.244 234.661 173.733 228.792C173.562 226.623 174.967 225.134 176.585 223.816C178.884 221.945 180.161 223.731 179.949 226.495" fill="#182234"/>
<path fill-rule="evenodd" clip-rule="evenodd" d="M109.02 176.015C110.552 176.653 122.133 180.395 116.087 182.309C114.512 182.82 112.085 182.905 110.723 182.012C109.062 180.948 107.402 177.801 109.02 176.015Z" fill="#182234"/>
<path fill-rule="evenodd" clip-rule="evenodd" d="M111.875 120.049C115.792 119.581 119.41 126.045 114.599 125.832C111.066 125.662 106.34 120.049 111.875 120.049Z" fill="#182234"/>
<path fill-rule="evenodd" clip-rule="evenodd" d="M125.964 135.826C129.242 138.675 123.154 145.097 120.727 142.63C119.492 141.354 120.642 138.633 121.664 137.569C122.686 136.506 124.559 136.293 125.964 135.826" fill="#182234"/>
<path fill-rule="evenodd" clip-rule="evenodd" d="M135.715 209.995C133.757 210.292 125.242 213.099 127.03 208.038C127.711 206.125 129.585 206.677 131.33 206.762C134.14 206.89 135.715 206.762 135.715 209.995Z" fill="#182234"/>
<path fill-rule="evenodd" clip-rule="evenodd" d="M130.095 223.008C132.99 224.539 128.775 233.214 126.348 231.386C123.028 228.834 127.583 223.773 130.095 223.008Z" fill="#182234"/>
<path fill-rule="evenodd" clip-rule="evenodd" d="M142.741 216.033C144.146 215.438 150.787 221.859 148.275 223.603C146.998 224.496 144.529 222.965 143.72 222.029C142.272 220.286 142.145 218.074 142.741 216.033Z" fill="#182234"/>
<path fill-rule="evenodd" clip-rule="evenodd" d="M104.378 163.809C105.826 164.064 108.295 164.107 108.423 166.148C108.508 167.934 106.251 168.487 104.719 168.657C103.101 168.785 100.93 168.36 100.887 166.276C100.845 164.064 104.336 164.192 104.378 163.809" fill="#182234"/>
<path fill-rule="evenodd" clip-rule="evenodd" d="M139.929 251.884C141.462 252.82 148.614 256.18 145.549 258.604C144.399 259.497 140.908 257.625 140.142 256.69C139.205 255.542 138.311 252.862 139.929 251.884Z" fill="#182234"/>
<path fill-rule="evenodd" clip-rule="evenodd" d="M159.853 227.558C159.64 223.858 165.898 222.37 164.578 227.643C164.195 229.132 163.854 231.386 162.024 231.471C159.853 231.556 159.767 229.004 159.853 227.558" fill="#182234"/>
<path fill-rule="evenodd" clip-rule="evenodd" d="M140.568 163.214C140.611 166.021 135.247 168.488 135.204 164.065C135.119 160.067 140.739 158.919 140.568 163.214Z" fill="#182234"/>
<path fill-rule="evenodd" clip-rule="evenodd" d="M136.992 148.584C138.312 149.01 140.1 149.222 140.185 150.923C140.313 152.71 138.652 153.518 137.162 153.39C135.927 153.305 134.139 152.412 133.927 151.094C133.586 149.137 135.502 149.01 136.992 148.584" fill="#182234"/>
<path fill-rule="evenodd" clip-rule="evenodd" d="M112.34 199.958C112.298 197.661 116.981 194.854 117.832 197.533C118.088 198.384 115.916 202.254 115.193 202.552C113.234 203.317 112.979 201.574 112.34 199.958" fill="#182234"/>
<path fill-rule="evenodd" clip-rule="evenodd" d="M150.405 238.53C148.829 239.934 144.104 243.889 144.487 238.573C144.7 235.213 150.83 235.383 150.405 238.53Z" fill="#182234"/>
<path fill-rule="evenodd" clip-rule="evenodd" d="M227.122 253.671C227.633 251.459 234.999 255.287 232.529 258.136C231.72 259.072 229.549 258.221 228.698 257.668C227.122 256.52 227.08 255.499 227.122 253.671Z" fill="#182234"/>
<path fill-rule="evenodd" clip-rule="evenodd" d="M186.082 205.997C186.38 205.019 186.678 203.233 187.657 202.637C189.36 201.489 190.85 203.233 190.85 205.062C190.85 208.421 186.976 209.484 186.082 205.997Z" fill="#182234"/>
<path fill-rule="evenodd" clip-rule="evenodd" d="M167.817 245.718C169.733 246.143 173.99 250.821 171.521 252.692C169.137 254.521 165.986 247.121 167.817 245.718Z" fill="#182234"/>
<path fill-rule="evenodd" clip-rule="evenodd" d="M169.647 210.59C172.117 210.802 175.48 214.758 171.648 215.395C168.668 215.863 165.177 211.568 169.647 210.59Z" fill="#182234"/>
<path fill-rule="evenodd" clip-rule="evenodd" d="M191.913 228.877C192.509 226.793 198.639 229.005 198.299 231.301C198.128 232.534 195.617 232.79 194.297 232.492C192.381 232.024 191.87 230.748 191.913 228.877Z" fill="#182234"/>
<path fill-rule="evenodd" clip-rule="evenodd" d="M120.005 112.946C120.047 110.267 125.199 109.161 125.582 111.883C125.923 114.307 119.92 116.901 120.005 112.946Z" fill="#182234"/>
<path fill-rule="evenodd" clip-rule="evenodd" d="M190.211 256.519C190.594 255.159 190.764 253.543 192.425 253.372C194.341 253.16 194.298 254.648 194.085 256.179C193.447 260.347 191.105 260.56 190.211 256.519" fill="#182234"/>
<path fill-rule="evenodd" clip-rule="evenodd" d="M108.683 144.884C106 145.48 101.062 140.334 104.085 139.186C106.213 138.42 108.683 143.311 108.683 144.884Z" fill="#182234"/>
<path fill-rule="evenodd" clip-rule="evenodd" d="M142.992 185.073C141.63 185.711 141.289 186.094 140.268 185.03C139.331 184.095 139.374 181.543 140.182 180.607C143.205 176.95 143.12 183.627 142.992 185.073Z" fill="#182234"/>
<path fill-rule="evenodd" clip-rule="evenodd" d="M154.193 177.673C155.641 177.843 159.856 181.884 157.642 183.457C154.96 185.413 153.427 179.289 154.193 177.673Z" fill="#182234"/>
<path fill-rule="evenodd" clip-rule="evenodd" d="M185.101 178.694C184.079 182.692 181.482 180.013 181.61 176.993C181.823 172.145 184.548 176.355 185.101 178.694Z" fill="#182234"/>
<path fill-rule="evenodd" clip-rule="evenodd" d="M200.856 242.869C202.601 243.592 204.985 250.311 202.473 250.651C199.664 251.034 200.6 244.272 200.856 242.869Z" fill="#182234"/>
<path fill-rule="evenodd" clip-rule="evenodd" d="M178.927 239.084C180.928 238.403 181.695 242.656 180.502 243.422C177.905 245.165 178.459 240.104 178.927 239.084" fill="#182234"/>
<path fill-rule="evenodd" clip-rule="evenodd" d="M159.851 227.558C159.808 228.111 159.808 228.664 159.766 229.259C159.808 228.664 159.808 228.111 159.851 227.558Z" fill="#182234"/>
<path fill-rule="evenodd" clip-rule="evenodd" d="M227.125 253.67C227.125 254.266 227.082 254.819 227.082 255.414C227.082 254.819 227.125 254.223 227.125 253.67Z" fill="#182234"/>
<path fill-rule="evenodd" clip-rule="evenodd" d="M191.914 228.877C191.914 229.345 191.871 229.855 191.871 230.323C191.871 229.855 191.914 229.387 191.914 228.877Z" fill="#182234"/>
<path fill-rule="evenodd" clip-rule="evenodd" d="M414.235 220.456C418.407 220.329 423.047 218.755 427.135 219.266C428.241 219.393 430.838 219.691 429.05 221.349C428.199 222.157 424.069 221.732 422.792 221.987C415.129 223.603 406.444 224.667 398.61 224.496C394.949 224.454 391.245 224.156 387.583 223.944C383.922 223.731 383.539 222.242 387.668 221.775C391.968 221.264 396.354 221.477 400.653 221.477C405.209 221.52 409.722 220.754 414.235 220.456" fill="#182234"/>
<path fill-rule="evenodd" clip-rule="evenodd" d="M423.386 210.419C423.003 211.568 422.62 214.162 421.087 214.332C418.916 214.587 418.575 210.887 418.66 209.526C418.745 207.91 419.341 205.188 421.385 205.741C423.088 206.252 423.258 209.144 423.386 210.419Z" fill="#182234"/>
<path fill-rule="evenodd" clip-rule="evenodd" d="M410.359 209.612C410.657 208.379 410.828 205.657 412.573 205.529C414.489 205.444 415.043 208.294 415.043 209.654C415.043 210.973 414.532 213.439 412.999 213.737C410.913 214.162 410.7 211.015 410.359 209.612Z" fill="#182234"/>
<path fill-rule="evenodd" clip-rule="evenodd" d="M388.645 211.78C388.007 213.269 387.624 215.268 385.665 214.29C384.175 213.524 383.962 210.377 384.26 208.974C384.558 207.485 385.154 205.784 386.857 206.464C388.816 207.23 388.645 210.164 388.645 211.78" fill="#182234"/>
<path fill-rule="evenodd" clip-rule="evenodd" d="M405.081 210.42C403.25 216.034 399.844 212.249 401.164 208.039C402.484 203.701 404.91 207.953 405.081 210.42Z" fill="#182234"/>
<path fill-rule="evenodd" clip-rule="evenodd" d="M396.095 210.717C395.585 211.696 395.031 213.822 393.669 213.609C391.966 213.354 391.923 210.079 392.093 208.846C392.264 207.783 392.732 205.997 394.137 206.039C396.181 206.082 396.053 209.442 396.095 210.717" fill="#182234"/>
<path fill-rule="evenodd" clip-rule="evenodd" d="M432.927 211.781C431.564 214.843 429.649 212.206 430.245 210.037C431.181 206.763 432.842 209.655 432.927 211.781Z" fill="#182234"/>
<path fill-rule="evenodd" clip-rule="evenodd" d="M399.251 221.52H394.738C396.221 221.158 397.769 221.158 399.251 221.52" fill="#182234"/>
<path fill-rule="evenodd" clip-rule="evenodd" d="M429.093 219.265C427.773 219.265 426.496 219.265 425.176 219.308C426.446 218.89 427.814 218.875 429.093 219.265" fill="#182234"/>
<path fill-rule="evenodd" clip-rule="evenodd" d="M414.233 220.457C413.211 220.542 412.147 220.584 411.125 220.669C412.147 220.627 413.169 220.542 414.233 220.457Z" fill="#182234"/>
<path fill-rule="evenodd" clip-rule="evenodd" d="M388.644 211.781C388.644 211.015 388.644 210.292 388.602 209.527C388.786 209.873 388.887 210.257 388.894 210.649C388.901 211.041 388.816 211.428 388.644 211.781" fill="#182234"/>
<path fill-rule="evenodd" clip-rule="evenodd" d="M391.668 221.562C390.816 221.647 389.965 221.69 389.113 221.775C389.965 221.732 390.816 221.647 391.668 221.562Z" fill="#182234"/>
<path fill-rule="evenodd" clip-rule="evenodd" d="M403.207 221.519H400.695C401.09 221.341 401.518 221.248 401.951 221.248C402.384 221.248 402.813 221.341 403.207 221.519" fill="#182234"/>
<path fill-rule="evenodd" clip-rule="evenodd" d="M396.097 210.717C396.097 209.952 396.055 209.144 396.055 208.378C396.055 209.144 396.055 209.952 396.097 210.717Z" fill="#182234"/>
<path fill-rule="evenodd" clip-rule="evenodd" d="M384.262 208.974V211.27C384.22 210.505 384.22 209.739 384.262 208.974" fill="#182234"/>
<path fill-rule="evenodd" clip-rule="evenodd" d="M419.003 220.201C418.279 220.286 417.513 220.329 416.789 220.414C417.513 220.329 418.279 220.244 419.003 220.201Z" fill="#182234"/>
<path fill-rule="evenodd" clip-rule="evenodd" d="M432.925 211.781C432.882 211.101 432.882 210.463 432.84 209.782C432.882 210.463 432.925 211.143 432.925 211.781Z" fill="#182234"/>
<path fill-rule="evenodd" clip-rule="evenodd" d="M401.293 224.539C401.804 224.539 402.315 224.539 402.826 224.497C402.357 224.539 401.846 224.539 401.293 224.539Z" fill="#182234"/>
<path fill-rule="evenodd" clip-rule="evenodd" d="M423.389 210.42C423.347 209.952 423.304 209.484 423.262 208.974C423.304 209.484 423.347 209.952 423.389 210.42Z" fill="#182234"/>
<path fill-rule="evenodd" clip-rule="evenodd" d="M405.081 210.42C405.039 209.91 404.996 209.442 404.996 208.932C404.996 209.442 405.039 209.952 405.081 210.42Z" fill="#182234"/>
<path fill-rule="evenodd" clip-rule="evenodd" d="M138.31 66.4634C136.266 65.9106 135.883 63.0612 136.223 61.3176C136.607 60.467 136.947 59.6165 137.33 58.7659C137.203 58.4682 137.032 58.128 136.905 57.8303C137.075 56.0867 136.607 55.3212 138.608 56.0441C142.312 57.3625 142.908 66.3358 138.31 66.4634Z" fill="#182234"/>
<path fill-rule="evenodd" clip-rule="evenodd" d="M168.413 60.9346C170.073 60.8071 173.139 62.7633 171.478 64.6345C170.457 65.7828 167.051 65.2299 165.646 65.4851C163.815 65.8253 161.899 66.2506 162.878 63.4863C163.645 61.3599 166.455 60.8921 168.413 60.9346Z" fill="#182234"/>
<path fill-rule="evenodd" clip-rule="evenodd" d="M166.667 73.9059C164.964 72.545 165.73 66.336 168.327 67.4417C170.967 68.59 168.072 73.0129 166.667 73.9059Z" fill="#182234"/>
<path fill-rule="evenodd" clip-rule="evenodd" d="M136.225 61.3176V63.2739C136.037 62.9821 135.938 62.6426 135.938 62.2958C135.938 61.9489 136.037 61.6094 136.225 61.3176" fill="#182234"/>
<path fill-rule="evenodd" clip-rule="evenodd" d="M138.312 66.4632C138.654 66.4702 138.995 66.456 139.334 66.4207C138.995 66.456 138.654 66.4702 138.312 66.4632" fill="#182234"/>
<path fill-rule="evenodd" clip-rule="evenodd" d="M348.499 245.378C348.328 248.184 345.306 246.101 345.519 244.229C345.944 240.785 347.86 244.187 348.499 245.378Z" fill="#182234"/>
</svg>
