<svg width="461" height="360" viewBox="0 0 461 360" fill="none" xmlns="http://www.w3.org/2000/svg">
<g clip-path="url(#clip0)">
<path fill-rule="evenodd" clip-rule="evenodd" d="M115.16 200.136C117.759 219.811 120.377 239.485 123.013 259.16L125.114 275.022C125.391 277.011 125.114 280.991 126.165 282.759C126.552 283.367 127.492 283.699 128.156 284.085C130.534 285.357 132.967 286.683 135.345 287.954C155.585 298.842 175.844 309.711 196.121 320.561C215.587 331.007 235.035 341.434 254.464 351.842C256.454 352.947 259.717 355.711 261.874 354.992C263.92 354.274 266.022 352.561 267.902 351.455L278.686 345.155C300.474 332.388 322.244 319.64 343.996 306.91C352.955 301.66 361.969 296.41 370.928 291.104C373.361 289.667 375.85 288.23 378.283 286.794C379.555 286.02 379.721 286.075 380.218 284.804C382.099 280.051 382.983 274.58 384.311 269.606C385.804 264.134 387.242 258.663 388.735 253.247C389.398 250.815 389.067 250.483 388.016 248.162C385.914 243.52 383.758 238.822 381.656 234.18C376.956 223.845 372.237 213.51 367.499 203.175C365.619 198.975 361.029 196.046 357.711 193.006L306.391 145.256C305.064 144.04 303.792 142.824 302.465 141.609C302.244 148.904 300.806 156.752 302.907 163.77C306.391 175.321 309.82 186.872 313.304 198.422C314.963 204.004 316.677 209.586 318.336 215.168C318.668 216.218 320.548 220.308 320.051 221.248C319.774 221.745 317.396 222.242 316.843 222.463C314.631 223.292 312.364 224.177 310.152 225.006C303.958 227.382 297.709 229.703 291.515 232.08C285.93 234.18 280.345 236.335 274.759 238.435C272.879 239.154 270.667 240.48 268.621 240.37C266.851 240.259 264.805 239.375 263.091 238.933C260.049 238.159 257.008 237.385 253.966 236.556L236.048 231.914C229.302 230.201 223.661 225.116 217.91 221.358C208.011 214.892 198.13 208.425 188.268 201.96C186.001 200.467 186.001 199.638 185.116 196.93C183.07 190.851 181.079 184.772 179.033 178.692C177.927 175.432 176.6 172.171 175.825 168.855C174.498 163.384 173.669 157.691 172.618 152.165C172.286 150.507 171.954 148.793 171.678 147.135C167.53 148.793 163.383 150.507 159.235 152.165C158.627 152.386 155.696 153.159 155.475 153.712C155.309 154.099 156.194 155.812 156.304 156.144L166.59 186.651C167.696 189.856 168.747 193.062 169.853 196.267C167.254 192.233 164.71 188.143 162.111 184.108C160.065 190.906 158.074 197.759 156.028 204.557C151.216 199.03 146.461 193.504 141.649 187.977L136.672 204.557C131.529 197.759 126.331 190.906 121.188 184.108C120.58 187.646 119.971 191.238 119.363 194.775C119.197 195.825 119.197 198.92 118.478 199.804C117.925 200.467 116.266 200.136 115.16 200.136Z" fill="#FF6938"/>
<path fill-rule="evenodd" clip-rule="evenodd" d="M441.935 242.636C441.659 251.92 441.824 263.913 436.792 272.037C435.963 273.364 433.197 277.453 432.866 273.861C432.589 270.324 433.419 266.842 432.589 263.25C432.147 261.316 430.598 257.171 427.944 258.884C426.617 259.768 426.23 261.924 425.732 263.305C424.958 265.35 424.073 267.34 423.243 269.329C420.368 276.348 417.381 284.749 411.022 289.391C411.851 283.312 414.119 276.846 412.625 270.711C412.128 268.611 410.524 264.797 407.814 266.013C405.16 267.229 403.445 272.535 402.174 274.911C398.358 282.096 394.487 289.17 390.229 296.078C388.146 299.535 385.699 302.759 382.929 305.695C381.159 307.574 378.947 310.724 376.182 311C376.182 305.695 377.952 300.555 379.5 295.581C381.214 290.22 382.763 284.804 384.477 279.388C385.915 274.69 387.132 270.103 388.127 265.295C388.514 263.305 388.846 261.26 390.56 259.989C392.053 258.829 394.487 258.276 396.146 257.447C400.668 255.247 405.063 252.793 409.307 250.097C411.022 248.991 412.46 247.499 414.229 246.504C416.235 245.444 418.174 244.263 420.036 242.967C428.11 236.888 435.41 229.372 440.276 220.474C441.05 224.066 442.101 227.548 442.267 231.251C442.267 235.064 442.046 238.878 441.935 242.636ZM375.463 285.191C374.191 283.035 372.2 283.92 370.486 284.97C367.776 286.628 365.122 288.23 362.412 289.833C356.882 293.094 351.518 296.576 346.154 300.057C335.204 307.132 323.867 312.934 312.365 318.903C301.194 324.706 290.521 331.615 280.069 338.578C277.58 340.236 275.036 341.949 272.658 343.773C270.502 345.376 268.787 347.642 266.575 349.079C264.253 350.571 262.594 349.355 260.382 348.25C257.561 346.868 254.63 345.707 251.755 344.492C240.197 339.462 228.583 334.267 217.302 328.575C206.131 322.938 195.513 316.416 184.785 309.895C179.697 306.8 174.665 303.539 169.632 300.334C164.268 296.907 158.738 294.365 153.097 291.491C150.609 290.22 148.397 288.451 145.853 287.291C143.143 286.075 140.323 285.191 137.945 283.422C136.839 282.649 135.954 281.709 134.737 281.101C133.742 280.659 132.581 280.548 131.585 280.051C129.539 279.056 128.986 277.067 128.599 274.966C126.055 261.537 124.728 247.72 123.235 234.069C122.405 226.443 121.465 218.816 120.359 211.189C119.861 207.763 120.857 205.11 121.41 201.738C122.018 197.815 122.295 193.891 122.737 189.967C124.728 193.67 126.498 197.593 129.041 200.965C130.922 203.452 134.129 206.989 137.613 206.934C142.977 206.823 142.756 197.593 142.977 193.946C145.411 196.157 146.185 199.694 148.231 202.236C150.111 204.557 152.6 207.431 155.475 208.481C161.503 210.692 160.895 199.528 160.563 196.378C160.397 194.775 159.512 192.288 161.614 193.006C163.549 193.67 165.485 196.433 167.144 197.704C169.964 199.915 173.116 201.683 175.992 203.783C179.587 206.381 183.513 208.26 187.218 210.636C189.541 212.129 192.029 212.46 194.573 213.621C198.278 215.223 201.486 217.655 205.025 219.645C212.095 223.599 219.543 226.839 227.256 229.316C229.689 230.09 233.007 232.19 234.832 230.035C235.994 228.708 236.713 226.664 237.708 225.116C238.925 223.237 240.252 221.358 241.634 219.534C246.435 213.032 251.842 207 257.782 201.517C264.7 195.126 272.282 189.493 280.401 184.716C283.884 182.672 298.429 173.553 301.636 179.964C299.037 179.798 296.714 180.737 294.502 181.953C293.949 182.229 291.129 184.274 291.793 182.506C290.963 182.672 290.244 183.722 289.636 184.219C288.389 185.126 287.077 185.938 285.709 186.651C284.493 187.314 282.944 187.48 281.838 188.309C281.451 188.585 281.175 189.082 280.788 189.414H279.682C279.516 190.022 279.35 190.63 279.184 191.293C278.576 189.248 277.635 191.901 276.585 192.785C275.844 193.33 275.047 193.794 274.207 194.167C273.654 194.388 273.543 193.835 273.045 194.278C272.548 194.664 272.271 195.549 271.718 195.991C271.036 196.556 270.315 197.073 269.561 197.538C268.179 198.533 266.741 199.307 265.414 200.191C263.534 201.462 262.594 203.562 260.769 204.889C259.939 205.497 258.612 205.552 258.114 205.994C256.953 206.989 257.34 208.481 255.183 208.536C255.391 208.827 255.507 209.174 255.515 209.531C255 209.449 254.519 209.218 254.132 208.868C254.243 211.023 252.086 211.797 250.814 213.123C249.989 213.956 249.265 214.884 248.658 215.887C248.528 216.339 248.436 216.801 248.381 217.268C248.16 217.379 246.999 216.329 247.109 216.384C246.777 218.374 244.842 220.253 244.012 222.077C243.57 223.071 243.128 224.619 242.243 225.282C242.022 225.448 241.247 225.282 240.694 225.89C240.192 226.479 239.798 227.152 239.533 227.88C239.422 228.322 239.533 229.372 239.367 229.648C239.035 230.09 238.538 229.648 238.04 229.98C237.1 230.588 237.1 231.582 235.773 231.693C236.713 233.959 242.298 234.622 244.289 235.285C250.04 237.109 256.013 238.878 261.377 241.641C262.759 242.359 264.087 242.967 264.308 244.57C264.64 246.836 263.478 249.876 263.257 252.197C262.695 258.499 262.491 264.828 262.649 271.153C262.759 277.067 262.981 283.091 263.257 289.004C263.534 294.531 264.64 299.892 265.248 305.363C265.414 306.855 265.303 313.598 267.902 313.266C270.059 312.99 268.677 308.347 268.677 307.021C268.566 304.092 269.23 301.107 269.174 298.123C269.174 296.686 269.783 295.47 269.838 294.144C269.893 292.818 269.23 291.712 269.451 290.331C269.617 289.004 273.598 281.322 269.783 282.206C270.004 281.101 270.225 279.996 270.502 278.89C270.893 279.264 271.228 279.692 271.497 280.162C271.829 277.785 271.718 275.464 271.939 273.087C272.05 272.037 272.492 270.822 272.327 269.771C272.353 269.323 272.297 268.873 272.161 268.445C272.048 268.323 271.911 268.226 271.759 268.159C271.607 268.092 271.442 268.058 271.276 268.058C271.17 267.848 271.124 267.613 271.144 267.379C271.164 267.145 271.247 266.921 271.386 266.732C271.433 266.541 271.538 266.369 271.686 266.24C271.835 266.111 272.02 266.032 272.216 266.013C272.99 265.903 273.101 265.461 272.492 264.687C272.805 263.326 272.842 261.917 272.603 260.542C272.437 259.216 273.101 256.673 272.382 255.457C271.552 254.076 271.11 255.402 270.999 253.523C270.926 252.969 270.963 252.405 271.11 251.865C271.276 251.423 271.829 251.589 271.884 251.423C272.327 250.373 272.382 248.273 270.723 248.439C270.778 247.665 270.833 246.891 270.944 246.173C272.161 247.554 271.718 246.394 272.382 245.62C273.267 244.57 274.207 244.404 275.479 244.017C278.963 242.912 282.281 241.309 285.654 239.983C292.843 237.164 300.143 234.677 307.111 231.417C321.766 224.453 336.144 216.937 350.854 210.139C349.803 208.205 350.467 208.094 351.241 206.27C352.292 206.989 352.071 206.491 352.79 206.436C352.734 205.828 352.9 205.662 353.343 205.883C353.698 206.005 354.076 206.043 354.449 205.994C355.389 206.16 356.108 206.657 356.937 206.823C357.202 207.024 357.502 207.174 357.822 207.265C358.117 207.195 358.386 207.042 358.596 206.823C359.924 207.099 360.366 208.094 360.477 209.531C360.477 209.807 359.702 210.028 359.924 210.415C360.311 211.023 361.361 210.857 361.97 210.968C361.859 211.576 361.693 212.184 361.583 212.847C364.237 211.631 363.518 215.445 364.348 216.66C364.569 216.992 365.067 216.716 365.343 217.158C365.675 217.71 365.564 218.429 365.841 218.982C366.504 220.142 367.113 220.032 367.776 221.358C371.15 228.432 375.629 235.064 378.892 242.304C380.44 245.731 381.823 249.268 383.426 252.694C384.92 255.844 385.749 258.497 384.698 261.979C382.265 269.937 379.611 278.061 376.403 285.799C376.207 285.787 376.018 285.725 375.853 285.618C375.688 285.512 375.554 285.364 375.463 285.191ZM204.417 344.768L203.753 345.929C203.255 342.999 204.583 344.381 204.417 344.768ZM193.633 339.241C192.914 339.02 193.191 337.804 193.246 337.307C193.719 337.892 194.162 338.501 194.573 339.131C194.263 339.192 193.949 339.229 193.633 339.241ZM163.992 327.967C164.766 327.525 165.319 327.249 166.204 326.751C165.264 328.464 165.264 328.464 163.992 327.967ZM117.318 174.934C116.156 177.808 119.751 195.77 116.377 196.322C115.88 194.775 115.824 190.409 113.834 189.911C111.345 189.248 111.622 193.725 111.29 195.107C106.202 191.569 103.935 184.772 101.557 179.356C98.4599 172.447 96.0266 165.318 93.704 158.133C91.7131 151.999 90.0541 145.754 88.0633 139.619C86.7913 135.75 85.4641 131.937 84.5793 127.958C84.4134 127.074 83.6945 124.918 84.3028 124.089C85.1876 122.873 88.3951 124.255 89.4458 124.587C96.1925 126.631 103.16 127.46 110.073 128.676C117.76 130.003 125.447 131.329 133.189 132.324C135.124 132.6 137.06 132.821 138.996 133.042C140.268 133.208 142.148 133.042 143.364 133.595C145.798 134.756 146.295 139.066 147.18 141.332C150.498 149.788 154.48 157.912 157.964 166.257C161.116 173.774 163.549 181.787 168.084 188.64C164.711 187.148 160.397 179.19 156.581 183.777C154.922 185.766 155.365 188.364 155.475 190.74C155.641 194.167 155.697 197.594 155.697 201.02C151.991 200.08 149.503 195.825 147.512 192.841C144.945 188.996 143.073 184.731 141.982 180.24C141.484 178.195 140.102 178.14 138.885 176.924C138.111 176.15 137.724 175.1 136.618 176.205C135.235 177.642 136.175 181.566 136.396 183.279C136.949 187.259 138.83 193.449 137.005 197.207C134.516 202.291 127.935 189.525 127.161 187.646C126.885 186.706 119.861 168.744 117.318 174.934ZM112.728 87.8896C113.17 87.9449 113.557 88.0002 113.999 88.0554C113.668 88.3318 112.949 89.3818 112.396 89.1055C112.506 88.7739 112.617 88.3318 112.728 87.8896ZM134.737 83.192C134.627 83.3578 134.461 83.4683 134.35 83.6341C133.742 82.9157 133.963 81.8103 133.963 80.9261C134.327 81.163 134.601 81.5149 134.741 81.9256C134.882 82.3363 134.88 82.7822 134.737 83.192ZM136.507 91.482V93.9137C134.903 93.1952 134.848 92.8084 136.507 91.482ZM138.553 94.5769C137.392 94.2453 137.281 94.0242 137.447 92.2004C137.89 93.1952 138.221 93.8584 138.553 94.5769ZM145.189 112.594C144.692 113.865 141.871 110.88 141.982 109.996C142.092 109.167 142.535 108.891 143.143 109.444C143.364 109.609 143.033 110.273 143.198 110.494C143.586 111.323 144.526 111.986 145.189 112.594ZM145.245 120.11C144.526 121.878 143.254 119.115 145.134 119.005C145.228 119.365 145.266 119.738 145.245 120.11ZM143.862 117.291C143.586 116.936 143.327 116.567 143.088 116.186C144.028 116.352 144.802 117.789 145.798 116.849C145.632 118.286 144.636 118.286 143.862 117.291ZM82.0354 94.3005C80.487 92.6426 90.4965 91.4267 91.7131 91.1504C100.399 89.0095 108.861 86.0487 116.986 82.3077C120.912 80.5392 124.783 78.7707 128.599 76.7811C130.258 75.9521 132.525 75.2336 133.908 73.9625C134.903 73.0782 134.848 72.3598 136.12 71.8071C137.226 71.365 137.281 71.8071 137.779 70.9781C138.055 70.4807 138.443 68.6569 138.221 68.1043C137.724 66.6121 137.06 67.8279 136.065 66.8331C135.346 66.1147 135.512 64.0145 135.733 63.1856C135.994 63.5814 136.146 64.0387 136.175 64.5119C137.226 63.9593 136.839 62.1908 138 61.8592C139.217 61.5276 139.106 62.5224 139.438 63.5172C140.378 62.1355 139.604 60.9749 139.106 59.6485C141.65 59.1511 144.415 58.709 146.959 59.538C148.784 60.1459 150.388 61.6934 152.323 61.9697C154.203 62.246 154.59 61.3618 155.973 60.4222C157.134 59.7038 158.074 60.5328 158.683 59.9801C158.296 61.8592 155.199 61.6381 155.586 63.9593C155.752 65.0093 157.079 66.0041 157.687 66.8331C158.424 67.8828 159.036 69.0141 159.512 70.2044C161.503 74.7915 162.333 80.0418 163.162 84.9605C165.208 97.0086 165.485 109.278 167.42 121.381C168.36 127.129 169.245 132.877 169.743 138.735C169.854 140.172 170.738 143.488 170.02 144.869C169.411 146.03 168.029 146.03 166.812 146.362C164.504 146.946 162.233 147.666 160.01 148.517C157.964 149.291 157.411 149.733 156.084 147.854C154.812 146.03 154.203 143.819 153.319 141.83C152.157 139.287 150.775 136.8 149.447 134.313C152.047 134.313 153.54 132.932 153.484 130.279C153.429 127.35 150.996 126.631 150.001 124.255C149.06 125.526 148.95 125.526 148.286 124.365C147.512 122.984 146.959 120.497 146.461 118.949C146.793 119.336 147.125 119.668 147.512 120.055C148.397 118.839 147.014 116.96 146.572 115.854C145.853 114.141 145.742 112.262 145.079 110.494C144.692 109.554 143.862 108.78 143.641 107.841C143.53 107.178 144.028 106.57 143.917 105.906C143.696 104.746 142.369 103.475 141.982 102.314C141.374 100.49 140.655 98.8877 139.88 97.1191C138.83 94.6874 139.051 92.2004 138.885 89.6029C138.664 86.9501 137.834 84.4079 137.558 81.7551C137.337 79.9313 138 77.6101 136.618 76.1732C136.452 78.6049 137.171 78.5496 134.848 78.9917C132.249 79.4891 130.369 81.4235 127.88 82.0314C127.382 82.1419 126.995 79.9313 127.216 82.9709C126.055 82.0867 123.511 83.192 124.451 83.6894C123.732 84.4631 122.35 83.9105 122.073 85.0711C119.64 82.6946 115.769 90.7082 112.893 86.5632C112.396 89.3818 110.35 91.0951 107.585 91.4267C106.202 91.5925 105.373 92.0899 104.101 92.4768C103.824 92.5873 103.769 92.9189 103.437 93.0294C102.995 93.1952 102.331 92.7531 101.999 92.8084C101.336 92.9742 100.617 93.8584 99.6765 94.0242C98.5952 94.19 97.495 94.19 96.4137 94.0242C95.0865 93.8584 94.4782 93.6926 93.2063 94.1347C92.0449 94.5216 90.773 95.6269 89.7223 94.4111C88.1186 97.1744 84.0816 96.4559 82.0354 94.3005ZM160.784 58.7642C159.512 58.5984 160.397 57.4931 161.005 57.1615C162.609 56.2772 162.167 58.93 160.784 58.7642ZM89.4458 69.3201C97.022 58.4326 109.962 50.9164 121.355 44.616C127.548 41.1895 133.908 37.8183 140.433 34.9997C143.696 33.618 146.959 32.2364 150.277 31.0205C152.047 30.3573 153.816 29.7494 155.641 29.1967C156.139 29.0309 157.024 28.5335 157.577 28.5888C157.466 28.5888 158.849 28.9756 158.572 29.0862C159.457 28.6993 159.899 27.7045 160.95 27.2624C162.211 26.8189 163.539 26.5946 164.876 26.5992C165.983 26.5439 166.978 27.0413 168.029 27.0413C168.748 27.0413 169.301 26.7097 170.02 26.7097C170.351 26.7097 170.351 27.2071 170.573 27.2624C170.683 27.2624 171.568 26.9308 171.623 26.9308C171.955 27.1518 172.287 27.9808 172.563 28.3124C173.519 29.2258 174.647 29.9397 175.881 30.4126C177.319 31.0205 180.803 31.6284 179.144 33.8943C180.305 33.7285 180.803 34.7786 179.365 34.9997C178.591 35.1655 178.259 34.447 177.706 33.9496C176.379 32.8443 173.172 31.2416 171.236 31.2968C170.185 31.3521 169.301 32.1811 168.305 32.4574C167.31 32.7338 166.867 32.2916 165.983 32.3469C164.987 32.4574 164.323 33.2864 163.383 33.4522C162.499 33.618 162.001 33.0101 161.171 33.0101C160.231 33.0654 159.291 33.8943 158.406 34.1707C157.046 34.5216 155.73 35.0221 154.48 35.6629C151.77 37.0998 148.673 37.5972 145.853 38.8131C143.586 39.8079 141.042 40.3053 138.94 41.3553C136.618 42.5712 134.295 43.7318 132.028 45.0582C130.369 45.9977 127.051 46.3293 125.226 46.1082C125.226 49.4242 123.567 47.103 121.908 48.54C122.296 48.8813 122.746 49.1441 123.235 49.3137C121.465 50.0321 119.806 50.9164 118.036 51.7454C116.267 52.5744 114.331 52.7955 113.17 54.3982C112.064 55.8904 112.451 55.1166 110.847 55.6693C110.128 55.9456 109.465 56.7746 108.912 57.3273C107.972 58.2668 107.806 59.7038 107.253 57.7694C107.087 57.9905 106.479 59.4827 106.368 59.538C105.704 58.8195 105.594 59.6485 105.262 59.9801C105.428 60.6433 105.151 61.0302 104.432 61.2512L103.271 62.0802C101.889 63.075 100.064 63.904 99.1235 65.3409C98.9519 65.2588 98.7997 65.1412 98.677 64.9959C98.5543 64.8506 98.4638 64.6809 98.4115 64.4981C98.3593 64.3153 98.3464 64.1235 98.3738 63.9353C98.4012 63.7472 98.4682 63.567 98.5705 63.4066C97.1879 64.6777 95.5289 66.0041 95.1418 67.9937C94.9608 67.8334 94.7555 67.7028 94.5335 67.6069C93.9805 67.9937 94.6994 69.0991 95.0865 69.3754C96.6349 68.7675 94.6994 68.9885 95.7501 69.0991C96.0529 69.2239 96.368 69.3165 96.6902 69.3754C97.6328 69.3769 98.5747 69.3215 99.5106 69.2096C101.625 68.8309 103.713 68.314 105.76 67.6621C107.972 66.9989 110.239 66.3357 112.396 65.5067C114.165 64.8435 115.935 64.0698 117.705 63.3513C118.424 63.075 119.142 62.7434 119.806 62.4671C121.133 61.9144 121.852 60.9749 121.686 62.5776C122.737 62.4118 123.677 60.8644 124.507 60.2564C125.657 59.3961 126.948 58.7416 128.322 58.3221C128.814 58.1095 129.337 57.9788 129.871 57.9352C130.147 57.9352 130.313 58.709 130.479 58.709C131.696 58.4326 131.143 57.7142 131.696 56.7746C132.912 54.6193 136.175 53.4587 138.166 52.2428C139.438 51.4691 140.323 50.419 141.484 49.59C141.934 49.2626 142.44 49.0192 142.977 48.8715C143.42 48.761 143.973 49.7558 144.249 48.761C143.336 48.2962 142.394 47.8901 141.429 47.5452C140.71 47.3241 141.595 46.6056 140.489 47.0478C140.046 47.2136 139.88 48.0978 139.714 48.4294C138.498 47.3241 135.014 48.4847 133.576 48.9268C133.465 48.9821 133.023 48.7057 132.802 48.761C131.972 48.8163 131.364 49.9769 130.811 50.419C129.318 51.6901 127.714 52.2428 125.945 53.0165C126.442 50.3637 129.981 49.3137 132.028 48.2636C135.069 46.7714 137.89 44.8924 141.208 44.1186C143.42 43.566 146.351 43.1791 147.291 45.7214C147.844 47.2688 147.954 51.0822 146.019 51.8007C145.798 51.0822 146.461 50.4743 146.682 49.8663C144.747 50.5848 144.415 52.906 142.977 54.1219C142.37 54.5195 141.86 55.0483 141.484 55.6693C141.151 56.4258 140.639 57.0897 139.991 57.6036C138.498 54.3982 138.719 58.7642 137.945 59.3169C138.277 59.0958 136.673 59.759 136.894 59.6485C136.839 59.6485 136.12 58.5984 135.678 58.5984C134.903 58.6537 135.014 59.538 134.627 59.9801C133.3 61.4723 131.641 62.4671 129.539 62.246C129.484 63.2961 129.816 64.5672 128.378 64.6777L128.212 62.3013C127.438 63.1303 126.387 63.8487 125.723 64.7883C125.004 65.8383 125.06 66.5015 123.843 67.22C122.571 67.9385 119.861 69.4307 118.368 69.5412C118.464 69.4391 118.536 69.3165 118.578 69.1827C118.619 69.0489 118.63 68.9073 118.608 68.7688C118.587 68.6303 118.534 68.4985 118.454 68.3833C118.375 68.2682 118.269 68.1727 118.147 68.1043C117.373 68.878 116.267 68.9885 115.437 69.6517C118.258 70.8123 113.281 70.757 112.617 70.9228C112.175 71.0334 111.843 71.4202 111.4 71.4755C110.847 71.586 110.737 70.9781 110.294 71.1992C109.575 71.4755 109.852 72.2492 109.133 72.6361C108.58 72.9124 107.695 72.9124 107.087 73.1888C105.649 73.852 102.552 75.2336 101.557 73.5204C101.059 76.4495 95.9713 74.681 94.1464 74.4599C91.4919 73.9625 87.0678 72.7466 89.4458 69.3201ZM100.229 39.0894C100.303 39.0148 100.391 38.9567 100.489 38.9187C100.586 38.8807 100.69 38.8637 100.795 38.8689C100.899 38.8742 101.002 38.9014 101.095 38.949C101.188 38.9965 101.27 39.0632 101.336 39.1447C100.838 36.4919 104.764 35.1655 106.479 34.0602C108.746 32.568 111.4 29.6388 114.387 29.8599C113.889 30.2468 113.391 30.6336 112.893 30.9652C113.612 31.0758 114.331 31.131 115.05 31.2416C114.663 31.8495 114.221 32.4574 113.834 33.0101C113.17 29.3625 109.686 33.9496 108.691 34.6681C107.659 35.2477 106.679 35.9132 105.76 36.6577C104.875 37.4867 104.045 38.9789 102.607 38.2051C102.497 40.3053 100.783 39.7526 99.6212 40.9132C99.4553 40.1947 99.8977 39.6973 100.229 39.0894ZM115.603 28.644C119.198 27.3176 122.295 24.8307 125.668 23.0621C128.875 21.3489 132.194 19.8567 135.456 18.254C137.115 17.425 140.157 15.3801 142.092 16.4302C144.636 17.8671 141.152 18.3092 140.212 18.8066C139.88 16.596 138.664 18.5856 139.383 19.8014C137.447 18.9724 133.134 22.2884 131.253 23.1727C130.811 23.3937 131.032 23.5043 130.535 23.7253C130.424 23.7806 129.207 24.0569 128.82 24.1675C127.051 24.7754 125.889 24.278 125.17 26.4334L124.673 24.9412C123.567 27.4282 120.249 28.4782 118.092 29.9704C117.539 30.3573 115.99 31.7942 115.271 31.5179C114.331 31.131 114.718 28.9756 115.603 28.644ZM180.305 36.105C181.799 36.2155 180.361 36.934 180.748 37.3761C180.693 37.3209 181.633 38.1499 181.522 37.9288C181.688 38.2051 182.075 38.2051 182.296 38.8131C183.015 40.9132 179.863 43.1238 178.812 44.2844C176.766 46.6056 175.55 49.5347 173.448 51.8007C172.577 52.79 171.447 53.5172 170.185 53.9008C169.245 54.1771 168.25 53.9008 167.42 54.7851C166.701 55.5035 166.867 55.9457 166.093 56.3325C164.766 56.9957 164.158 56.443 162.83 57.88C161.724 54.7851 164.932 54.8403 166.646 53.1271C168.969 50.7506 171.568 48.3741 173.725 45.8319C175.66 43.566 176.434 41.6316 177.375 38.8683C177.651 37.9841 177.983 36.1603 178.812 35.6076C180.14 34.7786 179.365 36.0497 180.305 36.105ZM187.771 115.854C191.802 111.328 196.617 107.565 201.984 104.746C203.919 103.806 206.629 102.535 208.564 104.027C210.5 105.464 210.113 108.338 209.283 110.328C208.509 110.051 209.228 107.288 208.841 106.625C208.011 105.133 206.186 105.907 204.914 106.404C203.485 106.928 202.157 107.695 200.988 108.67C200.546 109.112 199.606 109.499 199.329 109.775C198.887 109.609 198.61 109.72 198.555 110.162C198.601 110.297 198.619 110.44 198.61 110.582C198.6 110.724 198.563 110.863 198.5 110.991C198.444 111.102 197.836 110.715 197.781 110.77C197.394 111.102 197.062 111.488 196.675 111.765C195.898 112.257 195.191 112.852 194.573 113.533C193.246 115.191 191.476 116.131 190.149 117.678C189.881 118.105 189.641 118.548 189.43 119.005C188.767 119.778 187.771 120.442 186.997 121.271C185.682 122.603 184.257 123.823 182.739 124.918C182.006 125.429 181.37 126.065 180.859 126.797C180.637 127.129 180.527 129.008 180.527 129.008C179.034 130.666 179.31 127.35 179.421 126.963C180.693 122.486 184.785 119.115 187.771 115.854ZM179.587 145.919C179.753 146.638 179.918 147.191 180.14 147.909C178.923 146.914 178.923 146.914 179.587 145.919ZM178.315 148.185L176.987 149.512C175.992 148.462 178.481 148.02 178.315 148.185ZM177.651 130.555C177.209 132.434 175.494 134.7 174.333 136.192C174.444 136.027 173.338 136.358 173.227 136.414C172.785 136.635 173.835 138.237 172.342 137.519C171.844 137.795 172.84 139.011 172.121 139.508C170.13 134.921 175.605 130.942 177.706 127.571C178.812 128.51 177.928 129.505 177.651 130.555ZM164.6 155.315C166.093 155.702 166.812 155.48 167.807 153.988C168.416 153.104 168.637 151.612 169.964 152.883L170.185 151.225C172.121 151.999 171.955 154.873 172.84 156.475C173.227 154.651 174.222 149.622 177.209 150.451C180.582 151.336 174.997 157.138 174.444 158.575C173.282 156.807 173.725 158.465 172.895 158.686C172.121 158.907 170.96 158.354 170.075 158.41C167.31 158.575 164.876 159.791 162.333 160.841C161.669 159.128 161.061 157.415 160.397 155.646C161.89 155.757 164.987 151.778 165.374 154.707C164.268 154.541 163.936 154.541 163.439 155.591C163.805 155.427 164.199 155.334 164.6 155.315ZM170.794 177.808C171.824 177.884 172.858 177.902 173.891 177.863C175.826 177.145 175.107 174.934 175.55 173.332C176.379 174.05 175.937 175.432 176.158 176.371C176.434 177.477 177.319 178.471 177.375 179.687C177.54 182.395 175.328 181.787 173.614 182.672C172.176 183.445 172.01 184.385 170.794 182.34C170.462 181.787 169.743 180.35 169.798 179.632C169.909 179.024 171.015 178.416 170.794 177.808ZM173.116 189.58L172.342 188.696C174.72 189.414 173.338 188.309 173.835 186.872C175.66 188.088 177.153 189.304 178.536 186.927L181.024 196.93C179.365 197.317 177.209 194.775 176.047 193.891C175.384 193.393 171.734 191.404 173.946 190.851C173.669 190.409 173.393 190.022 173.116 189.58ZM189.32 158.244C187.937 159.57 186.555 160.289 185.061 161.283C183.734 162.168 184.177 163.218 183.071 164.213C182.296 164.876 180.527 165.539 179.587 166.092C177.928 166.976 176.434 167.197 174.72 166.147C175.162 169.905 172.619 170.181 169.411 170.955C167.863 171.287 166.978 171.839 165.872 170.458C165.098 169.518 164.821 167.75 165.761 166.921C167.254 165.539 171.236 166.036 173.116 165.152C174.554 164.489 176.047 160.786 177.817 162.112C176.877 160.62 177.983 160.233 178.757 159.183C179.642 158.023 180.195 156.696 181.08 155.536C182.977 153.251 185.284 151.339 187.882 149.899C190.038 148.738 191.145 149.567 191.476 151.999C191.642 153.215 191.642 155.038 190.979 156.088C190.757 156.42 190.038 156.42 189.817 156.752C189.541 157.304 189.873 157.691 189.32 158.244ZM214.592 129.174C216.307 130.5 216.141 133.319 216.417 135.198C216.804 137.906 216.528 140.503 216.472 143.211C216.417 146.085 215.035 147.964 214.371 150.617C213.652 153.601 212.712 155.204 211.053 157.691C212.823 157.967 210.168 163.328 209.726 163.992C209.228 164.765 205.412 168.192 207.071 168.192C206.186 169.408 205.191 170.623 204.251 171.784C203.919 172.226 203.255 172.447 202.979 172.724C202.426 173.387 202.371 173.995 201.984 174.713C201.375 175.874 201.154 175.542 200.325 176.426C199.771 177.034 199.384 177.808 198.831 178.361C197.062 180.185 196.841 178.692 195.79 177.311C195.719 177.488 195.606 177.645 195.462 177.77C195.318 177.895 195.146 177.984 194.96 178.029C194.628 176.482 196.785 174.879 197.725 173.939C199.218 172.392 200.546 170.623 201.873 168.965C204.71 165.326 207.157 161.399 209.173 157.249C211.347 152.776 212.927 148.038 213.873 143.156C214.537 139.453 215.201 133.153 210.223 132.213C206.629 131.55 202.647 133.706 199.716 135.474C197.891 136.524 196.122 137.629 194.352 138.845C192.472 140.172 190.868 141.995 188.822 143.046C189.928 142.493 186.278 144.206 186.831 143.709C186.555 143.93 186.776 144.648 186.61 144.925C186.224 145.364 185.754 145.721 185.227 145.975C184.287 146.693 182.794 147.412 182.407 148.517C176.49 144.317 188.214 136.856 191.255 134.977C197.338 131.219 207.68 123.868 214.592 129.174ZM230.519 88.3318C230.464 85.2921 232.952 81.2024 234.611 78.7154C235.441 77.4996 236.713 77.5548 237.21 76.1179C237.487 75.2889 237.1 74.4599 237.21 73.6309C237.382 72.5653 237.778 71.5482 238.372 70.6465C243.404 61.9697 249.542 54.3429 256.068 46.7714C259.275 43.0686 262.317 39.1999 265.801 35.6629C267.239 34.2259 271.165 28.9756 273.377 29.473C274.539 29.7494 275.258 31.5732 275.755 32.4574C276.63 33.9614 277.609 35.4019 278.686 36.7682C281.454 40.4661 284.818 43.6784 288.64 46.274C291.018 47.932 293.452 49.4795 295.83 51.1927C297.765 52.5744 300.696 54.2324 302.079 56.1667C303.461 58.1563 301.415 59.8143 300.309 61.4723C298.595 64.0145 296.991 66.6673 295.277 69.2096C294.613 68.7122 294.779 67.7174 294.281 67.0542C293.819 66.5765 293.276 66.1837 292.677 65.8936C291.571 65.2304 290.465 64.4014 289.47 65.5067C287.7 67.4411 290.134 72.0282 292.733 71.5308C293.064 73.4651 287.866 76.6153 286.539 77.6654C282.557 80.9261 278.465 83.7447 273.211 84.021C271.061 84.1806 268.901 83.9178 266.852 83.2473C265.826 82.9441 264.881 82.4153 264.087 81.6998C263.202 80.8155 262.981 79.4892 262.096 78.6049C261.322 77.8312 260.326 77.7206 259.552 76.9469C258.778 76.1732 258.446 74.9573 258.114 73.9625C257.506 72.0282 257.395 69.9833 256.842 68.049C256.51 66.8884 256.234 65.2857 255.073 66.4463C253.469 68.1043 254.243 73.244 254.685 75.1784C255.294 77.997 256.676 80.2076 258.114 82.6393C259.718 85.2369 260.271 87.6686 260.547 90.7082C261.109 96.3304 262.703 101.801 265.248 106.846C266.299 109.001 267.571 110.991 268.732 113.091C269.285 114.086 270.446 117.402 271.939 117.402C274.262 117.347 270.944 110.604 270.502 109.444C267.958 103.143 265.525 96.5112 264.971 89.6582C268.621 90.5977 272.603 91.482 276.419 90.874C273.986 96.3454 276.529 101.762 276.198 107.399C276.032 110.217 275.921 112.815 275.976 115.633C276.032 118.12 274.926 120.552 273.93 122.818C271.995 127.239 269.617 132.711 266.078 136.082C263.091 138.901 259.11 139.122 255.238 138.458C246.39 136.966 240.639 130.168 236.934 122.486C234.533 117.528 232.751 112.294 231.625 106.901C230.298 100.877 230.63 94.6321 230.519 88.3318ZM241.966 46.4398C233.726 40.4711 245.671 33.7285 251.81 34.6681C253.248 34.8891 255.847 35.4971 255.736 37.3209C255.626 38.8683 253.082 40.5263 252.086 41.4658C249.321 44.1186 246.446 49.7005 241.966 46.4398ZM301.857 178.748C301.581 178.471 299.258 179.135 300.198 177.753C300.973 176.648 303.074 178.029 303.848 178.306C303.185 178.748 302.632 179.411 301.857 178.748ZM267.571 250.76C266.852 250.87 266.133 248.936 268.677 250.373C268.29 250.483 267.958 250.649 267.571 250.76ZM267.515 281.875C267.626 282.704 267.847 283.312 267.239 283.92C266.741 283.256 266.686 282.372 267.515 281.875ZM268.566 294.697C268.511 295.139 268.4 295.636 268.345 296.078C267.737 295.802 267.184 295.47 266.575 295.194L268.566 294.697ZM269.285 283.864C270.17 284.196 269.727 283.146 270.391 282.98C270.493 283.488 270.487 284.011 270.373 284.516C270.259 285.02 270.039 285.495 269.727 285.909C269.544 285.236 269.396 284.553 269.285 283.864ZM291.682 206.326C290.465 206.16 290.244 207.486 289.359 207.984C288.751 208.315 286.981 208.039 286.65 208.702C287.092 208.813 287.534 208.978 287.977 209.089C286.981 209.642 285.931 210.194 284.935 210.747C287.368 210.747 289.912 209.586 292.346 209.918C292.82 209.961 293.281 210.1 293.7 210.328C294.119 210.557 294.486 210.868 294.779 211.244C295.195 211.814 295.461 212.479 295.553 213.179C295.608 213.842 295.111 214.339 295.166 214.616C296.272 214.671 296.106 216.439 295.885 217.158C295.332 218.761 293.23 221.248 291.35 220.197C292.124 221.303 291.958 221.966 290.742 222.629C290.852 222.242 290.908 221.579 290.299 221.69C290.134 222.298 290.189 223.292 289.691 223.79C289.138 224.342 288.585 223.679 288.087 224.066C287.424 224.453 287.645 225.116 287.147 225.558C286.484 226.166 286.373 225.724 285.599 225.835C284.382 226 285.156 225.227 284.161 226.222C283.829 226.553 283.884 227.437 283.331 227.935C282.281 228.874 279.46 229.869 278.465 228.653C276.032 232.467 268.787 233.406 265.414 230.366C260.05 225.558 270.059 215.721 273.377 212.571C276.695 209.421 280.401 206.768 284.161 204.115C286.262 202.623 288.474 201.296 290.687 199.97C292.069 199.141 293.783 197.649 295.498 197.815C296.991 197.925 298.318 199.141 299.922 199.362C301.083 199.528 303.295 199.804 301.857 201.352C301.194 202.07 298.484 203.286 297.599 203.452C297.046 203.562 296.493 203.341 295.995 203.452C295.111 203.618 294.502 204.391 293.507 204.281C293.783 205.828 293.23 206.547 291.682 206.326ZM307.664 152.607C307.664 153.712 305.618 153.436 305.175 153.049C304.457 152.441 304.457 150.507 304.18 149.678C305.341 150.009 307.664 151.114 307.664 152.607ZM291.018 115.247C295.34 111.666 299.924 108.414 304.733 105.52C306.447 104.47 308.881 102.425 311.037 102.646C311.922 102.756 313.802 103.806 313.139 104.912C313.028 105.133 312.033 105.188 311.701 105.354C311.369 105.52 311.093 106.017 310.761 106.238C308.493 107.896 305.784 108.891 303.516 110.604C301.636 111.986 299.922 113.533 297.931 114.749C295.995 115.91 294.005 116.628 292.18 117.899C292.235 117.899 289.802 118.728 290.299 118.894C288.143 118.231 290.41 115.744 291.018 115.247ZM319.941 113.92C322.54 112.87 325.029 111.654 327.738 110.936C329.082 110.538 330.488 110.388 331.886 110.494C331.916 110.402 331.968 110.32 332.037 110.253C332.107 110.186 332.191 110.137 332.284 110.109C332.376 110.082 332.474 110.078 332.568 110.097C332.662 110.115 332.751 110.157 332.826 110.217C333.133 110.682 333.551 111.062 334.043 111.323C334.817 111.931 337.637 112.704 337.084 113.975C336.697 114.86 333.877 114.915 333.102 115.081C330.725 115.689 328.568 116.96 326.135 117.291C325.793 117.269 325.458 117.194 325.139 117.07C324.199 117.291 323.425 118.231 322.595 118.728C320.826 119.723 318.337 119.889 317.065 121.657C321.102 124.421 324.641 121.657 328.236 119.613C330.389 118.389 332.67 117.407 335.038 116.683C336.255 116.241 337.471 115.854 338.743 115.468C339.262 115.28 339.8 115.151 340.347 115.081C340.567 115.011 340.806 115.03 341.012 115.133C341.218 115.236 341.377 115.416 341.453 115.633C342.946 115.578 343.057 114.639 343.997 116.407C345.269 118.894 343.333 118.728 341.508 119.06C338.964 119.502 336.421 120.442 333.877 121.049C333.324 121.215 328.236 122.376 328.236 122.431C328.015 124.034 342.504 122.542 343.72 122.321C345.932 121.878 348.255 120.718 350.522 120.994C352.292 121.215 356.218 123.758 353.453 125.471C352.9 122.873 351.02 125.029 350.025 125.913C348.697 127.074 346.817 126.963 345.048 127.46C342.614 128.068 336.31 130.445 334.54 127.46C335.093 130.113 325.084 128.787 323.701 128.676C322.374 128.566 320.604 128.897 319.332 128.51C318.503 128.234 318.005 127.737 317.231 127.571C317.027 127.769 316.781 127.92 316.512 128.013C316.11 127.806 315.738 127.546 315.406 127.239C312.752 126.023 308.549 125.305 310.042 121.381C311.535 117.568 316.567 115.302 319.941 113.92ZM345.103 116.186C345.159 115.941 345.233 115.701 345.324 115.468C345.324 116.186 347.038 116.462 346.817 117.402C346.375 119.447 344.439 116.407 344.273 116.076C344.546 116.139 344.823 116.176 345.103 116.186ZM355.389 119.557C355.61 120.386 357.822 122.155 357.269 122.542C356.384 121.381 353.951 121.934 355.389 119.557ZM317.563 195.383C318.392 193.78 320.881 196.543 320.604 193.725C321.932 193.835 321.102 194.885 322.706 194.443C323.314 194.278 323.701 193.614 324.475 193.449C324.917 193.421 325.361 193.421 325.803 193.449C326.798 193.393 330.614 193.338 327.96 192.012C329.453 191.017 329.618 191.514 330.946 192.398C330.614 190.575 332.549 191.625 333.49 191.846C332.826 190.796 334.43 189.69 334.983 188.972C334.817 190.077 334.872 191.293 336.476 190.575C336.863 190.409 336.808 189.635 337.084 189.525C337.637 189.304 337.969 189.69 338.19 189.69C338.54 189.751 338.899 189.732 339.241 189.635C339.794 189.414 339.517 188.696 340.236 188.585C340.679 188.53 341.011 189.193 341.564 189.193C341.84 189.193 342.338 188.917 342.559 188.917C342.614 188.917 342.891 188.253 343.223 188.253C343.72 188.253 343.886 189.525 344.107 189.801C344.962 190.96 346.106 191.875 347.425 192.454C345.048 194.609 340.292 194.388 337.305 195.107C335.754 195.513 334.252 196.087 332.826 196.82C332.475 197.05 332.158 197.329 331.886 197.649C331.674 197.515 331.471 197.367 331.278 197.207C330.448 197.262 329.729 196.875 328.789 196.986C325.969 197.483 323.757 199.583 320.936 200.025C319.664 200.246 318.614 200.523 317.784 199.417C316.899 198.533 317.065 196.433 317.563 195.383ZM313.692 182.395C314.355 182.948 313.581 184.661 314.798 184.495C315.683 184.385 315.517 183.003 316.18 182.727C317.065 182.34 317.618 183.224 318.503 183.169C320.107 183.003 319.996 181.621 318.669 181.014C320.051 180.627 320.494 182.285 321.71 182.285C323.314 182.285 322.927 180.35 324.31 180.019C324.918 179.908 324.697 180.737 325.084 180.848C325.858 181.069 326.411 180.682 327.075 180.35C327.683 180.074 328.125 179.466 328.789 179.3C329.121 179.19 329.895 179.356 330.116 179.19C330.559 178.858 330.946 177.587 331.388 177.421C331.871 177.755 332.391 178.033 332.937 178.25C332.826 178.803 332.494 178.858 332.052 178.416C332.052 179.632 335.425 180.019 334.762 178.527C336.586 179.3 335.204 179.687 335.038 180.737C334.983 181.179 334.706 181.124 334.817 181.622C334.872 181.843 335.812 181.677 335.812 181.953C335.757 183.777 329.95 184.33 328.844 184.495C326.591 184.84 324.37 185.376 322.208 186.098C320.549 186.595 317.784 188.088 316.014 187.977C313.526 187.867 313.194 184.606 313.692 182.395ZM308.106 163.826C307.498 161.781 309.434 157.636 311.977 158.133C312.586 158.244 312.752 158.796 313.249 159.018C313.913 159.349 315.019 159.183 315.627 159.515C316.955 160.233 316.291 162.168 317.618 162.831C315.517 163.328 309.102 167.031 308.106 163.826ZM310.54 171.674C311.424 171.176 312.918 171.121 313.526 170.181C313.858 170.402 314.411 171.674 314.964 171.452C315.24 171.342 315.461 170.679 315.461 170.679C315.959 170.679 316.07 170.016 316.789 170.071C317.452 170.126 318.227 170.955 318.835 171.287C318.724 169.242 319.277 169.076 320.881 167.971C321.268 167.75 321.545 166.81 321.876 166.479C321.545 168.634 322.374 168.634 324.088 168.965C325.07 169.106 325.993 169.516 326.755 170.15C327.517 170.784 328.087 171.618 328.402 172.558C326.577 172.226 324.199 172.613 323.48 174.603C322.042 171.95 316.733 175.597 315.019 176.371C313.747 176.924 312.254 177.698 311.203 176.371C310.429 175.432 310.871 174.382 310.927 173.553C310.927 173.276 311.203 173.276 311.148 172.889C311.148 172.447 310.54 172.226 310.54 171.674ZM330.006 213.51C329.508 213.676 327.019 213.787 327.019 212.958C327.019 212.239 331.388 212.958 330.006 213.51ZM325.969 210.857C324.088 212.018 321.987 207.928 321.323 206.768C323.314 207.044 324.254 205.386 325.416 204.115C326.522 206.547 328.181 205.276 329.95 204.447C332.052 203.507 334.319 203.507 336.421 202.733C337.084 202.512 337.692 202.125 338.356 201.849C338.854 201.628 339.407 201.462 339.905 201.241C340.084 201.101 340.216 200.91 340.285 200.693C340.355 200.476 340.357 200.243 340.292 200.025C340.126 199.638 340.236 199.362 340.623 199.251C341.11 199.397 341.61 199.489 342.117 199.528C342.946 199.362 344.107 198.588 343.112 197.759C344.163 196.82 345.213 197.759 346.264 198.201C346.043 197.483 345.766 196.82 345.545 196.101C346.043 196.322 347.536 198.422 347.702 198.422C348.697 198.367 348.587 197.041 349.14 196.543C349.472 196.93 349.582 199.915 350.799 198.92C351.352 198.478 350.191 197.041 349.859 196.709C351.297 197.041 352.568 198.754 352.956 200.136C352.278 200.236 351.587 200.078 351.02 199.694C350.633 201.573 354.117 200.799 354.67 201.794C355.776 203.728 348.642 205.054 347.702 205.22C345.822 205.552 343.665 205.718 341.951 206.547C340.292 207.32 339.905 207.541 338.024 207.707C335.868 207.873 333.711 208.592 331.609 209.144C329.895 209.531 327.628 209.863 325.969 210.857ZM365.841 142.382C367.555 141.774 373.362 138.569 374.855 139.951C375.137 140.718 375.488 141.458 375.906 142.161C376.016 143.488 375.961 143.985 374.357 144.648C373.196 145.09 372.2 144.151 371.15 144.538C369.988 144.98 370.818 145.698 370.21 146.196C369.546 146.748 368.329 147.025 367.5 147.246C365.509 147.854 363.573 148.351 361.583 149.014C357.601 150.341 353.398 151.557 349.306 152.496C346.264 153.215 341.066 154.928 338.245 152.883C337.969 154.044 337.305 153.878 336.365 154.044C335.472 154.258 334.567 154.424 333.655 154.541C332.549 154.596 329.563 154.265 330.006 152.772C329.895 153.215 332.328 151.778 331.941 151.667C332.992 151.888 332.66 151.336 333.49 151.059C334.596 150.672 335.757 150.672 336.918 150.285C339.794 149.291 342.172 147.964 345.213 147.301C352.181 145.919 359.205 144.759 365.841 142.382ZM88.3951 299.118C87.8421 299.118 87.3997 297.515 89.114 298.676C88.8928 298.786 88.6716 298.952 88.3951 299.118ZM74.9569 297.018C74.1827 297.239 73.9062 296.797 74.0721 295.747C75.0675 295.36 75.3993 295.747 74.9569 297.018ZM64.505 294.918C64.2838 293.978 65.0027 293.757 65.611 293.37C65.611 294.586 65.611 294.586 64.505 294.918ZM38.3476 287.236C37.2968 287.015 35.9143 285.964 35.6378 287.678C35.4719 287.291 34.5871 285.412 34.9742 284.97C35.1954 284.749 35.9143 285.799 35.859 285.688C36.7991 283.809 38.3476 286.075 39.2877 286.738C38.9559 286.904 38.6241 287.07 38.3476 287.236ZM312.53 81.0366C312.918 80.2629 313.305 80.0418 313.802 80.3181C313.028 82.0867 310.429 83.0815 312.53 81.0366ZM330.78 64.1251C331.443 65.3409 330.448 65.8383 329.729 66.8884C330.172 65.7831 330.448 65.0646 330.78 64.1251ZM410.082 183.114C412.404 183.114 417.437 181.898 418.819 184.551C419.759 182.727 420.81 186.153 421.64 186.706C421.75 186.761 422.303 186.319 422.58 186.485C423.001 186.853 423.34 187.304 423.575 187.811C424.294 189.027 424.57 190.464 424.958 191.791C420.865 191.791 416.662 190.851 412.57 190.464C409.902 190.262 407.224 190.225 404.552 190.354C403.999 190.409 402.948 190.188 402.505 190.298C402.063 190.409 401.178 191.348 400.68 191.183C401.455 192.675 411.685 196.267 412.46 194.609C411.519 194.056 409.473 193.614 409.473 192.288C409.473 190.796 411.409 190.796 412.404 190.851C414.616 190.962 418.377 191.68 419.262 194.001C419.649 194.996 419.759 197.483 419.317 198.422C419.04 199.03 418.598 199.804 417.824 199.915C417.492 199.97 417.105 199.583 417.05 199.583C415.501 199.915 412.681 201.131 411.022 199.417C409.805 200.965 404.054 199.251 402.284 198.699C399.187 197.649 394.929 196.267 393.049 193.393C390.782 189.856 395.427 186.927 398.081 185.49C401.842 183.556 405.989 183.114 410.082 183.114ZM425.677 191.238C426.395 191.459 427.114 191.625 427.833 191.846C427.667 193.117 424.792 192.122 425.677 191.238ZM447.41 237.054C447.631 232.024 446.193 227.548 445.308 222.684C445.087 221.469 445.308 219.368 444.368 218.374C443.483 217.434 441.548 218.208 441.437 216.495C440.553 217.489 440.663 217.71 439.612 216.55C439.815 217.04 439.854 217.583 439.723 218.097C439.059 217.71 436.681 216.439 436.847 218.208C434.857 217.766 435.465 216.55 434.303 215.61C434.138 215.5 433.474 215.942 433.253 215.776C432.874 215.416 432.523 215.028 432.202 214.616C431.671 215.157 431.098 215.656 430.488 216.108C430.329 215.728 430.08 215.394 429.762 215.134C429.444 214.873 429.066 214.695 428.663 214.616C429.437 216.218 431.262 218.208 428.718 219.147C427.17 219.7 424.681 219.037 423.077 219.147C417.105 219.59 410.524 218.318 404.717 216.881C398.745 215.389 392.772 213.344 387.408 210.305C386.389 209.675 385.443 208.934 384.588 208.094C383.648 207.32 382.929 207.21 381.767 206.712C379.688 205.773 377.81 204.441 376.237 202.789C372.864 199.362 369.712 194.83 370.652 189.801C371.592 184.772 375.021 180.848 378.726 177.587C383.096 173.693 387.969 170.403 393.215 167.805C395.537 166.644 401.51 162.223 403.833 164.821C405.326 166.479 404.496 168.579 402.45 168.965C401.952 169.076 401.455 168.744 400.957 168.965C400.238 169.297 400.515 169.684 400.183 169.96C399.654 170.594 399.04 171.152 398.358 171.618C395.648 173.055 393.049 174.216 390.45 175.984C389.233 176.813 388.127 177.145 387.076 177.863C386.026 178.582 385.804 179.742 384.367 179.024C384.864 181.069 381.878 183.279 380.661 184.495C378.836 186.43 376.624 188.917 377.509 191.791C379.168 197.428 386.689 201.683 391.556 204.17C397.621 207.366 404.153 209.586 410.911 210.747C414.229 211.244 417.713 211.576 421.031 211.907C423.63 212.184 427.667 211.244 429.548 213.621C429.603 210.857 438.175 211.134 440 210.747C436.35 198.257 429.16 187.148 421.474 176.758C417.713 171.674 414.008 166.423 409.695 161.726C404.994 156.586 399.63 152.054 394.487 147.356C384.477 138.127 373.14 129.892 361.638 122.652C350.135 115.412 338.245 108.283 325.637 103.143C311.259 97.2297 296.106 93.361 280.954 90.045C283 87.4475 286.373 86.1211 288.972 84.2421C289.912 83.5789 291.129 81.9761 292.346 81.7551C293.617 81.534 294.668 82.9157 295.608 83.6341C298.263 85.6237 300.088 84.7947 303.129 84.6842C304.954 84.6289 309.268 85.6237 309.987 83.192C310.982 84.5737 309.544 85.6237 308.77 86.6185C309.323 87.3922 309.765 86.5632 310.318 86.4527C310.484 86.2869 310.65 86.1764 310.816 86.0106C311.093 85.6237 311.314 85.6237 311.535 86.0106C311.867 86.508 312.199 86.3975 312.53 85.679C312.641 85.6237 312.696 85.5685 312.807 85.5132C313.194 85.2921 313.581 84.9605 313.968 84.7395C316.547 82.7866 319.306 81.0841 322.208 79.6549C324.752 78.4391 323.369 76.1179 325.084 74.4599C325.471 74.073 326.135 74.2941 326.522 73.9625C326.909 73.6309 326.964 73.2993 327.296 72.9677C328.015 72.194 327.185 71.2544 328.955 72.194L328.291 68.5464C331.775 71.9176 331.775 62.1908 332.273 60.6986C332.218 60.8644 332.605 59.4274 332.605 59.4274C332.715 56.4983 333.102 54.3429 329.674 54.1771C331.001 53.3481 331.388 54.9509 331.996 53.2929C332.273 52.4639 331.333 51.0269 332.881 51.5796C333.213 49.8111 332.881 48.3741 332.494 46.6609C332.107 44.8924 332.328 43.7318 332.328 41.9632C332.328 39.9737 331.443 37.9841 331.112 35.9945C330.89 34.447 331.112 32.0706 329.121 32.6232C328.844 32.1811 329.84 30.8547 329.784 30.1915C329.729 29.1414 328.623 28.0914 328.291 27.1518C328.075 27.395 327.791 27.5672 327.475 27.6461C327.159 27.725 326.827 27.7068 326.522 27.594C327.13 26.2676 326.577 25.8255 325.969 24.6649C325.637 24.0017 325.858 23.2832 325.139 22.7858C324.752 22.5095 324.033 22.9516 323.757 22.6753C323.093 22.0121 323.314 21.0725 322.872 20.1883C322.263 19.0829 320.936 18.1987 320.051 17.3144C314.908 12.5615 309.323 8.85866 302.466 7.03487C295.553 5.15581 287.534 4.49261 280.622 6.648C277.857 7.53227 275.423 7.42173 272.935 9.02446C272.105 9.57712 272.05 9.41132 271.663 10.2956C271.552 10.5167 272.437 11.0693 271.884 11.4009C271.331 11.7878 270.668 11.0141 270.391 10.4061C266.796 13.0036 263.478 16.4302 261.432 20.4093C259.386 24.3333 259.22 28.9756 258.446 33.2312C254.907 28.7546 250.096 26.8202 244.842 28.7546C240.252 30.4678 236.713 34.2259 235.828 39.0894C235.334 42.037 235.819 45.0652 237.21 47.711C237.819 48.8715 238.482 50.1427 239.588 50.9164C240.418 51.5243 241.911 51.4691 242.298 52.5744C242.906 54.2877 239.367 57.9352 238.482 59.4274C236.788 62.0971 235.326 64.9077 234.113 67.8279C229.911 61.9144 225.874 55.393 221.118 49.9216C216.583 44.7818 211.219 40.1395 205.965 35.7734C195.016 26.7097 183.624 18.1987 171.402 10.9588C159.899 4.27155 146.129 0.568697 132.857 1.83982C119.861 3.11095 109.907 11.3456 101.557 20.7962C85.4641 38.9789 75.6205 64.9541 74.6804 89.1608C74.332 96.3878 75.021 103.628 76.7265 110.659C77.556 114.031 77.4454 117.347 77.9432 120.718C78.4962 124.531 79.4916 128.4 80.4317 132.158C84.0841 146.554 88.5147 160.741 93.704 174.658C96.3584 181.843 99.5659 188.917 103.935 195.272C105.926 198.201 108.525 200.523 110.737 203.286C112.838 205.994 113.391 209.31 113.834 212.626C114.94 220.584 115.659 228.543 116.322 236.556C116.599 239.928 116.93 243.299 117.373 246.67C117.76 249.599 116.765 249.433 114.331 250.483C114.829 247.831 103.05 249.654 101.889 249.82C100.672 250.041 99.4 250.041 98.4599 250.152C97.3709 250.399 96.2585 250.529 95.1418 250.539C93.3169 250.483 89.9435 250.041 89.2799 252.307C88.7822 249.654 85.6853 252.584 88.008 252.086C85.63 252.363 83.1968 251.92 80.7635 252.141C77.9985 252.418 75.2334 252.639 72.4683 253.081C70.5328 253.357 68.7079 254.131 66.8276 254.297C64.3944 254.573 61.7952 254.518 59.362 254.739C50.2373 255.568 40.7808 257.558 31.9326 259.824C29.9418 260.321 27.6192 260.708 25.6836 261.537C25.1859 261.758 24.6882 262.255 24.1905 262.421C23.361 262.753 23.4716 262.532 22.7527 262.642C18.3839 263.526 13.8492 264.963 9.42509 266.069C6.99184 266.677 3.01016 267.229 1.01932 268.942C0.134503 269.716 -0.639712 271.043 0.798116 271.927C1.95944 272.59 3.56317 271.54 4.50329 270.932C3.67377 273.087 2.12534 274.137 2.95486 276.569C3.61847 278.504 5.1116 280.88 7.37895 279.609C7.71075 280.327 7.82136 281.764 8.70617 281.985C9.53569 282.206 10.0887 281.212 10.9182 281.433C11.1947 281.543 11.0841 282.041 11.3606 282.206C11.8089 282.405 12.2709 282.571 12.7432 282.704C13.2581 282.927 13.7958 283.094 14.3469 283.201C14.6887 283.096 15.0076 282.927 15.287 282.704C15.9506 282.814 16.2824 284.085 16.7801 284.417C17.3248 284.841 17.9749 285.109 18.6604 285.191C20.2641 285.522 22.3102 286.13 23.4163 284.528C23.1951 285.688 24.7435 285.578 25.4624 285.743C25.4181 285.436 25.312 285.14 25.1504 284.874C24.9889 284.608 24.7752 284.377 24.5223 284.196C26.0707 284.307 25.4624 285.854 26.6237 286.296C27.4532 286.572 27.3426 285.854 28.0063 285.743C28.8358 285.633 29.4994 286.241 30.7713 285.688C31.0478 286.959 31.1584 288.23 32.7069 288.396C33.5917 288.507 35.7484 286.849 35.5825 288.23C37.6287 287.622 38.3476 288.065 39.4536 289.833C39.6195 288.728 40.5043 289.059 41.2785 289.004C42.5504 288.894 42.5504 289.004 43.5459 288.286C43.6565 288.23 44.3754 286.462 44.7625 287.567C44.9284 288.065 43.8777 289.225 43.5459 289.502C43.9883 289.723 45.5367 290.552 46.145 290.386C46.6427 290.275 46.6427 289.391 47.251 289.336C47.0851 289.833 46.9745 290.331 46.8086 290.828C47.97 290.994 48.9654 290.22 49.9055 289.612C50.7903 291.878 53.3342 290.607 54.7167 292.32C55.4356 293.204 55.4909 293.923 56.8734 294.144C58.3113 294.365 59.5832 293.757 60.7998 294.918C60.4127 294.199 59.4726 293.591 60.4127 292.762C61.0763 293.702 61.4081 294.807 62.127 295.636L62.4589 294.31C64.3944 296.41 66.8829 296.41 69.3715 297.57V296.244C71.1411 298.952 71.2517 297.239 73.4085 296.133C73.2426 296.963 73.132 297.736 72.966 298.565C74.5145 298.455 75.9523 300.278 77.2242 298.731C77.9985 300.002 78.9386 299.394 80.1552 299.781C80.8741 300.002 81.3718 300.721 82.0907 300.942C83.1415 301.329 83.418 301.329 84.4134 301.66C85.2982 301.936 85.7959 302.544 86.8466 302.71C87.5239 302.811 88.211 302.83 88.8928 302.765C89.1693 302.765 89.0587 302.158 89.667 302.323C90.5518 302.544 91.2154 303.65 91.879 304.258C92.8745 301.826 95.5842 305.087 96.9114 305.529C97.022 304.921 97.022 304.147 97.4644 303.65C98.0175 304.81 98.1834 305.805 99.2894 306.524C100.009 306.946 100.794 307.245 101.612 307.408C102.054 307.518 102.939 307.408 103.216 307.518C103.713 307.739 103.879 308.403 104.377 308.458C104.654 308.513 105.096 307.739 105.317 307.795C106.313 308.071 106.921 309.287 107.916 309.95C110.958 311.94 114.829 312.106 118.202 312.548C119.032 312.658 119.198 312.437 119.861 312.934C120.248 313.211 120.083 314.04 120.525 314.261C122.239 315.145 122.239 313.266 122.626 312.161C123.179 312.934 123.29 313.874 124.064 314.482C124.489 314.473 124.914 314.491 125.336 314.537C125.56 314.809 125.712 315.132 125.779 315.477C126.829 316.195 127.991 315.919 129.041 316.472C129.373 316.637 129.981 317.687 130.424 317.964C131.296 318.475 132.25 318.83 133.244 319.014C135.069 319.511 137.724 318.848 138.83 320.782C140.268 319.235 139.714 321.059 140.71 321.501C141.318 321.722 142.148 320.838 142.811 320.893C143.973 321.059 144.415 322.33 144.747 323.214C145.466 323.048 144.968 321.059 144.968 320.617C145.853 320.506 146.019 322.827 146.185 323.325C147.567 322.661 145.3 320.561 146.793 319.898C146.682 321.667 148.065 323.159 145.521 323.38C145.853 324.43 154.037 325.646 154.59 324.706C154.701 326.475 155.862 324.817 156.305 324.209C156.36 325.204 156.028 326.696 157.134 327.138C157.909 327.47 159.678 326.641 159.955 325.867C160.287 327.027 160.895 326.972 161.614 327.746C162.111 328.243 162.443 329.128 162.941 329.57C163.881 330.343 165.706 330.233 166.812 330.067C169.024 329.735 168.748 329.293 169.522 331.559C169.688 330.675 170.241 328.907 171.236 330.233C171.844 331.062 170.517 332.941 170.185 333.715C171.01 333.189 171.903 332.779 172.84 332.499C172.932 332.902 172.913 333.322 172.785 333.715C173.282 333.958 173.763 334.235 174.222 334.544C174.252 333.964 174.344 333.39 174.499 332.83C175.826 333.659 174.886 335.262 176.103 336.091C176.434 336.312 177.153 336.036 177.485 336.202C178.149 336.423 178.702 337.031 179.255 337.418C178.812 336.81 178.868 335.76 178.868 335.041C179.144 335.207 179.365 335.815 179.642 335.87C179.752 335.87 180.914 336.036 180.914 336.036C182.13 336.865 181.854 336.975 180.859 338.025C181.246 338.633 182.794 337.583 183.181 337.418C183.292 337.639 183.292 338.468 183.458 338.633C183.574 338.863 183.666 339.104 183.734 339.352C183.871 339.239 184.033 339.161 184.205 339.123C184.378 339.084 184.558 339.087 184.73 339.131C184.951 339.186 186.72 339.905 186.831 339.683C186.454 339.555 186.1 339.369 185.78 339.131C186.776 338.247 187.439 337.749 188.379 339.076C188.49 339.241 188.103 339.849 188.214 340.07C188.656 340.899 189.596 341.507 190.204 342.17C190.481 341.286 189.873 339.02 191.31 339.076C192.472 339.131 193.301 341.894 192.914 342.778C193.357 342.281 196.066 341.784 196.564 341.949C198.002 342.391 197.615 343.718 199.384 341.784C200.601 342.613 199.55 342.944 199.771 343.939C199.926 343.972 200.086 343.969 200.24 343.931C200.393 343.893 200.535 343.82 200.656 343.718C200.435 348.029 203.643 344.713 205.744 345.376C206.574 345.652 206.795 346.536 207.624 346.813C208.067 346.979 208.62 346.592 209.062 346.702C209.449 346.647 209.781 346.592 210.113 346.536C210.555 346.315 210.776 346.536 210.721 347.31C211.44 347.697 211.164 347.808 212.048 347.918C212.601 347.973 213.099 347.421 213.707 347.476C214.758 347.642 214.647 348.471 215.311 348.913C215.936 349.254 216.664 349.352 217.357 349.189C217.744 349.134 218.85 348.637 218.961 348.637C219.79 348.637 219.348 348.471 220.288 349.134C220.863 349.656 221.542 350.051 222.279 350.295C223.33 350.571 225.265 351.179 225.929 350.46C226.924 351.897 227.643 350.847 228.915 350.958C229.579 351.013 229.689 351.289 230.242 351.345C231.183 351.51 232.344 351.345 233.395 351.676C234.998 352.174 235.164 352.45 236.768 352.505C237.044 352.395 237.376 352.284 237.653 352.174C237.749 352.636 237.98 353.059 238.316 353.39C239.201 353.555 239.809 353.113 240.584 352.616C241.137 354.329 242.962 354.495 244.51 354.716C246.999 355.103 249.377 355.269 251.81 356.098C253.859 356.784 255.871 357.577 257.838 358.474C259.552 359.248 261.156 360.408 263.147 359.856C267.571 358.64 271.829 354.108 275.479 351.51C279.848 348.416 284.548 345.929 289.083 343.165C307.222 332.167 326.411 322.882 344.329 311.442C354.117 305.197 363.186 297.847 373.638 292.762C372.145 298.952 369.601 305.197 370.044 311.663C370.21 314.261 370.984 317.356 373.03 319.18C375.518 321.446 378.283 320.009 380.717 318.406C385.86 314.979 389.233 309.95 393.049 305.252C397.584 299.671 401.068 293.702 404.441 287.346C405.215 288.451 404.607 290.331 404.662 291.602C404.687 293.183 405.085 294.735 405.823 296.133C407.704 299.781 411.298 300.665 414.561 298.178C420.81 293.37 424.46 284.804 427.833 277.951C429.769 281.488 432.479 286.02 437.069 283.478C440.884 281.377 443.096 276.68 444.258 272.701C447.963 260.763 446.912 248.936 447.41 237.054Z" fill="#182234"/>
<path fill-rule="evenodd" clip-rule="evenodd" d="M441.657 167.363C441.215 166.313 441.049 166.479 441.823 165.484C442.487 166.092 441.989 166.589 441.657 167.363ZM460.847 230.975C459.63 227.493 460.404 223.735 459.63 220.198C459.298 218.595 458.745 216.992 458.579 215.334C458.469 214.616 457.86 211.3 458.303 210.747C456.92 209.918 456.92 209.31 456.588 207.652C457.086 207.155 457.031 206.713 456.422 206.326C456.047 205.822 455.641 205.342 455.206 204.889C456.975 205.718 455.925 203.562 455.759 202.291C455.66 201.282 455.475 200.284 455.206 199.307C454.819 198.146 453.879 197.538 455.759 197.538C455.151 196.82 454.21 196.101 453.879 195.217C453.436 193.946 454.155 192.343 453.27 191.238C452.773 190.63 450.118 190.409 450.616 189.027C450.837 188.364 451.888 188.861 452.22 188.364C453.491 186.485 449.676 185.711 449.51 184.938C449.289 183.888 450.671 183.666 450.726 182.727C450.782 181.787 449.344 180.24 448.957 179.411C448.404 179.521 447.851 180.35 447.242 179.964C447.132 179.908 447.298 176.648 447.187 176.205C447.077 175.763 446.8 174.658 446.689 174.437C446.302 173.608 445.196 173.221 444.975 172.226C444.865 171.618 447.187 170.734 444.533 170.734C445.473 169.076 443.759 168.081 443.095 166.644C442.265 164.821 441.823 162.831 440.993 161.007C440.198 159.225 439.235 157.523 438.118 155.923C437.067 154.486 436.625 153.104 435.74 151.612C435.574 151.501 435.408 151.336 435.242 151.225C434.523 151.336 434.302 151.004 434.579 150.285C434.026 149.512 433.638 148.628 433.141 147.799C432.588 146.859 431.869 146.03 431.26 145.09C430.486 143.819 430.265 142.438 429.436 141.167C428.385 139.619 427.223 138.293 426.228 136.69C425.011 134.7 423.684 133.429 422.136 131.882C421.417 131.163 421.306 129.284 420.421 128.234C419.426 127.074 418.486 126.797 417.822 125.305C416.938 123.371 415.666 122.431 414.394 120.773C413.343 119.392 412.845 117.789 411.684 116.462C410.688 115.302 409.582 114.252 408.532 113.146C407.204 111.765 406.209 110.107 404.882 108.78C405.103 108.946 403.665 107.841 403.776 107.896C403.405 107.754 403.012 107.68 402.615 107.675C400.513 106.459 397.914 101.983 394.817 104.359C393.158 105.63 393.988 107.896 395.094 109.112C395.591 109.665 398.135 112.262 398.688 111.157C399.296 111.986 401.121 116.076 402.67 114.915C402.504 116.297 403.333 115.855 403.886 116.794C404.218 117.402 404.052 117.734 404.329 118.673C405.048 121.326 407.702 123.979 409.14 126.3C412.735 132.103 416.661 137.629 420.2 143.432C423.629 148.959 427.445 154.209 430.707 159.847C434.413 166.258 439.058 172.282 441.878 179.135C441.989 179.356 442.763 179.743 442.929 180.074C443.261 180.682 443.206 181.732 443.427 182.395C444.225 184.774 445.361 187.026 446.8 189.083C448.017 190.796 448.127 193.172 448.957 195.162C450.118 198.036 451.39 200.854 452.551 203.673C454.22 208.048 455.641 212.513 456.81 217.047C457.625 220.036 458.199 223.086 458.524 226.166C458.745 229.04 458.8 232.025 459.851 234.733C460.515 233.793 461.344 232.356 460.847 230.975Z" fill="#182234"/>
<path fill-rule="evenodd" clip-rule="evenodd" d="M52.1188 292.375C50.8469 292.099 49.6303 291.767 49.3538 290.275C49.1879 290.994 48.9667 291.657 48.8008 292.375C50.3492 292.707 51.9529 293.094 53.5014 293.425C53.3879 293.142 53.1992 292.894 52.9557 292.709C52.7122 292.524 52.4229 292.409 52.1188 292.375Z" fill="#182234"/>
<path fill-rule="evenodd" clip-rule="evenodd" d="M55.5453 50.5295C55.641 50.1144 55.7704 49.7078 55.9324 49.3137C56.043 49.7005 56.5407 50.5295 56.2642 50.9164C55.8771 51.3585 55.49 51.1375 55.5453 50.5295ZM61.8496 38.592C62.292 38.7578 63.1768 38.813 63.7298 38.9788C62.3473 40.1394 62.1261 39.8078 60.3565 39.642C60.3012 38.4814 60.7436 38.0946 61.8496 38.592ZM50.0704 67.8279H50.6235C50.6327 67.3115 50.6142 66.7949 50.5682 66.2805C52.3931 66.6673 51.3977 63.4619 50.7894 62.7987C52.6143 62.8539 53.4991 57.1615 54.0521 56.0562C54.5498 55.0614 55.1582 54.6745 55.49 53.5139C55.795 52.4892 56.1834 51.491 56.6513 50.5295C57.702 48.2636 59.1398 46.2188 58.8633 43.566C59.7481 45.5556 60.5777 43.566 61.1307 42.6264C62.0708 41.079 64.3381 39.1446 64.5593 37.3209C64.7805 35.7181 63.5639 35.6629 64.2828 34.1707C65.0017 32.6785 65.5548 32.8443 66.8267 32.3469C67.6562 32.0153 67.8221 32.4021 68.3751 31.3521C68.7622 30.6889 68.5963 30.1915 69.094 29.6388C69.2839 29.7852 69.5178 29.8631 69.7576 29.8599C70.1477 29.358 70.413 28.7709 70.5319 28.1466C70.7873 27.2969 71.1014 26.4659 71.472 25.6596C71.9144 24.8859 72.7439 22.7858 73.1863 22.4542C73.6287 22.0673 76.2279 22.2331 76.2279 22.2884C77.2786 20.962 75.3431 19.5803 78.0528 19.9119C77.4998 18.9171 79.38 17.646 79.933 17.0933C81.3156 15.7117 81.4262 15.0485 81.7027 13.3352C81.8686 12.451 80.8732 12.5615 82.2004 12.3404C82.7534 12.2299 83.2511 12.9484 83.6382 12.8378C85.3526 12.3957 83.5829 12.5062 84.0253 11.7878C84.1912 11.5667 84.9101 10.6824 84.9101 10.6824C84.9583 10.3332 85.0708 9.9959 85.242 9.68764C85.5601 9.66408 85.8751 9.60853 86.1821 9.52184C86.348 9.19024 86.4586 8.85864 86.6245 8.52704C87.8411 7.53225 89.666 7.03485 90.4956 5.92952C91.0486 5.21105 90.8827 4.49259 91.6016 3.77413C92.2652 3.11093 93.15 3.60833 93.3159 2.0056C93.4818 0.0160093 91.3804 -0.868254 90.4956 1.12134C88.1176 -1.75252 78.274 8.85864 77.168 10.2403C72.2462 16.2643 67.3797 22.4542 63.3427 29.1414C59.4139 35.6301 56.1529 42.4997 53.6097 49.6453C52.4609 53.0776 51.5554 56.5864 50.9 60.1459C50.6235 61.3618 48.7985 66.6673 49.5727 67.8832C49.7939 67.8832 49.9045 67.8279 50.0704 67.8279Z" fill="#182234"/>
<path fill-rule="evenodd" clip-rule="evenodd" d="M439.004 215.776C439.833 215.223 439.833 215.223 439.999 214.173C438.893 214.394 438.893 214.394 439.004 215.776Z" fill="#182234"/>
<path fill-rule="evenodd" clip-rule="evenodd" d="M28.2294 286.849C28.5059 287.401 28.893 287.567 29.446 287.236C29.6672 287.623 27.5105 285.301 28.2294 286.849Z" fill="#182234"/>
<path fill-rule="evenodd" clip-rule="evenodd" d="M65.7751 33.3417C64.4478 35.8839 66.1069 34.0601 65.9963 34.8891C66.1069 34.3365 66.3281 33.5627 65.7751 33.3417Z" fill="#182234"/>
<path fill-rule="evenodd" clip-rule="evenodd" d="M277.693 72.9125C278.246 77.4996 284.55 75.3442 285.933 72.5809C286.983 70.5913 289.527 62.5776 286.762 60.9197C284.716 59.6485 284.274 65.0646 283.721 66.2252C282.891 68.2148 282.172 66.8332 280.292 67.3306C278.246 67.8832 277.472 70.9781 277.693 72.9125Z" fill="#182234"/>
<path fill-rule="evenodd" clip-rule="evenodd" d="M270.831 64.5119C273.098 65.0093 275.255 64.733 276.859 62.9645C277.744 61.9697 278.905 60.0354 277.301 59.0958C275.863 58.2116 274.204 60.2564 272.711 59.8143C270.665 59.2616 271.716 57.051 270.997 55.5588C268.453 57.1062 267.015 63.6829 270.831 64.5119Z" fill="#182234"/>
<path fill-rule="evenodd" clip-rule="evenodd" d="M273.156 76.0627C270.999 76.0627 270.999 78.7155 272.105 79.8761C273.212 80.9814 275.921 82.0867 277.359 81.2025C280.29 79.5445 274.926 76.2285 273.156 76.0627Z" fill="#182234"/>
<path fill-rule="evenodd" clip-rule="evenodd" d="M147.457 181.677C147.9 181.898 149.282 183.058 149.835 182.506L147.402 180.074C147.015 180.571 146.683 181.29 147.457 181.677Z" fill="#182234"/>
<path fill-rule="evenodd" clip-rule="evenodd" d="M137.281 65.1751L136.617 65.6725C137.391 66.3357 137.391 66.5015 138.166 65.8936C137.911 65.6088 137.612 65.3663 137.281 65.1751Z" fill="#182234"/>
<path fill-rule="evenodd" clip-rule="evenodd" d="M283.662 217.103C283.219 216.329 282.39 217.766 281.837 217.987C280.952 218.374 280.178 216.329 280.454 218.761C278.408 217.821 277.191 219.976 275.864 221.082C273.984 222.684 271.717 223.513 270.5 225.724C276.362 227.106 282.722 222.077 287.09 218.761C287.809 218.208 291.349 215.5 288.971 215.223C287.975 215.168 284.381 218.429 283.662 217.103Z" fill="#182234"/>
<path fill-rule="evenodd" clip-rule="evenodd" d="M281.949 212.405C283.11 211.521 280.621 211.41 280.234 211.355C280.29 212.073 280.29 212.792 280.345 213.51C280.898 213.123 281.396 212.792 281.949 212.405Z" fill="#182234"/>
<path fill-rule="evenodd" clip-rule="evenodd" d="M277.634 215.389C277.966 215.168 278.906 214.505 278.297 214.008C278.007 214.191 277.758 214.433 277.567 214.719C277.377 215.004 277.249 215.327 277.191 215.666C277.357 215.607 277.508 215.513 277.634 215.389Z" fill="#182234"/>
<path fill-rule="evenodd" clip-rule="evenodd" d="M183.127 157.36C182.821 157.429 182.551 157.608 182.368 157.863C182.185 158.117 182.101 158.429 182.131 158.741C182.438 158.674 182.71 158.496 182.894 158.241C183.077 157.986 183.16 157.672 183.127 157.36Z" fill="#182234"/>
</g>
<defs>
<clipPath id="clip0">
<rect width="461" height="360" fill="white"/>
</clipPath>
</defs>
</svg>
