<svg width="1440" height="912" viewBox="0 0 1440 912" fill="none" xmlns="http://www.w3.org/2000/svg">
<mask id="mask0" mask-type="alpha" maskUnits="userSpaceOnUse" x="0" y="0" width="1440" height="912">
<rect width="1440" height="912" fill="#C4C4C4"/>
</mask>
<g mask="url(#mask0)">
<mask id="mask1" mask-type="alpha" maskUnits="userSpaceOnUse" x="-6" y="0" width="1452" height="880">
<rect x="-6" width="1452" height="879.726" fill="#F8F4FD"/>
</mask>
<g mask="url(#mask1)">
<path d="M-62.4894 348.851V849.209H82.1123L68.3407 -379.051L108.508 -471.974L95.8839 -489.844L68.3407 -439.809V-514.862H-52.1607V285.711L-100.361 233.292V258.31L-62.4894 348.851Z" fill="#4B0B33"/>
<path d="M1378.21 419.754V848.151H1522.81L1509.04 -308.148L1549.2 -401.072L1536.58 -418.942L1509.04 -368.906V-443.96H1388.53V356.613L1340.33 304.195V329.213L1378.21 419.754Z" fill="#4B0B33"/>
<mask id="mask2" mask-type="alpha" maskUnits="userSpaceOnUse" x="-7" y="-19" width="1453" height="1020">
<rect x="-6.61719" y="-18.5479" width="1451.89" height="1019.09" fill="#C4C4C4"/>
</mask>
<g mask="url(#mask2)">
<mask id="mask3" mask-type="alpha" maskUnits="userSpaceOnUse" x="-14" y="-25" width="1468" height="879">
<rect x="-13.8398" y="-24.8975" width="1467.18" height="878.339" fill="#D864A4"/>
</mask>
<g mask="url(#mask3)">
<rect x="-9.75391" y="-50.8892" width="1467.18" height="656.318" fill="url(#paint0_linear)"/>
<ellipse opacity="0.5" rx="1.62358" ry="1.52934" transform="matrix(0.0960586 -0.995376 0.994107 0.108399 1050.52 12.6259)" fill="white" fill-opacity="0.7"/>
<path opacity="0.4" d="M468.326 279.484H-284.621C-284.621 279.484 -239.43 237.588 -191.459 237.588C-143.487 237.588 -85.0865 258.037 -45.4577 258.037C-5.82889 258.037 78.9907 165.766 147.82 165.766C216.649 165.766 266.011 236.59 295.211 236.59C324.411 236.59 334.84 220.131 360.564 224.121C386.288 228.111 468.326 279.484 468.326 279.484Z" fill="url(#paint1_linear)" fill-opacity="0.5"/>
<path opacity="0.4" d="M1217.99 70.4113H802.285C802.285 70.4113 837.424 31.0232 863.909 31.0232C890.394 31.0232 912.448 48.8172 934.327 48.8172C956.206 48.8172 1003.03 -3.23486 1041.03 -3.23486C1079.03 -3.23486 1106.29 46.7176 1122.41 46.7176C1138.53 46.7176 1144.29 37.6259 1158.49 39.8299C1172.69 42.034 1217.99 70.4113 1217.99 70.4113Z" fill="url(#paint2_linear)" fill-opacity="0.4"/>
<path opacity="0.4" d="M1330 369.344H917.352C917.352 369.344 940.207 333.673 964.469 333.673C988.73 333.673 993.493 346.32 1013.54 346.32C1033.58 346.32 1034.04 309.997 1068.85 309.997C1103.66 309.997 1095.88 329.406 1123.18 333.673C1150.47 337.94 1154.7 283.784 1182.11 283.784C1209.52 283.784 1209.32 313.836 1242.78 333.673C1307.57 300.866 1330 369.344 1330 369.344Z" fill="url(#paint3_linear)" fill-opacity="0.5"/>
<ellipse opacity="0.5" cx="208.794" cy="544.237" rx="1.52831" ry="1.62455" fill="white"/>
<ellipse opacity="0.5" cx="387.095" cy="150.014" rx="1.52831" ry="1.62455" fill="white"/>
<ellipse opacity="0.5" cx="444.149" cy="24.3814" rx="1.52831" ry="1.62455" fill="white"/>
<ellipse opacity="0.5" rx="1.55038" ry="1.6035" transform="matrix(0.868398 0.495867 -0.451039 0.892504 72.1544 388.084)" fill="white"/>
<ellipse opacity="0.5" rx="1.55038" ry="1.6035" transform="matrix(0.868398 0.495867 -0.451039 0.892504 283.936 312.306)" fill="white"/>
<ellipse rx="2.65821" ry="2.59867" transform="matrix(0.537239 -0.84343 0.811644 0.584153 1242.6 369.654)" fill="white" fill-opacity="0.8"/>
<ellipse opacity="0.5" rx="1.59492" ry="1.5592" transform="matrix(0.537239 -0.84343 0.811644 0.584153 1191.88 138.271)" fill="white" fill-opacity="0.7"/>
<ellipse opacity="0.9" rx="2.58397" ry="2.6725" transform="matrix(0.868398 0.495867 -0.451039 0.892504 106.843 64.3286)" fill="white"/>
<ellipse opacity="0.5" rx="1.56816" ry="1.58611" transform="matrix(0.750676 -0.66067 0.614499 0.788918 662.929 256.902)" fill="white"/>
<ellipse rx="1.04544" ry="1.05741" transform="matrix(0.750676 -0.66067 0.614499 0.788918 542.556 137.169)" fill="white" fill-opacity="0.7"/>
<ellipse opacity="0.5" rx="1.56816" ry="1.58611" transform="matrix(0.750676 -0.66067 0.614499 0.788918 968.476 245.982)" fill="white"/>
<path d="M793.919 557.99C801.34 558.248 809.432 553.973 809.432 553.973C809.432 553.973 805.278 533.778 794.69 532.954C784.103 532.13 780.808 552.977 780.808 552.977C780.808 552.977 786.498 557.732 793.919 557.99Z" fill="url(#paint4_linear)"/>
<path d="M814.535 571.321C821.667 571.321 829.309 565.906 829.309 565.906C829.309 565.906 824.724 542.079 814.535 541.538C804.346 540.996 801.799 565.906 801.799 565.906C801.799 565.906 807.403 571.321 814.535 571.321Z" fill="url(#paint5_linear)"/>
<path d="M759.805 555.387C769.002 556.388 779.385 551.976 779.385 551.976C779.385 551.976 775.796 527.206 762.709 525.228C749.623 523.25 743.909 548.116 743.909 548.116C743.909 548.116 750.608 554.386 759.805 555.387Z" fill="url(#paint6_linear)"/>
<path d="M722.871 556.691C733.173 556.691 744.211 550.588 744.211 550.588C744.211 550.588 737.588 523.737 722.871 523.127C708.154 522.516 704.475 550.588 704.475 550.588C704.475 550.588 712.569 556.691 722.871 556.691Z" fill="url(#paint7_linear)"/>
<path d="M665.128 560.361C655.922 560.681 645.884 555.378 645.884 555.378C645.884 555.378 651.037 530.325 664.172 529.303C677.306 528.28 681.394 554.142 681.394 554.142C681.394 554.142 674.334 560.041 665.128 560.361Z" fill="url(#paint8_radial)"/>
<path d="M-12.7852 552.107H1454.39V845.609H-12.7852V552.107Z" fill="#733B59"/>
<path d="M717.734 430.772C720.254 428.383 722.83 428.948 724.144 430.514C725.458 432.08 724.078 434.891 721.627 435.044C719.177 435.197 717.079 438.745 715.765 437.179C714.451 435.613 715.215 433.161 717.734 430.772Z" fill="#FE863F"/>
<path d="M712.067 404.795C713.609 403.502 715.087 403.926 715.799 404.884C716.51 405.843 715.616 407.424 714.188 407.422C712.759 407.419 711.423 409.402 710.712 408.443C710 407.485 710.525 406.089 712.067 404.795Z" fill="#FE863F"/>
<path opacity="0.5" d="M707.694 350.505C708.425 348.567 709.905 348.152 710.971 348.607C712.037 349.061 712.003 350.906 710.763 351.66C709.523 352.414 709.294 354.84 708.228 354.386C707.162 353.931 706.963 352.443 707.694 350.505Z" fill="#FE863F"/>
<path d="M748.801 446.155C750.324 446.78 750.664 448.083 750.32 449.03C749.976 449.977 748.534 449.967 747.931 448.879C747.328 447.792 745.428 447.616 745.772 446.669C746.115 445.722 747.277 445.53 748.801 446.155Z" fill="#FE863F"/>
<path d="M692.66 555.368C686.379 555.587 679.53 551.968 679.53 551.968C679.53 551.968 683.046 534.875 692.007 534.178C700.968 533.481 703.757 551.125 703.757 551.125C703.757 551.125 698.941 555.15 692.66 555.368Z" fill="url(#paint9_linear)"/>
<ellipse cx="684.599" cy="407.774" rx="1.52831" ry="1.62455" fill="#ECBE5B"/>
<ellipse opacity="0.5" cx="733.509" cy="356.872" rx="1.52831" ry="1.62455" fill="#ECBE5B"/>
<ellipse cx="771.207" cy="406.69" rx="2.54718" ry="2.70758" fill="#ECBE5B"/>
<ellipse opacity="0.5" cx="742.677" cy="245.319" rx="1.52831" ry="1.62455" fill="#ECBE5B"/>
<ellipse opacity="0.5" cx="707.021" cy="223.659" rx="1.52831" ry="1.62455" fill="#ECBE5B"/>
<ellipse opacity="0.5" cx="773.243" cy="335.21" rx="1.52831" ry="1.62455" fill="#ECBE5B"/>
<path d="M852.077 696.033C856.183 697.057 859.836 701.529 859.836 701.529C859.836 701.529 861.561 701.945 868.399 707.352C875.826 713.224 865.814 706.127 862.323 707.228C859.838 708.011 876.062 722.448 869.182 717.604C857.502 709.381 844.001 697.579 844.001 697.579C844.001 697.579 847.972 695.009 852.077 696.033Z" fill="#612E49"/>
<path d="M850.418 701.088C854.633 701.234 857.422 697.927 857.422 697.927C857.422 697.927 857.189 697.968 855.721 693.857C854.403 690.166 854.44 697.624 851.597 697.361C849.081 697.128 849.189 682.987 847.932 686.146C846.187 690.532 844.832 698.335 844.832 698.335C844.832 698.335 846.204 700.941 850.418 701.088Z" fill="#2F365C"/>
<path d="M586.142 682.075C582.184 683.15 578.726 687.555 578.726 687.555C578.726 687.555 571.77 692.512 565.245 697.885C558.157 703.722 573.02 692.127 576.42 693.123C578.84 693.832 563.386 708.139 569.962 703.31C581.126 695.111 593.99 683.41 593.99 683.41C593.99 683.41 590.099 681.001 586.142 682.075Z" fill="#612E49"/>
<path d="M590.253 685.431C586.17 685.573 583.468 682.369 583.468 682.369C583.468 682.369 583.695 677.3 585.117 673.317C586.393 669.743 586.357 682.076 589.111 681.821C591.548 681.596 591.443 667.899 592.661 670.959C594.351 675.207 595.664 682.765 595.664 682.765C595.664 682.765 594.335 685.289 590.253 685.431Z" fill="#2F365C"/>
<path d="M473.186 588.101C469.553 587.529 467.583 587.56 467.583 587.56C467.583 587.56 448.733 587.085 445.167 588.101C447.205 589.184 457.957 587.642 460.45 589.725C462.226 591.209 448.224 592.433 442.865 594.161C448.224 596.765 476.752 591.35 476.752 591.35C476.752 591.35 476.82 588.674 473.186 588.101Z" fill="#EA99C5"/>
<mask id="mask4" mask-type="alpha" maskUnits="userSpaceOnUse" x="386" y="552" width="679" height="110">
<rect x="386.52" y="552.161" width="677.86" height="109.459" fill="#C4C4C4"/>
</mask>
<g mask="url(#mask4)">
<path opacity="0.8" d="M1060.18 561.255C1060.18 608.072 908.501 659.518 721.4 659.518C534.3 659.518 382.625 608.072 382.625 561.255C382.625 514.438 534.3 476.485 721.4 476.485C908.501 476.485 1060.18 514.438 1060.18 561.255Z" fill="#894168"/>
<path opacity="0.8" d="M950.142 557.447C950.142 581.824 847.504 610.782 720.895 610.782C594.286 610.782 491.648 581.824 491.648 557.447C491.648 533.07 594.286 513.309 720.895 513.309C847.504 513.309 950.142 533.07 950.142 557.447Z" fill="#9C4474"/>
<ellipse cx="727.01" cy="550.132" rx="124.303" ry="30.3249" fill="url(#paint10_linear)" fill-opacity="0.89"/>
<g filter="url(#filter0_d)">
<path d="M661.916 561.201C658.933 565.436 673.943 568.703 673.943 568.703C673.943 568.703 698.521 573.254 720.676 573.905C742.83 574.557 765.969 571.635 765.969 571.635C765.969 571.635 794.416 566.087 790.155 561.201C785.895 556.315 765.969 549.8 724.545 548.171C683.121 546.542 664.898 556.966 661.916 561.201Z" fill="url(#paint11_linear)"/>
</g>
</g>
<path d="M470.639 590.265C467.182 588.945 468.092 588.099 468.092 588.099C468.092 588.099 468.583 582.807 469.62 581.601C471.148 583.767 470.517 585.937 472.898 586.695C475.006 587.366 474.404 582.684 476.752 578.893C477.97 582.142 478.082 589.794 478.082 589.794C478.082 589.794 474.096 591.585 470.639 590.265Z" fill="#2F365C"/>
<path d="M1014.42 638.157C1019.11 637.994 1024.25 641.673 1024.25 641.673C1024.25 641.673 1051.9 649.192 1045.28 653.524C1038.66 657.856 1006.17 642.301 1006.17 642.301C1006.17 642.301 1009.74 638.32 1014.42 638.157Z" fill="#612E49"/>
<path d="M1012.39 644.145C1017.07 644.309 1022.21 640.63 1022.21 640.63C1022.21 640.63 1019.72 623.573 1013.04 622.955C1006.36 622.337 1004.14 640.002 1004.14 640.002C1004.14 640.002 1007.7 643.982 1012.39 644.145Z" fill="url(#paint12_linear)"/>
<path d="M590.962 614.952C587.695 614.839 584.111 617.403 584.111 617.403C584.111 617.403 558.989 628.554 560.923 629.819C562.856 631.084 596.714 617.841 596.714 617.841C596.714 617.841 594.229 615.066 590.962 614.952Z" fill="#612E49"/>
<path d="M592.879 618.627C590.709 618.702 588.329 616.999 588.329 616.999C588.329 616.999 589.483 609.1 592.577 608.814C595.672 608.527 596.7 616.708 596.7 616.708C596.7 616.708 595.05 618.551 592.879 618.627Z" fill="url(#paint13_linear)"/>
<path opacity="0.96" d="M714.658 583.743H748.281C748.281 583.743 744.715 598.809 732.489 600.911C720.262 603.013 714.658 583.743 714.658 583.743Z" fill="#612E4A"/>
<path opacity="0.96" d="M752.358 581.657L772.117 577.27C772.117 577.27 783.793 592.185 780.2 594.378C776.608 596.572 752.358 581.657 752.358 581.657Z" fill="#612E4A"/>
<path opacity="0.96" d="M789.037 581.146L804.773 571.854C804.773 571.854 829.337 582.191 820.893 588.579C812.449 594.968 789.037 581.146 789.037 581.146Z" fill="#0D1A31"/>
<path opacity="0.96" d="M802.28 564.921L819.541 561.023C819.541 561.023 857.133 561.511 854.064 563.946C850.995 566.382 802.28 564.921 802.28 564.921Z" fill="#0D1A31"/>
<path opacity="0.96" d="M654.548 571.31L637.287 566.438C637.287 566.438 599.695 567.047 602.764 570.092C605.833 573.137 654.548 571.31 654.548 571.31Z" fill="#612E4A"/>
<path d="M642.297 572.404C635.165 572.404 627.523 566.989 627.523 566.989C627.523 566.989 632.108 543.162 642.297 542.621C652.486 542.079 655.033 566.989 655.033 566.989C655.033 566.989 649.429 572.404 642.297 572.404Z" fill="url(#paint14_linear)"/>
<path opacity="0.96" d="M804.323 573.586L821.584 569.688C821.584 569.688 859.176 570.176 856.107 572.611C853.038 575.047 804.323 573.586 804.323 573.586Z" fill="#0D1A31"/>
<path d="M343.218 576.594C340.206 575.243 335.996 576.272 335.996 576.272C335.996 576.272 308.782 577.109 310.161 579.027C311.54 580.945 345.318 583.226 348.632 580.4C351.946 577.573 346.23 577.945 343.218 576.594Z" fill="#612E49"/>
<path opacity="0.96" d="M711.605 582.599L685.819 578.353C685.819 578.353 673.983 595.81 684.128 598.641C694.273 601.472 711.605 582.599 711.605 582.599Z" fill="#612E4A"/>
<path d="M345.424 580.903C343.253 580.968 340.881 579.253 340.881 579.253C340.881 579.253 342.068 571.36 345.164 571.089C348.26 570.818 349.252 579.003 349.252 579.003C349.252 579.003 347.594 580.838 345.424 580.903Z" fill="url(#paint15_linear)"/>
<path d="M731.833 639.662C736.52 639.498 739.258 642.032 739.258 642.032C739.258 642.032 735.692 670.732 731.834 670.732C727.975 670.732 721.937 642.032 721.937 642.032C721.937 642.032 727.147 639.825 731.833 639.662Z" fill="#612E49"/>
<path d="M729.939 645.65C734.626 645.813 739.765 642.135 739.765 642.135C739.765 642.135 737.275 630.493 730.592 629.875C723.909 629.257 721.69 641.506 721.69 641.506C721.69 641.506 725.253 645.487 729.939 645.65Z" fill="url(#paint16_linear)"/>
<path d="M1146.16 584.824C1149.17 583.472 1153.38 584.501 1153.38 584.501C1153.38 584.501 1180.59 585.339 1179.21 587.257C1177.83 589.175 1144.06 591.456 1140.74 588.629C1137.43 585.803 1143.15 586.175 1146.16 584.824Z" fill="#612E49"/>
<path d="M1142.94 589.134C1145.11 589.199 1147.48 587.484 1147.48 587.484C1147.48 587.484 1146.29 579.591 1143.2 579.32C1140.1 579.049 1139.11 587.234 1139.11 587.234C1139.11 587.234 1140.77 589.069 1142.94 589.134Z" fill="url(#paint17_linear)"/>
<path opacity="0.96" d="M682.059 579.436L657.09 574.562C657.09 574.562 643.336 587.017 647.411 589.725C651.487 592.433 682.059 579.436 682.059 579.436Z" fill="#612E4A"/>
<path d="M1042.59 576.723C1046.22 576.151 1048.19 576.182 1048.19 576.182C1048.19 576.182 1067.04 575.707 1070.61 576.723C1068.57 577.806 1057.82 576.264 1055.33 578.347C1053.55 579.831 1067.55 581.055 1072.91 582.783C1067.55 585.387 1039.02 579.972 1039.02 579.972C1039.02 579.972 1038.96 577.296 1042.59 576.723Z" fill="#612E49"/>
<path d="M1045.14 578.889C1048.6 577.568 1047.69 576.722 1047.69 576.722C1047.69 576.722 1047.2 571.43 1046.16 570.224C1044.63 572.39 1045.26 574.561 1042.88 575.318C1040.77 575.989 1041.38 571.307 1039.03 567.517C1037.81 570.766 1037.7 578.417 1037.7 578.417C1037.7 578.417 1041.69 580.209 1045.14 578.889Z" fill="#2F365C"/>
<path opacity="0.96" d="M658.624 578.895L635.699 574.562C635.699 574.562 607.171 576.187 611.246 578.895C615.322 581.602 658.624 578.895 658.624 578.895Z" fill="#0D1A31"/>
<path d="M650.981 580.518C643.849 580.518 636.207 575.103 636.207 575.103C636.207 575.103 640.792 551.276 650.981 550.735C661.169 550.193 663.717 575.103 663.717 575.103C663.717 575.103 658.113 580.518 650.981 580.518Z" fill="url(#paint18_linear)"/>
<path d="M668.534 583.611C661.113 583.869 653.022 579.594 653.022 579.594C653.022 579.594 657.175 559.399 667.763 558.575C678.35 557.751 681.645 578.598 681.645 578.598C681.645 578.598 675.955 583.353 668.534 583.611Z" fill="url(#paint19_linear)"/>
<path d="M818.44 573.906C824.667 573.038 830.867 568.289 830.867 568.289C830.867 568.289 824.791 552.041 815.848 552.899C806.906 553.757 806.85 571.637 806.85 571.637C806.85 571.637 812.213 574.774 818.44 573.906Z" fill="url(#paint20_linear)"/>
<path d="M794.266 583.999C803.473 584.319 813.51 579.016 813.51 579.016C813.51 579.016 808.357 553.963 795.223 552.941C782.089 551.919 778.001 577.78 778.001 577.78C778.001 577.78 785.06 583.679 794.266 583.999Z" fill="url(#paint21_linear)"/>
<path d="M889.102 612.263C893.788 612.1 898.928 615.778 898.928 615.778C898.928 615.778 908.091 618.874 916.904 622.576C926.476 626.596 906.597 618.875 903.149 621.131C900.694 622.737 922.043 633.247 913.338 630.162C898.559 624.926 880.852 616.407 880.852 616.407C880.852 616.407 884.416 612.426 889.102 612.263Z" fill="#612E49"/>
<path d="M887.062 618.251C891.748 618.414 894.85 614.736 894.85 614.736C894.85 614.736 894.59 608.916 892.958 604.345C891.493 600.241 891.534 614.4 888.373 614.107C885.575 613.848 885.695 598.124 884.297 601.637C882.357 606.514 880.85 615.19 880.85 615.19C880.85 615.19 882.376 618.088 887.062 618.251Z" fill="#2F365C"/>
</g>
<g opacity="0.7">
<path d="M881.6 739.381L848.593 716.526C848.593 716.526 747.479 652.329 784.694 638.919C821.91 625.509 905.721 692.792 905.721 692.792L961.156 750.369C961.156 750.369 985.7 765.753 976.39 775.422C967.081 785.091 930.265 760.918 930.265 760.918L881.6 739.381Z" fill="#5A2843"/>
<path d="M974.493 682.776L930.483 652.449L923.289 655.216L936.407 666.074L814.957 714.861L804.801 710.466L792.952 699.918L819.612 749.144L974.493 682.776Z" fill="#5A2843"/>
<path d="M800.569 739.475C785.609 737.716 741.176 655.086 741.176 655.086L753.871 669.331L759.795 666.954C759.795 666.954 764.02 673.082 771.482 683.655C772.285 684.794 772.071 691.682 772.914 692.885C774.131 694.624 779.673 697.266 780.954 699.039C795.814 719.605 809.371 740.509 800.569 739.475Z" fill="#5A2843"/>
<path d="M844.579 794.854C828.075 794.854 781.588 699.918 781.588 699.918L792.868 702.555C792.868 702.555 861.083 794.854 844.579 794.854Z" fill="#5A2843"/>
<path d="M1022.73 713.103L974.493 681.897L961.374 686.862L969.838 694.643L834 755.737L823.844 744.309L820.459 748.704L847.542 796.612L1022.73 713.103Z" fill="#5A2843"/>
</g>
<path d="M12.59 312.586V562.183H85.9489L78.9624 -50.5179L99.3398 -96.8716L92.9355 -105.786L78.9624 -80.8261V-118.266H17.83V281.089L-6.62299 254.941V267.421L12.59 312.586Z" fill="url(#paint22_linear)"/>
<path d="M1258.94 415.975V622.576H1210.78L1215.36 115.42L1201.98 77.0515L1206.19 69.6729L1215.36 90.333V1.0415H1255.5V389.904L1271.56 368.26V378.59L1258.94 415.975Z" fill="url(#paint23_linear)"/>
<path d="M267.348 316.809L259.281 563.512H341.209L334.174 403.03L354.691 364.643L348.243 357.26L334.174 377.931V255.832L354.691 217.444L348.243 210.062L334.174 230.732L328.426 0.000488281H278.674L272.624 290.725L248.003 269.07V279.405L267.348 316.809Z" fill="url(#paint24_linear)"/>
<path d="M1102.34 407.808V614.511H1176.2L1169.17 454.03L1189.69 415.642L1183.24 408.26L1169.17 428.93V306.832L1189.69 268.444L1183.24 261.062L1169.17 281.732L1168.46 0H1110.64L1107.62 381.724L1083 360.07V370.405L1102.34 407.808Z" fill="url(#paint25_linear)"/>
<path d="M240.735 546.896C247.236 546.559 251.787 562.088 251.787 562.088L46.3633 563.101C46.3633 563.101 49.9387 544.195 59.0397 544.195C68.1407 544.195 68.1407 529.004 73.0163 527.653C77.8918 526.303 78.867 511.786 88.6181 506.047C98.3692 500.308 98.6942 481.741 107.145 474.988C115.596 468.236 142.574 462.497 152.975 468.236C163.377 473.975 170.527 486.467 178.328 489.505C186.129 492.544 181.254 489.505 199.131 492.544C217.008 495.582 210.507 532.042 218.308 539.807C226.109 547.572 234.235 547.234 240.735 546.896Z" fill="#76395A"/>
<path d="M186.327 475.786C181.82 479.006 181.82 485.982 181.82 485.982C181.82 485.982 189.332 485.982 192.336 482.762C195.341 479.542 194.84 471.492 194.84 471.492C194.84 471.492 190.834 472.566 186.327 475.786Z" fill="#76395A"/>
<path d="M240.301 536.984C236.727 539.477 236.727 544.878 236.727 544.878C236.727 544.878 242.684 544.878 245.067 542.385C247.45 539.892 247.053 533.66 247.053 533.66C247.053 533.66 243.875 534.491 240.301 536.984Z" fill="#76395A"/>
<path d="M226.199 533.03C223.15 537.211 225.144 543.164 225.144 543.164C225.144 543.164 231.757 540.775 233.483 537.072C235.208 533.369 232.467 526.659 232.467 526.659C232.467 526.659 229.247 528.849 226.199 533.03Z" fill="#76395A"/>
<path d="M167.579 367.825V563.512H122.541L126.831 216.106L114.32 177.718L118.252 170.336L126.831 191.006V0.000488281H164.362V341.741L179.374 320.086V330.421L167.579 367.825Z" fill="url(#paint26_linear)"/>
<path d="M240.11 159.176V564.863H195.073L199.362 97.4571L186.852 59.0694L190.783 51.6872L199.362 72.3575V1.35205H236.893V133.092L251.905 111.438V121.773L240.11 159.176Z" fill="url(#paint27_linear)"/>
<path d="M1362.55 358.16V564.863H1288.69L1295.72 285.315L1275.2 246.928L1281.65 239.546L1295.72 260.216V1.35205H1357.27V332.076L1381.89 310.422V320.757L1362.55 358.16Z" fill="url(#paint28_linear)"/>
<path opacity="0.46" d="M796.248 426.443C796.248 455.015 757.532 479.355 762.625 517.451C767.719 555.548 760.588 559.781 733.078 559.781C705.568 559.781 688.758 555.548 696.909 537.029C705.059 518.51 726.965 457.661 723.399 426.443C719.833 395.225 657.681 386.759 645.455 341.254C633.229 295.75 561.398 234.901 604.7 180.402C648.002 125.902 580.757 111.087 602.153 45.4761C623.549 -20.1348 533.379 -25.9551 533.379 -25.9551H969.966C969.966 -25.9551 867.569 15.3163 853.305 59.2333C839.041 103.15 832.418 159.237 832.418 200.508C832.418 241.78 739.701 299.983 733.078 331.201C726.455 362.419 796.248 397.87 796.248 426.443Z" fill="url(#paint29_linear)"/>
<g filter="url(#filter1_d)">
<path d="M696.857 548.192C696.003 559.499 706.676 565.485 706.676 565.485C706.676 565.485 718.99 568.582 730.09 569.025C741.19 569.469 752.783 567.48 752.783 567.48C752.783 567.48 761.583 573.91 767.511 551.74C773.439 529.569 763.785 525.457 759.138 529.891C754.49 534.325 747.184 528.454 749.794 521.81C752.404 515.165 753.305 515.055 756.06 509.87C760.116 506.101 758.508 495.483 755.142 494.604C754.223 500.266 749.794 502.965 746.165 501.635C742.537 500.304 741.256 495.205 743.604 491.88C745.952 488.554 747.66 488.815 749.154 487.042C750.648 485.268 748.513 485.229 743.604 485.007C738.695 484.785 729.943 489.884 728.662 498.531C727.381 507.177 729.729 520.479 725.033 520.258C720.337 520.036 721.152 512.193 718.856 512.193C716.195 514.631 719.697 524.914 716.495 529.569C713.293 534.225 697.711 536.885 696.857 548.192Z" fill="url(#paint30_linear)"/>
</g>
<path d="M765.7 585.636C771.981 585.849 778.829 582.313 778.829 582.313C778.829 582.313 775.313 565.612 766.352 564.93C757.391 564.249 754.602 581.49 754.602 581.49C754.602 581.49 759.418 585.422 765.7 585.636Z" fill="url(#paint31_linear)"/>
<path d="M700.268 587.824C691.023 587.824 681.117 582.438 681.117 582.438C681.117 582.438 687.061 558.741 700.268 558.202C713.476 557.663 716.778 582.438 716.778 582.438C716.778 582.438 709.514 587.824 700.268 587.824Z" fill="url(#paint32_linear)"/>
<path d="M734.83 588.882C726.113 588.882 716.773 583.881 716.773 583.881C716.773 583.881 722.377 561.876 734.83 561.376C747.283 560.876 750.396 583.881 750.396 583.881C750.396 583.881 743.547 588.882 734.83 588.882Z" fill="url(#paint33_linear)"/>
<path d="M545.373 447.954C546.861 448.544 548.341 448.713 549.18 448.665L548.161 449.723C546.173 449.692 545.373 447.954 545.373 447.954Z" fill="#AF176A"/>
<path d="M547.962 443.888C549.252 444.742 550.337 444.952 553.016 444.713C553.016 444.713 551.306 445.728 549.838 445.668C548.37 445.609 547.962 443.888 547.962 443.888Z" fill="#AF176A"/>
<path d="M404.391 614.311C401.06 613.648 397.008 615.676 397.008 615.676C397.008 615.676 367.122 620.65 371.407 624.518C375.691 628.386 409.857 618.235 409.857 618.235C409.857 618.235 407.723 614.975 404.391 614.311Z" fill="#612E49"/>
<path d="M405.232 618.828C401.867 618.398 398.575 615.17 398.575 615.17C398.575 615.17 402.116 603.274 406.954 603.612C411.793 603.95 411.554 616.83 411.554 616.83C411.554 616.83 408.597 619.259 405.232 618.828Z" fill="url(#paint34_linear)"/>
</g>
<path opacity="0.8" d="M1053.04 595.071C1056 610.015 918.047 600.785 918.047 600.785L896.465 556.394C896.465 556.394 1050.08 580.128 1053.04 595.071Z" fill="#612E4A"/>
<path d="M875.367 540.524L886.68 562.517L917.874 563.936L891.479 517.821L921.645 472.771H890.45L830.461 562.517L859.599 563.936L875.367 540.524Z" fill="#4B0B33"/>
<path d="M921.214 472.329L955.301 486.49L959.988 490.031L946.353 510.831L910.136 489.588L921.214 472.329Z" fill="#A2486B"/>
<path d="M862.834 515.699L879.878 538.269L919.078 531.188L901.182 509.503H862.834V515.699Z" fill="#A2486B"/>
<path d="M917.806 487.817H951.893L954.023 486.49H916.528L841.536 598.013H844.092L917.806 487.817Z" fill="#A2486B"/>
<path d="M891.423 473.402H919.054L920.781 472.328H890.387L829.598 562.608H831.67L891.423 473.402Z" fill="#A2486B"/>
<path d="M890.439 431.991C898.624 435.779 894.335 446 894.335 446C894.335 446 869.795 444.742 864.704 438.5C864.25 437.943 873.081 438.338 872.808 437.681C869.478 429.669 882.253 428.204 890.439 431.991Z" fill="#4A0B33"/>
<path d="M848.246 509.273C853.784 502.568 882.349 491.5 882.349 491.5L906.785 506.213L888.591 525.584C888.591 525.584 866.441 527.663 863.276 529.898C860.112 532.134 861.694 566.559 861.694 566.559C861.694 566.559 863.276 578 855.628 577C847.98 576 836.47 583 836.47 577C836.47 571 849.828 566.559 849.828 566.559C849.828 566.559 842.709 515.978 848.246 509.273Z" fill="#6A1048"/>
<path d="M851.124 567.435C850.421 566.342 851.705 566.299 850.285 566.044C848.865 565.788 842.854 568.989 842.854 568.989C842.854 568.989 842.192 569.907 842.729 570.742C843.267 571.577 846.7 571.824 848.987 570.74C851.274 569.655 851.827 568.527 851.124 567.435Z" fill="url(#paint35_linear)"/>
<path d="M917.11 490.067L902.08 503.558C902.08 503.558 869.602 507.046 868.02 512.261C866.438 517.476 870.159 564.89 870.159 564.89L883.357 546.797C883.357 546.797 885.423 540.914 886.214 532.719C887.005 524.524 903.055 523.633 912.829 512.127C922.603 500.621 917.11 490.067 917.11 490.067Z" fill="#6A1048"/>
<path d="M892.581 467.054L896.536 465.564L906.82 497.6L894.91 514.922L883.044 510.452L892.581 467.054Z" fill="#6A1048"/>
<path d="M878.31 493.316C886.377 480.547 888.399 456.03 888.399 456.03L885.134 455.208C885.134 455.208 873.412 481.554 868.026 487.356C864.716 490.922 867.495 496.648 861.674 500.733C860.048 505.91 861.889 505.071 865.709 507.5C869.528 509.929 870.243 506.085 878.31 493.316Z" fill="#6A1048"/>
<path d="M873.032 437.269C873.032 437.269 869.907 436.917 871.315 442.391C858.927 441.989 857.57 438.231 860.991 435.971C864.412 433.711 886.893 437.244 887.688 438.76C888.482 440.276 873.032 437.269 873.032 437.269Z" fill="#4A0B33"/>
<path d="M914.263 501.325C912.181 482.7 896.305 457.369 896.305 457.369L890.724 460.535C890.724 460.535 900.261 490.15 899.47 499.835C898.983 505.788 883.09 520.631 880.484 528.891C878.85 534.069 886.813 537.086 889.977 534.851C893.141 532.616 916.344 519.95 914.263 501.325Z" fill="#6A1048"/>
<path d="M894.904 443.879C894.906 443.315 894.907 442.976 894.907 442.976C894.907 442.976 897.304 444.498 894.904 443.879C894.896 446.312 894.874 452.928 894.874 454.529C894.874 456.501 905.541 454.269 906.932 474.977C908.322 495.686 900.127 463.893 897.696 463.202C894.793 462.376 896.375 475.491 894.874 472.271C892.115 466.356 883.05 464.724 880.228 469.564C878.158 473.116 880.448 462.921 876.299 457.592C876.961 455.841 879.145 455.635 880.228 454.269C887.897 440.464 871.258 440.5 871.258 440.5C871.258 440.5 878.72 437.703 889.175 441.839C892.183 443.03 893.935 443.629 894.904 443.879Z" fill="#6A1048"/>
<path d="M883.131 437.659C880.801 435.909 872.267 435.5 872.267 435.5C872.267 435.5 871.579 433.565 874.787 431.345C877.996 429.124 885.635 429.831 882.368 431.344C879.101 432.857 885.461 439.409 883.131 437.659Z" fill="url(#paint36_linear)"/>
<path d="M850.592 512.484C854.612 508.686 862.689 504.5 862.689 504.5C862.689 504.5 855.128 504.416 848.94 510.274C842.751 516.132 848.061 567.5 850.083 567.5C852.106 567.5 846.573 516.282 850.592 512.484Z" fill="url(#paint37_linear)"/>
<path d="M870.655 487.832C873.938 484.511 880.406 468.523 880.406 468.523L879.327 464.88C879.327 464.88 872.081 482.426 868.737 486.5C865.394 490.574 865.208 501.5 866.721 501.5C868.233 501.5 867.372 491.153 870.655 487.832Z" fill="url(#paint38_linear)"/>
<path d="M874.335 445.999C874.42 446.515 872.353 453.328 872.48 453.821C872.889 455.416 875.177 454.065 875.988 454.994C878.285 457.626 878.261 459.172 880.787 458.303C883.313 457.433 884.079 455.853 884.736 452.951C885.199 450.909 886.784 449.245 886.317 446.39C885.904 443.867 886.83 443.106 884.986 442.376C875.896 440.811 871.443 441.305 874.335 445.999Z" fill="url(#paint39_linear)"/>
<path d="M862.992 437.729C859.884 441.704 870.753 443.206 871.115 441.988C872.379 437.729 886.67 440.946 887.059 440.533C887.447 440.119 866.1 433.755 862.992 437.729Z" fill="url(#paint40_linear)"/>
<path d="M878.569 502.966C875.811 500.407 880.097 495.684 880.406 488.742C880.578 484.864 880.121 477.498 880.621 473.957C881.057 470.872 878.335 465.914 879.327 464.88C880.669 464.01 882.458 465.787 885.214 465.26C887.969 464.733 888.726 460.912 890.22 460.477C891.715 460.042 892.674 470.913 889.347 482.654C886.02 494.395 889.364 492.362 892.458 492.048C895.553 491.733 891.693 496.647 887.059 499.797C882.424 502.947 881.326 505.525 878.569 502.966Z" fill="url(#paint41_linear)"/>
<path d="M871.75 516.858C875.769 513.059 889.347 512.658 890.265 510.484C891.184 508.31 874.42 510.161 869.738 514.592C865.056 519.024 869.154 564.021 871.161 564.021C873.169 564.021 867.73 520.656 871.75 516.858Z" fill="url(#paint42_linear)"/>
<path d="M903.124 493.96C903.459 491.114 904.158 486.255 902.768 479.175C901.375 472.081 897.893 465.377 897.224 464.109C895.886 461.577 894.129 461.692 894.129 463.476C894.129 465.26 901.038 484.86 900.369 493.09C899.958 498.149 883.646 504.396 886.705 506.617C886.705 506.617 902.456 499.658 903.124 493.96Z" fill="url(#paint43_linear)"/>
<path d="M890.016 442.953C888.713 443.046 888.857 444.537 888.857 444.537L888.726 449.24C888.726 449.24 889.224 450.254 890.22 450.183C891.217 450.112 891.802 448.901 891.929 446.39C892.056 443.879 891.32 442.859 890.016 442.953Z" fill="url(#paint44_linear)"/>
<path d="M876.131 456.129C875.09 456.68 876.947 459.15 877.762 458.287C878.578 457.424 880.441 456.913 881.841 456.561C883.664 456.103 885.104 458.375 885.92 454.835C886.128 453.934 888.367 448.794 886.328 448.794C883.065 454.403 877.171 455.578 876.131 456.129Z" fill="#6A1048"/>
<path d="M876.886 453.228C875.887 454.107 875.437 454.392 873.094 454.645C873.094 454.645 875.186 455.849 876.445 455.561C877.703 455.273 876.886 453.228 876.886 453.228Z" fill="#6A1048"/>
<path d="M919.28 490.351H953.981L956.52 487.274H917.236L855.002 580.013H857.074L919.28 490.351Z" fill="#A2486B"/>
<path d="M899.841 573.842L913.902 601.281L952.676 603.051L919.867 545.519L957.363 489.315H918.589L844.024 601.281L880.241 603.051L899.841 573.842Z" fill="#4B0B33"/>
<path d="M736.68 549.36L770.832 551.981" stroke="#4A0B33" stroke-width="2"/>
<path d="M837.623 625.563C856.92 625.563 856.92 600.511 856.92 600.511C856.92 600.511 799.031 576.711 791.795 586.106C784.559 595.5 794.851 637.265 794.851 637.265C794.851 637.265 784.399 639.418 786.811 646.934C789.223 654.45 813.841 657.538 816.856 654.406C819.871 651.274 811.058 621.683 813.47 617.926C815.882 614.168 818.327 625.563 837.623 625.563Z" fill="#4A0B33"/>
<path d="M797.614 640.407C795.146 643.712 786.182 644.641 786.582 641.55C786.981 638.458 793.361 639.628 793.76 636.536C794.16 633.445 784.126 594.229 792.337 585.449C796.456 581.044 792.335 591.641 792.929 606.126C793.52 620.509 798.844 638.76 797.614 640.407Z" fill="#E06E77"/>
<path d="M830.381 534.122C852.693 534.648 856.913 601.136 856.913 601.136C856.913 601.136 800.472 585.478 802.04 583.6C816.512 554.791 808.07 533.595 830.381 534.122Z" fill="#4A0B33"/>
<path d="M771.566 552.875C771.566 549.064 825.981 540.208 825.981 540.208L817.009 558.843C817.009 558.843 771.567 556.687 771.566 552.875Z" fill="#4A0B33"/>
<path d="M804.202 526.769C801.318 516.494 808.802 505.386 808.802 505.386L813.589 504.53L824.458 535.818C824.458 535.818 813.001 545.845 817.164 535.482C817.164 530.462 807.086 537.043 804.202 526.769Z" fill="url(#paint45_linear)"/>
<path d="M817.687 538.813C817.687 538.813 772.594 550.68 772.078 551.999C771.563 553.317 773.056 552.438 775.371 552.438C777.687 552.438 815.372 544.966 815.372 544.966L817.687 538.813Z" fill="url(#paint46_linear)"/>
<path d="M804.199 588.324C805.687 593.306 801.614 589.247 800.011 586.476C798.409 583.705 815.188 539.478 817.164 535.482C817.28 535.246 826.965 535.297 820.618 540.571C818.079 541.89 802.982 584.246 804.199 588.324Z" fill="url(#paint47_linear)"/>
<path d="M839.666 520.718C839.666 536.175 847.274 534.417 847.274 534.417C847.274 534.417 846.004 572.655 811.8 556.393C817.652 549.8 817.229 541.449 819.768 534.856C822.307 528.264 813.444 526.357 813.493 524.234C813.542 522.11 815.183 521.984 815.959 518.971C816.736 515.957 815.113 514.638 813.493 515.213C811.873 515.787 809.875 518.971 808.669 518.971C807.463 518.971 806.86 507.071 808.669 504.566C810.478 502.06 811.081 496.424 823.141 497.676C835.201 498.929 839.666 505.26 839.666 520.718Z" fill="#4A0B33"/>
<path d="M869.309 620.527L912.854 559.91L934.021 570.588L888.964 637.488L869.309 620.527Z" fill="#A2486B"/>
<path d="M922.824 658.531L905.587 603.567L892.887 607.336L905.587 649.737L922.824 658.531Z" fill="#4A0B33"/>
<path d="M761.648 626.18L773.442 642.512V637.801L910.73 596.971L887.748 588.805L761.648 626.18Z" fill="#A2486B"/>
<path d="M918.585 619.586L779.785 664.499L784.926 686.171L925.54 639.059L918.585 619.586Z" fill="#A2486B"/>
<path d="M773.138 625.867L754.691 671.722L759.832 670.152L776.464 629.636L773.138 625.867Z" fill="#4A0B33"/>
<path d="M742.598 656.646L754.694 671.722L773.442 625.866L774.954 607.021L764.37 596.657L742.598 656.646Z" fill="#A2486B"/>
<path d="M779.185 612.676L774.649 607.651L773.137 625.553L777.068 629.95L938.548 585.665L940.362 568.705L779.185 612.676Z" fill="#4A0B33"/>
<path d="M770.724 595.087L764.676 596.657L778.888 612.047L940.368 568.704L920.41 559.91H912.85L927.668 567.762L781.005 606.08L770.724 595.087Z" fill="#A2486B"/>
<path d="M786.448 704.074L771.329 642.2L764.676 657.276L774.05 696.222L786.448 704.074Z" fill="#4A0B33"/>
<path d="M790.988 701.558L776.473 640.941L771.332 641.883L786.452 703.757L790.988 701.558Z" fill="#A2486B"/>
<path d="M927.358 656.018L910.727 602.938L905.586 603.881L922.823 658.217L927.358 656.018Z" fill="#A2486B"/>
<path d="M910.728 596.657L773.742 637.487V642.827L912.542 602.938L910.728 596.657Z" fill="#4A0B33"/>
<path d="M781.91 685.541L784.934 686.484L779.793 664.498L918.594 619.898H913.755L776.77 663.87L781.91 685.541Z" fill="#4A0B33"/>
<path d="M726.943 548.992V546.794C726.943 546.794 723.98 546.354 723.98 547.673C723.98 548.992 726.943 548.992 726.943 548.992Z" fill="#A2486B"/>
<path d="M737.323 544.491L736.361 553.613L727.376 553.025L728.266 543.4L737.323 544.491Z" fill="#A2486B"/>
<ellipse rx="4.78377" ry="1.71172" transform="matrix(-0.0929608 1.00603 -0.984355 -0.0981225 727.82 548.211)" fill="#A2486B"/>
<ellipse rx="4.55493" ry="1.37382" transform="matrix(-0.0929608 1.00603 -0.984355 -0.0981225 736.759 549.09)" fill="#4A0B33"/>
<path opacity="0.8" d="M561.109 602.983C561.109 602.983 392.264 610.894 389.302 595.95C388.114 589.955 419.223 580.44 447.276 576.172C489.144 569.802 539.151 563.426 539.151 563.426L561.109 602.983Z" fill="#612B48"/>
<path d="M574.206 544.101L562.893 566.096L531.697 567.515L558.094 521.397L527.926 476.343H559.122L619.115 566.096L589.976 567.515L574.206 544.101Z" fill="#4B0B33"/>
<path d="M528.359 475.901L494.269 490.064L489.582 493.605L503.218 514.406L539.438 493.162L528.359 475.901Z" fill="#A2486B"/>
<path d="M586.74 519.274L569.695 541.846L530.492 534.765L548.389 513.078H586.74V519.274Z" fill="#A2486B"/>
<path d="M531.767 491.392H497.677L495.547 490.064H533.045L608.042 601.595H605.485L531.767 491.392Z" fill="#A2486B"/>
<path d="M558.141 476.976H530.508L528.781 475.901H559.178L619.971 566.188H617.898L558.141 476.976Z" fill="#A2486B"/>
<path d="M540.186 506.489L553.158 513.58C553.158 513.58 581.186 529.357 582.552 534.32C583.917 539.284 579.783 590.16 579.783 590.16L565.446 592.287C565.446 592.287 567.532 554.883 566.85 547.083C566.167 539.284 538.821 534.852 536.09 527.761C533.359 520.67 540.186 506.489 540.186 506.489Z" fill="#6A1048"/>
<path d="M561.347 473.163L557.934 471.745L549.059 502.235L559.337 518.722L569.578 514.467L561.347 473.163Z" fill="#6A1048"/>
<path d="M574.395 492.271C567.433 480.117 566.986 456.589 566.986 456.589L569.804 455.807C569.804 455.807 579.916 481.821 584.564 487.343C587.42 490.738 612.993 483.456 618.016 487.343C619.419 492.271 613.989 492.516 610.693 494.828C607.397 497.139 581.357 504.424 574.395 492.271Z" fill="#6A1048"/>
<path d="M584.936 463.386C586.302 459.131 592.166 446.96 588.099 438.043C588.099 443.716 583.21 453.308 583.21 453.308C583.21 453.308 567.968 465.033 571.381 464.324C574.795 463.615 573.27 477.934 578.61 477.934C583.951 477.934 583.571 467.64 584.936 463.386Z" fill="#4B0B33"/>
<path d="M599.617 513.346C594.839 506.964 572.309 509.502 572.309 509.502L549.098 521.855L564.8 540.291C564.8 540.291 583.915 528.945 586.646 531.073C589.377 533.201 588.012 579.29 588.012 579.29H598.252C598.252 579.29 604.396 519.728 599.617 513.346Z" fill="#6A1048"/>
<path d="M536.772 505.78C538.569 488.053 555.205 463.944 555.205 463.944L560.022 466.958C560.022 466.958 551.791 495.144 552.474 504.362C552.894 510.027 566.61 524.155 568.859 532.016C570.269 536.944 563.397 539.816 560.667 537.688C557.936 535.561 534.975 523.507 536.772 505.78Z" fill="#6A1048"/>
<path d="M596.887 516.183C592.784 511.929 566.848 513.048 566.165 510.211C565.482 507.375 596.88 507.675 601.659 512.638C606.438 517.602 600.977 557.31 598.928 557.31C596.879 557.31 600.989 520.438 596.887 516.183Z" fill="url(#paint48_linear)"/>
<path d="M579.818 486.103C576.467 482.383 569.144 460.531 569.144 460.531L572.286 460.199C572.286 460.199 579.076 478.104 583.724 483.627C586.581 487.021 618.013 485.969 618.013 487.113C618.013 488.258 583.17 489.822 579.818 486.103Z" fill="url(#paint49_linear)"/>
<path d="M587.113 449.818C586.552 453.581 592.164 458.692 587.113 458.692C585.386 458.692 586.69 461.331 584.482 462.447C582.132 463.635 584.03 468.078 575.578 465.13C570.362 464.291 561.559 457.503 562.713 449.763C563.867 442.023 570.912 439.127 579.757 437.101C589.453 438.043 590.301 444.314 587.113 449.818Z" fill="url(#paint50_linear)"/>
<path d="M574.319 511.452C575.684 509.325 577.049 477.417 575.001 473.871C572.953 470.326 559.982 462.526 559.982 468.908C559.982 475.289 558.617 487.344 557.934 490.889C557.251 494.434 555.924 505.957 555.924 505.957C555.924 505.957 560.02 515.884 563.433 515.884C566.847 515.884 572.953 513.58 574.319 511.452Z" fill="url(#paint51_linear)"/>
<path d="M579.157 534.719C575.054 530.464 560.703 520.847 560.02 518.011C559.337 515.175 576.432 527.218 581.211 532.181C585.99 537.145 584.62 583.645 582.571 583.645C580.522 583.645 583.26 538.973 579.157 534.719Z" fill="url(#paint52_linear)"/>
<path d="M547.012 504.361C546.329 497.98 551.79 474.58 553.155 471.744C554.521 468.908 557.934 469.617 557.252 471.035C556.569 472.453 551.787 495.143 552.47 504.361C552.89 510.027 572.286 528.941 568.855 532.015C568.855 532.015 547.695 510.743 547.012 504.361Z" fill="url(#paint53_linear)"/>
<path d="M573.638 476.709C573.638 470.327 566.89 455.782 572.389 443.728C575.99 435.835 563.756 442.301 557.291 452.777C553.884 458.299 551.129 465.777 551.129 467.49C551.129 472.454 563.398 473.163 564.763 476.709C566.129 480.254 564.08 492.308 566.129 492.308C568.177 492.308 573.638 483.09 573.638 476.709Z" fill="#6A1048"/>
<path d="M553.168 449.972C551.802 453.517 555.216 458.481 558.629 458.481C562.043 458.481 563.413 457.772 572.289 449.972C581.164 442.172 589.46 445.194 589.46 445.194C589.46 445.194 589.459 433.691 581.158 431.536C572.858 429.381 572.966 431.536 566.822 435.79C560.677 440.045 554.533 446.427 553.168 449.972Z" fill="#4B0B33"/>
<path d="M615.207 489.199L677.933 476.74" stroke="#4B0B33" stroke-width="2"/>
<path d="M551.792 575.129L537.827 602.485L499.319 604.25L531.903 546.89L494.664 490.854H533.173L607.228 602.485L571.258 604.25L551.792 575.129Z" fill="#4B0B33"/>
<path d="M531.485 493.542H496.785L494.246 490.465H533.529L595.764 583.204H593.691L531.485 493.542Z" fill="#A2486B"/>
<path d="M680.643 470.146L682.72 480.127L673.038 482.791L670.714 472.307L680.643 470.146Z" fill="url(#paint54_linear)"/>
<path d="M673.038 482.791C672.024 483.034 670.682 480.883 670.04 477.988C669.399 475.093 669.7 472.549 670.714 472.307C671.727 472.064 673.069 474.215 673.711 477.11C674.353 480.005 674.052 482.549 673.038 482.791Z" fill="url(#paint55_linear)"/>
<ellipse rx="5.11706" ry="1.51321" transform="matrix(0.216259 0.97546 -0.973465 0.232816 681.61 475.209)" fill="#6A1048"/>
<path d="M697.016 466.152L699.145 476.121L689.477 478.839L687.099 468.368L697.016 466.152Z" fill="url(#paint56_linear)"/>
<path d="M689.477 478.839C688.465 479.088 687.112 476.945 686.455 474.053C685.798 471.161 686.086 468.616 687.099 468.368C688.111 468.12 689.464 470.263 690.121 473.155C690.778 476.046 690.49 478.591 689.477 478.839Z" fill="url(#paint57_linear)"/>
<ellipse rx="5.1169" ry="1.51326" transform="matrix(0.221315 0.974269 -0.972211 0.238243 698.013 471.207)" fill="#6A1048"/>
<path d="M682.142 474.682C681.606 474.819 681.277 475.365 681.408 475.901C681.538 476.437 682.078 476.76 682.613 476.623L682.142 474.682ZM686.167 475.712L687.137 475.463L686.666 473.522L685.696 473.771L686.167 475.712ZM682.613 476.623L686.167 475.712L685.696 473.771L682.142 474.682L682.613 476.623Z" fill="#4B0B33"/>
<path d="M699.237 471.081L702.791 470.17" stroke="#4B0B33" stroke-width="2" stroke-linecap="round"/>
<path d="M574.217 444.755C580.373 440.155 586.066 442.904 586.489 441.678C586.912 440.452 585.24 436.846 582.69 435.237C580.14 433.628 577.993 434.206 576.571 435.609C575.149 437.013 573.593 438.148 571.983 440.64C570.374 443.132 568.062 449.355 574.217 444.755Z" fill="#E26276" fill-opacity="0.7"/>
<g opacity="0.7">
<path d="M602.234 727.805L569.226 750.66L520.562 772.196C520.562 772.196 483.746 796.37 474.436 786.701C465.126 777.031 489.67 761.648 489.67 761.648L545.106 704.071C545.106 704.071 665.496 646.73 673.113 650.685C674.327 651.316 662.32 655.383 659.922 657.399C665.043 655.718 682.08 651.774 683.7 653.288C692.164 661.2 602.234 727.805 602.234 727.805Z" fill="#5A2441"/>
<path d="M496.441 687.808L540.45 657.481L547.644 660.248L534.526 671.107L655.976 719.893L666.132 715.498L677.981 704.95L651.321 754.176L496.441 687.808Z" fill="#5A2441"/>
<path d="M670.365 744.507C677.92 742.638 707.203 695.918 714.797 681.216C716.136 678.624 726.646 659.24 726.646 659.24L713.528 674.183L708.027 672.425C708.027 672.425 661.478 746.704 670.365 744.507Z" fill="#5A2441"/>
<path d="M626.355 799.886C642.859 799.886 695.416 695.28 695.416 695.28L678.066 707.587C678.066 707.587 609.851 799.886 626.355 799.886Z" fill="#5A2441"/>
<path d="M448.199 718.135L496.441 686.929L509.559 691.894L501.096 699.675L636.933 760.769L647.09 749.341L650.475 753.737L623.392 801.644L448.199 718.135Z" fill="#5A2441"/>
</g>
<path d="M628.611 634.813C609.219 634.813 609.219 609.636 609.219 609.636C609.219 609.636 667.396 585.718 674.668 595.159C681.94 604.601 677.698 648.661 677.698 648.661C677.698 648.661 689.818 645.514 687.394 653.067C684.97 660.62 668.002 663.767 664.972 660.62C661.942 657.473 669.214 621.595 666.79 617.819C664.366 614.042 648.003 634.813 628.611 634.813Z" fill="#4B0B33"/>
<path d="M635.884 542.915C613.461 543.444 609.219 610.264 609.219 610.264C609.219 610.264 665.942 594.528 664.366 592.64C649.822 563.687 658.306 542.386 635.884 542.915Z" fill="#4B0B33"/>
<path d="M646.936 545.83C646.936 538.817 658.56 546.511 661.402 536.252C662.184 533.431 661.402 530.544 664.127 529.115C666.559 527.839 663.436 524.774 662.219 520.352C661.094 516.267 660.211 509.803 656.826 509.803C653.44 509.803 652.961 513.17 652.961 513.17L642.25 544.41C642.25 544.41 646.936 547.989 646.936 545.83Z" fill="url(#paint58_linear)"/>
<path d="M677.561 648.252C680.1 650.01 682.216 648.252 686.025 648.252C689.833 648.252 678.947 648.439 678.408 645.615C677.868 642.791 680.1 600.433 675.796 595.925C671.492 591.417 676.633 597.512 676.874 615.128C677.487 628.503 675.022 646.494 677.561 648.252Z" fill="url(#paint59_linear)"/>
<path d="M661.881 597.512C660.414 602.54 664.429 598.443 666.008 595.646C667.587 592.85 649.196 548.157 647.833 548.43C646.47 548.702 663.347 592.483 661.881 597.512Z" fill="url(#paint60_linear)"/>
<path d="M650.963 546.744C650.963 546.744 652.798 545.315 648.21 539.597C643.623 533.88 628.026 528.639 623.897 533.88C619.769 539.121 619.768 562.944 623.897 564.85C628.026 566.755 648.669 553.891 652.339 551.985C656.009 550.079 650.963 546.744 650.963 546.744Z" fill="#4B0B33"/>
<path d="M631.216 535.025C631.822 543.207 636.153 545.267 636.153 545.267C636.153 545.267 640.282 552.191 640.282 545.267C640.282 538.343 653.639 536.673 652.426 534.785C651.214 532.896 650.608 530.619 650.608 528.731C650.608 526.842 650.608 524.954 652.426 524.954C654.244 524.954 653.75 528.731 654.961 528.731C656.173 528.731 659.092 516.771 657.274 514.254C656.167 512.721 660.358 505.408 657.275 503.815C655.296 502.792 647.469 506.838 642.73 507.33C630.61 508.589 630.61 526.843 631.216 535.025Z" fill="#4B0B33"/>
<path d="M599.664 623.163L556.119 562.546L534.951 573.225L580.008 640.124L599.664 623.163Z" fill="#A3486B"/>
<path d="M546.141 661.168L563.377 606.204L576.078 609.973L563.377 652.374L546.141 661.168Z" fill="#4B0B33"/>
<path d="M707.316 628.817L695.523 645.15V640.438L558.235 599.608L581.217 591.442L707.316 628.817Z" fill="#A3486B"/>
<path d="M550.376 622.223L689.176 667.137L684.035 688.808L543.421 641.696L550.376 622.223Z" fill="#A3486B"/>
<path d="M695.823 628.503L714.27 674.359L709.129 672.789L692.497 632.272L695.823 628.503Z" fill="#4B0B33"/>
<path d="M726.367 659.283L714.271 674.359L695.523 628.503L694.011 609.659L704.595 599.294L726.367 659.283Z" fill="#A3486B"/>
<path d="M689.776 615.312L694.312 610.287L695.824 628.189L691.893 632.587L530.413 588.301L528.599 571.341L689.776 615.312Z" fill="#4B0B33"/>
<path d="M698.241 597.723L704.289 599.294L690.076 614.684L528.597 571.341L548.555 562.546H556.115L541.297 570.398L687.96 608.716L698.241 597.723Z" fill="#A3486B"/>
<path d="M682.517 706.711L697.636 644.837L704.289 659.913L694.915 698.859L682.517 706.711Z" fill="#4B0B33"/>
<path d="M677.977 704.197L692.492 643.579L697.633 644.521L682.513 706.395L677.977 704.197Z" fill="#A3486B"/>
<path d="M541.606 658.654L558.238 605.575L563.379 606.517L546.142 660.853L541.606 658.654Z" fill="#A3486B"/>
<path d="M558.237 599.294L695.223 640.124V645.464L556.423 605.576L558.237 599.294Z" fill="#4B0B33"/>
<path d="M687.055 688.177L684.031 689.12L689.171 667.134L550.371 622.535H555.21L692.195 666.506L687.055 688.177Z" fill="#4B0B33"/>
</g>
<path d="M6 793.315L1425 800.5L1440 912H0L6 793.315Z" fill="white"/>
<path d="M156.399 339.659V854.74L33.4456 864.74L39.1555 180.415L11.0016 119.564L21.7357 107.862L39.1555 140.628L45.1555 -38.5207H147.617V298.312L188.602 263.986V280.369L156.399 339.659Z" fill="url(#paint61_linear)"/>
<path d="M1315.3 520.206V844.844H1423.33L1413.04 356.303L1443.05 286.868L1433.62 273.516L1413.04 310.903V-55.1782H1323.01V473.026L1287 433.858V452.551L1315.3 520.206Z" fill="url(#paint62_linear)"/>
<path d="M444.343 752.597C460.802 751.74 472.324 791.153 472.324 791.153L-0.000476331 884.204C-0.000476331 884.204 -4.40751 768.893 19.2962 748.447C43 728 41.6558 697.928 54.0005 694.5C66.3452 691.072 34.4995 663.489 59.1888 648.924C83.8782 634.359 84.7012 587.235 106.099 570.099C127.496 552.962 195.803 538.396 222.139 552.962C248.474 567.527 266.579 599.229 286.331 606.941C306.082 614.652 293.738 606.941 339.002 614.653C384.265 622.364 367.806 714.898 387.557 734.604C407.309 754.311 427.883 753.453 444.343 752.597Z" fill="url(#paint63_linear)"/>
<path d="M0.00163004 911.791C0.00163004 911.791 277.318 796.895 720.002 796.895C1162.69 796.895 1440 910.552 1440 910.552V844.158C1440 844.158 1191.63 774.378 720.002 774.378C248.372 774.378 0.00163004 856.617 0.00163004 856.617V911.791Z" fill="url(#paint64_linear)"/>
<path d="M1116.63 783.685C1103.7 783.013 1072.68 813.963 1094.66 813.963C1116.63 813.963 1230.51 829.838 1313.88 824.972C1397.25 820.106 1492.5 885.006 1501.6 864.964C1510.7 844.922 1495.99 778.302 1477.9 778.302C1459.8 778.302 1437.5 861.5 1440 844.158C1440 787.5 1414.48 693.71 1395.09 682.272C1375.7 670.834 1399.05 653.828 1382.25 640.371C1365.45 626.914 1311.81 615.476 1291.12 626.914C1270.44 638.352 1256.23 663.247 1240.71 669.303C1225.2 675.359 1234.9 669.303 1199.35 675.359C1163.81 681.415 1176.73 754.08 1161.22 769.556C1145.71 785.031 1129.56 784.358 1116.63 783.685Z" fill="url(#paint65_linear)"/>
<path d="M1147.03 746.565C1155.99 752.982 1155.99 766.887 1155.99 766.887C1155.99 766.887 1141.06 766.887 1135.08 760.469C1129.11 754.052 1130.1 738.008 1130.1 738.008C1130.1 738.008 1138.07 740.147 1147.03 746.565Z" fill="url(#paint66_linear)"/>
<path d="M1280 617.565C1287.1 622.533 1287.1 633.298 1287.1 633.298C1287.1 633.298 1275.26 633.298 1270.52 628.33C1265.78 623.361 1266.57 610.94 1266.57 610.94C1266.57 610.94 1272.89 612.596 1280 617.565Z" fill="url(#paint67_linear)"/>
<path d="M1308.03 609.681C1314.09 618.013 1310.13 629.878 1310.13 629.878C1310.13 629.878 1296.98 625.118 1293.55 617.737C1290.12 610.357 1295.57 596.984 1295.57 596.984C1295.57 596.984 1301.97 601.348 1308.03 609.681Z" fill="url(#paint68_linear)"/>
</g>
<defs>
<filter id="filter0_d" x="587.523" y="451" width="277.067" height="174" filterUnits="userSpaceOnUse" color-interpolation-filters="sRGB">
<feFlood flood-opacity="0" result="BackgroundImageFix"/>
<feColorMatrix in="SourceAlpha" type="matrix" values="0 0 0 0 0 0 0 0 0 0 0 0 0 0 0 0 0 0 127 0"/>
<feOffset dy="-23"/>
<feGaussianBlur stdDeviation="37"/>
<feColorMatrix type="matrix" values="0 0 0 0 1 0 0 0 0 0.52549 0 0 0 0 0.247059 0 0 0 0.3 0"/>
<feBlend mode="normal" in2="BackgroundImageFix" result="effect1_dropShadow"/>
<feBlend mode="normal" in="SourceGraphic" in2="effect1_dropShadow" result="shape"/>
</filter>
<filter id="filter1_d" x="622.809" y="388" width="220.572" height="232.09" filterUnits="userSpaceOnUse" color-interpolation-filters="sRGB">
<feFlood flood-opacity="0" result="BackgroundImageFix"/>
<feColorMatrix in="SourceAlpha" type="matrix" values="0 0 0 0 0 0 0 0 0 0 0 0 0 0 0 0 0 0 127 0"/>
<feOffset dy="-23"/>
<feGaussianBlur stdDeviation="37"/>
<feColorMatrix type="matrix" values="0 0 0 0 1 0 0 0 0 0.52549 0 0 0 0 0.247059 0 0 0 0.3 0"/>
<feBlend mode="normal" in2="BackgroundImageFix" result="effect1_dropShadow"/>
<feBlend mode="normal" in="SourceGraphic" in2="effect1_dropShadow" result="shape"/>
</filter>
<linearGradient id="paint0_linear" x1="723.494" y1="-51.3499" x2="723.494" y2="569.593" gradientUnits="userSpaceOnUse">
<stop stop-color="#182234"/>
<stop offset="1" stop-color="#AE3562"/>
</linearGradient>
<linearGradient id="paint1_linear" x1="91.8527" y1="203.032" x2="91.8527" y2="279.484" gradientUnits="userSpaceOnUse">
<stop stop-color="white" stop-opacity="0.24"/>
<stop offset="1" stop-color="white" stop-opacity="0.34"/>
</linearGradient>
<linearGradient id="paint2_linear" x1="1010.14" y1="20.8996" x2="1010.14" y2="70.4113" gradientUnits="userSpaceOnUse">
<stop stop-color="white" stop-opacity="0.24"/>
<stop offset="1" stop-color="white" stop-opacity="0.34"/>
</linearGradient>
<linearGradient id="paint3_linear" x1="1123.67" y1="311.823" x2="1123.67" y2="369.344" gradientUnits="userSpaceOnUse">
<stop stop-color="white" stop-opacity="0.24"/>
<stop offset="1" stop-color="white" stop-opacity="0.34"/>
</linearGradient>
<linearGradient id="paint4_linear" x1="798.204" y1="562.106" x2="814.664" y2="534.783" gradientUnits="userSpaceOnUse">
<stop stop-color="#FFCC5C"/>
<stop offset="0.447917" stop-color="#434A77"/>
<stop offset="1" stop-color="#092043"/>
</linearGradient>
<linearGradient id="paint5_linear" x1="801.799" y1="552.368" x2="821.111" y2="561.698" gradientUnits="userSpaceOnUse">
<stop stop-color="#FFCC5C"/>
<stop offset="0.447917" stop-color="#434A77"/>
<stop offset="1" stop-color="#092043"/>
</linearGradient>
<linearGradient id="paint6_linear" x1="764.137" y1="555.858" x2="775.118" y2="528.651" gradientUnits="userSpaceOnUse">
<stop stop-color="#FF863F"/>
<stop offset="0.447917" stop-color="#434A77"/>
<stop offset="1" stop-color="#092043"/>
</linearGradient>
<linearGradient id="paint7_linear" x1="717.211" y1="551.817" x2="723.603" y2="517.087" gradientUnits="userSpaceOnUse">
<stop stop-color="#FF863F"/>
<stop offset="0.447917" stop-color="#434A77"/>
<stop offset="1" stop-color="#092043"/>
</linearGradient>
<radialGradient id="paint8_radial" cx="0" cy="0" r="1" gradientUnits="userSpaceOnUse" gradientTransform="translate(667.79 553.443) rotate(-107.411) scale(23.8357 43.4127)">
<stop stop-color="#FF863F"/>
<stop offset="0.447917" stop-color="#434A77"/>
<stop offset="1" stop-color="#092043"/>
</radialGradient>
<linearGradient id="paint9_linear" x1="689.185" y1="552.193" x2="684.293" y2="535.248" gradientUnits="userSpaceOnUse">
<stop stop-color="#FF863F"/>
<stop offset="0.447917" stop-color="#434A77"/>
<stop offset="1" stop-color="#092043"/>
</linearGradient>
<linearGradient id="paint10_linear" x1="727.01" y1="519.807" x2="727.01" y2="580.456" gradientUnits="userSpaceOnUse">
<stop stop-color="#342547"/>
<stop offset="1" stop-color="#0F1B31"/>
</linearGradient>
<linearGradient id="paint11_linear" x1="726.059" y1="574.131" x2="725.872" y2="557.633" gradientUnits="userSpaceOnUse">
<stop offset="0.0625" stop-color="#FFE7AE"/>
<stop offset="0.619792" stop-color="#FDCA5C"/>
<stop offset="1" stop-color="#FE863E"/>
</linearGradient>
<linearGradient id="paint12_linear" x1="1007.51" y1="628.548" x2="1016.66" y2="636.284" gradientUnits="userSpaceOnUse">
<stop stop-color="#9A7627"/>
<stop offset="0.447917" stop-color="#434A77"/>
<stop offset="1" stop-color="#092043"/>
</linearGradient>
<linearGradient id="paint13_linear" x1="595.14" y1="611.404" x2="590.902" y2="614.986" gradientUnits="userSpaceOnUse">
<stop stop-color="#FFCC5C"/>
<stop offset="0.447917" stop-color="#434A77"/>
<stop offset="1" stop-color="#092043"/>
</linearGradient>
<linearGradient id="paint14_linear" x1="655.033" y1="553.451" x2="635.721" y2="562.781" gradientUnits="userSpaceOnUse">
<stop stop-color="#FFCC5C"/>
<stop offset="0.447917" stop-color="#434A77"/>
<stop offset="1" stop-color="#092043"/>
</linearGradient>
<linearGradient id="paint15_linear" x1="347.715" y1="573.691" x2="343.462" y2="577.254" gradientUnits="userSpaceOnUse">
<stop stop-color="#9A7627"/>
<stop offset="0.447917" stop-color="#434A77"/>
<stop offset="1" stop-color="#092043"/>
</linearGradient>
<linearGradient id="paint16_linear" x1="732.269" y1="629.578" x2="733.883" y2="640.241" gradientUnits="userSpaceOnUse">
<stop stop-color="#7B5D1B"/>
<stop offset="0.447917" stop-color="#434A77"/>
<stop offset="1" stop-color="#092043"/>
</linearGradient>
<linearGradient id="paint17_linear" x1="1140.64" y1="581.922" x2="1144.9" y2="585.485" gradientUnits="userSpaceOnUse">
<stop stop-color="#9A7627"/>
<stop offset="0.447917" stop-color="#434A77"/>
<stop offset="1" stop-color="#092043"/>
</linearGradient>
<linearGradient id="paint18_linear" x1="663.717" y1="561.565" x2="644.404" y2="570.895" gradientUnits="userSpaceOnUse">
<stop stop-color="#FFCC5C"/>
<stop offset="0.447917" stop-color="#434A77"/>
<stop offset="1" stop-color="#092043"/>
</linearGradient>
<linearGradient id="paint19_linear" x1="678.49" y1="561.023" x2="667.449" y2="576.659" gradientUnits="userSpaceOnUse">
<stop stop-color="#FFCC5C"/>
<stop offset="0.447917" stop-color="#434A77"/>
<stop offset="1" stop-color="#092043"/>
</linearGradient>
<linearGradient id="paint20_linear" x1="809.439" y1="559.62" x2="823.211" y2="562.037" gradientUnits="userSpaceOnUse">
<stop stop-color="#FFCC5C"/>
<stop offset="0.447917" stop-color="#434A77"/>
<stop offset="1" stop-color="#092043"/>
</linearGradient>
<linearGradient id="paint21_linear" x1="779.865" y1="563.732" x2="798.702" y2="577.84" gradientUnits="userSpaceOnUse">
<stop stop-color="#FFCC5C"/>
<stop offset="0.447917" stop-color="#434A77"/>
<stop offset="1" stop-color="#092043"/>
</linearGradient>
<linearGradient id="paint22_linear" x1="46.3585" y1="-6.59694" x2="46.3585" y2="562.183" gradientUnits="userSpaceOnUse">
<stop stop-color="#182234"/>
<stop offset="1" stop-color="#76395A"/>
</linearGradient>
<linearGradient id="paint23_linear" x1="1236.77" y1="151.775" x2="1236.77" y2="622.576" gradientUnits="userSpaceOnUse">
<stop stop-color="#182234"/>
<stop offset="1" stop-color="#76395A"/>
</linearGradient>
<linearGradient id="paint24_linear" x1="301.347" y1="92.4785" x2="301.347" y2="563.512" gradientUnits="userSpaceOnUse">
<stop stop-color="#182234"/>
<stop offset="1" stop-color="#76395A"/>
</linearGradient>
<linearGradient id="paint25_linear" x1="1136.34" y1="143.478" x2="1136.34" y2="614.511" gradientUnits="userSpaceOnUse">
<stop stop-color="#182234"/>
<stop offset="1" stop-color="#76395A"/>
</linearGradient>
<linearGradient id="paint26_linear" x1="146.847" y1="92.4785" x2="146.847" y2="563.512" gradientUnits="userSpaceOnUse">
<stop stop-color="#182234"/>
<stop offset="1" stop-color="#76395A"/>
</linearGradient>
<linearGradient id="paint27_linear" x1="219.378" y1="93.8301" x2="219.378" y2="564.863" gradientUnits="userSpaceOnUse">
<stop stop-color="#182234"/>
<stop offset="1" stop-color="#76395A"/>
</linearGradient>
<linearGradient id="paint28_linear" x1="1328.55" y1="93.8301" x2="1328.55" y2="564.863" gradientUnits="userSpaceOnUse">
<stop stop-color="#182234"/>
<stop offset="1" stop-color="#76395A"/>
</linearGradient>
<linearGradient id="paint29_linear" x1="733.588" y1="44.4179" x2="735.237" y2="559.78" gradientUnits="userSpaceOnUse">
<stop stop-color="#FED16F" stop-opacity="0.05"/>
<stop offset="1" stop-color="#FF873F" stop-opacity="0.33"/>
</linearGradient>
<linearGradient id="paint30_linear" x1="737.056" y1="569.559" x2="733.202" y2="510.624" gradientUnits="userSpaceOnUse">
<stop offset="0.0625" stop-color="#FFE7AE"/>
<stop offset="0.307292" stop-color="#FDCA5C"/>
<stop offset="0.541667" stop-color="#FA9142"/>
<stop offset="0.984375" stop-color="#EC5440"/>
</linearGradient>
<linearGradient id="paint31_linear" x1="761.615" y1="561.368" x2="766.422" y2="580.212" gradientUnits="userSpaceOnUse">
<stop stop-color="#FFCC5C"/>
<stop offset="0.447917" stop-color="#434A77"/>
<stop offset="1" stop-color="#092043"/>
</linearGradient>
<linearGradient id="paint32_linear" x1="708.117" y1="555.019" x2="701.453" y2="577.529" gradientUnits="userSpaceOnUse">
<stop stop-color="#FFCC5C"/>
<stop offset="0.447917" stop-color="#434A77"/>
<stop offset="1" stop-color="#092043"/>
</linearGradient>
<linearGradient id="paint33_linear" x1="744.361" y1="554.268" x2="744.437" y2="579.102" gradientUnits="userSpaceOnUse">
<stop stop-color="#FFCC5C"/>
<stop offset="0.447917" stop-color="#434A77"/>
<stop offset="1" stop-color="#092043"/>
</linearGradient>
<linearGradient id="paint34_linear" x1="410.33" y1="608.254" x2="403.018" y2="612.756" gradientUnits="userSpaceOnUse">
<stop stop-color="#9A7627"/>
<stop offset="0.447917" stop-color="#434A77"/>
<stop offset="1" stop-color="#092043"/>
</linearGradient>
<linearGradient id="paint35_linear" x1="865.41" y1="547.544" x2="831.558" y2="573.641" gradientUnits="userSpaceOnUse">
<stop stop-color="#E05E77"/>
<stop offset="1" stop-color="#EE8063"/>
</linearGradient>
<linearGradient id="paint36_linear" x1="887.093" y1="436.901" x2="824.548" y2="545.224" gradientUnits="userSpaceOnUse">
<stop stop-color="#A93756"/>
<stop offset="1" stop-color="#EE8063"/>
</linearGradient>
<linearGradient id="paint37_linear" x1="887.093" y1="436.901" x2="824.548" y2="545.224" gradientUnits="userSpaceOnUse">
<stop stop-color="#A93756"/>
<stop offset="1" stop-color="#EE8063"/>
</linearGradient>
<linearGradient id="paint38_linear" x1="887.093" y1="436.901" x2="824.548" y2="545.224" gradientUnits="userSpaceOnUse">
<stop stop-color="#A93756"/>
<stop offset="1" stop-color="#EE8063"/>
</linearGradient>
<linearGradient id="paint39_linear" x1="887.093" y1="436.901" x2="824.548" y2="545.224" gradientUnits="userSpaceOnUse">
<stop stop-color="#A93756"/>
<stop offset="1" stop-color="#EE8063"/>
</linearGradient>
<linearGradient id="paint40_linear" x1="887.093" y1="436.901" x2="824.548" y2="545.224" gradientUnits="userSpaceOnUse">
<stop stop-color="#A93756"/>
<stop offset="1" stop-color="#EE8063"/>
</linearGradient>
<linearGradient id="paint41_linear" x1="887.093" y1="436.901" x2="824.548" y2="545.224" gradientUnits="userSpaceOnUse">
<stop stop-color="#A93756"/>
<stop offset="1" stop-color="#EE8063"/>
</linearGradient>
<linearGradient id="paint42_linear" x1="887.093" y1="436.901" x2="824.548" y2="545.224" gradientUnits="userSpaceOnUse">
<stop stop-color="#A93756"/>
<stop offset="1" stop-color="#EE8063"/>
</linearGradient>
<linearGradient id="paint43_linear" x1="887.093" y1="436.901" x2="824.548" y2="545.224" gradientUnits="userSpaceOnUse">
<stop stop-color="#A93756"/>
<stop offset="1" stop-color="#EE8063"/>
</linearGradient>
<linearGradient id="paint44_linear" x1="887.093" y1="436.901" x2="824.548" y2="545.224" gradientUnits="userSpaceOnUse">
<stop stop-color="#A93756"/>
<stop offset="1" stop-color="#EE8063"/>
</linearGradient>
<linearGradient id="paint45_linear" x1="810.246" y1="505" x2="755.26" y2="561.956" gradientUnits="userSpaceOnUse">
<stop stop-color="#BB495B"/>
<stop offset="1" stop-color="#EA7B63"/>
</linearGradient>
<linearGradient id="paint46_linear" x1="810.246" y1="505" x2="755.26" y2="561.956" gradientUnits="userSpaceOnUse">
<stop stop-color="#BB495B"/>
<stop offset="1" stop-color="#EA7B63"/>
</linearGradient>
<linearGradient id="paint47_linear" x1="810.246" y1="505" x2="755.26" y2="561.956" gradientUnits="userSpaceOnUse">
<stop stop-color="#BB495B"/>
<stop offset="1" stop-color="#EA7B63"/>
</linearGradient>
<linearGradient id="paint48_linear" x1="560.18" y1="431.014" x2="705.098" y2="499.71" gradientUnits="userSpaceOnUse">
<stop stop-color="#A93756"/>
<stop offset="1" stop-color="#FEA64D"/>
</linearGradient>
<linearGradient id="paint49_linear" x1="560.18" y1="431.014" x2="705.098" y2="499.71" gradientUnits="userSpaceOnUse">
<stop stop-color="#A93756"/>
<stop offset="1" stop-color="#FEA64D"/>
</linearGradient>
<linearGradient id="paint50_linear" x1="560.18" y1="431.014" x2="705.098" y2="499.71" gradientUnits="userSpaceOnUse">
<stop stop-color="#A93756"/>
<stop offset="1" stop-color="#FEA64D"/>
</linearGradient>
<linearGradient id="paint51_linear" x1="560.18" y1="431.014" x2="705.098" y2="499.71" gradientUnits="userSpaceOnUse">
<stop stop-color="#A93756"/>
<stop offset="1" stop-color="#FEA64D"/>
</linearGradient>
<linearGradient id="paint52_linear" x1="560.18" y1="431.014" x2="705.098" y2="499.71" gradientUnits="userSpaceOnUse">
<stop stop-color="#A93756"/>
<stop offset="1" stop-color="#FEA64D"/>
</linearGradient>
<linearGradient id="paint53_linear" x1="560.18" y1="431.014" x2="705.098" y2="499.71" gradientUnits="userSpaceOnUse">
<stop stop-color="#A93756"/>
<stop offset="1" stop-color="#FEA64D"/>
</linearGradient>
<linearGradient id="paint54_linear" x1="696.085" y1="492.381" x2="678.717" y2="469.411" gradientUnits="userSpaceOnUse">
<stop stop-color="#FFB20B"/>
<stop offset="1" stop-color="#832056"/>
</linearGradient>
<linearGradient id="paint55_linear" x1="696.085" y1="492.381" x2="678.717" y2="469.411" gradientUnits="userSpaceOnUse">
<stop stop-color="#FFB20B"/>
<stop offset="1" stop-color="#832056"/>
</linearGradient>
<linearGradient id="paint56_linear" x1="712.574" y1="488.3" x2="695.084" y2="465.43" gradientUnits="userSpaceOnUse">
<stop stop-color="#FFB20B"/>
<stop offset="1" stop-color="#8C245D"/>
</linearGradient>
<linearGradient id="paint57_linear" x1="712.574" y1="488.3" x2="695.084" y2="465.43" gradientUnits="userSpaceOnUse">
<stop stop-color="#FFB20B"/>
<stop offset="1" stop-color="#8C245D"/>
</linearGradient>
<linearGradient id="paint58_linear" x1="645.381" y1="505" x2="705.414" y2="561.497" gradientUnits="userSpaceOnUse">
<stop stop-color="#B03E58"/>
<stop offset="1" stop-color="#EA7B63"/>
</linearGradient>
<linearGradient id="paint59_linear" x1="645.381" y1="505" x2="705.414" y2="561.497" gradientUnits="userSpaceOnUse">
<stop stop-color="#B03E58"/>
<stop offset="1" stop-color="#EA7B63"/>
</linearGradient>
<linearGradient id="paint60_linear" x1="645.381" y1="505" x2="705.414" y2="561.497" gradientUnits="userSpaceOnUse">
<stop stop-color="#B03E58"/>
<stop offset="1" stop-color="#EA7B63"/>
</linearGradient>
<linearGradient id="paint61_linear" x1="754.516" y1="9.36972" x2="746.929" y2="753.227" gradientUnits="userSpaceOnUse">
<stop stop-color="#182234"/>
<stop offset="1" stop-color="#2E2652"/>
</linearGradient>
<linearGradient id="paint62_linear" x1="754.516" y1="9.36972" x2="746.929" y2="753.227" gradientUnits="userSpaceOnUse">
<stop stop-color="#182234"/>
<stop offset="1" stop-color="#2E2652"/>
</linearGradient>
<linearGradient id="paint63_linear" x1="754.516" y1="9.36972" x2="746.929" y2="753.227" gradientUnits="userSpaceOnUse">
<stop stop-color="#182234"/>
<stop offset="1" stop-color="#2E2652"/>
</linearGradient>
<linearGradient id="paint64_linear" x1="754.516" y1="9.36972" x2="746.929" y2="753.227" gradientUnits="userSpaceOnUse">
<stop stop-color="#182234"/>
<stop offset="1" stop-color="#2E2652"/>
</linearGradient>
<linearGradient id="paint65_linear" x1="754.516" y1="9.36972" x2="746.929" y2="753.227" gradientUnits="userSpaceOnUse">
<stop stop-color="#182234"/>
<stop offset="1" stop-color="#2E2652"/>
</linearGradient>
<linearGradient id="paint66_linear" x1="754.516" y1="9.36972" x2="746.929" y2="753.227" gradientUnits="userSpaceOnUse">
<stop stop-color="#182234"/>
<stop offset="1" stop-color="#2E2652"/>
</linearGradient>
<linearGradient id="paint67_linear" x1="754.516" y1="9.36972" x2="746.929" y2="753.227" gradientUnits="userSpaceOnUse">
<stop stop-color="#182234"/>
<stop offset="1" stop-color="#2E2652"/>
</linearGradient>
<linearGradient id="paint68_linear" x1="754.516" y1="9.36972" x2="746.929" y2="753.227" gradientUnits="userSpaceOnUse">
<stop stop-color="#182234"/>
<stop offset="1" stop-color="#2E2652"/>
</linearGradient>
</defs>
</svg>
