<svg width="1744" height="1179" viewBox="0 0 1744 1179" fill="none" xmlns="http://www.w3.org/2000/svg">
<mask id="mask0" mask-type="alpha" maskUnits="userSpaceOnUse" x="0" y="0" width="1744" height="1179">
<rect width="1744" height="1179" fill="#C4C4C4"/>
</mask>
<g mask="url(#mask0)">
<mask id="mask1" mask-type="alpha" maskUnits="userSpaceOnUse" x="-8" y="-8" width="1764" height="1018">
<rect x="-7.33984" y="-7.03125" width="1763.2" height="1016.29" fill="#6D549E"/>
</mask>
<g mask="url(#mask1)">
<rect x="-2.44531" y="-37.1056" width="1763.2" height="759.396" fill="url(#paint0_linear)"/>
<ellipse opacity="0.5" rx="1.87925" ry="1.83712" transform="matrix(0.0997338 -0.995014 0.994534 0.104411 1271.76 36.3848)" fill="white" fill-opacity="0.7"/>
<path opacity="0.4" d="M587.734 376.426H-317.129C-317.129 376.426 -262.82 327.95 -205.17 327.95C-147.519 327.95 -77.3361 351.611 -29.7117 351.611C17.9126 351.611 119.845 244.847 202.561 244.847C285.277 244.847 344.599 326.795 379.691 326.795C414.782 326.795 427.315 307.751 458.229 312.368C489.143 316.985 587.734 376.426 587.734 376.426Z" fill="url(#paint1_linear)"/>
<path opacity="0.4" d="M1473.01 103.246H973.438C973.438 103.246 1015.67 57.6715 1047.49 57.6715C1079.32 57.6715 1105.83 78.2602 1132.12 78.2602C1158.41 78.2602 1214.69 18.0331 1260.36 18.0331C1306.02 18.0331 1338.78 75.8309 1358.15 75.8309C1377.52 75.8309 1384.44 65.3112 1401.51 67.8614C1418.58 70.4116 1473.01 103.246 1473.01 103.246Z" fill="url(#paint2_linear)"/>
<path opacity="0.4" d="M1629.74 425.298H1133.84C1133.84 425.298 1161.31 384.025 1190.47 384.025C1219.62 384.025 1225.35 398.659 1249.43 398.659C1273.52 398.659 1274.08 356.631 1315.91 356.631C1357.75 356.631 1348.4 379.088 1381.19 384.025C1413.99 388.962 1419.08 326.301 1452.02 326.301C1484.96 326.301 1484.72 361.073 1524.93 384.025C1602.79 346.066 1629.74 425.298 1629.74 425.298Z" fill="url(#paint3_linear)"/>
<ellipse opacity="0.5" cx="260.196" cy="651.489" rx="1.83666" ry="1.87969" fill="white"/>
<ellipse opacity="0.5" cx="474.481" cy="195.35" rx="1.83666" ry="1.87969" fill="white"/>
<ellipse opacity="0.5" cx="543.044" cy="49.9865" rx="1.83666" ry="1.87969" fill="white"/>
<ellipse opacity="0.5" rx="1.84639" ry="1.87014" transform="matrix(0.8763 0.481765 -0.464757 0.885438 95.991 470.81)" fill="white"/>
<ellipse opacity="0.5" rx="1.84639" ry="1.87014" transform="matrix(0.8763 0.481765 -0.464757 0.885438 350.499 383.132)" fill="white"/>
<ellipse rx="3.11046" ry="3.08383" transform="matrix(0.55176 -0.834003 0.821948 0.569562 1502.59 449.487)" fill="white" fill-opacity="0.8"/>
<ellipse opacity="0.5" rx="1.86627" ry="1.8503" transform="matrix(0.55176 -0.834003 0.821948 0.569562 1441.64 181.763)" fill="white" fill-opacity="0.7"/>
<ellipse opacity="0.9" rx="3.07731" ry="3.1169" transform="matrix(0.8763 0.481765 -0.464757 0.885438 137.682 96.2077)" fill="white"/>
<ellipse opacity="0.5" rx="1.85428" ry="1.86231" transform="matrix(0.762932 -0.646478 0.628956 0.77744 805.965 319.026)" fill="white"/>
<ellipse rx="1.23619" ry="1.24154" transform="matrix(0.762932 -0.646478 0.628956 0.77744 661.302 180.489)" fill="white" fill-opacity="0.7"/>
<ellipse opacity="0.5" rx="1.85428" ry="1.86231" transform="matrix(0.762932 -0.646478 0.628956 0.77744 1173.16 306.391)" fill="white"/>
<path d="M963.381 667.401C972.299 667.699 982.023 662.753 982.023 662.753C982.023 662.753 977.031 639.386 964.307 638.433C951.584 637.479 947.624 661.6 947.624 661.6C947.624 661.6 954.463 667.102 963.381 667.401Z" fill="url(#paint4_linear)"/>
<path d="M988.148 682.825C996.719 682.825 1005.9 676.56 1005.9 676.56C1005.9 676.56 1000.39 648.991 988.148 648.364C975.904 647.738 972.842 676.56 972.842 676.56C972.842 676.56 979.577 682.825 988.148 682.825Z" fill="url(#paint5_linear)"/>
<path d="M922.379 664.389C933.432 665.547 945.909 660.443 945.909 660.443C945.909 660.443 941.596 631.783 925.869 629.494C910.143 627.206 903.276 655.977 903.276 655.977C903.276 655.977 911.326 663.231 922.379 664.389Z" fill="url(#paint6_linear)"/>
<path d="M841.69 662.054C834.142 662.307 825.911 658.12 825.911 658.12C825.911 658.12 830.137 638.342 840.906 637.535C851.675 636.728 855.027 657.144 855.027 657.144C855.027 657.144 849.238 661.801 841.69 662.054Z" fill="url(#paint7_linear)"/>
<path d="M877.991 665.897C890.372 665.897 903.637 658.836 903.637 658.836C903.637 658.836 895.678 627.768 877.991 627.062C860.305 626.356 855.883 658.836 855.883 658.836C855.883 658.836 865.611 665.897 877.991 665.897Z" fill="url(#paint8_linear)"/>
<path d="M808.602 670.144C797.539 670.515 785.476 664.378 785.476 664.378C785.476 664.378 791.669 635.391 807.453 634.208C823.237 633.025 828.15 662.948 828.15 662.948C828.15 662.948 819.666 669.773 808.602 670.144Z" fill="url(#paint9_radial)"/>
<path d="M-2.45703 672.165H1760.74V1011.76H-2.45703V672.165Z" fill="#49298B"/>
<mask id="mask2" mask-type="alpha" maskUnits="userSpaceOnUse" x="-3" y="672" width="1764" height="280">
<rect x="-2.45703" y="672.165" width="1763.2" height="279.448" fill="#342152"/>
</mask>
<g mask="url(#mask2)">
<path opacity="0.8" d="M1286.88 691.301C1286.88 745.471 1104.6 804.996 879.752 804.996C654.902 804.996 472.625 745.471 472.625 691.301C472.625 637.131 654.902 593.218 879.752 593.218C1104.6 593.218 1286.88 637.131 1286.88 691.301Z" fill="#4D3188"/>
<path opacity="0.8" d="M1154.64 686.895C1154.64 715.1 1031.29 748.605 879.136 748.605C726.982 748.605 603.637 715.1 603.637 686.895C603.637 658.689 726.982 635.824 879.136 635.824C1031.29 635.824 1154.64 658.689 1154.64 686.895Z" fill="#583C91"/>
<ellipse cx="886.487" cy="678.43" rx="149.382" ry="35.0876" fill="url(#paint10_linear)" fill-opacity="0.89"/>
</g>
<g filter="url(#filter0_d)">
<path d="M797.673 670.94C793.387 676.174 814.956 680.213 814.956 680.213C814.956 680.213 850.275 685.837 882.11 686.643C913.946 687.448 947.196 683.837 947.196 683.837C947.196 683.837 988.073 676.979 981.951 670.94C975.829 664.9 947.196 656.848 887.67 654.834C828.145 652.821 801.958 665.706 797.673 670.94Z" fill="url(#paint11_radial)"/>
</g>
<path d="M1077.77 730.198C1083.4 730.009 1089.57 734.265 1089.57 734.265C1089.57 734.265 1100.59 737.848 1111.18 742.13C1122.68 746.782 1098.79 737.849 1094.65 740.459C1091.7 742.317 1117.35 754.477 1106.89 750.908C1089.13 744.85 1067.85 734.993 1067.85 734.993C1067.85 734.993 1072.13 730.387 1077.77 730.198Z" fill="#3C1C80"/>
<path d="M871.821 520.202C874.849 517.438 877.944 518.092 879.523 519.904C881.102 521.716 879.445 524.969 876.499 525.146C873.554 525.322 871.033 529.427 869.454 527.616C867.875 525.804 868.793 522.966 871.821 520.202Z" fill="#FE863F"/>
<path d="M865.007 490.146C866.861 488.649 868.637 489.14 869.492 490.249C870.347 491.358 869.273 493.188 867.556 493.185C865.839 493.182 864.234 495.476 863.379 494.367C862.524 493.258 863.154 491.643 865.007 490.146Z" fill="#FE863F"/>
<path opacity="0.5" d="M859.757 427.329C860.636 425.086 862.414 424.607 863.696 425.133C864.977 425.658 864.936 427.793 863.446 428.665C861.955 429.538 861.68 432.345 860.398 431.819C859.117 431.293 858.878 429.572 859.757 427.329Z" fill="#FE863F"/>
<path d="M909.151 538.002C910.982 538.725 911.39 540.233 910.977 541.328C910.564 542.424 908.83 542.412 908.105 541.154C907.38 539.896 905.097 539.692 905.511 538.596C905.924 537.501 907.32 537.278 909.151 538.002Z" fill="#FE863F"/>
<ellipse cx="832.001" cy="493.594" rx="1.83666" ry="1.87969" fill="#ECBE5B"/>
<ellipse opacity="0.5" cx="890.774" cy="434.696" rx="1.83666" ry="1.87969" fill="#ECBE5B"/>
<ellipse cx="936.081" cy="492.339" rx="3.06111" ry="3.13282" fill="#ECBE5B"/>
<ellipse opacity="0.5" cx="901.794" cy="305.624" rx="1.83666" ry="1.87969" fill="#ECBE5B"/>
<ellipse opacity="0.5" cx="858.942" cy="280.561" rx="1.83666" ry="1.87969" fill="#ECBE5B"/>
<ellipse opacity="0.5" cx="938.528" cy="409.633" rx="1.83666" ry="1.87969" fill="#ECBE5B"/>
<path d="M1075.31 737.127C1080.95 737.315 1084.67 733.06 1084.67 733.06C1084.67 733.06 1084.36 726.326 1082.4 721.036C1080.64 716.288 1080.69 732.67 1076.89 732.332C1073.53 732.032 1073.67 713.838 1071.99 717.903C1069.66 723.546 1067.85 733.585 1067.85 733.585C1067.85 733.585 1069.68 736.938 1075.31 737.127Z" fill="#2F365C"/>
<path d="M1033.26 827.124C1038.2 828.309 1042.59 833.484 1042.59 833.484C1042.59 833.484 1044.66 833.965 1052.88 840.22C1061.8 847.015 1049.77 838.803 1045.58 840.077C1042.59 840.984 1062.09 857.688 1053.82 852.083C1039.78 842.569 1023.56 828.913 1023.56 828.913C1023.56 828.913 1028.33 825.939 1033.26 827.124Z" fill="#3C1C80"/>
<path d="M1031.27 832.973C1036.34 833.143 1039.69 829.315 1039.69 829.315C1039.69 829.315 1039.41 829.364 1037.64 824.606C1036.06 820.336 1036.1 828.965 1032.69 828.661C1029.66 828.392 1029.79 812.029 1028.28 815.685C1026.19 820.76 1024.56 829.788 1024.56 829.788C1024.56 829.788 1026.21 832.803 1031.27 832.973Z" fill="#2F365C"/>
<path d="M713.675 810.975C708.919 812.218 704.764 817.315 704.764 817.315C704.764 817.315 696.403 823.051 688.562 829.268C680.044 836.021 697.905 822.605 701.991 823.757C704.9 824.578 686.328 841.132 694.231 835.544C707.648 826.058 723.107 812.519 723.107 812.519C723.107 812.519 718.43 809.732 713.675 810.975Z" fill="#3C1C80"/>
<path d="M718.619 814.857C713.713 815.021 710.466 811.314 710.466 811.314C710.466 811.314 710.738 805.448 712.447 800.841C713.981 796.705 713.937 810.975 717.246 810.68C720.176 810.419 720.049 794.571 721.513 798.112C723.544 803.027 725.121 811.772 725.121 811.772C725.121 811.772 723.524 814.693 718.619 814.857Z" fill="#2F365C"/>
<path d="M577.931 702.241C573.565 701.578 571.197 701.614 571.197 701.614C571.197 701.614 548.544 701.065 544.259 702.241C546.707 703.494 559.628 701.71 562.625 704.12C564.759 705.836 547.932 707.253 541.491 709.252C547.932 712.266 582.217 706 582.217 706C582.217 706 582.298 702.903 577.931 702.241Z" fill="#3C1C80"/>
<path d="M574.872 704.745C570.717 703.217 571.81 702.239 571.81 702.239C571.81 702.239 572.401 696.115 573.647 694.72C575.484 697.226 574.725 699.737 577.587 700.614C580.12 701.39 579.396 695.973 582.218 691.587C583.681 695.346 583.816 704.199 583.816 704.199C583.816 704.199 579.026 706.273 574.872 704.745Z" fill="#2F365C"/>
<path d="M1228.37 760.159C1234 759.971 1240.18 764.226 1240.18 764.226C1240.18 764.226 1273.41 772.926 1265.46 777.939C1257.5 782.951 1218.46 764.954 1218.46 764.954C1218.46 764.954 1222.74 760.348 1228.37 760.159Z" fill="#3C1C80"/>
<path d="M1225.92 767.087C1231.56 767.276 1237.73 763.02 1237.73 763.02C1237.73 763.02 1234.74 743.284 1226.71 742.569C1218.68 741.853 1216.01 762.292 1216.01 762.292C1216.01 762.292 1220.29 766.899 1225.92 767.087Z" fill="url(#paint12_linear)"/>
<path d="M719.467 733.309C715.541 733.178 711.234 736.145 711.234 736.145C711.234 736.145 681.043 749.047 683.367 750.511C685.692 751.975 726.38 736.652 726.38 736.652C726.38 736.652 723.394 733.441 719.467 733.309Z" fill="#3C1C80"/>
<path d="M721.773 737.561C719.165 737.648 716.305 735.677 716.305 735.677C716.305 735.677 717.691 726.538 721.41 726.207C725.129 725.876 726.364 735.34 726.364 735.34C726.364 735.34 724.381 737.473 721.773 737.561Z" fill="url(#paint13_linear)"/>
<path opacity="0.96" d="M868.125 697.198H908.531C908.531 697.198 904.246 714.63 889.552 717.063C874.859 719.495 868.125 697.198 868.125 697.198Z" fill="#0D1A31"/>
<path opacity="0.96" d="M913.43 694.785L937.176 689.709C937.176 689.709 951.207 706.966 946.89 709.504C942.572 712.042 913.43 694.785 913.43 694.785Z" fill="#0D1A31"/>
<path opacity="0.96" d="M957.507 694.193L976.418 683.442C976.418 683.442 1005.94 695.403 995.791 702.794C985.643 710.186 957.507 694.193 957.507 694.193Z" fill="#0D1A31"/>
<path opacity="0.96" d="M973.425 675.42L994.169 670.911C994.169 670.911 1039.34 671.474 1035.66 674.293C1031.97 677.111 973.425 675.42 973.425 675.42Z" fill="#0D1A31"/>
<path opacity="0.96" d="M795.88 682.813L775.136 677.176C775.136 677.176 729.96 677.881 733.648 681.404C737.336 684.927 795.88 682.813 795.88 682.813Z" fill="#0D1A31"/>
<path d="M781.165 684.078C772.593 684.078 763.41 677.812 763.41 677.812C763.41 677.812 768.92 650.244 781.165 649.617C793.409 648.99 796.47 677.812 796.47 677.812C796.47 677.812 789.736 684.078 781.165 684.078Z" fill="url(#paint14_linear)"/>
<path opacity="0.96" d="M975.878 685.446L996.622 680.936C996.622 680.936 1041.8 681.5 1038.11 684.318C1034.42 687.137 975.878 685.446 975.878 685.446Z" fill="#0D1A31"/>
<path d="M421.735 688.926C418.115 687.363 413.056 688.553 413.056 688.553C413.056 688.553 380.352 689.523 382.009 691.742C383.666 693.961 424.259 696.6 428.241 693.33C432.224 690.059 425.354 690.49 421.735 688.926Z" fill="#3C1C80"/>
<path opacity="0.96" d="M864.454 695.875L833.466 690.962C833.466 690.962 819.242 711.161 831.434 714.436C843.626 717.712 864.454 695.875 864.454 695.875Z" fill="#0D1A31"/>
<path d="M424.387 693.912C421.779 693.988 418.927 692.003 418.927 692.003C418.927 692.003 420.354 682.871 424.075 682.557C427.795 682.243 428.988 691.714 428.988 691.714C428.988 691.714 426.995 693.837 424.387 693.912Z" fill="url(#paint15_linear)"/>
<path d="M888.764 761.899C894.396 761.71 897.687 764.642 897.687 764.642C897.687 764.642 893.401 797.85 888.765 797.849C884.128 797.849 876.871 764.641 876.871 764.641C876.871 764.641 883.133 762.088 888.764 761.899Z" fill="#3C1C80"/>
<path d="M886.488 768.828C892.12 769.017 898.297 764.761 898.297 764.761C898.297 764.761 895.303 751.291 887.272 750.576C879.241 749.86 876.574 764.034 876.574 764.034C876.574 764.034 880.856 768.64 886.488 768.828Z" fill="url(#paint16_linear)"/>
<path d="M1386.68 698.449C1390.3 696.885 1395.36 698.076 1395.36 698.076C1395.36 698.076 1428.07 699.045 1426.41 701.264C1424.75 703.483 1384.16 706.123 1380.18 702.852C1376.19 699.582 1383.06 700.012 1386.68 698.449Z" fill="#3C1C80"/>
<path d="M1382.81 703.436C1385.42 703.511 1388.27 701.527 1388.27 701.527C1388.27 701.527 1386.84 692.394 1383.12 692.081C1379.4 691.767 1378.21 701.237 1378.21 701.237C1378.21 701.237 1380.2 703.361 1382.81 703.436Z" fill="url(#paint17_linear)"/>
<path opacity="0.96" d="M828.952 692.215L798.945 686.576C798.945 686.576 782.416 700.987 787.314 704.12C792.211 707.253 828.952 692.215 828.952 692.215Z" fill="#0D1A31"/>
<path d="M1262.22 689.076C1266.59 688.414 1268.96 688.45 1268.96 688.45C1268.96 688.45 1291.61 687.901 1295.89 689.076C1293.44 690.33 1280.52 688.545 1277.53 690.956C1275.39 692.672 1292.22 694.089 1298.66 696.088C1292.22 699.101 1257.94 692.836 1257.94 692.836C1257.94 692.836 1257.85 689.739 1262.22 689.076Z" fill="#3C1C80"/>
<path d="M1265.28 691.582C1269.44 690.054 1268.35 689.076 1268.35 689.076C1268.35 689.076 1267.76 682.953 1266.51 681.557C1264.67 684.063 1265.43 686.574 1262.57 687.451C1260.04 688.227 1260.76 682.81 1257.94 678.424C1256.48 682.184 1256.34 691.037 1256.34 691.037C1256.34 691.037 1261.13 693.11 1265.28 691.582Z" fill="#2F365C"/>
<path opacity="0.96" d="M800.783 691.589L773.233 686.576C773.233 686.576 738.948 688.456 743.846 691.589C748.744 694.722 800.783 691.589 800.783 691.589Z" fill="#0D1A31"/>
<path d="M791.598 693.467C783.027 693.467 773.844 687.201 773.844 687.201C773.844 687.201 779.354 659.633 791.598 659.006C803.843 658.38 806.904 687.201 806.904 687.201C806.904 687.201 800.169 693.467 791.598 693.467Z" fill="url(#paint18_linear)"/>
<path d="M812.693 697.046C803.775 697.344 794.051 692.398 794.051 692.398C794.051 692.398 799.043 669.031 811.767 668.078C824.49 667.124 828.45 691.245 828.45 691.245C828.45 691.245 821.611 696.747 812.693 697.046Z" fill="url(#paint19_linear)"/>
<path d="M992.845 685.817C1000.33 684.812 1007.78 679.317 1007.78 679.317C1007.78 679.317 1000.48 660.517 989.731 661.51C978.984 662.503 978.916 683.191 978.916 683.191C978.916 683.191 985.362 686.821 992.845 685.817Z" fill="url(#paint20_linear)"/>
<path d="M963.792 697.495C974.856 697.865 986.919 691.728 986.919 691.728C986.919 691.728 980.726 662.741 964.942 661.558C949.157 660.376 944.245 690.299 944.245 690.299C944.245 690.299 952.729 697.124 963.792 697.495Z" fill="url(#paint21_linear)"/>
</g>
<path d="M22.8462 368.319V657H110.077L101.769 -51.6437L126 -105.256L118.385 -115.566L101.769 -86.6978V-130H29.0769V331.89L0 301.647V316.081L22.8462 368.319Z" fill="url(#paint22_linear)"/>
<path d="M1413.79 381.319V670H1325.18L1333.62 -38.6437L1309 -92.2559L1316.74 -102.566L1333.62 -73.6978V-117H1407.46V344.89L1437 314.647V329.081L1413.79 381.319Z" fill="url(#paint23_linear)"/>
<path d="M328.846 380.319V669H416.077L407.769 -39.6437L432 -93.2559L424.385 -103.566L407.769 -74.6978V-118H335.077V343.89L306 313.647V328.081L328.846 380.319Z" fill="url(#paint24_linear)"/>
<path d="M296.175 638.93C303.987 638.539 309.456 656.507 309.456 656.507L62.5859 657.679C62.5859 657.679 66.8827 635.805 77.82 635.805C88.7572 635.805 88.7572 618.227 94.6165 616.664C100.476 615.102 101.648 598.305 113.366 591.665C125.085 585.025 125.475 563.541 135.631 555.728C145.787 547.916 178.208 541.275 190.708 547.916C203.208 554.556 211.801 569.009 221.176 572.525C230.551 576.04 224.692 572.525 246.176 576.04C267.66 579.556 259.847 621.742 269.222 630.727C278.597 639.711 288.362 639.32 296.175 638.93Z" fill="url(#paint25_linear)"/>
<path d="M230.787 556.651C225.371 560.377 225.371 568.449 225.371 568.449C225.371 568.449 234.398 568.449 238.009 564.723C241.62 560.998 241.018 551.683 241.018 551.683C241.018 551.683 236.203 552.925 230.787 556.651Z" fill="url(#paint26_linear)"/>
<path d="M295.655 627.461C291.359 630.345 291.359 636.595 291.359 636.595C291.359 636.595 298.519 636.595 301.382 633.711C304.246 630.826 303.769 623.615 303.769 623.615C303.769 623.615 299.95 624.576 295.655 627.461Z" fill="url(#paint27_linear)"/>
<path d="M278.712 622.885C275.048 627.723 277.444 634.611 277.444 634.611C277.444 634.611 285.391 631.847 287.465 627.562C289.539 623.278 286.245 615.514 286.245 615.514C286.245 615.514 282.375 618.048 278.712 622.885Z" fill="url(#paint28_linear)"/>
<path d="M171.857 156.985V655H117.857L123 -55.4445L108 -109.193L112.714 -119.529L123 -90.5878V-134H168V120.463L186 90.1438V104.615L171.857 156.985Z" fill="url(#paint29_linear)"/>
<path d="M294.857 156.247V653H240.857L246 -55.6437L231 -109.256L235.714 -119.566L246 -90.6978V-134H291V119.818L309 89.5757V104.01L294.857 156.247Z" fill="url(#paint30_linear)"/>
<path d="M1667.15 381.319V670H1579.92L1588.23 279.583L1564 225.971L1571.62 215.661L1588.23 244.529V-117H1660.92V344.89L1690 314.647V329.081L1667.15 381.319Z" fill="url(#paint31_linear)"/>
<path d="M399.038 957.02C418.972 956.023 432.926 1001.87 432.926 1001.87L-197 1004.86C-197 1004.86 -186.036 949.046 -158.128 949.046C-130.22 949.046 -130.22 904.195 -115.269 900.207C-100.318 896.219 -97.3282 853.36 -67.4266 836.417C-37.5251 819.473 -36.5284 764.654 -10.6137 744.719C15.301 724.784 98.0286 707.839 129.924 724.784C161.819 741.728 183.746 778.607 207.668 787.578C231.589 796.549 216.638 787.578 271.458 796.549C326.277 805.519 306.343 913.164 330.264 936.089C354.185 959.014 379.103 958.016 399.038 957.02Z" fill="#160851"/>
<path d="M232.207 747.075C218.387 756.581 218.387 777.18 218.387 777.18C218.387 777.18 241.42 777.18 250.634 767.673C259.847 758.166 258.312 734.399 258.312 734.399C258.312 734.399 246.027 737.568 232.207 747.075Z" fill="#160851"/>
<path d="M397.715 927.758C386.754 935.118 386.754 951.065 386.754 951.065C386.754 951.065 405.022 951.065 412.329 943.705C419.636 936.345 418.418 917.945 418.418 917.945C418.418 917.945 408.675 920.398 397.715 927.758Z" fill="#160851"/>
<path d="M354.48 916.08C345.133 928.423 351.245 945.999 351.245 945.999C351.245 945.999 371.525 938.947 376.816 928.014C382.107 917.081 373.703 897.271 373.703 897.271C373.703 897.271 363.827 903.736 354.48 916.08Z" fill="#160851"/>
<path d="M1412.12 968.111C1396.47 967.328 1358.9 1003.33 1385.51 1003.33C1412.12 1003.33 1531.88 1010.17 1632.85 1004.51C1733.82 998.847 1869.16 1029 1880.18 1005.68C1891.2 982.366 1871.57 961.849 1849.66 961.849C1827.74 961.849 1827.74 926.627 1816 923.496C1804.26 920.364 1801.91 886.708 1778.43 873.402C1754.95 860.097 1754.17 817.047 1733.82 801.393C1713.46 785.738 1648.5 772.432 1623.45 785.738C1598.41 799.044 1581.19 828.005 1562.4 835.049C1543.62 842.094 1555.36 835.049 1512.31 842.094C1469.26 849.139 1484.91 933.671 1466.13 951.674C1447.34 969.677 1427.77 968.893 1412.12 968.111Z" fill="#160851"/>
<path d="M1448.94 924.927C1459.79 932.393 1459.79 948.568 1459.79 948.568C1459.79 948.568 1441.7 948.568 1434.47 941.103C1427.23 933.637 1428.44 914.973 1428.44 914.973C1428.44 914.973 1438.09 917.462 1448.94 924.927Z" fill="#160851"/>
<path d="M1609.98 774.861C1618.59 780.641 1618.59 793.164 1618.59 793.164C1618.59 793.164 1604.24 793.164 1598.5 787.384C1592.76 781.604 1593.72 767.154 1593.72 767.154C1593.72 767.154 1601.37 769.081 1609.98 774.861Z" fill="#160851"/>
<path d="M1643.93 765.69C1651.27 775.383 1646.47 789.185 1646.47 789.185C1646.47 789.185 1630.55 783.647 1626.39 775.062C1622.24 766.476 1628.84 750.919 1628.84 750.919C1628.84 750.919 1636.59 755.996 1643.93 765.69Z" fill="#160851"/>
<path d="M258.082 622.882V1004H143.852L154.731 68.4463L123 -2.33275L132.973 -15.9441L154.731 22.1677V-35H249.923V574.789L288 534.862V553.918L258.082 622.882Z" fill="#160851"/>
<path opacity="0.46" d="M964.103 514.659C964.103 547.732 917.546 575.905 923.671 620.003C929.796 664.1 921.221 669 888.14 669C855.059 669 834.845 664.1 844.646 642.664C854.447 621.228 880.789 550.794 876.501 514.659C872.212 478.523 797.475 468.724 782.772 416.052C768.07 363.379 681.693 292.946 733.764 229.862C785.835 166.778 704.973 149.629 730.701 73.6829C756.43 -2.26288 648 -9 648 -9H1173C1173 -9 1049.87 38.7724 1032.71 89.607C1015.56 140.442 1007.6 205.363 1007.6 253.135C1007.6 300.908 896.104 368.279 888.14 404.415C880.176 440.55 964.103 481.585 964.103 514.659Z" fill="url(#paint32_linear)"/>
<path d="M-68.489 425.17V1004H105.28L88.7308 -416.889L137 -524.386L121.83 -545.059L88.7308 -487.176V-574H-56.0769V352.128L-114 291.488V320.43L-68.489 425.17Z" fill="#160851"/>
<g filter="url(#filter1_d)">
<path d="M835.272 656.898C834.134 671.408 848.359 679.09 848.359 679.09C848.359 679.09 864.773 683.065 879.568 683.634C894.363 684.203 909.815 681.651 909.815 681.651C909.815 681.651 921.544 689.902 929.446 661.45C937.348 632.999 924.48 627.721 918.285 633.412C912.091 639.102 902.352 631.568 905.831 623.041C909.31 614.514 910.51 614.373 914.184 607.718C919.589 602.881 917.447 589.256 912.959 588.127C911.735 595.394 905.831 598.857 900.995 597.15C896.158 595.443 894.451 588.899 897.58 584.632C900.71 580.364 902.986 580.699 904.978 578.423C906.969 576.147 904.124 576.096 897.58 575.812C891.037 575.527 879.372 582.071 877.664 593.167C875.957 604.263 879.087 621.334 872.828 621.049C866.568 620.765 867.655 610.699 864.594 610.699C861.047 613.829 865.715 627.024 861.447 632.999C857.179 638.974 836.41 642.388 835.272 656.898Z" fill="url(#paint33_linear)"/>
</g>
<path d="M927.048 699.39C934.597 699.637 942.827 695.546 942.827 695.546C942.827 695.546 938.602 676.221 927.832 675.433C917.063 674.644 913.712 694.593 913.712 694.593C913.712 694.593 919.5 699.143 927.048 699.39Z" fill="url(#paint34_linear)"/>
<path d="M848.556 702C837.667 702 826 695.82 826 695.82C826 695.82 833 668.628 848.556 668.01C864.111 667.392 868 695.82 868 695.82C868 695.82 859.444 702 848.556 702Z" fill="url(#paint35_linear)"/>
<path d="M890.019 703C879.389 703 868 697.365 868 697.365C868 697.365 874.833 672.573 890.019 672.009C905.204 671.446 909 697.365 909 697.365C909 697.365 900.648 703 890.019 703Z" fill="url(#paint36_linear)"/>
<path d="M1436.27 713.777V1010H1567.12L1554.65 81.0533L1591 0.279984L1579.58 -15.2533L1554.65 28.24V-37H1445.62V658.893L1402 613.329V635.075L1436.27 713.777Z" fill="#160851"/>
<path d="M1661.87 507.335V1003H1837.03L1820.35 -334.863L1869 -442.378L1853.71 -463.054L1820.35 -405.161V-492H1674.38V434.28L1616 373.631V402.577L1661.87 507.335Z" fill="#160851"/>
<path d="M964.01 769.115C961.017 772.962 951.293 772.962 952.041 769.115C952.789 765.267 959.521 767.576 960.269 763.728C961.017 759.881 954.285 709.098 964.01 699.095C968.889 694.077 963.369 706.907 962.514 725.257C961.664 743.479 965.5 767.198 964.01 769.115Z" fill="#7863A1"/>
<path d="M0 879C0 879 441.47 1027.55 889.19 1027.55C1336.91 1027.55 1744 879 1744 879V1051H0V879Z" fill="white"/>
<path d="M662.276 540.084C664.065 540.767 665.844 540.962 666.852 540.906L665.627 542.131C663.239 542.095 662.276 540.084 662.276 540.084Z" fill="#271377"/>
<path d="M665.386 535.38C666.936 536.367 668.24 536.61 671.459 536.334C671.459 536.334 669.405 537.508 667.641 537.439C665.876 537.37 665.386 535.38 665.386 535.38Z" fill="#271377"/>
<path d="M1186.3 502.297C1181.28 503.452 1175 509.803 1175 509.803H1190.69C1195.08 509.803 1203.24 515 1207.64 515C1212.03 515 1209.52 511.536 1206.38 507.494C1203.24 503.452 1191.32 501.142 1186.3 502.297Z" fill="#271377"/>
<path d="M1062 736.421L1058.96 718L972 745.018L1014.57 753L1062 736.421Z" fill="#160851"/>
<path d="M707 743.526L710.277 723L804 753.105L758.122 762L707 743.526Z" fill="#160851"/>
<path opacity="0.8" d="M1363.97 712.943C1368.26 733.759 1168.67 720.902 1168.67 720.902L1137.45 659.068C1137.45 659.068 1359.69 692.128 1363.97 712.943Z" fill="#3C1C80"/>
<path d="M1106.92 636.963L1123.29 667.598L1168.42 669.574L1130.23 605.339L1173.88 542.587H1128.74L1041.96 667.598L1084.11 669.574L1106.92 636.963Z" fill="#160851"/>
<path d="M1173.26 541.971L1222.57 561.697L1229.36 566.629L1209.63 595.602L1157.23 566.012L1173.26 541.971Z" fill="#6D549E"/>
<path d="M1088.81 602.383L1113.47 633.822L1170.18 623.958L1144.29 593.753H1088.81V602.383Z" fill="#6D549E"/>
<path d="M1139.35 680.054L1159.7 718.274L1215.79 720.739L1168.33 640.602L1222.57 562.313H1166.48L1058.6 718.274L1111 720.739L1139.35 680.054Z" fill="#160851"/>
<path d="M1168.32 563.546H1217.64L1220.72 561.697H1166.48L1057.98 717.041H1061.68L1168.32 563.546Z" fill="#6D549E"/>
<path d="M1130.17 543.467H1170.15L1172.64 541.97H1128.67L1040.73 667.725H1043.72L1130.17 543.467Z" fill="#6D549E"/>
<path d="M1130.49 506.624C1130.49 506.624 1099.37 506.156 1093.68 493.909C1087.98 481.661 1109.83 479.423 1123.82 485.212C1137.82 491 1130.49 506.624 1130.49 506.624Z" fill="#271377"/>
<path d="M1066.22 588.966C1073.34 580.812 1118.12 577.641 1118.12 577.641L1141.53 599.838L1118.12 623.395C1118.12 623.395 1089.62 608.898 1085.55 611.617C1081.48 614.335 1083.52 673.227 1083.52 673.227H1068.25C1068.25 673.227 1059.09 597.12 1066.22 588.966Z" fill="#271377"/>
<path d="M1154.82 580.202L1135.48 596.609C1135.48 596.609 1093.69 600.851 1091.66 607.193C1089.62 613.535 1094.41 671.197 1094.41 671.197L1111.39 649.193C1111.39 649.193 1114.05 642.039 1115.07 632.073C1116.09 622.106 1136.73 621.023 1149.31 607.03C1161.89 593.037 1154.82 580.202 1154.82 580.202Z" fill="#271377"/>
<path d="M1123.27 537.618L1128.35 535.806L1141.59 574.766L1126.26 595.831L1111 590.395L1123.27 537.618Z" fill="#271377"/>
<path d="M1104.89 569.556C1115.27 554.027 1114.86 516.442 1114.86 516.442L1110.66 515.443C1110.66 515.443 1098.58 555.251 1091.66 562.308C1087.4 566.645 1073.65 579.488 1066.16 584.455C1064.07 590.751 1063.28 587.844 1068.2 590.798C1073.11 593.751 1094.51 585.085 1104.89 569.556Z" fill="#271377"/>
<path d="M1095.79 493.842C1095.79 493.842 1091.27 493.259 1093.3 502.319C1075.4 501.655 1073.44 495.434 1078.38 491.693C1083.33 487.952 1115.82 493.801 1116.97 496.31C1118.12 498.818 1095.79 493.842 1095.79 493.842Z" fill="#271377"/>
<path d="M1159.91 579.297C1157.23 556.646 1132.43 525.84 1132.43 525.84L1125.24 529.691C1125.24 529.691 1137.51 565.706 1136.5 577.485C1135.87 584.724 1115.42 602.775 1112.07 612.82C1109.97 619.118 1120.21 622.786 1124.28 620.068C1128.35 617.35 1162.58 601.948 1159.91 579.297Z" fill="#271377"/>
<path d="M1112.68 495.855L1093.42 491.589C1093.42 491.589 1095.38 486.625 1100.47 483.746C1105.56 480.866 1117.77 481.028 1112.68 482.84C1107.59 484.652 1112.68 495.855 1112.68 495.855Z" fill="#403F8F"/>
<path d="M1128.16 519.511C1128.16 516.792 1131.19 503.585 1131.19 503.585L1119.75 497.883L1095.86 496.204C1095.86 496.204 1117.87 500.122 1106.55 519.153C1104.95 521.036 1102.25 524.413 1101.28 526.826C1107.4 534.173 1099.91 547.64 1102.97 542.744C1107.13 536.072 1124.09 535.814 1128.16 543.968C1130.38 548.406 1128.04 530.329 1132.33 531.467C1135.91 532.42 1157.3 571.518 1149.3 547.699C1141.31 523.879 1128.16 522.229 1128.16 519.511Z" fill="#271377"/>
<path d="M1069.83 590.498C1075.84 585.15 1097.67 584.023 1097.67 584.023C1097.67 584.023 1074.36 581.147 1067.35 587.386C1060.34 593.626 1064.36 650.888 1065.86 650.888C1067.35 650.888 1063.81 595.846 1069.83 590.498Z" fill="url(#paint37_linear)"/>
<path d="M1096.78 558.662C1101.7 553.987 1107.29 542.304 1107.29 542.304L1107.1 534.786C1107.1 534.786 1098.92 551.051 1093.91 556.787C1088.9 562.523 1068.82 580.588 1069.83 582.371C1070.83 584.154 1091.86 563.338 1096.78 558.662Z" fill="url(#paint38_linear)"/>
<path d="M1097.63 508.279C1097.76 509.006 1094.66 518.598 1094.85 519.292C1095.47 521.538 1098.89 519.636 1100.11 520.944C1103.55 524.65 1103.51 526.827 1107.29 525.602C1111.07 524.378 1112.22 522.153 1113.21 518.068C1113.9 515.192 1116.27 512.85 1115.57 508.83C1114.96 505.278 1116.34 504.206 1113.58 503.179C1099.97 500.976 1093.3 501.672 1097.63 508.279Z" fill="url(#paint39_linear)"/>
<path d="M1080.64 496.637C1075.99 502.232 1092.27 504.348 1092.81 502.632C1094.7 496.637 1116.1 501.165 1116.68 500.583C1117.27 500.002 1085.3 491.041 1080.64 496.637Z" fill="url(#paint40_linear)"/>
<path d="M1105.67 580.09C1101.54 576.487 1107.96 578.232 1108.42 568.458C1108.68 562.999 1106.3 552.627 1107.04 547.642C1107.7 543.298 1105.61 536.243 1107.1 534.786C1109.11 533.561 1109.79 536.14 1113.92 535.398C1118.05 534.656 1119.18 529.276 1121.42 528.664C1123.66 528.051 1125.09 543.357 1120.11 559.887C1115.13 576.417 1121.83 573.555 1126.47 573.112C1131.1 572.669 1121.96 580.09 1115.85 581.574C1109.74 583.058 1109.8 583.693 1105.67 580.09Z" fill="url(#paint41_linear)"/>
<path d="M1093.76 608.043C1099.78 602.695 1120.11 602.13 1121.49 599.069C1122.86 596.008 1097.76 598.614 1090.75 604.853C1083.74 611.093 1089.87 674.444 1092.88 674.444C1095.88 674.444 1087.74 613.391 1093.76 608.043Z" fill="url(#paint42_linear)"/>
<path d="M1140.74 575.805C1141.24 571.798 1142.29 564.956 1140.21 554.989C1138.12 545 1132.91 535.562 1131.91 533.778C1129.9 530.212 1127.27 530.375 1127.27 532.886C1127.27 535.398 1137.62 562.993 1136.62 574.58C1136 581.702 1107.04 590.498 1111.62 593.625C1111.62 593.625 1139.74 583.827 1140.74 575.805Z" fill="url(#paint43_linear)"/>
<path d="M1121.85 501.68C1119.9 501.811 1118.6 503.911 1118.6 503.911L1119.18 512.842C1119.18 512.842 1119.93 514.271 1121.42 514.171C1122.91 514.07 1124.52 510.054 1124.71 506.519C1124.9 502.984 1123.8 501.549 1121.85 501.68Z" fill="url(#paint44_linear)"/>
<path d="M1100.06 521.316C1098.5 522.098 1101.28 525.602 1102.51 524.377C1103.73 523.153 1106.53 522.428 1108.63 521.928C1111.37 521.279 1113.53 524.502 1114.75 519.479C1115.07 518.202 1118.43 510.908 1115.37 510.908C1110.47 518.867 1101.62 520.535 1100.06 521.316Z" fill="#271377"/>
<path d="M1101.28 518.869C1099.89 520.023 1099.27 520.396 1096.02 520.728C1096.02 520.728 1098.92 522.308 1100.67 521.93C1102.41 521.552 1101.28 518.869 1101.28 518.869Z" fill="#271377"/>
<path d="M1170.45 567.074H1220.65L1224.32 562.788H1167.49L1077.45 691.967H1080.45L1170.45 567.074Z" fill="#6D549E"/>
<path d="M904.805 649.271L954.214 652.922" stroke="#160851" stroke-width="2"/>
<path d="M1037.7 755.414C1065.62 755.414 1065.62 720.518 1065.62 720.518C1065.62 720.518 981.867 687.367 971.398 700.453C960.929 713.539 975.819 771.714 975.819 771.714C975.819 771.714 960.697 774.714 964.187 785.183C967.676 795.651 1003.29 799.952 1007.65 795.59C1012.02 791.228 999.267 750.01 1002.76 744.776C1006.25 739.542 1009.78 755.414 1037.7 755.414Z" fill="#160851"/>
<path d="M1027.22 628.044C1059.5 628.777 1065.61 721.391 1065.61 721.391C1065.61 721.391 983.954 699.58 986.222 696.963C1007.16 656.834 994.946 627.311 1027.22 628.044Z" fill="#160851"/>
<path d="M942.141 654.167C942.14 648.857 1020.86 636.522 1020.86 636.522L1007.88 662.479C1007.88 662.479 942.141 659.476 942.141 654.167Z" fill="#160851"/>
<path d="M989.365 617.801C985.192 603.49 996.019 588.017 996.019 588.017L1002.95 586.825L1018.67 630.406C1018.67 630.406 1002.09 644.373 1008.12 629.939C1008.12 622.946 993.537 632.113 989.365 617.801Z" fill="url(#paint45_linear)"/>
<path d="M1008.87 634.578C1008.87 634.578 943.635 651.108 942.89 652.945C942.144 654.781 944.304 653.557 947.654 653.557C951.004 653.557 1005.52 643.149 1005.52 643.149L1008.87 634.578Z" fill="url(#paint46_linear)"/>
<path d="M989.36 703.543C991.513 710.483 985.62 704.829 983.301 700.969C980.983 697.11 1005.26 635.504 1008.12 629.939C1008.29 629.61 1022.3 629.68 1013.11 637.027C1009.44 638.864 987.599 697.863 989.36 703.543Z" fill="url(#paint47_linear)"/>
<path d="M1040.68 609.373C1040.68 630.904 1051.69 628.455 1051.69 628.455C1051.69 628.455 1049.85 681.718 1000.37 659.066C1008.83 649.883 1008.22 638.251 1011.89 629.067C1015.57 619.884 1002.74 617.229 1002.81 614.271C1002.89 611.313 1005.26 611.137 1006.38 606.94C1007.51 602.742 1005.16 600.905 1002.81 601.705C1000.47 602.505 997.58 606.94 995.835 606.94C994.091 606.94 993.218 590.364 995.835 586.875C998.452 583.385 999.325 575.534 1016.77 577.278C1034.22 579.023 1040.68 587.842 1040.68 609.373Z" fill="#160851"/>
<path d="M1096.68 748.4L1159.68 663.965L1190.31 678.839L1125.12 772.025L1096.68 748.4Z" fill="#6D549E"/>
<path d="M1174.12 801.336L1149.19 724.776L1130.81 730.025L1149.19 789.087L1174.12 801.336Z" fill="#160851"/>
<path d="M940.941 756.275L958.004 779.025V772.462L1156.62 715.588L1123.38 704.214L940.941 756.275Z" fill="#6D549E"/>
<path d="M1167.99 747.089L967.184 809.65L974.621 839.837L1178.05 774.213L1167.99 747.089Z" fill="#6D549E"/>
<path d="M957.566 755.837L930.879 819.711L938.316 817.523L962.378 761.087L957.566 755.837Z" fill="#160851"/>
<path d="M913.375 798.711L930.875 819.711L957.999 755.837L960.187 729.588L944.874 715.151L913.375 798.711Z" fill="#6D549E"/>
<path d="M966.308 737.463L959.746 730.463L957.559 755.4L963.246 761.525L1196.87 699.839L1199.49 676.214L966.308 737.463Z" fill="#160851"/>
<path d="M954.062 712.964L945.312 715.151L965.875 736.588L1199.49 676.214L1170.62 663.965H1159.68L1181.12 674.902L968.937 728.276L954.062 712.964Z" fill="#6D549E"/>
<path d="M976.812 864.774L954.937 778.588L945.312 799.587L958.875 853.836L976.812 864.774Z" fill="#160851"/>
<path d="M983.374 861.272L962.375 776.836L954.938 778.149L976.812 864.335L983.374 861.272Z" fill="#6D549E"/>
<path d="M1180.68 797.836L1156.62 723.9L1149.18 725.213L1174.12 800.899L1180.68 797.836Z" fill="#6D549E"/>
<path d="M1156.62 715.151L958.438 772.025V779.462L1159.25 723.9L1156.62 715.151Z" fill="#160851"/>
<path d="M970.246 838.96L974.621 840.273L967.184 809.649L1167.99 747.525H1160.99L962.809 808.774L970.246 838.96Z" fill="#160851"/>
<path d="M890.727 648.757V645.696C890.727 645.696 886.441 645.084 886.441 646.92C886.441 648.757 890.727 648.757 890.727 648.757Z" fill="#7863A1"/>
<g opacity="0.5">
<path d="M1250.31 838.447L1186.64 796.204L1176.23 800.058L1195.21 815.183L1019.51 883.139L1004.81 877.017L987.67 862.324L1026.24 930.892L1250.31 838.447Z" fill="#3C1C80"/>
<path d="M998.689 917.423C977.045 914.975 912.762 799.877 912.762 799.877L931.128 819.719L939.699 816.407C939.699 816.407 945.812 824.944 956.607 839.671C957.769 841.257 957.46 850.852 958.678 852.528C960.439 854.95 968.458 858.63 970.311 861.099C991.81 889.746 1011.42 918.864 998.689 917.423Z" fill="#3C1C80"/>
<path d="M1062.36 994.563C1038.48 994.563 971.228 862.324 971.228 862.324L987.547 865.997C987.547 865.997 1086.24 994.563 1062.36 994.563Z" fill="#3C1C80"/>
<path d="M1320.11 880.69L1250.31 837.222L1231.33 844.138L1243.58 854.977L1047.05 940.076L1032.36 924.158L1027.46 930.28L1066.65 997.012L1320.11 880.69Z" fill="#3C1C80"/>
<path d="M1145.01 925.995L1097.26 894.159C1097.26 894.159 1011.33 829.264 1041.33 818.856C1071.33 808.448 1179.91 861.099 1179.91 861.099L1260.11 941.3C1260.11 941.3 1295.62 962.728 1282.15 976.197C1268.68 989.666 1215.42 955.993 1215.42 955.993L1145.01 925.995Z" fill="#3C1C80"/>
</g>
<path d="M905.733 642.486L904.341 655.193L891.343 654.374L892.63 640.966L905.733 642.486Z" fill="#7863A1"/>
<ellipse cx="891.989" cy="647.668" rx="6.73443" ry="2.44888" transform="rotate(95.4821 891.989 647.668)" fill="#7863A1"/>
<ellipse cx="904.911" cy="648.89" rx="6.41228" ry="1.96546" transform="rotate(95.4821 904.911 648.89)" fill="#160851"/>
<path opacity="0.8" d="M627.469 723.961C627.469 723.961 383.193 734.981 378.907 714.165C377.188 705.814 422.195 692.56 462.781 686.615C523.353 677.743 595.701 668.861 595.701 668.861L627.469 723.961Z" fill="#3C1C80"/>
<path d="M646.448 641.944L630.081 672.581L584.948 674.558L623.138 610.318L579.492 547.561H624.625L711.42 672.581L669.263 674.558L646.448 641.944Z" fill="#160851"/>
<path d="M580.112 546.946L530.793 566.673L524.012 571.605L543.739 600.58L596.141 570.989L580.112 546.946Z" fill="#6D549E"/>
<path d="M664.575 607.362L639.916 638.802L583.199 628.939L609.092 598.731H664.575V607.362Z" fill="#6D549E"/>
<path d="M585.042 568.523H535.723L532.641 566.673H586.891L695.393 722.028H691.694L585.042 568.523Z" fill="#6D549E"/>
<path d="M623.207 548.442H583.229L580.73 546.945H624.706L712.658 672.708H709.66L623.207 548.442Z" fill="#6D549E"/>
<path d="M597.211 589.552L615.977 599.429C615.977 599.429 656.527 621.405 658.502 628.319C660.478 635.233 654.497 706.1 654.497 706.1L633.755 709.063C633.755 709.063 636.773 656.962 635.785 646.098C634.798 635.233 595.235 629.06 591.284 619.183C587.334 609.306 597.211 589.552 597.211 589.552Z" fill="#271377"/>
<path d="M627.825 543.132L622.887 541.156L610.047 583.627L624.917 606.591L639.733 600.665L627.825 543.132Z" fill="#271377"/>
<path d="M646.703 569.747C636.63 552.818 635.983 520.045 635.983 520.045L640.06 518.956C640.06 518.956 654.689 555.191 661.414 562.884C665.547 567.612 702.543 557.469 709.811 562.884C711.841 569.747 703.985 570.089 699.216 573.309C694.448 576.529 656.775 586.676 646.703 569.747Z" fill="#271377"/>
<path d="M661.949 529.513C663.924 523.587 672.408 506.634 666.525 494.213C666.525 502.115 659.452 515.476 659.452 515.476C659.452 515.476 637.4 531.808 642.338 530.821C647.277 529.833 645.07 549.778 652.797 549.778C660.524 549.778 659.974 535.439 661.949 529.513Z" fill="#160851"/>
<path d="M683.195 599.105C676.281 590.216 643.687 593.75 643.687 593.75L610.105 610.957L632.822 636.637C632.822 636.637 660.478 620.834 664.429 623.797C668.379 626.761 666.404 690.96 666.404 690.96H681.219C681.219 690.96 690.109 607.994 683.195 599.105Z" fill="#271377"/>
<path d="M592.278 588.565C594.877 563.873 618.945 530.291 618.945 530.291L625.914 534.489C625.914 534.489 614.007 573.749 614.995 586.59C615.602 594.481 635.446 614.16 638.699 625.11C640.739 631.975 630.798 635.974 626.847 633.011C622.896 630.048 589.678 613.257 592.278 588.565Z" fill="#271377"/>
<path d="M679.241 603.056C673.305 597.13 635.783 598.688 634.795 594.738C633.807 590.787 679.231 591.204 686.145 598.118C693.059 605.032 685.159 660.342 682.194 660.342C679.23 660.343 685.177 608.982 679.241 603.056Z" fill="url(#paint48_linear)"/>
<path d="M654.547 561.156C649.699 555.975 639.105 525.536 639.105 525.536L643.651 525.074C643.651 525.074 653.474 550.014 660.199 557.707C664.332 562.435 709.806 560.969 709.806 562.564C709.806 564.158 659.396 566.337 654.547 561.156Z" fill="url(#paint49_linear)"/>
<path d="M665.101 510.614C664.289 515.856 672.409 522.975 665.101 522.975C662.602 522.975 664.489 526.651 661.295 528.205C657.895 529.86 660.641 536.049 648.413 531.942C640.866 530.774 628.131 521.318 629.801 510.537C631.47 499.755 641.662 495.722 654.458 492.9C668.487 494.213 669.714 502.948 665.101 510.614Z" fill="url(#paint50_linear)"/>
<path d="M646.591 596.466C648.566 593.503 650.542 549.057 647.579 544.118C644.616 539.18 625.849 528.315 625.849 537.205C625.849 546.094 623.874 562.885 622.886 567.823C621.899 572.761 619.978 588.811 619.978 588.811C619.978 588.811 625.904 602.639 630.843 602.639C635.781 602.639 644.616 599.429 646.591 596.466Z" fill="url(#paint51_linear)"/>
<path d="M653.591 628.874C647.655 622.948 626.892 609.553 625.905 605.602C624.917 601.651 649.648 618.426 656.562 625.34C663.476 632.254 661.494 697.025 658.529 697.025C655.565 697.025 659.527 634.8 653.591 628.874Z" fill="url(#paint52_linear)"/>
<path d="M607.085 586.589C606.097 577.7 613.997 545.106 615.973 541.155C617.948 537.204 622.887 538.192 621.899 540.168C620.912 542.143 613.994 573.749 614.981 586.589C615.588 594.481 643.651 620.826 638.686 625.109C638.686 625.109 608.073 595.478 607.085 586.589Z" fill="url(#paint53_linear)"/>
<path d="M645.604 548.07C645.604 539.181 635.841 518.921 643.797 502.13C649.007 491.135 631.307 500.143 621.955 514.735C617.025 522.427 613.039 532.843 613.039 535.23C613.039 542.144 630.789 543.131 632.764 548.07C634.74 553.008 631.777 569.799 634.74 569.799C637.703 569.799 645.604 556.959 645.604 548.07Z" fill="#271377"/>
<path d="M615.989 510.828C614.014 515.767 618.952 522.681 623.891 522.681C628.829 522.681 630.812 521.693 643.652 510.828C656.492 499.964 668.495 504.173 668.495 504.173C668.495 504.173 668.493 488.15 656.484 485.148C644.476 482.146 644.632 485.148 635.743 491.075C626.854 497.001 617.964 505.89 615.989 510.828Z" fill="#160851"/>
<path d="M705.754 565.469L796.501 548.108" stroke="#160851" stroke-width="2"/>
<path d="M614.005 685.161L593.802 723.267L538.09 725.725L585.231 645.827L531.355 567.772H587.068L694.206 723.267L642.167 725.725L614.005 685.161Z" fill="#160851"/>
<path d="M584.614 571.518H534.412L530.738 567.232H587.571L677.609 696.411H674.61L584.614 571.518Z" fill="#6D549E"/>
<path d="M800.431 538.931L803.436 552.833L789.429 556.545L786.066 541.94L800.431 538.931Z" fill="url(#paint54_linear)"/>
<path d="M789.429 556.545C787.962 556.882 786.021 553.887 785.092 549.854C784.163 545.821 784.599 542.278 786.066 541.94C787.532 541.603 789.474 544.598 790.403 548.631C791.331 552.664 790.895 556.207 789.429 556.545Z" fill="url(#paint55_linear)"/>
<ellipse cx="801.825" cy="545.981" rx="7.13472" ry="2.18691" transform="rotate(77.0328 801.825 545.981)" fill="#602C76"/>
<path d="M824.103 533.367L827.183 547.253L813.196 551.039L809.754 536.454L824.103 533.367Z" fill="url(#paint56_linear)"/>
<path d="M813.196 551.039C811.731 551.385 809.773 548.4 808.823 544.372C807.873 540.344 808.29 536.799 809.754 536.454C811.219 536.108 813.177 539.093 814.127 543.121C815.077 547.149 814.66 550.694 813.196 551.039Z" fill="url(#paint57_linear)"/>
<ellipse cx="825.537" cy="540.407" rx="7.13472" ry="2.18691" transform="rotate(76.7246 825.537 540.407)" fill="url(#paint58_linear)"/>
<path d="M802.687 545.626C802.151 545.759 801.824 546.301 801.957 546.838C802.09 547.374 802.632 547.701 803.168 547.568L802.687 545.626ZM808.309 546.295L809.279 546.055L808.799 544.113L807.828 544.354L808.309 546.295ZM803.168 547.568L808.309 546.295L807.828 544.354L802.687 545.626L803.168 547.568Z" fill="#160851"/>
<path d="M827.314 540.231L832.455 538.958" stroke="#160851" stroke-width="2" stroke-linecap="round"/>
<path d="M646.444 503.561C655.35 497.154 663.586 500.983 664.198 499.275C664.811 497.568 662.391 492.544 658.702 490.303C655.013 488.062 651.906 488.868 649.849 490.822C647.791 492.776 645.54 494.358 643.212 497.829C640.883 501.301 637.539 509.968 646.444 503.561Z" fill="#403F8F"/>
<g opacity="0.7">
<path d="M701.552 897.83L653.799 929.666L583.393 959.665C583.393 959.665 530.13 993.337 516.661 979.868C503.192 966.399 538.701 944.971 538.701 944.971L618.902 864.77C618.902 864.77 746.244 818.242 757.264 823.752C759.021 824.63 757.697 826.67 754.228 829.478C761.637 827.136 767.165 826.54 769.509 828.649C781.753 839.669 701.552 897.83 701.552 897.83Z" fill="#3C1C80"/>
<path d="M548.496 842.118L612.167 799.875L622.575 803.729L603.596 818.854L779.304 886.81L793.997 880.688L811.139 865.995L772.569 934.564L548.496 842.118Z" fill="#3C1C80"/>
<path d="M800.12 921.095C811.05 918.492 853.416 853.415 864.403 832.935C866.34 829.325 881.545 802.324 881.545 802.324L862.566 823.139L854.608 820.69C854.608 820.69 787.263 924.156 800.12 921.095Z" fill="#3C1C80"/>
<path d="M736.449 998.235C760.326 998.235 836.363 852.526 836.363 852.526L811.262 869.668C811.262 869.668 712.572 998.235 736.449 998.235Z" fill="#3C1C80"/>
<path d="M478.703 884.361L548.496 840.894L567.475 847.809L555.231 858.648L751.754 943.747L766.447 927.829L771.345 933.951L732.163 1000.68L478.703 884.361Z" fill="#3C1C80"/>
</g>
<path d="M739.718 768.298C711.662 768.297 711.662 733.228 711.662 733.228C711.662 733.228 795.83 699.911 806.351 713.062C816.872 726.214 810.735 787.586 810.735 787.586C810.735 787.586 828.27 783.202 824.763 793.723C821.256 804.244 796.707 808.628 792.323 804.244C787.939 799.86 798.46 749.886 794.953 744.625C791.446 739.365 767.774 768.298 739.718 768.298Z" fill="#160851"/>
<path d="M750.242 640.291C717.802 641.028 711.665 734.103 711.665 734.103C711.665 734.103 793.729 712.184 791.449 709.554C770.408 669.225 782.682 639.554 750.242 640.291Z" fill="#160851"/>
<path d="M766.213 644.351C766.213 634.582 783.03 645.299 787.142 631.01C788.272 627.08 787.142 623.059 791.084 621.068C794.602 619.291 790.085 615.022 788.323 608.862C786.697 603.172 785.419 594.168 780.521 594.168C775.623 594.168 774.929 598.858 774.929 598.858L759.434 642.373C759.434 642.373 766.213 647.358 766.213 644.351Z" fill="url(#paint59_linear)"/>
<path d="M810.52 787.018C814.193 789.467 817.254 787.018 822.764 787.018C828.274 787.018 812.525 787.278 811.744 783.345C810.964 779.411 814.193 720.409 807.966 714.13C801.739 707.851 809.177 716.34 809.526 740.878C810.413 759.508 806.847 784.569 810.52 787.018Z" fill="url(#paint60_linear)"/>
<path d="M787.834 716.34C785.713 723.344 791.521 717.637 793.805 713.742C796.09 709.846 769.482 647.592 767.511 647.972C765.539 648.351 789.955 709.335 787.834 716.34Z" fill="url(#paint61_linear)"/>
<path d="M772.051 645.624C772.051 645.624 774.706 643.633 768.069 635.669C761.432 627.705 738.867 620.405 732.894 627.705C726.921 635.005 726.921 668.189 732.894 670.844C738.867 673.498 768.732 655.579 774.042 652.925C779.352 650.27 772.051 645.624 772.051 645.624Z" fill="#160851"/>
<path d="M743.476 629.301C744.353 640.698 750.619 643.567 750.619 643.567C750.619 643.567 756.592 653.211 756.592 643.567C756.592 633.922 775.916 631.596 774.162 628.966C772.408 626.336 771.532 623.164 771.532 620.533C771.532 617.903 771.532 615.273 774.162 615.273C776.793 615.273 776.077 620.533 777.83 620.533C779.583 620.533 783.806 603.875 781.176 600.368C779.574 598.232 785.637 588.046 781.177 585.827C778.313 584.403 766.99 590.038 760.134 590.724C742.599 592.477 742.599 617.903 743.476 629.301Z" fill="#160851"/>
<path d="M697.84 752.073L634.841 667.637L604.217 682.512L669.403 775.698L697.84 752.073Z" fill="#6D549E"/>
<path d="M620.395 805.01L645.332 728.449L663.707 733.699L645.332 792.76L620.395 805.01Z" fill="#160851"/>
<path d="M853.578 759.949L836.516 782.698V776.136L637.895 719.262L671.144 707.887L853.578 759.949Z" fill="#6D549E"/>
<path d="M626.527 750.762L827.336 813.324L819.899 843.511L616.465 777.887L626.527 750.762Z" fill="#6D549E"/>
<path d="M836.954 759.511L863.641 823.384L856.203 821.197L832.141 764.761L836.954 759.511Z" fill="#160851"/>
<path d="M881.145 802.385L863.645 823.385L836.52 759.511L834.333 733.261L849.645 718.824L881.145 802.385Z" fill="#6D549E"/>
<path d="M828.211 741.136L834.773 734.136L836.961 759.073L831.274 765.198L597.653 703.511L595.028 679.887L828.211 741.136Z" fill="#160851"/>
<path d="M840.457 716.637L849.207 718.825L828.645 740.262L595.025 679.888L623.899 667.638H634.836L613.399 678.576L825.582 731.95L840.457 716.637Z" fill="#6D549E"/>
<path d="M817.708 868.447L839.582 782.262L849.207 803.261L835.645 857.51L817.708 868.447Z" fill="#160851"/>
<path d="M811.145 864.946L832.145 780.51L839.582 781.823L817.707 868.008L811.145 864.946Z" fill="#6D549E"/>
<path d="M613.84 801.51L637.902 727.574L645.34 728.887L620.403 804.573L613.84 801.51Z" fill="#6D549E"/>
<path d="M637.898 718.824L836.082 775.698V783.136L635.273 727.574L637.898 718.824Z" fill="#160851"/>
<path d="M824.274 842.633L819.899 843.945L827.336 813.321L626.527 751.197H633.527L831.711 812.446L824.274 842.633Z" fill="#160851"/>
<path d="M492.854 732.569C488.85 731.801 483.981 734.148 483.981 734.148C483.981 734.148 448.066 739.903 453.214 744.379C458.362 748.854 499.423 737.109 499.423 737.109C499.423 737.109 496.857 733.336 492.854 732.569Z" fill="#3C1C80"/>
<path d="M493.865 737.795C489.821 737.297 485.864 733.563 485.864 733.563C485.864 733.563 490.12 719.798 495.935 720.19C501.749 720.581 501.462 735.484 501.462 735.484C501.462 735.484 497.909 738.293 493.865 737.795Z" fill="url(#paint62_linear)"/>
<path d="M0 747C0 747 339.327 978.403 881 978.403C1422.67 978.403 1762 747 1762 747V844.866C1762 844.866 1458.09 1028 881 1028C303.909 1028 0 844.866 0 844.866V747Z" fill="#160851"/>
</g>
<defs>
<filter id="filter0_d" x="723.109" y="557.623" width="333.467" height="180.137" filterUnits="userSpaceOnUse" color-interpolation-filters="sRGB">
<feFlood flood-opacity="0" result="BackgroundImageFix"/>
<feColorMatrix in="SourceAlpha" type="matrix" values="0 0 0 0 0 0 0 0 0 0 0 0 0 0 0 0 0 0 127 0"/>
<feOffset dy="-23"/>
<feGaussianBlur stdDeviation="37"/>
<feColorMatrix type="matrix" values="0 0 0 0 1 0 0 0 0 0.52549 0 0 0 0 0.247059 0 0 0 0.3 0"/>
<feBlend mode="normal" in2="BackgroundImageFix" result="effect1_dropShadow"/>
<feBlend mode="normal" in="SourceGraphic" in2="effect1_dropShadow" result="shape"/>
</filter>
<filter id="filter1_d" x="761.207" y="478.803" width="244.731" height="255.914" filterUnits="userSpaceOnUse" color-interpolation-filters="sRGB">
<feFlood flood-opacity="0" result="BackgroundImageFix"/>
<feColorMatrix in="SourceAlpha" type="matrix" values="0 0 0 0 0 0 0 0 0 0 0 0 0 0 0 0 0 0 127 0"/>
<feOffset dy="-23"/>
<feGaussianBlur stdDeviation="37"/>
<feColorMatrix type="matrix" values="0 0 0 0 1 0 0 0 0 0.52549 0 0 0 0 0.247059 0 0 0 0.3 0"/>
<feBlend mode="normal" in2="BackgroundImageFix" result="effect1_dropShadow"/>
<feBlend mode="normal" in="SourceGraphic" in2="effect1_dropShadow" result="shape"/>
</filter>
<linearGradient id="paint0_linear" x1="879.153" y1="-37.1056" x2="879.153" y2="612.163" gradientUnits="userSpaceOnUse">
<stop offset="0.046875" stop-color="#342546"/>
<stop offset="0.989583" stop-color="#361184"/>
</linearGradient>
<linearGradient id="paint1_linear" x1="135.303" y1="244.847" x2="135.303" y2="376.426" gradientUnits="userSpaceOnUse">
<stop stop-color="#344B7C"/>
<stop offset="1" stop-color="#485F8F" stop-opacity="0.31"/>
</linearGradient>
<linearGradient id="paint2_linear" x1="1223.22" y1="30.5644" x2="1223.22" y2="103.246" gradientUnits="userSpaceOnUse">
<stop stop-color="#344B7C"/>
<stop offset="1" stop-color="#485F8F" stop-opacity="0.31"/>
</linearGradient>
<linearGradient id="paint3_linear" x1="1381.79" y1="358.743" x2="1381.79" y2="425.298" gradientUnits="userSpaceOnUse">
<stop stop-color="#344B7C"/>
<stop offset="1" stop-color="#485F8F" stop-opacity="0.31"/>
</linearGradient>
<linearGradient id="paint4_linear" x1="968.53" y1="672.164" x2="987.23" y2="639.922" gradientUnits="userSpaceOnUse">
<stop stop-color="#FFCC5C"/>
<stop offset="0.447917" stop-color="#434A77"/>
<stop offset="1" stop-color="#092043"/>
</linearGradient>
<linearGradient id="paint5_linear" x1="972.842" y1="660.896" x2="995.711" y2="672.37" gradientUnits="userSpaceOnUse">
<stop stop-color="#FFCC5C"/>
<stop offset="0.447917" stop-color="#434A77"/>
<stop offset="1" stop-color="#092043"/>
</linearGradient>
<linearGradient id="paint6_linear" x1="927.585" y1="664.935" x2="939.944" y2="633.13" gradientUnits="userSpaceOnUse">
<stop stop-color="#FF863F"/>
<stop offset="0.447917" stop-color="#434A77"/>
<stop offset="1" stop-color="#092043"/>
</linearGradient>
<linearGradient id="paint7_linear" x1="837.514" y1="658.38" x2="832.034" y2="638.663" gradientUnits="userSpaceOnUse">
<stop stop-color="#FF863F"/>
<stop offset="0.447917" stop-color="#434A77"/>
<stop offset="1" stop-color="#092043"/>
</linearGradient>
<linearGradient id="paint8_linear" x1="871.189" y1="660.258" x2="878.327" y2="619.977" gradientUnits="userSpaceOnUse">
<stop stop-color="#FF863F"/>
<stop offset="0.447917" stop-color="#434A77"/>
<stop offset="1" stop-color="#092043"/>
</linearGradient>
<radialGradient id="paint9_radial" cx="0" cy="0" r="1" gradientUnits="userSpaceOnUse" gradientTransform="translate(811.801 662.14) rotate(-108.041) scale(27.6763 51.9887)">
<stop stop-color="#FF863F"/>
<stop offset="0.447917" stop-color="#434A77"/>
<stop offset="1" stop-color="#092043"/>
</radialGradient>
<linearGradient id="paint10_linear" x1="886.487" y1="643.342" x2="886.487" y2="713.517" gradientUnits="userSpaceOnUse">
<stop stop-color="#342547"/>
<stop offset="1" stop-color="#0F1B31"/>
</linearGradient>
<radialGradient id="paint11_radial" cx="0" cy="0" r="1" gradientUnits="userSpaceOnUse" gradientTransform="translate(883.384 670.913) rotate(-113.474) scale(12.2957 73.1843)">
<stop offset="0.0625" stop-color="#FFE7AE"/>
<stop offset="0.619792" stop-color="#FDCA5C"/>
<stop offset="1" stop-color="#FE863E"/>
</radialGradient>
<linearGradient id="paint12_linear" x1="1220.06" y1="749.04" x2="1230.71" y2="758.389" gradientUnits="userSpaceOnUse">
<stop stop-color="#9A7627"/>
<stop offset="0.447917" stop-color="#434A77"/>
<stop offset="1" stop-color="#092043"/>
</linearGradient>
<linearGradient id="paint13_linear" x1="724.49" y1="729.204" x2="719.558" y2="733.533" gradientUnits="userSpaceOnUse">
<stop stop-color="#FFCC5C"/>
<stop offset="0.447917" stop-color="#434A77"/>
<stop offset="1" stop-color="#092043"/>
</linearGradient>
<linearGradient id="paint14_linear" x1="796.47" y1="662.148" x2="773.602" y2="673.623" gradientUnits="userSpaceOnUse">
<stop stop-color="#FFCC5C"/>
<stop offset="0.447917" stop-color="#434A77"/>
<stop offset="1" stop-color="#092043"/>
</linearGradient>
<linearGradient id="paint15_linear" x1="427.141" y1="685.568" x2="422.19" y2="689.874" gradientUnits="userSpaceOnUse">
<stop stop-color="#9A7627"/>
<stop offset="0.447917" stop-color="#434A77"/>
<stop offset="1" stop-color="#092043"/>
</linearGradient>
<linearGradient id="paint16_linear" x1="889.288" y1="750.232" x2="891.089" y2="762.59" gradientUnits="userSpaceOnUse">
<stop stop-color="#7B5D1B"/>
<stop offset="0.447917" stop-color="#434A77"/>
<stop offset="1" stop-color="#092043"/>
</linearGradient>
<linearGradient id="paint17_linear" x1="1380.05" y1="695.092" x2="1385.01" y2="699.398" gradientUnits="userSpaceOnUse">
<stop stop-color="#9A7627"/>
<stop offset="0.447917" stop-color="#434A77"/>
<stop offset="1" stop-color="#092043"/>
</linearGradient>
<linearGradient id="paint18_linear" x1="806.904" y1="671.537" x2="784.036" y2="683.012" gradientUnits="userSpaceOnUse">
<stop stop-color="#FFCC5C"/>
<stop offset="0.447917" stop-color="#434A77"/>
<stop offset="1" stop-color="#092043"/>
</linearGradient>
<linearGradient id="paint19_linear" x1="824.659" y1="670.91" x2="812.052" y2="689.452" gradientUnits="userSpaceOnUse">
<stop stop-color="#FFCC5C"/>
<stop offset="0.447917" stop-color="#434A77"/>
<stop offset="1" stop-color="#092043"/>
</linearGradient>
<linearGradient id="paint20_linear" x1="982.028" y1="669.287" x2="998.54" y2="672.296" gradientUnits="userSpaceOnUse">
<stop stop-color="#FFCC5C"/>
<stop offset="0.447917" stop-color="#434A77"/>
<stop offset="1" stop-color="#092043"/>
</linearGradient>
<linearGradient id="paint21_linear" x1="946.485" y1="674.044" x2="968.5" y2="691.169" gradientUnits="userSpaceOnUse">
<stop stop-color="#FFCC5C"/>
<stop offset="0.447917" stop-color="#434A77"/>
<stop offset="1" stop-color="#092043"/>
</linearGradient>
<linearGradient id="paint22_linear" x1="63" y1="-0.845093" x2="63" y2="657" gradientUnits="userSpaceOnUse">
<stop stop-color="#00132D"/>
<stop offset="1" stop-color="#361184"/>
</linearGradient>
<linearGradient id="paint23_linear" x1="1373" y1="12.1549" x2="1373" y2="670" gradientUnits="userSpaceOnUse">
<stop stop-color="#00132D"/>
<stop offset="1" stop-color="#361184"/>
</linearGradient>
<linearGradient id="paint24_linear" x1="369" y1="11.1549" x2="369" y2="669" gradientUnits="userSpaceOnUse">
<stop stop-color="#00132D"/>
<stop offset="1" stop-color="#361184"/>
</linearGradient>
<linearGradient id="paint25_linear" x1="186.021" y1="563.654" x2="186.021" y2="657.679" gradientUnits="userSpaceOnUse">
<stop stop-color="#1F125F"/>
<stop offset="1" stop-color="#361184"/>
</linearGradient>
<linearGradient id="paint26_linear" x1="233.213" y1="554.435" x2="233.213" y2="568.449" gradientUnits="userSpaceOnUse">
<stop stop-color="#1F125F"/>
<stop offset="1" stop-color="#361184"/>
</linearGradient>
<linearGradient id="paint27_linear" x1="297.579" y1="625.745" x2="297.579" y2="636.595" gradientUnits="userSpaceOnUse">
<stop stop-color="#1F125F"/>
<stop offset="1" stop-color="#361184"/>
</linearGradient>
<linearGradient id="paint28_linear" x1="280.19" y1="620.251" x2="284.348" y2="632.21" gradientUnits="userSpaceOnUse">
<stop stop-color="#1F125F"/>
<stop offset="1" stop-color="#361184"/>
</linearGradient>
<linearGradient id="paint29_linear" x1="147" y1="-4.51687" x2="147" y2="655" gradientUnits="userSpaceOnUse">
<stop stop-color="#00132D"/>
<stop offset="1" stop-color="#361184"/>
</linearGradient>
<linearGradient id="paint30_linear" x1="270" y1="-4.84509" x2="270" y2="653" gradientUnits="userSpaceOnUse">
<stop stop-color="#00132D"/>
<stop offset="1" stop-color="#361184"/>
</linearGradient>
<linearGradient id="paint31_linear" x1="1627" y1="12.1549" x2="1627" y2="670" gradientUnits="userSpaceOnUse">
<stop stop-color="#00132D"/>
<stop offset="1" stop-color="#361184"/>
</linearGradient>
<linearGradient id="paint32_linear" x1="888.753" y1="72.458" x2="890.59" y2="669" gradientUnits="userSpaceOnUse">
<stop stop-color="#FED16F" stop-opacity="0.05"/>
<stop offset="1" stop-color="#FF873F" stop-opacity="0.33"/>
</linearGradient>
<linearGradient id="paint33_linear" x1="883.574" y1="684.258" x2="879.28" y2="616.047" gradientUnits="userSpaceOnUse">
<stop offset="0.0625" stop-color="#FFE7AE"/>
<stop offset="0.307292" stop-color="#FDCA5C"/>
<stop offset="0.541667" stop-color="#FA9142"/>
<stop offset="0.984375" stop-color="#EC5440"/>
</linearGradient>
<linearGradient id="paint34_linear" x1="922.14" y1="671.311" x2="927.519" y2="693.212" gradientUnits="userSpaceOnUse">
<stop stop-color="#FFCC5C"/>
<stop offset="0.447917" stop-color="#434A77"/>
<stop offset="1" stop-color="#092043"/>
</linearGradient>
<linearGradient id="paint35_linear" x1="857.8" y1="664.357" x2="850.32" y2="690.293" gradientUnits="userSpaceOnUse">
<stop stop-color="#FFCC5C"/>
<stop offset="0.447917" stop-color="#434A77"/>
<stop offset="1" stop-color="#092043"/>
</linearGradient>
<linearGradient id="paint36_linear" x1="901.641" y1="664" x2="901.72" y2="691.98" gradientUnits="userSpaceOnUse">
<stop stop-color="#FFCC5C"/>
<stop offset="0.447917" stop-color="#434A77"/>
<stop offset="1" stop-color="#092043"/>
</linearGradient>
<linearGradient id="paint37_linear" x1="955.981" y1="657.26" x2="1092.75" y2="487.182" gradientUnits="userSpaceOnUse">
<stop stop-color="#86651B"/>
<stop offset="1" stop-color="#7863A1"/>
</linearGradient>
<linearGradient id="paint38_linear" x1="955.981" y1="657.26" x2="1092.75" y2="487.182" gradientUnits="userSpaceOnUse">
<stop stop-color="#86651B"/>
<stop offset="1" stop-color="#7863A1"/>
</linearGradient>
<linearGradient id="paint39_linear" x1="955.981" y1="657.26" x2="1092.75" y2="487.182" gradientUnits="userSpaceOnUse">
<stop stop-color="#86651B"/>
<stop offset="1" stop-color="#7863A1"/>
</linearGradient>
<linearGradient id="paint40_linear" x1="955.981" y1="657.26" x2="1092.75" y2="487.182" gradientUnits="userSpaceOnUse">
<stop stop-color="#86651B"/>
<stop offset="1" stop-color="#7863A1"/>
</linearGradient>
<linearGradient id="paint41_linear" x1="955.981" y1="657.26" x2="1092.75" y2="487.182" gradientUnits="userSpaceOnUse">
<stop stop-color="#86651B"/>
<stop offset="1" stop-color="#7863A1"/>
</linearGradient>
<linearGradient id="paint42_linear" x1="955.981" y1="657.26" x2="1092.75" y2="487.182" gradientUnits="userSpaceOnUse">
<stop stop-color="#86651B"/>
<stop offset="1" stop-color="#7863A1"/>
</linearGradient>
<linearGradient id="paint43_linear" x1="955.981" y1="657.26" x2="1092.75" y2="487.182" gradientUnits="userSpaceOnUse">
<stop stop-color="#86651B"/>
<stop offset="1" stop-color="#7863A1"/>
</linearGradient>
<linearGradient id="paint44_linear" x1="955.981" y1="657.26" x2="1092.75" y2="487.182" gradientUnits="userSpaceOnUse">
<stop stop-color="#86651B"/>
<stop offset="1" stop-color="#7863A1"/>
</linearGradient>
<linearGradient id="paint45_linear" x1="1003.98" y1="593.559" x2="916.431" y2="673.148" gradientUnits="userSpaceOnUse">
<stop stop-color="#6C5795"/>
<stop offset="1" stop-color="#9E895A"/>
</linearGradient>
<linearGradient id="paint46_linear" x1="1003.98" y1="593.559" x2="916.431" y2="673.148" gradientUnits="userSpaceOnUse">
<stop stop-color="#6C5795"/>
<stop offset="1" stop-color="#9E895A"/>
</linearGradient>
<linearGradient id="paint47_linear" x1="1003.98" y1="593.559" x2="916.431" y2="673.148" gradientUnits="userSpaceOnUse">
<stop stop-color="#6C5795"/>
<stop offset="1" stop-color="#9E895A"/>
</linearGradient>
<linearGradient id="paint48_linear" x1="648.286" y1="472.336" x2="806.851" y2="649.881" gradientUnits="userSpaceOnUse">
<stop stop-color="#7E63B1"/>
<stop offset="1" stop-color="#846112"/>
</linearGradient>
<linearGradient id="paint49_linear" x1="648.286" y1="472.336" x2="806.851" y2="649.881" gradientUnits="userSpaceOnUse">
<stop stop-color="#7E63B1"/>
<stop offset="1" stop-color="#846112"/>
</linearGradient>
<linearGradient id="paint50_linear" x1="648.286" y1="472.336" x2="806.851" y2="649.881" gradientUnits="userSpaceOnUse">
<stop stop-color="#7E63B1"/>
<stop offset="1" stop-color="#846112"/>
</linearGradient>
<linearGradient id="paint51_linear" x1="648.286" y1="472.336" x2="806.851" y2="649.881" gradientUnits="userSpaceOnUse">
<stop stop-color="#7E63B1"/>
<stop offset="1" stop-color="#846112"/>
</linearGradient>
<linearGradient id="paint52_linear" x1="648.286" y1="472.336" x2="806.851" y2="649.881" gradientUnits="userSpaceOnUse">
<stop stop-color="#7E63B1"/>
<stop offset="1" stop-color="#846112"/>
</linearGradient>
<linearGradient id="paint53_linear" x1="648.286" y1="472.336" x2="806.851" y2="649.881" gradientUnits="userSpaceOnUse">
<stop stop-color="#7E63B1"/>
<stop offset="1" stop-color="#846112"/>
</linearGradient>
<linearGradient id="paint54_linear" x1="822.772" y1="569.903" x2="798.844" y2="537.034" gradientUnits="userSpaceOnUse">
<stop stop-color="#FFB20B"/>
<stop offset="1" stop-color="#351D98"/>
</linearGradient>
<linearGradient id="paint55_linear" x1="822.772" y1="569.903" x2="798.844" y2="537.034" gradientUnits="userSpaceOnUse">
<stop stop-color="#FFB20B"/>
<stop offset="1" stop-color="#351D98"/>
</linearGradient>
<linearGradient id="paint56_linear" x1="846.61" y1="564.218" x2="822.506" y2="531.479" gradientUnits="userSpaceOnUse">
<stop stop-color="#FFB20B"/>
<stop offset="1" stop-color="#351D98"/>
</linearGradient>
<linearGradient id="paint57_linear" x1="846.61" y1="564.218" x2="822.506" y2="531.479" gradientUnits="userSpaceOnUse">
<stop stop-color="#FFB20B"/>
<stop offset="1" stop-color="#351D98"/>
</linearGradient>
<linearGradient id="paint58_linear" x1="830.927" y1="539.349" x2="818.718" y2="540.668" gradientUnits="userSpaceOnUse">
<stop stop-color="#602C76"/>
<stop offset="1" stop-color="#5B2A73"/>
</linearGradient>
<linearGradient id="paint59_linear" x1="752.359" y1="608.862" x2="852.151" y2="670.084" gradientUnits="userSpaceOnUse">
<stop stop-color="#7863A1"/>
<stop offset="1" stop-color="#B79B5C" stop-opacity="0.98"/>
</linearGradient>
<linearGradient id="paint60_linear" x1="752.359" y1="608.862" x2="852.151" y2="670.084" gradientUnits="userSpaceOnUse">
<stop stop-color="#7863A1"/>
<stop offset="1" stop-color="#B79B5C" stop-opacity="0.98"/>
</linearGradient>
<linearGradient id="paint61_linear" x1="752.359" y1="608.862" x2="852.151" y2="670.084" gradientUnits="userSpaceOnUse">
<stop stop-color="#7863A1"/>
<stop offset="1" stop-color="#B79B5C" stop-opacity="0.98"/>
</linearGradient>
<linearGradient id="paint62_linear" x1="499.992" y1="725.56" x2="491.391" y2="731.06" gradientUnits="userSpaceOnUse">
<stop stop-color="#9A7627"/>
<stop offset="0.447917" stop-color="#434A77"/>
<stop offset="1" stop-color="#092043"/>
</linearGradient>
</defs>
</svg>
