<svg width="1440" height="912" viewBox="0 0 1440 912" fill="none" xmlns="http://www.w3.org/2000/svg">
<mask id="mask0" mask-type="alpha" maskUnits="userSpaceOnUse" x="0" y="0" width="1440" height="912">
<rect width="1440" height="912" fill="#C4C4C4"/>
</mask>
<g mask="url(#mask0)">
<mask id="mask1" mask-type="alpha" maskUnits="userSpaceOnUse" x="-7" y="-6" width="1457" height="840">
<rect x="-6.05859" y="-5.80518" width="1455.85" height="839.136" fill="#6D549E"/>
</mask>
<g mask="url(#mask1)">
<ellipse opacity="0.5" rx="1.55167" ry="1.51689" transform="matrix(0.0997338 -0.995014 0.994534 0.104411 1050.08 30.0427)" fill="white" fill-opacity="0.7"/>
<path opacity="0.4" d="M774.736 245.443H27.6016C27.6016 245.443 72.4434 205.417 120.045 205.417C167.646 205.417 225.596 224.953 264.919 224.953C304.241 224.953 388.406 136.8 456.704 136.8C525.001 136.8 573.982 204.464 602.957 204.464C631.932 204.464 642.28 188.739 667.805 192.551C693.331 196.363 774.736 245.443 774.736 245.443Z" fill="url(#paint0_linear)"/>
<path opacity="0.4" d="M1216.24 85.2493H803.754C803.754 85.2493 838.621 47.6191 864.902 47.6191C891.182 47.6191 913.066 64.6189 934.776 64.6189C956.486 64.6189 1002.95 14.8901 1040.66 14.8901C1078.37 14.8901 1105.41 62.6131 1121.41 62.6131C1137.4 62.6131 1143.12 53.9271 1157.21 56.0328C1171.3 58.1385 1216.24 85.2493 1216.24 85.2493Z" fill="url(#paint1_linear)"/>
<path opacity="0.4" d="M1345.66 351.164H936.203C936.203 351.164 958.882 317.085 982.956 317.085C1007.03 317.085 1011.76 329.168 1031.64 329.168C1051.53 329.168 1051.99 294.466 1086.54 294.466C1121.08 294.466 1113.36 313.009 1140.44 317.085C1167.52 321.162 1171.72 269.423 1198.92 269.423C1226.12 269.423 1225.92 298.134 1259.12 317.085C1323.41 285.743 1345.66 351.164 1345.66 351.164Z" fill="url(#paint2_linear)"/>
<ellipse opacity="0.5" cx="214.845" cy="537.927" rx="1.51651" ry="1.55204" fill="white"/>
<ellipse opacity="0.5" cx="391.774" cy="161.298" rx="1.51651" ry="1.55204" fill="white"/>
<ellipse opacity="0.5" cx="448.384" cy="41.2737" rx="1.51651" ry="1.55204" fill="white"/>
<ellipse opacity="0.5" rx="1.52454" ry="1.54415" transform="matrix(0.8763 0.481765 -0.464757 0.885438 79.2589 388.743)" fill="white"/>
<ellipse opacity="0.5" rx="1.52454" ry="1.54415" transform="matrix(0.8763 0.481765 -0.464757 0.885438 289.403 316.348)" fill="white"/>
<ellipse rx="2.56827" ry="2.54628" transform="matrix(0.55176 -0.834003 0.821948 0.569562 1240.67 371.136)" fill="white" fill-opacity="0.8"/>
<ellipse opacity="0.5" rx="1.54096" ry="1.52777" transform="matrix(0.55176 -0.834003 0.821948 0.569562 1190.34 150.08)" fill="white" fill-opacity="0.7"/>
<ellipse opacity="0.9" rx="2.5409" ry="2.57359" transform="matrix(0.8763 0.481765 -0.464757 0.885438 113.683 79.4379)" fill="white"/>
<ellipse opacity="0.5" rx="1.53106" ry="1.53769" transform="matrix(0.762932 -0.646478 0.628956 0.77744 665.475 263.416)" fill="white"/>
<ellipse rx="1.02071" ry="1.02513" transform="matrix(0.762932 -0.646478 0.628956 0.77744 546.029 149.028)" fill="white" fill-opacity="0.7"/>
<ellipse opacity="0.5" rx="1.53106" ry="1.53769" transform="matrix(0.762932 -0.646478 0.628956 0.77744 968.663 252.983)" fill="white"/>
<path d="M795.458 551.065C802.822 551.311 810.85 547.227 810.85 547.227C810.85 547.227 806.729 527.934 796.223 527.146C785.717 526.359 782.448 546.276 782.448 546.276C782.448 546.276 788.094 550.818 795.458 551.065Z" fill="url(#paint3_linear)"/>
<path d="M815.903 563.801C822.98 563.801 830.562 558.628 830.562 558.628C830.562 558.628 826.013 535.865 815.903 535.347C805.793 534.83 803.265 558.628 803.265 558.628C803.265 558.628 808.826 563.801 815.903 563.801Z" fill="url(#paint4_linear)"/>
<path d="M761.604 548.578C770.73 549.534 781.032 545.32 781.032 545.32C781.032 545.32 777.471 521.655 764.485 519.766C751.5 517.876 745.831 541.632 745.831 541.632C745.831 541.632 752.477 547.622 761.604 548.578Z" fill="url(#paint5_linear)"/>
<path d="M694.976 546.65C688.743 546.859 681.948 543.402 681.948 543.402C681.948 543.402 685.437 527.072 694.329 526.405C703.221 525.739 705.988 542.596 705.988 542.596C705.988 542.596 701.209 546.441 694.976 546.65Z" fill="url(#paint6_linear)"/>
<path d="M724.95 549.824C735.172 549.824 746.125 543.993 746.125 543.993C746.125 543.993 739.553 518.34 724.95 517.757C710.347 517.174 706.696 543.993 706.696 543.993C706.696 543.993 714.728 549.824 724.95 549.824Z" fill="url(#paint7_linear)"/>
<path d="M667.657 553.33C658.522 553.636 648.562 548.569 648.562 548.569C648.562 548.569 653.675 524.635 666.708 523.658C679.741 522.681 683.797 547.389 683.797 547.389C683.797 547.389 676.792 553.024 667.657 553.33Z" fill="url(#paint8_radial)"/>
<mask id="mask2" mask-type="alpha" maskUnits="userSpaceOnUse" x="-3" y="554" width="1457" height="232">
<rect x="-2.02344" y="554.999" width="1455.85" height="230.737" fill="#342152"/>
</mask>
<g mask="url(#mask2)">
<path opacity="0.8" d="M1062.57 570.799C1062.57 615.527 912.062 664.676 726.406 664.676C540.75 664.676 390.246 615.527 390.246 570.799C390.246 526.072 540.75 489.813 726.406 489.813C912.062 489.813 1062.57 526.072 1062.57 570.799Z" fill="#4D3188"/>
<path opacity="0.8" d="M953.375 567.161C953.375 590.45 851.53 618.115 725.899 618.115C600.267 618.115 498.422 590.45 498.422 567.161C498.422 543.872 600.267 524.992 725.899 524.992C851.53 524.992 953.375 543.872 953.375 567.161Z" fill="#583C91"/>
<ellipse cx="731.968" cy="560.172" rx="123.343" ry="28.9714" fill="url(#paint9_linear)" fill-opacity="0.89"/>
</g>
<g filter="url(#filter0_d)">
<path d="M658.637 553.987C655.099 558.309 672.907 561.644 672.907 561.644C672.907 561.644 702.07 566.288 728.356 566.953C754.642 567.618 782.096 564.636 782.096 564.636C782.096 564.636 815.849 558.974 810.794 553.987C805.738 549.001 782.096 542.352 732.947 540.689C683.798 539.027 662.176 549.666 658.637 553.987Z" fill="url(#paint10_radial)"/>
</g>
<path d="M889.9 602.916C894.551 602.76 899.65 606.274 899.65 606.274C899.65 606.274 908.743 609.232 917.488 612.769C926.986 616.61 907.261 609.233 903.839 611.388C901.403 612.923 922.587 622.963 913.949 620.016C899.285 615.014 881.715 606.875 881.715 606.875C881.715 606.875 885.25 603.072 889.9 602.916Z" fill="#3C1C80"/>
<path d="M719.856 429.525C722.356 427.243 724.912 427.783 726.216 429.279C727.52 430.775 726.151 433.461 723.719 433.607C721.288 433.753 719.206 437.142 717.902 435.646C716.598 434.15 717.356 431.808 719.856 429.525Z" fill="#FE863F"/>
<path d="M714.229 404.708C715.76 403.472 717.226 403.877 717.932 404.793C718.638 405.709 717.751 407.22 716.334 407.217C714.916 407.215 713.591 409.109 712.885 408.193C712.178 407.278 712.699 405.944 714.229 404.708Z" fill="#FE863F"/>
<path opacity="0.5" d="M709.895 352.84C710.62 350.988 712.089 350.593 713.147 351.027C714.205 351.461 714.171 353.223 712.94 353.944C711.71 354.664 711.482 356.982 710.424 356.548C709.367 356.114 709.169 354.692 709.895 352.84Z" fill="#FE863F"/>
<path d="M750.679 444.221C752.191 444.819 752.528 446.064 752.187 446.968C751.846 447.873 750.414 447.863 749.816 446.824C749.218 445.785 747.333 445.617 747.674 444.712C748.015 443.808 749.167 443.624 750.679 444.221Z" fill="#FE863F"/>
<ellipse cx="686.977" cy="407.555" rx="1.51651" ry="1.55204" fill="#ECBE5B"/>
<ellipse opacity="0.5" cx="735.505" cy="358.924" rx="1.51651" ry="1.55204" fill="#ECBE5B"/>
<ellipse cx="772.914" cy="406.519" rx="2.52752" ry="2.58673" fill="#ECBE5B"/>
<ellipse opacity="0.5" cx="744.602" cy="252.35" rx="1.51651" ry="1.55204" fill="#ECBE5B"/>
<ellipse opacity="0.5" cx="709.22" cy="231.657" rx="1.51651" ry="1.55204" fill="#ECBE5B"/>
<ellipse opacity="0.5" cx="774.935" cy="338.229" rx="1.51651" ry="1.55204" fill="#ECBE5B"/>
<path d="M887.879 608.637C892.529 608.793 895.607 605.279 895.607 605.279C895.607 605.279 895.349 599.719 893.729 595.351C892.276 591.431 892.317 604.957 889.18 604.678C886.403 604.431 886.523 589.408 885.136 592.764C883.21 597.424 881.715 605.713 881.715 605.713C881.715 605.713 883.229 608.481 887.879 608.637Z" fill="#2F365C"/>
<path d="M853.16 682.946C857.234 683.925 860.859 688.197 860.859 688.197C860.859 688.197 862.571 688.595 869.356 693.76C876.726 699.37 866.79 692.59 863.326 693.641C860.86 694.39 876.96 708.183 870.133 703.555C858.543 695.699 845.146 684.424 845.146 684.424C845.146 684.424 849.087 681.968 853.16 682.946Z" fill="#3C1C80"/>
<path d="M851.51 687.776C855.692 687.916 858.46 684.756 858.46 684.756C858.46 684.756 858.228 684.796 856.772 680.868C855.464 677.342 855.501 684.467 852.68 684.215C850.183 683.993 850.291 670.483 849.043 673.501C847.312 677.691 845.967 685.146 845.967 685.146C845.967 685.146 847.328 687.636 851.51 687.776Z" fill="#2F365C"/>
<path d="M589.277 669.612C585.351 670.639 581.919 674.847 581.919 674.847C581.919 674.847 575.016 679.583 568.541 684.717C561.509 690.292 576.257 679.215 579.63 680.167C582.032 680.844 566.697 694.513 573.223 689.899C584.301 682.066 597.065 670.887 597.065 670.887C597.065 670.887 593.204 668.586 589.277 669.612Z" fill="#3C1C80"/>
<path d="M593.358 672.818C589.307 672.954 586.626 669.893 586.626 669.893C586.626 669.893 586.851 665.05 588.261 661.245C589.528 657.83 589.492 669.613 592.224 669.37C594.643 669.154 594.539 656.068 595.747 658.992C597.424 663.051 598.727 670.271 598.727 670.271C598.727 670.271 597.408 672.682 593.358 672.818Z" fill="#2F365C"/>
<path d="M477.194 579.831C473.589 579.284 471.634 579.314 471.634 579.314C471.634 579.314 452.93 578.861 449.391 579.831C451.413 580.866 462.082 579.393 464.557 581.383C466.318 582.8 452.424 583.97 447.106 585.621C452.425 588.109 480.733 582.935 480.733 582.935C480.733 582.935 480.8 580.378 477.194 579.831Z" fill="#3C1C80"/>
<path d="M474.67 581.9C471.24 580.638 472.142 579.83 472.142 579.83C472.142 579.83 472.63 574.774 473.659 573.622C475.175 575.692 474.549 577.765 476.912 578.489C479.003 579.13 478.405 574.657 480.736 571.035C481.944 574.14 482.055 581.449 482.055 581.449C482.055 581.449 478.1 583.161 474.67 581.9Z" fill="#2F365C"/>
<path d="M1014.25 627.654C1018.9 627.499 1024 631.012 1024 631.012C1024 631.012 1051.44 638.196 1044.87 642.335C1038.3 646.473 1006.07 631.613 1006.07 631.613C1006.07 631.613 1009.6 627.81 1014.25 627.654Z" fill="#3C1C80"/>
<path d="M1012.24 633.375C1016.89 633.531 1021.99 630.017 1021.99 630.017C1021.99 630.017 1019.51 613.721 1012.88 613.131C1006.25 612.54 1004.05 629.416 1004.05 629.416C1004.05 629.416 1007.59 633.219 1012.24 633.375Z" fill="url(#paint11_linear)"/>
<path d="M594.061 605.485C590.819 605.377 587.263 607.827 587.263 607.827C587.263 607.827 562.335 618.48 564.254 619.689C566.173 620.897 599.768 608.246 599.768 608.246C599.768 608.246 597.303 605.594 594.061 605.485Z" fill="#3C1C80"/>
<path d="M595.964 608.995C593.81 609.067 591.449 607.44 591.449 607.44C591.449 607.44 592.593 599.894 595.664 599.62C598.734 599.347 599.754 607.162 599.754 607.162C599.754 607.162 598.117 608.923 595.964 608.995Z" fill="url(#paint12_linear)"/>
<path opacity="0.96" d="M716.805 575.669H750.168C750.168 575.669 746.63 590.062 734.497 592.071C722.365 594.079 716.805 575.669 716.805 575.669Z" fill="#0D1A31"/>
<path opacity="0.96" d="M754.215 573.676L773.821 569.485C773.821 569.485 785.407 583.734 781.842 585.83C778.277 587.925 754.215 573.676 754.215 573.676Z" fill="#0D1A31"/>
<path opacity="0.96" d="M790.606 573.188L806.22 564.311C806.22 564.311 830.594 574.186 822.216 580.289C813.837 586.392 790.606 573.188 790.606 573.188Z" fill="#0D1A31"/>
<path opacity="0.96" d="M803.747 557.687L820.875 553.963C820.875 553.963 858.177 554.429 855.132 556.756C852.087 559.083 803.747 557.687 803.747 557.687Z" fill="#0D1A31"/>
<path opacity="0.96" d="M657.155 563.791L640.027 559.137C640.027 559.137 602.725 559.718 605.77 562.627C608.816 565.536 657.155 563.791 657.155 563.791Z" fill="#0D1A31"/>
<path d="M645.003 564.835C637.926 564.835 630.344 559.662 630.344 559.662C630.344 559.662 634.893 536.899 645.003 536.381C655.113 535.864 657.641 559.662 657.641 559.662C657.641 559.662 652.08 564.835 645.003 564.835Z" fill="url(#paint13_linear)"/>
<path opacity="0.96" d="M805.775 565.965L822.903 562.241C822.903 562.241 860.204 562.707 857.159 565.034C854.114 567.361 805.775 565.965 805.775 565.965Z" fill="#0D1A31"/>
<path d="M348.223 568.838C345.235 567.548 341.057 568.53 341.057 568.53C341.057 568.53 314.054 569.331 315.422 571.163C316.79 572.995 350.307 575.175 353.596 572.474C356.884 569.774 351.212 570.129 348.223 568.838Z" fill="#3C1C80"/>
<path opacity="0.96" d="M713.771 574.576L688.185 570.519C688.185 570.519 676.44 587.197 686.507 589.902C696.574 592.606 713.771 574.576 713.771 574.576Z" fill="#0D1A31"/>
<path d="M350.418 572.955C348.265 573.017 345.91 571.379 345.91 571.379C345.91 571.379 347.088 563.838 350.16 563.579C353.232 563.32 354.217 571.14 354.217 571.14C354.217 571.14 352.572 572.893 350.418 572.955Z" fill="url(#paint14_linear)"/>
<path d="M733.847 629.092C738.497 628.936 741.214 631.356 741.214 631.356C741.214 631.356 737.675 658.775 733.847 658.775C730.018 658.775 724.027 631.356 724.027 631.356C724.027 631.356 729.197 629.247 733.847 629.092Z" fill="#3C1C80"/>
<path d="M731.967 634.812C736.617 634.968 741.717 631.454 741.717 631.454C741.717 631.454 739.246 620.332 732.615 619.741C725.984 619.151 723.781 630.853 723.781 630.853C723.781 630.853 727.317 634.657 731.967 634.812Z" fill="url(#paint15_linear)"/>
<path d="M1144.97 576.701C1147.96 575.41 1152.14 576.393 1152.14 576.393C1152.14 576.393 1179.14 577.194 1177.77 579.026C1176.41 580.858 1142.89 583.037 1139.6 580.337C1136.31 577.637 1141.98 577.992 1144.97 576.701Z" fill="#3C1C80"/>
<path d="M1141.77 580.819C1143.93 580.881 1146.28 579.243 1146.28 579.243C1146.28 579.243 1145.1 571.702 1142.03 571.443C1138.96 571.184 1137.97 579.004 1137.97 579.004C1137.97 579.004 1139.62 580.757 1141.77 580.819Z" fill="url(#paint16_linear)"/>
<path opacity="0.96" d="M684.462 571.555L659.686 566.898C659.686 566.898 646.037 578.797 650.081 581.384C654.125 583.971 684.462 571.555 684.462 571.555Z" fill="#0D1A31"/>
<path d="M1042.2 568.962C1045.81 568.415 1047.76 568.445 1047.76 568.445C1047.76 568.445 1066.47 567.992 1070.01 568.962C1067.99 569.997 1057.32 568.524 1054.84 570.514C1053.08 571.931 1066.97 573.101 1072.29 574.751C1066.97 577.24 1038.67 572.066 1038.67 572.066C1038.67 572.066 1038.6 569.509 1042.2 568.962Z" fill="#3C1C80"/>
<path d="M1044.73 571.032C1048.16 569.77 1047.26 568.962 1047.26 568.962C1047.26 568.962 1046.77 563.906 1045.74 562.754C1044.23 564.823 1044.85 566.897 1042.49 567.621C1040.4 568.262 1041 563.789 1038.67 560.167C1037.46 563.271 1037.35 570.581 1037.35 570.581C1037.35 570.581 1041.3 572.293 1044.73 571.032Z" fill="#2F365C"/>
<path opacity="0.96" d="M661.204 571.037L638.456 566.898C638.456 566.898 610.148 568.45 614.192 571.037C618.236 573.624 661.204 571.037 661.204 571.037Z" fill="#0D1A31"/>
<path d="M653.617 572.588C646.54 572.588 638.957 567.414 638.957 567.414C638.957 567.414 643.507 544.651 653.617 544.134C663.727 543.616 666.254 567.414 666.254 567.414C666.254 567.414 660.694 572.588 653.617 572.588Z" fill="url(#paint17_linear)"/>
<path d="M671.034 575.542C663.67 575.789 655.642 571.705 655.642 571.705C655.642 571.705 659.764 552.411 670.269 551.624C680.775 550.837 684.045 570.753 684.045 570.753C684.045 570.753 678.398 575.296 671.034 575.542Z" fill="url(#paint18_linear)"/>
<path d="M819.785 566.271C825.964 565.442 832.116 560.904 832.116 560.904C832.116 560.904 826.087 545.382 817.214 546.202C808.34 547.021 808.284 564.103 808.284 564.103C808.284 564.103 813.606 567.1 819.785 566.271Z" fill="url(#paint19_linear)"/>
<path d="M795.796 575.913C804.931 576.219 814.891 571.152 814.891 571.152C814.891 571.152 809.778 547.218 796.745 546.241C783.712 545.264 779.656 569.972 779.656 569.972C779.656 569.972 786.661 575.607 795.796 575.913Z" fill="url(#paint20_linear)"/>
</g>
<path d="M321.173 411.456V649.817H249.147L256.007 64.6979L236 20.4309L242.288 11.918L256.007 35.7541V0H316.028V381.377L340.037 356.406V368.324L321.173 411.456Z" fill="url(#paint21_linear)"/>
<path d="M1167.35 314.85V553.211H1094.18L1101.15 -31.9076L1080.82 -76.1746L1087.21 -84.6874L1101.15 -60.8514V-96.6055H1162.12V284.772L1186.51 259.8V271.718L1167.35 314.85Z" fill="url(#paint22_linear)"/>
<path d="M168.862 310.656V549.017H240.888L234.028 -36.1019L254.035 -80.3689L247.747 -88.8818L234.028 -65.0457V-100.8H174.007V280.577L149.998 255.606V267.524L168.862 310.656Z" fill="url(#paint23_linear)"/>
<path d="M159.527 161.063V572.268H114.94L119.186 -14.3379L106.801 -58.7174L110.693 -67.2519L119.186 -43.3552V-79.2002H156.342V130.907L171.204 105.873V117.821L159.527 161.063Z" fill="url(#paint24_linear)"/>
<path d="M1228.73 224.054V634.216H1184.14L1188.39 49.0978L1176 4.83081L1179.89 -3.68207L1188.39 20.154V-15.6001H1225.54V193.975L1240.4 169.004V180.922L1228.73 224.054Z" fill="url(#paint25_linear)"/>
<path d="M1307.97 310.656V549.017H1235.95L1242.81 226.654L1222.8 182.387L1229.09 173.875L1242.81 197.711V-100.8H1302.83V280.577L1326.84 255.606V267.524L1307.97 310.656Z" fill="url(#paint26_linear)"/>
<path d="M256.532 594.05C245.121 601.9 245.121 618.908 245.121 618.908C245.121 618.908 264.14 618.908 271.747 611.058C279.354 603.208 278.087 583.584 278.087 583.584C278.087 583.584 267.943 586.201 256.532 594.05Z" fill="#160851"/>
<path d="M393.187 743.239C384.137 749.316 384.137 762.483 384.137 762.483C384.137 762.483 399.22 762.483 405.254 756.406C411.287 750.329 410.282 735.136 410.282 735.136C410.282 735.136 402.237 737.161 393.187 743.239Z" fill="#160851"/>
<path d="M357.493 733.596C349.775 743.788 354.821 758.3 354.821 758.3C354.821 758.3 371.566 752.477 375.935 743.45C380.304 734.423 373.365 718.066 373.365 718.066C373.365 718.066 365.21 723.404 357.493 733.596Z" fill="#160851"/>
<path d="M110.597 363.252V858H-12.3568L-0.646935 85.4253L-34.8008 26.9764L-24.0667 15.7362L-0.646935 47.2087V0H101.815V323.537L142.799 290.566V306.302L110.597 363.252Z" fill="#160851"/>
<path opacity="0.46" d="M796.049 424.947C796.049 452.255 757.607 475.518 762.665 511.928C767.723 548.339 760.642 552.385 733.328 552.385C706.013 552.385 689.322 548.339 697.415 530.64C705.508 512.94 727.258 454.784 723.717 424.947C720.176 395.11 658.467 387.019 646.327 343.528C634.187 300.038 562.867 241.881 605.861 189.794C648.856 137.706 582.088 123.546 603.332 60.8387C624.576 -1.86888 535.047 -7.43164 535.047 -7.43164H968.533C968.533 -7.43164 866.864 32.0134 852.701 73.987C838.538 115.961 831.962 169.565 831.962 209.011C831.962 248.456 739.903 304.083 733.328 333.92C726.752 363.757 796.049 397.639 796.049 424.947Z" fill="url(#paint27_linear)"/>
<g filter="url(#filter1_d)">
<path d="M696.101 541.975C695.227 553.114 706.147 559.01 706.147 559.01C706.147 559.01 718.746 562.061 730.103 562.498C741.459 562.935 753.321 560.976 753.321 560.976C753.321 560.976 762.325 567.309 768.39 545.47C774.456 523.63 764.578 519.579 759.823 523.947C755.068 528.315 747.593 522.531 750.263 515.986C752.934 509.441 753.855 509.332 756.674 504.224C760.824 500.511 759.179 490.052 755.735 489.185C754.795 494.764 750.263 497.422 746.55 496.112C742.838 494.801 741.527 489.778 743.93 486.502C746.332 483.226 748.079 483.484 749.608 481.736C751.137 479.989 748.953 479.95 743.93 479.732C738.906 479.514 729.952 484.537 728.642 493.054C727.331 501.572 729.734 514.676 724.929 514.457C720.124 514.239 720.958 506.512 718.608 506.512C715.886 508.915 719.469 519.044 716.193 523.63C712.917 528.216 696.974 530.837 696.101 541.975Z" fill="url(#paint28_linear)"/>
</g>
<path d="M765.454 577.478C771.686 577.682 778.482 574.304 778.482 574.304C778.482 574.304 774.993 558.348 766.101 557.697C757.209 557.046 754.442 573.517 754.442 573.517C754.442 573.517 759.221 577.274 765.454 577.478Z" fill="url(#paint29_linear)"/>
<path d="M700.639 579.633C691.649 579.633 682.016 574.53 682.016 574.53C682.016 574.53 687.795 552.078 700.639 551.568C713.484 551.057 716.695 574.53 716.695 574.53C716.695 574.53 709.63 579.633 700.639 579.633Z" fill="url(#paint30_linear)"/>
<path d="M734.876 580.459C726.099 580.459 716.695 575.806 716.695 575.806C716.695 575.806 722.338 555.335 734.876 554.87C747.414 554.405 750.549 575.806 750.549 575.806C750.549 575.806 743.652 580.459 734.876 580.459Z" fill="url(#paint31_linear)"/>
<path d="M1342.3 603.108V847.696H1450.33L1440.04 80.6754L1470.05 13.9818L1460.62 1.15615L1440.04 37.0681V-16.7998H1350.01V557.791L1314 520.169V538.125L1342.3 603.108Z" fill="#160851"/>
<path d="M795.971 635.049C793.5 638.226 785.471 638.226 786.088 635.049C786.706 631.872 792.265 633.778 792.883 630.602C793.5 627.425 787.941 585.494 795.971 577.235C800 573.091 795.442 583.685 794.736 598.836C794.034 613.882 797.202 633.466 795.971 635.049Z" fill="#7863A1"/>
<path d="M546.836 445.941C548.312 446.504 549.781 446.666 550.613 446.62L549.602 447.631C547.63 447.601 546.836 445.941 546.836 445.941Z" fill="#271377"/>
<path d="M549.4 442.057C550.679 442.872 551.756 443.073 554.414 442.845C554.414 442.845 552.718 443.814 551.261 443.757C549.804 443.7 549.4 442.057 549.4 442.057Z" fill="#271377"/>
<path d="M908.328 409.245C904.182 410.199 899 415.443 899 415.443H911.956C915.584 415.443 922.321 419.734 925.948 419.734C929.576 419.734 927.503 416.873 924.912 413.536C922.321 410.199 912.474 408.292 908.328 409.245Z" fill="#271377"/>
<path d="M876.883 608.054L874.372 592.844L802.571 615.152L837.718 621.743L876.883 608.054Z" fill="#160851"/>
<path d="M583.762 613.921L586.468 596.973L663.853 621.83L625.972 629.174L583.762 613.921Z" fill="#160851"/>
<path opacity="0.8" d="M1126.22 588.668C1129.76 605.856 964.964 595.24 964.964 595.24L939.184 544.184C939.184 544.184 1122.68 571.481 1126.22 588.668Z" fill="#3C1C80"/>
<path d="M913.973 525.933L927.486 551.228L964.75 552.86L933.219 499.822L969.254 448.008H931.99L860.33 551.228L895.137 552.86L913.973 525.933Z" fill="#160851"/>
<path d="M968.748 447.5L1009.47 463.787L1015.07 467.859L998.779 491.782L955.515 467.35L968.748 447.5Z" fill="#6D549E"/>
<path d="M899.016 497.381L919.376 523.339L966.203 515.195L944.826 490.255H899.016V497.381Z" fill="#6D549E"/>
<path d="M940.755 561.512L957.552 593.07L1003.87 595.106L964.678 528.937L1009.47 464.295H963.151L874.077 593.07L917.342 595.106L940.755 561.512Z" fill="#160851"/>
<path d="M964.673 465.314H1005.39L1007.94 463.787H963.146L873.564 592.052H876.618L964.673 465.314Z" fill="#6D549E"/>
<path d="M933.172 448.735H966.179L968.242 447.499H931.934L859.318 551.332H861.794L933.172 448.735Z" fill="#6D549E"/>
<path d="M933.433 418.313C933.433 418.313 907.741 417.927 903.039 407.815C898.337 397.702 916.374 395.853 927.932 400.633C939.489 405.413 933.433 418.313 933.433 418.313Z" fill="#271377"/>
<path d="M880.367 486.302C886.25 479.569 923.226 476.951 923.226 476.951L942.555 495.279L923.226 514.73C923.226 514.73 899.696 502.759 896.334 505.004C892.973 507.249 894.653 555.875 894.653 555.875H882.048C882.048 555.875 874.485 493.035 880.367 486.302Z" fill="#271377"/>
<path d="M953.526 479.066L937.559 492.613C937.559 492.613 903.057 496.115 901.376 501.352C899.695 506.589 903.649 554.199 903.649 554.199L917.669 536.031C917.669 536.031 919.864 530.124 920.705 521.895C921.545 513.666 938.595 512.771 948.978 501.217C959.362 489.663 953.526 479.066 953.526 479.066Z" fill="#271377"/>
<path d="M927.475 443.905L931.677 442.409L942.602 474.578L929.949 491.971L917.344 487.482L927.475 443.905Z" fill="#271377"/>
<path d="M912.302 470.275C920.872 457.453 920.54 426.42 920.54 426.42L917.072 425.595C917.072 425.595 907.099 458.464 901.377 464.291C897.861 467.872 886.511 478.476 880.328 482.578C878.601 487.776 877.952 485.376 882.009 487.814C886.066 490.253 903.732 483.098 912.302 470.275Z" fill="#271377"/>
<path d="M904.785 407.759C904.785 407.759 901.054 407.278 902.735 414.759C887.95 414.211 886.331 409.074 890.414 405.985C894.497 402.896 921.328 407.725 922.276 409.797C923.225 411.868 904.785 407.759 904.785 407.759Z" fill="#271377"/>
<path d="M957.728 478.318C955.517 459.616 935.038 434.18 935.038 434.18L929.109 437.36C929.109 437.36 939.24 467.097 938.4 476.822C937.883 482.8 920.999 497.705 918.231 505.998C916.495 511.198 924.954 514.227 928.315 511.983C931.677 509.739 959.94 497.021 957.728 478.318Z" fill="#271377"/>
<path d="M918.735 409.421L902.828 405.899C902.828 405.899 904.449 401.801 908.651 399.423C912.852 397.045 922.937 397.179 918.735 398.675C914.533 400.171 918.735 409.421 918.735 409.421Z" fill="#403F8F"/>
<path d="M931.516 428.953C931.516 426.709 934.014 415.804 934.014 415.804L924.572 411.096L904.844 409.709C904.844 409.709 923.014 412.945 913.669 428.658C912.349 430.213 910.121 433.001 909.316 434.994C914.371 441.06 908.19 452.179 910.713 448.137C914.151 442.628 928.154 442.415 931.516 449.148C933.345 452.812 931.418 437.886 934.955 438.825C937.917 439.612 955.573 471.895 948.972 452.228C942.371 432.561 931.516 431.198 931.516 428.953Z" fill="#271377"/>
<path d="M883.345 487.567C888.315 483.151 906.334 482.221 906.334 482.221C906.334 482.221 887.09 479.846 881.302 484.998C875.513 490.15 878.832 537.43 880.067 537.43C881.301 537.43 878.375 491.983 883.345 487.567Z" fill="url(#paint32_linear)"/>
<path d="M905.602 461.281C909.661 457.42 914.28 447.774 914.28 447.774L914.12 441.566C914.12 441.566 907.365 454.997 903.231 459.733C899.097 464.469 882.518 479.385 883.345 480.857C884.172 482.329 901.542 465.141 905.602 461.281Z" fill="url(#paint33_linear)"/>
<path d="M906.303 419.68C906.408 420.28 903.853 428.2 904.009 428.773C904.515 430.627 907.344 429.057 908.347 430.137C911.187 433.197 911.157 434.995 914.28 433.984C917.403 432.973 918.351 431.135 919.163 427.762C919.735 425.388 921.696 423.454 921.118 420.135C920.608 417.202 921.752 416.317 919.472 415.469C908.233 413.65 902.727 414.224 906.303 419.68Z" fill="url(#paint34_linear)"/>
<path d="M892.278 410.067C888.435 414.687 901.873 416.434 902.321 415.017C903.884 410.067 921.555 413.806 922.035 413.326C922.516 412.845 896.12 405.447 892.278 410.067Z" fill="url(#paint35_linear)"/>
<path d="M912.94 478.973C909.53 475.998 914.829 477.439 915.211 469.369C915.424 464.861 913.457 456.298 914.075 452.182C914.614 448.595 912.893 442.769 914.12 441.566C915.779 440.555 916.347 442.684 919.754 442.072C923.161 441.459 924.096 437.017 925.944 436.511C927.792 436.006 928.978 448.643 924.864 462.292C920.751 475.94 926.287 473.578 930.113 473.212C933.94 472.846 926.394 478.973 921.348 480.199C916.303 481.424 916.349 481.949 912.94 478.973Z" fill="url(#paint36_linear)"/>
<path d="M903.106 502.053C908.076 497.638 924.864 497.171 926 494.644C927.136 492.116 906.408 494.268 900.619 499.42C894.83 504.572 899.897 556.88 902.379 556.88C904.861 556.88 898.137 506.469 903.106 502.053Z" fill="url(#paint37_linear)"/>
<path d="M941.9 475.435C942.313 472.127 943.177 466.477 941.459 458.248C939.737 450 935.432 442.207 934.604 440.734C932.95 437.79 930.777 437.924 930.777 439.998C930.777 442.072 939.32 464.856 938.493 474.424C937.985 480.304 914.075 487.567 917.858 490.149C917.858 490.149 941.073 482.059 941.9 475.435Z" fill="url(#paint38_linear)"/>
<path d="M926.3 414.231C924.688 414.339 923.62 416.073 923.62 416.073L924.096 423.448C924.096 423.448 924.712 424.627 925.944 424.545C927.176 424.462 928.508 421.146 928.665 418.227C928.823 415.308 927.911 414.123 926.3 414.231Z" fill="url(#paint39_linear)"/>
<path d="M908.315 430.444C907.026 431.089 909.326 433.983 910.337 432.972C911.348 431.961 913.656 431.362 915.392 430.95C917.651 430.413 919.436 433.075 920.447 428.928C920.704 427.872 923.48 421.851 920.953 421.851C916.909 428.422 909.605 429.799 908.315 430.444Z" fill="#271377"/>
<path d="M909.319 428.424C908.174 429.376 907.658 429.685 904.973 429.959C904.973 429.959 907.37 431.263 908.813 430.951C910.255 430.64 909.319 428.424 909.319 428.424Z" fill="#271377"/>
<path d="M966.426 468.226H1007.88L1010.91 464.687H963.984L889.641 571.348H892.117L966.426 468.226Z" fill="#6D549E"/>
<path d="M747.086 536.095L787.883 539.11" stroke="#160851" stroke-width="2"/>
<path d="M856.814 623.735C879.865 623.735 879.865 594.922 879.865 594.922C879.865 594.922 810.713 567.55 802.07 578.355C793.426 589.16 805.72 637.194 805.72 637.194C805.72 637.194 793.234 639.671 796.115 648.315C798.997 656.959 828.404 660.51 832.006 656.908C835.607 653.307 825.08 619.273 827.962 614.952C830.843 610.63 833.764 623.736 856.814 623.735Z" fill="#160851"/>
<path d="M848.167 518.568C874.82 519.173 879.862 595.643 879.862 595.643C879.862 595.643 812.439 577.634 814.312 575.474C831.599 542.339 821.515 517.962 848.167 518.568Z" fill="#160851"/>
<path d="M777.914 540.137C777.914 535.753 842.915 525.568 842.915 525.568L832.198 547.001C832.198 547.001 777.914 544.521 777.914 540.137Z" fill="#160851"/>
<path d="M816.906 510.11C813.461 498.294 822.4 485.518 822.4 485.518L828.119 484.534L841.102 520.519C841.102 520.519 827.416 532.051 832.389 520.132C832.389 514.358 820.351 521.927 816.906 510.11Z" fill="url(#paint40_linear)"/>
<path d="M833.014 523.963C833.014 523.963 779.148 537.612 778.532 539.128C777.916 540.645 779.699 539.634 782.466 539.634C785.232 539.634 830.249 531.04 830.249 531.04L833.014 523.963Z" fill="url(#paint41_linear)"/>
<path d="M816.902 580.907C818.679 586.637 813.814 581.968 811.899 578.782C809.985 575.595 830.028 524.728 832.389 520.132C832.528 519.861 844.097 519.919 836.515 525.985C833.482 527.502 815.448 576.217 816.902 580.907Z" fill="url(#paint42_linear)"/>
<path d="M859.274 503.152C859.274 520.93 868.363 518.908 868.363 518.908C868.363 518.908 866.846 562.886 825.987 544.183C832.977 536.6 832.472 526.996 835.505 519.413C838.538 511.831 827.951 509.638 828.009 507.196C828.068 504.754 830.028 504.609 830.955 501.142C831.883 497.676 829.944 496.16 828.009 496.821C826.074 497.481 823.687 501.142 822.247 501.142C820.806 501.142 820.086 487.456 822.247 484.575C824.408 481.694 825.128 475.211 839.534 476.651C853.941 478.092 859.274 485.374 859.274 503.152Z" fill="#160851"/>
<path d="M905.516 617.945L957.533 548.228L982.819 560.509L928.996 637.452L905.516 617.945Z" fill="#6D549E"/>
<path d="M969.457 661.654L948.867 598.438L933.695 602.773L948.867 651.539L969.457 661.654Z" fill="#160851"/>
<path d="M776.922 624.447L791.01 643.232V637.813L955.009 590.853L927.555 581.461L776.922 624.447Z" fill="#6D549E"/>
<path d="M964.395 616.862L798.59 668.518L804.731 693.443L972.703 639.258L964.395 616.862Z" fill="#6D549E"/>
<path d="M790.648 624.085L768.613 676.825L774.754 675.019L794.622 628.42L790.648 624.085Z" fill="#160851"/>
<path d="M754.16 659.486L768.609 676.826L791.006 624.086L792.812 602.412L780.169 590.491L754.16 659.486Z" fill="#6D549E"/>
<path d="M797.869 608.914L792.451 603.134L790.645 623.725L795.341 628.782L988.238 577.848L990.405 558.342L797.869 608.914Z" fill="#160851"/>
<path d="M787.756 588.685L780.531 590.492L797.509 608.192L990.407 558.342L966.565 548.228H957.535L975.235 557.258L800.038 601.329L787.756 588.685Z" fill="#6D549E"/>
<path d="M806.54 714.033L788.478 642.871L780.531 660.21L791.729 705.002L806.54 714.033Z" fill="#160851"/>
<path d="M811.957 711.142L794.617 641.424L788.477 642.508L806.538 713.671L811.957 711.142Z" fill="#6D549E"/>
<path d="M974.868 658.764L955 597.716L948.859 598.8L969.45 661.293L974.868 658.764Z" fill="#6D549E"/>
<path d="M955.009 590.491L791.371 637.451V643.592L957.176 597.716L955.009 590.491Z" fill="#160851"/>
<path d="M801.121 692.72L804.734 693.803L798.593 668.517L964.398 617.222H958.618L794.98 667.795L801.121 692.72Z" fill="#160851"/>
<path d="M735.464 535.67V533.143C735.464 533.143 731.926 532.637 731.926 534.154C731.926 535.67 735.464 535.67 735.464 535.67Z" fill="#7863A1"/>
<g opacity="0.5">
<path d="M1032.37 692.295L979.795 657.416L971.202 660.598L986.872 673.086L841.793 729.197L829.661 724.142L815.507 712.01L847.353 768.626L1032.37 692.295Z" fill="#3C1C80"/>
<path d="M824.605 757.505C806.734 755.483 753.656 660.449 753.656 660.449L768.821 676.831L775.898 674.097C775.898 674.097 780.946 681.146 789.859 693.306C790.818 694.616 790.563 702.538 791.569 703.922C793.023 705.922 799.644 708.961 801.174 710.999C818.925 734.652 835.12 758.695 824.605 757.505Z" fill="#3C1C80"/>
<path d="M877.178 821.199C857.463 821.199 801.931 712.01 801.931 712.01L815.405 715.043C815.405 715.043 896.893 821.199 877.178 821.199Z" fill="#3C1C80"/>
<path d="M1090 727.175L1032.37 691.284L1016.7 696.994L1026.81 705.944L864.541 776.209L852.408 763.066L848.364 768.121L880.717 823.221L1090 727.175Z" fill="#3C1C80"/>
<path d="M945.421 764.582L905.991 738.296C905.991 738.296 835.043 684.713 859.812 676.119C884.582 667.526 974.234 710.999 974.234 710.999L1040.46 777.22C1040.46 777.22 1069.77 794.913 1058.65 806.034C1047.53 817.155 1003.55 789.352 1003.55 789.352L945.421 764.582Z" fill="#3C1C80"/>
</g>
<path d="M747.858 530.493L746.709 540.985L735.977 540.308L737.04 529.238L747.858 530.493Z" fill="#7863A1"/>
<ellipse cx="736.507" cy="534.771" rx="5.56054" ry="2.02201" transform="rotate(95.4821 736.507 534.771)" fill="#7863A1"/>
<ellipse cx="747.176" cy="535.78" rx="5.29454" ry="1.62286" transform="rotate(95.4821 747.176 535.78)" fill="#160851"/>
<path opacity="0.8" d="M518.094 597.766C518.094 597.766 316.398 606.865 312.859 589.678C311.44 582.783 348.602 571.839 382.113 566.931C432.127 559.605 491.863 552.271 491.863 552.271L518.094 597.766Z" fill="#3C1C80"/>
<path d="M533.765 530.046L520.251 555.343L482.985 556.975L514.518 503.933L478.48 452.116H515.746L587.412 555.343L552.603 556.975L533.765 530.046Z" fill="#160851"/>
<path d="M478.989 451.607L438.267 467.896L432.668 471.968L448.957 495.892L492.224 471.459L478.989 451.607Z" fill="#6D549E"/>
<path d="M548.73 501.492L528.369 527.452L481.539 519.307L502.918 494.365H548.73V501.492Z" fill="#6D549E"/>
<path d="M483.06 469.423H442.338L439.793 467.896H484.587L574.176 596.17H571.121L483.06 469.423Z" fill="#6D549E"/>
<path d="M514.573 452.843H481.563L479.5 451.606H515.81L588.431 555.448H585.956L514.573 452.843Z" fill="#6D549E"/>
<path d="M493.105 486.787L508.6 494.942C508.6 494.942 542.082 513.087 543.713 518.796C545.344 524.505 540.405 583.019 540.405 583.019L523.279 585.465C523.279 585.465 525.771 542.446 524.956 533.476C524.14 524.505 491.474 519.408 488.212 511.252C484.95 503.097 493.105 486.787 493.105 486.787Z" fill="#271377"/>
<path d="M518.383 448.457L514.305 446.826L503.703 481.894L515.981 500.855L528.214 495.962L518.383 448.457Z" fill="#271377"/>
<path d="M533.969 470.433C525.652 456.455 525.118 429.395 525.118 429.395L528.484 428.495C528.484 428.495 540.564 458.415 546.116 464.766C549.529 468.67 580.076 460.295 586.077 464.766C587.753 470.433 581.267 470.716 577.329 473.374C573.392 476.033 542.286 484.411 533.969 470.433Z" fill="#271377"/>
<path d="M546.557 437.213C548.188 432.32 555.193 418.322 550.335 408.066C550.335 414.591 544.495 425.623 544.495 425.623C544.495 425.623 526.287 439.108 530.365 438.293C534.442 437.477 532.621 453.945 539.001 453.945C545.38 453.945 544.926 442.106 546.557 437.213Z" fill="#160851"/>
<path d="M564.103 494.674C558.394 487.334 531.482 490.253 531.482 490.253L503.754 504.461L522.511 525.664C522.511 525.664 545.346 512.615 548.608 515.062C551.87 517.509 550.239 570.518 550.239 570.518H562.472C562.472 570.518 569.812 502.014 564.103 494.674Z" fill="#271377"/>
<path d="M489.034 485.971C491.18 465.583 511.053 437.855 511.053 437.855L516.807 441.321C516.807 441.321 506.975 473.738 507.791 484.34C508.292 490.856 524.677 507.105 527.363 516.146C529.048 521.814 520.839 525.116 517.577 522.67C514.315 520.223 486.887 506.359 489.034 485.971Z" fill="#271377"/>
<path d="M560.84 497.936C555.939 493.043 524.957 494.33 524.141 491.068C523.326 487.806 560.832 488.15 566.541 493.859C572.25 499.568 565.726 545.237 563.279 545.237C560.831 545.237 565.741 502.829 560.84 497.936Z" fill="url(#paint43_linear)"/>
<path d="M540.451 463.34C536.447 459.062 527.7 433.929 527.7 433.929L531.453 433.548C531.453 433.548 539.564 454.141 545.117 460.492C548.529 464.396 586.077 463.186 586.077 464.502C586.077 465.819 544.454 467.618 540.451 463.34Z" fill="url(#paint44_linear)"/>
<path d="M549.164 421.608C548.494 425.936 555.199 431.815 549.164 431.815C547.102 431.815 548.659 434.849 546.022 436.133C543.215 437.499 545.482 442.61 535.386 439.218C529.155 438.254 518.639 430.446 520.018 421.544C521.396 412.642 529.811 409.312 540.377 406.981C551.96 408.066 552.973 415.278 549.164 421.608Z" fill="url(#paint45_linear)"/>
<path d="M533.881 492.495C535.512 490.049 537.143 453.35 534.697 449.272C532.25 445.195 516.755 436.224 516.755 443.564C516.755 450.903 515.124 464.767 514.309 468.845C513.493 472.922 511.907 486.175 511.907 486.175C511.907 486.175 516.801 497.592 520.878 497.592C524.956 497.592 532.25 494.942 533.881 492.495Z" fill="url(#paint46_linear)"/>
<path d="M539.661 519.254C534.76 514.361 517.616 503.301 516.801 500.039C515.985 496.777 536.406 510.627 542.114 516.336C547.823 522.045 546.186 575.525 543.739 575.525C541.291 575.526 544.562 524.147 539.661 519.254Z" fill="url(#paint47_linear)"/>
<path d="M501.262 484.34C500.446 477 506.969 450.088 508.6 446.826C510.231 443.563 514.309 444.379 513.494 446.01C512.678 447.641 506.966 473.738 507.782 484.34C508.283 490.856 531.453 512.609 527.354 516.145C527.354 516.145 502.077 491.679 501.262 484.34Z" fill="url(#paint48_linear)"/>
<path d="M533.061 452.535C533.061 445.195 524.999 428.467 531.569 414.603C535.871 405.525 521.256 412.963 513.533 425.011C509.463 431.362 506.172 439.963 506.172 441.933C506.172 447.642 520.828 448.457 522.459 452.535C524.09 456.613 521.643 470.477 524.09 470.477C526.536 470.477 533.061 459.875 533.061 452.535Z" fill="#271377"/>
<path d="M508.607 421.785C506.975 425.863 511.053 431.572 515.131 431.572C519.209 431.572 520.846 430.756 531.448 421.785C542.049 412.814 551.96 416.29 551.96 416.29C551.96 416.29 551.958 403.06 542.043 400.582C532.128 398.103 532.257 400.582 524.917 405.475C517.577 410.368 510.238 417.708 508.607 421.785Z" fill="#160851"/>
<path d="M582.73 466.901L657.659 452.566" stroke="#160851" stroke-width="2"/>
<path d="M506.977 565.73L490.296 597.193L444.295 599.223L483.219 533.252L438.734 468.803H484.735L573.198 597.193L530.231 599.223L506.977 565.73Z" fill="#160851"/>
<path d="M482.707 471.895H441.256L438.223 468.357H485.149L559.492 575.018H557.016L482.707 471.895Z" fill="#6D549E"/>
<path d="M660.907 444.989L663.388 456.468L651.822 459.533L649.046 447.474L660.907 444.989Z" fill="url(#paint49_linear)"/>
<path d="M651.822 459.533C650.612 459.812 649.008 457.338 648.242 454.008C647.475 450.679 647.835 447.753 649.046 447.474C650.257 447.195 651.86 449.669 652.627 452.999C653.393 456.329 653.033 459.254 651.822 459.533Z" fill="url(#paint50_linear)"/>
<ellipse cx="662.062" cy="450.811" rx="5.89106" ry="1.8057" transform="rotate(77.0328 662.062 450.811)" fill="#602C76"/>
<path d="M680.451 440.395L682.994 451.86L671.445 454.987L668.604 442.944L680.451 440.395Z" fill="url(#paint51_linear)"/>
<path d="M671.445 454.987C670.236 455.272 668.619 452.808 667.835 449.482C667.05 446.156 667.394 443.229 668.604 442.944C669.813 442.658 671.43 445.123 672.214 448.449C672.999 451.774 672.655 454.702 671.445 454.987Z" fill="url(#paint52_linear)"/>
<ellipse cx="681.638" cy="446.208" rx="5.89106" ry="1.8057" transform="rotate(76.7246 681.638 446.208)" fill="url(#paint53_linear)"/>
<path d="M662.73 450.348C662.193 450.481 661.866 451.023 661.999 451.559C662.132 452.095 662.674 452.422 663.21 452.289L662.73 450.348ZM667.455 451.238L668.426 450.998L667.945 449.057L666.974 449.297L667.455 451.238ZM663.21 452.289L667.455 451.238L666.974 449.297L662.73 450.348L663.21 452.289Z" fill="#160851"/>
<path d="M683.103 446.062L687.347 445.011" stroke="#160851" stroke-width="2" stroke-linecap="round"/>
<path d="M533.758 415.785C541.112 410.494 547.912 413.656 548.418 412.246C548.924 410.836 546.925 406.688 543.88 404.838C540.834 402.987 538.269 403.653 536.57 405.266C534.871 406.88 533.012 408.186 531.089 411.052C529.167 413.919 526.405 421.075 533.758 415.785Z" fill="#403F8F"/>
<g opacity="0.7">
<path d="M579.266 741.327L539.836 767.614L481.703 792.383C481.703 792.383 437.724 820.186 426.603 809.065C415.482 797.944 444.802 780.251 444.802 780.251L511.022 714.03C511.022 714.03 616.167 675.612 625.266 680.161C626.717 680.887 625.623 682.571 622.76 684.89C628.877 682.956 633.441 682.464 635.376 684.205C645.487 693.304 579.266 741.327 579.266 741.327Z" fill="#3C1C80"/>
<path d="M452.889 695.327L505.462 660.447L514.055 663.629L498.384 676.117L643.464 732.228L655.596 727.173L669.75 715.041L637.904 771.658L452.889 695.327Z" fill="#3C1C80"/>
<path d="M660.652 760.537C669.677 758.388 704.658 704.654 713.73 687.744C715.328 684.764 727.884 662.469 727.884 662.469L712.213 679.656L705.641 677.634C705.641 677.634 650.036 763.064 660.652 760.537Z" fill="#3C1C80"/>
<path d="M608.079 824.23C627.794 824.23 690.577 703.92 690.577 703.92L669.852 718.074C669.852 718.074 588.364 824.23 608.079 824.23Z" fill="#3C1C80"/>
<path d="M395.262 730.206L452.889 694.316L468.56 700.025L458.45 708.975L620.716 779.24L632.848 766.097L636.892 771.152L604.54 826.252L395.262 730.206Z" fill="#3C1C80"/>
</g>
<path d="M610.787 634.373C587.622 634.373 587.622 605.417 587.622 605.417C587.622 605.417 657.118 577.908 665.805 588.766C674.492 599.625 669.425 650.3 669.425 650.3C669.425 650.3 683.903 646.68 681.008 655.367C678.112 664.054 657.842 667.674 654.223 664.054C650.603 660.434 659.29 619.171 656.394 614.827C653.499 610.484 633.953 634.373 610.787 634.373Z" fill="#160851"/>
<path d="M619.476 528.68C592.691 529.289 587.624 606.14 587.624 606.14C587.624 606.14 655.383 588.041 653.501 585.87C636.127 552.57 646.262 528.072 619.476 528.68Z" fill="#160851"/>
<path d="M632.664 532.032C632.664 523.966 646.549 532.815 649.945 521.017C650.878 517.772 649.945 514.452 653.2 512.808C656.105 511.341 652.375 507.816 650.92 502.729C649.577 498.032 648.522 490.597 644.478 490.597C640.434 490.597 639.861 494.47 639.861 494.47L627.066 530.399C627.066 530.399 632.664 534.515 632.664 532.032Z" fill="url(#paint54_linear)"/>
<path d="M669.248 649.831C672.281 651.853 674.808 649.831 679.358 649.831C683.907 649.831 670.903 650.046 670.259 646.798C669.615 643.55 672.281 594.833 667.139 589.648C661.997 584.463 668.139 591.473 668.427 611.733C669.159 627.116 666.215 647.809 669.248 649.831Z" fill="url(#paint55_linear)"/>
<path d="M650.516 591.473C648.765 597.256 653.56 592.544 655.447 589.328C657.333 586.111 635.364 534.709 633.736 535.022C632.108 535.335 652.268 585.689 650.516 591.473Z" fill="url(#paint56_linear)"/>
<path d="M637.484 533.084C637.484 533.084 639.676 531.44 634.196 524.864C628.716 518.288 610.084 512.261 605.152 518.288C600.22 524.316 600.22 551.716 605.152 553.908C610.084 556.099 634.743 541.304 639.128 539.112C643.512 536.92 637.484 533.084 637.484 533.084Z" fill="#160851"/>
<path d="M613.886 519.606C614.61 529.017 619.784 531.385 619.784 531.385C619.784 531.385 624.716 539.348 624.716 531.385C624.716 523.422 640.671 521.501 639.223 519.329C637.775 517.158 637.052 514.538 637.051 512.367C637.051 510.195 637.051 508.023 639.223 508.023C641.395 508.023 640.804 512.367 642.251 512.367C643.699 512.367 647.186 498.612 645.014 495.716C643.692 493.953 648.698 485.542 645.015 483.71C642.651 482.534 633.301 487.187 627.64 487.753C613.162 489.201 613.162 510.195 613.886 519.606Z" fill="#160851"/>
<path d="M576.199 620.977L524.182 551.26L498.896 563.542L552.719 640.484L576.199 620.977Z" fill="#6D549E"/>
<path d="M512.258 664.687L532.848 601.472L548.02 605.806L532.848 654.573L512.258 664.687Z" fill="#160851"/>
<path d="M704.793 627.48L690.705 646.264V640.846L526.706 593.886L554.159 584.494L704.793 627.48Z" fill="#6D549E"/>
<path d="M517.32 619.896L683.125 671.552L676.984 696.477L509.011 642.292L517.32 619.896Z" fill="#6D549E"/>
<path d="M691.066 627.119L713.102 679.858L706.961 678.052L687.093 631.453L691.066 627.119Z" fill="#160851"/>
<path d="M727.555 662.519L713.105 679.858L690.709 627.118L688.903 605.445L701.546 593.524L727.555 662.519Z" fill="#6D549E"/>
<path d="M683.846 611.946L689.264 606.167L691.07 626.757L686.374 631.814L493.477 580.881L491.309 561.374L683.846 611.946Z" fill="#160851"/>
<path d="M693.959 591.718L701.184 593.524L684.206 611.225L491.308 561.375L515.149 551.26H524.18L506.48 560.291L681.677 604.361L693.959 591.718Z" fill="#6D549E"/>
<path d="M675.175 717.066L693.237 645.904L701.184 663.243L689.985 708.036L675.175 717.066Z" fill="#160851"/>
<path d="M669.758 714.176L687.097 644.458L693.238 645.542L675.177 716.704L669.758 714.176Z" fill="#6D549E"/>
<path d="M506.847 661.797L526.715 600.749L532.855 601.833L512.265 664.326L506.847 661.797Z" fill="#6D549E"/>
<path d="M526.706 593.524L690.344 640.484V646.625L524.539 600.749L526.706 593.524Z" fill="#160851"/>
<path d="M680.593 695.752L676.981 696.835L683.122 671.549L517.317 620.254H523.097L686.734 670.827L680.593 695.752Z" fill="#160851"/>
<rect y="800.4" width="1440" height="114" fill="white"/>
<path d="M409.341 759.089C425.801 758.267 437.322 796.123 437.322 796.123L-84 855.6C-84 855.6 -73.7472 752.506 -50.7038 752.506C-27.6604 752.506 -27.6604 715.472 -15.3158 712.18C-2.97108 708.887 -0.502159 673.499 24.1872 659.509C48.8765 645.519 49.6995 600.255 71.097 583.795C92.4944 567.335 160.802 553.344 187.137 567.335C213.472 581.325 231.578 611.776 251.329 619.183C271.081 626.59 258.736 619.183 304 626.59C349.264 633.997 332.804 722.878 352.556 741.807C372.307 760.736 392.882 759.912 409.341 759.089Z" fill="#160851"/>
<path d="M406.941 604.874C403.635 604.24 399.614 606.177 399.614 606.177C399.614 606.177 369.959 610.929 374.21 614.625C378.461 618.32 412.364 608.622 412.364 608.622C412.364 608.622 410.246 605.507 406.941 604.874Z" fill="#3C1C80"/>
<path d="M407.777 609.189C404.438 608.777 401.171 605.694 401.171 605.694C401.171 605.694 404.685 594.329 409.486 594.652C414.287 594.975 414.05 607.28 414.05 607.28C414.05 607.28 411.116 609.6 407.777 609.189Z" fill="url(#paint57_linear)"/>
<path d="M0 912C0 912 277.316 801.639 720 801.639C1162.68 801.639 1440 910.81 1440 910.81V827.826C1440 827.826 1191.63 760.8 720 760.8C248.37 760.8 0 839.793 0 839.793V912Z" fill="#160851"/>
<path d="M1121.63 788.951C1108.7 788.305 1077.68 818.033 1099.66 818.033C1121.63 818.033 1220.51 823.676 1303.88 819.003C1387.25 814.329 1497.5 847.851 1506.6 828.6C1515.7 809.349 1500.99 783.78 1482.9 783.78C1464.8 783.78 1464.8 754.699 1455.11 752.113C1445.41 749.527 1443.48 721.737 1424.09 710.751C1404.7 699.765 1404.05 664.22 1387.25 651.294C1370.45 638.368 1316.8 627.381 1296.12 638.368C1275.44 649.354 1261.23 673.267 1245.71 679.084C1230.2 684.9 1239.9 679.084 1204.35 684.9C1168.81 690.717 1181.73 760.515 1166.22 775.379C1150.71 790.244 1134.55 789.597 1121.63 788.951Z" fill="#160851"/>
<path d="M1152.03 753.295C1160.99 759.46 1160.99 772.815 1160.99 772.815C1160.99 772.815 1146.06 772.815 1140.08 766.651C1134.11 760.487 1135.1 745.076 1135.1 745.076C1135.1 745.076 1143.07 747.131 1152.03 753.295Z" fill="#160851"/>
<path d="M1285 629.388C1292.11 634.16 1292.11 644.5 1292.11 644.5C1292.11 644.5 1280.26 644.5 1275.52 639.728C1270.78 634.955 1271.57 623.024 1271.57 623.024C1271.57 623.024 1277.89 624.615 1285 629.388Z" fill="#160851"/>
<path d="M1313.03 621.815C1319.09 629.819 1315.13 641.215 1315.13 641.215C1315.13 641.215 1301.98 636.642 1298.55 629.553C1295.12 622.464 1300.57 609.619 1300.57 609.619C1300.57 609.619 1306.97 613.811 1313.03 621.815Z" fill="#160851"/>
</g>
<defs>
<filter id="filter0_d" x="584.172" y="443.515" width="301.138" height="174.535" filterUnits="userSpaceOnUse" color-interpolation-filters="sRGB">
<feFlood flood-opacity="0" result="BackgroundImageFix"/>
<feColorMatrix in="SourceAlpha" type="matrix" values="0 0 0 0 0 0 0 0 0 0 0 0 0 0 0 0 0 0 127 0"/>
<feOffset dy="-23"/>
<feGaussianBlur stdDeviation="37"/>
<feColorMatrix type="matrix" values="0 0 0 0 1 0 0 0 0 0.52549 0 0 0 0 0.247059 0 0 0 0.3 0"/>
<feBlend mode="normal" in2="BackgroundImageFix" result="effect1_dropShadow"/>
<feBlend mode="normal" in="SourceGraphic" in2="effect1_dropShadow" result="shape"/>
</filter>
<filter id="filter1_d" x="622.051" y="382.725" width="222.252" height="230.836" filterUnits="userSpaceOnUse" color-interpolation-filters="sRGB">
<feFlood flood-opacity="0" result="BackgroundImageFix"/>
<feColorMatrix in="SourceAlpha" type="matrix" values="0 0 0 0 0 0 0 0 0 0 0 0 0 0 0 0 0 0 127 0"/>
<feOffset dy="-23"/>
<feGaussianBlur stdDeviation="37"/>
<feColorMatrix type="matrix" values="0 0 0 0 1 0 0 0 0 0.52549 0 0 0 0 0.247059 0 0 0 0.3 0"/>
<feBlend mode="normal" in2="BackgroundImageFix" result="effect1_dropShadow"/>
<feBlend mode="normal" in="SourceGraphic" in2="effect1_dropShadow" result="shape"/>
</filter>
<linearGradient id="paint0_linear" x1="401.169" y1="136.8" x2="401.169" y2="245.443" gradientUnits="userSpaceOnUse">
<stop stop-color="#344B7C"/>
<stop offset="1" stop-color="#485F8F" stop-opacity="0.31"/>
</linearGradient>
<linearGradient id="paint1_linear" x1="1010" y1="25.2371" x2="1010" y2="85.2493" gradientUnits="userSpaceOnUse">
<stop stop-color="#344B7C"/>
<stop offset="1" stop-color="#485F8F" stop-opacity="0.31"/>
</linearGradient>
<linearGradient id="paint2_linear" x1="1140.93" y1="296.21" x2="1140.93" y2="351.164" gradientUnits="userSpaceOnUse">
<stop stop-color="#344B7C"/>
<stop offset="1" stop-color="#485F8F" stop-opacity="0.31"/>
</linearGradient>
<linearGradient id="paint3_linear" x1="799.71" y1="554.998" x2="815.15" y2="528.376" gradientUnits="userSpaceOnUse">
<stop stop-color="#FFCC5C"/>
<stop offset="0.447917" stop-color="#434A77"/>
<stop offset="1" stop-color="#092043"/>
</linearGradient>
<linearGradient id="paint4_linear" x1="803.265" y1="545.694" x2="822.147" y2="555.168" gradientUnits="userSpaceOnUse">
<stop stop-color="#FFCC5C"/>
<stop offset="0.447917" stop-color="#434A77"/>
<stop offset="1" stop-color="#092043"/>
</linearGradient>
<linearGradient id="paint5_linear" x1="765.902" y1="549.028" x2="776.107" y2="522.767" gradientUnits="userSpaceOnUse">
<stop stop-color="#FF863F"/>
<stop offset="0.447917" stop-color="#434A77"/>
<stop offset="1" stop-color="#092043"/>
</linearGradient>
<linearGradient id="paint6_linear" x1="691.528" y1="543.616" x2="687.003" y2="527.336" gradientUnits="userSpaceOnUse">
<stop stop-color="#FF863F"/>
<stop offset="0.447917" stop-color="#434A77"/>
<stop offset="1" stop-color="#092043"/>
</linearGradient>
<linearGradient id="paint7_linear" x1="719.333" y1="545.167" x2="725.227" y2="511.908" gradientUnits="userSpaceOnUse">
<stop stop-color="#FF863F"/>
<stop offset="0.447917" stop-color="#434A77"/>
<stop offset="1" stop-color="#092043"/>
</linearGradient>
<radialGradient id="paint8_radial" cx="0" cy="0" r="1" gradientUnits="userSpaceOnUse" gradientTransform="translate(670.298 546.721) rotate(-108.041) scale(22.852 42.9265)">
<stop stop-color="#FF863F"/>
<stop offset="0.447917" stop-color="#434A77"/>
<stop offset="1" stop-color="#092043"/>
</radialGradient>
<linearGradient id="paint9_linear" x1="731.968" y1="531.2" x2="731.968" y2="589.143" gradientUnits="userSpaceOnUse">
<stop stop-color="#342547"/>
<stop offset="1" stop-color="#0F1B31"/>
</linearGradient>
<radialGradient id="paint10_radial" cx="0" cy="0" r="1" gradientUnits="userSpaceOnUse" gradientTransform="translate(729.407 553.966) rotate(-113.474) scale(10.1524 60.4274)">
<stop offset="0.0625" stop-color="#FFE7AE"/>
<stop offset="0.619792" stop-color="#FDCA5C"/>
<stop offset="1" stop-color="#FE863E"/>
</radialGradient>
<linearGradient id="paint11_linear" x1="1007.39" y1="618.474" x2="1016.19" y2="626.193" gradientUnits="userSpaceOnUse">
<stop stop-color="#9A7627"/>
<stop offset="0.447917" stop-color="#434A77"/>
<stop offset="1" stop-color="#092043"/>
</linearGradient>
<linearGradient id="paint12_linear" x1="598.206" y1="602.095" x2="594.135" y2="605.67" gradientUnits="userSpaceOnUse">
<stop stop-color="#FFCC5C"/>
<stop offset="0.447917" stop-color="#434A77"/>
<stop offset="1" stop-color="#092043"/>
</linearGradient>
<linearGradient id="paint13_linear" x1="657.641" y1="546.728" x2="638.759" y2="556.202" gradientUnits="userSpaceOnUse">
<stop stop-color="#FFCC5C"/>
<stop offset="0.447917" stop-color="#434A77"/>
<stop offset="1" stop-color="#092043"/>
</linearGradient>
<linearGradient id="paint14_linear" x1="352.692" y1="566.066" x2="348.604" y2="569.621" gradientUnits="userSpaceOnUse">
<stop stop-color="#9A7627"/>
<stop offset="0.447917" stop-color="#434A77"/>
<stop offset="1" stop-color="#092043"/>
</linearGradient>
<linearGradient id="paint15_linear" x1="734.279" y1="619.457" x2="735.766" y2="629.661" gradientUnits="userSpaceOnUse">
<stop stop-color="#7B5D1B"/>
<stop offset="0.447917" stop-color="#434A77"/>
<stop offset="1" stop-color="#092043"/>
</linearGradient>
<linearGradient id="paint16_linear" x1="1139.5" y1="573.929" x2="1143.59" y2="577.485" gradientUnits="userSpaceOnUse">
<stop stop-color="#9A7627"/>
<stop offset="0.447917" stop-color="#434A77"/>
<stop offset="1" stop-color="#092043"/>
</linearGradient>
<linearGradient id="paint17_linear" x1="666.254" y1="554.481" x2="647.372" y2="563.955" gradientUnits="userSpaceOnUse">
<stop stop-color="#FFCC5C"/>
<stop offset="0.447917" stop-color="#434A77"/>
<stop offset="1" stop-color="#092043"/>
</linearGradient>
<linearGradient id="paint18_linear" x1="680.914" y1="553.963" x2="670.505" y2="569.273" gradientUnits="userSpaceOnUse">
<stop stop-color="#FFCC5C"/>
<stop offset="0.447917" stop-color="#434A77"/>
<stop offset="1" stop-color="#092043"/>
</linearGradient>
<linearGradient id="paint19_linear" x1="810.854" y1="552.623" x2="824.488" y2="555.108" gradientUnits="userSpaceOnUse">
<stop stop-color="#FFCC5C"/>
<stop offset="0.447917" stop-color="#434A77"/>
<stop offset="1" stop-color="#092043"/>
</linearGradient>
<linearGradient id="paint20_linear" x1="781.505" y1="556.55" x2="799.683" y2="570.69" gradientUnits="userSpaceOnUse">
<stop stop-color="#FFCC5C"/>
<stop offset="0.447917" stop-color="#434A77"/>
<stop offset="1" stop-color="#092043"/>
</linearGradient>
<linearGradient id="paint21_linear" x1="288.018" y1="106.642" x2="288.018" y2="649.816" gradientUnits="userSpaceOnUse">
<stop stop-color="#00132D"/>
<stop offset="1" stop-color="#361184"/>
</linearGradient>
<linearGradient id="paint22_linear" x1="1133.67" y1="10.0362" x2="1133.67" y2="553.211" gradientUnits="userSpaceOnUse">
<stop stop-color="#00132D"/>
<stop offset="1" stop-color="#361184"/>
</linearGradient>
<linearGradient id="paint23_linear" x1="202.017" y1="5.84185" x2="202.017" y2="549.017" gradientUnits="userSpaceOnUse">
<stop stop-color="#00132D"/>
<stop offset="1" stop-color="#361184"/>
</linearGradient>
<linearGradient id="paint24_linear" x1="139.003" y1="27.7125" x2="139.003" y2="572.268" gradientUnits="userSpaceOnUse">
<stop stop-color="#00132D"/>
<stop offset="1" stop-color="#361184"/>
</linearGradient>
<linearGradient id="paint25_linear" x1="1208.2" y1="91.0416" x2="1208.2" y2="634.216" gradientUnits="userSpaceOnUse">
<stop stop-color="#00132D"/>
<stop offset="1" stop-color="#361184"/>
</linearGradient>
<linearGradient id="paint26_linear" x1="1274.82" y1="5.84185" x2="1274.82" y2="549.017" gradientUnits="userSpaceOnUse">
<stop stop-color="#00132D"/>
<stop offset="1" stop-color="#361184"/>
</linearGradient>
<linearGradient id="paint27_linear" x1="733.834" y1="59.8273" x2="735.351" y2="552.385" gradientUnits="userSpaceOnUse">
<stop stop-color="#FED16F" stop-opacity="0.05"/>
<stop offset="1" stop-color="#FF873F" stop-opacity="0.33"/>
</linearGradient>
<linearGradient id="paint28_linear" x1="733.178" y1="562.977" x2="729.882" y2="510.617" gradientUnits="userSpaceOnUse">
<stop offset="0.0625" stop-color="#FFE7AE"/>
<stop offset="0.307292" stop-color="#FDCA5C"/>
<stop offset="0.541667" stop-color="#FA9142"/>
<stop offset="0.984375" stop-color="#EC5440"/>
</linearGradient>
<linearGradient id="paint29_linear" x1="761.401" y1="554.294" x2="765.842" y2="572.377" gradientUnits="userSpaceOnUse">
<stop stop-color="#FFCC5C"/>
<stop offset="0.447917" stop-color="#434A77"/>
<stop offset="1" stop-color="#092043"/>
</linearGradient>
<linearGradient id="paint30_linear" x1="708.273" y1="548.552" x2="702.096" y2="569.966" gradientUnits="userSpaceOnUse">
<stop stop-color="#FFCC5C"/>
<stop offset="0.447917" stop-color="#434A77"/>
<stop offset="1" stop-color="#092043"/>
</linearGradient>
<linearGradient id="paint31_linear" x1="744.472" y1="548.257" x2="744.538" y2="571.36" gradientUnits="userSpaceOnUse">
<stop stop-color="#FFCC5C"/>
<stop offset="0.447917" stop-color="#434A77"/>
<stop offset="1" stop-color="#092043"/>
</linearGradient>
<linearGradient id="paint32_linear" x1="789.345" y1="542.692" x2="902.275" y2="402.26" gradientUnits="userSpaceOnUse">
<stop stop-color="#86651B"/>
<stop offset="1" stop-color="#7863A1"/>
</linearGradient>
<linearGradient id="paint33_linear" x1="789.345" y1="542.692" x2="902.275" y2="402.26" gradientUnits="userSpaceOnUse">
<stop stop-color="#86651B"/>
<stop offset="1" stop-color="#7863A1"/>
</linearGradient>
<linearGradient id="paint34_linear" x1="789.345" y1="542.692" x2="902.275" y2="402.26" gradientUnits="userSpaceOnUse">
<stop stop-color="#86651B"/>
<stop offset="1" stop-color="#7863A1"/>
</linearGradient>
<linearGradient id="paint35_linear" x1="789.345" y1="542.692" x2="902.275" y2="402.26" gradientUnits="userSpaceOnUse">
<stop stop-color="#86651B"/>
<stop offset="1" stop-color="#7863A1"/>
</linearGradient>
<linearGradient id="paint36_linear" x1="789.345" y1="542.692" x2="902.275" y2="402.26" gradientUnits="userSpaceOnUse">
<stop stop-color="#86651B"/>
<stop offset="1" stop-color="#7863A1"/>
</linearGradient>
<linearGradient id="paint37_linear" x1="789.345" y1="542.692" x2="902.275" y2="402.26" gradientUnits="userSpaceOnUse">
<stop stop-color="#86651B"/>
<stop offset="1" stop-color="#7863A1"/>
</linearGradient>
<linearGradient id="paint38_linear" x1="789.345" y1="542.692" x2="902.275" y2="402.26" gradientUnits="userSpaceOnUse">
<stop stop-color="#86651B"/>
<stop offset="1" stop-color="#7863A1"/>
</linearGradient>
<linearGradient id="paint39_linear" x1="789.345" y1="542.692" x2="902.275" y2="402.26" gradientUnits="userSpaceOnUse">
<stop stop-color="#86651B"/>
<stop offset="1" stop-color="#7863A1"/>
</linearGradient>
<linearGradient id="paint40_linear" x1="828.972" y1="490.094" x2="756.685" y2="555.81" gradientUnits="userSpaceOnUse">
<stop stop-color="#6C5795"/>
<stop offset="1" stop-color="#9E895A"/>
</linearGradient>
<linearGradient id="paint41_linear" x1="828.972" y1="490.094" x2="756.685" y2="555.81" gradientUnits="userSpaceOnUse">
<stop stop-color="#6C5795"/>
<stop offset="1" stop-color="#9E895A"/>
</linearGradient>
<linearGradient id="paint42_linear" x1="828.972" y1="490.094" x2="756.685" y2="555.81" gradientUnits="userSpaceOnUse">
<stop stop-color="#6C5795"/>
<stop offset="1" stop-color="#9E895A"/>
</linearGradient>
<linearGradient id="paint43_linear" x1="535.281" y1="390.003" x2="666.206" y2="536.599" gradientUnits="userSpaceOnUse">
<stop stop-color="#7E63B1"/>
<stop offset="1" stop-color="#846112"/>
</linearGradient>
<linearGradient id="paint44_linear" x1="535.281" y1="390.003" x2="666.206" y2="536.599" gradientUnits="userSpaceOnUse">
<stop stop-color="#7E63B1"/>
<stop offset="1" stop-color="#846112"/>
</linearGradient>
<linearGradient id="paint45_linear" x1="535.281" y1="390.003" x2="666.206" y2="536.599" gradientUnits="userSpaceOnUse">
<stop stop-color="#7E63B1"/>
<stop offset="1" stop-color="#846112"/>
</linearGradient>
<linearGradient id="paint46_linear" x1="535.281" y1="390.003" x2="666.206" y2="536.599" gradientUnits="userSpaceOnUse">
<stop stop-color="#7E63B1"/>
<stop offset="1" stop-color="#846112"/>
</linearGradient>
<linearGradient id="paint47_linear" x1="535.281" y1="390.003" x2="666.206" y2="536.599" gradientUnits="userSpaceOnUse">
<stop stop-color="#7E63B1"/>
<stop offset="1" stop-color="#846112"/>
</linearGradient>
<linearGradient id="paint48_linear" x1="535.281" y1="390.003" x2="666.206" y2="536.599" gradientUnits="userSpaceOnUse">
<stop stop-color="#7E63B1"/>
<stop offset="1" stop-color="#846112"/>
</linearGradient>
<linearGradient id="paint49_linear" x1="679.353" y1="470.562" x2="659.596" y2="443.423" gradientUnits="userSpaceOnUse">
<stop stop-color="#FFB20B"/>
<stop offset="1" stop-color="#351D98"/>
</linearGradient>
<linearGradient id="paint50_linear" x1="679.353" y1="470.562" x2="659.596" y2="443.423" gradientUnits="userSpaceOnUse">
<stop stop-color="#FFB20B"/>
<stop offset="1" stop-color="#351D98"/>
</linearGradient>
<linearGradient id="paint51_linear" x1="699.035" y1="465.868" x2="679.133" y2="438.836" gradientUnits="userSpaceOnUse">
<stop stop-color="#FFB20B"/>
<stop offset="1" stop-color="#351D98"/>
</linearGradient>
<linearGradient id="paint52_linear" x1="699.035" y1="465.868" x2="679.133" y2="438.836" gradientUnits="userSpaceOnUse">
<stop stop-color="#FFB20B"/>
<stop offset="1" stop-color="#351D98"/>
</linearGradient>
<linearGradient id="paint53_linear" x1="686.089" y1="445.334" x2="676.007" y2="446.423" gradientUnits="userSpaceOnUse">
<stop stop-color="#602C76"/>
<stop offset="1" stop-color="#5B2A73"/>
</linearGradient>
<linearGradient id="paint54_linear" x1="621.225" y1="502.729" x2="703.622" y2="553.28" gradientUnits="userSpaceOnUse">
<stop stop-color="#7863A1"/>
<stop offset="1" stop-color="#B79B5C" stop-opacity="0.98"/>
</linearGradient>
<linearGradient id="paint55_linear" x1="621.225" y1="502.729" x2="703.622" y2="553.28" gradientUnits="userSpaceOnUse">
<stop stop-color="#7863A1"/>
<stop offset="1" stop-color="#B79B5C" stop-opacity="0.98"/>
</linearGradient>
<linearGradient id="paint56_linear" x1="621.225" y1="502.729" x2="703.622" y2="553.28" gradientUnits="userSpaceOnUse">
<stop stop-color="#7863A1"/>
<stop offset="1" stop-color="#B79B5C" stop-opacity="0.98"/>
</linearGradient>
<linearGradient id="paint57_linear" x1="412.836" y1="599.086" x2="405.735" y2="603.628" gradientUnits="userSpaceOnUse">
<stop stop-color="#9A7627"/>
<stop offset="0.447917" stop-color="#434A77"/>
<stop offset="1" stop-color="#092043"/>
</linearGradient>
</defs>
</svg>
