<svg width="633" height="1112" viewBox="0 0 633 1112" fill="none" xmlns="http://www.w3.org/2000/svg">
<mask id="mask0" mask-type="alpha" maskUnits="userSpaceOnUse" x="0" y="0" width="633" height="1112">
<rect width="633" height="1112" fill="#C4C4C4"/>
</mask>
<g mask="url(#mask0)">
<mask id="mask1" mask-type="alpha" maskUnits="userSpaceOnUse" x="0" y="0" width="633" height="1050">
<rect width="633" height="1050" fill="#C4C4C4"/>
</mask>
<g mask="url(#mask1)">
<mask id="mask2" mask-type="alpha" maskUnits="userSpaceOnUse" x="0" y="0" width="3042" height="1050">
<rect width="3041.88" height="1050" fill="#2F2652"/>
</mask>
<g mask="url(#mask2)">
<mask id="mask3" mask-type="alpha" maskUnits="userSpaceOnUse" x="-13" y="0" width="3068" height="1013">
<rect x="-12.6758" width="3067.23" height="1012.84" fill="#F8F4FD"/>
</mask>
<g mask="url(#mask3)">
<path d="M-132.006 401.638V977.709H173.453L144.361 -436.407L229.211 -543.391L202.544 -563.965L144.361 -506.358V-592.769H-110.187V328.944L-212.007 268.594V297.397L-132.006 401.638Z" fill="#4B0B33"/>
<mask id="mask4" mask-type="alpha" maskUnits="userSpaceOnUse" x="-14" y="-22" width="3068" height="1174">
<rect x="-13.9766" y="-21.354" width="3067" height="1173.29" fill="#C4C4C4"/>
</mask>
<g mask="url(#mask4)">
<mask id="mask5" mask-type="alpha" maskUnits="userSpaceOnUse" x="-30" y="-29" width="3101" height="1017">
<rect x="-29.2344" y="-28.6646" width="3099.29" height="1016.49" fill="#D864A4"/>
</mask>
<g mask="url(#mask5)">
<rect x="-18.9414" y="-58.7441" width="3097.62" height="770.048" fill="url(#paint0_linear)"/>
<ellipse opacity="0.5" rx="1.98391" ry="1.92885" transform="matrix(0.890665 0.454659 -0.492112 0.870532 152.33 456.296)" fill="white"/>
<ellipse opacity="0.5" rx="1.98391" ry="1.92885" transform="matrix(0.890665 0.454659 -0.492112 0.870532 455.33 412.296)" fill="white"/>
<ellipse opacity="0.5" rx="1.98391" ry="1.92885" transform="matrix(0.890665 0.454659 -0.492112 0.870532 530.283 157.388)" fill="white"/>
<ellipse opacity="0.9" rx="2.27823" ry="2.215" transform="matrix(0.890665 0.454659 -0.492112 0.870532 197.435 75.1017)" fill="white"/>
<path d="M-25.3398 648.743H3072.28V993.104H-25.3398V648.743Z" fill="#733B59"/>
</g>
<path d="M121.633 423.483V648.78H26.4952L35.5559 248.806L9.12891 204.61L17.4345 196.111L35.5559 219.909V0.000976562H114.837V393.452L146.549 368.521V380.42L121.633 423.483Z" fill="url(#paint1_linear)"/>
<path d="M316.144 426.889V654H241.2L248.337 250.807L227.52 206.255L234.062 197.688L248.337 221.677V0H310.79V396.617L335.772 371.485V383.48L316.144 426.889Z" fill="url(#paint2_linear)"/>
<path d="M389.055 426.889V654H438.901L434.154 250.807L448 206.255L443.648 197.688L434.154 221.677V0H392.615V396.617L376 371.485V383.48L389.055 426.889Z" fill="url(#paint3_linear)"/>
</g>
</g>
</g>
</g>
<path d="M0 986H633V1050H0V986Z" fill="#2F2652"/>
<path d="M0 1050H633V1112H0V1050Z" fill="white"/>
<path opacity="0.4" d="M352 161H99C99 161 114.185 137.053 130.304 137.053C146.423 137.053 166.046 148.741 179.362 148.741C192.678 148.741 221.178 96 244.306 96C267.433 96 284.019 136.482 293.831 136.482C303.643 136.482 307.147 127.075 315.79 129.355C324.434 131.636 352 161 352 161Z" fill="url(#paint4_linear)" fill-opacity="0.5"/>
<path opacity="0.4" d="M108 345H-145C-145 345 -129.815 321.053 -113.696 321.053C-97.5771 321.053 -77.9538 332.741 -64.638 332.741C-51.3223 332.741 -22.8218 280 0.305634 280C23.4331 280 40.0194 320.482 49.831 320.482C59.6427 320.482 63.1468 311.075 71.7904 313.355C80.434 315.636 108 345 108 345Z" fill="url(#paint5_linear)" fill-opacity="0.5"/>
<path opacity="0.4" d="M743 345H490C490 345 505.185 321.053 521.304 321.053C537.423 321.053 557.046 332.741 570.362 332.741C583.678 332.741 612.178 280 635.306 280C658.433 280 675.019 320.482 684.831 320.482C694.643 320.482 698.147 311.075 706.79 313.355C715.434 315.636 743 345 743 345Z" fill="url(#paint6_linear)" fill-opacity="0.5"/>
<ellipse opacity="0.5" cx="372" cy="229.5" rx="2" ry="1.5" fill="white"/>
</g>
<defs>
<linearGradient id="paint0_linear" x1="1529.15" y1="-59.2847" x2="1529.15" y2="669.259" gradientUnits="userSpaceOnUse">
<stop stop-color="#182234"/>
<stop offset="1" stop-color="#AE3562"/>
</linearGradient>
<linearGradient id="paint1_linear" x1="77.8391" y1="106.472" x2="77.8391" y2="648.78" gradientUnits="userSpaceOnUse">
<stop stop-color="#182234"/>
<stop offset="1" stop-color="#76395A"/>
</linearGradient>
<linearGradient id="paint2_linear" x1="281.646" y1="107.328" x2="281.646" y2="654" gradientUnits="userSpaceOnUse">
<stop stop-color="#182234"/>
<stop offset="1" stop-color="#76395A"/>
</linearGradient>
<linearGradient id="paint3_linear" x1="412" y1="107.328" x2="412" y2="654" gradientUnits="userSpaceOnUse">
<stop stop-color="#182234"/>
<stop offset="1" stop-color="#76395A"/>
</linearGradient>
<linearGradient id="paint4_linear" x1="225.5" y1="117.301" x2="225.5" y2="161" gradientUnits="userSpaceOnUse">
<stop stop-color="white" stop-opacity="0.24"/>
<stop offset="1" stop-color="white" stop-opacity="0.34"/>
</linearGradient>
<linearGradient id="paint5_linear" x1="-18.5" y1="301.301" x2="-18.5" y2="345" gradientUnits="userSpaceOnUse">
<stop stop-color="white" stop-opacity="0.24"/>
<stop offset="1" stop-color="white" stop-opacity="0.34"/>
</linearGradient>
<linearGradient id="paint6_linear" x1="616.5" y1="301.301" x2="616.5" y2="345" gradientUnits="userSpaceOnUse">
<stop stop-color="white" stop-opacity="0.24"/>
<stop offset="1" stop-color="white" stop-opacity="0.34"/>
</linearGradient>
</defs>
</svg>
