<svg width="345" height="1050" viewBox="0 0 345 1050" fill="none" xmlns="http://www.w3.org/2000/svg">
<mask id="mask0" mask-type="alpha" maskUnits="userSpaceOnUse" x="0" y="0" width="345" height="1050">
<rect width="345" height="1050" fill="#C4C4C4"/>
</mask>
<g mask="url(#mask0)">
<mask id="mask1" mask-type="alpha" maskUnits="userSpaceOnUse" x="0" y="0" width="1658" height="1050">
<rect width="1657.89" height="1050" fill="#2F2652"/>
</mask>
<g mask="url(#mask1)">
<mask id="mask2" mask-type="alpha" maskUnits="userSpaceOnUse" x="-7" y="0" width="1672" height="1013">
<rect x="-6.91016" width="1671.71" height="1012.84" fill="#F8F4FD"/>
</mask>
<g mask="url(#mask2)">
<path d="M-71.9499 401.638V977.709H94.5323L78.6768 -436.407L124.922 -543.391L110.388 -563.965L78.6768 -506.358V-592.769H-60.0583V328.944L-115.552 268.594V297.397L-71.9499 401.638Z" fill="#4B0B33"/>
<mask id="mask3" mask-type="alpha" maskUnits="userSpaceOnUse" x="-8" y="-22" width="1672" height="1174">
<rect x="-7.62109" y="-21.354" width="1671.59" height="1173.29" fill="#C4C4C4"/>
</mask>
<g mask="url(#mask3)">
<mask id="mask4" mask-type="alpha" maskUnits="userSpaceOnUse" x="-16" y="-29" width="1690" height="1017">
<rect x="-15.9375" y="-28.6646" width="1689.18" height="1016.49" fill="#D864A4"/>
</mask>
<g mask="url(#mask4)">
<rect x="-10.3281" y="-58.7441" width="1688.28" height="770.048" fill="url(#paint0_linear)"/>
<ellipse opacity="0.5" cx="241.157" cy="639.509" rx="1.75862" ry="1.90606" fill="white"/>
<ellipse opacity="0.5" rx="1.79269" ry="1.87405" transform="matrix(0.864196 0.503155 -0.444082 0.895986 83.9201 456.296)" fill="white"/>
<ellipse opacity="0.5" rx="1.79269" ry="1.87405" transform="matrix(0.864196 0.503155 -0.444082 0.895986 327.619 367.388)" fill="white"/>
<ellipse opacity="0.9" rx="2.98783" ry="3.12342" transform="matrix(0.864196 0.503155 -0.444082 0.895986 123.84 76.4396)" fill="white"/>
<path d="M-13.8164 648.743H1674.46V993.104H-13.8164V648.743Z" fill="#733B59"/>
</g>
<path d="M167.391 578.446C163.547 581.193 163.547 587.144 163.547 587.144C163.547 587.144 169.954 587.144 172.517 584.398C175.08 581.651 174.653 574.784 174.653 574.784C174.653 574.784 171.236 575.7 167.391 578.446Z" fill="#76395A"/>
<path d="M213.432 630.65C210.383 632.776 210.383 637.384 210.383 637.384C210.383 637.384 215.464 637.384 217.497 635.257C219.53 633.131 219.191 627.814 219.191 627.814C219.191 627.814 216.481 628.523 213.432 630.65Z" fill="#76395A"/>
<path d="M201.404 627.277C198.804 630.843 200.504 635.921 200.504 635.921C200.504 635.921 206.145 633.884 207.617 630.725C209.089 627.566 206.751 621.843 206.751 621.843C206.751 621.843 204.004 623.711 201.404 627.277Z" fill="#76395A"/>
<path d="M66.2898 423.483V648.78H14.4377L19.376 248.806L4.97266 204.61L9.49942 196.111L19.376 219.909V0.000976562H62.5861V393.452L79.8701 368.521V380.42L66.2898 423.483Z" fill="url(#paint1_linear)"/>
<path d="M172.302 426.889V654H131.456L135.346 250.807L124 206.255L127.566 197.688L135.346 221.677V0H169.385V396.617L183 371.485V383.48L172.302 426.889Z" fill="url(#paint2_linear)"/>
</g>
</g>
</g>
</g>
<path d="M0 987H345V1049H0V987Z" fill="#2F2652"/>
<path d="M213.802 639.105C219.347 638.817 223.229 652.064 223.229 652.064L48 652.927C48 652.927 51.0499 636.801 58.8132 636.801C66.5765 636.801 66.5765 623.842 70.7354 622.69C74.8943 621.538 75.7261 609.155 84.0439 604.26C92.3618 599.365 92.639 583.526 99.8478 577.766C107.057 572.007 130.069 567.111 138.942 572.007C147.814 576.902 153.914 587.557 160.568 590.149C167.222 592.741 163.063 590.149 178.313 592.741C193.562 595.333 188.017 626.434 194.671 633.057C201.325 639.681 208.257 639.393 213.802 639.105Z" fill="#76395A"/>
<defs>
<linearGradient id="paint0_linear" x1="833.418" y1="-59.2847" x2="833.418" y2="669.259" gradientUnits="userSpaceOnUse">
<stop stop-color="#182234"/>
<stop offset="1" stop-color="#AE3562"/>
</linearGradient>
<linearGradient id="paint1_linear" x1="42.4213" y1="106.472" x2="42.4213" y2="648.78" gradientUnits="userSpaceOnUse">
<stop stop-color="#182234"/>
<stop offset="1" stop-color="#76395A"/>
</linearGradient>
<linearGradient id="paint2_linear" x1="153.5" y1="107.328" x2="153.5" y2="654" gradientUnits="userSpaceOnUse">
<stop stop-color="#182234"/>
<stop offset="1" stop-color="#76395A"/>
</linearGradient>
</defs>
</svg>
