<svg width="1440" height="912" viewBox="0 0 1440 912" fill="none" xmlns="http://www.w3.org/2000/svg">
<mask id="mask0" mask-type="alpha" maskUnits="userSpaceOnUse" x="0" y="0" width="1440" height="912">
<rect width="1440" height="912" fill="#C4C4C4"/>
</mask>
<g mask="url(#mask0)">
<mask id="mask1" mask-type="alpha" maskUnits="userSpaceOnUse" x="4" y="0" width="1440" height="880">
<rect x="4" width="1440" height="879.726" fill="#F8F4FD"/>
</mask>
<g mask="url(#mask1)">
<path d="M-51.0215 348.851V849.209H92.3851L78.7273 -379.051L118.562 -471.974L106.043 -489.844L78.7273 -439.809V-514.862H-40.7782V285.711L-88.5804 233.292V258.31L-51.0215 348.851Z" fill="#4B0B33"/>
<path d="M1377.76 419.754V848.151H1521.17L1507.51 -308.148L1547.35 -401.072L1534.83 -418.942L1507.51 -368.906V-443.96H1388.01V356.613L1340.2 304.195V329.213L1377.76 419.754Z" fill="#4B0B33"/>
<mask id="mask2" mask-type="alpha" maskUnits="userSpaceOnUse" x="4" y="-19" width="1441" height="1020">
<rect x="4.38672" y="-18.5479" width="1439.9" height="1019.09" fill="#C4C4C4"/>
</mask>
<g mask="url(#mask2)">
<mask id="mask3" mask-type="alpha" maskUnits="userSpaceOnUse" x="-1" y="-25" width="1456" height="879">
<rect x="-0.777344" y="-24.8975" width="1455.05" height="878.339" fill="#D864A4"/>
</mask>
<g mask="url(#mask3)">
<rect x="3.27344" y="-50.8892" width="1455.05" height="656.318" fill="url(#paint0_linear)"/>
<ellipse opacity="0.5" rx="1.62345" ry="1.51685" transform="matrix(0.0952719 -0.995451 0.99401 0.109291 1054.79 12.6259)" fill="white" fill-opacity="0.7"/>
<path opacity="0.4" d="M477.404 279.484H-269.32C-269.32 279.484 -224.503 237.588 -176.928 237.588C-129.353 237.588 -71.4348 258.037 -32.1335 258.037C7.16782 258.037 91.2864 165.766 159.547 165.766C227.807 165.766 276.761 236.59 305.72 236.59C334.679 236.59 345.021 220.131 370.533 224.121C396.044 228.111 477.404 279.484 477.404 279.484Z" fill="url(#paint1_linear)" fill-opacity="0.5"/>
<path opacity="0.4" d="M1220.87 70.4113H808.602C808.602 70.4113 843.45 31.0232 869.716 31.0232C895.982 31.0232 917.854 48.8172 939.552 48.8172C961.25 48.8172 1007.69 -3.23486 1045.38 -3.23486C1083.06 -3.23486 1110.09 46.7176 1126.08 46.7176C1142.07 46.7176 1147.78 37.6259 1161.86 39.8299C1175.95 42.034 1220.87 70.4113 1220.87 70.4113Z" fill="url(#paint2_linear)" fill-opacity="0.4"/>
<path opacity="0.4" d="M1331.95 369.344H922.719C922.719 369.344 945.385 333.673 969.446 333.673C993.508 333.673 998.231 346.32 1018.11 346.32C1037.98 346.32 1038.45 309.997 1072.97 309.997C1107.49 309.997 1099.78 329.406 1126.84 333.673C1153.91 337.94 1158.11 283.784 1185.29 283.784C1212.47 283.784 1212.28 313.836 1245.46 333.673C1309.71 300.866 1331.95 369.344 1331.95 369.344Z" fill="url(#paint3_linear)" fill-opacity="0.5"/>
<ellipse opacity="0.5" cx="220.016" cy="544.237" rx="1.51568" ry="1.62455" fill="white"/>
<ellipse opacity="0.5" cx="396.844" cy="150.014" rx="1.51568" ry="1.62455" fill="white"/>
<ellipse opacity="0.5" cx="453.426" cy="24.3814" rx="1.51568" ry="1.62455" fill="white"/>
<ellipse opacity="0.5" rx="1.54073" ry="1.60081" transform="matrix(0.866617 0.498974 -0.448062 0.894002 84.5047 388.084)" fill="white"/>
<ellipse opacity="0.5" rx="1.54073" ry="1.60081" transform="matrix(0.866617 0.498974 -0.448062 0.894002 294.536 312.306)" fill="white"/>
<ellipse rx="2.65188" ry="2.58454" transform="matrix(0.534069 -0.845441 0.809336 0.587346 1245.28 369.654)" fill="white" fill-opacity="0.8"/>
<ellipse opacity="0.5" rx="1.59113" ry="1.55072" transform="matrix(0.534069 -0.845441 0.809336 0.587346 1194.98 138.271)" fill="white" fill-opacity="0.7"/>
<ellipse opacity="0.9" rx="2.56788" ry="2.66802" transform="matrix(0.866617 0.498974 -0.448062 0.894002 118.909 64.3286)" fill="white"/>
<ellipse opacity="0.5" rx="1.56087" ry="1.58117" transform="matrix(0.747949 -0.663756 0.611323 0.791381 670.4 256.902)" fill="white"/>
<ellipse rx="1.04058" ry="1.05412" transform="matrix(0.747949 -0.663756 0.611323 0.791381 551.02 137.169)" fill="white" fill-opacity="0.7"/>
<ellipse opacity="0.5" rx="1.56087" ry="1.58117" transform="matrix(0.747949 -0.663756 0.611323 0.791381 973.419 245.982)" fill="white"/>
<path d="M800.307 557.99C807.666 558.248 815.691 553.973 815.691 553.973C815.691 553.973 811.571 533.778 801.071 532.954C790.571 532.13 787.303 552.977 787.303 552.977C787.303 552.977 792.947 557.732 800.307 557.99Z" fill="url(#paint4_linear)"/>
<path d="M820.751 571.321C827.824 571.321 835.402 565.906 835.402 565.906C835.402 565.906 830.855 542.079 820.751 541.538C810.646 540.996 808.12 565.906 808.12 565.906C808.12 565.906 813.678 571.321 820.751 571.321Z" fill="url(#paint5_linear)"/>
<path d="M766.475 555.387C775.596 556.388 785.893 551.976 785.893 551.976C785.893 551.976 782.333 527.206 769.355 525.228C756.377 523.25 750.711 548.116 750.711 548.116C750.711 548.116 757.354 554.386 766.475 555.387Z" fill="url(#paint6_linear)"/>
<path d="M729.844 556.691C740.061 556.691 751.008 550.588 751.008 550.588C751.008 550.588 744.44 523.737 729.844 523.127C715.249 522.516 711.6 550.588 711.6 550.588C711.6 550.588 719.628 556.691 729.844 556.691Z" fill="url(#paint7_linear)"/>
<path d="M672.58 560.361C663.45 560.681 653.495 555.378 653.495 555.378C653.495 555.378 658.606 530.325 671.631 529.303C684.657 528.28 688.711 554.142 688.711 554.142C688.711 554.142 681.71 560.041 672.58 560.361Z" fill="url(#paint8_radial)"/>
<path d="M3.26953 552.107H1458.32V845.609H3.26953V552.107Z" fill="#733B59"/>
<path d="M724.751 430.772C727.25 428.383 729.804 428.948 731.107 430.514C732.41 432.08 731.042 434.891 728.612 435.044C726.181 435.197 724.101 438.745 722.797 437.179C721.494 435.613 722.252 433.161 724.751 430.772Z" fill="#FE863F"/>
<path d="M719.132 404.795C720.661 403.502 722.127 403.926 722.832 404.884C723.538 405.843 722.651 407.424 721.235 407.422C719.818 407.419 718.493 409.402 717.788 408.443C717.082 407.485 717.602 406.089 719.132 404.795Z" fill="#FE863F"/>
<path opacity="0.5" d="M714.794 350.505C715.519 348.567 716.987 348.152 718.045 348.607C719.102 349.061 719.068 350.906 717.838 351.66C716.609 352.414 716.381 354.84 715.324 354.386C714.266 353.931 714.069 352.443 714.794 350.505Z" fill="#FE863F"/>
<path d="M755.56 446.155C757.071 446.78 757.408 448.083 757.067 449.03C756.726 449.977 755.295 449.967 754.697 448.879C754.099 447.792 752.215 447.616 752.556 446.669C752.897 445.722 754.049 445.53 755.56 446.155Z" fill="#FE863F"/>
<path d="M699.883 555.368C693.654 555.587 686.862 551.968 686.862 551.968C686.862 551.968 690.348 534.875 699.236 534.178C708.123 533.481 710.889 551.125 710.889 551.125C710.889 551.125 706.112 555.15 699.883 555.368Z" fill="url(#paint9_linear)"/>
<ellipse cx="691.891" cy="407.774" rx="1.51568" ry="1.62455" fill="#ECBE5B"/>
<ellipse opacity="0.5" cx="740.395" cy="356.872" rx="1.51568" ry="1.62455" fill="#ECBE5B"/>
<ellipse cx="777.784" cy="406.69" rx="2.52613" ry="2.70758" fill="#ECBE5B"/>
<ellipse opacity="0.5" cx="749.488" cy="245.319" rx="1.51568" ry="1.62455" fill="#ECBE5B"/>
<ellipse opacity="0.5" cx="714.125" cy="223.659" rx="1.51568" ry="1.62455" fill="#ECBE5B"/>
<ellipse opacity="0.5" cx="779.801" cy="335.21" rx="1.51568" ry="1.62455" fill="#ECBE5B"/>
<path d="M857.983 696.033C862.054 697.057 865.677 701.529 865.677 701.529C865.677 701.529 867.389 701.945 874.17 707.352C881.535 713.224 871.605 706.127 868.144 707.228C865.679 708.011 881.769 722.448 874.946 717.604C863.363 709.381 849.974 697.579 849.974 697.579C849.974 697.579 853.911 695.009 857.983 696.033Z" fill="#612E49"/>
<path d="M856.339 701.088C860.518 701.234 863.285 697.927 863.285 697.927C863.285 697.927 863.053 697.968 861.597 693.857C860.29 690.166 860.327 697.624 857.508 697.361C855.012 697.128 855.12 682.987 853.873 686.146C852.142 690.532 850.798 698.335 850.798 698.335C850.798 698.335 852.159 700.941 856.339 701.088Z" fill="#2F365C"/>
<path d="M594.246 682.075C590.322 683.15 586.892 687.555 586.892 687.555C586.892 687.555 579.993 692.512 573.522 697.885C566.493 703.722 581.232 692.127 584.604 693.123C587.005 693.832 571.678 708.139 578.2 703.31C589.272 695.111 602.029 683.41 602.029 683.41C602.029 683.41 598.171 681.001 594.246 682.075Z" fill="#612E49"/>
<path d="M598.322 685.431C594.274 685.573 591.594 682.369 591.594 682.369C591.594 682.369 591.819 677.3 593.229 673.317C594.495 669.743 594.459 682.076 597.19 681.821C599.607 681.596 599.503 667.899 600.711 670.959C602.387 675.207 603.689 682.765 603.689 682.765C603.689 682.765 602.371 685.289 598.322 685.431Z" fill="#2F365C"/>
<path d="M482.225 588.101C478.621 587.529 476.667 587.56 476.667 587.56C476.667 587.56 457.974 587.085 454.437 588.101C456.458 589.184 467.121 587.642 469.594 589.725C471.355 591.209 457.468 592.433 452.153 594.161C457.468 596.765 485.761 591.35 485.761 591.35C485.761 591.35 485.828 588.674 482.225 588.101Z" fill="#EA99C5"/>
<mask id="mask4" mask-type="alpha" maskUnits="userSpaceOnUse" x="396" y="552" width="673" height="110">
<rect x="396.273" y="552.161" width="672.258" height="109.459" fill="#C4C4C4"/>
</mask>
<g mask="url(#mask4)">
<path opacity="0.8" d="M1064.36 561.255C1064.36 608.072 913.94 659.518 728.386 659.518C542.832 659.518 392.41 608.072 392.41 561.255C392.41 514.438 542.832 476.485 728.386 476.485C913.94 476.485 1064.36 514.438 1064.36 561.255Z" fill="#894168"/>
<path opacity="0.8" d="M955.235 557.447C955.235 581.824 853.446 610.782 727.883 610.782C602.32 610.782 500.531 581.824 500.531 557.447C500.531 533.07 602.32 513.309 727.883 513.309C853.446 513.309 955.235 533.07 955.235 557.447Z" fill="#9C4474"/>
<ellipse cx="733.947" cy="550.132" rx="123.275" ry="30.3249" fill="url(#paint10_linear)" fill-opacity="0.89"/>
<g filter="url(#filter0_d)">
<path d="M669.389 561.201C666.431 565.436 681.317 568.703 681.317 568.703C681.317 568.703 705.692 573.254 727.663 573.905C749.635 574.557 772.582 571.635 772.582 571.635C772.582 571.635 800.794 566.087 796.569 561.201C792.343 556.315 772.582 549.8 731.501 548.171C690.42 546.542 672.346 556.966 669.389 561.201Z" fill="url(#paint11_linear)"/>
</g>
</g>
<path d="M479.697 590.265C476.269 588.945 477.171 588.099 477.171 588.099C477.171 588.099 477.659 582.807 478.687 581.601C480.203 583.767 479.576 585.937 481.938 586.695C484.029 587.366 483.431 582.684 485.76 578.893C486.968 582.142 487.079 589.794 487.079 589.794C487.079 589.794 483.126 591.585 479.697 590.265Z" fill="#2F365C"/>
<path d="M1018.99 638.157C1023.64 637.994 1028.73 641.673 1028.73 641.673C1028.73 641.673 1056.16 649.192 1049.59 653.524C1043.02 657.856 1010.81 642.301 1010.81 642.301C1010.81 642.301 1014.34 638.32 1018.99 638.157Z" fill="#612E49"/>
<path d="M1016.97 644.145C1021.62 644.309 1026.71 640.63 1026.71 640.63C1026.71 640.63 1024.24 623.573 1017.61 622.955C1010.99 622.337 1008.79 640.002 1008.79 640.002C1008.79 640.002 1012.32 643.982 1016.97 644.145Z" fill="url(#paint12_linear)"/>
<path d="M599.025 614.952C595.785 614.839 592.231 617.403 592.231 617.403C592.231 617.403 567.316 628.554 569.234 629.819C571.152 631.084 604.729 617.841 604.729 617.841C604.729 617.841 602.265 615.066 599.025 614.952Z" fill="#612E49"/>
<path d="M600.93 618.627C598.778 618.702 596.417 616.999 596.417 616.999C596.417 616.999 597.561 609.1 600.63 608.814C603.699 608.527 604.718 616.708 604.718 616.708C604.718 616.708 603.082 618.551 600.93 618.627Z" fill="url(#paint13_linear)"/>
<path opacity="0.96" d="M721.702 583.743H755.047C755.047 583.743 751.51 598.809 739.385 600.911C727.259 603.013 721.702 583.743 721.702 583.743Z" fill="#612E4A"/>
<path opacity="0.96" d="M759.09 581.657L778.686 577.27C778.686 577.27 790.265 592.185 786.702 594.378C783.139 596.572 759.09 581.657 759.09 581.657Z" fill="#612E4A"/>
<path opacity="0.96" d="M795.464 581.146L811.07 571.854C811.07 571.854 835.43 582.191 827.056 588.579C818.682 594.968 795.464 581.146 795.464 581.146Z" fill="#0D1A31"/>
<path opacity="0.96" d="M808.6 564.921L825.719 561.023C825.719 561.023 863 561.511 859.956 563.946C856.913 566.382 808.6 564.921 808.6 564.921Z" fill="#0D1A31"/>
<path opacity="0.96" d="M662.088 571.31L644.969 566.438C644.969 566.438 607.688 567.047 610.731 570.092C613.775 573.137 662.088 571.31 662.088 571.31Z" fill="#612E4A"/>
<path d="M649.937 572.404C642.864 572.404 635.285 566.989 635.285 566.989C635.285 566.989 639.832 543.162 649.937 542.621C660.041 542.079 662.567 566.989 662.567 566.989C662.567 566.989 657.01 572.404 649.937 572.404Z" fill="url(#paint14_linear)"/>
<path opacity="0.96" d="M810.623 573.586L827.742 569.688C827.742 569.688 865.023 570.176 861.98 572.611C858.936 575.047 810.623 573.586 810.623 573.586Z" fill="#0D1A31"/>
<path d="M353.33 576.594C350.343 575.243 346.168 576.272 346.168 576.272C346.168 576.272 319.179 577.109 320.547 579.027C321.914 580.945 355.413 583.226 358.7 580.4C361.986 577.573 356.317 577.945 353.33 576.594Z" fill="#612E49"/>
<path opacity="0.96" d="M718.672 582.599L693.099 578.353C693.099 578.353 681.361 595.81 691.422 598.641C701.484 601.472 718.672 582.599 718.672 582.599Z" fill="#612E4A"/>
<path d="M355.517 580.903C353.365 580.968 351.012 579.253 351.012 579.253C351.012 579.253 352.189 571.36 355.26 571.089C358.33 570.818 359.314 579.003 359.314 579.003C359.314 579.003 357.67 580.838 355.517 580.903Z" fill="url(#paint15_linear)"/>
<path d="M738.734 639.662C743.382 639.498 746.097 642.032 746.097 642.032C746.097 642.032 742.561 670.732 738.734 670.732C734.908 670.732 728.919 642.032 728.919 642.032C728.919 642.032 734.087 639.825 738.734 639.662Z" fill="#612E49"/>
<path d="M736.856 645.65C741.503 645.813 746.6 642.135 746.6 642.135C746.6 642.135 744.13 630.493 737.503 629.875C730.875 629.257 728.674 641.506 728.674 641.506C728.674 641.506 732.208 645.487 736.856 645.65Z" fill="url(#paint16_linear)"/>
<path d="M1149.63 584.824C1152.62 583.472 1156.8 584.501 1156.8 584.501C1156.8 584.501 1183.79 585.339 1182.42 587.257C1181.05 589.175 1147.55 591.456 1144.27 588.629C1140.98 585.803 1146.65 586.175 1149.63 584.824Z" fill="#612E49"/>
<path d="M1146.44 589.134C1148.59 589.199 1150.95 587.484 1150.95 587.484C1150.95 587.484 1149.77 579.591 1146.7 579.32C1143.63 579.049 1142.64 587.234 1142.64 587.234C1142.64 587.234 1144.29 589.069 1146.44 589.134Z" fill="url(#paint17_linear)"/>
<path opacity="0.96" d="M689.372 579.436L664.61 574.562C664.61 574.562 650.969 587.017 655.01 589.725C659.052 592.433 689.372 579.436 689.372 579.436Z" fill="#612E4A"/>
<path d="M1046.92 576.723C1050.53 576.151 1052.48 576.182 1052.48 576.182C1052.48 576.182 1071.17 575.707 1074.71 576.723C1072.69 577.806 1062.03 576.264 1059.55 578.347C1057.79 579.831 1071.68 581.055 1077 582.783C1071.68 585.387 1043.39 579.972 1043.39 579.972C1043.39 579.972 1043.32 577.296 1046.92 576.723Z" fill="#612E49"/>
<path d="M1049.45 578.889C1052.88 577.568 1051.98 576.722 1051.98 576.722C1051.98 576.722 1051.49 571.43 1050.47 570.224C1048.95 572.39 1049.58 574.561 1047.21 575.318C1045.12 575.989 1045.72 571.307 1043.39 567.517C1042.18 570.766 1042.07 578.417 1042.07 578.417C1042.07 578.417 1046.03 580.209 1049.45 578.889Z" fill="#2F365C"/>
<path opacity="0.96" d="M666.131 578.895L643.396 574.562C643.396 574.562 615.103 576.187 619.145 578.895C623.187 581.602 666.131 578.895 666.131 578.895Z" fill="#0D1A31"/>
<path d="M658.55 580.518C651.477 580.518 643.898 575.103 643.898 575.103C643.898 575.103 648.445 551.276 658.55 550.735C668.655 550.193 671.181 575.103 671.181 575.103C671.181 575.103 665.623 580.518 658.55 580.518Z" fill="url(#paint18_linear)"/>
<path d="M675.959 583.611C668.599 583.869 660.575 579.594 660.575 579.594C660.575 579.594 664.695 559.399 675.194 558.575C685.694 557.751 688.962 578.598 688.962 578.598C688.962 578.598 683.319 583.353 675.959 583.611Z" fill="url(#paint19_linear)"/>
<path d="M824.627 573.906C830.802 573.038 836.951 568.289 836.951 568.289C836.951 568.289 830.925 552.041 822.057 552.899C813.188 553.757 813.132 571.637 813.132 571.637C813.132 571.637 818.451 574.774 824.627 573.906Z" fill="url(#paint20_linear)"/>
<path d="M800.651 583.999C809.781 584.319 819.735 579.016 819.735 579.016C819.735 579.016 814.625 553.963 801.599 552.941C788.573 551.919 784.519 577.78 784.519 577.78C784.519 577.78 791.521 583.679 800.651 583.999Z" fill="url(#paint21_linear)"/>
<path d="M894.702 612.263C899.35 612.1 904.447 615.778 904.447 615.778C904.447 615.778 913.535 618.874 922.274 622.576C931.768 626.596 912.053 618.875 908.633 621.131C906.199 622.737 927.371 633.247 918.738 630.162C904.082 624.926 886.521 616.407 886.521 616.407C886.521 616.407 890.055 612.426 894.702 612.263Z" fill="#612E49"/>
<path d="M892.68 618.251C897.328 618.414 900.404 614.736 900.404 614.736C900.404 614.736 900.146 608.916 898.528 604.345C897.075 600.241 897.116 614.4 893.981 614.107C891.205 613.848 891.325 598.124 889.939 601.637C888.014 606.514 886.52 615.19 886.52 615.19C886.52 615.19 888.033 618.088 892.68 618.251Z" fill="#2F365C"/>
</g>
<g opacity="0.7">
<path d="M885.264 739.381L852.529 716.526C852.529 716.526 752.251 652.329 789.159 638.919C826.067 625.509 909.185 692.792 909.185 692.792L964.162 750.369C964.162 750.369 988.504 765.753 979.271 775.422C970.038 785.091 933.526 760.918 933.526 760.918L885.264 739.381Z" fill="#5A2843"/>
<path d="M977.389 682.776L933.743 652.449L926.608 655.216L939.618 666.074L819.172 714.861L809.1 710.466L797.349 699.918L823.788 749.144L977.389 682.776Z" fill="#5A2843"/>
<path d="M804.902 739.475C790.066 737.716 746 655.086 746 655.086L758.59 669.331L764.466 666.954C764.466 666.954 768.656 673.082 776.055 683.655C776.852 684.794 776.64 691.682 777.476 692.885C778.683 694.624 784.179 697.266 785.449 699.039C800.187 719.605 813.632 740.509 804.902 739.475Z" fill="#5A2843"/>
<path d="M848.549 794.854C832.181 794.854 786.078 699.918 786.078 699.918L797.265 702.555C797.265 702.555 864.916 794.854 848.549 794.854Z" fill="#5A2843"/>
<path d="M1025.23 713.103L977.389 681.897L964.379 686.862L972.772 694.643L838.057 755.737L827.985 744.309L824.628 748.704L851.487 796.612L1025.23 713.103Z" fill="#5A2843"/>
</g>
<path d="M23.4359 312.586V562.183H96.1885L89.2597 -50.5179L109.469 -96.8716L103.117 -105.786L89.2597 -80.8261V-118.266H28.6325V281.089L4.38164 254.941V267.421L23.4359 312.586Z" fill="url(#paint22_linear)"/>
<path d="M1259.49 415.975V622.576H1211.72L1216.27 115.42L1203 77.0515L1207.17 69.6729L1216.27 90.333V1.0415H1256.08V389.904L1272 368.26V378.59L1259.49 415.975Z" fill="url(#paint23_linear)"/>
<path d="M276.089 316.809L268.089 563.512H349.34L342.364 403.03L362.711 364.643L356.316 357.26L342.364 377.931V255.832L362.711 217.444L356.316 210.062L342.364 230.732L336.663 0.000488281H287.321L281.321 290.725L256.904 269.07V279.405L276.089 316.809Z" fill="url(#paint24_linear)"/>
<path d="M1104.18 407.808V614.511H1177.43L1170.46 454.03L1190.8 415.642L1184.41 408.26L1170.46 428.93V306.832L1190.8 268.444L1184.41 261.062L1170.46 281.732L1169.76 0H1112.42L1109.42 381.724L1085 360.07V370.405L1104.18 407.808Z" fill="url(#paint25_linear)"/>
<path d="M249.695 546.896C256.142 546.559 260.655 562.088 260.655 562.088L56.9297 563.101C56.9297 563.101 60.4755 544.195 69.5014 544.195C78.5272 544.195 78.5272 529.004 83.3624 527.653C88.1977 526.303 89.1647 511.786 98.8353 506.047C108.506 500.308 108.828 481.741 117.209 474.988C125.59 468.236 152.345 462.497 162.661 468.236C172.976 473.975 180.068 486.467 187.804 489.505C195.54 492.544 190.705 489.505 208.434 492.544C226.164 495.582 219.717 532.042 227.453 539.807C235.19 547.572 243.248 547.234 249.695 546.896Z" fill="#76395A"/>
<path d="M195.739 475.786C191.27 479.006 191.27 485.982 191.27 485.982C191.27 485.982 198.719 485.982 201.699 482.762C204.678 479.542 204.182 471.492 204.182 471.492C204.182 471.492 200.209 472.566 195.739 475.786Z" fill="#76395A"/>
<path d="M249.264 536.984C245.719 539.477 245.719 544.878 245.719 544.878C245.719 544.878 251.627 544.878 253.99 542.385C256.353 539.892 255.959 533.66 255.959 533.66C255.959 533.66 252.808 534.491 249.264 536.984Z" fill="#76395A"/>
<path d="M235.281 533.03C232.258 537.211 234.234 543.164 234.234 543.164C234.234 543.164 240.793 540.775 242.504 537.072C244.216 533.369 241.498 526.659 241.498 526.659C241.498 526.659 238.304 528.849 235.281 533.03Z" fill="#76395A"/>
<path d="M177.142 367.825V563.512H132.477L136.731 216.106L124.324 177.718L128.224 170.336L136.731 191.006V0.000488281H173.952V341.741L188.84 320.086V330.421L177.142 367.825Z" fill="url(#paint26_linear)"/>
<path d="M249.076 159.176V564.863H204.411L208.665 97.4571L196.258 59.0694L200.157 51.6872L208.665 72.3575V1.35205H245.886V133.092L260.774 111.438V121.773L249.076 159.176Z" fill="url(#paint27_linear)"/>
<path d="M1362.24 358.16V564.863H1288.98L1295.96 285.315L1275.61 246.928L1282.01 239.546L1295.96 260.216V1.35205H1357V332.076L1381.42 310.422V320.757L1362.24 358.16Z" fill="url(#paint28_linear)"/>
<path d="M1170.61 817.882C1157.7 817.205 1126.69 848.323 1148.65 848.323C1170.61 848.323 1269.44 854.229 1352.76 849.338C1436.09 844.446 1547.78 870.502 1556.88 850.352C1565.97 830.202 1549.77 812.47 1531.68 812.47C1513.6 812.47 1513.6 782.029 1503.91 779.323C1494.22 776.616 1492.28 747.528 1472.91 736.029C1453.53 724.529 1452.88 687.323 1436.09 673.794C1419.29 660.264 1365.68 648.764 1345.01 660.264C1324.34 671.764 1310.13 696.793 1294.63 702.882C1279.13 708.97 1288.82 702.882 1253.29 708.97C1217.77 715.059 1230.68 788.117 1215.18 803.676C1199.68 819.235 1183.53 818.558 1170.61 817.882Z" fill="#4B0B33"/>
<path d="M1201 780.56C1209.95 787.012 1209.95 800.992 1209.95 800.992C1209.95 800.992 1195.03 800.992 1189.06 794.539C1183.08 788.087 1184.08 771.957 1184.08 771.957C1184.08 771.957 1192.04 774.107 1201 780.56Z" fill="#4B0B33"/>
<path d="M1333.89 650.863C1341 655.858 1341 666.681 1341 666.681C1341 666.681 1329.16 666.681 1324.42 661.686C1319.69 656.69 1320.48 644.202 1320.48 644.202C1320.48 644.202 1326.79 645.867 1333.89 650.863Z" fill="#4B0B33"/>
<path d="M1361.91 642.936C1367.97 651.314 1364.01 663.243 1364.01 663.243C1364.01 663.243 1350.87 658.456 1347.44 651.036C1344.01 643.616 1349.45 630.171 1349.45 630.171C1349.45 630.171 1355.85 634.559 1361.91 642.936Z" fill="#4B0B33"/>
<path opacity="0.46" d="M800.619 426.443C800.619 455.015 762.222 479.355 767.274 517.451C772.326 555.548 765.253 559.781 737.971 559.781C710.688 559.781 694.017 555.548 702.1 537.029C710.183 518.51 731.908 457.661 728.371 426.443C724.835 395.225 663.197 386.759 651.072 341.254C638.946 295.75 567.709 234.901 610.654 180.402C653.598 125.902 586.908 111.087 608.127 45.4761C629.346 -20.1348 539.922 -25.9551 539.922 -25.9551H972.901C972.901 -25.9551 871.351 15.3163 857.204 59.2333C843.058 103.15 836.49 159.237 836.49 200.508C836.49 241.78 744.539 299.983 737.971 331.201C731.403 362.419 800.619 397.87 800.619 426.443Z" fill="url(#paint29_linear)"/>
<g filter="url(#filter1_d)">
<path d="M702.048 548.192C701.201 559.499 711.786 565.485 711.786 565.485C711.786 565.485 723.998 568.582 735.006 569.025C746.014 569.469 757.511 567.48 757.511 567.48C757.511 567.48 766.239 573.91 772.118 551.74C777.997 529.569 768.423 525.457 763.814 529.891C759.205 534.325 751.959 528.454 754.548 521.81C757.136 515.165 758.029 515.055 760.762 509.87C764.784 506.101 763.19 495.483 759.851 494.604C758.94 500.266 754.548 502.965 750.949 501.635C747.35 500.304 746.08 495.205 748.409 491.88C750.737 488.554 752.431 488.815 753.913 487.042C755.395 485.268 753.278 485.229 748.409 485.007C743.54 484.785 734.86 489.884 733.59 498.531C732.32 507.177 734.649 520.479 729.992 520.258C725.334 520.036 726.143 512.193 723.865 512.193C721.226 514.631 724.699 524.914 721.524 529.569C718.348 534.225 702.895 536.885 702.048 548.192Z" fill="url(#paint30_linear)"/>
</g>
<path d="M770.32 585.636C776.55 585.849 783.341 582.313 783.341 582.313C783.341 582.313 779.855 565.612 770.967 564.93C762.08 564.249 759.314 581.49 759.314 581.49C759.314 581.49 764.091 585.422 770.32 585.636Z" fill="url(#paint31_linear)"/>
<path d="M705.43 587.824C696.261 587.824 686.438 582.438 686.438 582.438C686.438 582.438 692.332 558.741 705.43 558.202C718.529 557.663 721.803 582.438 721.803 582.438C721.803 582.438 714.599 587.824 705.43 587.824Z" fill="url(#paint32_linear)"/>
<path d="M739.708 588.882C731.063 588.882 721.801 583.881 721.801 583.881C721.801 583.881 727.358 561.876 739.708 561.376C752.058 560.876 755.146 583.881 755.146 583.881C755.146 583.881 748.353 588.882 739.708 588.882Z" fill="url(#paint33_linear)"/>
<path d="M551.814 447.954C553.29 448.544 554.758 448.713 555.59 448.665L554.579 449.723C552.608 449.692 551.814 447.954 551.814 447.954Z" fill="#AF176A"/>
<path d="M554.383 443.888C555.662 444.742 556.738 444.952 559.395 444.713C559.395 444.713 557.699 445.728 556.243 445.668C554.787 445.609 554.383 443.888 554.383 443.888Z" fill="#AF176A"/>
<path d="M412 614.311C408.697 613.648 404.678 615.676 404.678 615.676C404.678 615.676 375.04 620.65 379.288 624.518C383.537 628.386 417.421 618.235 417.421 618.235C417.421 618.235 415.304 614.975 412 614.311Z" fill="#612E49"/>
<path d="M412.833 618.828C409.496 618.398 406.231 615.17 406.231 615.17C406.231 615.17 409.743 603.274 414.541 603.612C419.34 603.95 419.103 616.83 419.103 616.83C419.103 616.83 416.17 619.259 412.833 618.828Z" fill="url(#paint34_linear)"/>
</g>
<path opacity="0.8" d="M1054.28 595.071C1057.22 610.015 920.407 600.785 920.407 600.785L899.004 556.394C899.004 556.394 1051.35 580.128 1054.28 595.071Z" fill="#612E4A"/>
<path d="M878.082 540.524L889.301 562.517L920.237 563.936L894.06 517.821L923.977 472.771H893.04L833.547 562.517L862.444 563.936L878.082 540.524Z" fill="#4B0B33"/>
<path d="M923.55 472.329L957.356 486.49L962.004 490.031L948.482 510.831L912.563 489.588L923.55 472.329Z" fill="#A2486B"/>
<path d="M865.655 515.699L882.557 538.269L921.434 531.188L903.686 509.503H865.655V515.699Z" fill="#A2486B"/>
<path d="M920.172 487.817H953.977L956.09 486.49H918.904L844.532 598.013H847.067L920.172 487.817Z" fill="#A2486B"/>
<path d="M894.006 473.402H921.408L923.121 472.328H892.978L832.692 562.608H834.747L894.006 473.402Z" fill="#A2486B"/>
<path d="M899.2 445.968C899.2 445.968 878.908 445.626 875.194 436.668C871.48 427.711 885.726 426.073 894.855 430.307C903.984 434.541 899.2 445.968 899.2 445.968Z" fill="#4A0B33"/>
<path d="M851.179 509.273C856.671 502.568 885 491.5 885 491.5L909.234 506.213L891.19 525.584C891.19 525.584 869.223 527.663 866.085 529.898C862.947 532.134 864.516 566.559 864.516 566.559C864.516 566.559 866.085 578 858.5 577C850.915 576 839.5 583 839.5 577C839.5 571 852.748 566.559 852.748 566.559C852.748 566.559 845.687 515.978 851.179 509.273Z" fill="#6A1048"/>
<path d="M854.035 567.435C853.337 566.342 854.612 566.299 853.203 566.044C851.795 565.788 845.833 568.989 845.833 568.989C845.833 568.989 845.176 569.907 845.71 570.742C846.243 571.577 849.648 571.824 851.916 570.74C854.184 569.655 854.733 568.527 854.035 567.435Z" fill="url(#paint35_linear)"/>
<path d="M919.474 490.067L904.568 503.558C904.568 503.558 872.359 507.046 870.79 512.261C869.221 517.476 872.911 564.89 872.911 564.89L886 546.797C886 546.797 888.049 540.914 888.834 532.719C889.619 524.524 905.535 523.633 915.229 512.127C924.922 500.621 919.474 490.067 919.474 490.067Z" fill="#6A1048"/>
<path d="M895.148 467.054L899.071 465.564L909.27 497.6L897.458 514.922L885.69 510.452L895.148 467.054Z" fill="#6A1048"/>
<path d="M880.997 493.316C888.998 480.546 891.003 456.03 891.003 456.03L887.764 455.208C887.764 455.208 876.139 481.553 870.798 487.356C867.515 490.922 863.773 495.151 858.001 499.235C856.388 504.412 858.214 503.574 862.002 506.002C865.79 508.431 872.996 506.085 880.997 493.316Z" fill="#6A1048"/>
<path d="M875.763 437.269C875.763 437.269 872.663 436.917 874.06 442.391C861.774 441.989 860.429 438.231 863.822 435.971C867.214 433.711 889.509 437.244 890.297 438.76C891.086 440.276 875.763 437.269 875.763 437.269Z" fill="#4A0B33"/>
<path d="M916.65 501.325C914.586 482.7 898.841 457.369 898.841 457.369L893.306 460.535C893.306 460.535 902.764 490.15 901.98 499.835C901.498 505.788 885.735 520.631 883.151 528.891C881.531 534.069 889.427 537.086 892.565 534.851C895.703 532.616 918.715 519.95 916.65 501.325Z" fill="#6A1048"/>
<path d="M897.421 454.528C897.421 452.557 899.454 442.976 899.454 442.976C899.454 442.976 902.139 442.976 891.769 438.839C881.4 434.703 872.902 442.391 872.902 442.391C872.902 442.391 890.502 440.463 882.896 454.269C881.822 455.635 879.656 455.841 879 457.591C883.114 462.921 880.843 473.116 882.896 469.564C885.695 464.724 894.685 466.355 897.421 472.271C898.91 475.49 897.341 462.376 900.22 463.202C902.631 463.893 914.751 492.256 909.379 474.977C904.007 457.698 897.421 456.5 897.421 454.528Z" fill="#6A1048"/>
<path d="M885.774 437.659C883.464 435.909 874.02 434.817 874.02 434.817C874.02 434.817 873.911 431.406 877.093 429.186C880.274 426.965 888.299 427.517 885.059 429.03C881.819 430.543 888.085 439.409 885.774 437.659Z" fill="url(#paint36_linear)"/>
<path d="M853.505 512.484C857.491 508.686 865.502 504.5 865.502 504.5C865.502 504.5 858.003 504.416 851.866 510.274C845.728 516.132 850.994 567.5 853 567.5C855.006 567.5 849.519 516.283 853.505 512.484Z" fill="url(#paint37_linear)"/>
<path d="M876.489 481.784C879.745 478.463 883.072 468.523 883.072 468.523L882.002 464.88C882.002 464.88 877.903 476.379 874.587 480.453C871.272 484.527 857.974 497.358 858.637 498.624C859.301 499.89 873.233 485.105 876.489 481.784Z" fill="url(#paint38_linear)"/>
<path d="M877.052 445.999C877.135 446.515 875.086 453.328 875.212 453.821C875.618 455.416 877.886 454.065 878.691 454.994C880.969 457.627 880.945 459.173 883.45 458.303C885.955 457.433 886.715 455.853 887.366 452.951C887.825 450.909 889.398 449.245 888.934 446.39C888.525 443.867 889.443 443.106 887.614 442.376C878.599 440.812 874.183 441.305 877.052 445.999Z" fill="url(#paint39_linear)"/>
<path d="M865.802 437.729C862.72 441.704 873.498 443.206 873.857 441.988C875.112 437.729 889.285 440.946 889.67 440.533C890.055 440.12 868.884 433.755 865.802 437.729Z" fill="url(#paint40_linear)"/>
<path d="M881.25 502.966C878.515 500.407 882.766 495.684 883.072 488.742C883.243 484.864 882.79 477.498 883.285 473.957C883.717 470.872 881.018 465.914 882.002 464.88C883.333 464.01 885.107 465.787 887.84 465.26C890.573 464.733 891.323 460.912 892.805 460.477C894.288 460.042 895.238 470.913 891.939 482.654C888.64 494.395 891.956 492.362 895.025 492.048C898.094 491.733 894.266 496.647 889.67 499.797C885.074 502.948 883.985 505.525 881.25 502.966Z" fill="url(#paint41_linear)"/>
<path d="M874.487 516.858C878.474 513.059 891.939 512.658 892.85 510.484C893.761 508.31 877.135 510.161 872.492 514.592C867.849 519.024 871.913 564.021 873.904 564.021C875.895 564.021 870.501 520.656 874.487 516.858Z" fill="url(#paint42_linear)"/>
<path d="M905.603 493.96C905.934 491.114 906.627 486.255 905.249 479.175C903.868 472.081 900.415 465.377 899.751 464.11C898.424 461.577 896.682 461.692 896.682 463.476C896.682 465.26 903.533 484.86 902.87 493.09C902.462 498.149 886.285 504.396 889.319 506.617C889.319 506.617 904.94 499.658 905.603 493.96Z" fill="url(#paint43_linear)"/>
<path d="M893.09 441.311C891.798 441.405 890.941 442.896 890.941 442.896L891.323 449.24C891.323 449.24 891.817 450.255 892.805 450.183C893.793 450.112 894.861 447.259 894.988 444.749C895.114 442.238 894.383 441.218 893.09 441.311Z" fill="url(#paint44_linear)"/>
<path d="M878.835 456.129C877.803 456.68 879.644 459.15 880.453 458.287C881.262 457.424 883.109 456.913 884.498 456.561C886.306 456.103 887.734 458.375 888.543 454.835C888.749 453.934 890.97 448.794 888.948 448.794C885.712 454.403 879.867 455.578 878.835 456.129Z" fill="#6A1048"/>
<path d="M879.584 453.228C878.594 454.107 878.147 454.392 875.824 454.645C875.824 454.645 877.898 455.849 879.147 455.561C880.395 455.273 879.584 453.228 879.584 453.228Z" fill="#6A1048"/>
<path d="M921.631 490.351H956.044L958.562 487.274H919.604L857.884 580.013H859.939L921.631 490.351Z" fill="#A2486B"/>
<path d="M902.356 573.842L916.3 601.281L954.754 603.051L922.216 545.519L959.402 489.315H920.949L846.999 601.281L882.918 603.051L902.356 573.842Z" fill="#4B0B33"/>
<path d="M740.543 549.36L774.413 551.981" stroke="#4A0B33" stroke-width="2"/>
<path d="M840.65 625.563C859.786 625.563 859.786 600.511 859.786 600.511C859.786 600.511 802.376 576.711 795.2 586.106C788.024 595.5 798.231 637.265 798.231 637.265C798.231 637.265 787.865 639.418 790.257 646.934C792.649 654.45 817.063 657.538 820.053 654.406C823.044 651.274 814.304 621.683 816.696 617.926C819.088 614.168 821.513 625.563 840.65 625.563Z" fill="#4A0B33"/>
<path d="M800.974 640.407C798.527 643.712 789.637 644.641 790.033 641.55C790.429 638.458 796.756 639.628 797.153 636.536C797.549 633.445 787.598 594.229 795.74 585.449C799.826 581.044 795.739 591.641 796.328 606.126C796.914 620.509 802.194 638.76 800.974 640.407Z" fill="#E06E77"/>
<path d="M833.467 534.122C855.594 534.648 859.78 601.136 859.78 601.136C859.78 601.136 803.805 585.478 805.36 583.6C819.712 554.791 811.34 533.595 833.467 534.122Z" fill="#4A0B33"/>
<path d="M775.141 552.875C775.141 549.064 829.105 540.208 829.105 540.208L820.208 558.843C820.208 558.843 775.141 556.687 775.141 552.875Z" fill="#4A0B33"/>
<path d="M807.506 526.769C804.646 516.494 812.068 505.386 812.068 505.386L816.816 504.53L827.594 535.818C827.594 535.818 816.232 545.845 820.361 535.482C820.361 530.462 810.366 537.043 807.506 526.769Z" fill="url(#paint45_linear)"/>
<path d="M820.88 538.813C820.88 538.813 776.159 550.68 775.648 551.999C775.137 553.317 776.617 552.438 778.914 552.438C781.21 552.438 818.584 544.966 818.584 544.966L820.88 538.813Z" fill="url(#paint46_linear)"/>
<path d="M807.503 588.324C808.979 593.306 804.939 589.247 803.35 586.476C801.761 583.705 818.401 539.478 820.361 535.482C820.476 535.246 830.081 535.297 823.786 540.571C821.268 541.89 806.296 584.246 807.503 588.324Z" fill="url(#paint47_linear)"/>
<path d="M842.677 520.718C842.677 536.175 850.223 534.417 850.223 534.417C850.223 534.417 848.964 572.655 815.042 556.393C820.846 549.8 820.426 541.449 822.944 534.856C825.462 528.264 816.672 526.357 816.721 524.234C816.77 522.11 818.397 521.984 819.167 518.971C819.937 515.957 818.328 514.638 816.721 515.213C815.115 515.787 813.133 518.971 811.937 518.971C810.741 518.971 810.143 507.071 811.937 504.566C813.731 502.06 814.329 496.424 826.289 497.676C838.25 498.929 842.677 505.26 842.677 520.718Z" fill="#4A0B33"/>
<path d="M872.074 620.527L915.259 559.91L936.252 570.588L891.568 637.488L872.074 620.527Z" fill="#A2486B"/>
<path d="M925.147 658.531L908.053 603.567L895.457 607.336L908.053 649.737L925.147 658.531Z" fill="#4A0B33"/>
<path d="M765.305 626.18L777.001 642.512V637.801L913.154 596.971L890.362 588.805L765.305 626.18Z" fill="#A2486B"/>
<path d="M920.946 619.586L783.293 664.499L788.391 686.171L927.844 639.059L920.946 619.586Z" fill="#A2486B"/>
<path d="M776.7 625.867L758.406 671.722L763.505 670.152L779.999 629.636L776.7 625.867Z" fill="#4A0B33"/>
<path d="M746.41 656.646L758.406 671.722L777 625.866L778.499 607.021L768.003 596.657L746.41 656.646Z" fill="#A2486B"/>
<path d="M782.697 612.676L778.199 607.651L776.699 625.553L780.598 629.95L940.743 585.665L942.543 568.705L782.697 612.676Z" fill="#4A0B33"/>
<path d="M774.303 595.087L768.305 596.657L782.4 612.047L942.545 568.704L922.752 559.91H915.254L929.949 567.762L784.499 606.08L774.303 595.087Z" fill="#A2486B"/>
<path d="M789.897 704.074L774.902 642.2L768.305 657.276L777.602 696.222L789.897 704.074Z" fill="#4A0B33"/>
<path d="M794.4 701.558L780.005 640.941L774.906 641.883L789.901 703.757L794.4 701.558Z" fill="#A2486B"/>
<path d="M929.643 656.018L913.149 602.938L908.051 603.881L925.145 658.217L929.643 656.018Z" fill="#A2486B"/>
<path d="M913.15 596.657L777.297 637.487V642.827L914.95 602.938L913.15 596.657Z" fill="#4A0B33"/>
<path d="M785.399 685.541L788.398 686.484L783.3 664.498L920.953 619.898H916.154L780.301 663.87L785.399 685.541Z" fill="#4A0B33"/>
<path d="M730.887 548.992V546.794C730.887 546.794 727.949 546.354 727.949 547.673C727.949 548.992 730.887 548.992 730.887 548.992Z" fill="#A2486B"/>
<path d="M741.182 544.491L740.228 553.613L731.318 553.025L732.2 543.4L741.182 544.491Z" fill="#A2486B"/>
<ellipse rx="4.77306" ry="1.70187" transform="matrix(-0.0923995 1.00829 -0.981868 -0.0986903 731.759 548.211)" fill="#A2486B"/>
<ellipse rx="4.54473" ry="1.36592" transform="matrix(-0.0923995 1.00829 -0.981868 -0.0986903 740.622 549.089)" fill="#4A0B33"/>
<path opacity="0.8" d="M566.422 602.983C566.422 602.983 398.972 610.894 396.034 595.95C394.856 589.955 425.708 580.44 453.53 576.172C495.052 569.802 544.645 563.426 544.645 563.426L566.422 602.983Z" fill="#612B48"/>
<path d="M579.406 544.101L568.186 566.096L537.248 567.515L563.426 521.397L533.508 476.343H564.446L623.944 566.096L595.045 567.515L579.406 544.101Z" fill="#4B0B33"/>
<path d="M533.937 475.901L500.129 490.064L495.48 493.605L509.004 514.406L544.924 493.162L533.937 475.901Z" fill="#A2486B"/>
<path d="M591.834 519.274L574.93 541.846L536.051 534.765L553.8 513.078H591.834V519.274Z" fill="#A2486B"/>
<path d="M537.315 491.392H503.508L501.395 490.064H538.583L612.96 601.595H610.425L537.315 491.392Z" fill="#A2486B"/>
<path d="M563.473 476.976H536.068L534.355 475.901H564.501L624.791 566.188H622.736L563.473 476.976Z" fill="#A2486B"/>
<path d="M545.671 506.489L558.535 513.58C558.535 513.58 586.332 529.357 587.686 534.32C589.04 539.284 584.94 590.16 584.94 590.16L570.722 592.287C570.722 592.287 572.79 554.883 572.113 547.083C571.436 539.284 544.316 534.852 541.608 527.761C538.9 520.67 545.671 506.489 545.671 506.489Z" fill="#6A1048"/>
<path d="M566.656 473.163L563.271 471.745L554.469 502.235L564.662 518.722L574.818 514.467L566.656 473.163Z" fill="#6A1048"/>
<path d="M579.596 492.271C572.691 480.117 572.248 456.589 572.248 456.589L575.043 455.807C575.043 455.807 585.071 481.821 589.68 487.343C592.514 490.738 617.875 483.456 622.856 487.343C624.248 492.271 618.863 492.516 615.594 494.828C612.325 497.139 586.501 504.424 579.596 492.271Z" fill="#6A1048"/>
<path d="M590.051 463.386C591.405 459.131 597.22 446.96 593.187 438.043C593.187 443.716 588.339 453.308 588.339 453.308C588.339 453.308 573.222 465.033 576.607 464.324C579.993 463.615 578.481 477.934 583.777 477.934C589.074 477.934 588.696 467.64 590.051 463.386Z" fill="#4B0B33"/>
<path d="M604.61 513.346C599.871 506.964 577.528 509.502 577.528 509.502L554.508 521.855L570.08 540.291C570.08 540.291 589.038 528.945 591.746 531.073C594.454 533.201 593.1 579.29 593.1 579.29H603.256C603.256 579.29 609.349 519.728 604.61 513.346Z" fill="#6A1048"/>
<path d="M542.283 505.78C544.065 488.053 560.563 463.944 560.563 463.944L565.34 466.958C565.34 466.958 557.178 495.144 557.855 504.362C558.271 510.027 571.874 524.155 574.105 532.016C575.503 536.944 568.688 539.816 565.98 537.688C563.272 535.561 540.501 523.507 542.283 505.78Z" fill="#6A1048"/>
<path d="M601.904 516.183C597.835 511.929 572.113 513.048 571.436 510.211C570.759 507.375 601.897 507.675 606.636 512.638C611.376 517.602 605.96 557.31 603.928 557.31C601.896 557.31 605.973 520.438 601.904 516.183Z" fill="url(#paint48_linear)"/>
<path d="M584.976 486.103C581.653 482.383 574.39 460.531 574.39 460.531L577.507 460.199C577.507 460.199 584.24 478.104 588.85 483.627C591.683 487.021 622.856 485.969 622.856 487.113C622.856 488.258 588.3 489.822 584.976 486.103Z" fill="url(#paint49_linear)"/>
<path d="M592.21 449.818C591.654 453.581 597.22 458.692 592.21 458.692C590.498 458.692 591.791 461.331 589.602 462.447C587.271 463.635 589.154 468.078 580.771 465.13C575.598 464.291 566.868 457.503 568.012 449.763C569.157 442.023 576.143 439.127 584.915 437.101C594.532 438.043 595.373 444.314 592.21 449.818Z" fill="url(#paint50_linear)"/>
<path d="M579.522 511.452C580.876 509.325 582.23 477.417 580.199 473.871C578.168 470.326 565.304 462.526 565.304 468.908C565.304 475.289 563.95 487.344 563.273 490.889C562.596 494.434 561.279 505.957 561.279 505.957C561.279 505.957 565.342 515.884 568.727 515.884C572.112 515.884 578.168 513.58 579.522 511.452Z" fill="url(#paint51_linear)"/>
<path d="M584.321 534.719C580.252 530.464 566.019 520.847 565.342 518.011C564.665 515.175 581.618 527.218 586.357 532.181C591.097 537.145 589.738 583.645 587.706 583.645C585.674 583.645 588.39 538.973 584.321 534.719Z" fill="url(#paint52_linear)"/>
<path d="M552.441 504.361C551.764 497.98 557.179 474.58 558.534 471.744C559.888 468.908 563.273 469.617 562.596 471.035C561.919 472.453 557.177 495.143 557.854 504.361C558.27 510.027 577.507 528.941 574.103 532.015C574.103 532.015 553.118 510.743 552.441 504.361Z" fill="url(#paint53_linear)"/>
<path d="M578.847 476.709C578.847 470.327 572.154 455.782 577.608 443.728C581.18 435.835 569.046 442.301 562.635 452.777C559.256 458.299 556.523 465.777 556.523 467.49C556.523 472.454 568.691 473.163 570.045 476.709C571.399 480.254 569.368 492.308 571.399 492.308C573.43 492.308 578.847 483.09 578.847 476.709Z" fill="#6A1048"/>
<path d="M558.544 449.972C557.19 453.517 560.575 458.481 563.96 458.481C567.346 458.481 568.705 457.772 577.507 449.972C586.309 442.172 594.537 445.194 594.537 445.194C594.537 445.194 594.535 433.691 586.303 431.536C578.072 429.381 578.179 431.536 572.085 435.79C565.992 440.045 559.898 446.427 558.544 449.972Z" fill="#4B0B33"/>
<path d="M620.07 489.199L682.277 476.735" stroke="#4B0B33" stroke-width="2"/>
<path d="M557.179 575.129L543.33 602.485L505.14 604.25L537.455 546.89L500.523 490.854H538.714L612.157 602.485L576.484 604.25L557.179 575.129Z" fill="#4B0B33"/>
<path d="M537.037 493.542H502.624L500.105 490.465H539.064L600.784 583.204H598.729L537.037 493.542Z" fill="#A2486B"/>
<path d="M684.967 470.146L687.027 480.127L677.425 482.791L675.12 472.307L684.967 470.146Z" fill="url(#paint54_linear)"/>
<path d="M677.425 482.791C676.42 483.034 675.089 480.883 674.453 477.988C673.816 475.093 674.115 472.549 675.12 472.307C676.126 472.064 677.456 474.215 678.093 477.11C678.73 480.005 678.431 482.549 677.425 482.791Z" fill="url(#paint55_linear)"/>
<ellipse rx="5.116" ry="1.50107" transform="matrix(0.214516 0.975661 -0.973228 0.234699 685.926 475.209)" fill="#6A1048"/>
<path d="M701.2 466.152L703.312 476.121L693.724 478.839L691.365 468.368L701.2 466.152Z" fill="url(#paint56_linear)"/>
<path d="M693.724 478.839C692.72 479.088 691.378 476.945 690.726 474.053C690.075 471.161 690.361 468.616 691.365 468.368C692.369 468.12 693.711 470.263 694.362 473.155C695.013 476.046 694.728 478.591 693.724 478.839Z" fill="url(#paint57_linear)"/>
<ellipse rx="5.11581" ry="1.50113" transform="matrix(0.219533 0.974477 -0.971967 0.240168 702.191 471.207)" fill="#6A1048"/>
<path d="M686.451 474.681C685.916 474.82 685.587 475.366 685.716 475.902C685.846 476.438 686.385 476.761 686.92 476.622L686.451 474.681ZM690.445 475.711L691.414 475.46L690.945 473.519L689.976 473.77L690.445 475.711ZM686.92 476.622L690.445 475.711L689.976 473.77L686.451 474.681L686.92 476.622Z" fill="#4B0B33"/>
<path d="M703.405 471.081L706.929 470.17" stroke="#4B0B33" stroke-width="2" stroke-linecap="round"/>
<path d="M579.417 444.755C585.522 440.155 591.168 442.904 591.587 441.678C592.007 440.452 590.348 436.846 587.82 435.237C585.291 433.628 583.161 434.206 581.751 435.609C580.341 437.013 578.797 438.148 577.201 440.64C575.605 443.132 573.312 449.355 579.417 444.755Z" fill="#E26276" fill-opacity="0.7"/>
<g opacity="0.7">
<path d="M607.207 727.805L574.472 750.66L526.21 772.196C526.21 772.196 489.698 796.37 480.465 786.701C471.233 777.031 495.574 761.648 495.574 761.648L550.551 704.071C550.551 704.071 669.946 646.73 677.5 650.685C678.704 651.316 666.796 655.383 664.419 657.399C669.497 655.718 686.393 651.774 688 653.288C696.393 661.2 607.207 727.805 607.207 727.805Z" fill="#5A2441"/>
<path d="M502.288 687.808L545.934 657.481L553.069 660.248L540.059 671.107L660.505 719.893L670.577 715.498L682.328 704.95L655.889 754.176L502.288 687.808Z" fill="#5A2441"/>
<path d="M674.775 744.507C682.267 742.638 711.309 695.918 718.84 681.216C720.168 678.624 730.591 659.24 730.591 659.24L717.581 674.183L712.125 672.425C712.125 672.425 665.961 746.704 674.775 744.507Z" fill="#5A2441"/>
<path d="M631.128 799.886C647.496 799.886 699.619 695.28 699.619 695.28L682.412 707.587C682.412 707.587 614.761 799.886 631.128 799.886Z" fill="#5A2441"/>
<path d="M454.445 718.135L502.288 686.929L515.298 691.894L506.905 699.675L641.62 760.769L651.692 749.341L655.049 753.737L628.19 801.644L454.445 718.135Z" fill="#5A2441"/>
</g>
<path d="M633.369 634.813C614.137 634.813 614.137 609.636 614.137 609.636C614.137 609.636 671.833 585.718 679.045 595.159C686.257 604.601 682.05 648.661 682.05 648.661C682.05 648.661 694.071 645.514 691.666 653.067C689.262 660.62 672.434 663.767 669.429 660.62C666.424 657.473 673.636 621.595 671.232 617.819C668.828 614.042 652.601 634.813 633.369 634.813Z" fill="#4B0B33"/>
<path d="M640.58 542.915C618.343 543.444 614.136 610.264 614.136 610.264C614.136 610.264 670.39 594.528 668.827 592.64C654.404 563.687 662.818 542.386 640.58 542.915Z" fill="#4B0B33"/>
<path d="M651.542 545.83C651.542 538.817 663.07 546.511 665.888 536.252C666.663 533.431 665.888 530.544 668.591 529.115C671.002 527.839 667.906 524.774 666.698 520.352C665.583 516.267 664.707 509.803 661.35 509.803C657.993 509.803 657.517 513.17 657.517 513.17L646.895 544.41C646.895 544.41 651.542 547.989 651.542 545.83Z" fill="url(#paint58_linear)"/>
<path d="M681.914 648.252C684.432 650.01 686.53 648.252 690.307 648.252C694.084 648.252 683.288 648.439 682.753 645.615C682.218 642.791 684.432 600.433 680.163 595.925C675.895 591.417 680.993 597.512 681.233 615.128C681.84 628.503 679.396 646.494 681.914 648.252Z" fill="url(#paint59_linear)"/>
<path d="M666.363 597.512C664.909 602.54 668.89 598.443 670.456 595.646C672.022 592.85 653.783 548.157 652.431 548.43C651.08 548.702 667.817 592.483 666.363 597.512Z" fill="url(#paint60_linear)"/>
<path d="M655.534 546.744C655.534 546.744 657.354 545.315 652.804 539.597C648.255 533.88 632.787 528.639 628.692 533.88C624.598 539.121 624.597 562.944 628.692 564.85C632.786 566.755 653.259 553.891 656.899 551.985C660.538 550.079 655.534 546.744 655.534 546.744Z" fill="#4B0B33"/>
<path d="M635.949 535.025C636.55 543.207 640.845 545.267 640.845 545.267C640.845 545.267 644.939 552.191 644.939 545.267C644.939 538.343 658.186 536.673 656.984 534.785C655.782 532.896 655.181 530.619 655.181 528.731C655.181 526.842 655.181 524.954 656.984 524.954C658.787 524.954 658.296 528.731 659.498 528.731C660.7 528.731 663.595 516.771 661.792 514.254C660.694 512.721 664.85 505.408 661.792 503.815C659.829 502.792 652.067 506.838 647.368 507.33C635.348 508.589 635.348 526.843 635.949 535.025Z" fill="#4B0B33"/>
<path d="M604.656 623.163L561.471 562.546L540.478 573.225L585.163 640.124L604.656 623.163Z" fill="#A3486B"/>
<path d="M551.576 661.168L568.67 606.204L581.266 609.973L568.67 652.374L551.576 661.168Z" fill="#4B0B33"/>
<path d="M711.418 628.817L699.722 645.15V640.438L563.569 599.608L586.361 591.442L711.418 628.817Z" fill="#A3486B"/>
<path d="M555.777 622.223L693.43 667.137L688.331 688.808L548.879 641.696L555.777 622.223Z" fill="#A3486B"/>
<path d="M700.023 628.503L718.316 674.359L713.218 672.789L696.724 632.272L700.023 628.503Z" fill="#4B0B33"/>
<path d="M730.312 659.283L718.317 674.359L699.723 628.503L698.223 609.659L708.72 599.294L730.312 659.283Z" fill="#A3486B"/>
<path d="M694.025 615.312L698.524 610.287L700.023 628.189L696.125 632.587L535.98 588.301L534.18 571.341L694.025 615.312Z" fill="#4B0B33"/>
<path d="M702.42 597.723L708.418 599.294L694.323 614.684L534.178 571.341L553.971 562.546H561.468L546.773 570.398L692.224 608.716L702.42 597.723Z" fill="#A3486B"/>
<path d="M686.825 706.711L701.82 644.837L708.418 659.913L699.121 698.859L686.825 706.711Z" fill="#4B0B33"/>
<path d="M682.323 704.197L696.718 643.579L701.816 644.521L686.822 706.395L682.323 704.197Z" fill="#A3486B"/>
<path d="M547.079 658.654L563.574 605.575L568.672 606.517L551.578 660.853L547.079 658.654Z" fill="#A3486B"/>
<path d="M563.572 599.294L699.426 640.124V645.464L561.773 605.576L563.572 599.294Z" fill="#4B0B33"/>
<path d="M691.324 688.177L688.325 689.12L693.423 667.134L555.77 622.535H560.568L696.422 666.506L691.324 688.177Z" fill="#4B0B33"/>
</g>
<rect y="793.315" width="1440" height="118.685" fill="white"/>
<path d="M116.398 339.659V854.74L-6.55605 864.74L-0.846153 50.4153L-29 -10.4357L-18.2659 -22.1377L-0.846153 10.6281L5.15385 -38.5207H107.615V298.312L148.6 263.986V280.369L116.398 339.659Z" fill="url(#paint61_linear)"/>
<path d="M1345.3 590.206V844.844H1453.33L1443.04 46.3028L1473.05 -23.1316L1463.62 -36.4844L1443.04 0.903393V-55.1782H1353.01V543.026L1317 503.858V522.551L1345.3 590.206Z" fill="url(#paint62_linear)"/>
<path d="M404.341 752.597C420.801 751.74 432.322 791.153 432.322 791.153L-89 853.074C-89 853.074 -78.7472 745.742 -55.7038 745.742C-32.6604 745.742 -32.6604 707.187 -20.3158 703.759C-7.97108 700.331 -5.50216 663.489 19.1872 648.924C43.8766 634.359 44.6995 587.235 66.097 570.099C87.4944 552.962 155.802 538.396 182.137 552.962C208.472 567.527 226.578 599.229 246.329 606.941C266.081 614.652 253.736 606.941 299 614.653C344.264 622.364 327.804 714.898 347.556 734.604C367.307 754.311 387.882 753.453 404.341 752.597Z" fill="url(#paint63_linear)"/>
<path d="M0 911.791C0 911.791 277.316 796.895 720 796.895C1162.68 796.895 1440 910.552 1440 910.552V844.158C1440 844.158 1191.63 774.378 720 774.378C248.37 774.378 0 856.617 0 856.617V911.791Z" fill="url(#paint64_linear)"/>
<path d="M1116.63 783.685C1103.7 783.013 1072.68 813.963 1094.66 813.963C1116.63 813.963 1230.51 829.838 1313.88 824.972C1397.25 820.106 1492.5 845.006 1501.6 824.964C1510.7 804.922 1495.99 778.302 1477.9 778.302C1459.8 778.302 1459.8 748.025 1450.11 745.333C1440.41 742.642 1438.48 713.71 1419.09 702.272C1399.7 690.834 1399.05 653.828 1382.25 640.371C1365.45 626.914 1311.81 615.476 1291.12 626.914C1270.44 638.352 1256.23 663.247 1240.71 669.303C1225.2 675.359 1234.9 669.303 1199.35 675.359C1163.81 681.415 1176.73 754.08 1161.22 769.556C1145.71 785.031 1129.55 784.358 1116.63 783.685Z" fill="url(#paint65_linear)"/>
<path d="M1147.03 746.565C1155.99 752.982 1155.99 766.887 1155.99 766.887C1155.99 766.887 1141.06 766.887 1135.08 760.469C1129.11 754.052 1130.1 738.008 1130.1 738.008C1130.1 738.008 1138.07 740.147 1147.03 746.565Z" fill="url(#paint66_linear)"/>
<path d="M1280 617.565C1287.1 622.533 1287.1 633.298 1287.1 633.298C1287.1 633.298 1275.26 633.298 1270.52 628.33C1265.78 623.361 1266.57 610.94 1266.57 610.94C1266.57 610.94 1272.89 612.596 1280 617.565Z" fill="url(#paint67_linear)"/>
<path d="M1308.03 609.681C1314.09 618.013 1310.13 629.878 1310.13 629.878C1310.13 629.878 1296.98 625.118 1293.55 617.737C1290.12 610.357 1295.57 596.984 1295.57 596.984C1295.57 596.984 1301.97 601.348 1308.03 609.681Z" fill="url(#paint68_linear)"/>
</g>
<defs>
<filter id="filter0_d" x="595" y="451" width="276" height="174" filterUnits="userSpaceOnUse" color-interpolation-filters="sRGB">
<feFlood flood-opacity="0" result="BackgroundImageFix"/>
<feColorMatrix in="SourceAlpha" type="matrix" values="0 0 0 0 0 0 0 0 0 0 0 0 0 0 0 0 0 0 127 0"/>
<feOffset dy="-23"/>
<feGaussianBlur stdDeviation="37"/>
<feColorMatrix type="matrix" values="0 0 0 0 1 0 0 0 0 0.52549 0 0 0 0 0.247059 0 0 0 0.3 0"/>
<feBlend mode="normal" in2="BackgroundImageFix" result="effect1_dropShadow"/>
<feBlend mode="normal" in="SourceGraphic" in2="effect1_dropShadow" result="shape"/>
</filter>
<filter id="filter1_d" x="628" y="388" width="219.972" height="232.09" filterUnits="userSpaceOnUse" color-interpolation-filters="sRGB">
<feFlood flood-opacity="0" result="BackgroundImageFix"/>
<feColorMatrix in="SourceAlpha" type="matrix" values="0 0 0 0 0 0 0 0 0 0 0 0 0 0 0 0 0 0 127 0"/>
<feOffset dy="-23"/>
<feGaussianBlur stdDeviation="37"/>
<feColorMatrix type="matrix" values="0 0 0 0 1 0 0 0 0 0.52549 0 0 0 0 0.247059 0 0 0 0.3 0"/>
<feBlend mode="normal" in2="BackgroundImageFix" result="effect1_dropShadow"/>
<feBlend mode="normal" in="SourceGraphic" in2="effect1_dropShadow" result="shape"/>
</filter>
<linearGradient id="paint0_linear" x1="730.461" y1="-51.3499" x2="730.461" y2="569.593" gradientUnits="userSpaceOnUse">
<stop stop-color="#182234"/>
<stop offset="1" stop-color="#AE3562"/>
</linearGradient>
<linearGradient id="paint1_linear" x1="104.042" y1="203.032" x2="104.042" y2="279.484" gradientUnits="userSpaceOnUse">
<stop stop-color="white" stop-opacity="0.24"/>
<stop offset="1" stop-color="white" stop-opacity="0.34"/>
</linearGradient>
<linearGradient id="paint2_linear" x1="1014.73" y1="20.8996" x2="1014.73" y2="70.4113" gradientUnits="userSpaceOnUse">
<stop stop-color="white" stop-opacity="0.24"/>
<stop offset="1" stop-color="white" stop-opacity="0.34"/>
</linearGradient>
<linearGradient id="paint3_linear" x1="1127.34" y1="311.823" x2="1127.34" y2="369.344" gradientUnits="userSpaceOnUse">
<stop stop-color="white" stop-opacity="0.24"/>
<stop offset="1" stop-color="white" stop-opacity="0.34"/>
</linearGradient>
<linearGradient id="paint4_linear" x1="804.556" y1="562.106" x2="821.079" y2="534.904" gradientUnits="userSpaceOnUse">
<stop stop-color="#FFCC5C"/>
<stop offset="0.447917" stop-color="#434A77"/>
<stop offset="1" stop-color="#092043"/>
</linearGradient>
<linearGradient id="paint5_linear" x1="808.12" y1="552.368" x2="827.333" y2="561.573" gradientUnits="userSpaceOnUse">
<stop stop-color="#FFCC5C"/>
<stop offset="0.447917" stop-color="#434A77"/>
<stop offset="1" stop-color="#092043"/>
</linearGradient>
<linearGradient id="paint6_linear" x1="770.771" y1="555.858" x2="781.817" y2="528.715" gradientUnits="userSpaceOnUse">
<stop stop-color="#FF863F"/>
<stop offset="0.447917" stop-color="#434A77"/>
<stop offset="1" stop-color="#092043"/>
</linearGradient>
<linearGradient id="paint7_linear" x1="724.231" y1="551.817" x2="730.672" y2="517.106" gradientUnits="userSpaceOnUse">
<stop stop-color="#FF863F"/>
<stop offset="0.447917" stop-color="#434A77"/>
<stop offset="1" stop-color="#092043"/>
</linearGradient>
<radialGradient id="paint8_radial" cx="0" cy="0" r="1" gradientUnits="userSpaceOnUse" gradientTransform="translate(675.22 553.443) rotate(-107.275) scale(23.8182 43.0857)">
<stop stop-color="#FF863F"/>
<stop offset="0.447917" stop-color="#434A77"/>
<stop offset="1" stop-color="#092043"/>
</radialGradient>
<linearGradient id="paint9_linear" x1="696.437" y1="552.193" x2="691.51" y2="535.27" gradientUnits="userSpaceOnUse">
<stop stop-color="#FF863F"/>
<stop offset="0.447917" stop-color="#434A77"/>
<stop offset="1" stop-color="#092043"/>
</linearGradient>
<linearGradient id="paint10_linear" x1="733.947" y1="519.807" x2="733.947" y2="580.456" gradientUnits="userSpaceOnUse">
<stop stop-color="#342547"/>
<stop offset="1" stop-color="#0F1B31"/>
</linearGradient>
<linearGradient id="paint11_linear" x1="733.003" y1="574.131" x2="732.813" y2="557.633" gradientUnits="userSpaceOnUse">
<stop offset="0.0625" stop-color="#FFE7AE"/>
<stop offset="0.619792" stop-color="#FDCA5C"/>
<stop offset="1" stop-color="#FE863E"/>
</linearGradient>
<linearGradient id="paint12_linear" x1="1012.13" y1="628.548" x2="1021.27" y2="636.209" gradientUnits="userSpaceOnUse">
<stop stop-color="#9A7627"/>
<stop offset="0.447917" stop-color="#434A77"/>
<stop offset="1" stop-color="#092043"/>
</linearGradient>
<linearGradient id="paint13_linear" x1="603.171" y1="611.404" x2="598.939" y2="614.951" gradientUnits="userSpaceOnUse">
<stop stop-color="#FFCC5C"/>
<stop offset="0.447917" stop-color="#434A77"/>
<stop offset="1" stop-color="#092043"/>
</linearGradient>
<linearGradient id="paint14_linear" x1="662.567" y1="553.451" x2="643.355" y2="562.656" gradientUnits="userSpaceOnUse">
<stop stop-color="#FFCC5C"/>
<stop offset="0.447917" stop-color="#434A77"/>
<stop offset="1" stop-color="#092043"/>
</linearGradient>
<linearGradient id="paint15_linear" x1="357.79" y1="573.691" x2="353.543" y2="577.219" gradientUnits="userSpaceOnUse">
<stop stop-color="#9A7627"/>
<stop offset="0.447917" stop-color="#434A77"/>
<stop offset="1" stop-color="#092043"/>
</linearGradient>
<linearGradient id="paint16_linear" x1="739.166" y1="629.578" x2="740.793" y2="640.237" gradientUnits="userSpaceOnUse">
<stop stop-color="#7B5D1B"/>
<stop offset="0.447917" stop-color="#434A77"/>
<stop offset="1" stop-color="#092043"/>
</linearGradient>
<linearGradient id="paint17_linear" x1="1144.17" y1="581.922" x2="1148.41" y2="585.45" gradientUnits="userSpaceOnUse">
<stop stop-color="#9A7627"/>
<stop offset="0.447917" stop-color="#434A77"/>
<stop offset="1" stop-color="#092043"/>
</linearGradient>
<linearGradient id="paint18_linear" x1="671.181" y1="561.565" x2="651.968" y2="570.77" gradientUnits="userSpaceOnUse">
<stop stop-color="#FFCC5C"/>
<stop offset="0.447917" stop-color="#434A77"/>
<stop offset="1" stop-color="#092043"/>
</linearGradient>
<linearGradient id="paint19_linear" x1="685.833" y1="561.023" x2="674.761" y2="576.572" gradientUnits="userSpaceOnUse">
<stop stop-color="#FFCC5C"/>
<stop offset="0.447917" stop-color="#434A77"/>
<stop offset="1" stop-color="#092043"/>
</linearGradient>
<linearGradient id="paint20_linear" x1="815.7" y1="559.62" x2="829.365" y2="561.998" gradientUnits="userSpaceOnUse">
<stop stop-color="#FFCC5C"/>
<stop offset="0.447917" stop-color="#434A77"/>
<stop offset="1" stop-color="#092043"/>
</linearGradient>
<linearGradient id="paint21_linear" x1="786.368" y1="563.732" x2="805.161" y2="577.69" gradientUnits="userSpaceOnUse">
<stop stop-color="#FFCC5C"/>
<stop offset="0.447917" stop-color="#434A77"/>
<stop offset="1" stop-color="#092043"/>
</linearGradient>
<linearGradient id="paint22_linear" x1="56.9252" y1="-6.59694" x2="56.9252" y2="562.183" gradientUnits="userSpaceOnUse">
<stop stop-color="#182234"/>
<stop offset="1" stop-color="#76395A"/>
</linearGradient>
<linearGradient id="paint23_linear" x1="1237.5" y1="151.775" x2="1237.5" y2="622.576" gradientUnits="userSpaceOnUse">
<stop stop-color="#182234"/>
<stop offset="1" stop-color="#76395A"/>
</linearGradient>
<linearGradient id="paint24_linear" x1="309.808" y1="92.4785" x2="309.808" y2="563.512" gradientUnits="userSpaceOnUse">
<stop stop-color="#182234"/>
<stop offset="1" stop-color="#76395A"/>
</linearGradient>
<linearGradient id="paint25_linear" x1="1137.9" y1="143.478" x2="1137.9" y2="614.511" gradientUnits="userSpaceOnUse">
<stop stop-color="#182234"/>
<stop offset="1" stop-color="#76395A"/>
</linearGradient>
<linearGradient id="paint26_linear" x1="156.582" y1="92.4785" x2="156.582" y2="563.512" gradientUnits="userSpaceOnUse">
<stop stop-color="#182234"/>
<stop offset="1" stop-color="#76395A"/>
</linearGradient>
<linearGradient id="paint27_linear" x1="228.516" y1="93.8301" x2="228.516" y2="564.863" gradientUnits="userSpaceOnUse">
<stop stop-color="#182234"/>
<stop offset="1" stop-color="#76395A"/>
</linearGradient>
<linearGradient id="paint28_linear" x1="1328.52" y1="93.8301" x2="1328.52" y2="564.863" gradientUnits="userSpaceOnUse">
<stop stop-color="#182234"/>
<stop offset="1" stop-color="#76395A"/>
</linearGradient>
<linearGradient id="paint29_linear" x1="738.476" y1="44.4179" x2="740.139" y2="559.78" gradientUnits="userSpaceOnUse">
<stop stop-color="#FED16F" stop-opacity="0.05"/>
<stop offset="1" stop-color="#FF873F" stop-opacity="0.33"/>
</linearGradient>
<linearGradient id="paint30_linear" x1="741.914" y1="569.559" x2="738.029" y2="510.629" gradientUnits="userSpaceOnUse">
<stop offset="0.0625" stop-color="#FFE7AE"/>
<stop offset="0.307292" stop-color="#FDCA5C"/>
<stop offset="0.541667" stop-color="#FA9142"/>
<stop offset="0.984375" stop-color="#EC5440"/>
</linearGradient>
<linearGradient id="paint31_linear" x1="766.27" y1="561.368" x2="771.112" y2="580.192" gradientUnits="userSpaceOnUse">
<stop stop-color="#FFCC5C"/>
<stop offset="0.447917" stop-color="#434A77"/>
<stop offset="1" stop-color="#092043"/>
</linearGradient>
<linearGradient id="paint32_linear" x1="713.215" y1="555.019" x2="706.504" y2="577.498" gradientUnits="userSpaceOnUse">
<stop stop-color="#FFCC5C"/>
<stop offset="0.447917" stop-color="#434A77"/>
<stop offset="1" stop-color="#092043"/>
</linearGradient>
<linearGradient id="paint33_linear" x1="749.161" y1="554.268" x2="749.237" y2="579.102" gradientUnits="userSpaceOnUse">
<stop stop-color="#FFCC5C"/>
<stop offset="0.447917" stop-color="#434A77"/>
<stop offset="1" stop-color="#092043"/>
</linearGradient>
<linearGradient id="paint34_linear" x1="417.889" y1="608.254" x2="410.605" y2="612.702" gradientUnits="userSpaceOnUse">
<stop stop-color="#9A7627"/>
<stop offset="0.447917" stop-color="#434A77"/>
<stop offset="1" stop-color="#092043"/>
</linearGradient>
<linearGradient id="paint35_linear" x1="868.203" y1="547.544" x2="834.424" y2="573.37" gradientUnits="userSpaceOnUse">
<stop stop-color="#E05E77"/>
<stop offset="1" stop-color="#EE8063"/>
</linearGradient>
<linearGradient id="paint36_linear" x1="889.704" y1="436.9" x2="826.9" y2="544.772" gradientUnits="userSpaceOnUse">
<stop stop-color="#A93756"/>
<stop offset="1" stop-color="#EE8063"/>
</linearGradient>
<linearGradient id="paint37_linear" x1="889.704" y1="436.9" x2="826.9" y2="544.772" gradientUnits="userSpaceOnUse">
<stop stop-color="#A93756"/>
<stop offset="1" stop-color="#EE8063"/>
</linearGradient>
<linearGradient id="paint38_linear" x1="889.704" y1="436.9" x2="826.9" y2="544.772" gradientUnits="userSpaceOnUse">
<stop stop-color="#A93756"/>
<stop offset="1" stop-color="#EE8063"/>
</linearGradient>
<linearGradient id="paint39_linear" x1="889.704" y1="436.9" x2="826.9" y2="544.772" gradientUnits="userSpaceOnUse">
<stop stop-color="#A93756"/>
<stop offset="1" stop-color="#EE8063"/>
</linearGradient>
<linearGradient id="paint40_linear" x1="889.704" y1="436.9" x2="826.9" y2="544.772" gradientUnits="userSpaceOnUse">
<stop stop-color="#A93756"/>
<stop offset="1" stop-color="#EE8063"/>
</linearGradient>
<linearGradient id="paint41_linear" x1="889.704" y1="436.9" x2="826.9" y2="544.772" gradientUnits="userSpaceOnUse">
<stop stop-color="#A93756"/>
<stop offset="1" stop-color="#EE8063"/>
</linearGradient>
<linearGradient id="paint42_linear" x1="889.704" y1="436.9" x2="826.9" y2="544.772" gradientUnits="userSpaceOnUse">
<stop stop-color="#A93756"/>
<stop offset="1" stop-color="#EE8063"/>
</linearGradient>
<linearGradient id="paint43_linear" x1="889.704" y1="436.9" x2="826.9" y2="544.772" gradientUnits="userSpaceOnUse">
<stop stop-color="#A93756"/>
<stop offset="1" stop-color="#EE8063"/>
</linearGradient>
<linearGradient id="paint44_linear" x1="889.704" y1="436.9" x2="826.9" y2="544.772" gradientUnits="userSpaceOnUse">
<stop stop-color="#A93756"/>
<stop offset="1" stop-color="#EE8063"/>
</linearGradient>
<linearGradient id="paint45_linear" x1="813.5" y1="505" x2="758.5" y2="561.5" gradientUnits="userSpaceOnUse">
<stop stop-color="#BB495B"/>
<stop offset="1" stop-color="#EA7B63"/>
</linearGradient>
<linearGradient id="paint46_linear" x1="813.5" y1="505" x2="758.5" y2="561.5" gradientUnits="userSpaceOnUse">
<stop stop-color="#BB495B"/>
<stop offset="1" stop-color="#EA7B63"/>
</linearGradient>
<linearGradient id="paint47_linear" x1="813.5" y1="505" x2="758.5" y2="561.5" gradientUnits="userSpaceOnUse">
<stop stop-color="#BB495B"/>
<stop offset="1" stop-color="#EA7B63"/>
</linearGradient>
<linearGradient id="paint48_linear" x1="565.5" y1="431.014" x2="709.656" y2="498.784" gradientUnits="userSpaceOnUse">
<stop stop-color="#A93756"/>
<stop offset="1" stop-color="#FEA64D"/>
</linearGradient>
<linearGradient id="paint49_linear" x1="565.5" y1="431.014" x2="709.656" y2="498.784" gradientUnits="userSpaceOnUse">
<stop stop-color="#A93756"/>
<stop offset="1" stop-color="#FEA64D"/>
</linearGradient>
<linearGradient id="paint50_linear" x1="565.5" y1="431.014" x2="709.656" y2="498.784" gradientUnits="userSpaceOnUse">
<stop stop-color="#A93756"/>
<stop offset="1" stop-color="#FEA64D"/>
</linearGradient>
<linearGradient id="paint51_linear" x1="565.5" y1="431.014" x2="709.656" y2="498.784" gradientUnits="userSpaceOnUse">
<stop stop-color="#A93756"/>
<stop offset="1" stop-color="#FEA64D"/>
</linearGradient>
<linearGradient id="paint52_linear" x1="565.5" y1="431.014" x2="709.656" y2="498.784" gradientUnits="userSpaceOnUse">
<stop stop-color="#A93756"/>
<stop offset="1" stop-color="#FEA64D"/>
</linearGradient>
<linearGradient id="paint53_linear" x1="565.5" y1="431.014" x2="709.656" y2="498.784" gradientUnits="userSpaceOnUse">
<stop stop-color="#A93756"/>
<stop offset="1" stop-color="#FEA64D"/>
</linearGradient>
<linearGradient id="paint54_linear" x1="700.282" y1="492.381" x2="682.875" y2="469.55" gradientUnits="userSpaceOnUse">
<stop stop-color="#FFB20B"/>
<stop offset="1" stop-color="#832056"/>
</linearGradient>
<linearGradient id="paint55_linear" x1="700.282" y1="492.381" x2="682.875" y2="469.55" gradientUnits="userSpaceOnUse">
<stop stop-color="#FFB20B"/>
<stop offset="1" stop-color="#832056"/>
</linearGradient>
<linearGradient id="paint56_linear" x1="716.629" y1="488.3" x2="699.102" y2="465.57" gradientUnits="userSpaceOnUse">
<stop stop-color="#FFB20B"/>
<stop offset="1" stop-color="#8C245D"/>
</linearGradient>
<linearGradient id="paint57_linear" x1="716.629" y1="488.3" x2="699.102" y2="465.57" gradientUnits="userSpaceOnUse">
<stop stop-color="#FFB20B"/>
<stop offset="1" stop-color="#8C245D"/>
</linearGradient>
<linearGradient id="paint58_linear" x1="650" y1="505" x2="710" y2="561" gradientUnits="userSpaceOnUse">
<stop stop-color="#B03E58"/>
<stop offset="1" stop-color="#EA7B63"/>
</linearGradient>
<linearGradient id="paint59_linear" x1="650" y1="505" x2="710" y2="561" gradientUnits="userSpaceOnUse">
<stop stop-color="#B03E58"/>
<stop offset="1" stop-color="#EA7B63"/>
</linearGradient>
<linearGradient id="paint60_linear" x1="650" y1="505" x2="710" y2="561" gradientUnits="userSpaceOnUse">
<stop stop-color="#B03E58"/>
<stop offset="1" stop-color="#EA7B63"/>
</linearGradient>
<linearGradient id="paint61_linear" x1="754.5" y1="9.36972" x2="746.913" y2="753.227" gradientUnits="userSpaceOnUse">
<stop stop-color="#182234"/>
<stop offset="1" stop-color="#2E2652"/>
</linearGradient>
<linearGradient id="paint62_linear" x1="754.5" y1="9.36972" x2="746.913" y2="753.227" gradientUnits="userSpaceOnUse">
<stop stop-color="#182234"/>
<stop offset="1" stop-color="#2E2652"/>
</linearGradient>
<linearGradient id="paint63_linear" x1="754.5" y1="9.36972" x2="746.913" y2="753.227" gradientUnits="userSpaceOnUse">
<stop stop-color="#182234"/>
<stop offset="1" stop-color="#2E2652"/>
</linearGradient>
<linearGradient id="paint64_linear" x1="754.5" y1="9.36972" x2="746.913" y2="753.227" gradientUnits="userSpaceOnUse">
<stop stop-color="#182234"/>
<stop offset="1" stop-color="#2E2652"/>
</linearGradient>
<linearGradient id="paint65_linear" x1="754.5" y1="9.36972" x2="746.913" y2="753.227" gradientUnits="userSpaceOnUse">
<stop stop-color="#182234"/>
<stop offset="1" stop-color="#2E2652"/>
</linearGradient>
<linearGradient id="paint66_linear" x1="754.5" y1="9.36972" x2="746.913" y2="753.227" gradientUnits="userSpaceOnUse">
<stop stop-color="#182234"/>
<stop offset="1" stop-color="#2E2652"/>
</linearGradient>
<linearGradient id="paint67_linear" x1="754.5" y1="9.36972" x2="746.913" y2="753.227" gradientUnits="userSpaceOnUse">
<stop stop-color="#182234"/>
<stop offset="1" stop-color="#2E2652"/>
</linearGradient>
<linearGradient id="paint68_linear" x1="754.5" y1="9.36972" x2="746.913" y2="753.227" gradientUnits="userSpaceOnUse">
<stop stop-color="#182234"/>
<stop offset="1" stop-color="#2E2652"/>
</linearGradient>
</defs>
</svg>
