<svg width="1658" height="1050" viewBox="0 0 1658 1050" fill="none" xmlns="http://www.w3.org/2000/svg">
<mask id="mask0" mask-type="alpha" maskUnits="userSpaceOnUse" x="0" y="0" width="1658" height="1050">
<rect width="1657.89" height="1050" fill="#C4C4C4"/>
</mask>
<g mask="url(#mask0)">
<mask id="mask1" mask-type="alpha" maskUnits="userSpaceOnUse" x="-14" y="0" width="1672" height="1013">
<rect x="-14" width="1671.71" height="1012.84" fill="#F8F4FD"/>
</mask>
<g mask="url(#mask1)">
<mask id="mask2" mask-type="alpha" maskUnits="userSpaceOnUse" x="-14" y="-29" width="1625" height="1018">
<rect x="-14" y="-28.9995" width="1625" height="1017" fill="#D864A4"/>
</mask>
<g mask="url(#mask2)">
<rect x="49.4688" y="-59.0005" width="1563.53" height="770" fill="url(#paint0_linear)"/>
<ellipse opacity="0.5" rx="1.90393" ry="1.69138" transform="matrix(0.0905255 -0.995894 0.993366 0.114998 1163.27 15.7774)" fill="white" fill-opacity="0.7"/>
<path opacity="0.4" d="M519.512 328.309H2.3125C2.3125 328.309 33.354 279.464 66.3058 279.464C99.2576 279.464 139.373 303.305 166.594 303.305C193.815 303.305 252.077 195.728 299.356 195.728C346.635 195.728 380.542 278.301 400.599 278.301C420.657 278.301 427.82 259.111 445.49 263.763C463.16 268.415 519.512 328.309 519.512 328.309Z" fill="url(#paint1_linear)" fill-opacity="0.5"/>
<path opacity="0.4" d="M1445 140H1126C1126 140 1152.96 107.91 1173.29 107.91C1193.61 107.91 1210.54 122.407 1227.33 122.407C1244.12 122.407 1280.05 80 1309.21 80C1338.37 80 1359.29 120.697 1371.66 120.697C1384.03 120.697 1388.45 113.289 1399.34 115.085C1410.24 116.881 1445 140 1445 140Z" fill="url(#paint2_linear)" fill-opacity="0.4"/>
<path opacity="0.4" d="M1472.13 434.308H1016.1C1016.1 434.308 1041.36 392.456 1068.17 392.456C1094.98 392.456 1100.25 407.295 1122.4 407.295C1144.55 407.295 1145.06 364.677 1183.53 364.677C1222 364.677 1213.4 387.45 1243.56 392.456C1273.72 397.462 1278.4 333.922 1308.69 333.922C1338.99 333.922 1338.77 369.182 1375.74 392.456C1447.34 353.965 1472.13 434.308 1472.13 434.308Z" fill="url(#paint3_linear)" fill-opacity="0.5"/>
<ellipse opacity="0.5" cx="233.056" cy="639.509" rx="1.68898" ry="1.90606" fill="white"/>
<ellipse opacity="0.5" cx="430.099" cy="176.972" rx="1.68898" ry="1.90606" fill="white"/>
<ellipse opacity="0.5" cx="493.146" cy="29.5691" rx="1.68898" ry="1.90606" fill="white"/>
<ellipse opacity="0.5" rx="1.73995" ry="1.85965" transform="matrix(0.855133 0.518408 -0.429798 0.902925 82.048 456.295)" fill="white"/>
<ellipse opacity="0.5" rx="1.73995" ry="1.85965" transform="matrix(0.855133 0.518408 -0.429798 0.902925 316.095 367.388)" fill="white"/>
<ellipse rx="3.06764" ry="2.9335" transform="matrix(0.514475 -0.857506 0.794589 0.607148 1375.54 434.673)" fill="white" fill-opacity="0.8"/>
<ellipse opacity="0.5" rx="1.84058" ry="1.7601" transform="matrix(0.514475 -0.857506 0.794589 0.607148 1319.49 163.194)" fill="white" fill-opacity="0.7"/>
<ellipse opacity="0.9" rx="2.89991" ry="3.09941" transform="matrix(0.855133 0.518408 -0.429798 0.902925 120.386 76.4396)" fill="white"/>
<ellipse opacity="0.5" rx="1.78046" ry="1.82089" transform="matrix(0.730674 -0.682727 0.591538 0.806277 734.929 302.382)" fill="white"/>
<ellipse rx="1.18698" ry="1.21393" transform="matrix(0.730674 -0.682727 0.591538 0.806277 601.902 161.902)" fill="white" fill-opacity="0.7"/>
<ellipse opacity="0.5" rx="1.78046" ry="1.82089" transform="matrix(0.730674 -0.682727 0.591538 0.806277 1072.6 289.569)" fill="white"/>
<path d="M42.9922 649H1609.99V993H42.9922V649Z" fill="#733B59"/>
<path d="M809.312 492.565C812.097 489.762 814.943 490.426 816.395 492.263C817.847 494.1 816.323 497.399 813.615 497.578C810.906 497.757 808.588 501.92 807.135 500.082C805.683 498.245 806.528 495.368 809.312 492.565Z" fill="#FE863F"/>
<path opacity="0.5" d="M784.397 412.205C785.206 409.931 786.841 409.445 788.02 409.978C789.198 410.511 789.16 412.676 787.79 413.56C786.419 414.445 786.166 417.292 784.988 416.759C783.809 416.225 783.589 414.479 784.397 412.205Z" fill="#FE863F"/>
<path d="M829.821 524.43C831.505 525.164 831.88 526.693 831.5 527.804C831.12 528.915 829.526 528.903 828.859 527.627C828.193 526.351 826.094 526.144 826.473 525.033C826.853 523.922 828.137 523.697 829.821 524.43Z" fill="#FE863F"/>
<ellipse opacity="0.5" cx="812.931" cy="419.676" rx="1.68898" ry="1.90606" fill="#ECBE5B"/>
<ellipse cx="854.592" cy="478.127" rx="2.81496" ry="3.17677" fill="#ECBE5B"/>
<ellipse opacity="0.5" cx="823.06" cy="288.793" rx="1.68898" ry="1.90606" fill="#ECBE5B"/>
<ellipse opacity="0.5" cx="783.654" cy="263.379" rx="1.68898" ry="1.90606" fill="#ECBE5B"/>
<ellipse opacity="0.5" cx="856.837" cy="394.261" rx="1.68898" ry="1.90606" fill="#ECBE5B"/>
<path d="M943.96 817.609C948.497 818.81 952.534 824.058 952.534 824.058C952.534 824.058 954.441 824.546 961.997 830.889C970.205 837.779 959.14 829.452 955.282 830.743C952.536 831.663 970.466 848.601 962.863 842.918C949.955 833.27 935.035 819.423 935.035 819.423C935.035 819.423 939.423 816.407 943.96 817.609Z" fill="#612E49"/>
<path d="M942.124 823.539C946.781 823.711 949.864 819.83 949.864 819.83C949.864 819.83 949.606 819.879 947.984 815.055C946.527 810.724 946.569 819.475 943.427 819.166C940.646 818.893 940.765 802.301 939.376 806.008C937.448 811.154 935.95 820.309 935.95 820.309C935.95 820.309 937.466 823.367 942.124 823.539Z" fill="#2F365C"/>
<path d="M650.071 801.232C645.698 802.493 641.877 807.661 641.877 807.661C641.877 807.661 634.189 813.477 626.977 819.782C619.145 826.629 635.57 813.026 639.327 814.194C642.003 815.026 624.924 831.812 632.191 826.146C644.529 816.527 658.745 802.798 658.745 802.798C658.745 802.798 654.445 799.972 650.071 801.232Z" fill="#612E49"/>
<path d="M654.612 805.169C650.101 805.336 647.115 801.577 647.115 801.577C647.115 801.577 647.365 795.629 648.937 790.956C650.347 786.762 650.307 801.233 653.35 800.934C656.044 800.669 655.928 784.599 657.274 788.189C659.142 793.173 660.592 802.041 660.592 802.041C660.592 802.041 659.124 805.002 654.612 805.169Z" fill="#2F365C"/>
<path d="M525.24 690.974C521.225 690.302 519.047 690.339 519.047 690.339C519.047 690.339 498.217 689.782 494.276 690.974C496.527 692.245 508.409 690.436 511.165 692.88C513.127 694.62 497.654 696.056 491.731 698.084C497.654 701.14 529.181 694.786 529.181 694.786C529.181 694.786 529.256 691.646 525.24 690.974Z" fill="#612E49"/>
<path d="M522.419 693.511C518.599 691.962 519.604 690.97 519.604 690.97C519.604 690.97 520.148 684.761 521.293 683.346C522.982 685.887 522.285 688.434 524.916 689.323C527.246 690.11 526.58 684.617 529.175 680.169C530.521 683.981 530.645 692.958 530.645 692.958C530.645 692.958 526.239 695.061 522.419 693.511Z" fill="#2F365C"/>
<path d="M1123.38 749.703C1128.56 749.512 1134.24 753.827 1134.24 753.827C1134.24 753.827 1164.8 762.65 1157.48 767.732C1150.16 772.815 1114.26 754.565 1114.26 754.565C1114.26 754.565 1118.2 749.895 1123.38 749.703Z" fill="#612E49"/>
<path d="M1121.12 756.73C1126.3 756.921 1131.98 752.606 1131.98 752.606C1131.98 752.606 1129.22 732.593 1121.84 731.867C1114.45 731.142 1112 751.868 1112 751.868C1112 751.868 1115.94 756.538 1121.12 756.73Z" fill="url(#paint4_linear)"/>
<path d="M655.39 722.478C651.779 722.344 647.819 725.353 647.819 725.353C647.819 725.353 620.055 738.436 622.192 739.921C624.33 741.405 661.746 725.868 661.746 725.868C661.746 725.868 659 722.611 655.39 722.478Z" fill="#612E49"/>
<path d="M657.513 726.789C655.114 726.878 652.484 724.879 652.484 724.879C652.484 724.879 653.759 715.612 657.179 715.276C660.599 714.94 661.735 724.538 661.735 724.538C661.735 724.538 659.911 726.701 657.513 726.789Z" fill="url(#paint5_linear)"/>
<path d="M381.605 677.473C378.277 675.887 373.624 677.094 373.624 677.094C373.624 677.094 343.55 678.077 345.074 680.328C346.598 682.578 383.926 685.254 387.589 681.938C391.251 678.621 384.934 679.058 381.605 677.473Z" fill="#612E49"/>
<path d="M384.041 682.528C381.642 682.605 379.02 680.593 379.02 680.593C379.02 680.593 380.332 671.332 383.754 671.014C387.175 670.695 388.272 680.299 388.272 680.299C388.272 680.299 386.439 682.452 384.041 682.528Z" fill="url(#paint6_linear)"/>
<path d="M811.07 751.468C816.249 751.277 819.275 754.249 819.275 754.249C819.275 754.249 815.334 787.923 811.07 787.923C806.807 787.923 800.134 754.249 800.134 754.249C800.134 754.249 805.891 751.66 811.07 751.468Z" fill="#612E49"/>
<path d="M808.977 758.496C814.156 758.687 819.836 754.371 819.836 754.371C819.836 754.371 817.084 740.712 809.698 739.987C802.313 739.261 799.86 753.633 799.86 753.633C799.86 753.633 803.798 758.304 808.977 758.496Z" fill="url(#paint7_linear)"/>
<path d="M1268.96 687.128C1272.29 685.543 1276.94 686.75 1276.94 686.75C1276.94 686.75 1307.01 687.733 1305.49 689.983C1303.96 692.234 1266.64 694.91 1262.97 691.593C1259.31 688.277 1265.63 688.713 1268.96 687.128Z" fill="#612E49"/>
<path d="M1265.4 692.186C1267.8 692.262 1270.42 690.25 1270.42 690.25C1270.42 690.25 1269.11 680.989 1265.69 680.671C1262.27 680.353 1261.17 689.956 1261.17 689.956C1261.17 689.956 1263 692.11 1265.4 692.186Z" fill="url(#paint8_linear)"/>
<path d="M1154.5 677.624C1158.51 676.953 1160.69 676.989 1160.69 676.989C1160.69 676.989 1181.52 676.432 1185.46 677.624C1183.21 678.895 1171.33 677.086 1168.57 679.53C1166.61 681.27 1182.08 682.707 1188.01 684.734C1182.08 687.79 1150.56 681.436 1150.56 681.436C1150.56 681.436 1150.48 678.296 1154.5 677.624Z" fill="#612E49"/>
<path d="M1157.32 680.165C1161.14 678.616 1160.14 677.623 1160.14 677.623C1160.14 677.623 1159.59 671.414 1158.45 669.999C1156.76 672.541 1157.46 675.087 1154.83 675.976C1152.5 676.763 1153.16 671.27 1150.57 666.822C1149.22 670.635 1149.1 679.612 1149.1 679.612C1149.1 679.612 1153.5 681.714 1157.32 680.165Z" fill="#2F365C"/>
<path d="M984.878 719.322C990.057 719.131 995.737 723.446 995.737 723.446C995.737 723.446 1005.86 727.079 1015.6 731.422C1026.18 736.139 1004.21 727.081 1000.4 729.727C997.689 731.611 1021.28 743.942 1011.66 740.323C995.329 734.18 975.761 724.184 975.761 724.184C975.761 724.184 979.699 719.514 984.878 719.322Z" fill="#612E49"/>
<path d="M982.622 726.348C987.801 726.539 991.229 722.224 991.229 722.224C991.229 722.224 990.942 715.396 989.138 710.032C987.519 705.217 987.564 721.829 984.071 721.486C980.979 721.182 981.112 702.733 979.567 706.855C977.422 712.577 975.757 722.757 975.757 722.757C975.757 722.757 977.443 726.157 982.622 726.348Z" fill="#2F365C"/>
<path d="M830.677 317.022C832.381 315.504 834.014 316.002 834.801 317.126C835.587 318.251 834.599 320.107 833.02 320.103C831.442 320.1 829.965 322.427 829.179 321.302C828.393 320.177 828.972 318.54 830.677 317.022Z" fill="#FE863F"/>
<ellipse cx="800.318" cy="355.056" rx="1.68898" ry="1.90606" fill="#ECBE5B"/>
</g>
<mask id="mask3" mask-type="alpha" maskUnits="userSpaceOnUse" x="430" y="641" width="758" height="184">
<rect x="430" y="641" width="758" height="184" fill="#C4C4C4"/>
</mask>
<g mask="url(#mask3)">
<path opacity="0.8" d="M1183.47 656.328C1183.47 734.678 1015.85 820.773 809.081 820.773C602.312 820.773 434.691 734.678 434.691 656.328C434.691 577.979 602.312 514.464 809.081 514.464C1015.85 514.464 1183.47 577.979 1183.47 656.328Z" fill="#894168"/>
<path opacity="0.8" d="M1061.87 649.956C1061.87 690.751 948.442 739.212 808.522 739.212C668.603 739.212 555.176 690.751 555.176 649.956C555.176 609.16 668.603 576.088 808.522 576.088C948.442 576.088 1061.87 609.16 1061.87 649.956Z" fill="#9C4474"/>
</g>
<g filter="url(#filter0_d)">
<path d="M736.465 656.786C732.927 662.812 750.736 667.463 750.736 667.463C750.736 667.463 779.898 673.938 806.184 674.865C832.47 675.792 859.924 671.635 859.924 671.635C859.924 671.635 893.677 663.74 888.622 656.786C883.567 649.833 859.924 640.561 810.775 638.244C761.626 635.926 740.004 650.76 736.465 656.786Z" fill="url(#paint9_radial)"/>
</g>
<path d="M776.783 640.328C769.842 640.584 762.273 643.338 762.273 643.338C762.273 643.338 766.159 621.284 776.062 620.465C785.965 619.647 789.047 640.349 789.047 640.349C789.047 640.349 783.724 640.071 776.783 640.328Z" fill="url(#paint10_linear)"/>
<path d="M833.492 640.338C826.492 640.338 821.274 639.338 821.274 639.338C821.274 639.338 825.159 619.283 835.063 618.465C844.966 617.647 848.048 643.349 848.048 643.349C848.048 643.349 840.492 640.338 833.492 640.338Z" fill="url(#paint11_linear)"/>
<path opacity="0.96" d="M889.612 661.716L883.688 651C883.688 651 946.074 655.143 942.683 658.716C939.292 662.288 889.612 661.716 889.612 661.716Z" fill="#612E4A"/>
<path d="M766.992 642C766.992 642 760.492 643 750.492 647.5C745.912 649.561 741.726 652.395 737.992 653C733.574 653.716 728.99 651 728.99 651C728.99 651 733.242 615.881 747.757 614.682C762.272 613.482 766.992 642 766.992 642Z" fill="url(#paint12_linear)"/>
<path d="M854.893 643.631C863.037 644.639 870.378 646.411 870.378 646.411C870.378 646.411 867.845 620.41 856.271 618.439C844.697 616.468 838.963 640.523 838.963 640.523C838.963 640.523 846.748 642.623 854.893 643.631Z" fill="url(#paint13_linear)"/>
<path d="M805.015 639.392C816.399 639.392 827.598 640.232 827.598 640.232C827.598 640.232 821.279 608.728 805.015 608.012C788.75 607.295 784.684 640.232 784.684 640.232C784.684 640.232 793.63 639.392 805.015 639.392Z" fill="url(#paint14_linear)"/>
<path opacity="0.96" d="M797.684 681H840.684C840.684 681 837.28 707.421 821.644 709.864C806.007 712.307 797.684 681 797.684 681Z" fill="#612E4A"/>
<path opacity="0.96" d="M881.892 651.996L875.994 643C875.994 643 925.246 642.125 921.869 647.747C918.493 653.37 881.892 651.996 881.892 651.996Z" fill="#612E4A"/>
<path d="M880.492 651.601C884.992 656.5 895.086 651.601 895.086 651.601C895.086 651.601 890.019 623.646 878.759 623.01C867.499 622.375 865.684 645.601 865.684 645.601C865.684 645.601 875.992 646.703 880.492 651.601Z" fill="url(#paint15_linear)"/>
<path opacity="0.96" d="M842.679 681.147L864.515 676C864.515 676 881.684 692.5 873.448 696.073C865.212 699.646 842.679 681.147 842.679 681.147Z" fill="#612E4A"/>
<path opacity="0.96" d="M733.346 666.716L738.27 657C738.27 657 671.726 657.714 675.118 661.287C678.509 664.859 733.346 666.716 733.346 666.716Z" fill="#612E4A"/>
<path opacity="0.96" d="M730.812 654.996L736.991 646C736.991 646 683.584 644.125 687.121 649.747C690.659 655.37 730.812 654.996 730.812 654.996Z" fill="#612E4A"/>
<path opacity="0.96" d="M882.684 668.295L885.821 660C885.821 660 933.19 661.327 930.58 667.962C927.969 674.598 882.684 668.295 882.684 668.295Z" fill="#663550"/>
<path opacity="0.96" d="M796.406 679.518L767.909 674.536C767.909 674.536 754.829 695.018 766.041 698.34C777.252 701.661 796.406 679.518 796.406 679.518Z" fill="#612E4A"/>
<path d="M726.01 665.955C718.128 665.955 709.684 659.601 709.684 659.601C709.684 659.601 714.751 631.646 726.01 631.01C737.27 630.375 740.085 659.601 740.085 659.601C740.085 659.601 733.892 665.955 726.01 665.955Z" fill="url(#paint16_linear)"/>
<path opacity="0.96" d="M765.386 677.685L739.792 672.967C739.792 672.967 721.592 684.58 726.095 687.757C730.599 690.934 765.386 677.685 765.386 677.685Z" fill="#612E4A"/>
<path opacity="0.96" d="M743.482 675.05L716.148 668.967C716.148 668.967 684.62 674.873 689.124 678.05C693.628 681.227 743.482 675.05 743.482 675.05Z" fill="#663550"/>
<path d="M733.038 675.955C725.156 675.955 716.711 669.601 716.711 669.601C716.711 669.601 721.778 641.646 733.038 641.01C744.298 640.375 747.113 669.601 747.113 669.601C747.113 669.601 740.92 675.955 733.038 675.955Z" fill="url(#paint17_linear)"/>
<path d="M753.438 679.583C745.237 679.886 736.295 674.87 736.295 674.87C736.295 674.87 740.886 651.176 752.586 650.209C764.286 649.242 767.928 673.701 767.928 673.701C767.928 673.701 761.639 679.28 753.438 679.583Z" fill="url(#paint18_linear)"/>
<path opacity="0.96" d="M859.684 673.902L890.075 669C890.075 669 922.018 678.505 912.686 686C903.355 693.495 859.684 673.902 859.684 673.902Z" fill="#663550"/>
<path d="M770.006 627.655C769.558 603.683 795.091 588 795.091 588C795.091 588 827.922 619.59 828.911 634.824C829.9 650.059 822.64 668.654 806.29 667.982C789.94 667.31 770.454 651.627 770.006 627.655Z" fill="url(#paint19_linear)"/>
<path d="M781.255 634.146C782.771 615.912 818.642 583 818.642 583C818.642 583 846.007 605.015 847.805 625.029C849.602 645.043 839.112 666.835 811.736 667.947C784.36 669.059 779.74 652.381 781.255 634.146Z" fill="url(#paint20_linear)"/>
<mask id="mask4" mask-type="alpha" maskUnits="userSpaceOnUse" x="788" y="618" width="40" height="40">
<rect x="788" y="618" width="40" height="40" fill="url(#paint21_linear)"/>
</mask>
<g mask="url(#mask4)">
<path d="M807.531 658C817.817 658 823.21 651.5 823.21 641.527C823.209 631.553 809.5 622.407 807.531 622.407C805.562 622.408 791.851 633.194 791.852 641.527C791.854 649.859 797.245 658 807.531 658Z" fill="#FED170"/>
</g>
<path d="M781.704 685.153C771.073 684.632 759.985 677.88 759.985 677.88C759.985 677.88 768.155 650.964 783.374 651.089C798.592 651.214 800.993 679.89 800.993 679.89C800.993 679.89 792.336 685.674 781.704 685.153Z" fill="url(#paint22_linear)"/>
<path d="M892.837 668.764C899.718 667.746 906.571 662.173 906.571 662.173C906.571 662.173 899.856 643.11 889.973 644.117C880.09 645.123 880.028 666.101 880.028 666.101C880.028 666.101 885.956 669.782 892.837 668.764Z" fill="url(#paint23_linear)"/>
<path d="M874.982 678.552C885.163 678.599 896.05 672.022 896.05 672.022C896.05 672.022 889.411 642.827 874.864 642.096C860.318 641.365 856.781 671.838 856.781 671.838C856.781 671.838 864.801 678.504 874.982 678.552Z" fill="url(#paint24_linear)"/>
<path d="M850.127 682.335C857.362 682.26 865.059 677.844 865.059 677.844C865.059 677.844 860.163 658.813 849.821 658.487C839.479 658.16 837.151 678.132 837.151 678.132C837.151 678.132 842.891 682.41 850.127 682.335Z" fill="url(#paint25_linear)"/>
<path d="M820.776 688C809.628 688 797.684 681.638 797.684 681.638C797.684 681.638 804.85 653.646 820.776 653.01C836.702 652.374 840.684 681.638 840.684 681.638C840.684 681.638 831.924 688 820.776 688Z" fill="url(#paint26_linear)"/>
<path d="M1471.63 636.693C1479.11 636.305 1484.35 654.184 1484.35 654.184L1247.84 655.35C1247.84 655.35 1251.96 633.584 1262.44 633.584C1272.92 633.584 1272.92 616.094 1278.53 614.539C1284.14 612.984 1285.27 596.27 1296.49 589.663C1307.72 583.056 1308.09 561.679 1317.82 553.905C1327.55 546.131 1358.61 539.523 1370.59 546.131C1382.56 552.738 1390.8 567.12 1399.78 570.618C1408.76 574.116 1403.15 570.618 1423.73 574.116C1444.31 577.614 1436.82 619.591 1445.81 628.531C1454.79 637.471 1464.14 637.082 1471.63 636.693Z" fill="#76395A"/>
<path d="M1354.87 529.493C1349.68 533.201 1349.68 541.233 1349.68 541.233C1349.68 541.233 1358.33 541.233 1361.79 537.526C1365.25 533.818 1364.67 524.55 1364.67 524.55C1364.67 524.55 1360.06 525.786 1354.87 529.493Z" fill="#76395A"/>
<path d="M1471.13 625.281C1467.01 628.152 1467.01 634.37 1467.01 634.37C1467.01 634.37 1473.87 634.37 1476.61 631.5C1479.36 628.63 1478.9 621.455 1478.9 621.455C1478.9 621.455 1475.24 622.411 1471.13 625.281Z" fill="#76395A"/>
<path d="M1454.89 620.729C1451.38 625.542 1453.68 632.396 1453.68 632.396C1453.68 632.396 1461.29 629.646 1463.28 625.383C1465.26 621.119 1462.11 613.394 1462.11 613.394C1462.11 613.394 1458.4 615.915 1454.89 620.729Z" fill="#76395A"/>
<g opacity="0.7">
<path d="M991.907 851.262L953.905 824.949C953.905 824.949 837.491 751.037 880.338 735.598C923.185 720.159 1019.68 797.623 1019.68 797.623L1083.5 863.913C1083.5 863.913 1111.76 881.624 1101.04 892.757C1090.32 903.889 1047.94 876.058 1047.94 876.058L991.907 851.262Z" fill="#5A2843"/>
<path d="M1098.86 786.092L1048.19 751.176L1039.9 754.362L1055.01 766.863L915.18 823.032L903.487 817.972L889.846 805.827L920.54 862.502L1098.86 786.092Z" fill="#5A2843"/>
<path d="M898.615 851.37C881.391 849.346 830.234 754.212 830.234 754.212L844.85 770.612L851.671 767.875C851.671 767.875 856.536 774.931 865.126 787.104C866.051 788.415 865.805 796.345 866.775 797.731C868.176 799.733 874.557 802.775 876.031 804.815C893.14 828.493 908.749 852.561 898.615 851.37Z" fill="#5A2843"/>
<path d="M949.284 915.129C930.283 915.129 876.762 805.827 876.762 805.827L889.748 808.863C889.748 808.863 968.285 915.129 949.284 915.129Z" fill="#5A2843"/>
<path d="M1154.4 821.008L1098.86 785.08L1083.75 790.796L1093.5 799.755L937.104 870.093L925.412 856.936L921.514 861.996L952.695 917.153L1154.4 821.008Z" fill="#5A2843"/>
</g>
<path d="M1442.36 478.92V716.782H1386.9L1392.18 132.886L1376.78 88.7117L1381.62 80.2166L1392.18 104.003V1.2002H1438.39V448.904L1456.88 423.985V435.878L1442.36 478.92Z" fill="url(#paint27_linear)"/>
<path d="M300.709 364.748L291.422 648.781H385.747L377.648 464.016L401.27 419.82L393.846 411.32L377.648 435.119V294.544L401.27 250.348L393.846 241.849L377.648 265.647L371.03 0.00146484H313.749L306.784 334.717L278.438 309.786V321.685L300.709 364.748Z" fill="url(#paint28_linear)"/>
<path d="M1262.05 469.516V707.496H1347.09L1338.99 522.732L1362.61 478.535L1355.19 470.036L1338.99 493.834V353.26L1362.61 309.064L1355.19 300.564L1338.99 324.362L1338.18 0H1271.61L1268.13 439.485L1239.78 414.554V426.453L1262.05 469.516Z" fill="url(#paint29_linear)"/>
<path d="M361.03 634.257C368.514 633.868 373.753 651.747 373.753 651.747L137.246 652.913C137.246 652.913 141.363 631.147 151.841 631.147C162.319 631.147 162.319 613.657 167.932 612.102C173.545 610.547 174.668 593.834 185.895 587.227C197.121 580.619 197.496 559.242 207.225 551.468C216.955 543.694 248.015 537.087 259.99 543.694C271.965 550.302 280.198 564.683 289.179 568.181C298.161 571.68 292.547 568.181 313.129 571.68C333.712 575.178 326.227 617.155 335.208 626.095C344.19 635.034 353.545 634.645 361.03 634.257Z" fill="#76395A"/>
<path d="M298.384 552.386C293.195 556.094 293.195 564.126 293.195 564.126C293.195 564.126 301.843 564.126 305.302 560.419C308.762 556.712 308.185 547.443 308.185 547.443C308.185 547.443 303.573 548.679 298.384 552.386Z" fill="#76395A"/>
<path d="M360.529 622.845C356.414 625.715 356.414 631.934 356.414 631.934C356.414 631.934 363.273 631.934 366.016 629.064C368.76 626.193 368.303 619.018 368.303 619.018C368.303 619.018 364.645 619.975 360.529 622.845Z" fill="#76395A"/>
<path d="M344.293 618.292C340.784 623.106 343.079 629.96 343.079 629.96C343.079 629.96 350.693 627.21 352.679 622.946C354.666 618.683 351.511 610.958 351.511 610.958C351.511 610.958 347.803 613.479 344.293 618.292Z" fill="#76395A"/>
<path d="M216.927 416.575V641.872H165.074L170.013 241.898L155.609 197.702L160.136 189.203L170.013 213.001V-6.90674H213.223V386.544L230.507 361.613V373.512L216.927 416.575Z" fill="url(#paint30_linear)"/>
<path d="M278.559 183.263V650.337H226.707L231.646 112.205L217.242 68.0085L221.769 59.5093L231.646 83.3073V1.55762H274.856V153.232L292.14 128.301V140.2L278.559 183.263Z" fill="url(#paint31_linear)"/>
<path d="M1561.63 412.357V650.337H1476.6L1484.7 328.489L1461.07 284.293L1468.5 275.793L1484.7 299.591V1.55762H1555.56V382.326L1583.91 357.395V369.294L1561.63 412.357Z" fill="url(#paint32_linear)"/>
<path d="M620.804 515.737C622.518 516.416 624.222 516.611 625.188 516.555L624.014 517.774C621.726 517.738 620.804 515.737 620.804 515.737Z" fill="#AF176A"/>
<path d="M623.786 511.056C625.271 512.038 626.52 512.28 629.604 512.005C629.604 512.005 627.636 513.174 625.946 513.105C624.255 513.036 623.786 511.056 623.786 511.056Z" fill="#AF176A"/>
<path d="M458.487 707.267C454.652 706.503 449.987 708.838 449.987 708.838C449.987 708.838 415.579 714.564 420.511 719.018C425.443 723.471 464.78 711.784 464.78 711.784C464.78 711.784 462.322 708.03 458.487 707.267Z" fill="#612E49"/>
<path d="M459.459 712.467C455.585 711.972 451.795 708.256 451.795 708.256C451.795 708.256 455.872 694.56 461.442 694.949C467.013 695.338 466.738 710.167 466.738 710.167C466.738 710.167 463.334 712.963 459.459 712.467Z" fill="url(#paint33_linear)"/>
<path opacity="0.46" d="M885.646 482.853C885.646 515.749 841.07 543.771 846.935 587.632C852.8 631.494 826 640.367 806.917 640.367C787.834 640.367 761.89 631.494 771.274 610.172C780.658 588.851 805.879 518.794 801.773 482.853C797.667 446.911 726.112 437.164 712.035 384.774C697.958 332.384 615.259 262.328 665.113 199.582C714.968 136.836 637.547 119.779 662.181 44.2399C686.814 -31.299 583 -38 583 -38H1085.65C1085.65 -38 967.759 9.51638 951.336 60.0787C934.914 110.641 927.289 175.214 927.289 222.731C927.289 270.247 820.542 337.258 812.917 373.199C805.292 409.141 885.646 449.957 885.646 482.853Z" fill="url(#paint34_linear)"/>
<path opacity="0.8" d="M1205.29 685.115C1208.7 702.32 1049.87 691.694 1049.87 691.694L1025.02 640.585C1025.02 640.585 1201.88 667.91 1205.29 685.115Z" fill="#612E4A"/>
<path d="M1000.74 622.314L1013.76 647.636L1049.67 649.269L1019.29 596.176L1054.02 544.309H1018.1L949.035 647.636L982.581 649.269L1000.74 622.314Z" fill="#4B0B33"/>
<path d="M1053.52 543.799L1092.76 560.104L1098.16 564.18L1082.46 588.127L1040.76 563.67L1053.52 543.799Z" fill="#A2486B"/>
<path d="M986.308 593.733L1005.93 619.718L1051.06 611.566L1030.46 586.6H986.308V593.733Z" fill="#A2486B"/>
<path d="M1049.59 561.632H1088.84L1091.29 560.104H1048.12L961.78 688.502H964.724L1049.59 561.632Z" fill="#A2486B"/>
<path d="M1019.22 545.036H1051.04L1053.02 543.798H1018.03L948.043 647.74H950.429L1019.22 545.036Z" fill="#A2486B"/>
<path d="M1018.09 497.359C1027.51 501.719 1022.57 513.487 1022.57 513.487C1022.57 513.487 994.321 512.039 988.461 504.852C987.938 504.211 998.105 504.666 997.791 503.91C993.957 494.684 1008.66 492.998 1018.09 497.359Z" fill="#4A0B33"/>
<path d="M969.513 586.334C975.889 578.614 1008.78 565.871 1008.78 565.871L1036.91 582.811L1015.96 605.113C1015.96 605.113 990.461 607.507 986.818 610.08C983.175 612.654 984.996 652.289 984.996 652.289C984.996 652.289 986.818 665.46 978.012 664.309C969.206 663.158 955.955 671.217 955.955 664.309C955.955 657.401 971.335 652.289 971.335 652.289C971.335 652.289 963.138 594.054 969.513 586.334Z" fill="#6A1048"/>
<path d="M972.822 653.297C972.012 652.039 973.491 651.99 971.856 651.696C970.221 651.401 963.301 655.086 963.301 655.086C963.301 655.086 962.538 656.143 963.157 657.104C963.776 658.065 967.729 658.351 970.362 657.102C972.995 655.853 973.632 654.554 972.822 653.297Z" fill="url(#paint35_linear)"/>
<path d="M1048.79 564.222L1031.49 579.754C1031.49 579.754 994.095 583.77 992.273 589.774C990.451 595.778 994.736 650.367 994.736 650.367L1009.93 629.536C1009.93 629.536 1012.31 622.763 1013.22 613.328C1014.13 603.893 1032.61 602.867 1043.86 589.62C1055.12 576.372 1048.79 564.222 1048.79 564.222Z" fill="#6A1048"/>
<path d="M1020.55 537.728L1025.11 536.012L1036.95 572.895L1023.23 592.838L1009.57 587.692L1020.55 537.728Z" fill="#6A1048"/>
<path d="M1004.12 567.963C1013.41 553.261 1015.74 525.035 1015.74 525.035L1011.98 524.089C1011.98 524.089 998.481 554.42 992.28 561.101C988.469 565.207 991.668 571.799 984.967 576.501C983.095 582.462 985.215 581.497 989.612 584.293C994.01 587.089 994.832 582.664 1004.12 567.963Z" fill="#6A1048"/>
<path d="M998.044 503.435C998.044 503.435 994.446 503.029 996.067 509.331C981.805 508.869 980.243 504.542 984.182 501.94C988.121 499.338 1014 503.406 1014.92 505.151C1015.83 506.896 998.044 503.435 998.044 503.435Z" fill="#4A0B33"/>
<path d="M1045.51 577.184C1043.11 555.74 1024.83 526.577 1024.83 526.577L1018.41 530.222C1018.41 530.222 1029.39 564.318 1028.48 575.468C1027.92 582.322 1009.62 599.411 1006.62 608.92C1004.74 614.882 1013.9 618.356 1017.55 615.782C1021.19 613.209 1047.91 598.627 1045.51 577.184Z" fill="#6A1048"/>
<path d="M1023.22 511.045C1023.23 510.396 1023.23 510.005 1023.23 510.005C1023.23 510.005 1025.99 511.758 1023.22 511.045C1023.21 513.846 1023.19 521.463 1023.19 523.306C1023.19 525.576 1035.47 523.007 1037.07 546.849C1038.67 570.691 1029.24 534.088 1026.44 533.292C1023.1 532.341 1024.92 547.44 1023.19 543.733C1020.01 536.923 1009.58 535.044 1006.33 540.617C1003.94 544.706 1006.58 532.968 1001.8 526.832C1002.57 524.817 1005.08 524.58 1006.33 523.007C1015.16 507.113 996 507.155 996 507.155C996 507.155 1004.59 503.934 1016.63 508.697C1020.09 510.067 1022.11 510.757 1023.22 511.045Z" fill="#6A1048"/>
<path d="M1009.67 503.884C1006.99 501.869 997.165 501.398 997.165 501.398C997.165 501.398 996.373 499.171 1000.07 496.614C1003.76 494.057 1012.56 494.872 1008.79 496.614C1005.03 498.356 1012.36 505.899 1009.67 503.884Z" fill="url(#paint36_linear)"/>
<path d="M972.211 590.031C976.838 585.658 986.138 580.839 986.138 580.839C986.138 580.839 977.433 580.743 970.308 587.487C963.183 594.23 969.296 653.372 971.625 653.372C973.954 653.372 967.583 594.404 972.211 590.031Z" fill="url(#paint37_linear)"/>
<path d="M995.309 561.648C999.089 557.825 1006.54 539.419 1006.54 539.419L1005.29 535.223C1005.29 535.223 996.951 555.425 993.102 560.115C989.252 564.806 989.038 577.385 990.78 577.385C992.521 577.385 991.529 565.472 995.309 561.648Z" fill="url(#paint38_linear)"/>
<path d="M999.547 513.486C999.644 514.08 997.265 521.924 997.41 522.491C997.882 524.328 1000.52 522.772 1001.45 523.842C1004.09 526.873 1004.07 528.653 1006.97 527.651C1009.88 526.65 1010.76 524.83 1011.52 521.49C1012.05 519.138 1013.88 517.223 1013.34 513.936C1012.87 511.031 1013.93 510.155 1011.81 509.315C1001.34 507.513 996.217 508.082 999.547 513.486Z" fill="url(#paint39_linear)"/>
<path d="M986.487 503.965C982.909 508.541 995.422 510.271 995.838 508.867C997.294 503.965 1013.75 507.668 1014.2 507.192C1014.64 506.717 990.065 499.389 986.487 503.965Z" fill="url(#paint40_linear)"/>
<path d="M1004.42 579.073C1001.25 576.126 1006.18 570.689 1006.54 562.696C1006.73 558.232 1006.21 549.751 1006.78 545.675C1007.28 542.122 1004.15 536.415 1005.29 535.223C1006.84 534.222 1008.9 536.268 1012.07 535.662C1015.24 535.055 1016.11 530.655 1017.83 530.155C1019.56 529.654 1020.66 542.17 1016.83 555.687C1013 569.205 1016.85 566.865 1020.41 566.502C1023.97 566.14 1019.53 571.798 1014.2 575.425C1008.86 579.051 1007.6 582.02 1004.42 579.073Z" fill="url(#paint41_linear)"/>
<path d="M996.57 595.067C1001.2 590.693 1016.83 590.232 1017.89 587.728C1018.94 585.225 999.644 587.356 994.253 592.458C988.863 597.561 993.581 649.366 995.892 649.366C998.203 649.366 991.942 599.44 996.57 595.067Z" fill="url(#paint42_linear)"/>
<path d="M1032.69 568.704C1033.08 565.428 1033.88 559.833 1032.28 551.682C1030.68 543.514 1026.67 535.796 1025.9 534.337C1024.36 531.421 1022.34 531.554 1022.34 533.608C1022.34 535.662 1030.29 558.227 1029.52 567.703C1029.05 573.527 1010.27 580.719 1013.79 583.276C1013.79 583.276 1031.92 575.264 1032.69 568.704Z" fill="url(#paint43_linear)"/>
<path d="M1017.6 509.979C1016.1 510.086 1016.27 511.803 1016.27 511.803L1016.11 517.217C1016.11 517.217 1016.69 518.385 1017.83 518.303C1018.98 518.221 1019.66 516.827 1019.8 513.936C1019.95 511.045 1019.1 509.871 1017.6 509.979Z" fill="url(#paint44_linear)"/>
<path d="M1001.62 525.149C1000.42 525.783 1002.56 528.626 1003.5 527.633C1004.44 526.639 1006.58 526.051 1008.19 525.646C1010.29 525.118 1011.95 527.734 1012.89 523.658C1013.13 522.621 1015.71 516.703 1013.36 516.703C1009.6 523.161 1002.82 524.515 1001.62 525.149Z" fill="#6A1048"/>
<path d="M1002.48 521.809C1001.33 522.821 1000.81 523.149 998.114 523.44C998.114 523.44 1000.52 524.826 1001.97 524.495C1003.42 524.163 1002.48 521.809 1002.48 521.809Z" fill="#6A1048"/>
<path d="M1051.29 564.549H1091.24L1094.17 561.007H1048.94L977.289 667.779H979.675L1051.29 564.549Z" fill="#A2486B"/>
<path d="M1028.91 660.673L1045.1 692.263L1089.74 694.301L1051.96 628.064L1095.13 563.355H1050.49L964.643 692.263L1006.34 694.301L1028.91 660.673Z" fill="#4B0B33"/>
<path d="M941.281 720.22C963.497 720.22 963.497 691.377 963.497 691.377C963.497 691.377 896.849 663.976 888.518 674.792C880.187 685.608 892.036 733.692 892.036 733.692C892.036 733.692 880.002 736.172 882.779 744.825C885.556 753.477 913.899 757.032 917.371 753.427C920.842 749.822 910.696 715.753 913.473 711.427C916.25 707.1 919.065 720.22 941.281 720.22Z" fill="#4A0B33"/>
<path d="M895.214 737.31C892.372 741.115 882.052 742.185 882.512 738.626C882.972 735.067 890.317 736.413 890.777 732.854C891.237 729.295 879.685 684.144 889.137 674.036C893.88 668.964 889.136 681.165 889.82 697.841C890.5 714.401 896.63 735.414 895.214 737.31Z" fill="#E06E77"/>
<path d="M932.94 614.942C958.628 615.548 963.487 692.097 963.487 692.097C963.487 692.097 898.505 674.07 900.31 671.907C916.972 638.738 907.253 614.336 932.94 614.942Z" fill="#4A0B33"/>
<path d="M865.227 636.533C865.226 632.145 927.875 621.949 927.875 621.949L917.545 643.404C917.545 643.404 865.227 640.922 865.227 636.533Z" fill="#4A0B33"/>
<path d="M902.797 606.477C899.477 594.648 908.093 581.86 908.093 581.86L913.605 580.874L926.118 616.896C926.118 616.896 912.927 628.441 917.72 616.51C917.72 610.73 906.118 618.306 902.797 606.477Z" fill="url(#paint45_linear)"/>
<path d="M918.322 620.344C918.322 620.344 866.406 634.007 865.813 635.525C865.219 637.043 866.938 636.031 869.604 636.031C872.27 636.031 915.658 627.429 915.658 627.429L918.322 620.344Z" fill="url(#paint46_linear)"/>
<path d="M902.794 677.347C904.507 683.083 899.817 678.41 897.972 675.22C896.127 672.03 915.445 621.11 917.72 616.51C917.854 616.238 929.005 616.296 921.697 622.368C918.773 623.886 901.392 672.652 902.794 677.347Z" fill="url(#paint47_linear)"/>
<path d="M943.626 599.511C943.626 617.307 952.386 615.283 952.386 615.283C952.386 615.283 950.924 659.307 911.545 640.584C918.282 632.994 917.795 623.379 920.718 615.789C923.641 608.198 913.437 606.004 913.493 603.559C913.55 601.114 915.439 600.969 916.333 597.499C917.227 594.03 915.359 592.511 913.493 593.173C911.628 593.834 909.328 597.499 907.939 597.499C906.551 597.499 905.857 583.799 907.939 580.914C910.022 578.03 910.716 571.541 924.601 572.983C938.486 574.425 943.626 581.714 943.626 599.511Z" fill="#4A0B33"/>
<path d="M977.75 714.423L1027.88 644.633L1052.25 656.928L1000.38 733.95L977.75 714.423Z" fill="#A2486B"/>
<path d="M1039.37 758.178L1019.52 694.897L1004.9 699.237L1019.52 748.054L1039.37 758.178Z" fill="#4A0B33"/>
<path d="M853.805 720.931L867.383 739.735V734.311L1025.44 687.302L998.985 677.9L853.805 720.931Z" fill="#A2486B"/>
<path d="M1034.49 713.339L874.688 765.049L880.606 790L1042.5 735.759L1034.49 713.339Z" fill="#A2486B"/>
<path d="M867.03 720.571L845.793 773.365L851.712 771.557L870.86 724.91L867.03 720.571Z" fill="#4A0B33"/>
<path d="M831.871 756.007L845.797 773.364L867.383 720.569L869.124 698.873L856.938 686.94L831.871 756.007Z" fill="#A2486B"/>
<path d="M873.994 705.384L868.772 699.598L867.031 720.209L871.557 725.272L1057.47 674.286L1059.56 654.759L873.994 705.384Z" fill="#4A0B33"/>
<path d="M864.252 685.133L857.289 686.941L873.652 704.66L1059.57 654.758L1036.59 644.633H1027.88L1044.94 653.673L876.089 697.789L864.252 685.133Z" fill="#A2486B"/>
<path d="M882.356 810.611L864.948 739.375L857.289 756.732L868.082 801.571L882.356 810.611Z" fill="#4A0B33"/>
<path d="M887.583 807.716L870.872 737.926L864.953 739.011L882.361 810.247L887.583 807.716Z" fill="#A2486B"/>
<path d="M1044.58 755.285L1025.43 694.173L1019.52 695.258L1039.36 757.816L1044.58 755.285Z" fill="#A2486B"/>
<path d="M1025.44 686.94L867.727 733.949V740.096L1027.53 694.172L1025.44 686.94Z" fill="#4A0B33"/>
<path d="M877.133 789.275L880.615 790.36L874.696 765.047L1034.5 713.699H1028.93L871.215 764.324L877.133 789.275Z" fill="#4A0B33"/>
<path d="M840.059 633.487L879.379 636.505" stroke="#4A0B33" stroke-width="2"/>
<path d="M828.844 633.063V630.533C828.844 630.533 825.434 630.027 825.434 631.545C825.434 633.063 828.844 633.063 828.844 633.063Z" fill="#A2486B"/>
<path d="M840.797 627.882L839.689 638.385L829.345 637.707L830.369 626.626L840.797 627.882Z" fill="#A2486B"/>
<ellipse rx="5.50763" ry="1.97073" transform="matrix(-0.0929608 1.00603 -0.984355 -0.0981225 829.861 632.166)" fill="#A2486B"/>
<ellipse rx="5.24416" ry="1.5817" transform="matrix(-0.0929608 1.00603 -0.984355 -0.0981225 840.155 633.176)" fill="#4A0B33"/>
<path opacity="0.8" d="M638.922 694.224C638.922 694.224 444.528 703.332 441.117 686.127C439.749 679.224 475.566 668.27 507.864 663.356C556.067 656.023 613.641 648.681 613.641 648.681L638.922 694.224Z" fill="#612B48"/>
<path d="M653.994 626.433L640.969 651.756L605.053 653.39L635.444 600.294L600.711 548.422H636.628L705.699 651.756L672.15 653.39L653.994 626.433Z" fill="#4B0B33"/>
<path d="M601.211 547.914L561.963 564.219L556.566 568.296L572.266 592.245L613.966 567.786L601.211 547.914Z" fill="#A2486B"/>
<path d="M668.427 597.85L648.803 623.837L603.668 615.684L624.273 590.716H668.427V597.85Z" fill="#A2486B"/>
<path d="M605.138 565.748H565.89L563.438 564.22H606.61L692.955 692.627H690.012L605.138 565.748Z" fill="#A2486B"/>
<path d="M635.502 549.151H603.688L601.699 547.913H636.695L706.687 651.862H704.301L635.502 549.151Z" fill="#A2486B"/>
<path d="M614.829 583.13L629.764 591.294C629.764 591.294 662.033 609.458 663.605 615.173C665.177 620.888 660.418 679.462 660.418 679.462L643.912 681.911C643.912 681.911 646.313 638.848 645.527 629.868C644.741 620.888 613.257 615.785 610.113 607.622C606.969 599.458 614.829 583.13 614.829 583.13Z" fill="#6A1048"/>
<path d="M639.191 544.762L635.261 543.129L625.043 578.233L636.877 597.214L648.667 592.315L639.191 544.762Z" fill="#6A1048"/>
<path d="M654.214 566.761C646.199 552.768 645.684 525.679 645.684 525.679L648.928 524.779C648.928 524.779 660.57 554.73 665.921 561.088C669.21 564.995 698.652 556.612 704.435 561.088C706.051 566.761 699.799 567.043 696.005 569.705C692.21 572.366 662.23 580.753 654.214 566.761Z" fill="#6A1048"/>
<path d="M666.352 533.505C667.924 528.607 674.675 514.594 669.993 504.328C669.993 510.859 664.365 521.903 664.365 521.903C664.365 521.903 646.816 535.402 650.746 534.586C654.676 533.769 652.92 550.255 659.069 550.255C665.218 550.255 664.78 538.403 666.352 533.505Z" fill="#4B0B33"/>
<path d="M683.258 591.025C677.756 583.677 651.818 586.599 651.818 586.599L625.094 600.821L643.172 622.047C643.172 622.047 665.18 608.984 668.324 611.434C671.468 613.883 669.896 666.947 669.896 666.947H681.686C681.686 666.947 688.76 598.372 683.258 591.025Z" fill="#6A1048"/>
<path d="M610.9 582.314C612.969 561.905 632.123 534.148 632.123 534.148L637.668 537.618C637.668 537.618 628.193 570.069 628.978 580.682C629.461 587.205 645.253 603.47 647.842 612.52C649.466 618.195 641.554 621.5 638.411 619.051C635.267 616.602 608.832 602.724 610.9 582.314Z" fill="#6A1048"/>
<path d="M680.11 594.292C675.387 589.394 645.526 590.682 644.74 587.416C643.954 584.151 680.102 584.496 685.605 590.21C691.107 595.925 684.82 641.642 682.461 641.642C680.102 641.642 684.834 599.19 680.11 594.292Z" fill="url(#paint48_linear)"/>
<path d="M660.459 559.66C656.601 555.377 648.17 530.218 648.17 530.218L651.787 529.837C651.787 529.837 659.605 550.451 664.956 556.809C668.245 560.717 704.434 559.505 704.434 560.823C704.434 562.141 664.318 563.942 660.459 559.66Z" fill="url(#paint49_linear)"/>
<path d="M668.857 517.885C668.212 522.217 674.673 528.102 668.857 528.102C666.869 528.102 668.37 531.139 665.829 532.424C663.123 533.792 665.309 538.908 655.578 535.513C649.572 534.547 639.437 526.732 640.766 517.821C642.094 508.909 650.205 505.575 660.388 503.243C671.552 504.328 672.529 511.548 668.857 517.885Z" fill="url(#paint50_linear)"/>
<path d="M654.127 588.845C655.699 586.396 657.271 549.659 654.913 545.577C652.555 541.495 637.621 532.515 637.621 539.863C637.621 547.21 636.049 561.088 635.263 565.17C634.477 569.252 632.949 582.518 632.949 582.518C632.949 582.518 637.665 593.947 641.595 593.947C645.525 593.947 652.555 591.294 654.127 588.845Z" fill="url(#paint51_linear)"/>
<path d="M659.698 615.632C654.974 610.734 638.451 599.662 637.665 596.396C636.879 593.131 656.56 606.996 662.063 612.71C667.565 618.425 665.987 671.961 663.628 671.961C661.269 671.961 664.422 620.53 659.698 615.632Z" fill="url(#paint52_linear)"/>
<path d="M622.689 580.681C621.903 573.334 628.189 546.394 629.762 543.128C631.334 539.863 635.264 540.679 634.478 542.312C633.692 543.944 628.187 570.068 628.973 580.681C629.456 587.204 651.787 608.979 647.837 612.52C647.837 612.52 623.475 588.028 622.689 580.681Z" fill="url(#paint53_linear)"/>
<path d="M653.345 548.844C653.345 541.496 645.575 524.751 651.907 510.873C656.053 501.785 641.967 509.23 634.525 521.291C630.601 527.649 627.43 536.258 627.43 538.231C627.43 543.946 641.555 544.762 643.127 548.844C644.699 552.926 642.341 566.804 644.699 566.804C647.057 566.804 653.345 556.191 653.345 548.844Z" fill="#6A1048"/>
<path d="M629.777 518.062C628.205 522.144 632.135 527.858 636.065 527.858C639.995 527.858 641.573 527.042 651.791 518.062C662.009 509.082 671.561 512.56 671.561 512.56C671.561 512.56 671.559 499.317 662.003 496.836C652.447 494.355 652.571 496.836 645.497 501.734C638.423 506.632 631.349 513.98 629.777 518.062Z" fill="#4B0B33"/>
<path d="M701.207 563.224L773.424 548.88" stroke="#4B0B33" stroke-width="2"/>
<path d="M628.19 662.156L612.113 693.652L567.777 695.684L605.292 629.644L562.418 565.128H606.753L692.014 693.652L650.602 695.684L628.19 662.156Z" fill="#4B0B33"/>
<path d="M604.811 568.224H564.861L561.938 564.682H607.165L678.816 671.453H676.43L604.811 568.224Z" fill="#A2486B"/>
<path d="M776.539 541.288L778.931 552.779L767.784 555.847L765.108 543.776L776.539 541.288Z" fill="url(#paint54_linear)"/>
<path d="M767.784 555.847C766.617 556.126 765.072 553.65 764.333 550.316C763.594 546.983 763.941 544.055 765.108 543.776C766.275 543.496 767.82 545.972 768.559 549.306C769.298 552.639 768.951 555.567 767.784 555.847Z" fill="url(#paint55_linear)"/>
<ellipse rx="5.89135" ry="1.74218" transform="matrix(0.216259 0.97546 -0.973465 0.232816 777.652 547.117)" fill="#6A1048"/>
<path d="M795.385 536.689L797.836 548.166L786.705 551.296L783.966 539.24L795.385 536.689Z" fill="url(#paint56_linear)"/>
<path d="M786.705 551.296C785.539 551.581 783.981 549.114 783.225 545.785C782.469 542.456 782.801 539.525 783.966 539.24C785.132 538.954 786.69 541.421 787.446 544.751C788.202 548.08 787.871 551.01 786.705 551.296Z" fill="url(#paint57_linear)"/>
<ellipse rx="5.89116" ry="1.74224" transform="matrix(0.221315 0.974269 -0.972211 0.238243 796.532 542.508)" fill="#6A1048"/>
<path d="M778.299 546.657C777.764 546.794 777.435 547.34 777.565 547.876C777.695 548.412 778.235 548.735 778.771 548.598L778.299 546.657ZM782.862 547.55L783.832 547.301L783.361 545.36L782.391 545.608L782.862 547.55ZM778.771 548.598L782.862 547.55L782.391 545.608L778.299 546.657L778.771 548.598Z" fill="#4B0B33"/>
<path d="M797.945 542.365L802.037 541.317" stroke="#4B0B33" stroke-width="2" stroke-linecap="round"/>
<path d="M654.011 512.054C661.098 506.759 667.652 509.923 668.14 508.512C668.627 507.101 666.701 502.948 663.766 501.096C660.83 499.244 658.358 499.91 656.72 501.525C655.083 503.14 653.291 504.448 651.438 507.317C649.585 510.186 646.924 517.35 654.011 512.054Z" fill="#E26276" fill-opacity="0.7"/>
<g opacity="0.7">
<path d="M652.342 834.073L614.341 860.387L558.312 885.182C558.312 885.182 515.925 913.013 505.207 901.881C494.489 890.748 522.746 873.037 522.746 873.037L586.57 806.748C586.57 806.748 725.177 740.73 733.946 745.284C735.345 746.01 721.52 750.693 718.76 753.014C724.656 751.078 744.271 746.537 746.136 748.281C755.88 757.389 652.342 834.073 652.342 834.073Z" fill="#5A2441"/>
<path d="M530.541 788.025L581.21 753.109L589.493 756.294L574.389 768.796L714.217 824.965L725.91 819.904L739.551 807.76L708.858 864.435L530.541 788.025Z" fill="#5A2441"/>
<path d="M730.782 853.302C739.481 851.151 773.195 797.362 781.939 780.434C783.48 777.451 795.58 755.133 795.58 755.133L780.477 772.338L774.143 770.314C774.143 770.314 720.551 855.832 730.782 853.302Z" fill="#5A2441"/>
<path d="M680.113 917.062C699.114 917.062 759.624 796.627 759.624 796.627L739.649 810.796C739.649 810.796 661.112 917.062 680.113 917.062Z" fill="#5A2441"/>
<path d="M475 822.941L530.541 787.013L545.644 792.728L535.9 801.687L692.293 872.025L703.986 858.869L707.883 863.929L676.702 919.086L475 822.941Z" fill="#5A2441"/>
</g>
<path d="M682.707 727.01C660.38 727.01 660.38 698.023 660.38 698.023C660.38 698.023 727.36 670.486 735.733 681.356C744.105 692.226 739.221 742.953 739.221 742.953C739.221 742.953 753.176 739.33 750.385 748.026C747.594 756.722 728.058 760.345 724.569 756.722C721.081 753.098 729.453 711.792 726.663 707.444C723.872 703.096 705.034 727.01 682.707 727.01Z" fill="#4B0B33"/>
<path d="M691.081 621.206C665.265 621.815 660.381 698.746 660.381 698.746C660.381 698.746 725.687 680.628 723.873 678.455C707.128 645.121 716.896 620.597 691.081 621.206Z" fill="#4B0B33"/>
<path d="M703.805 624.563C703.805 616.488 717.188 625.346 720.46 613.535C721.36 610.287 720.46 606.964 723.597 605.318C726.397 603.849 722.802 600.321 721.401 595.229C720.106 590.527 719.089 583.084 715.192 583.084C711.294 583.084 710.742 586.961 710.742 586.961L698.41 622.928C698.41 622.928 703.805 627.048 703.805 624.563Z" fill="url(#paint58_linear)"/>
<path d="M739.065 742.483C741.988 744.507 744.424 742.483 748.809 742.483C753.193 742.483 740.66 742.698 740.039 739.447C739.418 736.196 741.988 687.428 737.032 682.238C732.077 677.048 737.996 684.064 738.274 704.346C738.979 719.745 736.141 740.459 739.065 742.483Z" fill="url(#paint59_linear)"/>
<path d="M721.011 684.064C719.323 689.854 723.945 685.137 725.763 681.917C727.581 678.698 706.407 627.242 704.838 627.556C703.269 627.869 722.699 678.275 721.011 684.064Z" fill="url(#paint60_linear)"/>
<path d="M708.441 625.616C708.441 625.616 710.554 623.97 705.272 617.387C699.991 610.805 682.033 604.771 677.28 610.805C672.527 616.839 672.526 644.267 677.28 646.461C682.033 648.655 705.8 633.844 710.025 631.65C714.251 629.456 708.441 625.616 708.441 625.616Z" fill="#4B0B33"/>
<path d="M685.703 612.123C686.401 621.543 691.388 623.914 691.388 623.914C691.388 623.914 696.141 631.886 696.141 623.914C696.141 615.943 711.519 614.02 710.123 611.846C708.728 609.672 708.03 607.05 708.03 604.876C708.03 602.702 708.03 600.528 710.123 600.528C712.216 600.528 711.647 604.876 713.042 604.876C714.437 604.876 717.798 591.107 715.705 588.209C714.43 586.443 719.255 578.024 715.705 576.19C713.427 575.013 704.415 579.671 698.96 580.237C685.006 581.686 685.006 602.702 685.703 612.123Z" fill="#4B0B33"/>
<path d="M649.383 713.597L599.249 643.807L574.878 656.102L626.753 733.124L649.383 713.597Z" fill="#A3486B"/>
<path d="M587.763 757.352L607.608 694.071L622.23 698.411L607.608 747.227L587.763 757.352Z" fill="#4B0B33"/>
<path d="M773.324 720.107L759.746 738.91V733.486L601.684 686.477L628.144 677.076L773.324 720.107Z" fill="#A3486B"/>
<path d="M592.639 712.514L752.441 764.224L746.523 789.175L584.631 734.934L592.639 712.514Z" fill="#A3486B"/>
<path d="M760.099 719.746L781.336 772.54L775.417 770.732L756.269 724.085L760.099 719.746Z" fill="#4B0B33"/>
<path d="M795.258 755.182L781.332 772.54L759.746 719.745L758.005 698.049L770.191 686.116L795.258 755.182Z" fill="#A3486B"/>
<path d="M753.131 704.557L758.353 698.772L760.094 719.383L755.568 724.446L569.654 673.459L567.565 653.933L753.131 704.557Z" fill="#4B0B33"/>
<path d="M762.877 684.307L769.84 686.116L753.477 703.834L567.562 653.933L590.541 643.808H599.244L582.185 652.848L751.04 696.964L762.877 684.307Z" fill="#A3486B"/>
<path d="M744.773 809.787L762.18 738.55L769.84 755.907L759.047 800.747L744.773 809.787Z" fill="#4B0B33"/>
<path d="M739.546 806.892L756.257 737.102L762.176 738.187L744.768 809.423L739.546 806.892Z" fill="#A3486B"/>
<path d="M582.542 754.459L601.691 693.347L607.609 694.432L587.765 756.99L582.542 754.459Z" fill="#A3486B"/>
<path d="M601.689 686.116L759.402 733.124V739.272L599.6 693.348L601.689 686.116Z" fill="#4B0B33"/>
<path d="M749.995 788.449L746.514 789.533L752.433 764.221L592.63 712.873H598.2L755.914 763.498L749.995 788.449Z" fill="#4B0B33"/>
</g>
<path d="M14.9671 912.993L1618.75 919.325L1657.89 1050H0L28.2072 990.131L14.9671 912.993Z" fill="white"/>
<path d="M181.217 391.056V984.075L39.6575 995.589L46.2314 207.715L13.8174 137.657L26.1757 124.184L46.2314 161.908L53.1393 -44.3493H171.105V343.452L218.292 303.931V322.793L181.217 391.056Z" fill="url(#paint61_linear)"/>
<path d="M1509.71 598.921V972.683H1634.1L1622.25 410.217L1656.8 330.276L1645.94 314.903L1622.25 357.948V-63.5273H1518.6V544.602L1477.13 499.507V521.03L1509.71 598.921Z" fill="url(#paint62_linear)"/>
<path d="M511.579 866.477C530.53 865.491 543.795 910.867 543.795 910.867L0.00166321 985.086C0.00166321 985.086 19.6746 973.102 16.12 954.441C11.5148 930.263 2.90546 878.356 22.2158 861.699C49.5063 838.158 47.9586 803.536 62.1713 799.589C76.3839 795.642 39.7195 763.886 68.1447 747.117C96.5699 730.348 97.5174 676.093 122.153 656.364C146.788 636.634 225.432 619.864 255.752 636.634C286.072 653.404 306.918 689.902 329.658 698.781C352.398 707.659 338.185 698.781 390.298 707.659C442.411 716.538 423.461 823.073 446.201 845.762C468.941 868.451 492.629 867.463 511.579 866.477Z" fill="url(#paint63_linear)"/>
<path d="M0.00166321 1049.76C218.291 1049.76 319.281 917.478 828.95 917.478C1338.62 917.478 1400.57 1049.76 1657.89 1049.76C1915.22 1049.76 1657.89 985.086 1657.89 985.086C1657.89 985.086 1371.95 891.553 828.95 891.553C285.955 891.553 0.00166321 985.086 0.00166321 985.086V1032.15C0.00166321 1032.15 -218.287 1049.76 0.00166321 1049.76Z" fill="url(#paint64_linear)"/>
<path d="M1285.59 902.269C1270.71 901.495 1234.99 937.128 1260.29 937.128C1285.59 937.128 1416.7 955.405 1512.69 949.804C1608.67 944.202 1712.47 1062.71 1722.94 1039.64C1733.42 1016.56 1725.36 997.615 1704.52 997.615C1683.69 997.615 1655.01 1005.05 1657.89 985.086C1620.48 976.847 1628.5 798.679 1606.18 785.511C1583.86 772.342 1610.75 752.763 1591.4 737.27C1572.06 721.776 1510.3 708.607 1486.49 721.776C1462.68 734.945 1446.31 763.607 1428.45 770.579C1410.59 777.552 1421.75 770.579 1380.83 777.552C1339.91 784.524 1354.79 868.185 1336.93 886.002C1319.07 903.819 1300.47 903.044 1285.59 902.269Z" fill="url(#paint65_linear)"/>
<path d="M1320.59 859.532C1330.91 866.92 1330.91 882.929 1330.91 882.929C1330.91 882.929 1313.71 882.929 1306.83 875.541C1299.96 868.152 1301.1 849.68 1301.1 849.68C1301.1 849.68 1310.27 852.143 1320.59 859.532Z" fill="url(#paint66_linear)"/>
<path d="M1473.68 711.012C1481.86 716.732 1481.86 729.126 1481.86 729.126C1481.86 729.126 1468.22 729.126 1462.77 723.406C1457.31 717.686 1458.22 703.385 1458.22 703.385C1458.22 703.385 1465.5 705.292 1473.68 711.012Z" fill="url(#paint67_linear)"/>
<path d="M1505.96 701.935C1512.93 711.529 1508.37 725.189 1508.37 725.189C1508.37 725.189 1493.23 719.708 1489.28 711.211C1485.33 702.714 1491.6 687.317 1491.6 687.317C1491.6 687.317 1498.98 692.342 1505.96 701.935Z" fill="url(#paint68_linear)"/>
</g>
<defs>
<filter id="filter0_d" x="662" y="541" width="301.138" height="185" filterUnits="userSpaceOnUse" color-interpolation-filters="sRGB">
<feFlood flood-opacity="0" result="BackgroundImageFix"/>
<feColorMatrix in="SourceAlpha" type="matrix" values="0 0 0 0 0 0 0 0 0 0 0 0 0 0 0 0 0 0 127 0"/>
<feOffset dy="-23"/>
<feGaussianBlur stdDeviation="37"/>
<feColorMatrix type="matrix" values="0 0 0 0 1 0 0 0 0 0.52549 0 0 0 0 0.247059 0 0 0 0.3 0"/>
<feBlend mode="normal" in2="BackgroundImageFix" result="effect1_dropShadow"/>
<feBlend mode="normal" in="SourceGraphic" in2="effect1_dropShadow" result="shape"/>
</filter>
<linearGradient id="paint0_linear" x1="830.868" y1="-59.541" x2="830.868" y2="668.957" gradientUnits="userSpaceOnUse">
<stop stop-color="#182234"/>
<stop offset="1" stop-color="#AE3562"/>
</linearGradient>
<linearGradient id="paint1_linear" x1="260.912" y1="239.176" x2="260.912" y2="328.309" gradientUnits="userSpaceOnUse">
<stop stop-color="white" stop-opacity="0.24"/>
<stop offset="1" stop-color="white" stop-opacity="0.34"/>
</linearGradient>
<linearGradient id="paint2_linear" x1="1285.5" y1="99.6625" x2="1285.5" y2="140" gradientUnits="userSpaceOnUse">
<stop stop-color="white" stop-opacity="0.24"/>
<stop offset="1" stop-color="white" stop-opacity="0.34"/>
</linearGradient>
<linearGradient id="paint3_linear" x1="1244.11" y1="366.82" x2="1244.11" y2="434.308" gradientUnits="userSpaceOnUse">
<stop stop-color="white" stop-opacity="0.24"/>
<stop offset="1" stop-color="white" stop-opacity="0.34"/>
</linearGradient>
<linearGradient id="paint4_linear" x1="1115.72" y1="738.429" x2="1126.34" y2="746.879" gradientUnits="userSpaceOnUse">
<stop stop-color="#9A7627"/>
<stop offset="0.447917" stop-color="#434A77"/>
<stop offset="1" stop-color="#092043"/>
</linearGradient>
<linearGradient id="paint5_linear" x1="660.011" y1="718.315" x2="655.096" y2="722.228" gradientUnits="userSpaceOnUse">
<stop stop-color="#FFCC5C"/>
<stop offset="0.447917" stop-color="#434A77"/>
<stop offset="1" stop-color="#092043"/>
</linearGradient>
<linearGradient id="paint6_linear" x1="386.573" y1="674.067" x2="381.644" y2="677.956" gradientUnits="userSpaceOnUse">
<stop stop-color="#9A7627"/>
<stop offset="0.447917" stop-color="#434A77"/>
<stop offset="1" stop-color="#092043"/>
</linearGradient>
<linearGradient id="paint7_linear" x1="811.552" y1="739.638" x2="813.557" y2="752.113" gradientUnits="userSpaceOnUse">
<stop stop-color="#7B5D1B"/>
<stop offset="0.447917" stop-color="#434A77"/>
<stop offset="1" stop-color="#092043"/>
</linearGradient>
<linearGradient id="paint8_linear" x1="1262.87" y1="683.725" x2="1267.8" y2="687.613" gradientUnits="userSpaceOnUse">
<stop stop-color="#9A7627"/>
<stop offset="0.447917" stop-color="#434A77"/>
<stop offset="1" stop-color="#092043"/>
</linearGradient>
<radialGradient id="paint9_radial" cx="0" cy="0" r="1" gradientUnits="userSpaceOnUse" gradientTransform="translate(807.236 656.756) rotate(-107.299) scale(13.5999 62.8995)">
<stop offset="0.0625" stop-color="#FFE7AE"/>
<stop offset="0.619792" stop-color="#FDCA5C"/>
<stop offset="1" stop-color="#FE863E"/>
</radialGradient>
<linearGradient id="paint10_linear" x1="780.493" y1="641.577" x2="774.4" y2="616.26" gradientUnits="userSpaceOnUse">
<stop stop-color="#E0943A"/>
<stop offset="0.447917" stop-color="#434A77"/>
<stop offset="1" stop-color="#092043"/>
</linearGradient>
<linearGradient id="paint11_linear" x1="839.493" y1="639.576" x2="833.4" y2="614.26" gradientUnits="userSpaceOnUse">
<stop stop-color="#E0943A"/>
<stop offset="0.447917" stop-color="#434A77"/>
<stop offset="1" stop-color="#092043"/>
</linearGradient>
<linearGradient id="paint12_linear" x1="754.252" y1="645.624" x2="745.321" y2="608.518" gradientUnits="userSpaceOnUse">
<stop stop-color="#E0943A"/>
<stop offset="0.447917" stop-color="#434A77"/>
<stop offset="1" stop-color="#092043"/>
</linearGradient>
<linearGradient id="paint13_linear" x1="857.196" y1="652.85" x2="879.624" y2="623.665" gradientUnits="userSpaceOnUse">
<stop stop-color="#E0943A"/>
<stop offset="0.447917" stop-color="#434A77"/>
<stop offset="1" stop-color="#092043"/>
</linearGradient>
<linearGradient id="paint14_linear" x1="798.759" y1="641.674" x2="806.688" y2="601.094" gradientUnits="userSpaceOnUse">
<stop stop-color="#E0943A"/>
<stop offset="0.447917" stop-color="#434A77"/>
<stop offset="1" stop-color="#092043"/>
</linearGradient>
<linearGradient id="paint15_linear" x1="883.44" y1="663.486" x2="907.765" y2="630.27" gradientUnits="userSpaceOnUse">
<stop stop-color="#E0943A"/>
<stop offset="0.447917" stop-color="#434A77"/>
<stop offset="1" stop-color="#092043"/>
</linearGradient>
<linearGradient id="paint16_linear" x1="740.085" y1="643.717" x2="718.277" y2="653.641" gradientUnits="userSpaceOnUse">
<stop stop-color="#FFCC5C"/>
<stop offset="0.447917" stop-color="#434A77"/>
<stop offset="1" stop-color="#092043"/>
</linearGradient>
<linearGradient id="paint17_linear" x1="747.113" y1="653.717" x2="725.304" y2="663.641" gradientUnits="userSpaceOnUse">
<stop stop-color="#FFCC5C"/>
<stop offset="0.447917" stop-color="#434A77"/>
<stop offset="1" stop-color="#092043"/>
</linearGradient>
<linearGradient id="paint18_linear" x1="764.441" y1="653.081" x2="751.246" y2="670.682" gradientUnits="userSpaceOnUse">
<stop stop-color="#FFCC5C"/>
<stop offset="0.447917" stop-color="#434A77"/>
<stop offset="1" stop-color="#092043"/>
</linearGradient>
<linearGradient id="paint19_linear" x1="799.5" y1="588" x2="799.5" y2="668" gradientUnits="userSpaceOnUse">
<stop stop-color="#FF4B3F"/>
<stop offset="1" stop-color="#FF9B3F"/>
</linearGradient>
<linearGradient id="paint20_linear" x1="814.5" y1="583" x2="814.5" y2="668" gradientUnits="userSpaceOnUse">
<stop stop-color="#FF4B3F"/>
<stop offset="1" stop-color="#FF9B3F"/>
</linearGradient>
<linearGradient id="paint21_linear" x1="808.907" y1="614.031" x2="808.907" y2="658.001" gradientUnits="userSpaceOnUse">
<stop stop-color="#FED16E"/>
<stop offset="1" stop-color="#FD9E41"/>
</linearGradient>
<linearGradient id="paint22_linear" x1="792.579" y1="647.871" x2="783.647" y2="673.38" gradientUnits="userSpaceOnUse">
<stop stop-color="#FFCC5C"/>
<stop offset="0.447917" stop-color="#434A77"/>
<stop offset="1" stop-color="#092043"/>
</linearGradient>
<linearGradient id="paint23_linear" x1="882.89" y1="652.003" x2="898.161" y2="654.527" gradientUnits="userSpaceOnUse">
<stop stop-color="#FFCC5C"/>
<stop offset="0.447917" stop-color="#434A77"/>
<stop offset="1" stop-color="#092043"/>
</linearGradient>
<linearGradient id="paint24_linear" x1="858.308" y1="655.297" x2="880.488" y2="669.896" gradientUnits="userSpaceOnUse">
<stop stop-color="#FFCC5C"/>
<stop offset="0.447917" stop-color="#434A77"/>
<stop offset="1" stop-color="#092043"/>
</linearGradient>
<linearGradient id="paint25_linear" x1="844.191" y1="654.631" x2="850.681" y2="676.059" gradientUnits="userSpaceOnUse">
<stop stop-color="#FFCC5C"/>
<stop offset="0.447917" stop-color="#434A77"/>
<stop offset="1" stop-color="#092043"/>
</linearGradient>
<linearGradient id="paint26_linear" x1="832.966" y1="643.968" x2="833.062" y2="675.559" gradientUnits="userSpaceOnUse">
<stop stop-color="#FFCC5C"/>
<stop offset="0.447917" stop-color="#434A77"/>
<stop offset="1" stop-color="#092043"/>
</linearGradient>
<linearGradient id="paint27_linear" x1="1416.83" y1="174.742" x2="1416.83" y2="716.782" gradientUnits="userSpaceOnUse">
<stop stop-color="#182234"/>
<stop offset="1" stop-color="#76395A"/>
</linearGradient>
<linearGradient id="paint28_linear" x1="339.854" y1="106.473" x2="339.854" y2="648.781" gradientUnits="userSpaceOnUse">
<stop stop-color="#182234"/>
<stop offset="1" stop-color="#76395A"/>
</linearGradient>
<linearGradient id="paint29_linear" x1="1301.2" y1="165.188" x2="1301.2" y2="707.496" gradientUnits="userSpaceOnUse">
<stop stop-color="#182234"/>
<stop offset="1" stop-color="#76395A"/>
</linearGradient>
<linearGradient id="paint30_linear" x1="193.058" y1="99.5647" x2="193.058" y2="641.872" gradientUnits="userSpaceOnUse">
<stop stop-color="#182234"/>
<stop offset="1" stop-color="#76395A"/>
</linearGradient>
<linearGradient id="paint31_linear" x1="254.691" y1="108.029" x2="254.691" y2="650.337" gradientUnits="userSpaceOnUse">
<stop stop-color="#182234"/>
<stop offset="1" stop-color="#76395A"/>
</linearGradient>
<linearGradient id="paint32_linear" x1="1522.49" y1="108.029" x2="1522.49" y2="650.337" gradientUnits="userSpaceOnUse">
<stop stop-color="#182234"/>
<stop offset="1" stop-color="#76395A"/>
</linearGradient>
<linearGradient id="paint33_linear" x1="465.329" y1="700.293" x2="456.911" y2="705.476" gradientUnits="userSpaceOnUse">
<stop stop-color="#9A7627"/>
<stop offset="0.447917" stop-color="#434A77"/>
<stop offset="1" stop-color="#092043"/>
</linearGradient>
<linearGradient id="paint34_linear" x1="813.504" y1="43.0215" x2="815.402" y2="636.366" gradientUnits="userSpaceOnUse">
<stop stop-color="#FED16F" stop-opacity="0.05"/>
<stop offset="1" stop-color="#FF873F" stop-opacity="0.33"/>
</linearGradient>
<linearGradient id="paint35_linear" x1="989.27" y1="630.396" x2="950.295" y2="660.443" gradientUnits="userSpaceOnUse">
<stop stop-color="#E05E77"/>
<stop offset="1" stop-color="#EE8063"/>
</linearGradient>
<linearGradient id="paint36_linear" x1="1014.23" y1="503.011" x2="942.225" y2="627.725" gradientUnits="userSpaceOnUse">
<stop stop-color="#A93756"/>
<stop offset="1" stop-color="#EE8063"/>
</linearGradient>
<linearGradient id="paint37_linear" x1="1014.23" y1="503.011" x2="942.225" y2="627.725" gradientUnits="userSpaceOnUse">
<stop stop-color="#A93756"/>
<stop offset="1" stop-color="#EE8063"/>
</linearGradient>
<linearGradient id="paint38_linear" x1="1014.23" y1="503.011" x2="942.225" y2="627.725" gradientUnits="userSpaceOnUse">
<stop stop-color="#A93756"/>
<stop offset="1" stop-color="#EE8063"/>
</linearGradient>
<linearGradient id="paint39_linear" x1="1014.23" y1="503.011" x2="942.225" y2="627.725" gradientUnits="userSpaceOnUse">
<stop stop-color="#A93756"/>
<stop offset="1" stop-color="#EE8063"/>
</linearGradient>
<linearGradient id="paint40_linear" x1="1014.23" y1="503.011" x2="942.225" y2="627.725" gradientUnits="userSpaceOnUse">
<stop stop-color="#A93756"/>
<stop offset="1" stop-color="#EE8063"/>
</linearGradient>
<linearGradient id="paint41_linear" x1="1014.23" y1="503.011" x2="942.225" y2="627.725" gradientUnits="userSpaceOnUse">
<stop stop-color="#A93756"/>
<stop offset="1" stop-color="#EE8063"/>
</linearGradient>
<linearGradient id="paint42_linear" x1="1014.23" y1="503.011" x2="942.225" y2="627.725" gradientUnits="userSpaceOnUse">
<stop stop-color="#A93756"/>
<stop offset="1" stop-color="#EE8063"/>
</linearGradient>
<linearGradient id="paint43_linear" x1="1014.23" y1="503.011" x2="942.225" y2="627.725" gradientUnits="userSpaceOnUse">
<stop stop-color="#A93756"/>
<stop offset="1" stop-color="#EE8063"/>
</linearGradient>
<linearGradient id="paint44_linear" x1="1014.23" y1="503.011" x2="942.225" y2="627.725" gradientUnits="userSpaceOnUse">
<stop stop-color="#A93756"/>
<stop offset="1" stop-color="#EE8063"/>
</linearGradient>
<linearGradient id="paint45_linear" x1="909.755" y1="581.415" x2="846.449" y2="646.989" gradientUnits="userSpaceOnUse">
<stop stop-color="#BB495B"/>
<stop offset="1" stop-color="#EA7B63"/>
</linearGradient>
<linearGradient id="paint46_linear" x1="909.755" y1="581.415" x2="846.449" y2="646.989" gradientUnits="userSpaceOnUse">
<stop stop-color="#BB495B"/>
<stop offset="1" stop-color="#EA7B63"/>
</linearGradient>
<linearGradient id="paint47_linear" x1="909.755" y1="581.415" x2="846.449" y2="646.989" gradientUnits="userSpaceOnUse">
<stop stop-color="#BB495B"/>
<stop offset="1" stop-color="#EA7B63"/>
</linearGradient>
<linearGradient id="paint48_linear" x1="637.849" y1="496.235" x2="804.696" y2="575.326" gradientUnits="userSpaceOnUse">
<stop stop-color="#A93756"/>
<stop offset="1" stop-color="#FEA64D"/>
</linearGradient>
<linearGradient id="paint49_linear" x1="637.849" y1="496.235" x2="804.696" y2="575.326" gradientUnits="userSpaceOnUse">
<stop stop-color="#A93756"/>
<stop offset="1" stop-color="#FEA64D"/>
</linearGradient>
<linearGradient id="paint50_linear" x1="637.849" y1="496.235" x2="804.696" y2="575.326" gradientUnits="userSpaceOnUse">
<stop stop-color="#A93756"/>
<stop offset="1" stop-color="#FEA64D"/>
</linearGradient>
<linearGradient id="paint51_linear" x1="637.849" y1="496.235" x2="804.696" y2="575.326" gradientUnits="userSpaceOnUse">
<stop stop-color="#A93756"/>
<stop offset="1" stop-color="#FEA64D"/>
</linearGradient>
<linearGradient id="paint52_linear" x1="637.849" y1="496.235" x2="804.696" y2="575.326" gradientUnits="userSpaceOnUse">
<stop stop-color="#A93756"/>
<stop offset="1" stop-color="#FEA64D"/>
</linearGradient>
<linearGradient id="paint53_linear" x1="637.849" y1="496.235" x2="804.696" y2="575.326" gradientUnits="userSpaceOnUse">
<stop stop-color="#A93756"/>
<stop offset="1" stop-color="#FEA64D"/>
</linearGradient>
<linearGradient id="paint54_linear" x1="794.318" y1="566.888" x2="774.322" y2="540.442" gradientUnits="userSpaceOnUse">
<stop stop-color="#FFB20B"/>
<stop offset="1" stop-color="#832056"/>
</linearGradient>
<linearGradient id="paint55_linear" x1="794.318" y1="566.888" x2="774.322" y2="540.442" gradientUnits="userSpaceOnUse">
<stop stop-color="#FFB20B"/>
<stop offset="1" stop-color="#832056"/>
</linearGradient>
<linearGradient id="paint56_linear" x1="813.296" y1="562.188" x2="793.161" y2="535.857" gradientUnits="userSpaceOnUse">
<stop stop-color="#FFB20B"/>
<stop offset="1" stop-color="#8C245D"/>
</linearGradient>
<linearGradient id="paint57_linear" x1="813.296" y1="562.188" x2="793.161" y2="535.857" gradientUnits="userSpaceOnUse">
<stop stop-color="#FFB20B"/>
<stop offset="1" stop-color="#8C245D"/>
</linearGradient>
<linearGradient id="paint58_linear" x1="702.015" y1="577.554" x2="771.131" y2="642.6" gradientUnits="userSpaceOnUse">
<stop stop-color="#B03E58"/>
<stop offset="1" stop-color="#EA7B63"/>
</linearGradient>
<linearGradient id="paint59_linear" x1="702.015" y1="577.554" x2="771.131" y2="642.6" gradientUnits="userSpaceOnUse">
<stop stop-color="#B03E58"/>
<stop offset="1" stop-color="#EA7B63"/>
</linearGradient>
<linearGradient id="paint60_linear" x1="702.015" y1="577.554" x2="771.131" y2="642.6" gradientUnits="userSpaceOnUse">
<stop stop-color="#B03E58"/>
<stop offset="1" stop-color="#EA7B63"/>
</linearGradient>
<linearGradient id="paint61_linear" x1="868.727" y1="10.7877" x2="859.992" y2="867.202" gradientUnits="userSpaceOnUse">
<stop stop-color="#182234"/>
<stop offset="1" stop-color="#2E2652"/>
</linearGradient>
<linearGradient id="paint62_linear" x1="868.727" y1="10.7877" x2="859.992" y2="867.202" gradientUnits="userSpaceOnUse">
<stop stop-color="#182234"/>
<stop offset="1" stop-color="#2E2652"/>
</linearGradient>
<linearGradient id="paint63_linear" x1="868.727" y1="10.7877" x2="859.992" y2="867.202" gradientUnits="userSpaceOnUse">
<stop stop-color="#182234"/>
<stop offset="1" stop-color="#2E2652"/>
</linearGradient>
<linearGradient id="paint64_linear" x1="868.727" y1="10.7877" x2="859.992" y2="867.202" gradientUnits="userSpaceOnUse">
<stop stop-color="#182234"/>
<stop offset="1" stop-color="#2E2652"/>
</linearGradient>
<linearGradient id="paint65_linear" x1="868.727" y1="10.7877" x2="859.992" y2="867.202" gradientUnits="userSpaceOnUse">
<stop stop-color="#182234"/>
<stop offset="1" stop-color="#2E2652"/>
</linearGradient>
<linearGradient id="paint66_linear" x1="868.727" y1="10.7877" x2="859.992" y2="867.202" gradientUnits="userSpaceOnUse">
<stop stop-color="#182234"/>
<stop offset="1" stop-color="#2E2652"/>
</linearGradient>
<linearGradient id="paint67_linear" x1="868.727" y1="10.7877" x2="859.992" y2="867.202" gradientUnits="userSpaceOnUse">
<stop stop-color="#182234"/>
<stop offset="1" stop-color="#2E2652"/>
</linearGradient>
<linearGradient id="paint68_linear" x1="868.727" y1="10.7877" x2="859.992" y2="867.202" gradientUnits="userSpaceOnUse">
<stop stop-color="#182234"/>
<stop offset="1" stop-color="#2E2652"/>
</linearGradient>
</defs>
</svg>
