<svg width="1658" height="1050" viewBox="0 0 1658 1050" fill="none" xmlns="http://www.w3.org/2000/svg">
<mask id="mask0" mask-type="alpha" maskUnits="userSpaceOnUse" x="0" y="0" width="1658" height="1050">
<rect width="1657.89" height="1050" fill="#C4C4C4"/>
</mask>
<g mask="url(#mask0)">
<mask id="mask1" mask-type="alpha" maskUnits="userSpaceOnUse" x="-14" y="0" width="1672" height="1013">
<rect x="-14" width="1671.71" height="1012.84" fill="#F8F4FD"/>
</mask>
<g mask="url(#mask1)">
<mask id="mask2" mask-type="alpha" maskUnits="userSpaceOnUse" x="-14" y="-29" width="1625" height="1017">
<rect x="-14" y="-29" width="1625" height="1017" fill="#D864A4"/>
</mask>
<g mask="url(#mask2)">
<rect x="49.4727" y="-59" width="1563.53" height="770" fill="url(#paint0_linear)"/>
<ellipse opacity="0.5" rx="1.90393" ry="1.69138" transform="matrix(0.0905255 -0.995894 0.993366 0.114998 1163.27 15.7774)" fill="white" fill-opacity="0.7"/>
<path opacity="0.4" d="M519.516 328.31H2.31641C2.31641 328.31 33.3579 279.464 66.3097 279.464C99.2615 279.464 139.377 303.305 166.598 303.305C193.819 303.305 252.081 195.729 299.36 195.729C346.639 195.729 380.546 278.301 400.603 278.301C420.661 278.301 427.824 259.112 445.494 263.764C463.164 268.416 519.516 328.31 519.516 328.31Z" fill="url(#paint1_linear)" fill-opacity="0.5"/>
<path opacity="0.4" d="M1348.34 83.5755H888.941C888.941 83.5755 927.774 37.3619 957.043 37.3619C986.313 37.3619 1010.69 58.2394 1034.86 58.2394C1059.04 58.2394 1110.79 -2.83252 1152.79 -2.83252C1194.79 -2.83252 1224.9 55.776 1242.72 55.776C1260.54 55.776 1266.9 45.1088 1282.59 47.6948C1298.29 50.2808 1348.34 83.5755 1348.34 83.5755Z" fill="url(#paint2_linear)" fill-opacity="0.4"/>
<path opacity="0.4" d="M1472.13 434.309H1016.1C1016.1 434.309 1041.36 392.457 1068.17 392.457C1094.98 392.457 1100.25 407.295 1122.4 407.295C1144.55 407.295 1145.06 364.678 1183.53 364.678C1222 364.678 1213.4 387.45 1243.56 392.457C1273.72 397.463 1278.4 333.923 1308.69 333.923C1338.99 333.923 1338.77 369.183 1375.74 392.457C1447.34 353.965 1472.13 434.309 1472.13 434.309Z" fill="url(#paint3_linear)" fill-opacity="0.5"/>
<ellipse opacity="0.5" cx="233.06" cy="639.509" rx="1.68898" ry="1.90606" fill="white"/>
<ellipse opacity="0.5" cx="430.103" cy="176.972" rx="1.68898" ry="1.90606" fill="white"/>
<ellipse opacity="0.5" cx="493.15" cy="29.5696" rx="1.68898" ry="1.90606" fill="white"/>
<ellipse opacity="0.5" rx="1.73995" ry="1.85965" transform="matrix(0.855133 0.518408 -0.429798 0.902925 82.0519 456.296)" fill="white"/>
<ellipse opacity="0.5" rx="1.73995" ry="1.85965" transform="matrix(0.855133 0.518408 -0.429798 0.902925 316.099 367.388)" fill="white"/>
<ellipse rx="3.06764" ry="2.9335" transform="matrix(0.514475 -0.857506 0.794589 0.607148 1375.54 434.674)" fill="white" fill-opacity="0.8"/>
<ellipse opacity="0.5" rx="1.84058" ry="1.7601" transform="matrix(0.514475 -0.857506 0.794589 0.607148 1319.49 163.195)" fill="white" fill-opacity="0.7"/>
<ellipse opacity="0.9" rx="2.89991" ry="3.09941" transform="matrix(0.855133 0.518408 -0.429798 0.902925 120.39 76.4396)" fill="white"/>
<ellipse opacity="0.5" rx="1.78046" ry="1.82089" transform="matrix(0.730674 -0.682727 0.591538 0.806277 734.933 302.382)" fill="white"/>
<ellipse rx="1.18698" ry="1.21393" transform="matrix(0.730674 -0.682727 0.591538 0.806277 601.906 161.902)" fill="white" fill-opacity="0.7"/>
<ellipse opacity="0.5" rx="1.78046" ry="1.82089" transform="matrix(0.730674 -0.682727 0.591538 0.806277 1072.6 289.57)" fill="white"/>
<path d="M879.695 655.644C887.896 655.947 896.838 650.931 896.838 650.931C896.838 650.931 892.247 627.237 880.547 626.27C868.846 625.303 865.205 649.763 865.205 649.763C865.205 649.763 871.494 655.341 879.695 655.644Z" fill="url(#paint4_linear)"/>
<path d="M902.478 671.286C910.36 671.286 918.805 664.932 918.805 664.932C918.805 664.932 913.738 636.977 902.478 636.341C891.218 635.706 888.403 664.932 888.403 664.932C888.403 664.932 894.596 671.286 902.478 671.286Z" fill="url(#paint5_linear)"/>
<path d="M841.997 652.591C852.161 653.765 863.635 648.589 863.635 648.589C863.635 648.589 859.668 619.527 845.206 617.206C830.745 614.885 824.43 644.06 824.43 644.06C824.43 644.06 831.833 651.416 841.997 652.591Z" fill="url(#paint6_linear)"/>
<path d="M801.179 654.12C812.564 654.12 824.762 646.96 824.762 646.96C824.762 646.96 817.443 615.456 801.179 614.74C784.914 614.024 780.848 646.96 780.848 646.96C780.848 646.96 789.794 654.12 801.179 654.12Z" fill="url(#paint7_linear)"/>
<path d="M737.366 658.426C727.192 658.802 716.099 652.579 716.099 652.579C716.099 652.579 721.794 623.186 736.309 621.986C750.824 620.787 755.342 651.13 755.342 651.13C755.342 651.13 747.54 658.051 737.366 658.426Z" fill="url(#paint8_radial)"/>
<path d="M43 649H1610V993H43V649Z" fill="#733B59"/>
<path d="M795.504 506.381C798.288 503.578 801.135 504.242 802.587 506.079C804.039 507.916 802.514 511.214 799.806 511.394C797.098 511.573 794.779 515.736 793.327 513.898C791.875 512.061 792.719 509.184 795.504 506.381Z" fill="#FE863F"/>
<path d="M789.239 475.904C790.944 474.386 792.577 474.884 793.363 476.008C794.149 477.133 793.162 478.988 791.583 478.985C790.004 478.982 788.528 481.309 787.742 480.184C786.955 479.059 787.535 477.421 789.239 475.904Z" fill="#FE863F"/>
<path opacity="0.5" d="M784.405 412.205C785.213 409.931 786.849 409.445 788.027 409.978C789.206 410.511 789.168 412.676 787.797 413.56C786.427 414.445 786.174 417.292 784.995 416.759C783.817 416.225 783.597 414.479 784.405 412.205Z" fill="#FE863F"/>
<path d="M829.833 524.43C831.516 525.164 831.892 526.693 831.512 527.804C831.132 528.915 829.538 528.903 828.871 527.627C828.205 526.351 826.105 526.144 826.485 525.033C826.865 523.922 828.149 523.697 829.833 524.43Z" fill="#FE863F"/>
<path d="M767.791 652.569C760.85 652.825 753.282 648.579 753.282 648.579C753.282 648.579 757.167 628.524 767.07 627.706C776.974 626.888 780.056 647.59 780.056 647.59C780.056 647.59 774.733 652.312 767.791 652.569Z" fill="url(#paint9_linear)"/>
<ellipse cx="758.88" cy="479.399" rx="1.68898" ry="1.90606" fill="#ECBE5B"/>
<ellipse opacity="0.5" cx="812.939" cy="419.676" rx="1.68898" ry="1.90606" fill="#ECBE5B"/>
<ellipse cx="854.6" cy="478.127" rx="2.81496" ry="3.17677" fill="#ECBE5B"/>
<ellipse opacity="0.5" cx="823.068" cy="288.793" rx="1.68898" ry="1.90606" fill="#ECBE5B"/>
<ellipse opacity="0.5" cx="783.662" cy="263.379" rx="1.68898" ry="1.90606" fill="#ECBE5B"/>
<ellipse opacity="0.5" cx="856.845" cy="394.261" rx="1.68898" ry="1.90606" fill="#ECBE5B"/>
<path d="M943.968 817.609C948.504 818.81 952.542 824.058 952.542 824.058C952.542 824.058 954.449 824.546 962.005 830.889C970.213 837.779 959.148 829.452 955.29 830.743C952.544 831.663 970.474 848.601 962.87 842.918C949.963 833.27 935.043 819.423 935.043 819.423C935.043 819.423 939.431 816.407 943.968 817.609Z" fill="#612E49"/>
<path d="M942.132 823.539C946.789 823.711 949.872 819.83 949.872 819.83C949.872 819.83 949.614 819.879 947.991 815.055C946.535 810.725 946.576 819.475 943.435 819.166C940.653 818.893 940.773 802.301 939.384 806.008C937.455 811.154 935.958 820.309 935.958 820.309C935.958 820.309 937.474 823.367 942.132 823.539Z" fill="#2F365C"/>
<path d="M650.079 801.233C645.706 802.493 641.884 807.661 641.884 807.661C641.884 807.661 634.196 813.478 626.985 819.782C619.153 826.63 635.578 813.026 639.335 814.195C642.01 815.026 624.931 831.813 632.199 826.147C644.537 816.528 658.753 802.799 658.753 802.799C658.753 802.799 654.452 799.972 650.079 801.233Z" fill="#612E49"/>
<path d="M654.616 805.169C650.105 805.336 647.119 801.577 647.119 801.577C647.119 801.577 647.369 795.629 648.941 790.956C650.351 786.762 650.311 801.233 653.354 800.934C656.048 800.669 655.932 784.599 657.278 788.189C659.146 793.173 660.596 802.041 660.596 802.041C660.596 802.041 659.128 805.002 654.616 805.169Z" fill="#2F365C"/>
<path d="M525.244 690.974C521.229 690.302 519.051 690.339 519.051 690.339C519.051 690.339 498.22 689.782 494.279 690.974C496.531 692.245 508.413 690.436 511.169 692.88C513.131 694.62 497.657 696.056 491.735 698.084C497.658 701.14 529.185 694.786 529.185 694.786C529.185 694.786 529.26 691.646 525.244 690.974Z" fill="#EA99C5"/>
<mask id="mask3" mask-type="alpha" maskUnits="userSpaceOnUse" x="429" y="648" width="750" height="130">
<rect x="429.465" y="648.806" width="749.122" height="128.427" fill="#C4C4C4"/>
</mask>
<g mask="url(#mask3)">
<path opacity="0.8" d="M1173.94 659.475C1173.94 714.405 1006.32 774.765 799.55 774.765C592.78 774.765 425.16 714.405 425.16 659.475C425.16 604.545 592.78 560.016 799.55 560.016C1006.32 560.016 1173.94 604.545 1173.94 659.475Z" fill="#894168"/>
<path opacity="0.8" d="M1052.34 655.007C1052.34 683.608 938.911 717.583 798.991 717.583C659.072 717.583 545.645 683.608 545.645 655.007C545.645 626.406 659.072 603.22 798.991 603.22C938.911 603.22 1052.34 626.406 1052.34 655.007Z" fill="#9C4474"/>
<ellipse cx="805.753" cy="646.424" rx="137.37" ry="35.5798" fill="url(#paint10_linear)" fill-opacity="0.89"/>
<g filter="url(#filter0_d)">
<path d="M733.816 659.412C730.52 664.38 747.108 668.214 747.108 668.214C747.108 668.214 774.27 673.553 798.754 674.318C823.237 675.082 848.808 671.654 848.808 671.654C848.808 671.654 880.246 665.145 875.537 659.412C870.829 653.679 848.808 646.035 803.03 644.124C757.251 642.213 737.112 654.443 733.816 659.412Z" fill="url(#paint11_linear)"/>
</g>
</g>
<path d="M522.431 693.512C518.611 691.963 519.616 690.97 519.616 690.97C519.616 690.97 520.159 684.761 521.305 683.346C522.994 685.888 522.296 688.434 524.928 689.323C527.257 690.11 526.591 684.617 529.187 680.17C530.532 683.982 530.656 692.959 530.656 692.959C530.656 692.959 526.251 695.061 522.431 693.512Z" fill="#2F365C"/>
<path d="M1123.38 749.704C1128.56 749.512 1134.24 753.828 1134.24 753.828C1134.24 753.828 1164.8 762.65 1157.48 767.733C1150.16 772.816 1114.26 754.566 1114.26 754.566C1114.26 754.566 1118.2 749.895 1123.38 749.704Z" fill="#612E49"/>
<path d="M1121.13 756.73C1126.3 756.921 1131.98 752.606 1131.98 752.606C1131.98 752.606 1129.23 732.593 1121.85 731.867C1114.46 731.142 1112.01 751.868 1112.01 751.868C1112.01 751.868 1115.95 756.538 1121.13 756.73Z" fill="url(#paint12_linear)"/>
<path d="M655.397 722.478C651.787 722.344 647.826 725.353 647.826 725.353C647.826 725.353 620.063 738.436 622.2 739.921C624.337 741.405 661.754 725.868 661.754 725.868C661.754 725.868 659.008 722.611 655.397 722.478Z" fill="#612E49"/>
<path d="M657.517 726.789C655.118 726.878 652.488 724.879 652.488 724.879C652.488 724.879 653.763 715.612 657.183 715.276C660.603 714.94 661.738 724.538 661.738 724.538C661.738 724.538 659.915 726.701 657.517 726.789Z" fill="url(#paint13_linear)"/>
<path opacity="0.96" d="M792.096 685.86H829.254C829.254 685.86 825.313 703.537 811.801 706.004C798.289 708.47 792.096 685.86 792.096 685.86Z" fill="#612E4A"/>
<path opacity="0.96" d="M833.765 683.413L855.601 678.266C855.601 678.266 868.504 695.766 864.534 698.339C860.564 700.913 833.765 683.413 833.765 683.413Z" fill="#612E4A"/>
<path opacity="0.96" d="M874.3 682.813L891.69 671.911C891.69 671.911 918.836 684.04 909.504 691.535C900.173 699.03 874.3 682.813 874.3 682.813Z" fill="#0D1A31"/>
<path opacity="0.96" d="M888.934 663.776L908.01 659.204C908.01 659.204 949.554 659.775 946.163 662.633C942.771 665.491 888.934 663.776 888.934 663.776Z" fill="#0D1A31"/>
<path opacity="0.96" d="M725.667 671.273L706.591 665.558C706.591 665.558 665.048 666.272 668.439 669.844C671.83 673.417 725.667 671.273 725.667 671.273Z" fill="#612E4A"/>
<path d="M712.131 672.557C704.25 672.557 695.805 666.203 695.805 666.203C695.805 666.203 700.872 638.248 712.131 637.612C723.391 636.977 726.206 666.203 726.206 666.203C726.206 666.203 720.013 672.557 712.131 672.557Z" fill="url(#paint14_linear)"/>
<path opacity="0.96" d="M891.192 673.943L910.268 669.37C910.268 669.37 951.812 669.942 948.42 672.8C945.029 675.658 891.192 673.943 891.192 673.943Z" fill="#0D1A31"/>
<path d="M381.613 677.473C378.285 675.887 373.632 677.094 373.632 677.094C373.632 677.094 343.558 678.077 345.082 680.328C346.605 682.578 383.934 685.254 387.597 681.938C391.259 678.621 384.942 679.058 381.613 677.473Z" fill="#612E49"/>
<path opacity="0.96" d="M788.73 684.518L760.234 679.536C760.234 679.536 747.153 700.018 758.365 703.34C769.577 706.661 788.73 684.518 788.73 684.518Z" fill="#612E4A"/>
<path d="M384.049 682.528C381.65 682.605 379.028 680.593 379.028 680.593C379.028 680.593 380.34 671.332 383.762 671.014C387.183 670.695 388.28 680.299 388.28 680.299C388.28 680.299 386.447 682.452 384.049 682.528Z" fill="url(#paint15_linear)"/>
<path d="M811.082 751.469C816.261 751.278 819.287 754.25 819.287 754.25C819.287 754.25 815.346 787.924 811.082 787.924C806.818 787.924 800.145 754.25 800.145 754.25C800.145 754.25 805.903 751.66 811.082 751.469Z" fill="#612E49"/>
<path d="M808.989 758.496C814.168 758.687 819.848 754.372 819.848 754.372C819.848 754.372 817.095 740.712 809.71 739.987C802.325 739.262 799.872 753.634 799.872 753.634C799.872 753.634 803.81 758.305 808.989 758.496Z" fill="url(#paint16_linear)"/>
<path d="M1268.96 687.128C1272.29 685.543 1276.95 686.75 1276.95 686.75C1276.95 686.75 1307.02 687.733 1305.5 689.983C1303.97 692.234 1266.64 694.91 1262.98 691.593C1259.32 688.277 1265.64 688.713 1268.96 687.128Z" fill="#612E49"/>
<path d="M1265.4 692.186C1267.8 692.262 1270.43 690.25 1270.43 690.25C1270.43 690.25 1269.11 680.989 1265.69 680.671C1262.27 680.353 1261.17 689.956 1261.17 689.956C1261.17 689.956 1263.01 692.11 1265.4 692.186Z" fill="url(#paint17_linear)"/>
<path opacity="0.96" d="M756.074 680.808L728.48 675.089C728.48 675.089 713.28 689.702 717.784 692.879C722.287 696.056 756.074 680.808 756.074 680.808Z" fill="#612E4A"/>
<path d="M1154.51 677.624C1158.52 676.953 1160.7 676.989 1160.7 676.989C1160.7 676.989 1181.53 676.432 1185.47 677.624C1183.22 678.895 1171.34 677.086 1168.58 679.53C1166.62 681.27 1182.1 682.707 1188.02 684.734C1182.1 687.79 1150.57 681.436 1150.57 681.436C1150.57 681.436 1150.49 678.296 1154.51 677.624Z" fill="#612E49"/>
<path d="M1157.33 680.165C1161.15 678.616 1160.15 677.623 1160.15 677.623C1160.15 677.623 1159.6 671.414 1158.46 669.999C1156.77 672.541 1157.47 675.087 1154.83 675.976C1152.5 676.763 1153.17 671.27 1150.57 666.822C1149.23 670.635 1149.11 679.612 1149.11 679.612C1149.11 679.612 1153.51 681.714 1157.33 680.165Z" fill="#2F365C"/>
<path opacity="0.96" d="M730.178 680.172L704.843 675.089C704.843 675.089 673.315 676.995 677.819 680.172C682.323 683.349 730.178 680.172 730.178 680.172Z" fill="#0D1A31"/>
<path d="M721.729 682.077C713.847 682.077 705.402 675.723 705.402 675.723C705.402 675.723 710.469 647.768 721.729 647.132C732.989 646.497 735.804 675.723 735.804 675.723C735.804 675.723 729.611 682.077 721.729 682.077Z" fill="url(#paint18_linear)"/>
<path d="M741.129 685.705C732.928 686.008 723.986 680.992 723.986 680.992C723.986 680.992 728.577 657.298 740.277 656.331C751.978 655.364 755.619 679.823 755.619 679.823C755.619 679.823 749.33 685.402 741.129 685.705Z" fill="url(#paint19_linear)"/>
<path d="M906.794 674.319C913.675 673.301 920.528 667.728 920.528 667.728C920.528 667.728 913.813 648.665 903.93 649.672C894.047 650.679 893.985 671.656 893.985 671.656C893.985 671.656 899.913 675.338 906.794 674.319Z" fill="url(#paint20_linear)"/>
<path d="M880.075 686.161C890.249 686.537 901.342 680.314 901.342 680.314C901.342 680.314 895.647 650.92 881.132 649.721C866.617 648.522 862.1 678.865 862.1 678.865C862.1 678.865 869.901 685.786 880.075 686.161Z" fill="url(#paint21_linear)"/>
<path d="M984.886 719.322C990.064 719.131 995.744 723.446 995.744 723.446C995.744 723.446 1005.87 727.079 1015.61 731.422C1026.19 736.139 1004.22 727.081 1000.41 729.727C997.696 731.611 1021.29 743.942 1011.67 740.323C995.337 734.18 975.769 724.184 975.769 724.184C975.769 724.184 979.707 719.514 984.886 719.322Z" fill="#612E49"/>
<path d="M982.63 726.348C987.809 726.539 991.237 722.224 991.237 722.224C991.237 722.224 990.95 715.396 989.146 710.032C987.526 705.217 987.572 721.829 984.079 721.486C980.986 721.182 981.12 702.733 979.575 706.855C977.43 712.577 975.765 722.757 975.765 722.757C975.765 722.757 977.451 726.157 982.63 726.348Z" fill="#2F365C"/>
</g>
<path d="M1471.63 636.692C1479.11 636.304 1484.35 654.183 1484.35 654.183L1247.84 655.349C1247.84 655.349 1251.96 633.583 1262.44 633.583C1272.92 633.583 1272.92 616.093 1278.53 614.538C1284.14 612.983 1285.27 596.269 1296.49 589.662C1307.72 583.055 1308.09 561.678 1317.82 553.904C1327.55 546.13 1358.61 539.522 1370.59 546.13C1382.56 552.737 1390.8 567.119 1399.78 570.617C1408.76 574.115 1403.15 570.617 1423.73 574.115C1444.31 577.613 1436.82 619.59 1445.81 628.53C1454.79 637.47 1464.14 637.081 1471.63 636.692Z" fill="#76395A"/>
<path d="M1354.87 529.493C1349.68 533.2 1349.68 541.233 1349.68 541.233C1349.68 541.233 1358.33 541.233 1361.79 537.525C1365.25 533.818 1364.67 524.55 1364.67 524.55C1364.67 524.55 1360.06 525.786 1354.87 529.493Z" fill="#76395A"/>
<path d="M1471.13 625.28C1467.01 628.151 1467.01 634.369 1467.01 634.369C1467.01 634.369 1473.87 634.369 1476.61 631.499C1479.36 628.629 1478.9 621.454 1478.9 621.454C1478.9 621.454 1475.24 622.41 1471.13 625.28Z" fill="#76395A"/>
<path d="M1454.89 620.728C1451.38 625.542 1453.68 632.396 1453.68 632.396C1453.68 632.396 1461.29 629.646 1463.28 625.382C1465.26 621.119 1462.11 613.394 1462.11 613.394C1462.11 613.394 1458.4 615.915 1454.89 620.728Z" fill="#76395A"/>
<g opacity="0.7">
<path d="M1007.91 851.262L969.905 824.949C969.905 824.949 853.491 751.037 896.338 735.598C939.185 720.159 1035.68 797.623 1035.68 797.623L1099.5 863.913C1099.5 863.913 1127.76 881.624 1117.04 892.756C1106.32 903.889 1063.94 876.057 1063.94 876.057L1007.91 851.262Z" fill="#5A2843"/>
<path d="M1114.86 786.092L1064.19 751.176L1055.9 754.361L1071.01 766.863L931.18 823.032L919.487 817.971L905.846 805.827L936.54 862.502L1114.86 786.092Z" fill="#5A2843"/>
<path d="M914.615 851.369C897.391 849.345 846.234 754.212 846.234 754.212L860.85 770.612L867.671 767.875C867.671 767.875 872.536 774.931 881.126 787.104C882.051 788.415 881.805 796.345 882.775 797.73C884.176 799.732 890.557 802.774 892.031 804.815C909.14 828.493 924.749 852.56 914.615 851.369Z" fill="#5A2843"/>
<path d="M965.284 915.129C946.283 915.129 892.762 805.827 892.762 805.827L905.748 808.863C905.748 808.863 984.285 915.129 965.284 915.129Z" fill="#5A2843"/>
<path d="M1170.4 821.008L1114.86 785.08L1099.75 790.795L1109.5 799.754L953.104 870.092L941.412 856.936L937.514 861.996L968.695 917.153L1170.4 821.008Z" fill="#5A2843"/>
</g>
<path d="M1442.35 478.919V716.782H1386.9L1392.18 132.886L1376.77 88.7112L1381.61 80.2161L1392.18 104.002V1.19971H1438.39V448.903L1456.88 423.984V435.877L1442.35 478.919Z" fill="url(#paint22_linear)"/>
<path d="M300.709 364.747L291.422 648.78H385.747L377.648 464.016L401.27 419.819L393.846 411.32L377.648 435.118V294.544L401.27 250.348L393.846 241.848L377.648 265.646L371.03 0.000976562H313.749L306.784 334.717L278.438 309.785V321.684L300.709 364.747Z" fill="url(#paint23_linear)"/>
<path d="M1262.05 469.516V707.496H1347.09L1338.99 522.732L1362.61 478.535L1355.19 470.036L1338.99 493.834V353.26L1362.61 309.064L1355.19 300.565L1338.99 324.363L1338.18 0H1271.61L1268.13 439.485L1239.78 414.554V426.453L1262.05 469.516Z" fill="url(#paint24_linear)"/>
<path d="M361.026 634.256C368.51 633.868 373.749 651.747 373.749 651.747L137.242 652.913C137.242 652.913 141.359 631.147 151.837 631.147C162.315 631.147 162.315 613.657 167.928 612.102C173.542 610.547 174.664 593.833 185.891 587.226C197.117 580.619 197.492 559.242 207.221 551.468C216.951 543.694 248.011 537.086 259.986 543.694C271.961 550.301 280.194 564.683 289.176 568.181C298.157 571.679 292.543 568.181 313.126 571.679C333.708 575.177 326.223 617.154 335.205 626.094C344.186 635.034 353.541 634.645 361.026 634.256Z" fill="#76395A"/>
<path d="M298.384 552.385C293.195 556.093 293.195 564.125 293.195 564.125C293.195 564.125 301.843 564.125 305.302 560.418C308.762 556.711 308.185 547.442 308.185 547.442C308.185 547.442 303.573 548.678 298.384 552.385Z" fill="#76395A"/>
<path d="M360.525 622.844C356.41 625.715 356.41 631.933 356.41 631.933C356.41 631.933 363.269 631.933 366.012 629.063C368.756 626.193 368.299 619.018 368.299 619.018C368.299 619.018 364.641 619.974 360.525 622.844Z" fill="#76395A"/>
<path d="M344.289 618.292C340.78 623.105 343.075 629.959 343.075 629.959C343.075 629.959 350.689 627.209 352.675 622.946C354.662 618.682 351.507 610.957 351.507 610.957C351.507 610.957 347.799 613.478 344.289 618.292Z" fill="#76395A"/>
<path d="M216.927 416.575V641.872H165.074L170.013 241.898L155.609 197.702L160.136 189.203L170.013 213.001V-6.90674H213.223V386.544L230.507 361.613V373.512L216.927 416.575Z" fill="url(#paint25_linear)"/>
<path d="M278.559 183.262V650.336H226.707L231.646 112.204L217.242 68.0081L221.769 59.5088L231.646 83.3068V1.55713H274.856V153.232L292.14 128.3V140.199L278.559 183.262Z" fill="url(#paint26_linear)"/>
<path d="M1561.63 412.356V650.336H1476.59L1484.69 328.489L1461.07 284.292L1468.49 275.793L1484.69 299.591V1.55713H1555.56V382.325L1583.9 357.394V369.293L1561.63 412.356Z" fill="url(#paint27_linear)"/>
<path opacity="0.46" d="M909.642 490.971C909.642 523.867 865.067 551.889 870.931 595.75C876.796 639.612 868.586 644.485 836.913 644.485C805.24 644.485 785.886 639.612 795.27 618.29C804.654 596.969 829.875 526.913 825.769 490.971C821.663 455.029 750.108 445.282 736.031 392.892C721.955 340.502 639.255 270.446 689.109 207.7C738.964 144.954 661.543 127.897 686.177 52.358C710.81 -23.1808 606.996 -29.8818 606.996 -29.8818H1109.65C1109.65 -29.8818 991.755 17.6345 975.332 68.1968C958.91 118.759 951.285 183.333 951.285 230.849C951.285 278.365 844.538 345.376 836.913 381.318C829.288 417.259 909.642 458.075 909.642 490.971Z" fill="url(#paint28_linear)"/>
<g filter="url(#filter1_d)">
<path d="M795.212 631.143C794.229 644.161 806.517 651.053 806.517 651.053C806.517 651.053 820.695 654.618 833.474 655.129C846.253 655.639 859.6 653.35 859.6 653.35C859.6 653.35 869.732 660.752 876.557 635.227C883.382 609.702 872.267 604.967 866.917 610.072C861.566 615.177 853.154 608.418 856.159 600.768C859.165 593.119 860.201 592.991 863.374 587.021C868.043 582.682 866.192 570.458 862.316 569.445C861.259 575.965 856.159 579.072 851.982 577.54C847.804 576.009 846.329 570.138 849.033 566.309C851.736 562.481 853.702 562.781 855.422 560.739C857.142 558.697 854.685 558.652 849.033 558.397C843.38 558.141 833.304 564.012 831.83 573.967C830.355 583.922 833.058 599.237 827.652 598.981C822.245 598.726 823.184 589.696 820.54 589.696C817.476 592.504 821.508 604.342 817.822 609.702C814.135 615.062 796.195 618.125 795.212 631.143Z" fill="url(#paint29_linear)"/>
</g>
<path d="M874.468 674.252C881.7 674.498 889.584 670.427 889.584 670.427C889.584 670.427 885.536 651.198 875.219 650.414C864.902 649.629 861.691 669.479 861.691 669.479C861.691 669.479 867.236 674.006 874.468 674.252Z" fill="url(#paint30_linear)"/>
<path d="M799.135 676.772C788.491 676.772 777.086 670.571 777.086 670.571C777.086 670.571 783.929 643.287 799.135 642.667C814.341 642.047 818.143 670.571 818.143 670.571C818.143 670.571 809.779 676.772 799.135 676.772Z" fill="url(#paint31_linear)"/>
<path d="M838.93 677.99C828.894 677.99 818.141 672.232 818.141 672.232C818.141 672.232 824.592 646.898 838.93 646.322C853.267 645.746 856.851 672.232 856.851 672.232C856.851 672.232 848.966 677.99 838.93 677.99Z" fill="url(#paint32_linear)"/>
<path d="M620.804 515.737C622.518 516.416 624.222 516.611 625.188 516.555L624.014 517.774C621.726 517.738 620.804 515.737 620.804 515.737Z" fill="#AF176A"/>
<path d="M623.786 511.056C625.271 512.038 626.52 512.28 629.604 512.005C629.604 512.005 627.636 513.174 625.946 513.105C624.255 513.036 623.786 511.056 623.786 511.056Z" fill="#AF176A"/>
<path d="M458.487 707.267C454.652 706.503 449.987 708.838 449.987 708.838C449.987 708.838 415.579 714.564 420.511 719.018C425.443 723.471 464.78 711.784 464.78 711.784C464.78 711.784 462.322 708.03 458.487 707.267Z" fill="#612E49"/>
<path d="M459.459 712.467C455.585 711.971 451.795 708.255 451.795 708.255C451.795 708.255 455.872 694.559 461.442 694.949C467.013 695.338 466.738 710.167 466.738 710.167C466.738 710.167 463.334 712.962 459.459 712.467Z" fill="url(#paint33_linear)"/>
<path opacity="0.8" d="M1205.29 685.115C1208.7 702.32 1049.87 691.694 1049.87 691.694L1025.02 640.585C1025.02 640.585 1201.88 667.91 1205.29 685.115Z" fill="#612E4A"/>
<path d="M1000.74 622.314L1013.76 647.635L1049.67 649.269L1019.29 596.176L1054.02 544.308H1018.1L949.035 647.635L982.581 649.269L1000.74 622.314Z" fill="#4B0B33"/>
<path d="M1053.52 543.799L1092.76 560.104L1098.16 564.18L1082.46 588.127L1040.76 563.67L1053.52 543.799Z" fill="#A2486B"/>
<path d="M986.308 593.733L1005.93 619.718L1051.06 611.566L1030.46 586.6H986.308V593.733Z" fill="#A2486B"/>
<path d="M1049.6 561.632H1088.84L1091.29 560.104H1048.12L961.784 688.502H964.728L1049.6 561.632Z" fill="#A2486B"/>
<path d="M1019.22 545.036H1051.03L1053.02 543.798H1018.03L948.039 647.74H950.425L1019.22 545.036Z" fill="#A2486B"/>
<path d="M1018.09 497.359C1027.51 501.719 1022.57 513.487 1022.57 513.487C1022.57 513.487 994.321 512.039 988.461 504.853C987.938 504.211 998.105 504.666 997.791 503.91C993.957 494.685 1008.66 492.999 1018.09 497.359Z" fill="#4A0B33"/>
<path d="M969.513 586.335C975.889 578.615 1008.78 565.872 1008.78 565.872L1036.91 582.812L1015.96 605.114C1015.96 605.114 990.461 607.508 986.818 610.081C983.175 612.655 984.996 652.29 984.996 652.29C984.996 652.29 986.818 665.461 978.012 664.31C969.206 663.159 955.955 671.218 955.955 664.31C955.955 657.402 971.335 652.29 971.335 652.29C971.335 652.29 963.138 594.055 969.513 586.335Z" fill="#6A1048"/>
<path d="M972.826 653.297C972.016 652.04 973.495 651.99 971.86 651.696C970.225 651.402 963.304 655.087 963.304 655.087C963.304 655.087 962.542 656.143 963.161 657.104C963.78 658.066 967.733 658.351 970.366 657.102C972.999 655.854 973.636 654.555 972.826 653.297Z" fill="url(#paint34_linear)"/>
<path d="M1048.8 564.222L1031.49 579.755C1031.49 579.755 994.098 583.77 992.277 589.774C990.455 595.779 994.74 650.367 994.74 650.367L1009.93 629.536C1009.93 629.536 1012.31 622.763 1013.22 613.328C1014.14 603.893 1032.61 602.867 1043.87 589.62C1055.12 576.373 1048.8 564.222 1048.8 564.222Z" fill="#6A1048"/>
<path d="M1020.56 537.728L1025.11 536.013L1036.95 572.896L1023.24 592.838L1009.58 587.692L1020.56 537.728Z" fill="#6A1048"/>
<path d="M1004.12 567.963C1013.41 553.261 1015.74 525.035 1015.74 525.035L1011.98 524.089C1011.98 524.089 998.485 554.421 992.284 561.101C988.473 565.207 991.672 571.799 984.971 576.502C983.099 582.462 985.219 581.497 989.616 584.293C994.013 587.089 994.836 582.665 1004.12 567.963Z" fill="#6A1048"/>
<path d="M998.044 503.435C998.044 503.435 994.446 503.03 996.067 509.332C981.805 508.87 980.243 504.542 984.182 501.94C988.121 499.338 1014 503.407 1014.92 505.152C1015.83 506.897 998.044 503.435 998.044 503.435Z" fill="#4A0B33"/>
<path d="M1045.52 577.184C1043.12 555.741 1024.84 526.577 1024.84 526.577L1018.42 530.223C1018.42 530.223 1029.4 564.318 1028.48 575.469C1027.92 582.322 1009.63 599.412 1006.63 608.921C1004.75 614.883 1013.91 618.356 1017.56 615.783C1021.2 613.21 1047.91 598.628 1045.52 577.184Z" fill="#6A1048"/>
<path d="M1023.23 511.045C1023.23 510.396 1023.23 510.006 1023.23 510.006C1023.23 510.006 1025.99 511.758 1023.23 511.045C1023.22 513.846 1023.19 521.463 1023.19 523.306C1023.19 525.577 1035.47 523.007 1037.08 546.849C1038.68 570.692 1029.24 534.088 1026.44 533.292C1023.1 532.342 1024.92 547.44 1023.19 543.734C1020.02 536.923 1009.58 535.045 1006.33 540.617C1003.95 544.706 1006.58 532.969 1001.81 526.833C1002.57 524.817 1005.08 524.58 1006.33 523.008C1015.16 507.113 996.004 507.156 996.004 507.156C996.004 507.156 1004.59 503.935 1016.63 508.697C1020.1 510.067 1022.11 510.757 1023.23 511.045Z" fill="#6A1048"/>
<path d="M1009.68 503.884C1006.99 501.869 997.169 501.398 997.169 501.398C997.169 501.398 996.377 499.171 1000.07 496.615C1003.76 494.058 1012.56 494.872 1008.8 496.614C1005.04 498.356 1012.36 505.9 1009.68 503.884Z" fill="url(#paint35_linear)"/>
<path d="M972.215 590.032C976.842 585.658 986.142 580.84 986.142 580.84C986.142 580.84 977.437 580.743 970.312 587.487C963.187 594.231 969.3 653.373 971.629 653.373C973.957 653.373 967.587 594.405 972.215 590.032Z" fill="url(#paint36_linear)"/>
<path d="M995.313 561.649C999.093 557.825 1006.54 539.419 1006.54 539.419L1005.3 535.224C1005.3 535.224 996.955 555.425 993.105 560.116C989.256 564.806 989.042 577.385 990.784 577.385C992.525 577.385 991.533 565.472 995.313 561.649Z" fill="url(#paint37_linear)"/>
<path d="M999.551 513.486C999.648 514.08 997.268 521.924 997.414 522.492C997.886 524.328 1000.52 522.773 1001.45 523.843C1004.1 526.873 1004.07 528.653 1006.98 527.652C1009.89 526.651 1010.77 524.831 1011.52 521.491C1012.06 519.139 1013.88 517.224 1013.35 513.936C1012.87 511.031 1013.94 510.155 1011.81 509.315C1001.35 507.514 996.221 508.082 999.551 513.486Z" fill="url(#paint38_linear)"/>
<path d="M986.491 503.965C982.913 508.541 995.426 510.271 995.842 508.868C997.298 503.965 1013.75 507.668 1014.2 507.193C1014.65 506.717 990.068 499.39 986.491 503.965Z" fill="url(#paint39_linear)"/>
<path d="M1004.42 579.073C1001.25 576.127 1006.18 570.69 1006.54 562.697C1006.74 558.233 1006.21 549.751 1006.79 545.675C1007.29 542.122 1004.15 536.415 1005.3 535.224C1006.84 534.223 1008.9 536.269 1012.07 535.662C1015.25 535.055 1016.12 530.656 1017.84 530.155C1019.56 529.654 1020.66 542.171 1016.83 555.688C1013 569.205 1016.85 566.865 1020.42 566.503C1023.98 566.14 1019.53 571.799 1014.2 575.425C1008.86 579.052 1007.6 582.02 1004.42 579.073Z" fill="url(#paint40_linear)"/>
<path d="M996.574 595.067C1001.2 590.694 1016.83 590.232 1017.89 587.729C1018.95 585.226 999.647 587.357 994.257 592.459C988.867 597.561 993.585 649.366 995.896 649.366C998.207 649.366 991.946 599.44 996.574 595.067Z" fill="url(#paint41_linear)"/>
<path d="M1032.7 568.705C1033.08 565.428 1033.89 559.833 1032.29 551.683C1030.68 543.515 1026.67 535.797 1025.9 534.337C1024.36 531.422 1022.34 531.554 1022.34 533.608C1022.34 535.662 1030.29 558.228 1029.52 567.703C1029.05 573.527 1010.27 580.72 1013.79 583.277C1013.79 583.277 1031.93 575.265 1032.7 568.705Z" fill="url(#paint42_linear)"/>
<path d="M1017.6 509.979C1016.1 510.086 1016.27 511.804 1016.27 511.804L1016.12 517.217C1016.12 517.217 1016.69 518.386 1017.84 518.304C1018.99 518.222 1019.66 516.827 1019.81 513.936C1019.95 511.045 1019.1 509.872 1017.6 509.979Z" fill="url(#paint43_linear)"/>
<path d="M1001.62 525.149C1000.42 525.783 1002.56 528.627 1003.5 527.633C1004.44 526.64 1006.58 526.051 1008.19 525.646C1010.29 525.119 1011.95 527.735 1012.89 523.659C1013.13 522.622 1015.71 516.704 1013.36 516.704C1009.6 523.162 1002.82 524.515 1001.62 525.149Z" fill="#6A1048"/>
<path d="M1002.48 521.809C1001.33 522.822 1000.81 523.149 998.118 523.441C998.118 523.441 1000.53 524.826 1001.97 524.495C1003.42 524.164 1002.48 521.809 1002.48 521.809Z" fill="#6A1048"/>
<path d="M1051.29 564.549H1091.24L1094.17 561.007H1048.94L977.289 667.779H979.675L1051.29 564.549Z" fill="#A2486B"/>
<path d="M1028.91 660.674L1045.1 692.264L1089.74 694.302L1051.96 628.065L1095.13 563.356H1050.49L964.643 692.264L1006.34 694.302L1028.91 660.674Z" fill="#4B0B33"/>
<path d="M841.059 632.488L880.379 635.505" stroke="#4A0B33" stroke-width="2"/>
<path d="M957.277 720.221C979.493 720.221 979.493 691.378 979.493 691.378C979.493 691.378 912.845 663.977 904.514 674.793C896.183 685.609 908.032 733.693 908.032 733.693C908.032 733.693 895.998 736.173 898.775 744.826C901.552 753.478 929.895 757.033 933.367 753.428C936.838 749.823 926.692 715.754 929.469 711.428C932.246 707.101 935.061 720.221 957.277 720.221Z" fill="#4A0B33"/>
<path d="M911.21 737.311C908.368 741.116 898.048 742.186 898.508 738.627C898.968 735.068 906.313 736.414 906.773 732.855C907.233 729.296 895.681 684.145 905.133 674.037C909.876 668.965 905.132 681.166 905.816 697.842C906.496 714.402 912.626 735.415 911.21 737.311Z" fill="#E06E77"/>
<path d="M948.936 614.943C974.624 615.549 979.483 692.098 979.483 692.098C979.483 692.098 914.501 674.071 916.306 671.908C932.968 638.739 923.249 614.337 948.936 614.943Z" fill="#4A0B33"/>
<path d="M881.223 636.534C881.223 632.146 943.871 621.95 943.871 621.95L933.541 643.405C933.541 643.405 881.223 640.923 881.223 636.534Z" fill="#4A0B33"/>
<path d="M918.797 606.478C915.477 594.649 924.093 581.86 924.093 581.86L929.605 580.875L942.118 616.897C942.118 616.897 928.927 628.441 933.72 616.51C933.72 610.73 922.118 618.307 918.797 606.478Z" fill="url(#paint44_linear)"/>
<path d="M934.322 620.345C934.322 620.345 882.406 634.007 881.813 635.525C881.219 637.044 882.938 636.032 885.604 636.032C888.27 636.032 931.658 627.429 931.658 627.429L934.322 620.345Z" fill="url(#paint45_linear)"/>
<path d="M918.794 677.348C920.507 683.084 915.817 678.41 913.972 675.22C912.127 672.03 931.445 621.11 933.72 616.51C933.854 616.238 945.005 616.296 937.697 622.369C934.773 623.887 917.392 672.653 918.794 677.348Z" fill="url(#paint46_linear)"/>
<path d="M959.626 599.511C959.626 617.307 968.386 615.283 968.386 615.283C968.386 615.283 966.924 659.308 927.545 640.585C934.282 632.994 933.795 623.38 936.718 615.789C939.641 608.199 929.437 606.004 929.493 603.559C929.55 601.114 931.439 600.969 932.333 597.5C933.227 594.03 931.359 592.512 929.493 593.173C927.628 593.834 925.328 597.5 923.939 597.5C922.551 597.5 921.857 583.799 923.939 580.915C926.022 578.031 926.716 571.541 940.601 572.983C954.486 574.425 959.626 581.715 959.626 599.511Z" fill="#4A0B33"/>
<path d="M993.754 714.423L1043.89 644.633L1068.26 656.928L1016.38 733.95L993.754 714.423Z" fill="#A2486B"/>
<path d="M1055.37 758.178L1035.52 694.897L1020.9 699.237L1035.52 748.054L1055.37 758.178Z" fill="#4A0B33"/>
<path d="M869.805 720.931L883.383 739.735V734.311L1041.44 687.302L1014.98 677.9L869.805 720.931Z" fill="#A2486B"/>
<path d="M1050.49 713.339L890.688 765.049L896.606 790L1058.5 735.759L1050.49 713.339Z" fill="#A2486B"/>
<path d="M883.03 720.571L861.793 773.365L867.712 771.557L886.86 724.91L883.03 720.571Z" fill="#4A0B33"/>
<path d="M847.871 756.007L861.797 773.364L883.383 720.57L885.124 698.873L872.938 686.94L847.871 756.007Z" fill="#A2486B"/>
<path d="M889.994 705.384L884.772 699.598L883.031 720.209L887.557 725.272L1073.47 674.286L1075.56 654.759L889.994 705.384Z" fill="#4A0B33"/>
<path d="M880.252 685.133L873.289 686.941L889.652 704.66L1075.57 654.758L1052.59 644.633H1043.88L1060.94 653.673L892.089 697.789L880.252 685.133Z" fill="#A2486B"/>
<path d="M898.356 810.611L880.948 739.375L873.289 756.732L884.082 801.571L898.356 810.611Z" fill="#4A0B33"/>
<path d="M903.583 807.716L886.872 737.926L880.953 739.011L898.361 810.247L903.583 807.716Z" fill="#A2486B"/>
<path d="M1060.59 755.285L1041.44 694.173L1035.52 695.258L1055.36 757.816L1060.59 755.285Z" fill="#A2486B"/>
<path d="M1041.44 686.94L883.727 733.949V740.096L1043.53 694.173L1041.44 686.94Z" fill="#4A0B33"/>
<path d="M893.133 789.275L896.615 790.36L890.696 765.047L1050.5 713.699H1044.93L887.215 764.324L893.133 789.275Z" fill="#4A0B33"/>
<path d="M829.848 632.063V629.533C829.848 629.533 826.438 629.027 826.438 630.545C826.438 632.063 829.848 632.063 829.848 632.063Z" fill="#A2486B"/>
<path d="M841.797 626.882L840.689 637.385L830.345 636.707L831.369 625.626L841.797 626.882Z" fill="#A2486B"/>
<ellipse rx="5.50763" ry="1.97073" transform="matrix(-0.0929608 1.00603 -0.984355 -0.0981225 830.857 631.165)" fill="#A2486B"/>
<ellipse rx="5.24416" ry="1.5817" transform="matrix(-0.0929608 1.00603 -0.984355 -0.0981225 841.151 632.176)" fill="#4A0B33"/>
<path opacity="0.8" d="M638.922 694.224C638.922 694.224 444.528 703.332 441.117 686.127C439.749 679.224 475.566 668.27 507.864 663.356C556.067 656.023 613.641 648.681 613.641 648.681L638.922 694.224Z" fill="#612B48"/>
<path d="M653.994 626.433L640.969 651.756L605.053 653.39L635.444 600.293L600.711 548.422H636.628L705.699 651.756L672.15 653.39L653.994 626.433Z" fill="#4B0B33"/>
<path d="M601.211 547.913L561.963 564.219L556.566 568.295L572.266 592.244L613.966 567.786L601.211 547.913Z" fill="#A2486B"/>
<path d="M668.427 597.849L648.803 623.836L603.668 615.683L624.273 590.715H668.427V597.849Z" fill="#A2486B"/>
<path d="M605.134 565.748H565.887L563.434 564.219H606.606L692.951 692.626H690.008L605.134 565.748Z" fill="#A2486B"/>
<path d="M635.502 549.15H603.688L601.699 547.913H636.695L706.687 651.861H704.301L635.502 549.15Z" fill="#A2486B"/>
<path d="M614.833 583.129L629.767 591.293C629.767 591.293 662.037 609.457 663.609 615.172C665.181 620.887 660.422 679.461 660.422 679.461L643.915 681.91C643.915 681.91 646.317 638.847 645.531 629.867C644.745 620.887 613.261 615.784 610.117 607.621C606.973 599.457 614.833 583.129 614.833 583.129Z" fill="#6A1048"/>
<path d="M639.195 544.761L635.265 543.128L625.047 578.232L636.881 597.213L648.671 592.315L639.195 544.761Z" fill="#6A1048"/>
<path d="M654.218 566.76C646.202 552.767 645.688 525.678 645.688 525.678L648.932 524.778C648.932 524.778 660.574 554.729 665.925 561.087C669.214 564.994 698.656 556.611 704.439 561.087C706.055 566.76 699.803 567.042 696.008 569.704C692.213 572.365 662.234 580.752 654.218 566.76Z" fill="#6A1048"/>
<path d="M666.356 533.504C667.928 528.606 674.679 514.593 669.997 504.327C669.997 510.858 664.369 521.902 664.369 521.902C664.369 521.902 646.819 535.401 650.749 534.585C654.679 533.768 652.924 550.254 659.073 550.254C665.222 550.254 664.784 538.402 666.356 533.504Z" fill="#4B0B33"/>
<path d="M683.258 591.024C677.756 583.677 651.818 586.598 651.818 586.598L625.094 600.821L643.172 622.046C643.172 622.046 665.18 608.984 668.324 611.433C671.468 613.883 669.896 666.947 669.896 666.947H681.686C681.686 666.947 688.76 598.371 683.258 591.024Z" fill="#6A1048"/>
<path d="M610.904 582.313C612.973 561.904 632.126 534.147 632.126 534.147L637.672 537.617C637.672 537.617 628.196 570.068 628.982 580.681C629.465 587.204 645.257 603.469 647.846 612.519C649.47 618.194 641.558 621.499 638.414 619.05C635.271 616.601 608.836 602.723 610.904 582.313Z" fill="#6A1048"/>
<path d="M680.114 594.291C675.39 589.393 645.53 590.681 644.744 587.415C643.958 584.15 680.106 584.495 685.608 590.209C691.111 595.924 684.823 641.641 682.464 641.641C680.106 641.641 684.838 599.189 680.114 594.291Z" fill="url(#paint47_linear)"/>
<path d="M660.463 559.659C656.605 555.376 648.174 530.217 648.174 530.217L651.791 529.836C651.791 529.836 659.609 550.45 664.96 556.808C668.249 560.716 704.438 559.504 704.438 560.822C704.438 562.14 664.322 563.941 660.463 559.659Z" fill="url(#paint48_linear)"/>
<path d="M668.861 517.884C668.215 522.216 674.677 528.101 668.861 528.101C666.873 528.101 668.374 531.138 665.833 532.423C663.127 533.791 665.313 538.907 655.582 535.512C649.576 534.546 639.441 526.731 640.77 517.82C642.098 508.908 650.209 505.574 660.392 503.242C671.556 504.327 672.532 511.547 668.861 517.884Z" fill="url(#paint49_linear)"/>
<path d="M654.131 588.844C655.703 586.395 657.275 549.658 654.917 545.576C652.559 541.494 637.625 532.514 637.625 539.862C637.625 547.209 636.053 561.087 635.267 565.169C634.481 569.251 632.953 582.517 632.953 582.517C632.953 582.517 637.669 593.946 641.599 593.946C645.529 593.946 652.559 591.293 654.131 588.844Z" fill="url(#paint50_linear)"/>
<path d="M659.702 615.631C654.978 610.733 638.455 599.661 637.669 596.395C636.883 593.13 656.564 606.995 662.066 612.709C667.569 618.424 665.991 671.96 663.632 671.96C661.273 671.96 664.426 620.529 659.702 615.631Z" fill="url(#paint51_linear)"/>
<path d="M622.693 580.68C621.907 573.333 628.193 546.393 629.765 543.127C631.338 539.862 635.268 540.678 634.482 542.311C633.696 543.943 628.191 570.067 628.977 580.68C629.46 587.203 651.791 608.979 647.841 612.519C647.841 612.519 623.479 588.027 622.693 580.68Z" fill="url(#paint52_linear)"/>
<path d="M653.349 548.843C653.349 541.495 645.579 524.75 651.911 510.872C656.057 501.784 641.971 509.229 634.529 521.29C630.605 527.648 627.434 536.257 627.434 538.23C627.434 543.945 641.559 544.761 643.131 548.843C644.703 552.925 642.345 566.803 644.703 566.803C647.061 566.803 653.349 556.19 653.349 548.843Z" fill="#6A1048"/>
<path d="M629.781 518.061C628.209 522.143 632.139 527.857 636.069 527.857C639.999 527.857 641.577 527.041 651.795 518.061C662.013 509.081 671.565 512.559 671.565 512.559C671.565 512.559 671.563 499.316 662.007 496.835C652.451 494.354 652.575 496.835 645.501 501.733C638.427 506.631 631.353 513.979 629.781 518.061Z" fill="#4B0B33"/>
<path d="M701.203 563.223L773.42 548.879" stroke="#4B0B33" stroke-width="2"/>
<path d="M628.19 662.155L612.113 693.651L567.777 695.683L605.292 629.644L562.418 565.128H606.753L692.014 693.651L650.602 695.683L628.19 662.155Z" fill="#4B0B33"/>
<path d="M604.811 568.223H564.861L561.938 564.681H607.165L678.816 671.453H676.43L604.811 568.223Z" fill="#A2486B"/>
<path d="M776.535 541.287L778.927 552.778L767.78 555.846L765.104 543.775L776.535 541.287Z" fill="url(#paint53_linear)"/>
<path d="M767.78 555.846C766.613 556.125 765.068 553.649 764.329 550.315C763.59 546.982 763.937 544.054 765.104 543.775C766.271 543.495 767.816 545.971 768.555 549.305C769.294 552.638 768.947 555.566 767.78 555.846Z" fill="url(#paint54_linear)"/>
<ellipse rx="5.89135" ry="1.74218" transform="matrix(0.216259 0.97546 -0.973465 0.232816 777.648 547.116)" fill="#6A1048"/>
<path d="M795.389 536.689L797.84 548.166L786.709 551.296L783.97 539.24L795.389 536.689Z" fill="url(#paint55_linear)"/>
<path d="M786.709 551.296C785.543 551.582 783.985 549.115 783.229 545.785C782.473 542.456 782.805 539.526 783.97 539.24C785.136 538.955 786.694 541.422 787.45 544.751C788.206 548.08 787.874 551.011 786.709 551.296Z" fill="url(#paint56_linear)"/>
<ellipse rx="5.89116" ry="1.74224" transform="matrix(0.221315 0.974269 -0.972211 0.238243 796.536 542.508)" fill="#6A1048"/>
<path d="M778.299 546.656C777.764 546.793 777.435 547.339 777.565 547.875C777.695 548.411 778.235 548.734 778.771 548.597L778.299 546.656ZM782.862 547.548L783.832 547.299L783.361 545.358L782.391 545.607L782.862 547.548ZM778.771 548.597L782.862 547.548L782.391 545.607L778.299 546.656L778.771 548.597Z" fill="#4B0B33"/>
<path d="M797.945 542.364L802.037 541.316" stroke="#4B0B33" stroke-width="2" stroke-linecap="round"/>
<path d="M654.011 512.054C661.098 506.758 667.652 509.923 668.14 508.512C668.627 507.1 666.701 502.948 663.766 501.096C660.83 499.243 658.358 499.909 656.72 501.525C655.083 503.14 653.291 504.447 651.438 507.317C649.585 510.186 646.924 517.35 654.011 512.054Z" fill="#E26276" fill-opacity="0.7"/>
<g opacity="0.7">
<path d="M686.272 837.933L648.27 864.246L592.242 889.042C592.242 889.042 549.855 916.873 539.137 905.741C528.418 894.608 556.676 876.897 556.676 876.897L620.5 810.608C620.5 810.608 759.106 744.59 767.876 749.144C769.274 749.87 755.45 754.553 752.69 756.874C758.586 754.938 778.201 750.397 780.066 752.141C789.81 761.249 686.272 837.933 686.272 837.933Z" fill="#5A2441"/>
<path d="M564.471 791.885L615.14 756.969L623.422 760.154L608.319 772.655L748.147 828.825L759.839 823.764L773.481 811.62L742.787 868.295L564.471 791.885Z" fill="#5A2441"/>
<path d="M764.712 857.162C773.41 855.011 807.125 801.222 815.868 784.294C817.409 781.311 829.51 758.993 829.51 758.993L814.407 776.198L808.073 774.174C808.073 774.174 754.481 859.692 764.712 857.162Z" fill="#5A2441"/>
<path d="M714.043 920.922C733.044 920.922 793.554 800.487 793.554 800.487L773.579 814.656C773.579 814.656 695.042 920.922 714.043 920.922Z" fill="#5A2441"/>
<path d="M508.93 826.8L564.471 790.872L579.574 796.588L569.83 805.547L726.222 875.885L737.915 862.728L741.813 867.789L710.632 922.946L508.93 826.8Z" fill="#5A2441"/>
</g>
<path d="M716.644 730.869C694.317 730.869 694.317 701.882 694.317 701.882C694.317 701.882 761.298 674.345 769.67 685.215C778.043 696.085 773.159 746.812 773.159 746.812C773.159 746.812 787.113 743.188 784.322 751.885C781.532 760.581 761.996 764.204 758.507 760.581C755.018 756.957 763.391 715.651 760.6 711.303C757.809 706.955 738.971 730.869 716.644 730.869Z" fill="#4B0B33"/>
<path d="M725.018 625.065C699.202 625.674 694.319 702.605 694.319 702.605C694.319 702.605 759.625 684.488 757.811 682.314C741.066 648.98 750.834 624.456 725.018 625.065Z" fill="#4B0B33"/>
<path d="M737.739 628.422C737.739 620.347 751.122 629.206 754.394 617.395C755.294 614.147 754.394 610.823 757.531 609.177C760.331 607.709 756.736 604.18 755.334 599.089C754.04 594.386 753.023 586.944 749.125 586.944C745.228 586.944 744.675 590.82 744.675 590.82L732.344 626.787C732.344 626.787 737.739 630.908 737.739 628.422Z" fill="url(#paint57_linear)"/>
<path d="M772.998 746.343C775.921 748.367 778.357 746.343 782.742 746.343C787.127 746.343 774.593 746.558 773.973 743.306C773.352 740.055 775.921 691.288 770.966 686.098C766.01 680.907 771.929 687.924 772.207 708.206C772.913 723.605 770.075 744.318 772.998 746.343Z" fill="url(#paint58_linear)"/>
<path d="M754.945 687.924C753.257 693.713 757.879 688.996 759.697 685.777C761.515 682.557 740.341 631.101 738.772 631.415C737.203 631.729 756.633 682.134 754.945 687.924Z" fill="url(#paint59_linear)"/>
<path d="M742.378 629.475C742.378 629.475 744.491 627.829 739.21 621.246C733.928 614.664 715.971 608.629 711.218 614.664C706.464 620.698 706.464 648.126 711.217 650.32C715.971 652.514 739.737 637.703 743.963 635.509C748.188 633.314 742.378 629.475 742.378 629.475Z" fill="#4B0B33"/>
<path d="M719.641 615.982C720.339 625.403 725.325 627.774 725.325 627.774C725.325 627.774 730.078 635.745 730.078 627.774C730.078 619.802 745.457 617.879 744.061 615.705C742.665 613.531 741.968 610.909 741.968 608.735C741.967 606.561 741.968 604.387 744.061 604.387C746.154 604.387 745.584 608.735 746.98 608.735C748.375 608.735 751.736 594.966 749.643 592.068C748.368 590.303 753.193 581.883 749.643 580.049C747.364 578.872 738.353 583.53 732.897 584.097C718.943 585.546 718.943 606.561 719.641 615.982Z" fill="#4B0B33"/>
<path d="M683.312 717.457L633.178 647.667L608.808 659.962L660.682 736.984L683.312 717.457Z" fill="#A3486B"/>
<path d="M621.693 761.212L641.538 697.931L656.16 702.27L641.538 751.087L621.693 761.212Z" fill="#4B0B33"/>
<path d="M807.254 723.967L793.676 742.77V737.346L635.614 690.337L662.074 680.936L807.254 723.967Z" fill="#A3486B"/>
<path d="M626.568 716.375L786.371 768.084L780.452 793.035L618.561 738.794L626.568 716.375Z" fill="#A3486B"/>
<path d="M794.024 723.605L815.262 776.399L809.343 774.591L790.195 727.944L794.024 723.605Z" fill="#4B0B33"/>
<path d="M829.188 759.042L815.261 776.399L793.676 723.605L791.935 701.909L804.12 689.976L829.188 759.042Z" fill="#A3486B"/>
<path d="M787.06 708.418L792.283 702.632L794.023 723.244L789.497 728.306L603.583 677.32L601.494 657.793L787.06 708.418Z" fill="#4B0B33"/>
<path d="M796.806 688.167L803.77 689.975L787.406 707.694L601.492 657.792L624.47 647.667H633.174L616.115 656.708L784.969 700.824L796.806 688.167Z" fill="#A3486B"/>
<path d="M778.702 813.647L796.11 742.41L803.77 759.767L792.977 804.606L778.702 813.647Z" fill="#4B0B33"/>
<path d="M773.475 810.752L790.187 740.962L796.105 742.047L778.698 813.283L773.475 810.752Z" fill="#A3486B"/>
<path d="M616.472 758.318L635.62 697.207L641.539 698.292L621.694 760.85L616.472 758.318Z" fill="#A3486B"/>
<path d="M635.618 689.976L793.332 736.984V743.132L633.529 697.208L635.618 689.976Z" fill="#4B0B33"/>
<path d="M783.925 792.309L780.444 793.393L786.362 768.081L626.56 716.733H632.13L789.844 767.358L783.925 792.309Z" fill="#4B0B33"/>
</g>
<path d="M14.9671 912.993L1618.75 919.325L1657.89 1050H0L28.2072 990.131L14.9671 912.993Z" fill="white"/>
<path d="M181.217 391.056V984.075L39.6575 995.589L46.2314 207.715L13.8174 137.657L26.1757 124.184L46.2314 161.908L53.1393 -44.3493H171.105V343.452L218.292 303.931V322.793L181.217 391.056Z" fill="url(#paint60_linear)"/>
<path d="M1509.71 598.921V972.683H1634.1L1622.25 410.217L1656.8 330.276L1645.94 314.903L1622.25 357.948V-63.5273H1518.6V544.602L1477.13 499.507V521.03L1509.71 598.921Z" fill="url(#paint61_linear)"/>
<path d="M511.579 866.477C530.53 865.491 543.795 910.867 543.795 910.867L0.00166321 985.086C0.00166321 985.086 19.6746 973.102 16.12 954.441C11.5148 930.263 2.90546 878.356 22.2158 861.699C49.5063 838.158 47.9586 803.536 62.1713 799.589C76.3839 795.642 39.7195 763.886 68.1447 747.117C96.57 730.348 97.5174 676.093 122.153 656.364C146.788 636.634 225.432 619.864 255.752 636.634C286.072 653.404 306.918 689.902 329.658 698.781C352.398 707.659 338.185 698.781 390.298 707.659C442.411 716.538 423.461 823.073 446.201 845.762C468.941 868.451 492.629 867.463 511.579 866.477Z" fill="url(#paint62_linear)"/>
<path d="M0.00166321 1049.76C218.291 1049.76 319.281 917.478 828.95 917.478C1338.62 917.478 1400.57 1049.76 1657.89 1049.76C1915.22 1049.76 1657.89 985.086 1657.89 985.086C1657.89 985.086 1371.95 891.553 828.95 891.553C285.955 891.553 0.00166321 985.086 0.00166321 985.086V1032.15C0.00166321 1032.15 -218.287 1049.76 0.00166321 1049.76Z" fill="url(#paint63_linear)"/>
<path d="M1285.59 902.269C1270.71 901.495 1234.99 937.128 1260.29 937.128C1285.59 937.128 1416.7 955.405 1512.69 949.804C1608.67 944.202 1712.47 1062.71 1722.94 1039.64C1733.42 1016.56 1725.36 997.615 1704.52 997.615C1683.69 997.615 1655.01 1005.05 1657.89 985.086C1620.48 976.847 1628.5 798.679 1606.18 785.511C1583.86 772.342 1610.75 752.763 1591.4 737.27C1572.06 721.776 1510.3 708.607 1486.49 721.776C1462.68 734.945 1446.31 763.607 1428.45 770.579C1410.59 777.551 1421.75 770.579 1380.83 777.552C1339.91 784.524 1354.79 868.185 1336.93 886.002C1319.07 903.819 1300.47 903.044 1285.59 902.269Z" fill="url(#paint64_linear)"/>
<path d="M1320.59 859.532C1330.91 866.92 1330.91 882.929 1330.91 882.929C1330.91 882.929 1313.71 882.929 1306.83 875.541C1299.96 868.152 1301.1 849.68 1301.1 849.68C1301.1 849.68 1310.27 852.143 1320.59 859.532Z" fill="url(#paint65_linear)"/>
<path d="M1473.68 711.012C1481.86 716.732 1481.86 729.126 1481.86 729.126C1481.86 729.126 1468.22 729.126 1462.77 723.406C1457.31 717.686 1458.22 703.385 1458.22 703.385C1458.22 703.385 1465.5 705.292 1473.68 711.012Z" fill="url(#paint66_linear)"/>
<path d="M1505.96 701.935C1512.93 711.529 1508.37 725.189 1508.37 725.189C1508.37 725.189 1493.23 719.708 1489.28 711.211C1485.33 702.714 1491.6 687.317 1491.6 687.317C1491.6 687.317 1498.98 692.342 1505.96 701.935Z" fill="url(#paint67_linear)"/>
</g>
<defs>
<filter id="filter0_d" x="659.383" y="546.923" width="290.635" height="178.505" filterUnits="userSpaceOnUse" color-interpolation-filters="sRGB">
<feFlood flood-opacity="0" result="BackgroundImageFix"/>
<feColorMatrix in="SourceAlpha" type="matrix" values="0 0 0 0 0 0 0 0 0 0 0 0 0 0 0 0 0 0 127 0"/>
<feOffset dy="-23"/>
<feGaussianBlur stdDeviation="37"/>
<feColorMatrix type="matrix" values="0 0 0 0 1 0 0 0 0 0.52549 0 0 0 0 0.247059 0 0 0 0.3 0"/>
<feBlend mode="normal" in2="BackgroundImageFix" result="effect1_dropShadow"/>
<feBlend mode="normal" in="SourceGraphic" in2="effect1_dropShadow" result="shape"/>
</filter>
<filter id="filter1_d" x="721.156" y="461.389" width="231.553" height="244.814" filterUnits="userSpaceOnUse" color-interpolation-filters="sRGB">
<feFlood flood-opacity="0" result="BackgroundImageFix"/>
<feColorMatrix in="SourceAlpha" type="matrix" values="0 0 0 0 0 0 0 0 0 0 0 0 0 0 0 0 0 0 127 0"/>
<feOffset dy="-23"/>
<feGaussianBlur stdDeviation="37"/>
<feColorMatrix type="matrix" values="0 0 0 0 1 0 0 0 0 0.52549 0 0 0 0 0.247059 0 0 0 0.3 0"/>
<feBlend mode="normal" in2="BackgroundImageFix" result="effect1_dropShadow"/>
<feBlend mode="normal" in="SourceGraphic" in2="effect1_dropShadow" result="shape"/>
</filter>
<linearGradient id="paint0_linear" x1="830.872" y1="-59.5405" x2="830.872" y2="668.958" gradientUnits="userSpaceOnUse">
<stop stop-color="#182234"/>
<stop offset="1" stop-color="#AE3562"/>
</linearGradient>
<linearGradient id="paint1_linear" x1="260.916" y1="239.177" x2="260.916" y2="328.31" gradientUnits="userSpaceOnUse">
<stop stop-color="white" stop-opacity="0.24"/>
<stop offset="1" stop-color="white" stop-opacity="0.34"/>
</linearGradient>
<linearGradient id="paint2_linear" x1="1118.64" y1="25.4841" x2="1118.64" y2="83.5755" gradientUnits="userSpaceOnUse">
<stop stop-color="white" stop-opacity="0.24"/>
<stop offset="1" stop-color="white" stop-opacity="0.34"/>
</linearGradient>
<linearGradient id="paint3_linear" x1="1244.11" y1="366.82" x2="1244.11" y2="434.309" gradientUnits="userSpaceOnUse">
<stop stop-color="white" stop-opacity="0.24"/>
<stop offset="1" stop-color="white" stop-opacity="0.34"/>
</linearGradient>
<linearGradient id="paint4_linear" x1="884.43" y1="660.474" x2="904.262" y2="629.466" gradientUnits="userSpaceOnUse">
<stop stop-color="#FFCC5C"/>
<stop offset="0.447917" stop-color="#434A77"/>
<stop offset="1" stop-color="#092043"/>
</linearGradient>
<linearGradient id="paint5_linear" x1="888.403" y1="649.048" x2="910.211" y2="658.972" gradientUnits="userSpaceOnUse">
<stop stop-color="#FFCC5C"/>
<stop offset="0.447917" stop-color="#434A77"/>
<stop offset="1" stop-color="#092043"/>
</linearGradient>
<linearGradient id="paint6_linear" x1="846.784" y1="653.144" x2="860.223" y2="621.781" gradientUnits="userSpaceOnUse">
<stop stop-color="#FF863F"/>
<stop offset="0.447917" stop-color="#434A77"/>
<stop offset="1" stop-color="#092043"/>
</linearGradient>
<linearGradient id="paint7_linear" x1="794.923" y1="648.402" x2="802.852" y2="607.823" gradientUnits="userSpaceOnUse">
<stop stop-color="#FF863F"/>
<stop offset="0.447917" stop-color="#434A77"/>
<stop offset="1" stop-color="#092043"/>
</linearGradient>
<radialGradient id="paint8_radial" cx="0" cy="0" r="1" gradientUnits="userSpaceOnUse" gradientTransform="translate(740.308 650.31) rotate(-106.456) scale(27.8245 48.2207)">
<stop stop-color="#FF863F"/>
<stop offset="0.447917" stop-color="#434A77"/>
<stop offset="1" stop-color="#092043"/>
</radialGradient>
<linearGradient id="paint9_linear" x1="763.951" y1="648.843" x2="757.917" y2="629.154" gradientUnits="userSpaceOnUse">
<stop stop-color="#FF863F"/>
<stop offset="0.447917" stop-color="#434A77"/>
<stop offset="1" stop-color="#092043"/>
</linearGradient>
<linearGradient id="paint10_linear" x1="805.753" y1="610.844" x2="805.753" y2="682.004" gradientUnits="userSpaceOnUse">
<stop stop-color="#342547"/>
<stop offset="1" stop-color="#0F1B31"/>
</linearGradient>
<linearGradient id="paint11_linear" x1="804.703" y1="674.582" x2="804.47" y2="655.226" gradientUnits="userSpaceOnUse">
<stop offset="0.0625" stop-color="#FFE7AE"/>
<stop offset="0.619792" stop-color="#FDCA5C"/>
<stop offset="1" stop-color="#FE863E"/>
</linearGradient>
<linearGradient id="paint12_linear" x1="1115.73" y1="738.429" x2="1126.34" y2="746.879" gradientUnits="userSpaceOnUse">
<stop stop-color="#9A7627"/>
<stop offset="0.447917" stop-color="#434A77"/>
<stop offset="1" stop-color="#092043"/>
</linearGradient>
<linearGradient id="paint13_linear" x1="660.015" y1="718.315" x2="655.1" y2="722.228" gradientUnits="userSpaceOnUse">
<stop stop-color="#FFCC5C"/>
<stop offset="0.447917" stop-color="#434A77"/>
<stop offset="1" stop-color="#092043"/>
</linearGradient>
<linearGradient id="paint14_linear" x1="726.206" y1="650.319" x2="704.398" y2="660.243" gradientUnits="userSpaceOnUse">
<stop stop-color="#FFCC5C"/>
<stop offset="0.447917" stop-color="#434A77"/>
<stop offset="1" stop-color="#092043"/>
</linearGradient>
<linearGradient id="paint15_linear" x1="386.581" y1="674.067" x2="381.651" y2="677.956" gradientUnits="userSpaceOnUse">
<stop stop-color="#9A7627"/>
<stop offset="0.447917" stop-color="#434A77"/>
<stop offset="1" stop-color="#092043"/>
</linearGradient>
<linearGradient id="paint16_linear" x1="811.564" y1="739.638" x2="813.568" y2="752.114" gradientUnits="userSpaceOnUse">
<stop stop-color="#7B5D1B"/>
<stop offset="0.447917" stop-color="#434A77"/>
<stop offset="1" stop-color="#092043"/>
</linearGradient>
<linearGradient id="paint17_linear" x1="1262.87" y1="683.725" x2="1267.8" y2="687.613" gradientUnits="userSpaceOnUse">
<stop stop-color="#9A7627"/>
<stop offset="0.447917" stop-color="#434A77"/>
<stop offset="1" stop-color="#092043"/>
</linearGradient>
<linearGradient id="paint18_linear" x1="735.804" y1="659.839" x2="713.996" y2="669.763" gradientUnits="userSpaceOnUse">
<stop stop-color="#FFCC5C"/>
<stop offset="0.447917" stop-color="#434A77"/>
<stop offset="1" stop-color="#092043"/>
</linearGradient>
<linearGradient id="paint19_linear" x1="752.133" y1="659.203" x2="738.937" y2="676.804" gradientUnits="userSpaceOnUse">
<stop stop-color="#FFCC5C"/>
<stop offset="0.447917" stop-color="#434A77"/>
<stop offset="1" stop-color="#092043"/>
</linearGradient>
<linearGradient id="paint20_linear" x1="896.847" y1="657.558" x2="912.118" y2="660.082" gradientUnits="userSpaceOnUse">
<stop stop-color="#FFCC5C"/>
<stop offset="0.447917" stop-color="#434A77"/>
<stop offset="1" stop-color="#092043"/>
</linearGradient>
<linearGradient id="paint21_linear" x1="864.159" y1="662.382" x2="885.857" y2="677.688" gradientUnits="userSpaceOnUse">
<stop stop-color="#FFCC5C"/>
<stop offset="0.447917" stop-color="#434A77"/>
<stop offset="1" stop-color="#092043"/>
</linearGradient>
<linearGradient id="paint22_linear" x1="1416.82" y1="174.742" x2="1416.82" y2="716.782" gradientUnits="userSpaceOnUse">
<stop stop-color="#182234"/>
<stop offset="1" stop-color="#76395A"/>
</linearGradient>
<linearGradient id="paint23_linear" x1="339.854" y1="106.472" x2="339.854" y2="648.78" gradientUnits="userSpaceOnUse">
<stop stop-color="#182234"/>
<stop offset="1" stop-color="#76395A"/>
</linearGradient>
<linearGradient id="paint24_linear" x1="1301.2" y1="165.188" x2="1301.2" y2="707.496" gradientUnits="userSpaceOnUse">
<stop stop-color="#182234"/>
<stop offset="1" stop-color="#76395A"/>
</linearGradient>
<linearGradient id="paint25_linear" x1="193.058" y1="99.5647" x2="193.058" y2="641.872" gradientUnits="userSpaceOnUse">
<stop stop-color="#182234"/>
<stop offset="1" stop-color="#76395A"/>
</linearGradient>
<linearGradient id="paint26_linear" x1="254.691" y1="108.029" x2="254.691" y2="650.336" gradientUnits="userSpaceOnUse">
<stop stop-color="#182234"/>
<stop offset="1" stop-color="#76395A"/>
</linearGradient>
<linearGradient id="paint27_linear" x1="1522.49" y1="108.029" x2="1522.49" y2="650.336" gradientUnits="userSpaceOnUse">
<stop stop-color="#182234"/>
<stop offset="1" stop-color="#76395A"/>
</linearGradient>
<linearGradient id="paint28_linear" x1="837.5" y1="51.1397" x2="839.398" y2="644.485" gradientUnits="userSpaceOnUse">
<stop stop-color="#FED16F" stop-opacity="0.05"/>
<stop offset="1" stop-color="#FF873F" stop-opacity="0.33"/>
</linearGradient>
<linearGradient id="paint29_linear" x1="841.493" y1="655.742" x2="837.056" y2="587.89" gradientUnits="userSpaceOnUse">
<stop offset="0.0625" stop-color="#FFE7AE"/>
<stop offset="0.307292" stop-color="#FDCA5C"/>
<stop offset="0.541667" stop-color="#FA9142"/>
<stop offset="0.984375" stop-color="#EC5440"/>
</linearGradient>
<linearGradient id="paint30_linear" x1="869.766" y1="646.313" x2="875.3" y2="668.007" gradientUnits="userSpaceOnUse">
<stop stop-color="#FFCC5C"/>
<stop offset="0.447917" stop-color="#434A77"/>
<stop offset="1" stop-color="#092043"/>
</linearGradient>
<linearGradient id="paint31_linear" x1="808.172" y1="639.002" x2="800.499" y2="664.918" gradientUnits="userSpaceOnUse">
<stop stop-color="#FFCC5C"/>
<stop offset="0.447917" stop-color="#434A77"/>
<stop offset="1" stop-color="#092043"/>
</linearGradient>
<linearGradient id="paint32_linear" x1="849.903" y1="638.138" x2="849.99" y2="666.73" gradientUnits="userSpaceOnUse">
<stop stop-color="#FFCC5C"/>
<stop offset="0.447917" stop-color="#434A77"/>
<stop offset="1" stop-color="#092043"/>
</linearGradient>
<linearGradient id="paint33_linear" x1="465.329" y1="700.293" x2="456.911" y2="705.476" gradientUnits="userSpaceOnUse">
<stop stop-color="#9A7627"/>
<stop offset="0.447917" stop-color="#434A77"/>
<stop offset="1" stop-color="#092043"/>
</linearGradient>
<linearGradient id="paint34_linear" x1="989.274" y1="630.397" x2="950.299" y2="660.443" gradientUnits="userSpaceOnUse">
<stop stop-color="#E05E77"/>
<stop offset="1" stop-color="#EE8063"/>
</linearGradient>
<linearGradient id="paint35_linear" x1="1014.24" y1="503.011" x2="942.229" y2="627.725" gradientUnits="userSpaceOnUse">
<stop stop-color="#A93756"/>
<stop offset="1" stop-color="#EE8063"/>
</linearGradient>
<linearGradient id="paint36_linear" x1="1014.24" y1="503.011" x2="942.229" y2="627.725" gradientUnits="userSpaceOnUse">
<stop stop-color="#A93756"/>
<stop offset="1" stop-color="#EE8063"/>
</linearGradient>
<linearGradient id="paint37_linear" x1="1014.24" y1="503.011" x2="942.229" y2="627.725" gradientUnits="userSpaceOnUse">
<stop stop-color="#A93756"/>
<stop offset="1" stop-color="#EE8063"/>
</linearGradient>
<linearGradient id="paint38_linear" x1="1014.24" y1="503.011" x2="942.229" y2="627.725" gradientUnits="userSpaceOnUse">
<stop stop-color="#A93756"/>
<stop offset="1" stop-color="#EE8063"/>
</linearGradient>
<linearGradient id="paint39_linear" x1="1014.24" y1="503.011" x2="942.229" y2="627.725" gradientUnits="userSpaceOnUse">
<stop stop-color="#A93756"/>
<stop offset="1" stop-color="#EE8063"/>
</linearGradient>
<linearGradient id="paint40_linear" x1="1014.24" y1="503.011" x2="942.229" y2="627.725" gradientUnits="userSpaceOnUse">
<stop stop-color="#A93756"/>
<stop offset="1" stop-color="#EE8063"/>
</linearGradient>
<linearGradient id="paint41_linear" x1="1014.24" y1="503.011" x2="942.229" y2="627.725" gradientUnits="userSpaceOnUse">
<stop stop-color="#A93756"/>
<stop offset="1" stop-color="#EE8063"/>
</linearGradient>
<linearGradient id="paint42_linear" x1="1014.24" y1="503.011" x2="942.229" y2="627.725" gradientUnits="userSpaceOnUse">
<stop stop-color="#A93756"/>
<stop offset="1" stop-color="#EE8063"/>
</linearGradient>
<linearGradient id="paint43_linear" x1="1014.24" y1="503.011" x2="942.229" y2="627.725" gradientUnits="userSpaceOnUse">
<stop stop-color="#A93756"/>
<stop offset="1" stop-color="#EE8063"/>
</linearGradient>
<linearGradient id="paint44_linear" x1="925.755" y1="581.415" x2="862.449" y2="646.99" gradientUnits="userSpaceOnUse">
<stop stop-color="#BB495B"/>
<stop offset="1" stop-color="#EA7B63"/>
</linearGradient>
<linearGradient id="paint45_linear" x1="925.755" y1="581.415" x2="862.449" y2="646.99" gradientUnits="userSpaceOnUse">
<stop stop-color="#BB495B"/>
<stop offset="1" stop-color="#EA7B63"/>
</linearGradient>
<linearGradient id="paint46_linear" x1="925.755" y1="581.415" x2="862.449" y2="646.99" gradientUnits="userSpaceOnUse">
<stop stop-color="#BB495B"/>
<stop offset="1" stop-color="#EA7B63"/>
</linearGradient>
<linearGradient id="paint47_linear" x1="637.853" y1="496.234" x2="804.7" y2="575.325" gradientUnits="userSpaceOnUse">
<stop stop-color="#A93756"/>
<stop offset="1" stop-color="#FEA64D"/>
</linearGradient>
<linearGradient id="paint48_linear" x1="637.853" y1="496.234" x2="804.7" y2="575.325" gradientUnits="userSpaceOnUse">
<stop stop-color="#A93756"/>
<stop offset="1" stop-color="#FEA64D"/>
</linearGradient>
<linearGradient id="paint49_linear" x1="637.853" y1="496.234" x2="804.7" y2="575.325" gradientUnits="userSpaceOnUse">
<stop stop-color="#A93756"/>
<stop offset="1" stop-color="#FEA64D"/>
</linearGradient>
<linearGradient id="paint50_linear" x1="637.853" y1="496.234" x2="804.7" y2="575.325" gradientUnits="userSpaceOnUse">
<stop stop-color="#A93756"/>
<stop offset="1" stop-color="#FEA64D"/>
</linearGradient>
<linearGradient id="paint51_linear" x1="637.853" y1="496.234" x2="804.7" y2="575.325" gradientUnits="userSpaceOnUse">
<stop stop-color="#A93756"/>
<stop offset="1" stop-color="#FEA64D"/>
</linearGradient>
<linearGradient id="paint52_linear" x1="637.853" y1="496.234" x2="804.7" y2="575.325" gradientUnits="userSpaceOnUse">
<stop stop-color="#A93756"/>
<stop offset="1" stop-color="#FEA64D"/>
</linearGradient>
<linearGradient id="paint53_linear" x1="794.314" y1="566.887" x2="774.318" y2="540.441" gradientUnits="userSpaceOnUse">
<stop stop-color="#FFB20B"/>
<stop offset="1" stop-color="#832056"/>
</linearGradient>
<linearGradient id="paint54_linear" x1="794.314" y1="566.887" x2="774.318" y2="540.441" gradientUnits="userSpaceOnUse">
<stop stop-color="#FFB20B"/>
<stop offset="1" stop-color="#832056"/>
</linearGradient>
<linearGradient id="paint55_linear" x1="813.3" y1="562.189" x2="793.164" y2="535.857" gradientUnits="userSpaceOnUse">
<stop stop-color="#FFB20B"/>
<stop offset="1" stop-color="#8C245D"/>
</linearGradient>
<linearGradient id="paint56_linear" x1="813.3" y1="562.189" x2="793.164" y2="535.857" gradientUnits="userSpaceOnUse">
<stop stop-color="#FFB20B"/>
<stop offset="1" stop-color="#8C245D"/>
</linearGradient>
<linearGradient id="paint57_linear" x1="735.949" y1="581.414" x2="805.065" y2="646.46" gradientUnits="userSpaceOnUse">
<stop stop-color="#B03E58"/>
<stop offset="1" stop-color="#EA7B63"/>
</linearGradient>
<linearGradient id="paint58_linear" x1="735.949" y1="581.414" x2="805.065" y2="646.46" gradientUnits="userSpaceOnUse">
<stop stop-color="#B03E58"/>
<stop offset="1" stop-color="#EA7B63"/>
</linearGradient>
<linearGradient id="paint59_linear" x1="735.949" y1="581.414" x2="805.065" y2="646.46" gradientUnits="userSpaceOnUse">
<stop stop-color="#B03E58"/>
<stop offset="1" stop-color="#EA7B63"/>
</linearGradient>
<linearGradient id="paint60_linear" x1="868.727" y1="10.7877" x2="859.992" y2="867.202" gradientUnits="userSpaceOnUse">
<stop stop-color="#182234"/>
<stop offset="1" stop-color="#2E2652"/>
</linearGradient>
<linearGradient id="paint61_linear" x1="868.727" y1="10.7877" x2="859.992" y2="867.202" gradientUnits="userSpaceOnUse">
<stop stop-color="#182234"/>
<stop offset="1" stop-color="#2E2652"/>
</linearGradient>
<linearGradient id="paint62_linear" x1="868.727" y1="10.7877" x2="859.992" y2="867.202" gradientUnits="userSpaceOnUse">
<stop stop-color="#182234"/>
<stop offset="1" stop-color="#2E2652"/>
</linearGradient>
<linearGradient id="paint63_linear" x1="868.727" y1="10.7877" x2="859.992" y2="867.202" gradientUnits="userSpaceOnUse">
<stop stop-color="#182234"/>
<stop offset="1" stop-color="#2E2652"/>
</linearGradient>
<linearGradient id="paint64_linear" x1="868.727" y1="10.7877" x2="859.992" y2="867.202" gradientUnits="userSpaceOnUse">
<stop stop-color="#182234"/>
<stop offset="1" stop-color="#2E2652"/>
</linearGradient>
<linearGradient id="paint65_linear" x1="868.727" y1="10.7877" x2="859.992" y2="867.202" gradientUnits="userSpaceOnUse">
<stop stop-color="#182234"/>
<stop offset="1" stop-color="#2E2652"/>
</linearGradient>
<linearGradient id="paint66_linear" x1="868.727" y1="10.7877" x2="859.992" y2="867.202" gradientUnits="userSpaceOnUse">
<stop stop-color="#182234"/>
<stop offset="1" stop-color="#2E2652"/>
</linearGradient>
<linearGradient id="paint67_linear" x1="868.727" y1="10.7877" x2="859.992" y2="867.202" gradientUnits="userSpaceOnUse">
<stop stop-color="#182234"/>
<stop offset="1" stop-color="#2E2652"/>
</linearGradient>
</defs>
</svg>
