<svg width="1200" height="812" viewBox="0 0 1200 812" fill="none" xmlns="http://www.w3.org/2000/svg">
<mask id="mask0" mask-type="alpha" maskUnits="userSpaceOnUse" x="0" y="0" width="1200" height="812">
<rect width="1200" height="811.239" fill="#C4C4C4"/>
</mask>
<g mask="url(#mask0)">
<mask id="mask1" mask-type="alpha" maskUnits="userSpaceOnUse" x="-6" y="-5" width="1215" height="700">
<rect x="-5.05078" y="-4.83789" width="1213.21" height="699.28" fill="#6D549E"/>
</mask>
<g mask="url(#mask1)">
<ellipse opacity="0.5" rx="1.29306" ry="1.26407" transform="matrix(0.0997338 -0.995014 0.994534 0.104411 875.066 25.0353)" fill="white" fill-opacity="0.7"/>
<path opacity="0.4" d="M404.405 259.009H-218.207C-218.207 259.009 -180.839 225.654 -141.171 225.654C-101.503 225.654 -53.212 241.934 -20.4429 241.934C12.3262 241.934 82.4634 168.473 139.378 168.473C196.293 168.473 237.11 224.859 261.256 224.859C285.402 224.859 294.025 211.756 315.296 214.932C336.567 218.109 404.405 259.009 404.405 259.009Z" fill="url(#paint0_linear)"/>
<path opacity="0.4" d="M1013.54 71.0408H669.797C669.797 71.0408 698.853 39.6823 720.753 39.6823C742.654 39.6823 760.89 53.8489 778.982 53.8489C797.074 53.8489 835.796 12.4082 867.219 12.4082C898.641 12.4082 921.176 52.1773 934.507 52.1773C947.838 52.1773 952.599 44.939 964.343 46.6938C976.086 48.4485 1013.54 71.0408 1013.54 71.0408Z" fill="url(#paint1_linear)"/>
<path opacity="0.4" d="M1121.38 292.636H780.168C780.168 292.636 799.067 264.237 819.129 264.237C839.191 264.237 843.129 274.306 859.702 274.306C876.275 274.306 876.66 245.388 905.445 245.388C934.23 245.388 927.796 260.84 950.363 264.237C972.931 267.634 976.433 224.519 999.098 224.519C1021.76 224.519 1021.6 248.445 1049.27 264.237C1102.84 238.119 1121.38 292.636 1121.38 292.636Z" fill="url(#paint2_linear)"/>
<ellipse opacity="0.5" cx="179.033" cy="448.272" rx="1.26376" ry="1.29337" fill="white"/>
<ellipse opacity="0.5" cx="326.479" cy="134.415" rx="1.26376" ry="1.29337" fill="white"/>
<ellipse opacity="0.5" cx="373.654" cy="34.3944" rx="1.26376" ry="1.29337" fill="white"/>
<ellipse opacity="0.5" rx="1.27045" ry="1.2868" transform="matrix(0.8763 0.481765 -0.464757 0.885438 66.0504 323.952)" fill="white"/>
<ellipse opacity="0.5" rx="1.27045" ry="1.2868" transform="matrix(0.8763 0.481765 -0.464757 0.885438 241.171 263.623)" fill="white"/>
<ellipse rx="2.14022" ry="2.1219" transform="matrix(0.55176 -0.834003 0.821948 0.569562 1033.9 309.28)" fill="white" fill-opacity="0.8"/>
<ellipse opacity="0.5" rx="1.28413" ry="1.27314" transform="matrix(0.55176 -0.834003 0.821948 0.569562 991.954 125.066)" fill="white" fill-opacity="0.7"/>
<ellipse opacity="0.9" rx="2.11742" ry="2.14466" transform="matrix(0.8763 0.481765 -0.464757 0.885438 94.7377 66.1979)" fill="white"/>
<ellipse opacity="0.5" rx="1.27588" ry="1.28141" transform="matrix(0.762932 -0.646478 0.628956 0.77744 554.565 219.513)" fill="white"/>
<ellipse rx="0.850589" ry="0.854272" transform="matrix(0.762932 -0.646478 0.628956 0.77744 455.026 124.189)" fill="white" fill-opacity="0.7"/>
<ellipse opacity="0.5" rx="1.27588" ry="1.28141" transform="matrix(0.762932 -0.646478 0.628956 0.77744 807.217 210.819)" fill="white"/>
<path d="M662.882 459.221C669.018 459.426 675.709 456.022 675.709 456.022C675.709 456.022 672.274 439.945 663.519 439.289C654.764 438.632 652.04 455.229 652.04 455.229C652.04 455.229 656.745 459.015 662.882 459.221Z" fill="url(#paint3_linear)"/>
<path d="M679.92 469.834C685.818 469.834 692.137 465.523 692.137 465.523C692.137 465.523 688.345 446.553 679.92 446.122C671.495 445.691 669.389 465.523 669.389 465.523C669.389 465.523 674.023 469.834 679.92 469.834Z" fill="url(#paint4_linear)"/>
<path d="M634.668 457.148C642.274 457.945 650.859 454.433 650.859 454.433C650.859 454.433 647.891 434.713 637.07 433.138C626.249 431.563 621.524 451.36 621.524 451.36C621.524 451.36 627.063 456.352 634.668 457.148Z" fill="url(#paint5_linear)"/>
<path d="M579.146 455.541C573.952 455.715 568.289 452.834 568.289 452.834C568.289 452.834 571.197 439.226 578.607 438.671C586.017 438.116 588.323 452.163 588.323 452.163C588.323 452.163 584.34 455.367 579.146 455.541Z" fill="url(#paint6_linear)"/>
<path d="M604.128 458.186C612.646 458.186 621.773 453.328 621.773 453.328C621.773 453.328 616.297 431.95 604.128 431.464C591.958 430.979 588.916 453.328 588.916 453.328C588.916 453.328 595.609 458.186 604.128 458.186Z" fill="url(#paint7_linear)"/>
<path d="M556.38 461.108C548.768 461.363 540.468 457.141 540.468 457.141C540.468 457.141 544.729 437.195 555.589 436.381C566.45 435.567 569.83 456.157 569.83 456.157C569.83 456.157 563.993 460.853 556.38 461.108Z" fill="url(#paint8_radial)"/>
<mask id="mask2" mask-type="alpha" maskUnits="userSpaceOnUse" x="-2" y="462" width="1214" height="193">
<rect x="-1.6875" y="462.499" width="1213.21" height="192.28" fill="#342152"/>
</mask>
<g mask="url(#mask2)">
<path opacity="0.8" d="M885.47 475.666C885.47 512.939 760.05 553.897 605.336 553.897C450.623 553.897 325.203 512.939 325.203 475.666C325.203 438.393 450.623 408.177 605.336 408.177C760.05 408.177 885.47 438.393 885.47 475.666Z" fill="#4D3188"/>
<path opacity="0.8" d="M794.479 472.634C794.479 492.041 709.609 515.095 604.915 515.095C500.222 515.095 415.352 492.041 415.352 472.634C415.352 453.226 500.222 437.493 604.915 437.493C709.609 437.493 794.479 453.226 794.479 472.634Z" fill="#583C91"/>
<ellipse cx="609.973" cy="466.809" rx="102.786" ry="24.1428" fill="url(#paint9_linear)" fill-opacity="0.89"/>
</g>
<g filter="url(#filter0_d)">
<path d="M548.864 461.656C545.915 465.258 560.756 468.037 560.756 468.037C560.756 468.037 585.058 471.907 606.963 472.461C628.869 473.015 651.747 470.53 651.747 470.53C651.747 470.53 679.874 465.812 675.661 461.656C671.449 457.5 651.747 451.96 610.789 450.574C569.832 449.189 551.813 458.054 548.864 461.656Z" fill="url(#paint10_radial)"/>
</g>
<path d="M741.585 502.43C745.46 502.3 749.71 505.228 749.71 505.228C749.71 505.228 757.287 507.693 764.574 510.64C772.49 513.841 756.052 507.694 753.201 509.49C751.171 510.768 768.824 519.136 761.626 516.68C749.405 512.511 734.763 505.729 734.763 505.729C734.763 505.729 737.71 502.559 741.585 502.43Z" fill="#3C1C80"/>
<path d="M599.879 357.937C601.962 356.036 604.092 356.486 605.179 357.732C606.265 358.979 605.125 361.217 603.098 361.339C601.072 361.46 599.337 364.285 598.25 363.038C597.164 361.791 597.795 359.839 599.879 357.937Z" fill="#FE863F"/>
<path d="M595.192 337.256C596.467 336.226 597.689 336.564 598.277 337.327C598.866 338.091 598.127 339.35 596.945 339.348C595.764 339.345 594.659 340.924 594.071 340.161C593.483 339.398 593.916 338.286 595.192 337.256Z" fill="#FE863F"/>
<path opacity="0.5" d="M591.579 294.033C592.184 292.49 593.407 292.16 594.289 292.522C595.171 292.884 595.142 294.353 594.117 294.953C593.092 295.553 592.902 297.485 592.02 297.123C591.139 296.761 590.974 295.577 591.579 294.033Z" fill="#FE863F"/>
<path d="M625.565 370.184C626.825 370.682 627.106 371.72 626.821 372.473C626.537 373.227 625.344 373.219 624.845 372.353C624.347 371.488 622.776 371.347 623.06 370.593C623.344 369.84 624.305 369.687 625.565 370.184Z" fill="#FE863F"/>
<ellipse cx="572.482" cy="339.629" rx="1.26376" ry="1.29337" fill="#ECBE5B"/>
<ellipse opacity="0.5" cx="612.92" cy="299.103" rx="1.26376" ry="1.29337" fill="#ECBE5B"/>
<ellipse cx="644.095" cy="338.765" rx="2.10627" ry="2.15561" fill="#ECBE5B"/>
<ellipse opacity="0.5" cx="620.502" cy="210.291" rx="1.26376" ry="1.29337" fill="#ECBE5B"/>
<ellipse opacity="0.5" cx="591.018" cy="193.047" rx="1.26376" ry="1.29337" fill="#ECBE5B"/>
<ellipse opacity="0.5" cx="645.779" cy="281.857" rx="1.26376" ry="1.29337" fill="#ECBE5B"/>
<path d="M739.899 507.197C743.774 507.327 746.339 504.399 746.339 504.399C746.339 504.399 746.124 499.766 744.774 496.126C743.562 492.859 743.597 504.131 740.983 503.898C738.669 503.692 738.768 491.173 737.613 493.97C736.008 497.853 734.762 504.76 734.762 504.76C734.762 504.76 736.024 507.068 739.899 507.197Z" fill="#2F365C"/>
<path d="M710.965 569.122C714.36 569.937 717.381 573.498 717.381 573.498C717.381 573.498 718.808 573.829 724.462 578.133C730.603 582.808 722.324 577.158 719.437 578.034C717.382 578.658 730.798 590.152 725.109 586.296C715.451 579.749 704.287 570.353 704.287 570.353C704.287 570.353 707.571 568.306 710.965 569.122Z" fill="#3C1C80"/>
<path d="M709.593 573.146C713.078 573.263 715.384 570.63 715.384 570.63C715.384 570.63 715.191 570.663 713.977 567.389C712.887 564.451 712.918 570.389 710.567 570.179C708.487 569.994 708.576 558.735 707.537 561.251C706.094 564.743 704.973 570.955 704.973 570.955C704.973 570.955 706.108 573.03 709.593 573.146Z" fill="#2F365C"/>
<path d="M491.066 558.01C487.793 558.865 484.934 562.372 484.934 562.372C484.934 562.372 479.181 566.319 473.786 570.597C467.925 575.243 480.215 566.012 483.027 566.805C485.028 567.37 472.249 578.76 477.687 574.915C486.919 568.388 497.555 559.073 497.555 559.073C497.555 559.073 494.338 557.155 491.066 558.01Z" fill="#3C1C80"/>
<path d="M494.466 560.681C491.09 560.794 488.856 558.244 488.856 558.244C488.856 558.244 489.043 554.208 490.219 551.037C491.275 548.191 491.245 558.01 493.522 557.808C495.537 557.628 495.45 546.723 496.457 549.16C497.855 552.542 498.94 558.559 498.94 558.559C498.94 558.559 497.841 560.568 494.466 560.681Z" fill="#2F365C"/>
<path d="M397.663 483.193C394.659 482.737 393.029 482.762 393.029 482.762C393.029 482.762 377.443 482.384 374.494 483.193C376.179 484.055 385.07 482.827 387.132 484.486C388.6 485.667 377.022 486.641 372.59 488.017C377.022 490.091 400.612 485.779 400.612 485.779C400.612 485.779 400.668 483.648 397.663 483.193Z" fill="#3C1C80"/>
<path d="M395.558 484.916C392.699 483.865 393.451 483.192 393.451 483.192C393.451 483.192 393.858 478.979 394.715 478.018C395.979 479.743 395.457 481.471 397.426 482.074C399.169 482.608 398.67 478.881 400.613 475.863C401.619 478.45 401.712 484.541 401.712 484.541C401.712 484.541 398.416 485.967 395.558 484.916Z" fill="#2F365C"/>
<path d="M845.215 523.045C849.09 522.915 853.34 525.843 853.34 525.843C853.34 525.843 876.208 531.83 870.732 535.279C865.256 538.728 838.394 526.344 838.394 526.344C838.394 526.344 841.34 523.175 845.215 523.045Z" fill="#3C1C80"/>
<path d="M843.531 527.812C847.406 527.942 851.656 525.014 851.656 525.014C851.656 525.014 849.597 511.434 844.071 510.942C838.545 510.449 836.709 524.513 836.709 524.513C836.709 524.513 839.656 527.682 843.531 527.812Z" fill="url(#paint11_linear)"/>
<path d="M495.051 504.571C492.349 504.48 489.386 506.522 489.386 506.522C489.386 506.522 468.612 515.4 470.211 516.407C471.811 517.414 499.807 506.871 499.807 506.871C499.807 506.871 497.753 504.661 495.051 504.571Z" fill="#3C1C80"/>
<path d="M496.635 507.496C494.841 507.556 492.872 506.2 492.872 506.2C492.872 506.2 493.826 499.911 496.385 499.683C498.944 499.456 499.794 505.968 499.794 505.968C499.794 505.968 498.429 507.436 496.635 507.496Z" fill="url(#paint12_linear)"/>
<path opacity="0.96" d="M597.338 479.724H625.141C625.141 479.724 622.192 491.718 612.082 493.392C601.972 495.066 597.338 479.724 597.338 479.724Z" fill="#0D1A31"/>
<path opacity="0.96" d="M628.511 478.063L644.85 474.57C644.85 474.57 654.505 486.445 651.534 488.191C648.563 489.937 628.511 478.063 628.511 478.063Z" fill="#0D1A31"/>
<path opacity="0.96" d="M658.838 477.656L671.85 470.258C671.85 470.258 692.162 478.488 685.18 483.574C678.197 488.66 658.838 477.656 658.838 477.656Z" fill="#0D1A31"/>
<path opacity="0.96" d="M669.79 464.739L684.064 461.636C684.064 461.636 715.148 462.024 712.611 463.963C710.073 465.902 669.79 464.739 669.79 464.739Z" fill="#0D1A31"/>
<path opacity="0.96" d="M547.628 469.825L533.354 465.947C533.354 465.947 502.27 466.432 504.807 468.856C507.345 471.28 547.628 469.825 547.628 469.825Z" fill="#0D1A31"/>
<path d="M537.501 470.696C531.604 470.696 525.285 466.384 525.285 466.384C525.285 466.384 529.076 447.415 537.501 446.984C545.927 446.553 548.033 466.384 548.033 466.384C548.033 466.384 543.399 470.696 537.501 470.696Z" fill="url(#paint13_linear)"/>
<path opacity="0.96" d="M671.477 471.637L685.751 468.534C685.751 468.534 716.836 468.922 714.298 470.861C711.761 472.801 671.477 471.637 671.477 471.637Z" fill="#0D1A31"/>
<path d="M290.187 474.032C287.697 472.956 284.215 473.775 284.215 473.775C284.215 473.775 261.713 474.442 262.853 475.969C263.993 477.496 291.924 479.312 294.664 477.061C297.405 474.811 292.678 475.107 290.187 474.032Z" fill="#3C1C80"/>
<path opacity="0.96" d="M594.809 478.813L573.487 475.432C573.487 475.432 563.7 489.331 572.089 491.584C580.478 493.838 594.809 478.813 594.809 478.813Z" fill="#0D1A31"/>
<path d="M292.011 477.463C290.216 477.514 288.254 476.149 288.254 476.149C288.254 476.149 289.236 469.865 291.796 469.649C294.356 469.433 295.176 475.95 295.176 475.95C295.176 475.95 293.805 477.411 292.011 477.463Z" fill="url(#paint14_linear)"/>
<path d="M611.54 524.243C615.415 524.113 617.679 526.13 617.679 526.13C617.679 526.13 614.73 548.979 611.54 548.979C608.349 548.979 603.356 526.129 603.356 526.129C603.356 526.129 607.665 524.372 611.54 524.243Z" fill="#3C1C80"/>
<path d="M609.973 529.01C613.848 529.14 618.098 526.212 618.098 526.212C618.098 526.212 616.039 516.943 610.513 516.451C604.987 515.959 603.152 525.711 603.152 525.711C603.152 525.711 606.098 528.88 609.973 529.01Z" fill="url(#paint15_linear)"/>
<path d="M954.145 480.584C956.635 479.508 960.117 480.327 960.117 480.327C960.117 480.327 982.619 480.994 981.479 482.521C980.339 484.048 952.408 485.864 949.668 483.614C946.927 481.363 951.654 481.659 954.145 480.584Z" fill="#3C1C80"/>
<path d="M951.478 484.016C953.272 484.067 955.234 482.702 955.234 482.702C955.234 482.702 954.252 476.418 951.692 476.202C949.133 475.986 948.312 482.503 948.312 482.503C948.312 482.503 949.683 483.964 951.478 484.016Z" fill="url(#paint16_linear)"/>
<path opacity="0.96" d="M570.384 476.295L549.737 472.415C549.737 472.415 538.364 482.331 541.734 484.486C545.104 486.642 570.384 476.295 570.384 476.295Z" fill="#0D1A31"/>
<path d="M868.505 474.135C871.509 473.679 873.139 473.704 873.139 473.704C873.139 473.704 888.725 473.326 891.674 474.135C889.989 474.997 881.098 473.77 879.036 475.428C877.568 476.609 889.146 477.584 893.578 478.959C889.146 481.033 865.556 476.722 865.556 476.722C865.556 476.722 865.5 474.591 868.505 474.135Z" fill="#3C1C80"/>
<path d="M870.61 475.859C873.469 474.808 872.717 474.135 872.717 474.135C872.717 474.135 872.31 469.921 871.453 468.961C870.189 470.686 870.711 472.414 868.742 473.017C866.999 473.551 867.497 469.824 865.555 466.806C864.549 469.392 864.456 475.484 864.456 475.484C864.456 475.484 867.752 476.91 870.61 475.859Z" fill="#2F365C"/>
<path opacity="0.96" d="M551.002 475.864L532.046 472.415C532.046 472.415 508.456 473.708 511.826 475.864C515.196 478.02 551.002 475.864 551.002 475.864Z" fill="#0D1A31"/>
<path d="M544.681 477.156C538.784 477.156 532.465 472.845 532.465 472.845C532.465 472.845 536.256 453.876 544.681 453.444C553.106 453.013 555.213 472.845 555.213 472.845C555.213 472.845 550.579 477.156 544.681 477.156Z" fill="url(#paint17_linear)"/>
<path d="M559.196 479.618C553.06 479.824 546.369 476.42 546.369 476.42C546.369 476.42 549.804 460.343 558.559 459.686C567.314 459.03 570.038 475.627 570.038 475.627C570.038 475.627 565.333 479.413 559.196 479.618Z" fill="url(#paint18_linear)"/>
<path d="M683.154 471.892C688.303 471.201 693.43 467.42 693.43 467.42C693.43 467.42 688.405 454.485 681.011 455.168C673.616 455.851 673.57 470.085 673.57 470.085C673.57 470.085 678.005 472.583 683.154 471.892Z" fill="url(#paint19_linear)"/>
<path d="M663.163 479.927C670.775 480.182 679.075 475.96 679.075 475.96C679.075 475.96 674.814 456.015 663.954 455.201C653.093 454.387 649.713 474.976 649.713 474.976C649.713 474.976 655.55 479.672 663.163 479.927Z" fill="url(#paint20_linear)"/>
</g>
<path d="M14.7179 253.43V452.064H74.7391L69.0228 -35.5348L85.6953 -72.4239L80.4554 -79.518L69.0228 -59.6546V-89.4497H19.0051V228.364L-1.00194 207.555V217.487L14.7179 253.43Z" fill="url(#paint21_linear)"/>
<path d="M972.792 262.375V461.009H911.818L917.625 -26.5895L900.688 -63.4786L906.011 -70.5727L917.625 -50.7093V-80.5044H968.436V237.31L988.761 216.501V226.432L972.792 262.375Z" fill="url(#paint22_linear)"/>
<path d="M226.269 261.687V460.321H286.29L280.574 -27.278L297.246 -64.1671L292.006 -71.2612L280.574 -51.3978V-81.1929H230.556V236.621L210.549 215.812V225.744L226.269 261.687Z" fill="url(#paint23_linear)"/>
<path d="M203.793 439.63C209.168 439.362 212.931 451.725 212.931 451.725L43.0664 452.532C43.0664 452.532 46.0229 437.48 53.5485 437.48C61.0742 437.48 61.0742 425.386 65.1058 424.31C69.1374 423.235 69.9437 411.678 78.0069 407.109C86.0701 402.54 86.3388 387.757 93.3269 382.382C100.315 377.006 122.623 372.437 131.224 377.006C139.825 381.575 145.738 391.52 152.188 393.939C158.639 396.358 154.607 393.939 169.39 396.358C184.172 398.777 178.797 427.804 185.247 433.986C191.698 440.168 198.417 439.899 203.793 439.63Z" fill="url(#paint24_linear)"/>
<path d="M158.801 383.017C155.074 385.58 155.074 391.135 155.074 391.135C155.074 391.135 161.285 391.135 163.77 388.571C166.254 386.008 165.84 379.599 165.84 379.599C165.84 379.599 162.528 380.453 158.801 383.017Z" fill="url(#paint25_linear)"/>
<path d="M203.436 431.739C200.48 433.724 200.48 438.024 200.48 438.024C200.48 438.024 205.407 438.024 207.377 436.039C209.347 434.055 209.019 429.093 209.019 429.093C209.019 429.093 206.392 429.754 203.436 431.739Z" fill="url(#paint26_linear)"/>
<path d="M191.776 428.591C189.255 431.919 190.904 436.659 190.904 436.659C190.904 436.659 196.372 434.757 197.799 431.809C199.226 428.861 196.96 423.519 196.96 423.519C196.96 423.519 194.297 425.262 191.776 428.591Z" fill="url(#paint27_linear)"/>
<path d="M138.251 108.017V450.688H101.095L104.634 -38.1497L94.3125 -75.1326L97.5563 -82.2447L104.634 -62.3309V-92.2017H135.597V82.8879L147.982 62.0257V71.9827L138.251 108.017Z" fill="url(#paint28_linear)"/>
<path d="M202.884 107.51V449.312H165.728L169.266 -38.2868L158.945 -75.1759L162.189 -82.27L169.266 -62.4066V-92.2017H200.23V82.444L212.615 61.6348V71.5665L202.884 107.51Z" fill="url(#paint29_linear)"/>
<path d="M1147.13 262.375V461.009H1087.1L1092.82 192.374L1076.15 155.485L1081.39 148.391L1092.82 168.254V-80.5044H1142.84V237.31L1162.85 216.501V226.432L1147.13 262.375Z" fill="url(#paint30_linear)"/>
<path d="M274.567 658.5C288.283 657.814 297.885 689.361 297.885 689.361L-135.551 691.419C-135.551 691.419 -128.007 653.013 -108.804 653.013C-89.6012 653.013 -89.6012 622.152 -79.3139 619.408C-69.0267 616.664 -66.9692 587.174 -46.3948 575.516C-25.8203 563.858 -25.1345 526.138 -7.3033 512.421C10.5279 498.704 67.4506 487.045 89.3967 498.704C111.343 510.363 126.431 535.739 142.89 541.911C159.35 548.084 149.063 541.911 186.782 548.084C224.502 554.256 210.786 628.324 227.246 644.098C243.705 659.872 260.85 659.185 274.567 658.5Z" fill="#160851"/>
<path d="M159.775 514.042C150.266 520.584 150.266 534.757 150.266 534.757C150.266 534.757 166.114 534.757 172.454 528.215C178.793 521.674 177.737 505.32 177.737 505.32C177.737 505.32 169.284 507.501 159.775 514.042Z" fill="#160851"/>
<path d="M273.655 638.366C266.113 643.43 266.113 654.403 266.113 654.403C266.113 654.403 278.683 654.403 283.711 649.338C288.739 644.274 287.901 631.613 287.901 631.613C287.901 631.613 281.197 633.301 273.655 638.366Z" fill="#160851"/>
<path d="M243.91 630.33C237.478 638.823 241.684 650.917 241.684 650.917C241.684 650.917 255.638 646.065 259.279 638.542C262.919 631.019 257.137 617.388 257.137 617.388C257.137 617.388 250.341 621.837 243.91 630.33Z" fill="#160851"/>
<path d="M971.642 666.131C960.871 665.592 935.02 690.366 953.331 690.366C971.642 690.366 1054.04 695.069 1123.52 691.174C1192.99 687.279 1286.12 708.024 1293.7 691.982C1301.29 675.94 1287.78 661.822 1272.7 661.822C1257.62 661.822 1257.62 637.587 1249.54 635.433C1241.46 633.278 1239.85 610.12 1223.69 600.965C1207.53 591.809 1206.99 562.188 1192.99 551.417C1178.99 540.645 1134.29 531.489 1117.05 540.645C1099.82 549.801 1087.97 569.728 1075.05 574.575C1062.12 579.422 1070.2 574.575 1040.58 579.422C1010.96 584.269 1021.73 642.434 1008.8 654.821C995.878 667.208 982.414 666.669 971.642 666.131Z" fill="#160851"/>
<path d="M996.978 636.418C1004.45 641.555 1004.45 652.685 1004.45 652.685C1004.45 652.685 991.999 652.685 987.021 647.548C982.043 642.411 982.872 629.569 982.872 629.569C982.872 629.569 989.51 631.281 996.978 636.418Z" fill="#160851"/>
<path d="M1107.78 533.161C1113.71 537.138 1113.71 545.755 1113.71 545.755C1113.71 545.755 1103.84 545.755 1099.89 541.778C1095.94 537.801 1096.6 527.859 1096.6 527.859C1096.6 527.859 1101.86 529.185 1107.78 533.161Z" fill="#160851"/>
<path d="M1131.15 526.851C1136.2 533.521 1132.89 543.018 1132.89 543.018C1132.89 543.018 1121.94 539.207 1119.08 533.3C1116.22 527.392 1120.76 516.688 1120.76 516.688C1120.76 516.688 1126.1 520.181 1131.15 526.851Z" fill="#160851"/>
<path d="M100.947 427.671V689.908H22.3475L29.8331 46.1786L8 -2.52254L14.8618 -11.8881L29.8331 14.3356V-25H95.3324V394.579L121.532 367.107V380.219L100.947 427.671Z" fill="#160851"/>
<path opacity="0.46" d="M663.373 354.123C663.373 376.879 631.338 396.265 635.553 426.607C639.768 456.95 633.867 460.321 611.105 460.321C588.343 460.321 574.434 456.95 581.178 442.2C587.922 427.45 606.047 378.987 603.096 354.123C600.146 329.259 548.721 322.516 538.604 286.274C528.488 250.031 469.054 201.568 504.883 158.162C540.712 114.755 485.072 102.955 502.776 50.6991C520.479 -1.55724 445.871 -6.19287 445.871 -6.19287H807.11C807.11 -6.19287 722.385 26.678 710.583 61.656C698.78 96.634 693.301 141.305 693.301 174.176C693.301 207.046 616.585 253.403 611.105 278.267C605.625 303.131 663.373 331.366 663.373 354.123Z" fill="url(#paint31_linear)"/>
<g filter="url(#filter1_d)">
<path d="M580.084 451.646C579.356 460.928 588.456 465.842 588.456 465.842C588.456 465.842 598.956 468.384 608.42 468.748C617.884 469.112 627.768 467.48 627.768 467.48C627.768 467.48 635.271 472.758 640.326 454.558C645.38 436.358 637.149 432.982 633.186 436.622C629.224 440.262 622.995 435.443 625.22 429.988C627.445 424.534 628.213 424.443 630.563 420.187C634.021 417.093 632.65 408.377 629.779 407.655C628.996 412.303 625.22 414.519 622.126 413.427C619.032 412.335 617.94 408.149 619.942 405.419C621.944 402.689 623.4 402.903 624.674 401.447C625.948 399.991 624.128 399.959 619.942 399.777C615.756 399.595 608.294 403.781 607.202 410.879C606.11 417.977 608.112 428.896 604.108 428.714C600.104 428.532 600.799 422.094 598.841 422.094C596.572 424.096 599.558 432.536 596.828 436.358C594.098 440.18 580.812 442.364 580.084 451.646Z" fill="url(#paint32_linear)"/>
</g>
<path d="M637.877 481.232C643.071 481.402 648.734 478.587 648.734 478.587C648.734 478.587 645.827 465.29 638.417 464.747C631.007 464.205 628.701 477.931 628.701 477.931C628.701 477.931 632.683 481.062 637.877 481.232Z" fill="url(#paint33_linear)"/>
<path d="M583.868 483.027C576.375 483.027 568.348 478.775 568.348 478.775C568.348 478.775 573.164 460.065 583.868 459.64C594.571 459.214 597.247 478.775 597.247 478.775C597.247 478.775 591.36 483.027 583.868 483.027Z" fill="url(#paint34_linear)"/>
<path d="M612.396 483.716C605.082 483.716 597.246 479.838 597.246 479.838C597.246 479.838 601.948 462.779 612.396 462.391C622.845 462.004 625.457 479.838 625.457 479.838C625.457 479.838 619.71 483.716 612.396 483.716Z" fill="url(#paint35_linear)"/>
<path d="M988.26 491.132V694.954H1078.29L1069.72 55.7708L1094.73 0.192867L1086.87 -10.4952L1069.72 19.4314V-25.4585H994.691V453.367L964.681 422.015V436.979L988.26 491.132Z" fill="#160851"/>
<path d="M663.31 529.207C661.252 531.855 654.56 531.855 655.075 529.207C655.59 526.56 660.222 528.149 660.737 525.501C661.252 522.854 656.619 487.912 663.31 481.029C666.668 477.576 662.87 486.404 662.281 499.03C661.696 511.568 664.336 527.888 663.31 529.207Z" fill="#7863A1"/>
<path d="M0 604.816C0 604.816 303.763 707.027 611.828 707.027C919.893 707.027 1200 604.816 1200 604.816V723.165H0V604.816Z" fill="white"/>
<path d="M455.696 371.618C456.926 372.087 458.15 372.222 458.844 372.183L458.001 373.026C456.358 373.001 455.696 371.618 455.696 371.618Z" fill="#271377"/>
<path d="M457.834 368.381C458.901 369.06 459.798 369.227 462.013 369.037C462.013 369.037 460.6 369.845 459.385 369.798C458.171 369.75 457.834 368.381 457.834 368.381Z" fill="#271377"/>
<path d="M816.258 345.618C812.803 346.412 808.484 350.782 808.484 350.782H819.281C822.304 350.782 827.918 354.358 830.941 354.358C833.964 354.358 832.237 351.974 830.078 349.193C827.918 346.412 819.713 344.823 816.258 345.618Z" fill="#271377"/>
<path d="M730.734 506.712L728.642 494.037L668.808 512.627L698.097 518.119L730.734 506.712Z" fill="#160851"/>
<path d="M486.469 511.601L488.724 497.477L553.212 518.192L521.644 524.312L486.469 511.601Z" fill="#160851"/>
<path opacity="0.8" d="M938.516 490.557C941.465 504.88 804.136 496.033 804.136 496.033L782.652 453.487C782.652 453.487 935.567 476.234 938.516 490.557Z" fill="#3C1C80"/>
<path d="M761.647 438.277L772.908 459.357L803.961 460.716L777.686 416.518L807.715 373.34H776.662L716.945 459.357L745.95 460.716L761.647 438.277Z" fill="#160851"/>
<path d="M807.292 372.917L841.225 386.49L845.891 389.883L832.318 409.818L796.264 389.459L807.292 372.917Z" fill="#6D549E"/>
<path d="M749.183 414.484L766.149 436.116L805.172 429.33L787.357 408.546H749.183V414.484Z" fill="#6D549E"/>
<path d="M783.965 467.927L797.962 494.225L836.561 495.922L803.901 440.781L841.227 386.913H802.628L728.4 494.225L764.454 495.922L783.965 467.927Z" fill="#160851"/>
<path d="M803.896 387.761H837.828L839.949 386.489H802.623L727.971 493.377H730.516L803.896 387.761Z" fill="#6D549E"/>
<path d="M777.646 373.946H805.152L806.871 372.916H776.614L716.101 459.444H718.164L777.646 373.946Z" fill="#6D549E"/>
<path d="M777.861 348.595C777.861 348.595 756.451 348.273 752.532 339.846C748.614 331.419 763.645 329.878 773.276 333.861C782.908 337.845 777.861 348.595 777.861 348.595Z" fill="#271377"/>
<path d="M733.638 405.252C738.54 399.641 769.354 397.459 769.354 397.459L785.461 412.733L769.354 428.941C769.354 428.941 749.745 418.966 746.944 420.837C744.143 422.708 745.543 463.23 745.543 463.23H735.039C735.039 463.23 728.736 410.862 733.638 405.252Z" fill="#271377"/>
<path d="M794.603 399.222L781.297 410.511C781.297 410.511 752.545 413.429 751.145 417.793C749.744 422.157 753.039 461.833 753.039 461.833L764.722 446.693C764.722 446.693 766.552 441.77 767.252 434.912C767.952 428.055 782.16 427.309 790.813 417.681C799.466 408.053 794.603 399.222 794.603 399.222Z" fill="#271377"/>
<path d="M772.894 369.921L776.396 368.674L785.5 395.481L774.956 409.976L764.452 406.235L772.894 369.921Z" fill="#271377"/>
<path d="M760.248 391.896C767.39 381.211 767.113 355.35 767.113 355.35L764.222 354.662C764.222 354.662 755.912 382.054 751.144 386.909C748.213 389.893 738.756 398.73 733.603 402.148C732.164 406.48 731.622 404.48 735.004 406.512C738.385 408.544 753.106 402.582 760.248 391.896Z" fill="#271377"/>
<path d="M753.985 339.8C753.985 339.8 750.877 339.398 752.277 345.633C739.957 345.176 738.607 340.895 742.01 338.321C745.412 335.746 767.771 339.771 768.562 341.498C769.352 343.224 753.985 339.8 753.985 339.8Z" fill="#271377"/>
<path d="M798.104 398.599C796.261 383.013 779.196 361.817 779.196 361.817L774.255 364.466C774.255 364.466 782.697 389.247 781.997 397.352C781.567 402.333 767.497 414.754 765.19 421.665C763.743 425.998 770.792 428.523 773.593 426.653C776.395 424.782 799.947 414.184 798.104 398.599Z" fill="#271377"/>
<path d="M765.611 341.185L752.355 338.249C752.355 338.249 753.706 334.834 757.208 332.853C760.709 330.871 769.113 330.982 765.611 332.229C762.11 333.476 765.611 341.185 765.611 341.185Z" fill="#403F8F"/>
<path d="M776.262 357.461C776.262 355.591 778.344 346.504 778.344 346.504L770.475 342.58L754.035 341.425C754.035 341.425 769.177 344.121 761.39 357.215C760.29 358.511 758.433 360.835 757.762 362.495C761.974 367.55 756.824 376.816 758.926 373.448C761.791 368.857 773.46 368.679 776.262 374.29C777.786 377.344 776.18 364.905 779.128 365.688C781.596 366.344 796.31 393.246 790.809 376.857C785.308 360.467 776.262 359.332 776.262 357.461Z" fill="#271377"/>
<path d="M736.122 406.306C740.263 402.626 755.279 401.851 755.279 401.851C755.279 401.851 739.243 399.872 734.419 404.165C729.595 408.458 732.36 447.859 733.389 447.859C734.419 447.859 731.98 409.986 736.122 406.306Z" fill="url(#paint36_linear)"/>
<path d="M754.669 384.401C758.052 381.184 761.901 373.145 761.901 373.145L761.767 367.972C761.767 367.972 756.138 379.164 752.693 383.111C749.248 387.058 735.432 399.488 736.122 400.714C736.811 401.941 751.286 387.618 754.669 384.401Z" fill="url(#paint37_linear)"/>
<path d="M755.254 349.734C755.34 350.234 753.211 356.834 753.342 357.311C753.764 358.856 756.12 357.548 756.956 358.448C759.323 360.998 759.298 362.496 761.901 361.653C764.503 360.811 765.293 359.28 765.97 356.469C766.447 354.49 768.08 352.879 767.599 350.113C767.174 347.668 768.127 346.931 766.228 346.224C756.862 344.709 752.273 345.187 755.254 349.734Z" fill="url(#paint38_linear)"/>
<path d="M743.565 341.723C740.363 345.573 751.562 347.029 751.935 345.848C753.238 341.723 767.963 344.838 768.363 344.438C768.764 344.038 746.767 337.873 743.565 341.723Z" fill="url(#paint39_linear)"/>
<path d="M760.784 399.145C757.942 396.665 762.358 397.866 762.676 391.141C762.854 387.385 761.215 380.248 761.73 376.818C762.179 373.829 760.745 368.974 761.767 367.972C763.15 367.129 763.623 368.904 766.462 368.393C769.301 367.883 770.081 364.181 771.621 363.759C773.161 363.338 774.149 373.87 770.721 385.243C767.293 396.617 771.907 394.648 775.095 394.343C778.284 394.038 771.995 399.145 767.791 400.166C763.586 401.187 763.625 401.624 760.784 399.145Z" fill="url(#paint40_linear)"/>
<path d="M752.589 418.378C756.731 414.698 770.721 414.31 771.667 412.204C772.614 410.097 755.34 411.89 750.516 416.183C745.692 420.477 749.915 464.067 751.983 464.067C754.051 464.067 748.448 422.058 752.589 418.378Z" fill="url(#paint41_linear)"/>
<path d="M784.917 396.196C785.261 393.439 785.982 388.731 784.55 381.873C783.115 375 779.527 368.506 778.837 367.278C777.459 364.825 775.648 364.937 775.648 366.665C775.648 368.393 782.767 387.38 782.078 395.353C781.654 400.254 761.73 406.306 764.882 408.458C764.882 408.458 784.228 401.716 784.917 396.196Z" fill="url(#paint42_linear)"/>
<path d="M771.917 345.193C770.574 345.283 769.684 346.728 769.684 346.728L770.081 352.873C770.081 352.873 770.594 353.856 771.621 353.787C772.648 353.718 773.757 350.955 773.888 348.522C774.019 346.09 773.26 345.102 771.917 345.193Z" fill="url(#paint43_linear)"/>
<path d="M756.927 358.704C755.853 359.242 757.77 361.653 758.612 360.81C759.455 359.968 761.378 359.469 762.825 359.125C764.707 358.678 766.195 360.896 767.037 357.44C767.252 356.561 769.565 351.543 767.459 351.543C764.089 357.019 758.002 358.166 756.927 358.704Z" fill="#271377"/>
<path d="M757.766 357.02C756.812 357.814 756.382 358.071 754.145 358.3C754.145 358.3 756.142 359.386 757.345 359.126C758.547 358.867 757.766 357.02 757.766 357.02Z" fill="#271377"/>
<path d="M805.356 390.188H839.898L842.426 387.239H803.321L741.368 476.124H743.431L805.356 390.188Z" fill="#6D549E"/>
<path d="M622.57 446.746L656.568 449.258" stroke="#160851" stroke-width="2"/>
<path d="M714.013 519.78C733.221 519.78 733.221 495.769 733.221 495.769C733.221 495.769 675.595 472.959 668.392 481.963C661.189 490.967 671.434 530.995 671.434 530.995C671.434 530.995 661.029 533.06 663.43 540.263C665.831 547.466 690.337 550.426 693.339 547.424C696.34 544.423 687.568 516.062 689.969 512.46C692.37 508.859 694.804 519.78 714.013 519.78Z" fill="#160851"/>
<path d="M706.807 432.14C729.018 432.645 733.219 496.369 733.219 496.369C733.219 496.369 677.034 481.362 678.594 479.562C693.001 451.95 684.597 431.635 706.807 432.14Z" fill="#160851"/>
<path d="M648.262 450.114C648.262 446.461 702.43 437.974 702.43 437.974L693.498 455.834C693.498 455.834 648.262 453.768 648.262 450.114Z" fill="#160851"/>
<path d="M680.756 425.092C677.885 415.245 685.334 404.599 685.334 404.599L690.1 403.778L700.919 433.766C700.919 433.766 689.514 443.376 693.658 433.444C693.658 428.632 683.626 434.94 680.756 425.092Z" fill="url(#paint44_linear)"/>
<path d="M694.179 436.636C694.179 436.636 649.29 448.01 648.777 449.274C648.264 450.537 649.75 449.695 652.055 449.695C654.36 449.695 691.875 442.534 691.875 442.534L694.179 436.636Z" fill="url(#paint45_linear)"/>
<path d="M680.753 484.089C682.234 488.865 678.179 484.974 676.583 482.318C674.988 479.663 691.691 437.273 693.658 433.444C693.774 433.218 703.415 433.266 697.096 438.321C694.569 439.585 679.54 480.181 680.753 484.089Z" fill="url(#paint46_linear)"/>
<path d="M716.063 419.293C716.063 434.108 723.637 432.423 723.637 432.423C723.637 432.423 722.373 469.072 688.324 453.486C694.149 447.167 693.728 439.163 696.255 432.845C698.783 426.526 689.96 424.699 690.009 422.663C690.058 420.628 691.691 420.507 692.464 417.619C693.237 414.731 691.622 413.467 690.009 414.017C688.396 414.568 686.407 417.619 685.207 417.619C684.006 417.619 683.406 406.214 685.207 403.813C687.008 401.412 687.608 396.009 699.613 397.21C711.619 398.41 716.063 404.479 716.063 419.293Z" fill="#160851"/>
<path d="M754.598 514.954L797.945 456.856L819.017 467.091L774.164 531.21L754.598 514.954Z" fill="#6D549E"/>
<path d="M807.884 551.378L790.725 498.699L778.082 502.311L790.725 542.95L807.884 551.378Z" fill="#160851"/>
<path d="M647.438 520.373L659.178 536.026V531.511L795.843 492.377L772.965 484.551L647.438 520.373Z" fill="#6D549E"/>
<path d="M803.663 514.052L665.492 557.098L670.61 577.869L810.587 532.715L803.663 514.052Z" fill="#6D549E"/>
<path d="M658.874 520.071L640.512 564.021L645.629 562.516L662.186 523.684L658.874 520.071Z" fill="#160851"/>
<path d="M628.469 549.572L640.51 564.021L659.173 520.072L660.679 502.01L650.143 492.076L628.469 549.572Z" fill="#6D549E"/>
<path d="M664.892 507.429L660.376 502.612L658.871 519.771L662.784 523.985L823.532 481.541L825.339 465.285L664.892 507.429Z" fill="#160851"/>
<path d="M656.466 490.571L650.445 492.077L664.594 506.827L825.342 465.285L805.474 456.856H797.948L812.698 464.382L666.701 501.107L656.466 490.571Z" fill="#6D549E"/>
<path d="M672.119 595.028L657.068 535.726L650.445 550.175L659.777 587.502L672.119 595.028Z" fill="#160851"/>
<path d="M676.633 592.619L662.184 534.521L657.066 535.424L672.118 594.726L676.633 592.619Z" fill="#6D549E"/>
<path d="M812.393 548.97L795.836 498.097L790.719 499L807.877 551.077L812.393 548.97Z" fill="#6D549E"/>
<path d="M795.841 492.076L659.477 531.21V536.327L797.648 498.097L795.841 492.076Z" fill="#160851"/>
<path d="M667.602 577.267L670.612 578.17L665.495 557.098L803.666 514.352H798.849L662.484 556.496L667.602 577.267Z" fill="#160851"/>
<path d="M612.886 446.392V444.286C612.886 444.286 609.938 443.865 609.938 445.129C609.938 446.392 612.886 446.392 612.886 446.392Z" fill="#7863A1"/>
<g opacity="0.5">
<path d="M860.307 576.913L816.496 547.847L809.335 550.499L822.394 560.906L701.494 607.665L691.384 603.452L679.589 593.342L706.128 640.522L860.307 576.913Z" fill="#3C1C80"/>
<path d="M687.171 631.255C672.278 629.57 628.047 550.374 628.047 550.374L640.684 564.027L646.582 561.748C646.582 561.748 650.788 567.622 658.215 577.756C659.015 578.847 658.802 585.449 659.641 586.602C660.853 588.268 666.37 590.801 667.645 592.5C682.438 612.211 695.933 632.246 687.171 631.255Z" fill="#3C1C80"/>
<path d="M730.981 684.333C714.552 684.333 668.276 593.342 668.276 593.342L679.504 595.87C679.504 595.87 747.411 684.333 730.981 684.333Z" fill="#3C1C80"/>
<path d="M908.329 605.98L860.307 576.071L847.248 580.829L855.673 588.287L720.45 646.841L710.34 635.889L706.97 640.101L733.931 686.018L908.329 605.98Z" fill="#3C1C80"/>
<path d="M787.851 637.152L754.993 615.247C754.993 615.247 695.869 570.594 716.51 563.433C737.152 556.272 811.862 592.5 811.862 592.5L867.046 647.684C867.046 647.684 891.479 662.428 882.211 671.695C872.944 680.963 836.295 657.794 836.295 657.794L787.851 637.152Z" fill="#3C1C80"/>
</g>
<path d="M623.213 442.077L622.256 450.821L613.312 450.257L614.198 441.032L623.213 442.077Z" fill="#7863A1"/>
<ellipse cx="613.755" cy="445.643" rx="4.63378" ry="1.68501" transform="rotate(95.4821 613.755 445.643)" fill="#7863A1"/>
<ellipse cx="622.646" cy="446.484" rx="4.41212" ry="1.35238" transform="rotate(95.4821 622.646 446.484)" fill="#160851"/>
<path opacity="0.8" d="M431.746 498.139C431.746 498.139 263.666 505.721 260.717 491.399C259.534 485.652 290.503 476.533 318.429 472.442C360.107 466.337 409.887 460.226 409.887 460.226L431.746 498.139Z" fill="#3C1C80"/>
<path d="M444.805 441.705L433.543 462.785L402.488 464.145L428.766 419.944L398.734 376.763H429.789L489.51 462.785L460.503 464.145L444.805 441.705Z" fill="#160851"/>
<path d="M399.16 376.339L365.225 389.913L360.559 393.306L374.133 413.243L410.189 392.882L399.16 376.339Z" fill="#6D549E"/>
<path d="M457.278 417.909L440.31 439.543L401.285 432.756L419.101 411.971H457.278V417.909Z" fill="#6D549E"/>
<path d="M402.552 391.185H368.617L366.496 389.913H403.825L478.482 496.808H475.936L402.552 391.185Z" fill="#6D549E"/>
<path d="M428.813 377.369H401.305L399.586 376.338H429.845L490.362 462.873H488.299L428.813 377.369Z" fill="#6D549E"/>
<path d="M410.923 405.655L423.835 412.451C423.835 412.451 451.737 427.573 453.096 432.33C454.455 437.087 450.34 485.849 450.34 485.849L436.068 487.888C436.068 487.888 438.145 452.038 437.465 444.563C436.785 437.087 409.563 432.84 406.845 426.043C404.127 419.247 410.923 405.655 410.923 405.655Z" fill="#271377"/>
<path d="M431.987 373.714L428.589 372.355L419.754 401.578L429.986 417.379L440.18 413.301L431.987 373.714Z" fill="#271377"/>
<path d="M444.976 392.028C438.046 380.379 437.6 357.829 437.6 357.829L440.406 357.079C440.406 357.079 450.472 382.012 455.099 387.305C457.942 390.558 483.399 383.579 488.399 387.305C489.796 392.028 484.391 392.263 481.11 394.479C477.828 396.694 451.907 403.676 444.976 392.028Z" fill="#271377"/>
<path d="M455.466 364.344C456.826 360.266 462.663 348.601 458.615 340.055C458.615 345.492 453.748 354.686 453.748 354.686C453.748 354.686 438.575 365.923 441.973 365.244C445.371 364.564 443.853 378.288 449.169 378.288C454.486 378.288 454.107 368.422 455.466 364.344Z" fill="#160851"/>
<path d="M470.088 412.228C465.33 406.112 442.903 408.544 442.903 408.544L419.797 420.383L435.428 438.053C435.428 438.053 454.457 427.179 457.175 429.218C459.894 431.257 458.534 475.431 458.534 475.431H468.729C468.729 475.431 474.845 418.345 470.088 412.228Z" fill="#271377"/>
<path d="M407.529 404.976C409.318 387.986 425.879 364.879 425.879 364.879L430.674 367.767C430.674 367.767 422.481 394.782 423.16 403.616C423.578 409.047 437.232 422.587 439.471 430.121C440.874 434.845 434.034 437.597 431.316 435.558C428.597 433.519 405.741 421.966 407.529 404.976Z" fill="#271377"/>
<path d="M467.367 414.947C463.283 410.869 437.465 411.941 436.785 409.223C436.106 406.505 467.361 406.792 472.118 411.549C476.875 416.306 471.439 454.364 469.399 454.364C467.36 454.364 471.452 419.024 467.367 414.947Z" fill="url(#paint47_linear)"/>
<path d="M450.376 386.116C447.04 382.551 439.751 361.607 439.751 361.607L442.878 361.29C442.878 361.29 449.638 378.45 454.265 383.743C457.109 386.996 488.398 385.988 488.398 387.085C488.398 388.182 453.713 389.681 450.376 386.116Z" fill="url(#paint48_linear)"/>
<path d="M457.638 351.34C457.079 354.947 462.666 359.845 457.638 359.845C455.919 359.845 457.217 362.374 455.019 363.444C452.68 364.582 454.569 368.841 446.156 366.015C440.963 365.211 432.2 358.705 433.349 351.287C434.497 343.868 441.51 341.093 450.315 339.151C459.968 340.054 460.812 346.065 457.638 351.34Z" fill="url(#paint49_linear)"/>
<path d="M444.902 410.412C446.261 408.374 447.62 377.791 445.581 374.393C443.542 370.995 430.63 363.52 430.63 369.636C430.63 375.752 429.271 387.306 428.591 390.704C427.912 394.102 426.59 405.145 426.59 405.145C426.59 405.145 430.668 414.66 434.066 414.66C437.464 414.66 443.542 412.451 444.902 410.412Z" fill="url(#paint50_linear)"/>
<path d="M449.718 432.711C445.634 428.634 431.347 419.417 430.668 416.699C429.988 413.98 447.005 425.522 451.763 430.28C456.52 435.037 455.156 479.604 453.116 479.604C451.077 479.604 453.802 436.789 449.718 432.711Z" fill="url(#paint51_linear)"/>
<path d="M417.719 403.616C417.039 397.5 422.475 375.073 423.834 372.354C425.193 369.636 428.592 370.316 427.912 371.675C427.232 373.034 422.472 394.781 423.152 403.616C423.57 409.046 442.878 427.174 439.463 430.121C439.463 430.121 418.398 409.733 417.719 403.616Z" fill="url(#paint52_linear)"/>
<path d="M444.22 377.112C444.22 370.996 437.502 357.056 442.976 345.503C446.561 337.937 434.382 344.135 427.947 354.176C424.555 359.468 421.812 366.635 421.812 368.277C421.813 373.035 434.026 373.714 435.385 377.112C436.744 380.51 434.705 392.064 436.744 392.064C438.783 392.064 444.22 383.229 444.22 377.112Z" fill="#271377"/>
<path d="M423.842 351.487C422.483 354.885 425.881 359.643 429.279 359.643C432.677 359.643 434.041 358.963 442.876 351.487C451.711 344.012 459.97 346.908 459.97 346.908C459.97 346.908 459.968 335.883 451.706 333.818C443.443 331.752 443.551 333.818 437.434 337.895C431.318 341.973 425.201 348.089 423.842 351.487Z" fill="#160851"/>
<path d="M485.609 389.084L548.05 377.139" stroke="#160851" stroke-width="2"/>
<path d="M422.482 471.441L408.581 497.661L370.247 499.352L402.684 444.376L365.613 390.669H403.947L477.667 497.661L441.86 499.352L422.482 471.441Z" fill="#160851"/>
<path d="M402.258 393.246H367.715L365.188 390.297H404.293L466.245 479.182H464.182L402.258 393.246Z" fill="#6D549E"/>
<path d="M550.756 370.824L552.823 380.39L543.185 382.944L540.871 372.895L550.756 370.824Z" fill="url(#paint53_linear)"/>
<path d="M543.185 382.944C542.176 383.176 540.84 381.115 540.201 378.34C539.562 375.565 539.862 373.127 540.871 372.895C541.88 372.663 543.216 374.724 543.855 377.499C544.494 380.273 544.194 382.711 543.185 382.944Z" fill="url(#paint54_linear)"/>
<ellipse cx="551.717" cy="375.675" rx="4.90921" ry="1.50475" transform="rotate(77.0328 551.717 375.675)" fill="#602C76"/>
<path d="M567.043 366.996L569.163 376.55L559.538 379.156L557.17 369.12L567.043 366.996Z" fill="url(#paint55_linear)"/>
<path d="M559.538 379.156C558.531 379.393 557.184 377.34 556.53 374.568C555.876 371.797 556.163 369.357 557.17 369.12C558.178 368.882 559.525 370.936 560.179 373.707C560.833 376.478 560.546 378.918 559.538 379.156Z" fill="url(#paint56_linear)"/>
<ellipse cx="568.03" cy="371.84" rx="4.90921" ry="1.50475" transform="rotate(76.7246 568.03 371.84)" fill="url(#paint57_linear)"/>
<path d="M552.235 375.128C551.698 375.261 551.371 375.803 551.504 376.339C551.637 376.875 552.179 377.202 552.715 377.07L552.235 375.128ZM556.253 376.194L557.223 375.953L556.743 374.012L555.772 374.252L556.253 376.194ZM552.715 377.07L556.253 376.194L555.772 374.252L552.235 375.128L552.715 377.07Z" fill="#160851"/>
<path d="M569.252 371.719L572.79 370.843" stroke="#160851" stroke-width="2" stroke-linecap="round"/>
<path d="M444.801 346.487C450.928 342.078 456.596 344.713 457.017 343.538C457.438 342.363 455.773 338.906 453.235 337.364C450.697 335.822 448.559 336.377 447.143 337.722C445.728 339.066 444.179 340.155 442.577 342.543C440.974 344.932 438.673 350.895 444.801 346.487Z" fill="#403F8F"/>
<g opacity="0.7">
<path d="M482.719 617.773L449.862 639.678L401.417 660.32C401.417 660.32 364.768 683.489 355.501 674.221C346.233 664.953 370.666 650.21 370.666 650.21L425.85 595.025C425.85 595.025 513.471 563.01 521.053 566.801C522.262 567.406 521.351 568.809 518.964 570.742C524.062 569.13 527.866 568.72 529.478 570.171C537.904 577.754 482.719 617.773 482.719 617.773Z" fill="#3C1C80"/>
<path d="M377.406 579.439L421.216 550.373L428.377 553.025L415.318 563.431L536.218 610.19L546.328 605.978L558.123 595.868L531.584 643.048L377.406 579.439Z" fill="#3C1C80"/>
<path d="M550.541 633.781C558.062 631.99 587.213 587.212 594.773 573.12C596.105 570.637 606.568 552.058 606.568 552.058L593.509 566.38L588.033 564.695C588.033 564.695 541.695 635.887 550.541 633.781Z" fill="#3C1C80"/>
<path d="M506.731 686.859C523.16 686.859 575.479 586.6 575.479 586.6L558.208 598.395C558.208 598.395 490.302 686.859 506.731 686.859Z" fill="#3C1C80"/>
<path d="M329.383 608.505L377.406 578.597L390.465 583.355L382.039 590.813L517.262 649.367L527.372 638.414L530.742 642.627L503.782 688.544L329.383 608.505Z" fill="#3C1C80"/>
</g>
<path d="M508.984 528.645C489.68 528.645 489.68 504.515 489.68 504.515C489.68 504.515 547.593 481.59 554.833 490.639C562.072 499.688 557.849 541.917 557.849 541.917C557.849 541.917 569.914 538.901 567.501 546.14C565.088 553.379 548.197 556.396 545.18 553.379C542.164 550.363 549.403 515.976 546.99 512.357C544.577 508.737 528.289 528.645 508.984 528.645Z" fill="#160851"/>
<path d="M516.224 440.567C493.903 441.074 489.68 505.117 489.68 505.117C489.68 505.117 546.146 490.035 544.577 488.225C530.099 460.476 538.545 440.06 516.224 440.567Z" fill="#160851"/>
<path d="M527.215 443.361C527.215 436.639 538.787 444.013 541.616 434.181C542.394 431.477 541.616 428.71 544.329 427.34C546.749 426.118 543.641 423.18 542.429 418.942C541.31 415.027 540.431 408.832 537.061 408.832C533.691 408.832 533.213 412.059 533.213 412.059L522.551 442C522.551 442 527.216 445.43 527.215 443.361Z" fill="url(#paint58_linear)"/>
<path d="M557.702 541.526C560.229 543.211 562.336 541.526 566.127 541.526C569.918 541.526 559.081 541.705 558.544 538.999C558.008 536.292 560.229 495.695 555.945 491.374C551.66 487.053 556.778 492.894 557.018 509.778C557.628 522.598 555.174 539.841 557.702 541.526Z" fill="url(#paint59_linear)"/>
<path d="M542.093 492.894C540.633 497.714 544.629 493.787 546.201 491.107C547.773 488.427 529.465 445.591 528.109 445.852C526.752 446.113 543.552 488.075 542.093 492.894Z" fill="url(#paint60_linear)"/>
<path d="M531.232 444.237C531.232 444.237 533.059 442.867 528.492 437.387C523.926 431.907 508.4 426.884 504.29 431.907C500.18 436.93 500.179 459.763 504.289 461.59C508.399 463.416 528.949 451.087 532.602 449.26C536.256 447.434 531.232 444.237 531.232 444.237Z" fill="#160851"/>
<path d="M511.57 433.005C512.173 440.848 516.484 442.821 516.484 442.821C516.484 442.821 520.594 449.457 520.594 442.821C520.594 436.185 533.891 434.585 532.684 432.775C531.477 430.965 530.874 428.782 530.874 426.972C530.874 425.163 530.874 423.353 532.684 423.353C534.494 423.353 534.001 426.972 535.208 426.972C536.414 426.972 539.32 415.51 537.51 413.097C536.408 411.628 540.58 404.619 537.51 403.092C535.54 402.112 527.749 405.99 523.032 406.461C510.966 407.668 510.966 425.163 511.57 433.005Z" fill="#160851"/>
<path d="M480.164 517.481L436.816 459.383L415.744 469.618L460.597 533.737L480.164 517.481Z" fill="#6D549E"/>
<path d="M426.878 553.906L444.037 501.227L456.68 504.839L444.037 545.477L426.878 553.906Z" fill="#160851"/>
<path d="M587.324 522.9L575.584 538.554V534.038L438.918 494.905L461.796 487.078L587.324 522.9Z" fill="#6D549E"/>
<path d="M431.099 516.58L569.27 559.626L564.152 580.397L424.175 535.243L431.099 516.58Z" fill="#6D549E"/>
<path d="M575.887 522.599L594.25 566.549L589.133 565.044L572.576 526.211L575.887 522.599Z" fill="#160851"/>
<path d="M606.293 552.1L594.252 566.549L575.588 522.599L574.083 504.537L584.619 494.604L606.293 552.1Z" fill="#6D549E"/>
<path d="M569.87 509.956L574.385 505.139L575.891 522.298L571.977 526.512L411.229 484.067L409.423 467.812L569.87 509.956Z" fill="#160851"/>
<path d="M578.296 493.099L584.316 494.604L570.168 509.354L409.42 467.813L429.288 459.384H436.814L422.063 466.909L568.061 503.635L578.296 493.099Z" fill="#6D549E"/>
<path d="M562.643 597.556L577.694 538.253L584.316 552.703L574.985 590.03L562.643 597.556Z" fill="#160851"/>
<path d="M558.129 595.146L572.578 537.048L577.695 537.951L562.644 597.254L558.129 595.146Z" fill="#6D549E"/>
<path d="M422.369 551.498L438.926 500.625L444.043 501.528L426.884 553.605L422.369 551.498Z" fill="#6D549E"/>
<path d="M438.92 494.604L575.285 533.737V538.854L437.114 500.624L438.92 494.604Z" fill="#160851"/>
<path d="M567.16 579.793L564.15 580.696L569.267 559.625L431.096 516.879H435.912L572.277 559.023L567.16 579.793Z" fill="#160851"/>
<path d="M339.118 504.061C336.364 503.533 333.013 505.148 333.013 505.148C333.013 505.148 308.301 509.108 311.843 512.187C315.386 515.267 343.638 507.185 343.638 507.185C343.638 507.185 341.873 504.59 339.118 504.061Z" fill="#3C1C80"/>
<path d="M339.816 507.657C337.033 507.315 334.311 504.745 334.311 504.745C334.311 504.745 337.239 495.274 341.24 495.543C345.241 495.813 345.043 506.067 345.043 506.067C345.043 506.067 342.598 508 339.816 507.657Z" fill="url(#paint61_linear)"/>
<path d="M0 513.991C0 513.991 233.482 673.213 606.193 673.213C978.903 673.213 1212.39 513.991 1212.39 513.991V581.33C1212.39 581.33 1003.27 707.339 606.193 707.339C209.111 707.339 0 581.33 0 581.33V513.991Z" fill="#160851"/>
</g>
<defs>
<filter id="filter0_d" x="474.477" y="353.429" width="275.615" height="170.113" filterUnits="userSpaceOnUse" color-interpolation-filters="sRGB">
<feFlood flood-opacity="0" result="BackgroundImageFix"/>
<feColorMatrix in="SourceAlpha" type="matrix" values="0 0 0 0 0 0 0 0 0 0 0 0 0 0 0 0 0 0 127 0"/>
<feOffset dy="-23"/>
<feGaussianBlur stdDeviation="37"/>
<feColorMatrix type="matrix" values="0 0 0 0 1 0 0 0 0 0.52549 0 0 0 0 0.247059 0 0 0 0.3 0"/>
<feBlend mode="normal" in2="BackgroundImageFix" result="effect1_dropShadow"/>
<feBlend mode="normal" in="SourceGraphic" in2="effect1_dropShadow" result="shape"/>
</filter>
<filter id="filter1_d" x="506.043" y="302.771" width="209.877" height="217.03" filterUnits="userSpaceOnUse" color-interpolation-filters="sRGB">
<feFlood flood-opacity="0" result="BackgroundImageFix"/>
<feColorMatrix in="SourceAlpha" type="matrix" values="0 0 0 0 0 0 0 0 0 0 0 0 0 0 0 0 0 0 127 0"/>
<feOffset dy="-23"/>
<feGaussianBlur stdDeviation="37"/>
<feColorMatrix type="matrix" values="0 0 0 0 1 0 0 0 0 0.52549 0 0 0 0 0.247059 0 0 0 0.3 0"/>
<feBlend mode="normal" in2="BackgroundImageFix" result="effect1_dropShadow"/>
<feBlend mode="normal" in="SourceGraphic" in2="effect1_dropShadow" result="shape"/>
</filter>
<linearGradient id="paint0_linear" x1="93.099" y1="168.473" x2="93.099" y2="259.009" gradientUnits="userSpaceOnUse">
<stop stop-color="#344B7C"/>
<stop offset="1" stop-color="#485F8F" stop-opacity="0.31"/>
</linearGradient>
<linearGradient id="paint1_linear" x1="841.668" y1="21.0306" x2="841.668" y2="71.0408" gradientUnits="userSpaceOnUse">
<stop stop-color="#344B7C"/>
<stop offset="1" stop-color="#485F8F" stop-opacity="0.31"/>
</linearGradient>
<linearGradient id="paint2_linear" x1="950.775" y1="246.842" x2="950.775" y2="292.636" gradientUnits="userSpaceOnUse">
<stop stop-color="#344B7C"/>
<stop offset="1" stop-color="#485F8F" stop-opacity="0.31"/>
</linearGradient>
<linearGradient id="paint3_linear" x1="666.425" y1="462.498" x2="679.292" y2="440.313" gradientUnits="userSpaceOnUse">
<stop stop-color="#FFCC5C"/>
<stop offset="0.447917" stop-color="#434A77"/>
<stop offset="1" stop-color="#092043"/>
</linearGradient>
<linearGradient id="paint4_linear" x1="669.389" y1="454.745" x2="685.124" y2="462.64" gradientUnits="userSpaceOnUse">
<stop stop-color="#FFCC5C"/>
<stop offset="0.447917" stop-color="#434A77"/>
<stop offset="1" stop-color="#092043"/>
</linearGradient>
<linearGradient id="paint5_linear" x1="638.25" y1="457.523" x2="646.754" y2="435.639" gradientUnits="userSpaceOnUse">
<stop stop-color="#FF863F"/>
<stop offset="0.447917" stop-color="#434A77"/>
<stop offset="1" stop-color="#092043"/>
</linearGradient>
<linearGradient id="paint6_linear" x1="576.273" y1="453.013" x2="572.502" y2="439.447" gradientUnits="userSpaceOnUse">
<stop stop-color="#FF863F"/>
<stop offset="0.447917" stop-color="#434A77"/>
<stop offset="1" stop-color="#092043"/>
</linearGradient>
<linearGradient id="paint7_linear" x1="599.447" y1="454.306" x2="604.358" y2="426.59" gradientUnits="userSpaceOnUse">
<stop stop-color="#FF863F"/>
<stop offset="0.447917" stop-color="#434A77"/>
<stop offset="1" stop-color="#092043"/>
</linearGradient>
<radialGradient id="paint8_radial" cx="0" cy="0" r="1" gradientUnits="userSpaceOnUse" gradientTransform="translate(558.581 455.601) rotate(-108.041) scale(19.0434 35.7721)">
<stop stop-color="#FF863F"/>
<stop offset="0.447917" stop-color="#434A77"/>
<stop offset="1" stop-color="#092043"/>
</radialGradient>
<linearGradient id="paint9_linear" x1="609.973" y1="442.667" x2="609.973" y2="490.952" gradientUnits="userSpaceOnUse">
<stop stop-color="#342547"/>
<stop offset="1" stop-color="#0F1B31"/>
</linearGradient>
<radialGradient id="paint10_radial" cx="0" cy="0" r="1" gradientUnits="userSpaceOnUse" gradientTransform="translate(607.84 461.638) rotate(-113.474) scale(8.46036 50.3562)">
<stop offset="0.0625" stop-color="#FFE7AE"/>
<stop offset="0.619792" stop-color="#FDCA5C"/>
<stop offset="1" stop-color="#FE863E"/>
</radialGradient>
<linearGradient id="paint11_linear" x1="839.495" y1="515.394" x2="846.822" y2="521.827" gradientUnits="userSpaceOnUse">
<stop stop-color="#9A7627"/>
<stop offset="0.447917" stop-color="#434A77"/>
<stop offset="1" stop-color="#092043"/>
</linearGradient>
<linearGradient id="paint12_linear" x1="498.504" y1="501.745" x2="495.111" y2="504.724" gradientUnits="userSpaceOnUse">
<stop stop-color="#FFCC5C"/>
<stop offset="0.447917" stop-color="#434A77"/>
<stop offset="1" stop-color="#092043"/>
</linearGradient>
<linearGradient id="paint13_linear" x1="548.033" y1="455.606" x2="532.298" y2="463.502" gradientUnits="userSpaceOnUse">
<stop stop-color="#FFCC5C"/>
<stop offset="0.447917" stop-color="#434A77"/>
<stop offset="1" stop-color="#092043"/>
</linearGradient>
<linearGradient id="paint14_linear" x1="293.905" y1="471.721" x2="290.499" y2="474.684" gradientUnits="userSpaceOnUse">
<stop stop-color="#9A7627"/>
<stop offset="0.447917" stop-color="#434A77"/>
<stop offset="1" stop-color="#092043"/>
</linearGradient>
<linearGradient id="paint15_linear" x1="611.9" y1="516.214" x2="613.139" y2="524.717" gradientUnits="userSpaceOnUse">
<stop stop-color="#7B5D1B"/>
<stop offset="0.447917" stop-color="#434A77"/>
<stop offset="1" stop-color="#092043"/>
</linearGradient>
<linearGradient id="paint16_linear" x1="949.583" y1="478.274" x2="952.989" y2="481.237" gradientUnits="userSpaceOnUse">
<stop stop-color="#9A7627"/>
<stop offset="0.447917" stop-color="#434A77"/>
<stop offset="1" stop-color="#092043"/>
</linearGradient>
<linearGradient id="paint17_linear" x1="555.213" y1="462.067" x2="539.478" y2="469.962" gradientUnits="userSpaceOnUse">
<stop stop-color="#FFCC5C"/>
<stop offset="0.447917" stop-color="#434A77"/>
<stop offset="1" stop-color="#092043"/>
</linearGradient>
<linearGradient id="paint18_linear" x1="567.429" y1="461.635" x2="558.755" y2="474.394" gradientUnits="userSpaceOnUse">
<stop stop-color="#FFCC5C"/>
<stop offset="0.447917" stop-color="#434A77"/>
<stop offset="1" stop-color="#092043"/>
</linearGradient>
<linearGradient id="paint19_linear" x1="675.711" y1="460.519" x2="687.072" y2="462.589" gradientUnits="userSpaceOnUse">
<stop stop-color="#FFCC5C"/>
<stop offset="0.447917" stop-color="#434A77"/>
<stop offset="1" stop-color="#092043"/>
</linearGradient>
<linearGradient id="paint20_linear" x1="651.254" y1="463.792" x2="666.402" y2="475.575" gradientUnits="userSpaceOnUse">
<stop stop-color="#FFCC5C"/>
<stop offset="0.447917" stop-color="#434A77"/>
<stop offset="1" stop-color="#092043"/>
</linearGradient>
<linearGradient id="paint21_linear" x1="42.3467" y1="-0.581657" x2="42.3467" y2="452.064" gradientUnits="userSpaceOnUse">
<stop stop-color="#00132D"/>
<stop offset="1" stop-color="#361184"/>
</linearGradient>
<linearGradient id="paint22_linear" x1="944.724" y1="8.36366" x2="944.724" y2="461.009" gradientUnits="userSpaceOnUse">
<stop stop-color="#00132D"/>
<stop offset="1" stop-color="#361184"/>
</linearGradient>
<linearGradient id="paint23_linear" x1="253.897" y1="7.67518" x2="253.897" y2="460.321" gradientUnits="userSpaceOnUse">
<stop stop-color="#00132D"/>
<stop offset="1" stop-color="#361184"/>
</linearGradient>
<linearGradient id="paint24_linear" x1="127.999" y1="387.835" x2="127.999" y2="452.532" gradientUnits="userSpaceOnUse">
<stop stop-color="#1F125F"/>
<stop offset="1" stop-color="#361184"/>
</linearGradient>
<linearGradient id="paint25_linear" x1="160.47" y1="381.492" x2="160.47" y2="391.135" gradientUnits="userSpaceOnUse">
<stop stop-color="#1F125F"/>
<stop offset="1" stop-color="#361184"/>
</linearGradient>
<linearGradient id="paint26_linear" x1="204.76" y1="430.558" x2="204.76" y2="438.024" gradientUnits="userSpaceOnUse">
<stop stop-color="#1F125F"/>
<stop offset="1" stop-color="#361184"/>
</linearGradient>
<linearGradient id="paint27_linear" x1="192.793" y1="426.778" x2="195.654" y2="435.007" gradientUnits="userSpaceOnUse">
<stop stop-color="#1F125F"/>
<stop offset="1" stop-color="#361184"/>
</linearGradient>
<linearGradient id="paint28_linear" x1="121.147" y1="-3.10777" x2="121.147" y2="450.688" gradientUnits="userSpaceOnUse">
<stop stop-color="#00132D"/>
<stop offset="1" stop-color="#361184"/>
</linearGradient>
<linearGradient id="paint29_linear" x1="185.78" y1="-3.33361" x2="185.78" y2="449.312" gradientUnits="userSpaceOnUse">
<stop stop-color="#00132D"/>
<stop offset="1" stop-color="#361184"/>
</linearGradient>
<linearGradient id="paint30_linear" x1="1119.5" y1="8.36366" x2="1119.5" y2="461.009" gradientUnits="userSpaceOnUse">
<stop stop-color="#00132D"/>
<stop offset="1" stop-color="#361184"/>
</linearGradient>
<linearGradient id="paint31_linear" x1="611.527" y1="49.8562" x2="612.791" y2="460.321" gradientUnits="userSpaceOnUse">
<stop stop-color="#FED16F" stop-opacity="0.05"/>
<stop offset="1" stop-color="#FF873F" stop-opacity="0.33"/>
</linearGradient>
<linearGradient id="paint32_linear" x1="610.983" y1="469.148" x2="608.236" y2="425.515" gradientUnits="userSpaceOnUse">
<stop offset="0.0625" stop-color="#FFE7AE"/>
<stop offset="0.307292" stop-color="#FDCA5C"/>
<stop offset="0.541667" stop-color="#FA9142"/>
<stop offset="0.984375" stop-color="#EC5440"/>
</linearGradient>
<linearGradient id="paint33_linear" x1="634.5" y1="461.911" x2="638.201" y2="476.98" gradientUnits="userSpaceOnUse">
<stop stop-color="#FFCC5C"/>
<stop offset="0.447917" stop-color="#434A77"/>
<stop offset="1" stop-color="#092043"/>
</linearGradient>
<linearGradient id="paint34_linear" x1="590.228" y1="457.126" x2="585.081" y2="474.972" gradientUnits="userSpaceOnUse">
<stop stop-color="#FFCC5C"/>
<stop offset="0.447917" stop-color="#434A77"/>
<stop offset="1" stop-color="#092043"/>
</linearGradient>
<linearGradient id="paint35_linear" x1="620.394" y1="456.881" x2="620.448" y2="476.133" gradientUnits="userSpaceOnUse">
<stop stop-color="#FFCC5C"/>
<stop offset="0.447917" stop-color="#434A77"/>
<stop offset="1" stop-color="#092043"/>
</linearGradient>
<linearGradient id="paint36_linear" x1="657.788" y1="452.243" x2="751.896" y2="335.217" gradientUnits="userSpaceOnUse">
<stop stop-color="#86651B"/>
<stop offset="1" stop-color="#7863A1"/>
</linearGradient>
<linearGradient id="paint37_linear" x1="657.788" y1="452.243" x2="751.896" y2="335.217" gradientUnits="userSpaceOnUse">
<stop stop-color="#86651B"/>
<stop offset="1" stop-color="#7863A1"/>
</linearGradient>
<linearGradient id="paint38_linear" x1="657.788" y1="452.243" x2="751.896" y2="335.217" gradientUnits="userSpaceOnUse">
<stop stop-color="#86651B"/>
<stop offset="1" stop-color="#7863A1"/>
</linearGradient>
<linearGradient id="paint39_linear" x1="657.788" y1="452.243" x2="751.896" y2="335.217" gradientUnits="userSpaceOnUse">
<stop stop-color="#86651B"/>
<stop offset="1" stop-color="#7863A1"/>
</linearGradient>
<linearGradient id="paint40_linear" x1="657.788" y1="452.243" x2="751.896" y2="335.217" gradientUnits="userSpaceOnUse">
<stop stop-color="#86651B"/>
<stop offset="1" stop-color="#7863A1"/>
</linearGradient>
<linearGradient id="paint41_linear" x1="657.788" y1="452.243" x2="751.896" y2="335.217" gradientUnits="userSpaceOnUse">
<stop stop-color="#86651B"/>
<stop offset="1" stop-color="#7863A1"/>
</linearGradient>
<linearGradient id="paint42_linear" x1="657.788" y1="452.243" x2="751.896" y2="335.217" gradientUnits="userSpaceOnUse">
<stop stop-color="#86651B"/>
<stop offset="1" stop-color="#7863A1"/>
</linearGradient>
<linearGradient id="paint43_linear" x1="657.788" y1="452.243" x2="751.896" y2="335.217" gradientUnits="userSpaceOnUse">
<stop stop-color="#86651B"/>
<stop offset="1" stop-color="#7863A1"/>
</linearGradient>
<linearGradient id="paint44_linear" x1="690.811" y1="408.412" x2="630.572" y2="463.175" gradientUnits="userSpaceOnUse">
<stop stop-color="#6C5795"/>
<stop offset="1" stop-color="#9E895A"/>
</linearGradient>
<linearGradient id="paint45_linear" x1="690.811" y1="408.412" x2="630.572" y2="463.175" gradientUnits="userSpaceOnUse">
<stop stop-color="#6C5795"/>
<stop offset="1" stop-color="#9E895A"/>
</linearGradient>
<linearGradient id="paint46_linear" x1="690.811" y1="408.412" x2="630.572" y2="463.175" gradientUnits="userSpaceOnUse">
<stop stop-color="#6C5795"/>
<stop offset="1" stop-color="#9E895A"/>
</linearGradient>
<linearGradient id="paint47_linear" x1="446.068" y1="325.002" x2="555.173" y2="447.165" gradientUnits="userSpaceOnUse">
<stop stop-color="#7E63B1"/>
<stop offset="1" stop-color="#846112"/>
</linearGradient>
<linearGradient id="paint48_linear" x1="446.068" y1="325.002" x2="555.173" y2="447.165" gradientUnits="userSpaceOnUse">
<stop stop-color="#7E63B1"/>
<stop offset="1" stop-color="#846112"/>
</linearGradient>
<linearGradient id="paint49_linear" x1="446.068" y1="325.002" x2="555.173" y2="447.165" gradientUnits="userSpaceOnUse">
<stop stop-color="#7E63B1"/>
<stop offset="1" stop-color="#846112"/>
</linearGradient>
<linearGradient id="paint50_linear" x1="446.068" y1="325.002" x2="555.173" y2="447.165" gradientUnits="userSpaceOnUse">
<stop stop-color="#7E63B1"/>
<stop offset="1" stop-color="#846112"/>
</linearGradient>
<linearGradient id="paint51_linear" x1="446.068" y1="325.002" x2="555.173" y2="447.165" gradientUnits="userSpaceOnUse">
<stop stop-color="#7E63B1"/>
<stop offset="1" stop-color="#846112"/>
</linearGradient>
<linearGradient id="paint52_linear" x1="446.068" y1="325.002" x2="555.173" y2="447.165" gradientUnits="userSpaceOnUse">
<stop stop-color="#7E63B1"/>
<stop offset="1" stop-color="#846112"/>
</linearGradient>
<linearGradient id="paint53_linear" x1="566.128" y1="392.135" x2="549.664" y2="369.519" gradientUnits="userSpaceOnUse">
<stop stop-color="#FFB20B"/>
<stop offset="1" stop-color="#351D98"/>
</linearGradient>
<linearGradient id="paint54_linear" x1="566.128" y1="392.135" x2="549.664" y2="369.519" gradientUnits="userSpaceOnUse">
<stop stop-color="#FFB20B"/>
<stop offset="1" stop-color="#351D98"/>
</linearGradient>
<linearGradient id="paint55_linear" x1="582.53" y1="388.223" x2="565.944" y2="365.696" gradientUnits="userSpaceOnUse">
<stop stop-color="#FFB20B"/>
<stop offset="1" stop-color="#351D98"/>
</linearGradient>
<linearGradient id="paint56_linear" x1="582.53" y1="388.223" x2="565.944" y2="365.696" gradientUnits="userSpaceOnUse">
<stop stop-color="#FFB20B"/>
<stop offset="1" stop-color="#351D98"/>
</linearGradient>
<linearGradient id="paint57_linear" x1="571.739" y1="371.112" x2="563.338" y2="372.019" gradientUnits="userSpaceOnUse">
<stop stop-color="#602C76"/>
<stop offset="1" stop-color="#5B2A73"/>
</linearGradient>
<linearGradient id="paint58_linear" x1="517.683" y1="418.942" x2="586.347" y2="461.067" gradientUnits="userSpaceOnUse">
<stop stop-color="#7863A1"/>
<stop offset="1" stop-color="#B79B5C" stop-opacity="0.98"/>
</linearGradient>
<linearGradient id="paint59_linear" x1="517.683" y1="418.942" x2="586.347" y2="461.067" gradientUnits="userSpaceOnUse">
<stop stop-color="#7863A1"/>
<stop offset="1" stop-color="#B79B5C" stop-opacity="0.98"/>
</linearGradient>
<linearGradient id="paint60_linear" x1="517.683" y1="418.942" x2="586.347" y2="461.067" gradientUnits="userSpaceOnUse">
<stop stop-color="#7863A1"/>
<stop offset="1" stop-color="#B79B5C" stop-opacity="0.98"/>
</linearGradient>
<linearGradient id="paint61_linear" x1="344.031" y1="499.239" x2="338.114" y2="503.023" gradientUnits="userSpaceOnUse">
<stop stop-color="#9A7627"/>
<stop offset="0.447917" stop-color="#434A77"/>
<stop offset="1" stop-color="#092043"/>
</linearGradient>
</defs>
</svg>
