<svg id="Layer_1" data-name="Layer 1" xmlns="http://www.w3.org/2000/svg" viewBox="0 0 24 24"><defs><style>.cls-1{fill:none;stroke:#000;stroke-linecap:round;stroke-linejoin:round;}</style></defs><title>hand-raised</title><path class="cls-1" d="M17.147,21.542a5.619,5.619,0,0,1-.867-2.891c.186-2.506,6.513-7.408,4.65-8.433-.8-.44-2.917-.711-5.055,3.271"></path><path class="cls-1" d="M15.606,10.859c.219-6.441-1.207-9.372-2.636-8.467-1.511.957-.33,8.15-.33,8.15C11.286,4.113,9.271,1.6,8.142,2.8c-1.258,1.335,1.8,9.039,1.8,9.039-2.428-5.24-4.693-6.76-5.55-5.4-.954,1.513,3.311,7.4,3.311,7.4-1.947-2.1-4.2-3.15-4.837-2.074-1.288,2.17,7.11,5.98,7.969,10.008"></path></svg>