<svg width="68" height="68" viewBox="0 0 68 68" fill="none" xmlns="http://www.w3.org/2000/svg">
<circle cx="34" cy="34" r="34" fill="#F0FBF7"/>
<path d="M29.8328 16C27.8998 16 26.3331 17.5703 26.3331 19.5067C26.3326 19.9668 26.4228 20.4224 26.5984 20.8476C26.774 21.2728 27.0317 21.6593 27.3567 21.9849C27.6816 22.3105 28.0676 22.5689 28.4924 22.7454C28.9173 22.9219 29.3727 23.013 29.8328 23.0134H33.333V19.5067C33.3338 18.5776 32.9655 17.6861 32.3091 17.0285C31.6527 16.3709 30.7619 16.0009 29.8328 16V16ZM29.8328 25.3512H20.4997C18.5667 25.3512 17 26.9215 17 28.8585C17 30.795 18.5667 32.3653 20.4997 32.3653H29.8333C31.7657 32.3653 33.333 30.795 33.333 28.8585C33.333 26.9215 31.7657 25.3512 29.8328 25.3512" fill="#46D39A"/>
<path d="M52.001 28.8585C52.001 26.9215 50.4337 25.3512 48.5007 25.3512C46.5678 25.3512 45.001 26.9215 45.001 28.8585V32.3653H48.5007C49.4299 32.3643 50.3206 31.9944 50.977 31.3367C51.6335 30.6791 52.0018 29.7877 52.001 28.8585V28.8585ZM42.6679 28.8585V19.5067C42.6687 18.5776 42.3004 17.6861 41.644 17.0285C40.9876 16.3709 40.0968 16.0009 39.1677 16C37.2347 16 35.668 17.5703 35.668 19.5067V28.858C35.668 30.7956 37.2347 32.3658 39.1677 32.3658C40.0968 32.3649 40.9876 31.995 41.644 31.3373C42.3004 30.6797 42.6687 29.7883 42.6679 28.8591" fill="#46D39A"/>
<path d="M39.1677 51.0684C40.0968 51.0675 40.9876 50.6975 41.644 50.0399C42.3004 49.3823 42.6687 48.4908 42.6679 47.5617C42.6687 46.6325 42.3004 45.7411 41.644 45.0835C40.9876 44.4258 40.0968 44.0559 39.1677 44.055H35.668V47.5617C35.668 49.4981 37.2347 51.0684 39.1677 51.0684ZM39.1677 41.7171H48.5013C50.4337 41.7171 52.001 40.1469 52.001 38.2098C52.0018 37.2807 51.6335 36.3893 50.977 35.7316C50.3206 35.074 49.4299 34.7041 48.5007 34.7031H39.1677C37.2347 34.7031 35.668 36.2734 35.668 38.2098C35.6675 38.6699 35.7577 39.1255 35.9333 39.5507C36.1089 39.9759 36.3666 40.3624 36.6915 40.688C37.0165 41.0136 37.4025 41.2721 37.8273 41.4485C38.2522 41.625 38.7076 41.7161 39.1677 41.7166" fill="#46D39A"/>
<path d="M17 38.2098C16.9995 38.6699 17.0897 39.1255 17.2653 39.5507C17.4409 39.9759 17.6986 40.3624 18.0236 40.688C18.3486 41.0136 18.7345 41.2721 19.1593 41.4485C19.5842 41.625 20.0396 41.7161 20.4997 41.7166C21.4288 41.7156 22.3196 41.3457 22.976 40.688C23.6324 40.0304 24.0007 39.139 24 38.2098V34.7031H20.4997C18.5667 34.7031 17 36.2734 17 38.2098V38.2098ZM26.3331 38.2098V47.5611C26.3331 49.4981 27.8998 51.0684 29.8328 51.0684C30.7619 51.0675 31.6527 50.6975 32.3091 50.0399C32.9655 49.3823 33.3338 48.4908 33.333 47.5617V38.2098C33.3335 37.7497 33.2433 37.2941 33.0677 36.8688C32.892 36.4436 32.6343 36.0571 32.3093 35.7315C31.9842 35.4058 31.5982 35.1474 31.1733 34.971C30.7484 34.7945 30.2929 34.7035 29.8328 34.7031C27.8998 34.7031 26.3331 36.2734 26.3331 38.2098Z" fill="#46D39A"/>
</svg>
