<svg width="72" height="72" viewBox="0 0 72 72" fill="none" xmlns="http://www.w3.org/2000/svg">
<path d="M36 72C55.8823 72 72 55.8823 72 36C72 16.1177 55.8823 0 36 0C16.1177 0 0 16.1177 0 36C0 55.8823 16.1177 72 36 72Z" fill="#FEF1F2"/>
<path d="M50.0023 50.56C51.953 48.1517 51.9049 44.2672 50.7942 43.2033C49.5971 42.0697 48.1102 41.2888 46.4974 40.9465C45.9616 40.8295 45.4153 40.7664 44.8669 40.7581V36.6115C44.8538 36.1489 44.6608 35.7095 44.329 35.3869C43.9971 35.0643 43.5525 34.8838 43.0897 34.8838C42.6268 34.8838 42.1822 35.0643 41.8503 35.3869C41.5185 35.7095 41.3255 36.1489 41.3124 36.6115V45.8609C41.3128 46.0137 41.2749 46.1642 41.2023 46.2986C41.1297 46.433 41.0246 46.5471 40.8967 46.6306C40.7687 46.7141 40.6219 46.7643 40.4696 46.7766C40.3173 46.7889 40.1644 46.7629 40.0247 46.701C38.4366 45.9927 37.707 45.4614 36.7508 46.0834C36.5199 46.2429 36.3298 46.4547 36.1961 46.7014C36.0624 46.9482 35.9887 47.2231 35.9811 47.5036C35.9735 47.7842 36.0322 48.0626 36.1524 48.3163C36.2726 48.5699 36.4509 48.7916 36.6729 48.9634C38.3926 50.1769 40.2725 51.1457 42.2588 51.8421" stroke="#F5808B" stroke-width="2" stroke-linecap="round" stroke-linejoin="round"/>
<path d="M36.0013 28.8966V43.297C29.5923 38.6348 22.543 43.297 22.543 43.297V26.144C22.543 26.144 29.5923 21.4804 36.0013 26.144" stroke="#F5808B" stroke-width="2" stroke-linecap="round" stroke-linejoin="round"/>
<path d="M38.958 41.9326C37.9215 42.2687 36.9285 42.7267 36 43.2969" stroke="#F5808B" stroke-width="2" stroke-linecap="round" stroke-linejoin="round"/>
<path d="M49.4583 39.3629V26.144C43.0493 21.4804 36 26.144 36 26.144" stroke="#F5808B" stroke-width="2" stroke-linecap="round" stroke-linejoin="round"/>
</svg>
