<svg id="Layer_1" data-name="Layer 1" xmlns="http://www.w3.org/2000/svg" viewBox="0 0 24 24"><defs><style>.cls-1{fill:none;stroke:#000;stroke-linecap:round;stroke-linejoin:round;}</style></defs><title>reading</title><path class="cls-1" d="M21.884,20.866c1.377-1.7,1.343-4.442.559-5.193A6.319,6.319,0,0,0,19.41,14.08a5.806,5.806,0,0,0-1.151-.133V11.02a1.255,1.255,0,0,0-2.509,0v6.529a.647.647,0,0,1-.909.593c-1.121-.5-1.636-.875-2.311-.436a1.26,1.26,0,0,0-.055,2.033,16.049,16.049,0,0,0,3.943,2.032"></path><path class="cls-1" d="M12,5.574V15.739c-4.524-3.291-9.5,0-9.5,0V3.631s4.976-3.292,9.5,0"></path><path class="cls-1" d="M14.088,14.776A9.718,9.718,0,0,0,12,15.739"></path><path class="cls-1" d="M21.5,12.962V3.631c-4.524-3.292-9.5,0-9.5,0"></path></svg>