<svg width="72" height="72" viewBox="0 0 72 72" fill="none" xmlns="http://www.w3.org/2000/svg">
<circle cx="36" cy="36" r="36" fill="#FFF7F2"/>
<path d="M45.0072 52.6984C44.0496 51.1819 43.5249 49.4324 43.49 47.6392C43.8155 43.2537 54.8878 34.6752 51.6275 32.8814C50.2275 32.1114 46.5228 31.6372 42.7812 38.6057" stroke="#F9B789" stroke-width="2" stroke-linecap="round" stroke-linejoin="round"/>
<path d="M42.3108 34.0032C42.694 22.7315 40.1985 17.6022 37.6978 19.186C35.0535 20.8607 37.1203 33.4485 37.1203 33.4485C34.7508 22.1977 31.2245 17.8 29.2488 19.9C27.0473 22.2362 32.3988 35.7182 32.3988 35.7182C28.1498 26.5482 24.186 23.8882 22.6863 26.2682C21.0168 28.916 28.4805 39.2182 28.4805 39.2182C25.0733 35.5432 21.1305 33.7057 20.0158 35.5887C17.7618 39.3862 32.4583 46.0537 33.9615 53.1027" stroke="#F9B789" stroke-width="2" stroke-linecap="round" stroke-linejoin="round"/>
</svg>
