<svg width="72" height="72" viewBox="0 0 72 72" fill="none" xmlns="http://www.w3.org/2000/svg">
<circle cx="36" cy="36" r="36" fill="#EBFBFF"/>
<path fill-rule="evenodd" clip-rule="evenodd" d="M42.5013 49.0832C47.794 49.0832 52.0846 44.7926 52.0846 39.4998C52.0846 34.2071 47.794 29.9165 42.5013 29.9165C37.2086 29.9165 32.918 34.2071 32.918 39.4998C32.918 44.7926 37.2086 49.0832 42.5013 49.0832ZM43.4013 34.229C43.4013 33.7319 42.9984 33.329 42.5013 33.329C42.0042 33.329 41.6013 33.7319 41.6013 34.229V39.4998C41.6013 39.7385 41.6961 39.9675 41.8649 40.1362L44.7399 43.0112C45.0914 43.3627 45.6612 43.3627 46.0127 43.0112C46.3642 42.6598 46.3642 42.0899 46.0127 41.7384L43.4013 39.127V34.229Z" fill="#55DFFB"/>
<rect x="20" y="28" width="18" height="13" rx="3" fill="white"/>
<path fill-rule="evenodd" clip-rule="evenodd" d="M24.5016 21.8501C24.9986 21.8501 25.4016 22.253 25.4016 22.7501V24.1001H32.6016V22.7501C32.6016 22.253 33.0045 21.8501 33.5016 21.8501C33.9986 21.8501 34.4016 22.253 34.4016 22.7501V24.1001H35.0016C37.1555 24.1001 38.9016 25.8462 38.9016 28.0001V38.0001C38.9016 40.154 37.1555 41.9001 35.0016 41.9001H23.0016C20.8477 41.9001 19.1016 40.154 19.1016 38.0001V28.0001C19.1016 25.8462 20.8477 24.1001 23.0016 24.1001H23.6016V22.7501C23.6016 22.253 24.0045 21.8501 24.5016 21.8501ZM20.9016 28.9001H37.1016V38.0001C37.1016 39.1599 36.1614 40.1001 35.0016 40.1001H23.0016C21.8418 40.1001 20.9016 39.1599 20.9016 38.0001V28.9001ZM24.4775 33.0929H23.1104C23.1104 31.7208 24.1846 30.7735 25.7275 30.7735C27.2217 30.7735 28.1787 31.6378 28.1787 32.8243C28.1787 33.6495 27.8174 34.2159 26.6455 35.3292L25.1807 36.7257V36.8136H28.2764V38.0001H23.1934V37.0089L25.6641 34.6212C26.543 33.7667 26.7334 33.4444 26.7334 32.9562C26.7334 32.38 26.333 31.921 25.6445 31.921C24.9268 31.921 24.4775 32.4044 24.4775 33.0929ZM34.048 38.0001H32.6418V36.7062H29.1945V35.5489C30.0832 33.962 31.0402 32.3995 31.9826 30.9542H34.048V35.5245H34.9709V36.7062H34.048V38.0001ZM32.5979 32.0724C31.9094 33.1222 31.1574 34.3478 30.5178 35.4854V35.5636H32.676V32.0724H32.5979Z" fill="#55DFFB"/>
</svg>
