<svg width="24" height="24" viewBox="0 0 24 24" fill="none" xmlns="http://www.w3.org/2000/svg">
<path d="M8.32488 7.83082C8.04488 7.83082 7.81154 7.74682 7.62488 7.57882C7.44754 7.40149 7.35888 7.18215 7.35888 6.92082C7.35888 6.65949 7.44754 6.44482 7.62488 6.27682C7.81154 6.09949 8.04488 6.01082 8.32488 6.01082C8.60488 6.01082 8.83354 6.09949 9.01088 6.27682C9.19754 6.44482 9.29088 6.65949 9.29088 6.92082C9.29088 7.18215 9.19754 7.40149 9.01088 7.57882C8.83354 7.74682 8.60488 7.83082 8.32488 7.83082ZM7.58288 16.0908V9.14682H9.06688V16.0908H7.58288ZM10.7459 16.0908V9.14682H12.0619L12.1739 10.3648C12.3886 9.93549 12.7012 9.59949 13.1119 9.35682C13.5319 9.10482 14.0126 8.97882 14.5539 8.97882C15.3939 8.97882 16.0519 9.24015 16.5279 9.76282C17.0132 10.2855 17.2559 11.0648 17.2559 12.1008V16.0908H15.7859V12.2548C15.7859 10.9108 15.2352 10.2388 14.1339 10.2388C13.5832 10.2388 13.1259 10.4348 12.7619 10.8268C12.4072 11.2188 12.2299 11.7788 12.2299 12.5068V16.0908H10.7459Z" fill="#7B88A8"/>
<circle cx="12" cy="12" r="11.5" stroke="#7B88A8"/>
</svg>
