<svg width="1024" height="768" viewBox="0 0 1024 768" fill="none" xmlns="http://www.w3.org/2000/svg">
<path fill-rule="evenodd" clip-rule="evenodd" d="M632.199 382.002L632.353 382.02C634.588 382.453 638.292 388.846 639.809 390.663C644.699 396.524 649.59 402.384 654.481 408.244C656.439 410.59 659.262 413.053 660.656 415.767C661.729 417.856 662.097 420.735 662.737 422.973C670.69 450.776 678.469 478.758 684.262 507.103C685.509 513.204 686.692 519.347 687.385 525.54C687.727 528.601 688.626 533.1 687.293 536.058C685.79 539.392 680.954 540.778 677.812 541.811C671.699 543.823 665.3 545.021 658.968 546.096C643.711 548.685 628.263 550.19 612.843 551.407C608.133 551.778 603.284 551.772 598.603 552.405C596.367 552.707 597.038 552.107 596.333 553.608C595.352 555.697 596.002 560.054 595.886 562.331C595.612 567.686 595.338 573.04 595.063 578.396L592.819 622.216C592.061 637.024 591.303 651.833 590.544 666.642C590.257 672.253 589.969 677.864 589.683 683.476C589.529 686.475 589.986 690.347 589.182 693.251C588.573 695.447 589.574 694.8 586.881 694.93C580.645 695.231 574.184 694.476 567.946 694.253C560.871 694 553.796 693.747 546.719 693.494C544.699 693.421 542.441 693.995 541.626 692.546C540.635 690.782 541.39 685.931 541.32 683.961C541.124 678.472 540.927 672.981 540.731 667.492C540.192 652.422 539.653 637.352 539.114 622.283C538.379 601.731 537.643 581.178 536.907 560.624C529.04 562.208 521.171 563.792 513.303 565.375C501.677 567.715 490.05 570.055 478.423 572.394C473.091 573.467 466.758 575.916 461.252 575.126C455.782 574.341 453.522 572.005 453.215 566.814C452.885 561.249 453.013 555.64 453.088 550.07C453.211 540.96 453.472 531.851 453.817 522.746C469.351 521.347 484.886 519.947 500.42 518.548C508.692 517.802 516.964 517.058 525.235 516.312C527.112 516.144 531.74 516.506 532.578 515.091C533.881 512.891 532.431 505.658 532.391 503.17L532.021 479.648L530.663 393.102C534.382 393.224 538.102 393.335 541.821 393.439C558.002 393.896 574.263 394.558 590.449 394.06C598.566 393.811 606.257 391.621 613.919 389.037C617.994 387.664 622.027 386.168 626.028 384.595C627.288 384.1 630.994 381.758 632.353 382.02L632.199 382.002ZM610.414 462.536L602.147 502.967L630.435 501.093L610.414 462.536Z" fill="#86A8FF"/>
<path fill-rule="evenodd" clip-rule="evenodd" d="M846.689 134.63C846.111 139.127 846.522 144.03 841.445 145.216C836.747 146.314 831.592 146.006 826.802 146.39C821.419 146.823 816.052 147.413 810.681 147.946C803.908 148.617 804.874 146.014 803.394 140.23C802.04 134.948 799.881 129.677 798.085 124.526C797.25 122.132 796.254 119.929 795.115 117.673C794.084 115.63 794.575 112.852 793.463 111.135C789.672 105.278 771.18 121.295 769.462 118.138C772.591 115.702 778.006 112.976 778.966 108.808C780.095 103.909 776.982 102.446 773.07 104.237C763.444 108.647 752.336 112.093 741.838 113.7C745.233 111.431 775.94 93.5439 765.635 88.2381C763.312 87.0424 760.21 89.2933 758.115 90.1447C754.791 91.4968 751.319 92.4031 747.848 93.2889C744.192 94.2222 740.526 95.1201 736.849 95.9688C734.27 96.5643 729.673 98.6793 727.16 98.1573C724.609 97.6269 729.128 96.0432 729.868 95.6701C733.095 94.0445 736.269 92.2979 739.418 90.529C745.007 87.3905 750.168 83.755 754.419 78.9024C757.626 75.2409 762.921 67.2451 760.689 62.1822C759.395 59.2474 756.559 56.535 754.893 53.7547C752.948 50.5072 751.378 47.0458 749.689 43.6624C752.516 44.9056 755.69 45.2238 758.576 46.3395C761.462 47.4561 764.393 48.3596 767.395 49.1896C773.418 50.8543 779.424 51.1502 785.393 52.5004C792.149 54.0282 799.19 55.7366 806.054 56.6197C812.031 57.3874 817.406 59.0232 822.527 62.2818C832.985 68.9386 840.239 78.5014 843.909 90.3271C846.059 97.2547 846.582 104.483 846.835 111.691C847.102 119.29 847.662 127.064 846.689 134.63ZM787.997 135.189C780.694 140.513 772.18 144.673 764.343 149.202C759.858 151.792 755.279 154.214 750.704 156.642C747.458 158.365 743.514 161.537 739.941 162.421C737.681 162.98 737.849 163.023 736.419 160.962C735.052 158.994 733.858 156.875 732.578 154.848C730.219 151.111 727.837 147.388 725.456 143.665C720.117 135.32 714.788 126.976 709.178 118.808C703.55 110.612 698.151 102.265 692.699 93.9533C690.165 90.0889 687.647 86.2096 684.958 82.4514C682.904 79.5817 677.64 75.2046 680.14 71.8259C682.462 68.6874 687.752 66.0801 690.881 63.7045C694.704 60.8042 698.55 57.9336 702.363 55.0183C710.561 48.7514 718.543 42.2118 726.733 35.9365C733.683 48.127 741.859 59.5554 750.107 70.8889C742.649 75.6484 735.114 80.1726 727.255 84.2472C721.45 87.2565 712.57 91.3228 708.903 97.0314C705.291 102.653 708.839 109.138 715.277 109.241C719.127 109.303 722.965 108.283 726.74 107.701C729.465 107.28 734.44 105.316 736.897 106.7C732.481 109.518 716.46 117.729 725.096 124.929C731.27 130.075 741.706 122.565 748.374 124.111C746.342 128.012 744.229 134.234 749.871 136.355C754.566 138.121 760.711 134.83 764.936 133.085C767.99 131.824 771.023 130.52 774.026 129.144C776.413 128.049 779.272 125.83 781.823 125.358C784.799 124.806 790.859 133.101 787.997 135.189ZM652.235 422.688C656.414 421.926 658.559 420.198 659.875 425.272C661.054 429.816 662.222 434.193 663.741 438.653C657.214 439.217 651.457 442.333 646.698 446.717C643.308 449.84 636.568 457.296 638.239 462.526C642.299 475.237 662.804 446.722 665.24 443.675C668.223 448.034 669.32 453.742 670.803 458.728C671.858 462.276 675.774 469.078 670.597 469.94C663.33 471.152 649.695 473.858 650.556 484.151C651.575 496.3 667.03 496.232 675.701 496.778C680.59 497.085 680.612 501.002 681.308 505.386C681.62 507.346 682.592 509.996 680.928 511.431C679.45 512.705 674.923 512.741 672.999 513.153C667.391 514.357 661.787 515.584 656.179 516.787C649.814 518.153 646.448 516.24 640.497 514.496C638.293 513.851 636.08 514.123 635.918 511.657C635.819 510.143 637.3 507.802 637.785 506.305C639.706 500.382 641.341 494.284 641.893 488.064C642.696 479.026 641.693 465.475 630.564 463.711C625.27 462.872 624.251 462.599 621.862 457.63C619.276 452.257 615.172 447.281 616.164 441.091C616.882 436.606 615.671 428.119 618.533 424.399C619.857 422.679 622.437 421.653 624.197 420.391C626.441 418.781 628.602 417.058 630.693 415.256C632.452 413.741 634.597 410.779 636.591 409.685C639.027 408.347 639.102 409.259 640.852 411.348C643.434 414.434 647.54 423.545 652.235 422.688ZM664.045 442.768C662.597 445.69 659.251 448.408 657.119 450.847C654.975 453.301 652.946 455.894 650.555 458.118C647.923 460.566 638.574 466.479 640.634 458.52C642.236 452.33 648.234 447.316 653.512 444.227C654.534 443.628 666.496 437.823 664.045 442.768ZM674.272 472.239C675.199 476.382 675.698 480.653 676.489 484.826C676.895 486.96 679.139 492.114 678.224 494.166C676.674 497.644 662.727 493.527 659.835 492.33C652.953 489.481 649.793 482.167 656.14 476.958C658.547 474.985 673.345 468.097 674.272 472.239ZM683.416 522.002C684.193 525.957 686.466 529.625 682.709 532.615C679.589 535.098 674.478 536.792 670.634 537.676C665.395 538.88 663.71 535.944 660.937 532.168C657.955 528.108 654.781 524.185 651.487 520.373C661.83 518.057 672.173 515.741 682.517 513.426C682.511 516.308 682.86 519.178 683.416 522.002ZM658.633 540.36C653.239 540.081 647.435 541.704 641.965 542.131C635.133 542.665 628.32 543.441 621.483 543.899C623.234 538.31 626.381 533.325 628.842 528.045C631.311 522.747 633.045 522.174 638.726 521.766C643.99 521.387 647.702 519.575 651.587 524.041C655.629 528.685 659.289 533.732 662.979 538.655C661.723 539.495 660.223 540.443 658.633 540.36ZM620.076 541.501C618.745 542.47 614.641 539.714 613.258 539.18C610.567 538.14 609.971 537.806 608.566 535.181C607.36 532.925 605.441 530.361 605.063 527.785C604.564 524.39 606.066 519.92 606.614 516.547C608.07 520.059 612.851 520.466 616.081 521.041C618.524 521.476 625.763 520.783 627.605 522.523C629.64 524.445 625.893 529.806 624.917 531.825C623.752 534.235 622.313 539.871 620.076 541.501ZM617.468 544.286C615.866 544.545 611.257 546.138 611.349 543.213C611.452 539.871 617.795 543.476 617.468 544.286ZM609.345 544.111C609.053 546.924 602.998 546.691 602.859 544.216C602.624 540.033 609.81 539.617 609.345 544.111ZM602.422 468.231C600.874 472.64 591.446 474.217 587.825 475.574C584.518 476.814 574.639 482.536 571.229 480.461C582.771 472.528 594.599 464.755 604.378 454.626C604.778 457.128 604.169 459.218 603.431 461.586C602.765 463.724 603.108 466.278 602.422 468.231ZM599.552 484.308C597.891 495.108 596.261 506.049 594.013 516.741C589.731 515.432 586.199 512.78 581.699 511.856C577.593 511.013 573.351 510.992 569.211 511.608C560.389 512.92 552.524 517.284 544.826 521.537C544.115 514.131 542.643 506.205 542.817 498.773C542.961 492.599 553.526 490.771 558.318 488.221C561.217 486.678 563.839 484.508 567.142 483.97C570.54 483.416 573.82 483.433 577.178 482.397C585.115 479.948 592.586 476.065 600.362 473.171C600.998 476.878 600.115 480.655 599.552 484.308ZM592.134 530.013C591.782 532.468 592.227 536.849 590.356 538.72C588.594 540.483 584.832 540.54 582.509 541.018C575.432 542.474 568.362 543.944 561.295 545.446C558.134 546.118 554.971 546.76 551.797 547.36C550.283 547.646 546.485 549.098 545.21 547.893C544 546.749 544.901 543.094 544.966 541.56C545.096 538.497 545.269 535.424 545.077 532.36C544.708 526.482 545.036 524.231 550.506 521.19C556.318 517.959 562.321 515.747 568.862 514.549C575.486 513.337 581.796 514 588.1 516.543C589.854 517.25 592.485 518.122 593.302 520.013C594.413 522.587 592.509 527.405 592.134 530.013ZM584.167 624.759C581.573 626.386 575.929 626.108 572.949 626.439C568.137 626.97 563.295 626.667 558.515 625.924C554.917 625.366 549.548 624.592 546.79 622.066C542.872 618.477 547.393 618.313 550.392 618.565C559.109 619.298 567.936 618.786 576.646 618.156C578.341 618.033 582.899 616.545 584.534 617.242C586.624 618.132 585.984 623.62 584.167 624.759ZM579.224 682.763C562.983 681.185 553.566 667.735 547.676 653.986C544.515 646.604 545.655 638.859 545.343 631.053C545.286 629.627 544.391 626.089 545.857 625.024C547.234 624.023 552.806 627.117 554.313 627.486C562.038 629.38 570.581 629.561 578.324 627.722C581.678 626.925 583.556 625.444 584.621 628.768C585.479 631.445 584.071 636.377 583.918 639.183C583.652 644.035 584.413 683.266 579.224 682.763ZM546.779 682.778C546.717 680.422 545.528 656.615 546.681 656.543C550.108 663.935 553.628 670.547 559.866 675.985C563.052 678.764 566.635 681.268 570.62 682.76C572.118 683.32 580.602 683.745 581.018 685.603C581.745 688.854 575.953 687.542 574.235 687.278C572.857 687.065 571.616 686.477 570.264 686.232C567.688 685.765 565.253 686.393 562.666 686.445C558.735 686.525 554.875 686.113 550.942 686.453C547.347 686.763 546.875 686.35 546.779 682.778ZM549.176 575.995C563.08 571.501 574.7 580.012 582.039 591.152C586.223 597.505 587.158 601.947 586.427 609.469C586.164 612.162 586.648 613.985 584.173 615.082C581.722 616.169 576.155 615.363 573.504 615.487C565.879 615.843 558.283 616.317 550.658 615.864C545.705 615.571 545.005 614.732 545.091 609.924C545.193 604.136 544.712 598.375 544.384 592.578C544.03 586.306 541.876 578.354 549.176 575.995ZM544.626 567.659C544.635 563.406 544.38 559.043 544.639 554.797C544.898 550.588 546.69 550.796 550.663 550.078C559.269 548.522 567.864 546.781 576.353 544.672C579.711 543.838 583.505 542.237 587.004 542.224C590.674 542.21 590.48 544.098 590.235 547.348C589.691 554.547 588.372 561.64 587.971 568.801C587.538 576.53 587.311 584.359 587.345 592.096C587.357 594.708 587.992 596.642 585.766 594.198C583.536 591.749 582.445 587.848 580.455 585.096C576.378 579.462 570.318 574.93 563.593 573.021C559.875 571.966 555.964 571.783 552.174 572.547C551.024 572.778 545.263 575.528 544.53 574.985C544.033 574.617 544.625 567.831 544.626 567.659ZM595.492 715.044C601.007 718.993 607.114 722.184 613.297 724.954C616.775 726.512 630.545 729.792 630.985 733.3C631.219 735.171 628.937 737.269 627.443 737.49C625.547 737.771 622.423 736.533 620.492 736.298C613.469 735.446 606.46 735.44 599.608 733.485C585.927 729.581 571.743 728.481 557.92 725.077C554.631 724.268 551.334 723.509 548.029 722.775C544.889 722.078 543.482 722.197 543.371 718.842C543.126 711.477 545.239 703.932 545.255 696.476C556.438 697.752 567.659 697.736 578.873 698.786C583.678 699.236 583.566 700.146 585.671 704.345C587.857 708.701 591.575 712.239 595.492 715.044ZM540.968 475.77C540.826 473.043 540.716 470.31 540.469 467.591C540.303 465.764 538.635 460.658 539.576 459.236C540.693 457.547 541.819 458.578 543.819 458.53C546.456 458.468 548.663 457.408 550.837 456.021C554.955 453.395 558.016 449.938 560.688 445.904C563.038 442.353 562.601 437.502 562.572 433.251C562.498 422.257 563.299 411.534 562.628 400.491C562.32 395.419 566.649 398.53 570.146 399.187C575.865 400.261 582.081 399.517 587.893 399.531C587.677 400.883 575.791 404.239 573.871 405.517C568.956 408.786 566.089 414.016 566.538 419.979C567.439 431.975 580.651 433.98 590.305 434.003C582.296 441.085 574.43 447.837 568.135 456.574C563.494 463.015 555.319 475.716 562.906 482.843C556.199 486.652 549.551 490.89 541.966 492.723C541.626 487.073 541.262 481.423 540.968 475.77ZM537.923 256.791C540.653 258.545 541.802 256.065 543.88 254.781C546.807 252.971 547.776 253.149 548.147 249.108C548.834 241.613 545.681 234.828 541.722 228.695C539.923 225.907 538.128 222.587 535.588 220.408C533.272 218.421 530.932 219.105 528.787 217.051C527.944 216.244 528.125 215.104 526.733 215.136C525.816 215.158 523.588 217.998 522.83 218.625C520.439 220.605 517.513 222.112 514.378 220.479C509.814 218.103 511.28 209.477 514.825 206.683C517.554 204.531 520.78 204.864 523.888 204.516C526.218 204.257 526.703 204.358 525.744 201.691C525.072 199.824 523.524 198.367 522.759 196.54C521.288 193.033 521.608 188.771 520.974 185.059C520.403 181.733 519.07 178.136 519.118 174.758C519.181 170.457 520.586 169.34 524.313 168.134C527.923 166.966 530.912 164.391 533.987 162.228C537.468 159.779 541.28 158.162 544.856 155.926C547.284 154.407 548.851 151.337 551.522 152.771C554.694 154.475 558.049 159.408 560.747 161.928C556.799 164.434 555.882 165.53 556.425 170.436C556.925 174.933 557.841 178.941 561.279 182.074C562.599 183.278 565.063 184.242 566.086 185.63C567.28 187.247 566.504 185.822 566.353 187.647C566.273 188.632 565.494 189.276 565.664 190.414C566.421 195.468 572.228 192.485 574.62 190.729C583.169 184.456 567.207 179.474 563.415 177.189C560.797 175.609 559.503 170.57 563.651 171.909C566.41 172.799 572.644 180.349 573.277 173.467C580.119 177.442 584.341 185.886 590.079 191.225C594.215 195.076 599.773 199.347 596.489 205.496C592.305 213.335 584.006 216.893 576.431 220.275C569.082 223.555 570.608 232.838 574.536 238.52C576.807 241.804 579.782 243.729 583.361 245.325C587.018 246.956 587.777 248.872 588.576 252.655C589.463 256.852 588.521 258.543 584.887 260.711C581.339 262.829 577.629 264.88 573.841 266.537C565.651 270.121 557.154 270.348 548.442 271.569C545.389 271.997 542.461 272.889 540.795 269.862C538.921 266.455 538.784 260.589 537.923 256.791ZM536.606 240.489C534.556 239.408 529.606 242.997 527.015 243.155C522.822 243.409 520.069 243.313 516.347 245.537C509.312 249.741 503.474 255.153 497.832 261.023C491.477 267.634 485.159 274.28 478.826 280.911C475.956 283.914 473.071 286.902 470.155 289.86C467.857 292.192 465.611 295.471 462.767 297.135C462.915 295.159 464.126 293.76 464.556 291.928C464.807 290.857 464.369 289.948 464.531 288.922C464.584 288.589 465.479 287.432 465.614 287.052C465.977 286.05 466.421 285.06 466.852 284.019C467.254 283.048 467.196 282.041 467.603 281.027C468.023 279.981 469.171 279.289 469.57 278.259C470.738 275.244 468.805 273.846 465.713 273.917C466.923 267.885 467.452 264.934 473.759 262.807C479.785 260.775 485.671 258.493 491.207 255.317C496.121 252.498 500.222 248.434 504.947 245.292C509.177 242.478 514.442 239.53 514.399 233.76C516.797 235.387 519.044 236.756 521.788 235.136C524.103 233.769 524.411 232.668 527.087 232.41C529.272 232.201 530.626 232.145 532.576 233.106C534.871 234.236 535.185 235.022 536.521 231.695C538.04 232.973 541.88 238.298 541.751 240.406C541.682 241.567 541.506 242.091 540.067 242.397C538.026 242.831 538.105 241.279 536.606 240.489ZM527.045 555.644C526.048 557.173 521.842 556.891 520.218 556.871C515.267 556.806 513.536 552.651 511.364 548.636C507.939 542.305 502.82 529.156 508.439 522.512C512.873 517.268 521.511 523.875 524.536 527.835C527.149 531.257 526.372 536.388 526.615 540.494C526.82 543.954 529.016 552.627 527.045 555.644ZM513.519 557.937C511.54 559.916 505.115 559.497 502.493 559.923C497.811 560.68 493.156 561.591 488.615 562.974C485.234 564.003 481.892 566.772 481 562.059C480.252 558.097 480.624 553.344 480.696 549.345C480.773 545.03 481.224 540.77 481.599 536.475C481.853 533.57 481.218 528.226 483.589 525.996C485.633 524.075 490.602 523.89 493.255 523.253C497.611 522.208 502.163 520.836 506.692 521.304C504.05 528.475 503.825 535.996 506.658 543.142C507.466 545.182 514.742 556.714 513.519 557.937ZM480.226 529.368C479.122 540.155 478.012 551.01 479.075 561.852C479.139 562.498 479.911 565.46 479.575 565.923C479.228 566.404 476.479 566.652 475.854 566.799C473.375 567.387 470.9 568.011 468.405 568.533C463.548 569.548 462.915 566.48 461.962 561.979C459.921 552.336 463.878 541.881 466.275 532.62C467.443 528.11 468.309 527.59 472.743 527.216C475.829 526.957 480.695 524.784 480.226 529.368ZM461.473 569.613C459.617 571.301 457.762 563.337 457.599 562.525C456.95 559.302 457.311 556.033 457.32 552.76C457.336 547.646 456.945 542.557 456.938 537.468C456.933 534.715 454.871 529.088 458.128 527.631C459.084 527.204 462.881 527.382 463.743 527.944C465.533 529.113 464.827 529.87 464.297 531.903C463.109 536.467 462.083 541.052 461.049 545.653C460.034 550.164 459.034 554.505 459.517 559.164C459.676 560.705 462.656 568.537 461.473 569.613ZM520.657 519.351C525.181 518.076 525.423 521.542 525.416 524.859C524.726 524.331 518.297 520.016 520.657 519.351ZM460.144 275.852C459.036 277.679 452.015 278.178 450.008 278.659C446.061 279.604 442.113 280.543 438.176 281.528C430.8 283.372 423.606 285.452 416.046 286.417C420.197 279.77 421.489 274.03 420.717 265.734C419.742 255.26 418.504 244.893 416.092 234.641C413.715 224.531 410.963 214.489 408.313 204.447C407.011 199.513 405.603 194.674 403.871 189.873C402.482 186.026 400.314 181.182 402.67 177.238C408.651 181.601 413.447 186.302 416.858 192.93C420.513 200.035 423.703 207.329 427.944 214.127C429.884 217.235 432.148 220.069 434.222 223.077C435.457 224.867 436.356 227.45 437.927 228.96C439.739 230.7 441.671 231.521 442.707 228.584C443.818 225.432 440.274 219.196 439.228 216.236C436.701 209.091 434.195 201.96 432.247 194.631C430.67 188.706 428.064 181.543 428.987 175.292C429.9 169.103 434.099 173.533 436.223 176.41C440.604 182.342 443.227 189.256 446.104 195.981C448.749 202.159 451.834 208.05 454.761 214.085C455.779 216.185 457.121 221.61 459.789 222.234C463.666 223.143 463.337 217.683 462.967 215.468C460.51 200.781 454.096 186.719 452.765 171.778C452.701 171.064 451.774 165.513 452.519 165.049C453.964 164.15 455.914 169.782 456.538 171.162C459.781 178.339 462.04 185.905 464.112 193.486C465.875 199.934 467.469 206.43 469.448 212.817C470.535 216.327 471.781 219.779 473.009 223.242C474.121 226.379 475.249 231.739 478.147 233.806C482.258 236.738 496.972 229.767 498.463 235.999C499.524 240.429 485.88 243.997 482.975 245.342C479.15 247.113 475.398 249.052 471.571 250.825C468.674 252.166 464.51 252.716 462.414 255.239C460.193 257.912 459.838 261.666 459.772 264.982C459.721 267.492 461.46 273.686 460.144 275.852ZM450.846 324.226C450.651 325.618 449.545 327.462 449.047 328.787C448.033 331.486 447.172 334.711 445.762 337.233C444.549 339.405 442.759 341.347 441.588 343.551C440.476 345.643 440.329 348.055 439.03 350.149C437.545 352.543 435.09 354.264 433.615 356.642C432.888 357.816 432.137 359.156 431.109 360.405C427.471 364.832 423.86 369.008 420.934 373.75C420.185 374.964 416.531 380.263 415.076 380.55C412.036 381.147 415.575 376.825 416.17 375.931C420.478 369.466 424.304 362.659 428.462 356.093C432.49 349.736 436.611 343.428 440.488 336.975C443.649 331.714 445.835 324.161 450.973 320.455C450.993 321.715 450.951 322.972 450.846 324.226ZM591.32 264.807C593.823 275.095 596.816 285.064 599.636 295.26C602.254 304.72 605.738 314.844 606.823 324.597C607.898 334.258 610.368 344.033 613.689 353.203C615.225 357.446 616.804 361.705 618.471 365.899C619.387 368.203 620.411 370.455 621.45 372.705C622.257 374.453 624.389 377.284 624.471 379.136C624.536 380.62 625.052 380.027 623.588 381.142C622.072 382.296 619.446 381.877 617.68 382.08C613.075 382.613 608.585 384.345 604.095 385.467C595.437 387.631 585.117 389.349 576.245 387.843C572.513 387.209 568.637 386.66 564.947 385.835C560.407 384.819 559.473 382.94 558.541 378.478C556.503 368.721 554.748 358.99 553.065 349.169C551.065 337.486 548.899 325.817 547.355 314.062C545.795 302.17 544.675 290.266 542.231 278.503C552.089 280.152 561.373 282.014 571.261 279.313C580.016 276.921 586.337 272.245 591.32 264.807ZM629.912 392.174C632.115 396.716 626.803 400.8 624.229 404.299C620.834 408.91 617.663 413.729 613.715 417.9C612.53 413.16 611.49 407.826 608.33 403.933C604.293 398.962 599.581 400.993 594.635 398.641C599.822 396.118 606.444 397.081 611.946 394.831C617.374 392.612 622.854 390.87 627.903 387.987C628.574 389.382 629.237 390.781 629.912 392.174ZM610.677 498.156C607.362 498.34 609.58 491.349 609.795 489.612C610.387 484.837 610.985 480.062 611.503 475.279C614.238 482.491 616.973 489.703 619.706 496.915C616.701 497.344 613.715 497.987 610.677 498.156ZM605.285 532.73C605.737 533.735 607.846 537.084 606.181 537.702C603.899 538.548 603.624 533 605.285 532.73ZM601.329 455.033C590.769 463.464 580.283 471.917 568.857 479.175C566.353 480.766 563.832 481.431 562.173 478.278C560.869 475.798 562.246 473.004 563.083 470.577C565.216 464.388 568.932 459.008 573.05 453.971C581.276 443.912 591.065 435.321 603.556 431.355C605.6 430.706 608.755 428.748 609.471 431.452C609.892 433.042 608.108 437.014 607.746 438.506C606.254 444.67 606.58 450.843 601.329 455.033ZM631.727 516.521C631.96 523.68 612.389 517.906 609.951 516.626C612.509 515.768 631.622 513.303 631.727 516.521ZM638.995 516.566C640.157 516.876 644.617 517.269 642.951 518.793C641.46 520.158 634.708 519.61 632.919 519.778C634.121 515.828 635.034 515.512 638.995 516.566ZM635.369 506.976C634.932 508.569 634.754 510.999 633.326 512.09C631.548 513.451 627.768 512.624 625.755 512.635C622.336 512.653 618.921 512.828 615.518 513.168C614.216 513.297 608.943 514.886 607.723 513.802C606.827 513.006 607.161 509.27 607.813 508.43C609.153 506.704 612.239 507.302 614.173 507.233C621.25 506.98 628.289 506.959 635.369 506.976ZM630.826 480.514C629.827 479.029 629.648 479.045 629.222 476.803C628.767 474.403 627.608 472.35 626.927 470.031C625.429 464.929 630.217 465.382 633.729 467.253C642.84 472.107 640.641 489.069 638.388 497.009C635.112 494.601 633.903 493.509 632.776 489.623C632.348 488.146 631.868 486.696 631.422 485.227C631.095 484.146 631.323 481.253 630.826 480.514ZM631.615 397.961C634.158 397.654 636.486 405.547 635.759 407.255C634.272 410.749 628.588 413.87 625.694 416.1C623.767 417.585 621.852 419.287 619.793 420.582C617.88 421.783 616.78 421.109 615.002 421.686C612.428 422.519 611.805 425.242 609.171 426.412C605.465 428.059 600.974 428.52 597.103 430.007C592.407 431.811 588.103 431.86 583.179 431.005C576.097 429.776 567.797 426.262 568.435 417.658C569.56 402.476 599.711 394.697 607.933 407.57C610.074 410.92 610.04 414.826 611.43 418.425C612.935 422.32 614.394 420.789 616.657 417.921C619.619 414.167 622.37 410.212 625.215 406.369C626.135 405.127 629.779 398.185 631.615 397.961ZM446.841 545.778C446.697 548.36 446.851 550.979 445.953 553.443C445.049 555.927 443.214 557.936 442.158 560.351C440.017 565.244 440.033 571.165 440.118 576.408C440.317 588.608 443.206 600.457 444.734 612.511C439.648 612.499 434.391 612.556 429.461 611.102C425.058 609.803 424.356 606.585 423.11 602.53C419.614 591.141 415.837 579.801 414.708 567.874C414.171 562.19 413.945 556.46 413.688 550.758C413.464 545.756 414.587 543.574 419.103 541.098C428.918 535.714 439.092 531.231 448.806 525.592C447.813 532.283 447.219 539.026 446.841 545.778ZM865.837 146.06C863.447 145.621 861.035 145.347 858.623 145.059C857.365 144.909 853.444 145.118 852.503 144.298C851.382 143.322 853.322 135.942 853.422 134.358C854.029 124.835 853.323 115.017 852.449 105.53C850.869 88.3545 845.468 72.4429 833.005 60.0756C826.802 53.9194 819.829 49.0352 811.357 46.6782C806.422 45.3048 801.336 44.5725 796.389 43.2409C792.4 42.1653 788.676 40.9342 784.531 40.508C776.264 39.6576 768.706 36.5339 760.638 34.7268C754.703 33.3971 745.156 30.2437 741.308 36.9461C738.278 33.3934 735.231 30.7257 731.411 28.0756C727.752 25.5372 727.153 23.0016 722.672 25.9327C713.966 31.6283 705.811 38.5763 697.679 45.0563C690.084 51.1083 682.736 57.446 674.776 63.0113C666.658 68.6883 668.197 78.3218 672.015 86.3083C679.197 101.341 690.276 114.192 699.973 127.077C706.048 135.149 712.142 143.232 718.192 151.32C723.976 159.05 728.978 167.997 735.737 174.942C739.998 179.32 745.084 173.595 748.93 170.95C753.703 167.664 758.393 164.256 763.172 160.98C773.123 154.156 783.772 147.764 794.278 141.824C795.042 143.99 795.806 146.156 796.57 148.323C794.263 148.496 791.145 147.98 789.972 150.461C788.294 154.004 792.41 154.469 793.131 156.501C793.776 158.315 791.133 163.107 790.351 164.742C788.593 168.426 786.138 171.602 783.434 174.634C772.735 186.635 759.195 195.219 745.457 203.401C730.757 212.155 715.001 217.5 698.907 223.141C690.723 226.009 682.229 227.342 673.784 229.178C665.646 230.948 657.516 233.273 649.201 233.941C632.188 235.306 614.135 236.329 597.328 232.66C595.489 232.259 593.542 231.389 591.67 231.224C590.17 231.091 589.059 231.72 587.642 231.801C584.601 231.975 582.858 229.255 580.442 231.782C579.233 233.046 579.211 235.168 577.527 232.809C575.384 229.808 580.861 229.228 582.891 228.373C589.726 225.494 595.22 219.699 599.562 213.84C603.902 207.986 604.525 201.734 601.883 194.88C599.242 188.029 593.234 183.385 588.725 177.821C586.543 175.127 584.536 172.277 582.14 169.762C580.861 168.419 578.801 167.133 578.721 165.778C578.628 164.203 579.571 163.421 579.007 161.507C578.861 161.009 578.235 160.726 578.102 160.179C577.892 159.307 578.217 158.559 578.108 157.709C577.854 155.761 577.09 154.537 576.009 152.941C575.335 151.943 574.35 149.946 573.423 149.199C571.798 147.889 569.582 148.423 567.93 147.095C565.316 144.995 564.396 140.57 562.084 138.02C558.828 134.432 558.134 138.057 554.685 136.914C551.736 135.935 551.77 131.497 549.387 129.996C546.03 127.882 543.202 131.772 540.221 132.638C536.3 133.778 537.806 129.353 534.311 128.95C531.154 128.586 526.782 134.989 525.207 137.263C523.604 135.394 521.849 132.209 518.963 133.35C515.934 134.548 515.395 140.124 513.181 142.113C512.41 142.805 512.573 143.315 511.623 143.634C510.398 144.044 508.764 142.265 507.179 142.807C503.983 143.902 504.373 148.168 504.366 150.932C500.594 150.381 497.963 150.1 496.7 154.165C495.464 158.144 494.995 156.388 491.019 157.681C487.59 158.794 487.111 162.05 486.545 165.234C486.195 167.214 486.519 168.023 487.051 169.828C487.723 172.102 487.723 172.074 486.628 174.244C484.719 178.032 484.605 182.204 484.299 186.372C483.975 190.819 483.197 194.868 484.461 199.212C485.243 201.9 485.302 205.558 487.935 207.063C488.98 207.66 490.753 207.333 491.642 207.925C493.339 209.055 492.822 210.774 493.952 212.424C494.799 213.659 496.164 213.778 497.113 214.779C498.144 215.869 498.205 217.196 498.792 218.526C500.531 222.464 502.166 224.369 496.499 224.594C493.004 224.733 489.275 225.781 485.793 225.459C481.684 225.081 480.662 222.784 479.355 219.287C472.764 201.665 469.222 182.565 460.541 165.808C458.635 162.128 450.812 147.097 447.506 158.049C444.717 167.286 448.376 178.559 449.778 187.753C445.377 183.787 443.75 176.642 440.408 171.799C437.94 168.221 430.21 159.435 425.68 164.47C422.109 168.438 423.002 176.853 423.66 181.597C424.702 189.103 427.1 196.336 428.813 203.698C426.656 200.876 425.592 197.431 424.096 194.254C422.219 190.27 419.876 186.49 417.207 182.989C414.875 179.93 412.267 177.086 409.44 174.478C407.279 172.483 403.408 168.117 400.339 167.881C392.441 167.275 394.925 181.764 396.128 185.906C398.621 194.492 401.325 202.841 403.26 211.599C407.044 228.711 411.628 245.428 414.415 262.758C415.032 266.6 415.776 269.667 414.256 273.361C412.917 276.615 411.527 280.506 409.057 283.008C403.463 288.674 398.819 294.724 394.639 301.551C390.161 308.863 385.551 316.259 381.895 324.022C380.215 327.593 378.84 331.456 376.908 334.891C375.164 337.991 373.067 340.441 371.827 343.874C365.904 360.276 361.518 376.391 359.509 393.759C357.86 408.018 359.397 426.985 376.613 430.322C384.522 431.855 391.623 428.348 398.754 425.453C406.131 422.46 411.464 417.593 417.481 412.421C424.957 405.995 432.719 399.966 440.274 393.647C447.832 387.324 454.814 380.312 462.332 373.922C469.758 367.608 476.475 360.903 482.897 353.572C489.267 346.299 494.442 338.242 500.609 330.867C500.586 340.415 499.168 349.876 498.771 359.411C498.407 368.153 498.399 376.886 498.751 385.624C499.104 394.357 496.797 402.669 496.778 411.383C496.759 419.883 496.422 428.334 496.236 436.825C496.152 440.634 495.406 444.907 496.829 448.582C497.891 451.326 501.232 452.183 504.081 452.923C508.485 454.066 521.735 451.865 523.701 456.57C524.775 459.137 523.694 463.811 523.778 466.648C523.917 471.323 524.089 475.997 524.249 480.671C524.414 485.498 524.575 490.326 524.751 495.152C524.908 499.405 525.735 504.143 525.222 508.353C524.784 511.962 522.68 511.49 519.345 511.675C514.312 511.953 509.277 512.177 504.241 512.396C496.855 512.72 489.146 512.572 482.065 513.444C479.09 513.81 475.841 513.654 472.703 514.251C468.768 514.999 465.134 515.189 461.144 515.387C457.926 515.546 453.79 515.312 451.263 517.691C450.386 518.516 450.19 519.5 449.568 520.418C448.404 522.139 449.052 521.686 447.141 522.073C439.679 523.585 432.592 525.29 425.295 527.833C421.642 529.106 418.252 530.816 414.583 532.013C411.366 533.063 409.009 534.355 407.42 537.512C404.579 543.151 405.299 551.309 405.504 557.386C405.828 566.867 407.934 575.893 410.206 585.062C412.569 594.601 414.422 604.395 419.018 613.159C420.529 616.038 422.159 619.712 425.244 621.213C429.228 623.15 435.353 621.976 439.7 621.983C442.618 621.988 450.433 622.99 452.613 620.544C454.725 618.175 452.6 611.494 452.302 608.554C451.257 598.252 449.376 587.854 449.401 577.482C451.781 580.998 455.908 587.068 460.037 581.681C461.053 580.355 460.657 579.739 462.461 578.97C463.46 578.545 465.564 578.284 466.651 578.358C468.13 578.457 468.677 579.052 470.036 578.761C471.238 578.503 472.591 577.426 473.97 577.099C491.063 573.036 508.058 568.657 525.225 565.038C529.764 564.08 529.119 567.565 529.418 571.489C529.75 575.829 529.118 580.212 529.72 584.504C530.244 588.238 530.652 591.877 529.914 595.633C529.043 600.064 529.604 603.76 530.47 608.148C533.809 625.067 533.213 643.417 533.966 660.613C534.357 669.569 533.516 678.713 534.358 687.621C534.677 690.986 536.555 692.845 537.316 695.905C538.19 699.42 535.806 703.895 535.081 707.299C533.625 714.133 531.066 723.914 535.747 729.86C538.275 733.072 541.589 733.538 545.331 734.623C549.809 735.923 554.223 737.438 558.723 738.669C575.163 743.169 592.928 744.049 609.778 746.529C613.903 747.136 617.73 747.079 621.883 746.792C624.442 746.614 630.746 747.456 632.875 745.924C634.015 745.105 633.437 744.078 634.017 743.076C634.84 741.652 635.837 741.074 637.239 740.188C639.56 738.721 642.244 737.864 642.636 734.836C643.593 727.419 634.325 723.49 629.369 720.283C623.036 716.184 615.386 714.601 608.665 711.255C604.956 709.409 601.379 707.317 597.806 705.222C596.256 704.314 593.115 703.286 592.036 701.856C590.934 700.397 592.013 698.314 592.469 696.229C594.352 687.614 593.716 678.804 594.69 670.097C595.664 661.376 595.399 652.602 595.72 643.836C596.052 634.809 596.797 625.805 597.369 616.791C597.896 608.466 598.428 600.007 598.516 591.673C598.599 583.945 599.652 576.364 599.902 568.586C599.986 565.946 599.513 561.157 601.265 558.921C602.803 556.96 607.892 557.206 610.266 556.862C616.666 555.934 622.756 555.119 629.082 554.559C644.137 553.227 660.89 552.246 675.125 546.999C680.995 544.835 688.807 541.879 690.755 535.138C692.995 527.389 690.071 517.864 689.974 509.941C689.871 501.481 687.419 493.228 685.58 485.031C683.599 476.207 682.352 467.232 680.213 458.441C678.249 450.375 675.064 443.231 672.054 435.573C670.832 432.467 663.875 421.764 666.033 419.125C667.196 417.703 671.383 417.343 673.081 416.692C676.742 415.292 680.41 413.699 683.786 411.704C688.294 409.04 698.163 404.633 698.618 398.714C699.051 393.057 693.492 387.34 690.667 382.897C686.114 375.738 680.372 369.48 676.036 362.179C667.273 347.425 660.304 331.265 653.915 315.365C650.573 307.047 649.482 299.214 648.932 290.335C658.636 290.358 668.514 291.552 678.158 290.195C688.653 288.718 699.162 286.23 709.565 284.18C728.509 280.446 746.699 276.23 764.248 267.822C780.683 259.949 797.358 251.332 810.965 238.834C818.001 232.372 825.178 225.786 831.254 218.396C837.496 210.805 842.191 202.18 847.006 193.658C852.321 184.251 856.552 174.365 859.897 164.076C860.569 162.007 860.573 159.373 861.434 157.419C862.406 155.213 864.173 155.155 866.018 153.993C868.614 152.358 870.342 146.887 865.837 146.06Z" fill="#182234"/>
<path fill-rule="evenodd" clip-rule="evenodd" d="M639.89 40.7595C642.109 42.6654 651.671 49.3789 654.759 47.7465C658.57 45.7313 652.537 39.6609 650.912 38.1643C648.845 36.2603 641.459 30.5002 638.63 31.0349C632.978 32.1043 637.894 39.0441 639.89 40.7595Z" fill="#182234"/>
<path fill-rule="evenodd" clip-rule="evenodd" d="M644.613 109.662C645.867 107.195 649.201 106.288 650.742 103.901C652.597 101.031 653.449 98.5194 652.765 95C648.018 96.598 642.617 101.435 639.441 105.217C636.786 108.378 633.014 114.983 639.943 115C639.882 114.06 639.822 113.118 639.761 112.179C641.838 112.481 643.669 111.521 644.613 109.662Z" fill="#182234"/>
<path fill-rule="evenodd" clip-rule="evenodd" d="M621.998 68.6177C625.058 69.4974 627.584 69.3728 630.711 69.4416C632.98 69.4922 636.081 70.7394 637.92 69.3336C636.288 68.3886 638.35 68.3364 637.946 67.4149C637.607 66.6467 636.962 66.8984 636.439 66.2765C634.571 64.0608 632.946 64.0878 629.985 63.627C627.689 63.2682 624.314 62.4408 622.108 63.5817C619.788 64.7828 618.889 67.7241 621.998 68.6177Z" fill="#182234"/>
<path fill-rule="evenodd" clip-rule="evenodd" d="M665.563 136.579C667.542 134.919 669.7 130.113 670.1 127.633C670.256 126.661 669.556 125.917 669.64 125.202C669.8 123.839 672.601 121.205 669.667 120.087C667.101 119.108 664.689 126.712 664.037 128.371C663.367 130.068 661.545 133.374 662.105 135.015C662.569 136.377 664.226 137.699 665.563 136.579Z" fill="#182234"/>
<path fill-rule="evenodd" clip-rule="evenodd" d="M689.241 33.6624C691.032 32.0003 692.165 30.1152 691.98 27.8295C691.833 26.029 690.484 19.8214 688.967 20.0039C683.928 20.6121 686.194 36.4929 689.241 33.6624Z" fill="#182234"/>
<path fill-rule="evenodd" clip-rule="evenodd" d="M582.864 311.197C582.45 309.679 580.942 300.399 578.336 301.031C576.356 301.511 578.413 309.678 578.505 310.753C578.698 313.001 574.377 312.927 572.369 312.623C569.184 312.142 569.439 310.276 568.963 307.381C568.784 306.287 568.094 301.342 565.812 303.153C564.271 304.377 565.373 310.474 565.501 311.865C565.946 316.684 566.469 324.912 569.333 329.287C570.475 331.032 571.503 331.894 572.703 329.656C573.917 327.391 571.169 320.488 570.688 318.172C572.955 318.393 579.481 317.658 580.846 320.013C582.094 322.162 580.099 328.303 584.1 328.801C586.473 329.097 586.043 326.348 585.815 324.234C585.336 319.798 584.034 315.481 582.864 311.197Z" fill="#182234"/>
<path fill-rule="evenodd" clip-rule="evenodd" d="M588.943 309.05C586.315 310.237 589.615 327.545 593.46 326.987C597.947 326.334 591.447 307.919 588.943 309.05Z" fill="#182234"/>
<path fill-rule="evenodd" clip-rule="evenodd" d="M586.015 303.319C585.691 307.216 590.755 308.668 590.995 304.433C591.179 301.166 586.356 299.222 586.015 303.319Z" fill="#182234"/>
<path fill-rule="evenodd" clip-rule="evenodd" d="M558.217 199.996C560.529 208.612 581.573 212.277 578.738 200.657C577.317 194.839 571.388 200.008 567.248 199.331C564.569 198.893 556.589 193.92 558.217 199.996Z" fill="#182234"/>
<path fill-rule="evenodd" clip-rule="evenodd" d="M552.932 184.627C553.921 180.017 543.836 174.928 540.177 176.197C534.824 178.055 534.847 189.93 538.93 193.087C539.468 193.502 541.115 194.493 541.922 193.703C543.195 192.454 541.804 192.795 541.506 191.548C541.035 189.565 539.493 187.019 541.029 184.762C543.933 180.5 551.515 191.233 552.932 184.627Z" fill="#182234"/>
<path fill-rule="evenodd" clip-rule="evenodd" d="M522.181 207.005C518.545 206.801 515.563 212.445 520.913 211.972C521.937 211.881 524.138 211.623 524.733 210.547C525.717 208.764 523.779 207.095 522.181 207.005Z" fill="#182234"/>
<path fill-rule="evenodd" clip-rule="evenodd" d="M698.58 72.4624C697.336 70.6622 694.727 67.765 692.482 69.5707C690.492 71.172 690.839 75.1242 691.603 77.0881C693.656 82.3753 698.509 87.0854 704 84.0392C702.092 80.2179 701.017 75.9866 698.58 72.4624Z" fill="#182234"/>
</svg>
