<svg width="20" height="20" viewBox="0 0 20 20" fill="none" xmlns="http://www.w3.org/2000/svg">
<g clip-path="url(#clip0)">
<path d="M20 3.78906C19.2511 4.12094 18.4306 4.31793 17.6172 4.41406C18.4738 3.90121 19.1078 3.0986 19.4141 2.14844C18.6086 2.62634 17.7605 2.98294 16.8416 3.16406C16.0475 2.31964 14.9806 1.875 13.9062 1.875C12.8516 1.875 11.8439 2.23068 11.0359 2.99057C10.2022 3.77457 9.72824 4.85916 9.72656 5.97656C9.7261 6.28754 9.77676 6.60095 9.84879 6.91116C6.54953 6.74576 3.48984 5.18066 1.40625 2.61719C1.02859 3.26736 0.819855 3.98544 0.820312 4.6875C0.821228 6.00983 1.47842 7.29935 2.65625 8.08594C2.00317 8.06656 1.35193 7.93533 0.78125 7.61719V7.69196C0.78186 9.64523 2.18689 11.2538 4.10156 11.6406C3.76328 11.7329 3.32458 11.7982 2.97226 11.7982C2.97104 11.7982 2.96982 11.7982 2.96875 11.7982C2.69333 11.7978 2.41791 11.7706 2.14844 11.7188C2.686 13.3904 4.33823 14.6155 6.09375 14.6484C4.64081 15.7904 2.38281 16.3281 0.976868 16.3281C0.65033 16.3275 0.324097 16.3278 0 16.2891C1.8721 17.4904 4.04984 18.125 6.27396 18.125H6.28952V18.1282C13.7891 18.1282 17.9688 11.8736 17.9688 6.45111C17.9688 6.2735 17.9417 6.07437 17.9297 5.89844C18.7328 5.31754 19.449 4.61304 20 3.78906ZM15.7365 10.0116C15.2763 11.2314 14.615 12.3337 13.7711 13.288C12.8761 14.2998 11.8161 15.0941 10.6207 15.6488C9.39072 16.2195 8.03238 16.5262 6.57928 16.562L6.28677 16.5625H6.27396C6.18942 16.5625 6.10504 16.5614 6.02081 16.5593C6.3884 16.3564 6.73828 16.1292 7.05917 15.8769C7.86575 15.1277 8.22571 14.1786 8.35938 13.1282C8.35938 13.1282 7.70187 13.2082 6.95312 13.2031C6.37299 13.1992 5.73822 13.1516 5.31158 12.9301C6.37329 12.4529 6.9313 11.6615 7.15836 10.6641C6.25 10.7422 4.14062 10.2734 3.38394 9.67072C4.21875 9.375 5 8.75 5.3125 8.24219C5.3125 8.24219 3.82812 7.53906 2.7803 6.03165C4.81552 7.48383 7.23923 8.34488 9.77066 8.47168L11.8359 8.55469L11.4087 6.72119L11.3289 6.35757C11.302 6.21017 11.2889 6.08521 11.2891 5.97885C11.29 5.29068 11.588 4.61624 12.1063 4.12872C12.594 3.67004 13.1996 3.4375 13.9062 3.4375C14.4283 3.4375 14.9437 3.61603 15.3716 3.93738C16.0547 4.53125 16.4062 5.3125 16.4062 6.45111C16.4062 7.61948 16.1746 8.85071 15.7365 10.0116V10.0116Z" fill="#7B88A8"/>
</g>
<defs>
<clipPath id="clip0">
<rect width="20" height="20" fill="white"/>
</clipPath>
</defs>
</svg>
