<svg width="28" height="29" viewBox="0 0 28 29" fill="none" xmlns="http://www.w3.org/2000/svg">
<path d="M3.01383e-06 6.9059C-0.000785313 7.69107 0.153086 8.46871 0.45283 9.19442C0.752575 9.92013 1.19232 10.5797 1.74697 11.1354C2.30161 11.6912 2.96029 12.1323 3.6854 12.4335C4.4105 12.7347 5.18783 12.8901 5.973 12.8909C7.55882 12.8893 9.07908 12.2579 10.1994 11.1355C11.3197 10.0131 11.9483 8.49172 11.947 6.9059V0.920898H5.973C2.674 0.920898 3.01383e-06 3.6009 3.01383e-06 6.9059V6.9059ZM15.929 6.9059V22.8659C15.929 26.1719 18.603 28.8519 21.902 28.8519C23.4878 28.8503 25.0081 28.2189 26.1284 27.0965C27.2487 25.9741 27.8773 24.4527 27.876 22.8669V6.9059C27.8768 6.12064 27.7229 5.34292 27.4231 4.61715C27.1233 3.89137 26.6834 3.23177 26.1287 2.67599C25.5739 2.12022 24.9151 1.67917 24.1899 1.37803C23.4647 1.07689 22.6873 0.921555 21.902 0.920898C18.603 0.920898 15.929 3.6009 15.929 6.9059Z" fill="#E01E5A"/>
</svg>
