<svg width="29" height="29" viewBox="0 0 29 29" fill="none" xmlns="http://www.w3.org/2000/svg">
<path d="M6.83238 28.8519C8.4182 28.8503 9.93845 28.2189 11.0588 27.0965C12.1791 25.9741 12.8077 24.4527 12.8064 22.8669C12.8077 21.2811 12.1791 19.7597 11.0588 18.6373C9.93845 17.5149 8.4182 16.8835 6.83238 16.8819H0.859378V22.8669C0.859378 26.1719 3.53338 28.8519 6.83238 28.8519ZM6.83238 12.8919H22.7624C26.0604 12.8919 28.7354 10.2119 28.7354 6.9059C28.7367 5.32008 28.1081 3.79867 26.9878 2.67629C25.8675 1.55391 24.3472 0.922489 22.7614 0.920898H6.83238C3.53338 0.920898 0.859378 3.6009 0.859378 6.9059C0.85859 7.69107 1.01246 8.46871 1.31221 9.19442C1.61195 9.92013 2.0517 10.5797 2.60634 11.1354C3.16099 11.6912 3.81967 12.1323 4.54477 12.4335C5.26987 12.7347 6.04721 12.8901 6.83238 12.8909" fill="#ECB22E"/>
</svg>
