<svg width="28" height="28" viewBox="0 0 28 28" fill="none" xmlns="http://www.w3.org/2000/svg">
<path d="M21.902 0C18.603 0 15.929 2.68 15.929 5.985C15.9282 6.77017 16.0821 7.54781 16.3818 8.27352C16.6816 8.99923 17.1213 9.65879 17.676 10.2146C18.2306 10.7703 18.8893 11.2114 19.6144 11.5126C20.3395 11.8138 21.1168 11.9692 21.902 11.97H27.876V5.985C27.8773 4.39918 27.2487 2.87777 26.1284 1.75539C25.0081 0.633013 23.4878 0.00159057 21.902 0V0ZM21.902 15.96H5.973C2.674 15.96 0 18.64 0 21.946C0 25.251 2.674 27.931 5.973 27.931H21.903C25.201 27.931 27.876 25.251 27.876 21.946C27.876 18.64 25.201 15.96 21.902 15.96" fill="#36C5F0"/>
</svg>
