<svg width="29" height="28" viewBox="0 0 29 28" fill="none" xmlns="http://www.w3.org/2000/svg">
<path d="M28.7354 21.946C28.7354 18.64 26.0604 15.96 22.7614 15.96C19.4624 15.96 16.7884 18.64 16.7884 21.946V27.931H22.7614C24.3472 27.9294 25.8675 27.298 26.9878 26.1756C28.1081 25.0532 28.7367 23.5318 28.7354 21.946V21.946ZM12.8064 21.946V5.985C12.8077 4.39918 12.1791 2.87777 11.0588 1.75539C9.93845 0.633013 8.4182 0.00159057 6.83238 0C3.53338 0 0.859375 2.68 0.859375 5.985V21.945C0.859375 25.252 3.53338 27.932 6.83238 27.932C8.4182 27.9304 9.93845 27.299 11.0588 26.1766C12.1791 25.0542 12.8077 23.5328 12.8064 21.947" fill="#2EB67D"/>
</svg>
